<?xml version="1.0" encoding="UTF-8"?>
<svg width="394px" height="569px" viewBox="0 0 394 569" version="1.1" xmlns="http://www.w3.org/2000/svg" xmlns:xlink="http://www.w3.org/1999/xlink">
    <!-- Generator: Sketch 51.3 (57544) - http://www.bohemiancoding.com/sketch -->
    <title>b10</title>
    <desc>Created with Sketch.</desc>
    <defs></defs>
    <g id="Page-1" stroke="none" stroke-width="1" fill="none" fill-rule="evenodd">
        <g id="b10" fill-rule="nonzero">
            <g id="Group" fill="#FFFAFA">
                <path d="M232.166126,568.29609 C232.166126,568.330387 232.166126,568.371217 232.166126,568.412047 C238.902131,568.412047 245.639769,568.394082 252.377406,568.415313 C258.307115,568.436545 264.238456,568.513306 270.169796,568.53617 C275.836724,568.555769 281.50202,568.552502 287.168947,568.532904 C292.716726,568.514939 298.262872,568.469209 303.810651,568.430012 C304.638166,568.426746 305.333474,568.29609 305.648485,567.303102 C307.279032,562.171578 308.916108,557.036788 310.636426,551.931395 C312.356743,546.826003 314.174991,541.758174 315.94101,536.66748 C317.615626,531.844632 319.241277,527.003818 320.950169,522.189136 C322.978968,516.484358 325.064894,510.795911 327.142658,505.104199 C328.787895,500.598192 330.488627,496.118316 332.10122,491.60251 C333.978227,486.343596 335.690383,481.029154 337.648999,475.80617 C340.371474,468.536784 343.222892,461.311494 346.084103,454.09437 C347.672214,450.084856 349.412117,446.139038 351.049193,442.150756 C352.748292,438.01222 354.396794,433.855718 356.090996,429.718815 C357.548532,426.161699 359.064827,422.632347 360.510939,419.070331 C363.114265,412.656743 365.66373,406.223557 368.276849,399.811602 C370.072247,395.411753 371.983529,391.057633 373.757708,386.647985 C376.050921,380.956273 378.246202,375.225364 380.519828,369.525485 C381.206976,367.800823 381.967572,366.180685 381.990422,364.206143 C382.052445,358.821473 382.325019,353.438436 382.563317,348.055398 C382.768972,343.341975 383.093776,338.63345 383.278212,333.920026 C383.536096,327.426411 383.694418,320.92953 383.92782,314.435915 C384.195497,306.947679 384.502347,299.459443 384.779817,291.969574 C384.938139,287.734679 385.057288,283.49815 385.227035,279.264888 C385.382092,275.382765 385.608965,271.503907 385.752596,267.621784 C385.951722,262.230581 386.051285,256.836111 386.281423,251.444908 C386.514824,245.985111 386.859214,240.528579 387.144846,235.070415 C387.373351,230.719562 387.539833,226.367076 387.820568,222.01949 C388.173119,216.558059 388.636658,211.103161 389.008795,205.64173 C389.309116,201.250047 389.485391,196.848565 389.815091,192.456882 C390.422262,184.390493 391.119203,176.330636 391.747592,168.264246 C392.475544,158.935391 393.188807,149.603269 393.836782,140.266247 C393.889012,139.516607 393.562576,138.615079 393.128416,137.97813 C390.590377,134.25116 387.947878,130.596052 385.380459,126.890315 C383.100304,123.602677 380.813621,120.316672 378.628132,116.96534 C375.383359,111.98897 372.236517,106.948906 369.022755,101.952938 C367.202875,99.1209639 365.312811,96.3330864 363.488034,93.5027456 C361.3205,90.143247 359.175816,86.7706828 357.045821,83.3899526 C353.774933,78.1980003 350.505677,73.0060479 347.273962,67.7895975 C344.690221,63.6183971 342.1734,59.4112661 339.614143,55.2286333 C337.546171,51.8495363 335.447188,48.4916709 333.38901,45.1076743 C331.414072,41.8657663 329.492997,38.5911943 327.513163,35.3509195 C325.533329,32.1139112 323.494737,28.9128333 321.511639,25.6774582 C319.317989,22.1007436 317.165144,18.5011642 314.98292,14.91955 C312.715823,11.1991136 310.466679,7.46724471 308.147352,3.77947234 C307.611997,2.92857357 306.972183,1.93721935 306.128346,1.5256522 C304.300304,0.63555656 302.276402,0.506533523 300.22312,0.754780379 C296.77106,1.16961394 293.305943,1.49298814 289.847354,1.84739319 C285.56125,2.28672479 281.268618,2.67379391 276.989043,3.16702121 C272.241032,3.71577742 267.507711,4.38702385 262.761333,4.95211209 C256.99321,5.63969055 251.216927,6.2619409 245.445539,6.92992092 C240.101783,7.54890486 234.758027,8.19402005 229.414271,8.82117 C226.159705,9.2049727 222.903507,9.57081018 219.650573,9.95951249 C216.355202,10.3531144 213.064728,10.7875464 209.769357,11.1664495 C206.630676,11.5273874 203.482201,11.8082983 200.345152,12.1823018 C194.030249,12.931942 187.716978,13.7354778 181.400443,14.493284 C177.430982,14.9685461 173.458257,15.4078777 169.482268,15.8439429 C164.646119,16.3731007 159.805075,16.8842932 154.965662,17.4003854 C152.292152,17.6861959 149.618642,17.9703732 146.945131,18.2561837 C144.508287,18.5174962 142.071443,18.7967739 139.631335,19.0417544 C135.306059,19.4794528 130.97915,19.8910199 126.653874,20.3238187 C122.444483,20.7451851 118.236724,21.1877831 114.028965,21.6058831 C111.077984,21.8982264 108.125371,22.1677049 105.172758,22.442083 C100.406794,22.8830478 95.6408293,23.3387115 90.8716005,23.7519118 C87.4440233,24.0491548 84.0099174,24.2663708 80.5823401,24.5554477 C77.3506245,24.8265594 74.1303341,25.2675242 70.8937219,25.3949141 C68.9253133,25.4700414 67.5069492,26.151087 66.3758487,27.7254947 C63.77089,31.356105 61.1039085,34.9426188 58.4712028,38.5536306 C53.8178587,44.936188 49.1465606,51.3056797 44.5291245,57.712735 C41.0640071,62.5225179 37.6445908,67.3649648 34.2594503,72.2319097 C29.6518072,78.8561811 24.9560264,85.4265567 20.5589345,92.1880172 C15.7521655,99.5782607 11.2277636,107.154689 6.62501709,114.677222 C6.23492616,115.314172 6.03416806,116.150372 5.99662793,116.908178 C5.86605356,119.429843 5.84483523,121.958041 5.79423766,124.484607 C5.6310197,132.809042 5.47596263,141.131845 5.30621595,149.454647 C5.17564158,155.824139 5.0858717,162.195264 4.87042399,168.563122 C4.71210257,173.261847 4.34322998,177.95404 4.13594316,182.651131 C3.92049545,187.56054 3.77849583,192.471581 3.62507094,197.382622 C3.49612875,201.493394 3.42594503,205.604166 3.27415232,209.710039 C3.11419872,214.054359 2.86610742,218.395412 2.6996251,222.739732 C2.53477495,227.092218 2.42868328,231.444704 2.28994801,235.795557 C2.03043145,243.875012 1.75132874,251.956101 1.50813397,260.035556 C1.42815717,262.684611 1.4738582,265.336933 1.39061704,267.985988 C1.2094451,273.80509 0.974411235,279.62256 0.783446219,285.441662 C0.709998136,287.733046 0.726319932,290.027696 0.656136208,292.31908 C0.56310197,295.369903 0.377033493,298.415826 0.319907206,301.468283 C0.235033866,305.972657 0.235033866,310.48193 0.187700657,314.989571 C0.141999627,319.08891 0.0179539758,323.189883 0.0375401313,327.287589 C0.0669193645,333.389236 0.200758094,339.489249 0.274206177,345.590895 C0.367240415,353.342077 0.439056318,361.091625 0.535354916,368.841173 C0.541883635,369.305003 0.621860436,369.794964 0.793239297,370.224496 C1.91944324,373.027072 3.06686551,375.828015 4.23550612,378.615893 C6.36223617,383.686988 8.53793161,388.736852 10.6336502,393.81938 C11.9573479,397.028624 13.1341494,400.298296 14.4529506,403.509173 C16.1308312,407.59708 17.8984817,411.649057 19.6041094,415.725532 C20.8821061,418.779621 22.1176661,421.851676 23.3858696,424.907399 C25.1437271,429.143927 26.9342281,433.36739 28.6708673,437.610452 C30.3895524,441.809417 32.0494791,446.03288 33.7518424,450.235111 C35.8067566,455.312739 37.900843,460.377302 39.9459641,465.459829 C42.87083,472.730849 45.7499948,480.018201 48.6846538,487.284321 C50.4212929,491.579645 52.275449,495.832506 53.9973985,500.139262 C56.3575302,506.036758 58.6344208,511.963652 60.9684376,517.87258 C61.8824582,520.185196 62.8764556,522.463514 63.7904762,524.776129 C65.024404,527.893914 66.1914124,531.037829 67.4335011,534.150714 C69.013451,538.114498 70.6374697,542.055417 72.2451666,546.009401 C74.8027921,552.302133 77.4110151,558.570366 79.8984569,564.885962 C80.9479484,567.557882 82.9228857,567.943318 84.9255701,567.946584 C90.1958781,567.964549 95.4678183,567.897588 100.738126,567.912287 C105.717906,567.930252 110.696054,568.031511 115.674202,568.039677 C120.298167,568.042943 124.922132,567.930252 129.544464,567.933518 C136.151528,567.948217 142.758591,568.042943 149.365654,568.064175 C156.743106,568.088673 164.118925,568.046209 171.494745,568.078874 C186.203948,568.132769 200.911518,568.234028 215.619089,568.294456 C221.137488,568.312422 226.650991,568.29609 232.166126,568.29609 Z" id="Shape"></path>
                <path d="M232.166126,568.29609 C226.650991,568.29609 221.137488,568.312422 215.622353,568.287923 C200.914783,568.227495 186.207212,568.126236 171.498009,568.072341 C164.12219,568.039677 156.74637,568.08214 149.368918,568.057642 C142.761855,568.03641 136.154792,567.941684 129.547729,567.926986 C124.923764,567.923719 120.301431,568.03641 115.677466,568.033144 C110.699319,568.024978 105.719539,567.923719 100.741391,567.905754 C95.4710827,567.891055 90.1991425,567.958016 84.9288345,567.940051 C82.9261501,567.936785 80.9512127,567.551349 79.9017212,564.879429 C77.4142795,558.565466 74.8060565,552.2956 72.248431,546.002869 C70.6407341,542.048884 69.0167153,538.107965 67.4367655,534.144182 C66.1946768,531.031297 65.0276683,527.887381 63.7937405,524.769596 C62.8780878,522.456981 61.8840904,520.178663 60.971702,517.866047 C58.6376851,511.957119 56.3607945,506.030225 54.0006628,500.132729 C52.2787133,495.825973 50.4245573,491.573112 48.6879181,487.277788 C45.751627,480.011668 42.8724621,472.724316 39.9492284,465.453297 C37.9024752,460.372402 35.8100209,455.30784 33.7551068,450.228578 C32.0527434,446.024714 30.3911846,441.802884 28.6741316,437.603919 C26.9374925,433.360858 25.1469914,429.137395 23.389134,424.900866 C22.1209304,421.845143 20.8853705,418.773088 19.6073738,415.718999 C17.9017461,411.640891 16.1340956,407.590547 14.4562149,403.50264 C13.1374138,400.291763 11.9606123,397.022091 10.6369146,393.812847 C8.53956379,388.730319 6.36386835,383.680456 4.23877048,378.60936 C3.07012987,375.821483 1.92433978,373.022173 0.796503656,370.217963 C0.625124795,369.790064 0.546780174,369.29847 0.538619275,368.83464 C0.442320678,361.085092 0.368872595,353.335544 0.277470536,345.584362 C0.205654632,339.484349 0.0718159034,333.382703 0.0408044906,327.281056 C0.0212183351,323.18335 0.145263986,319.082377 0.190965016,314.983038 C0.238298225,310.475397 0.238298225,305.966124 0.323171565,301.46175 C0.380297852,298.409294 0.566366329,295.36337 0.659400568,292.312547 C0.729584291,290.021163 0.713262495,287.726513 0.786710578,285.435129 C0.977675594,279.616027 1.21270946,273.798558 1.3938814,267.979455 C1.47712256,265.3304 1.43142153,262.678078 1.51139833,260.029023 C1.75622527,251.949568 2.03369581,243.868479 2.29321237,235.789024 C2.43194764,231.438171 2.53803931,227.084052 2.70288946,222.733199 C2.86937178,218.388879 3.11746308,214.047826 3.27741668,209.703506 C3.42920939,205.596 3.49939311,201.485228 3.6283353,197.37609 C3.78339237,192.466681 3.92375981,187.554007 4.13920752,182.644599 C4.34649434,177.947507 4.71699911,173.255315 4.87368835,168.556589 C5.08913606,162.188731 5.17890594,155.817606 5.30948031,149.448114 C5.47922699,141.125312 5.63428406,132.802509 5.80076638,124.479707 C5.84973177,121.953142 5.87258228,119.424944 6.00315665,116.903278 C6.04069678,116.145472 6.24145488,115.309272 6.63154581,114.672323 C11.2342923,107.14979 15.7586943,99.5733611 20.5654632,92.1831176 C24.9625551,85.4216571 29.6583359,78.8512815 34.265979,72.2270101 C37.6511195,67.3616984 41.0705358,62.5192515 44.5356532,57.7078354 C49.1530893,51.2991468 53.8243874,44.9312883 58.4777315,38.548731 C61.1104373,34.9393524 63.7790509,31.3512054 66.3823774,27.7205951 C67.5134779,26.1461874 68.931842,25.4651418 70.9002506,25.3900144 C74.1352306,25.2626246 77.3571532,24.8216598 80.5888689,24.5505481 C84.0164461,24.2614712 87.450552,24.0442552 90.8781292,23.7470122 C95.6457259,23.3354451 100.41169,22.8781482 105.179287,22.4371834 C108.133532,22.1628053 111.084513,21.8933268 114.035494,21.6009835 C118.243253,21.1828835 122.451012,20.7402855 126.660403,20.3189191 C130.985679,19.8861203 135.312587,19.47292 139.637863,19.0368548 C142.077972,18.7918743 144.514816,18.5125966 146.95166,18.2512841 C149.62517,17.9654736 152.298681,17.6812963 154.972191,17.3954858 C159.811603,16.8793936 164.651016,16.3682011 169.488796,15.8390433 C173.464786,15.4029781 177.437511,14.9636465 181.406972,14.4883844 C187.725139,13.7322114 194.036778,12.9286755 200.351681,12.1774022 C203.490362,11.8033987 206.637205,11.524121 209.775886,11.1615499 C213.072889,10.7826468 216.363363,10.3482148 219.657101,9.95461288 C222.910035,9.56591057 226.166234,9.2000731 229.4208,8.81627039 C234.764556,8.18912044 240.108312,7.54400525 245.452068,6.92502132 C251.223455,6.25704129 256.999739,5.63479095 262.767862,4.94721248 C267.51424,4.38212424 272.247561,3.71087781 276.995572,3.1621216 C281.276779,2.6688943 285.567779,2.28182519 289.853883,1.84249358 C293.314103,1.48808853 296.777589,1.16471433 300.229649,0.74988077 C302.28293,0.501633914 304.308465,0.629023748 306.134874,1.52075259 C306.978711,1.93231974 307.618526,2.92367396 308.153881,3.77457273 C310.471576,7.46397831 312.722351,11.194214 314.989449,14.9146504 C317.170041,18.4962646 319.324518,22.095844 321.518167,25.6725586 C323.501266,28.9063005 325.539858,32.1073784 327.519692,35.3460199 C329.499526,38.5862947 331.420601,41.8608667 333.395538,45.1027747 C335.455349,48.4851381 337.554332,51.8430034 339.620672,55.2237337 C342.179929,59.4079997 344.698382,63.6151307 347.28049,67.7846979 C350.512206,72.9995151 353.781462,78.1931007 357.05235,83.385053 C359.182344,86.7674164 361.327028,90.1399806 363.494563,93.497846 C365.31934,96.3265536 367.209404,99.1144311 369.029284,101.948038 C372.243046,106.945639 375.388256,111.984071 378.634661,116.96044 C380.82015,120.31014 383.106833,123.596144 385.386988,126.885415 C387.954407,130.591153 390.596905,134.246261 393.134945,137.97323 C393.569105,138.610179 393.895541,139.511707 393.843311,140.261347 C393.195335,149.596736 392.482073,158.928858 391.754121,168.259347 C391.125732,176.324103 390.428791,184.385593 389.82162,192.451983 C389.49192,196.843665 389.314012,201.245148 389.015323,205.63683 C388.643186,211.098261 388.179647,216.553159 387.827097,222.01459 C387.546362,226.362176 387.379879,230.714662 387.151374,235.065515 C386.865743,240.52368 386.521353,245.980211 386.287951,251.440009 C386.057814,256.829578 385.958251,262.225681 385.759125,267.616884 C385.615493,271.497375 385.38862,275.377865 385.233563,279.259988 C385.063817,283.493251 384.943035,287.729779 384.786346,291.964675 C384.507243,299.454544 384.200394,306.941146 383.934348,314.431015 C383.700947,320.926263 383.542625,327.421512 383.284741,333.915127 C383.098672,338.628551 382.775501,343.338708 382.569846,348.050499 C382.331548,353.433536 382.058974,358.816573 381.996951,364.201243 C381.974101,366.174153 381.215137,367.795923 380.526357,369.520586 C378.254363,375.220464 376.059082,380.951373 373.764237,386.643086 C371.988426,391.052734 370.077143,395.406853 368.283378,399.806702 C365.670258,406.218657 363.120794,412.651844 360.517467,419.065432 C359.071356,422.627447 357.556693,426.156799 356.097525,429.713915 C354.40169,433.850818 352.754821,438.00732 351.055722,442.145857 C349.417014,446.134138 347.678742,450.079957 346.090632,454.08947 C343.229421,461.306594 340.378003,468.531884 337.655527,475.801271 C335.696912,481.024254 333.984755,486.338697 332.107749,491.59761 C330.495155,496.113416 328.794424,500.593292 327.149187,505.099299 C325.073055,510.791012 322.985497,516.479458 320.956698,522.184236 C319.247805,526.998918 317.623787,531.839732 315.947538,536.662581 C314.18152,541.751641 312.36164,546.821103 310.642954,551.926496 C308.924269,557.031888 307.285561,562.168312 305.655014,567.298202 C305.340003,568.29119 304.644694,568.421846 303.817179,568.425113 C298.269401,568.464309 292.723254,568.511672 287.175476,568.528004 C281.508548,568.547603 275.843253,568.550869 270.176325,568.531271 C264.244984,568.506773 258.313644,568.430012 252.383935,568.410414 C245.646298,568.389182 238.90866,568.407147 232.172655,568.407147 C232.166126,568.371217 232.166126,568.330387 232.166126,568.29609 Z" id="Shape"></path>
            </g>
            <g id="Group" transform="translate(329.000000, 162.000000)" fill="#000000">
                <path d="M1.97925,8.14224093 C1.36825,7.57363075 0.91975,7.00990834 0.628875,6.4510737 C0.339625,5.89386831 0.154375,5.27963898 0.076375,4.60838571 C-0.05525,3.50212121 0.115375,2.62069398 0.585,1.96247475 C1.054625,1.30425552 1.707875,0.924638982 2.546375,0.826883651 C3.03875,0.768230453 3.50025,0.826883651 3.934125,1.0044725 C4.368,1.1804321 4.72875,1.43622522 5.016375,1.7702226 C5.305625,2.10421998 5.539625,2.49198279 5.718375,2.93188178 C5.84675,3.25610363 5.991375,3.75139731 6.153875,4.41939207 C6.478875,5.77819117 6.79575,6.76877853 7.099625,7.39441264 C7.333625,7.37160307 7.4815,7.35856902 7.544875,7.35042275 C8.237125,7.26733071 8.70675,7.04901048 8.95375,6.69383277 C9.286875,6.21157314 9.40225,5.54031987 9.3015,4.68170221 C9.20725,3.87847924 8.996,3.30335204 8.672625,2.95469136 C8.347625,2.60440142 7.817875,2.38119342 7.083375,2.28180883 L7.11425,0.585753835 C7.8455,0.654182566 8.448375,0.835029929 8.92775,1.12992518 C9.407125,1.42482043 9.803625,1.88752899 10.11725,2.51805088 C10.42925,3.14857276 10.63725,3.89477179 10.74125,4.76153573 C10.842,5.62015339 10.8225,6.33050879 10.684375,6.89260195 C10.54625,7.45306584 10.33825,7.87830153 10.062,8.16667976 C9.787375,8.45505799 9.42175,8.67826599 8.96675,8.83467452 C8.684,8.92591283 8.162375,9.01552189 7.40675,9.10676019 L5.13825,9.37558736 C3.5555,9.56295174 2.559375,9.71610176 2.149875,9.83992518 C1.73875,9.96211934 1.353625,10.1527422 0.9945,10.4150524 L0.784875,8.63101758 C1.1115,8.41106809 1.51125,8.24814254 1.97925,8.14224093 Z M5.76225,7.55082117 C5.43725,6.96103068 5.113875,6.05679386 4.792125,4.83973999 C4.6085,4.14893565 4.43625,3.66667602 4.277,3.39133184 C4.11775,3.1143584 3.904875,2.91395997 3.64325,2.78199027 C3.38325,2.65327909 3.10375,2.60603068 2.806375,2.6418743 C2.353,2.69563973 1.9955,2.91233071 1.733875,3.29194725 C1.470625,3.67156379 1.379625,4.19455481 1.457625,4.8576618 C1.534,5.51425178 1.746875,6.08286195 2.094625,6.56186308 C2.442375,7.03923494 2.877875,7.36834456 3.406,7.54919192 C3.81225,7.68767864 4.389125,7.71211747 5.139875,7.62250842 L5.76225,7.55082117 Z" id="Shape"></path>
                <path d="M1.421875,14.0906528 L1.235,12.5070165 L15.097875,10.8663562 L15.299375,12.5721867 L10.3545,13.1570894 C11.340875,13.7713187 11.899875,14.6380827 12.0315,15.755752 C12.104625,16.3748691 12.049375,16.9760643 11.864125,17.5593378 C11.6805,18.140982 11.38475,18.637905 10.97525,19.0484774 C10.567375,19.4590498 10.0555,19.8028227 9.4445,20.0814254 C8.831875,20.3583988 8.162375,20.5392462 7.437625,20.6255967 C5.71675,20.8292536 4.3355,20.5604265 3.297125,19.817486 C2.257125,19.0745455 1.66725,18.1067677 1.5275,16.9108941 C1.386125,15.7231669 1.77125,14.7325795 2.68125,13.9391321 L1.421875,14.0906528 Z M6.517875,13.4682772 C5.31375,13.6100224 4.46225,13.8772204 3.966625,14.2698709 C3.154125,14.9117976 2.8015,15.6905817 2.90875,16.6062233 C2.9965,17.3524224 3.39625,17.9585054 4.106375,18.4244725 C4.8165,18.8920688 5.811,19.0501066 7.089875,18.8985859 C8.402875,18.7438066 9.33725,18.3690778 9.901125,17.7743996 C10.463375,17.178092 10.700625,16.5117265 10.6145,15.7720445 C10.52675,15.0258455 10.127,14.4181332 9.416875,13.9521661 C8.70675,13.486199 7.739875,13.3232735 6.517875,13.4682772 Z" id="Shape"></path>
                <path d="M5.425875,22.2776618 L5.890625,23.9346147 C5.227625,24.1073158 4.74175,24.4331669 4.433,24.9089095 C4.125875,25.3846521 4.017,26.0102862 4.108,26.7874411 C4.200625,27.571113 4.428125,28.1348354 4.792125,28.4753498 C5.1545,28.8174935 5.551,28.9624972 5.978375,28.9119903 C6.361875,28.8680004 6.64625,28.6627142 6.826625,28.3026487 C6.950125,28.0501141 7.073625,27.4472896 7.197125,26.4892873 C7.366125,25.2021755 7.535125,24.3011972 7.709,23.7912402 C7.88125,23.2796539 8.1575,22.8755986 8.5345,22.5774448 C8.9115,22.2792911 9.347,22.1017022 9.83775,22.043049 C10.284625,21.9909128 10.712,22.043049 11.116625,22.2043453 C11.522875,22.3656416 11.87225,22.6084007 12.166375,22.9309933 C12.393875,23.1721231 12.601875,23.515896 12.790375,23.9574242 C12.978875,24.3989525 13.105625,24.8828414 13.167375,25.4074617 C13.26,26.1976506 13.229125,26.9047475 13.0715,27.5303816 C12.913875,28.1543865 12.65875,28.6301291 12.3045,28.9608679 C11.95025,29.2916068 11.454625,29.5490292 10.817625,29.7331351 L10.3935,28.0908455 C10.902125,27.9556173 11.279125,27.6867901 11.526125,27.2892518 C11.773125,26.8917134 11.857625,26.3605761 11.779625,25.6958399 C11.687,24.9137972 11.492,24.3679966 11.19625,24.0649551 C10.89725,23.7602843 10.5755,23.6283146 10.22775,23.669046 C10.00675,23.6951141 9.81825,23.7879817 9.657375,23.9476487 C9.49,24.1073158 9.364875,24.3451871 9.280375,24.6563749 C9.2365,24.8339637 9.150375,25.3536962 9.022,26.2155724 C8.84325,27.4619529 8.679125,28.3336046 8.53125,28.8354153 C8.38175,29.337226 8.12825,29.7461691 7.769125,30.0638739 C7.41,30.383208 6.942,30.5754602 6.361875,30.6438889 C5.793125,30.7123176 5.240625,30.6096745 4.701125,30.3375889 C4.16,30.0655032 3.718,29.630492 3.368625,29.0390722 C3.0225,28.4460232 2.8015,27.7535896 2.70725,26.9634007 C2.552875,25.6551085 2.70725,24.625419 3.16875,23.8759615 C3.63025,23.1265039 4.38425,22.5937374 5.425875,22.2776618 Z" id="Shape"></path>
                <path d="M5.61275,36.5694912 L4.138875,36.9930976 C3.98125,36.5255013 3.8805,36.1018949 3.836625,35.7222783 C3.7635,35.1031612 3.8025,34.6111261 3.9585,34.2461728 C4.112875,33.8812196 4.342,33.6107632 4.64425,33.4348036 C4.9465,33.2572147 5.607875,33.1089525 6.628375,32.9883876 L12.40525,32.3041003 L12.259,31.052832 L13.58175,30.8964235 L13.729625,32.1476917 L16.215875,31.8527965 L17.43625,33.4299158 L13.927875,33.8437467 L14.131,35.5593528 L12.806625,35.7173906 L12.605125,34.0017845 L6.734,34.6958474 C6.24975,34.7545006 5.941,34.8213 5.809375,34.897875 C5.676125,34.9744501 5.578625,35.0852394 5.512,35.2302432 C5.445375,35.3752469 5.4275,35.5756453 5.458375,35.8281799 C5.481125,36.0171736 5.5315,36.2648204 5.61275,36.5694912 Z" id="Shape"></path>
                <path d="M4.285125,38.3991452 L14.327625,37.2114179 L14.508,38.7478058 L12.985375,38.9270239 C13.74425,39.2349532 14.256125,39.5412533 14.522625,39.8459241 C14.789125,40.1505948 14.945125,40.502514 14.99225,40.9000524 C15.0605,41.4751796 14.94675,42.0828919 14.651,42.7199308 L13.001625,42.3191339 C13.19825,41.8727179 13.273,41.4409652 13.222625,41.0238758 C13.17875,40.6507763 13.026,40.3298129 12.767625,40.0593565 C12.50925,39.7889001 12.1745,39.6145698 11.76175,39.5347363 C11.1345,39.4174299 10.46175,39.399508 9.7435,39.4858586 L4.486625,40.1082342 L4.285125,38.3991452 Z" id="Shape"></path>
                <path d="M7.060625,51.3077366 C6.45125,50.7391264 6.001125,50.1770333 5.71025,49.6181987 C5.421,49.059364 5.23575,48.4451347 5.15775,47.7755107 C5.026125,46.6692462 5.19675,45.7861897 5.66475,45.1295997 C6.136,44.4713805 6.787625,44.0933932 7.62775,43.9940086 C8.120125,43.9353554 8.581625,43.9940086 9.0155,44.1715975 C9.44775,44.3475571 9.8085,44.6033502 10.09775,44.9373475 C10.387,45.2713449 10.621,45.6574785 10.79975,46.0990067 C10.928125,46.4232286 11.07275,46.9185223 11.233625,47.5848878 C11.56025,48.9420576 11.8755,49.9359035 12.17775,50.5582791 C12.413375,50.5370988 12.56125,50.5240647 12.623,50.5159184 C13.3185,50.4344557 13.7865,50.2128769 14.031875,49.8576992 C14.365,49.3770688 14.482,48.7058156 14.379625,47.8471979 C14.287,47.0439749 14.07575,46.4672185 13.75075,46.1185578 C13.42575,45.7698971 12.896,45.5450599 12.1615,45.4473045 L12.192375,43.7512495 C12.923625,43.818049 13.528125,43.9988964 14.0075,44.2954209 C14.48525,44.5919454 14.883375,45.0546539 15.195375,45.6835466 C15.509,46.3124392 15.717,47.0602675 15.819375,47.9254022 C15.92175,48.7856491 15.90225,49.4960045 15.764125,50.0564684 C15.626,50.6169323 15.418,51.042168 15.14175,51.3305462 C14.867125,51.6205537 14.5015,51.8421324 14.0465,51.998541 C13.76375,52.0897793 13.242125,52.1793883 12.4865,52.2706266 L10.218,52.5394538 C8.63525,52.7284474 7.639125,52.8815975 7.228,53.0037916 C6.8185,53.1259858 6.433375,53.3182379 6.07425,53.5789188 L5.864625,51.7965133 C6.1945,51.578193 6.59425,51.4136382 7.060625,51.3077366 Z M10.84525,50.7146876 C10.52025,50.1248971 10.196875,49.2206603 9.8735,48.0019772 C9.689875,47.3144314 9.51925,46.8305425 9.358375,46.5551983 C9.199125,46.2798541 8.98625,46.0761972 8.72625,45.947486 C8.464625,45.8171455 8.18675,45.7698971 7.889375,45.8057407 C7.436,45.8595062 7.0785,46.0761972 6.81525,46.4574429 C6.553625,46.8370595 6.461,47.3584212 6.540625,48.0231575 C6.617,48.6813767 6.829875,49.2483577 7.177625,49.7257295 C7.52375,50.2031014 7.960875,50.532211 8.487375,50.7146876 C8.893625,50.8515451 9.4705,50.8759839 10.22125,50.7863749 L10.84525,50.7146876 Z" id="Shape"></path>
                <path d="M10.772125,61.8164347 L10.752625,63.520636 C9.576125,63.4733876 8.619,63.1116929 7.876375,62.4339226 C7.135375,61.7561523 6.699875,60.8665788 6.569875,59.7668313 C6.407375,58.3901104 6.725875,57.2284512 7.527,56.2851122 C8.3265,55.3417733 9.56475,54.7715339 11.24175,54.5727647 C12.325625,54.4440535 13.29575,54.5124822 14.152125,54.7764216 C15.006875,55.040361 15.682875,55.5161036 16.17525,56.2036495 C16.66925,56.8911953 16.966625,57.6683502 17.069,58.5351141 C17.197375,59.6283446 17.02675,60.5553909 16.557125,61.3162533 C16.089125,62.0771156 15.357875,62.6147699 14.365,62.9308455 L13.914875,61.30159 C14.571375,61.0637187 15.045875,60.7248335 15.33675,60.281676 C15.630875,59.8401478 15.744625,59.3350786 15.676375,58.7664684 C15.575625,57.9078507 15.185625,57.2447437 14.508,56.7804059 C13.830375,56.3144388 12.826125,56.1612888 11.49525,56.3193266 C10.1465,56.4789936 9.195875,56.8537224 8.646625,57.4451422 C8.09575,58.0349327 7.869875,58.7485466 7.969,59.5827254 C8.047,60.2523494 8.31675,60.7867452 8.7815,61.1875421 C9.243,61.5867097 9.906,61.7985129 10.772125,61.8164347 Z" id="Shape"></path>
                <path d="M9.423375,68.9362813 L7.9495,69.361517 C7.791875,68.8922914 7.691125,68.468685 7.645625,68.0890685 C7.5725,67.4699514 7.613125,66.9779162 7.769125,66.612963 C7.925125,66.2480097 8.15425,65.9775533 8.454875,65.8015937 C8.757125,65.6256341 9.4185,65.4757426 10.440625,65.3551777 L16.2175,64.6725196 L16.07125,63.4196221 L17.394,63.2632136 L17.541875,64.5144819 L20.02975,64.2195866 L21.250125,65.7950767 L17.743375,66.2105368 L17.944875,67.9277722 L16.6205,68.0841807 L16.419,66.3669454 L10.54625,67.0626375 C10.060375,67.1196614 9.75325,67.1864609 9.62,67.2630359 C9.488375,67.3396109 9.38925,67.4504003 9.32425,67.5970333 C9.257625,67.742037 9.23975,67.9408062 9.269,68.1949701 C9.29175,68.3839637 9.34375,68.6316105 9.423375,68.9362813 Z" id="Shape"></path>
                <path d="M4.88475,76.6345137 L18.773625,74.9905948 L18.95725,76.5449046 L17.65075,76.6996839 C18.204875,77.0059839 18.637125,77.3741957 18.945875,77.8059484 C19.25625,78.2377011 19.449625,78.7818724 19.526,79.4384624 C19.628375,80.2970801 19.495125,81.0823812 19.13275,81.7911074 C18.76875,82.5014628 18.204875,83.0717022 17.4395,83.5001964 C16.674125,83.9303199 15.8145,84.2024055 14.85575,84.3148242 C13.82875,84.4370183 12.881375,84.3604433 12.01525,84.0883577 C11.149125,83.816272 10.456875,83.3535634 9.93525,82.7002319 C9.413625,82.0469005 9.108125,81.3316573 9.017125,80.5545024 C8.948875,79.9858923 9.010625,79.461272 9.195875,78.9806416 C9.38275,78.5016405 9.641125,78.0943266 9.972625,77.7587 L5.084625,78.3370857 L4.88475,76.6345137 Z M13.88075,77.1379536 C12.588875,77.2911036 11.66425,77.6658324 11.106875,78.2637692 C10.551125,78.8617059 10.317125,79.5329592 10.404875,80.2791582 C10.49425,81.0383913 10.89075,81.6493621 11.59275,82.1137 C12.298,82.579667 13.320125,82.7311878 14.662375,82.57315 C15.942875,82.4216293 16.869125,82.0452712 17.444375,81.4408174 C18.019625,80.8379929 18.26175,80.1699981 18.175625,79.4384624 C18.091125,78.7118144 17.67675,78.1089899 16.9325,77.6299888 C16.18825,77.1509877 15.171,76.9831743 13.88075,77.1379536 Z" id="Shape"></path>
                <path d="M21.909875,85.5791264 L23.868,85.3461429 L24.0695,87.0519734 L22.111375,87.2833277 L21.909875,85.5791264 Z M10.00675,86.9868032 L20.04925,85.7990759 L20.25075,87.5049065 L10.20825,88.6926337 L10.00675,86.9868032 Z" id="Shape"></path>
                <path d="M14.558375,97.8018013 L14.548625,99.5907239 C13.489125,99.4343154 12.631125,99.0139675 11.97625,98.3280509 C11.31975,97.6437636 10.92325,96.7167172 10.785125,95.5469117 C10.612875,94.0740647 10.9265,92.8521231 11.730875,91.882716 C12.533625,90.9116798 13.75075,90.3300355 15.383875,90.1377834 C17.073875,89.937385 18.435625,90.2192462 19.47075,90.9801085 C20.505875,91.7426001 21.1055,92.8179087 21.269625,94.2092929 C21.428875,95.555058 21.100625,96.7102001 20.2865,97.6714609 C19.474,98.6327217 18.237375,99.2127366 16.579875,99.4082473 C16.479125,99.4196521 16.326375,99.4343154 16.124875,99.4522372 L15.240875,91.9446278 C14.145625,92.1385092 13.338,92.5507108 12.818,93.182862 C12.298,93.8150131 12.088375,94.5498073 12.1875,95.3905032 C12.260625,96.0161373 12.488125,96.5326113 12.86675,96.9350374 C13.245375,97.3390928 13.80925,97.627471 14.558375,97.8018013 Z M16.64975,91.8729405 L17.311125,97.4955013 C18.148,97.321171 18.75575,97.0295342 19.137625,96.6254789 C19.7275,96.0047325 19.9745,95.261792 19.872125,94.3950281 C19.7795,93.6113562 19.439875,92.9824635 18.854875,92.5116087 C18.26825,92.0391246 17.53375,91.8256921 16.64975,91.8729405 Z" id="Shape"></path>
                <path d="M16.235375,108.224149 L16.215875,109.926721 C15.041,109.881102 14.08225,109.517778 13.34125,108.840007 C12.60025,108.160608 12.16475,107.272664 12.03475,106.174545 C11.87225,104.796195 12.192375,103.634536 12.991875,102.691197 C13.791375,101.746229 15.029625,101.17599 16.706625,100.97722 C17.7905,100.848509 18.760625,100.916938 19.617,101.180877 C20.47175,101.444817 21.14775,101.922189 21.64175,102.609734 C22.134125,103.29728 22.4315,104.072806 22.533875,104.941199 C22.66225,106.034429 22.491625,106.961476 22.022,107.720709 C21.55075,108.481571 20.821125,109.020855 19.829875,109.33693 L19.378125,107.707675 C20.034625,107.469804 20.509125,107.130918 20.801625,106.68939 C21.09575,106.247862 21.207875,105.741163 21.14125,105.172553 C21.038875,104.313936 20.6505,103.650829 19.972875,103.186491 C19.29525,102.722153 18.289375,102.569003 16.960125,102.727041 C15.611375,102.886708 14.662375,103.261437 14.1115,103.851227 C13.560625,104.441018 13.33475,105.154632 13.43225,105.98881 C13.511875,106.658434 13.781625,107.19283 14.24475,107.593627 C14.70625,107.996053 15.370875,108.204598 16.235375,108.224149 Z" id="Shape"></path>
                <path d="M16.973125,118.307611 L16.963375,120.096534 C15.903875,119.940125 15.04425,119.519777 14.389375,118.833861 C13.732875,118.149574 13.336375,117.222527 13.199875,116.052722 C13.027625,114.579875 13.34125,113.357933 14.145625,112.388526 C14.94675,111.419119 16.1655,110.837475 17.798625,110.645223 C19.488625,110.444824 20.850375,110.725056 21.887125,111.487548 C22.92225,112.250039 23.521875,113.325348 23.686,114.716732 C23.84525,116.062497 23.517,117.217639 22.7045,118.1789 C21.890375,119.140161 20.655375,119.720176 18.997875,119.915686 C18.8955,119.927091 18.744375,119.941755 18.54125,119.959676 L17.658875,112.452067 C16.563625,112.645948 15.754375,113.059779 15.234375,113.690301 C14.714375,114.320823 14.50475,115.058876 14.603875,115.897942 C14.675375,116.523577 14.9045,117.038421 15.283125,117.442477 C15.6585,117.844903 16.224,118.133281 16.973125,118.307611 Z M19.0645,112.37875 L19.725875,118.001311 C20.56275,117.825352 21.168875,117.535344 21.55075,117.131289 C22.14225,116.510542 22.387625,115.767602 22.28525,114.900838 C22.192625,114.117166 21.854625,113.488273 21.268,113.017419 C20.683,112.544935 19.946875,112.331502 19.0645,112.37875 Z" id="Shape"></path>
                <path d="M17.116125,121.557976 L17.580875,123.214929 C16.91625,123.389259 16.430375,123.71511 16.12325,124.190853 C15.8145,124.666596 15.705625,125.293859 15.79825,126.069385 C15.88925,126.853056 16.118375,127.416779 16.48075,127.757293 C16.843125,128.099437 17.239625,128.244441 17.667,128.193934 C18.052125,128.148315 18.334875,127.944658 18.51525,127.582963 C18.63875,127.332058 18.76225,126.727604 18.887375,125.769602 C19.05475,124.48086 19.225375,123.579882 19.39925,123.069925 C19.5715,122.559968 19.84775,122.154284 20.223125,121.85613 C20.600125,121.557976 21.035625,121.380387 21.528,121.323363 C21.974875,121.269598 22.40225,121.323363 22.806875,121.48466 C23.2115,121.644327 23.5625,121.887086 23.856625,122.209678 C24.084125,122.452437 24.292125,122.792952 24.48225,123.237738 C24.67075,123.679267 24.795875,124.161526 24.857625,124.686147 C24.951875,125.477965 24.919375,126.183432 24.763375,126.807437 C24.60575,127.431442 24.350625,127.908814 23.996375,128.239553 C23.64375,128.570292 23.148125,128.827714 22.5095,129.01182 L22.087,127.36953 C22.595625,127.232673 22.972625,126.965475 23.219625,126.567937 C23.46825,126.170398 23.55275,125.64089 23.473125,124.976154 C23.3805,124.192482 23.1855,123.64994 22.888125,123.345269 C22.589125,123.040599 22.269,122.908629 21.92125,122.95099 C21.70025,122.975428 21.51175,123.068296 21.350875,123.227963 C21.1835,123.389259 21.058375,123.625501 20.973875,123.936689 C20.931625,124.114278 20.8455,124.63401 20.717125,125.495887 C20.538375,126.742267 20.37425,127.613919 20.226375,128.117359 C20.076875,128.619169 19.823375,129.028113 19.46425,129.345817 C19.105125,129.663522 18.6355,129.855774 18.055375,129.924203 C17.48825,129.992632 16.93575,129.88836 16.394625,129.617903 C15.855125,129.344188 15.4115,128.910806 15.062125,128.319386 C14.714375,127.726337 14.493375,127.033904 14.40075,126.245344 C14.246375,124.937052 14.40075,123.907363 14.86225,123.157905 C15.32375,122.408447 16.072875,121.874052 17.116125,121.557976 Z" id="Shape"></path>
            </g>
            <g id="Group" transform="translate(182.000000, 51.000000)" fill="#000000">
                <path d="M0.274625,19.12 L0.690625,17.65 C1.027,17.7633333 1.2935,17.8266667 1.490125,17.8383333 C1.8395,17.8616667 2.106,17.76 2.29125,17.535 C2.4765,17.3083333 2.6,16.7216667 2.6585,15.7733333 L3.336125,4.89666667 L5.04725,5.00833333 L4.368,15.9233333 C4.288375,17.1966667 4.07225,18.0733333 3.718,18.5533333 C3.26625,19.175 2.562625,19.4566667 1.6055,19.3933333 C1.14075,19.3633333 0.69875,19.2716667 0.274625,19.12 Z M3.453125,2.99666667 L3.579875,0.958333333 L5.291,1.07 L5.16425,3.10666667 L3.453125,2.99666667 Z" id="Shape"></path>
                <path d="M14.139125,12.6483333 L15.8925,12.9883333 C15.548,14.03 14.97925,14.8166667 14.1895,15.3516667 C13.39975,15.8883333 12.41825,16.1166667 11.246625,16.04 C9.771125,15.9433333 8.62875,15.4016667 7.82275,14.41 C7.01675,13.4216667 6.66575,12.085 6.771375,10.4033333 C6.878625,8.66333333 7.40025,7.34 8.334625,6.435 C9.269,5.53166667 10.4325,5.12333333 11.825125,5.215 C13.1755,5.30333333 14.246375,5.84666667 15.04425,6.845 C15.8405,7.84333333 16.186625,9.19666667 16.079375,10.905 C16.072875,11.01 16.059875,11.165 16.040375,11.3733333 L8.515,10.8816667 C8.506875,12.0233333 8.766875,12.9133333 9.293375,13.555 C9.819875,14.195 10.504,14.5433333 11.347375,14.5983333 C11.974625,14.6383333 12.520625,14.5066667 12.985375,14.1966667 C13.4485,13.8883333 13.833625,13.3733333 14.139125,12.6483333 Z M8.70025,9.445 L14.334125,9.815 C14.313,8.94 14.1375,8.27333333 13.80925,7.81333333 C13.307125,7.10166667 12.621375,6.71833333 11.753625,6.66166667 C10.96875,6.61 10.291125,6.83666667 9.722375,7.34 C9.15525,7.845 8.812375,8.54666667 8.70025,9.445 Z" id="Shape"></path>
                <path d="M19.709625,16.36 L17.265625,5.80666667 L19.033625,5.92166667 L20.267,12.0016667 L20.7285,14.2616667 C20.761,14.1533333 20.97875,13.4533333 21.383375,12.1616667 L23.365875,6.205 L25.124125,6.32 L26.261625,12.4216667 L26.641875,14.4333333 L27.347125,12.4733333 L29.44825,6.60333333 L31.11225,6.71166667 L27.313,16.855 L25.536875,16.7383333 L24.3165,10.435 L24.037,8.645 L21.49875,16.4733333 L19.709625,16.36 Z" id="Shape"></path>
                <path d="M39.01625,14.2783333 L40.769625,14.6183333 C40.425125,15.66 39.858,16.4483333 39.06825,16.9833333 C38.2785,17.5183333 37.297,17.7483333 36.125375,17.6716667 C34.64825,17.575 33.5075,17.0316667 32.7015,16.0433333 C31.8955,15.055 31.5445,13.7183333 31.6485,12.035 C31.757375,10.295 32.277375,8.97166667 33.21175,8.06666667 C34.146125,7.16333333 35.31125,6.755 36.703875,6.84833333 C38.05425,6.93666667 39.12675,7.48 39.921375,8.47833333 C40.71925,9.47666667 41.06375,10.83 40.958125,12.5383333 C40.951625,12.6433333 40.938625,12.7983333 40.919125,13.005 L33.39375,12.5133333 C33.385625,13.655 33.644,14.545 34.172125,15.1866667 C34.698625,15.8266667 35.38275,16.1766667 36.226125,16.23 C36.853375,16.27 37.399375,16.1366667 37.8625,15.8283333 C38.324,15.5183333 38.709125,15.0016667 39.01625,14.2783333 Z M33.577375,11.075 L39.212875,11.445 C39.190125,10.5683333 39.01625,9.90166667 38.688,9.44333333 C38.18425,8.73166667 37.500125,8.34833333 36.632375,8.29166667 C35.8475,8.24 35.169875,8.46666667 34.601125,8.97166667 C34.03075,9.47333333 33.6895,10.175 33.577375,11.075 Z" id="Shape"></path>
                <polygon id="Shape" points="42.6855 17.865 43.574375 3.57833333 45.283875 3.69 44.395 17.9766667"></polygon>
                <polygon id="Shape" points="47.009625 18.1483333 47.8985 3.86 49.608 3.97166667 48.719125 18.26"></polygon>
                <path d="M58.485375,15.5533333 L60.23875,15.8933333 C59.89425,16.9333333 59.327125,17.7216667 58.537375,18.2566667 C57.746,18.7916667 56.766125,19.02 55.592875,18.945 C54.117375,18.8483333 52.975,18.305 52.169,17.3166667 C51.363,16.3283333 51.012,14.9916667 51.116,13.3083333 C51.224875,11.5683333 51.744875,10.245 52.67925,9.34 C53.613625,8.43666667 54.777125,8.03 56.16975,8.12 C57.5185,8.20833333 58.592625,8.75166667 59.388875,9.75 C60.185125,10.7483333 60.53125,12.1016667 60.424,13.8116667 C60.4175,13.915 60.4045,14.07 60.385,14.2783333 L52.859625,13.7866667 C52.8515,14.9283333 53.1115,15.8183333 53.638,16.46 C54.1645,17.1016667 54.848625,17.45 55.690375,17.505 C56.317625,17.545 56.863625,17.4116667 57.328375,17.1033333 C57.79475,16.7916667 58.179875,16.2766667 58.485375,15.5533333 Z M53.0465,12.3483333 L58.682,12.7183333 C58.65925,11.8416667 58.485375,11.175 58.157125,10.7166667 C57.653375,10.005 56.96925,9.62166667 56.1015,9.565 C55.316625,9.51333333 54.639,9.73833333 54.07025,10.2433333 C53.5015,10.7466667 53.16025,11.45 53.0465,12.3483333 Z" id="Shape"></path>
                <path d="M62.174125,19.14 L62.817625,8.79 L64.358125,8.89 L64.259,10.46 C64.69775,9.75166667 65.091,9.29166667 65.43875,9.07833333 C65.784875,8.86666667 66.158625,8.77166667 66.55675,8.8 C67.133625,8.83666667 67.70725,9.065 68.280875,9.48 L67.59025,11.0683333 C67.188875,10.7883333 66.77775,10.635 66.360125,10.6066667 C65.986375,10.5816667 65.6435,10.675 65.3315,10.885 C65.0195,11.0966667 64.787125,11.4033333 64.634375,11.8033333 C64.40525,12.415 64.267125,13.09 64.22325,13.8316667 L63.88525,19.25 L62.174125,19.14 Z" id="Shape"></path>
                <path d="M68.35075,23.5466667 L68.263,21.8866667 C68.63025,22.015 68.952,22.0883333 69.2315,22.1066667 C69.61175,22.1316667 69.9205,22.0866667 70.156125,21.97 C70.393375,21.8566667 70.59,21.6866667 70.750875,21.4616667 C70.8695,21.2933333 71.071,20.87 71.355375,20.19 C71.39275,20.0933333 71.452875,19.955 71.534125,19.7716667 L68.35075,9.15166667 L70.195125,9.27166667 L71.9225,15.4033333 C72.148375,16.1816667 72.34175,16.9966667 72.50425,17.8483333 C72.75125,17.055 73.034,16.285 73.354125,15.5366667 L75.8875,9.645 L77.598625,9.75666667 L73.103875,20.0316667 C72.62125,21.1416667 72.254,21.905 71.99725,22.3183333 C71.657625,22.8766667 71.28225,23.2783333 70.87275,23.5216667 C70.46325,23.765 69.9855,23.87 69.441125,23.8333333 C69.109625,23.8116667 68.745625,23.7166667 68.35075,23.5466667 Z" id="Shape"></path>
            </g>
            <g id="Group" transform="translate(62.000000, 97.000000)" fill="#000000">
                <path d="M10.6912174,41.7205385 L0.0892173913,38.8516154 L1.178,37.4026154 L7.44634783,39.2263846 C8.12373913,39.4234615 8.81104348,39.6496154 9.5066087,39.9064615 C9.16130435,39.4703077 8.76478261,38.9226923 8.31373913,38.2636154 L4.60956522,32.8326923 L5.67026087,31.4208462 L11.6527826,40.4379231 L10.6912174,41.7205385 Z" id="Shape"></path>
                <path d="M17.8170435,30.1382308 C17.8765217,30.9636923 17.822,31.6776923 17.6501739,32.2786154 C17.4783478,32.8795385 17.1908696,33.4497692 16.786087,33.9893077 C16.1169565,34.8793846 15.380087,35.4027692 14.5771304,35.5626923 C13.7741739,35.7226154 13.0257391,35.553 12.3334783,35.0554615 C11.9270435,34.7646923 11.6246957,34.4076923 11.4247826,33.9860769 C11.2248696,33.5644615 11.134,33.1347692 11.1488696,32.697 C11.1653913,32.2592308 11.2595652,31.8198462 11.4313913,31.3788462 C11.5602609,31.0573846 11.7965217,30.6002308 12.1368696,30.0073846 C12.834087,28.8006923 13.2867826,27.8686154 13.4933043,27.2111538 C13.3049565,27.0673846 13.1843478,26.9769231 13.1314783,26.9397692 C12.5598261,26.5294615 12.0592174,26.3695385 11.6296522,26.4616154 C11.048087,26.5843846 10.497913,26.9914615 9.97913043,27.6828462 C9.4933913,28.329 9.25217391,28.8895385 9.25217391,29.3628462 C9.25217391,29.8361538 9.49173913,30.3579231 9.96921739,30.9281538 L8.77304348,32.1364615 C8.2773913,31.5920769 7.95356522,31.0509231 7.80156522,30.5113846 C7.65121739,29.9734615 7.676,29.3676923 7.87756522,28.6989231 C8.08078261,28.0301538 8.4426087,27.3468462 8.96634783,26.6506154 C9.48513043,25.9592308 9.99234783,25.4568462 10.4830435,25.1434615 C10.9737391,24.8300769 11.4214783,24.6636923 11.8262609,24.6410769 C12.2310435,24.6184615 12.6573043,24.7056923 13.1033913,24.8995385 C13.3776522,25.0255385 13.8253913,25.3130769 14.449913,25.7605385 L16.3218261,27.1061538 C17.6286957,28.0446923 18.4746087,28.6084615 18.8661739,28.7974615 C19.256087,28.9880769 19.674087,29.1092308 20.1218261,29.1657692 L19.0446087,30.6002308 C18.648087,30.5307692 18.2383478,30.3773077 17.8170435,30.1382308 Z M14.5936522,27.9994615 C14.4267826,28.6472308 14.0434783,29.5227692 13.4404348,30.6244615 C13.0984348,31.248 12.891913,31.7148462 12.8208696,32.0233846 C12.7498261,32.3319231 12.7646957,32.6226923 12.8704348,32.8924615 C12.9745217,33.1638462 13.1496522,33.3867692 13.3941739,33.5628462 C13.7692174,33.8326154 14.1855652,33.9182308 14.6432174,33.8196923 C15.1008696,33.7211538 15.5304348,33.4061538 15.931913,32.8714615 C16.330087,32.3432308 16.5646957,31.7875385 16.6373913,31.206 C16.710087,30.6244615 16.6142609,30.0881538 16.3482609,29.6003077 C16.1417391,29.2255385 15.7286957,28.8152308 15.1091304,28.371 L14.5936522,27.9994615 Z" id="Shape"></path>
                <path d="M18.5093043,26.2435385 L19.3106087,24.7283077 C19.9252174,25.0513846 20.5117391,25.1450769 21.0685217,25.0093846 C21.6269565,24.8753077 22.1407826,24.4940769 22.6116522,23.8673077 C23.0858261,23.2356923 23.3055652,22.6751538 23.2725217,22.1808462 C23.2378261,21.6865385 23.0445217,21.3133846 22.6909565,21.0597692 C22.3737391,20.832 22.0218261,20.7867692 21.6385217,20.9256923 C21.3725217,21.0242308 20.862,21.378 20.1086087,21.9886154 C19.0925217,22.8092308 18.3424348,23.3455385 17.86,23.5975385 C17.3775652,23.8511538 16.8934783,23.9561538 16.4077391,23.9173846 C15.922,23.877 15.475913,23.7122308 15.0694783,23.4198462 C14.6993913,23.1549231 14.4201739,22.827 14.2301739,22.4360769 C14.0401739,22.0451538 13.9476522,21.6316154 13.9526087,21.1970769 C13.9526087,20.8675385 14.0335652,20.4782308 14.1987826,20.0291538 C14.364,19.5800769 14.6052174,19.1439231 14.9224348,18.7223077 C15.399913,18.0858462 15.9137391,17.5963846 16.4622609,17.2490769 C17.0107826,16.9033846 17.5295652,16.7305385 18.021913,16.7305385 C18.5126087,16.7305385 19.0594783,16.8807692 19.6608696,17.1796154 L18.8397391,18.6576923 C18.3672174,18.4121538 17.9013043,18.3507692 17.442,18.4703077 C16.9843478,18.5914615 16.5531304,18.9177692 16.1516522,19.4524615 C15.6774783,20.0824615 15.4461739,20.6090769 15.4577391,21.0323077 C15.4676522,21.4555385 15.6163478,21.7689231 15.9038261,21.9740769 C16.0855652,22.1049231 16.2904348,22.1663077 16.5217391,22.1598462 C16.7563478,22.1566154 17.0124348,22.071 17.2916522,21.903 C17.4469565,21.8028462 17.869913,21.4846154 18.5621739,20.9483077 C19.5567826,20.1680769 20.2837391,19.6446923 20.7397391,19.383 C21.1973913,19.1196923 21.669913,18.9953077 22.1556522,19.0082308 C22.6430435,19.0211538 23.1254783,19.2004615 23.6029565,19.5429231 C24.0705217,19.8789231 24.4125217,20.3296154 24.6256522,20.8933846 C24.8387826,21.4571538 24.8685217,22.0726154 24.7165217,22.7381538 C24.5645217,23.4053077 24.2489565,24.0546923 23.7731304,24.6911538 C22.9817391,25.7427692 22.1556522,26.3856923 21.2948696,26.6150769 C20.4307826,26.8460769 19.5022609,26.7216923 18.5093043,26.2435385 Z" id="Shape"></path>
                <path d="M28.7610435,12.1961538 L30.0067826,10.9070769 C30.6858261,11.739 31.0327826,12.6258462 31.046,13.5676154 C31.0592174,14.5093846 30.7122609,15.4511538 30.0067826,16.3913077 C29.1162609,17.5753846 28.0373913,18.2473846 26.7701739,18.4056923 C25.5029565,18.564 24.1944348,18.1601538 22.847913,17.1925385 C21.4534783,16.191 20.6356522,15.0634615 20.3927826,13.8099231 C20.149913,12.5547692 20.4489565,11.3674615 21.2882609,10.2496154 C22.1027826,9.16569231 23.1436522,8.55184615 24.4141739,8.40646154 C25.6846957,8.26107692 27.0031304,8.67946154 28.3711304,9.66323077 C28.4537391,9.723 28.5776522,9.81507692 28.7395652,9.93946154 L24.2010435,15.981 C25.1493913,16.5835385 26.0349565,16.8323077 26.8593913,16.7273077 C27.6838261,16.6223077 28.3496522,16.2313846 28.8568696,15.5545385 C29.2352174,15.0505385 29.421913,14.5239231 29.4186087,13.9730769 C29.4153043,13.4222308 29.1972174,12.8293846 28.7610435,12.1961538 Z M23.104,15.0747692 L26.5025217,10.5516923 C25.7590435,10.1123077 25.1064348,9.91038462 24.5446957,9.94430769 C23.6756522,9.99276923 22.9784348,10.3659231 22.4546957,11.0621538 C21.9805217,11.6921538 21.7987826,12.3770769 21.9078261,13.1169231 C22.0168696,13.8567692 22.4150435,14.5093846 23.104,15.0747692 Z" id="Shape"></path>
                <path d="M30.903913,9.74238462 L31.7052174,8.22715385 C32.3198261,8.55023077 32.9046957,8.64392308 33.4631304,8.50823077 C34.0215652,8.37415385 34.5353913,7.99292308 35.0046087,7.36615385 C35.4787826,6.73453846 35.6985217,6.174 35.6654783,5.67969231 C35.6324348,5.18538462 35.4391304,4.81223077 35.083913,4.55861538 C34.7666957,4.33084615 34.4164348,4.28561538 34.0314783,4.42453846 C33.7654783,4.52307692 33.2549565,4.87684615 32.5015652,5.48746154 C31.4854783,6.30646154 30.7353913,6.84438462 30.2546087,7.09638462 C29.7721739,7.35 29.288087,7.455 28.8023478,7.41623077 C28.3166087,7.37584615 27.8705217,7.21107692 27.464087,6.91869231 C27.094,6.65376923 26.8147826,6.32584615 26.6247826,5.93492308 C26.4347826,5.544 26.3422609,5.13046154 26.3488696,4.69592308 C26.3488696,4.36638462 26.4298261,3.97707692 26.5950435,3.528 C26.7602609,3.07892308 27.0014783,2.64276923 27.3186957,2.22115385 C27.7961739,1.58469231 28.31,1.09523077 28.8568696,0.747923077 C29.4053913,0.402230769 29.9258261,0.229384615 30.4165217,0.229384615 C30.9088696,0.229384615 31.454087,0.379615385 32.0554783,0.678461538 L31.2343478,2.15653846 C30.7618261,1.911 30.295913,1.84961538 29.8366087,1.96915385 C29.3773043,2.08869231 28.9477391,2.41661538 28.5462609,2.95130769 C28.072087,3.58130769 27.8407826,4.10792308 27.8523478,4.53115385 C27.863913,4.95438462 28.0109565,5.26776923 28.2984348,5.47292308 C28.4801739,5.60376923 28.6866957,5.66515385 28.9163478,5.65869231 C29.1509565,5.65546154 29.4070435,5.56984615 29.6862609,5.40184615 C29.8415652,5.30169231 30.2645217,4.98346154 30.9567826,4.44715385 C31.9530435,3.66692308 32.6783478,3.14353846 33.136,2.88184615 C33.5936522,2.62015385 34.0661739,2.49415385 34.551913,2.50707692 C35.0376522,2.52 35.520087,2.69930769 35.9992174,3.04176923 C36.4667826,3.37776923 36.8071304,3.82846154 37.0202609,4.39223077 C37.2333913,4.956 37.2631304,5.57146154 37.1111304,6.237 C36.9591304,6.90253846 36.6452174,7.55353846 36.1677391,8.19 C35.3763478,9.24161538 34.5502609,9.88453846 33.6894783,10.1139231 C32.8286957,10.3433077 31.8985217,10.2205385 30.903913,9.74238462 Z" id="Shape"></path>
            </g>
            <g id="Group" transform="translate(41.000000, 251.000000)" fill="#000000">
                <path d="M18.0783333,78.90125 L19.5933333,78.4860577 C19.7516667,78.9584615 19.8516667,79.3834615 19.895,79.7643269 C19.965,80.3854808 19.9183333,80.8791346 19.7566667,81.2436538 C19.5933333,81.6081731 19.3583333,81.8778846 19.0466667,82.0527885 C18.735,82.2276923 18.0566667,82.3715385 17.0083333,82.4859615 L11.0766667,83.1267308 L11.2166667,84.38375 L9.85833333,84.5292308 L9.71833333,83.2722115 L7.165,83.5484615 L5.925,81.9579808 L9.52666667,81.5689423 L9.33333333,79.8460577 L10.6916667,79.7005769 L10.885,81.4234615 L16.9133333,80.7745192 C17.4116667,80.7205769 17.7283333,80.6551923 17.8633333,80.58 C17.9983333,80.5031731 18.1016667,80.3936538 18.17,80.2465385 C18.2383333,80.1026923 18.26,79.9032692 18.23,79.6482692 C18.2083333,79.4553846 18.1583333,79.2069231 18.0783333,78.90125 Z" id="Shape"></path>
                <path d="M17.4416667,70.5957692 C18.0633333,71.1711538 18.5183333,71.74 18.8116667,72.3023077 C19.105,72.86625 19.2883333,73.4825 19.3633333,74.1559615 C19.4883333,75.2675 19.3066667,76.1501923 18.8216667,76.8073077 C18.335,77.4627885 17.6616667,77.83875 16.8016667,77.9319231 C16.2966667,77.9858654 15.8233333,77.92375 15.38,77.7439423 C14.9366667,77.5641346 14.5683333,77.3042308 14.275,76.9658654 C13.9816667,76.6275 13.745,76.2384615 13.5633333,75.7954808 C13.435,75.4685577 13.29,74.97 13.13,74.2998077 C12.8066667,72.9349038 12.4916667,71.9377885 12.185,71.3100962 C11.945,71.3280769 11.7933333,71.3427885 11.7283333,71.3493269 C11.0166667,71.4261538 10.5333333,71.6419231 10.2783333,71.9966346 C9.93333333,72.4772115 9.80833333,73.1506731 9.905,74.0121154 C9.995,74.8196154 10.205,75.3982692 10.5366667,75.7497115 C10.8683333,76.1027885 11.41,76.3316346 12.1616667,76.4378846 L12.1166667,78.1378846 C11.3683333,78.0659615 10.75,77.8779808 10.26,77.5772115 C9.77,77.2764423 9.36833333,76.8089423 9.05166667,76.1763462 C8.735,75.54375 8.52833333,74.7901923 8.43,73.9222115 C8.33333333,73.0591346 8.35833333,72.3464423 8.50333333,71.7841346 C8.65166667,71.2218269 8.86666667,70.7968269 9.15166667,70.5091346 C9.43666667,70.2214423 9.81333333,70.0007692 10.2816667,69.84875 C10.5716667,69.7588462 11.1066667,69.6722115 11.8833333,69.5888462 L14.2116667,69.3371154 C15.8366667,69.1622115 16.8583333,69.0150962 17.2816667,68.8941346 C17.7033333,68.7748077 18.1,68.5868269 18.47,68.3269231 L18.67,70.1168269 C18.3316667,70.3325962 17.92,70.4927885 17.4416667,70.5957692 Z M13.5533333,71.1597115 C13.8816667,71.7530769 14.2066667,72.6635577 14.5283333,73.88625 C14.71,74.5793269 14.8833333,75.0664423 15.045,75.3443269 C15.2066667,75.6222115 15.4216667,75.8281731 15.6883333,75.9589423 C15.9566667,76.0897115 16.2416667,76.1403846 16.545,76.1060577 C17.01,76.0570192 17.38,75.84125 17.6516667,75.4620192 C17.9233333,75.0827885 18.0216667,74.5597115 17.9466667,73.8927885 C17.8716667,73.2340385 17.66,72.6619231 17.3083333,72.1797115 C16.955,71.6975 16.51,71.3624038 15.9716667,71.1776923 C15.555,71.0371154 14.9633333,71.0076923 14.1933333,71.0894231 L13.5533333,71.1597115 Z" id="Shape"></path>
                <path d="M18.0583333,64.6326923 L18.2366667,66.2231731 L4.00666667,67.7580769 L3.81333333,66.045 L8.89,65.4974038 C7.88333333,64.8746154 7.31666667,64.0000962 7.19,62.8754808 C7.12,62.2543269 7.18333333,61.6511538 7.375,61.0692308 C7.56833333,60.4873077 7.87666667,59.9903846 8.3,59.5817308 C8.72166667,59.1730769 9.24833333,58.8314423 9.88,58.5584615 C10.51,58.2838462 11.1966667,58.1089423 11.9416667,58.0272115 C13.7083333,57.8359615 15.1216667,58.1171154 16.1816667,58.8706731 C17.2416667,59.6225962 17.84,60.5984615 17.9733333,61.7982692 C18.1083333,62.9915385 17.705,63.98375 16.765,64.7716346 L18.0583333,64.6326923 Z M12.8283333,65.21625 C14.065,65.0822115 14.94,64.8206731 15.4516667,64.4316346 C16.2916667,63.7957692 16.6583333,63.0176923 16.555,62.0957692 C16.4716667,61.3471154 16.0666667,60.7357692 15.3416667,60.2617308 C14.6166667,59.7876923 13.5983333,59.6209615 12.285,59.7631731 C10.9383333,59.9086538 9.975,60.2780769 9.39333333,60.8698077 C8.81166667,61.4631731 8.56166667,62.1300962 8.64666667,62.8738462 C8.73,63.6225 9.135,64.2354808 9.86,64.7095192 C10.585,65.1835577 11.5733333,65.3519231 12.8283333,65.21625 Z" id="Shape"></path>
                <polygon id="Shape" points="17.0233333 55.4069231 2.79333333 56.9434615 2.60166667 55.22875 16.8316667 53.6938462"></polygon>
                <path d="M12.435,44.4746154 L12.46,42.6798077 C13.5466667,42.8465385 14.4233333,43.2748077 15.09,43.96625 C15.7583333,44.6593269 16.1583333,45.5926923 16.2883333,46.7663462 C16.455,48.2440385 16.1216667,49.4667308 15.29,50.4344231 C14.4583333,51.4004808 13.205,51.9742308 11.53,52.1556731 C9.795,52.3436538 8.40166667,52.0510577 7.345,51.2778846 C6.28833333,50.5047115 5.68166667,49.4193269 5.52666667,48.0233654 C5.37333333,46.6715385 5.71833333,45.5175 6.56166667,44.5579808 C7.40333333,43.6000962 8.67833333,43.0296154 10.3783333,42.8449038 C10.4816667,42.8350962 10.6383333,42.8203846 10.8466667,42.8040385 L11.6916667,50.3445192 C12.8166667,50.1598077 13.6483333,49.7511538 14.1866667,49.1218269 C14.725,48.4925 14.9466667,47.7552885 14.8533333,46.9101923 C14.7833333,46.2808654 14.5533333,45.7643269 14.1666667,45.3556731 C13.78,44.9502885 13.2033333,44.6544231 12.435,44.4746154 Z M10.2433333,50.4066346 L9.61,44.7606731 C8.75,44.9306731 8.125,45.2150962 7.73166667,45.6188462 C7.12,46.2367308 6.86333333,46.9804808 6.96,47.8517308 C7.04833333,48.6379808 7.39166667,49.2705769 7.98833333,49.7495192 C8.585,50.2268269 9.33666667,50.4458654 10.2433333,50.4066346 Z" id="Shape"></path>
                <path d="M15.1066667,38.3284615 L5.145,42.5343269 L4.945,40.7640385 L10.715,38.5131731 L12.86,37.6746154 C12.7466667,37.6615385 12.02,37.5634615 10.675,37.37875 L4.45666667,36.4225 L4.25833333,34.6603846 L10.0683333,32.5010577 L11.9816667,31.7834615 L9.92666667,31.4173077 L3.77166667,30.3270192 L3.585,28.6613462 L14.2483333,30.7095192 L14.4483333,32.4896154 L8.455,34.765 L6.74166667,35.3452885 L14.9016667,36.5369231 L15.1066667,38.3284615 Z" id="Shape"></path>
                <path d="M11.7233333,19.6529808 C12.345,20.2283654 12.8016667,20.7972115 13.095,21.3595192 C13.3866667,21.9218269 13.57,22.5413462 13.6466667,23.2131731 C13.7716667,24.3230769 13.59,25.2074038 13.105,25.8628846 C12.6183333,26.52 11.945,26.8943269 11.085,26.9875 C10.58,27.0430769 10.1066667,26.9793269 9.66333333,26.7995192 C9.22,26.6197115 8.85333333,26.3598077 8.55833333,26.0214423 C8.26333333,25.6830769 8.02833333,25.2940385 7.84833333,24.8510577 C7.72,24.5241346 7.575,24.0255769 7.415,23.3570192 C7.09166667,21.9921154 6.775,20.9933654 6.47,20.3640385 C6.22833333,20.3852885 6.07833333,20.3983654 6.01166667,20.4049038 C5.3,20.4800962 4.81666667,20.6975 4.56166667,21.0522115 C4.21666667,21.5327885 4.09166667,22.2046154 4.18833333,23.0676923 C4.27833333,23.8735577 4.49,24.4538462 4.82,24.8052885 C5.15,25.1567308 5.69166667,25.3872115 6.445,25.4918269 L6.4,27.1918269 C5.65166667,27.1199038 5.03333333,26.9319231 4.545,26.6311538 C4.05666667,26.3303846 3.65166667,25.8645192 3.33666667,25.2302885 C3.02,24.5960577 2.81333333,23.8441346 2.71333333,22.9761538 C2.61666667,22.1130769 2.64333333,21.4003846 2.78833333,20.8380769 C2.935,20.2757692 3.15166667,19.8507692 3.43666667,19.5647115 C3.72166667,19.2753846 4.09833333,19.0563462 4.56666667,18.9026923 C4.85833333,18.8144231 5.39166667,18.7277885 6.16833333,18.6427885 L8.49666667,18.3910577 C10.1216667,18.2161538 11.145,18.0690385 11.5683333,17.9497115 C11.99,17.82875 12.385,17.6407692 12.7566667,17.3825 L12.9583333,19.1724038 C12.6133333,19.3898077 12.2033333,19.55 11.7233333,19.6529808 Z M7.83833333,20.2185577 C8.16666667,20.8119231 8.49166667,21.7207692 8.81166667,22.9450962 C8.995,23.6381731 9.16666667,24.1252885 9.33,24.4015385 C9.49166667,24.6810577 9.70833333,24.88375 9.97333333,25.0161538 C10.24,25.1485577 10.5266667,25.1975962 10.83,25.1649038 C11.295,25.1142308 11.665,24.8984615 11.9366667,24.5192308 C12.2083333,24.14 12.3066667,23.6169231 12.2333333,22.9516346 C12.16,22.29125 11.9466667,21.7191346 11.5933333,21.2385577 C11.2416667,20.7563462 10.795,20.42125 10.2583333,20.2349038 C9.84333333,20.0943269 9.25,20.0649038 8.48,20.1482692 L7.83833333,20.2185577 Z" id="Shape"></path>
                <path d="M12.52,15.2885577 L2.21166667,16.4017308 L2.03833333,14.8602885 L3.6,14.6919231 C2.825,14.3764423 2.30166667,14.0658654 2.03166667,13.7585577 C1.76,13.4496154 1.60333333,13.0965385 1.55833333,12.6976923 C1.49333333,12.1190385 1.615,11.5125962 1.92333333,10.8750962 L3.61,11.2902885 C3.405,11.7349038 3.325,12.1680769 3.37166667,12.5865385 C3.41333333,12.9608654 3.56666667,13.2845192 3.82833333,13.5591346 C4.09166667,13.8321154 4.435,14.0102885 4.85666667,14.0952885 C5.5,14.2178846 6.19,14.2391346 6.92833333,14.1606731 L12.325,13.57875 L12.52,15.2885577 Z" id="Shape"></path>
                <path d="M7.69333333,2.21326923 L7.71666667,0.420096154 C8.80333333,0.585192308 9.68,1.01346154 10.3483333,1.70653846 C11.015,2.39798077 11.415,3.33298077 11.5466667,4.50663462 C11.7133333,5.98596154 11.38,7.20865385 10.5483333,8.17471154 C9.71666667,9.14076923 8.465,9.71615385 6.78666667,9.89596154 C5.05333333,10.0823077 3.65833333,9.79134615 2.60166667,9.01817308 C1.54666667,8.245 0.94,7.16125 0.781666667,5.76528846 C0.631666667,4.41346154 0.976666667,3.25778846 1.81833333,2.29990385 C2.66,1.34201923 3.93333333,0.771538462 5.635,0.588461538 C5.73833333,0.577019231 5.89333333,0.562307692 6.1,0.547596154 L6.94666667,8.08807692 C8.07166667,7.90173077 8.90333333,7.49471154 9.44166667,6.86375 C9.98,6.23442308 10.2033333,5.49721154 10.1083333,4.65375 C10.0366667,4.02605769 9.81,3.50625 9.42166667,3.09923077 C9.03666667,2.68894231 8.46,2.39471154 7.69333333,2.21326923 Z M5.5,8.14528846 L4.86666667,2.49769231 C4.00833333,2.66769231 3.38166667,2.95375 2.98833333,3.35586538 C2.37666667,3.97375 2.12,4.7175 2.21666667,5.58875 C2.305,6.375 2.64666667,7.00759615 3.245,7.48653846 C3.84166667,7.96548077 4.595,8.18451923 5.5,8.14528846 Z" id="Shape"></path>
            </g>
            <g id="Group" transform="translate(296.000000, 395.000000)" fill="#000000">
                <path d="M32.917625,0.706853883 L32.5715,2.40372093 C31.902,2.25274243 31.321875,2.31838526 30.8295,2.60064941 C30.337125,2.88291356 29.953625,3.39328653 29.679,4.13176832 C29.40275,4.87681439 29.345875,5.4856516 29.511625,5.95827995 C29.677375,6.43254936 29.96175,6.74599386 30.366375,6.9002545 C30.72875,7.03810443 31.07325,6.98723124 31.399875,6.74763493 C31.62575,6.57860465 32.010875,6.09612988 32.560125,5.29856955 C33.2995,4.22366828 33.863375,3.49667398 34.25175,3.1208688 C34.640125,2.74506362 35.069125,2.51039052 35.540375,2.41849057 C36.01325,2.32659061 36.479625,2.36925845 36.94275,2.54649408 C37.363625,2.707319 37.7195,2.95183853 38.0055,3.2833348 C38.2915,3.61483107 38.491375,3.99391839 38.605125,4.42059675 C38.696125,4.7422466 38.72375,5.14430891 38.689625,5.62842475 C38.6555,6.11254059 38.545,6.60322071 38.35975,7.10046512 C38.081875,7.8504344 37.72925,8.46747696 37.3035,8.95323387 C36.879375,9.43899079 36.4325,9.74751207 35.96775,9.87879772 C35.501375,10.0100834 34.944,10.0117244 34.294,9.88043879 L34.669375,8.21475208 C35.182875,8.32798596 35.641125,8.2639842 36.0425,8.02274682 C36.4455,7.78150943 36.762375,7.34498464 36.996375,6.71645459 C37.272625,5.97140851 37.349,5.39539272 37.223875,4.98348398 C37.09875,4.57321632 36.872875,4.30572181 36.54625,4.18264151 C36.33825,4.10387012 36.127,4.09894691 35.910875,4.16787187 C35.689875,4.23515577 35.4705,4.38777534 35.25275,4.62573058 C35.1325,4.76522159 34.818875,5.19025889 34.308625,5.90084247 C33.579,6.93143484 33.033,7.63709522 32.67225,8.01782361 C32.309875,8.39691093 31.897125,8.64635366 31.432375,8.76451075 C30.967625,8.88266784 30.46225,8.83835893 29.91625,8.62994296 C29.381625,8.4264502 28.936375,8.07854322 28.582125,7.58293989 C28.22625,7.08897762 28.03125,6.49491005 27.993875,5.80401931 C27.9565,5.11312857 28.07675,4.39105748 28.35625,3.6410882 C28.819375,2.39879772 29.427125,1.54872312 30.181125,1.09250548 C30.9335,0.633005704 31.84675,0.505002194 32.917625,0.706853883 Z" id="Shape"></path>
                <path d="M27.56325,17.0519175 L26.765375,18.5666257 C25.74325,17.9791224 25.0575,17.2111014 24.70975,16.2609215 C24.362,15.3107416 24.3815,14.3129706 24.7715,13.2692497 C25.259,11.9613164 26.073125,11.070215 27.2155,10.5975867 C28.357875,10.1249583 29.719625,10.187319 31.30075,10.7879509 C32.322875,11.1752435 33.15325,11.6856165 33.791875,12.3190698 C34.432125,12.952523 34.812375,13.6910048 34.935875,14.5361562 C35.059375,15.3813076 34.968375,16.2133304 34.66125,17.0355068 C34.2745,18.0743045 33.69925,18.8242738 32.933875,19.2870557 C32.1685,19.7498376 31.273125,19.8926108 30.246125,19.7153752 L30.59225,18.0480474 C31.2845,18.1399473 31.861375,18.0546117 32.322875,17.7969636 C32.786,17.5376744 33.1175,17.1388943 33.319,16.598982 C33.622875,15.7817288 33.580625,15.0104256 33.190625,14.2801492 C32.800625,13.5498728 31.98,12.9459588 30.7255,12.4700483 C29.45475,11.9875735 28.439125,11.882545 27.678625,12.1566038 C26.91975,12.4290215 26.391625,12.9623695 26.0975,13.7550066 C25.86025,14.3901009 25.857,14.995656 26.0845,15.5667486 C26.310375,16.1378412 26.804375,16.6334445 27.56325,17.0519175 Z" id="Shape"></path>
                <path d="M20.655375,24.9782887 L22.046375,25.5067135 C21.253375,24.3563229 21.09575,23.1435717 21.571875,21.8651777 C21.7815,21.3006494 22.085375,20.8148925 22.481875,20.407907 C22.878375,19.9992804 23.281375,19.7383502 23.694125,19.6251163 C24.10525,19.5102413 24.565125,19.4938306 25.0705,19.5775252 C25.410125,19.6316806 25.920375,19.7875823 26.6045,20.0468714 L32.4675,22.2738043 L31.864625,23.893541 L26.615875,21.8996402 C25.777375,21.5812725 25.202125,21.4007547 24.886875,21.3548047 C24.427,21.2973673 24.01425,21.3876262 23.651875,21.6255814 C23.2895,21.8635366 23.0165,22.2262133 22.836125,22.7136112 C22.65575,23.1993681 22.608625,23.7031768 22.696375,24.2217552 C22.784125,24.7419746 23.00675,25.170294 23.3675,25.5083545 C23.726625,25.8480562 24.31,26.169706 25.117625,26.4765862 L30.18925,28.4015621 L29.586375,30.0212988 L20.12075,26.4273541 L20.655375,24.9782887 Z" id="Shape"></path>
                <polygon id="Shape" points="19.18475 28.9299868 32.251375 33.8909434 31.646875 35.5106801 18.581875 30.5497236"></polygon>
                <path d="M14.018875,31.6837034 L27.1115,36.6545064 L26.56225,38.1298289 L25.332125,37.6621237 C25.683125,38.1938306 25.897625,38.7222554 25.975625,39.2523212 C26.053625,39.782387 25.975625,40.3584028 25.74325,40.9820097 C25.439375,41.7992628 24.96325,42.4392804 24.314875,42.9053444 C23.6665,43.3714085 22.904375,43.6208513 22.0285,43.6503905 C21.152625,43.6799298 20.26375,43.5240281 19.36025,43.1810443 C18.39175,42.8134445 17.58575,42.3063537 16.940625,41.6614129 C16.297125,41.0148311 15.890875,40.2796314 15.728375,39.4541729 C15.56425,38.6287143 15.6195,37.8459237 15.894125,37.1074419 C16.095625,36.5675296 16.38975,36.1260816 16.774875,35.7830978 C17.16,35.4401141 17.577625,35.1955946 18.0245,35.0495393 L13.417625,33.300158 L14.018875,31.6837034 Z M21.77825,36.3049583 C20.5595,35.8421764 19.56825,35.7502764 18.799625,36.0276174 C18.032625,36.3033172 17.515875,36.7972795 17.252625,37.504581 C16.9845,38.225011 17.056,38.9552874 17.46875,39.6970513 C17.879875,40.4388153 18.72,41.0509346 19.98425,41.5317683 C21.19,41.989627 22.186125,42.081527 22.972625,41.8091093 C23.759125,41.5350505 24.282375,41.0509346 24.54075,40.3551207 C24.7975,39.665871 24.7065,38.9323124 24.2645,38.1593681 C23.827375,37.3864239 22.997,36.7677402 21.77825,36.3049583 Z" id="Shape"></path>
                <path d="M13.947375,47.3953137 L12.442625,47.0900746 C12.517375,46.5977534 12.621375,46.171075 12.75625,45.8116806 C12.975625,45.2241773 13.23725,44.8024221 13.541125,44.5480562 C13.845,44.2936902 14.17325,44.1574814 14.522625,44.1394296 C14.872,44.1213778 15.5285,44.2953313 16.4905,44.66129 L21.935875,46.7290391 L22.377875,45.5409039 L23.625875,46.0151733 L23.183875,47.2033085 L25.52875,48.0927688 L25.891125,50.0702589 L22.58425,48.8148398 L21.978125,50.444423 L20.730125,49.9701536 L21.337875,48.3405704 L15.803125,46.2383589 C15.344875,46.0644054 15.041,45.9807108 14.88825,45.9889162 C14.7355,45.9971215 14.597375,46.0496358 14.47225,46.1497411 C14.347125,46.2498464 14.23825,46.4188767 14.1505,46.6601141 C14.08225,46.8406319 14.015625,47.0851514 13.947375,47.3953137 Z" id="Shape"></path>
                <path d="M9.59075,54.6980781 L10.980125,55.2265029 C10.187125,54.0761123 10.0295,52.8617201 10.505625,51.5849671 C10.71525,51.0204388 11.019125,50.5346819 11.415625,50.1260553 C11.812125,49.7174287 12.215125,49.4581395 12.627875,49.3432646 C13.040625,49.2300307 13.498875,49.21362 14.00425,49.2956735 C14.343875,49.3498289 14.85575,49.5057306 15.53825,49.7650197 L21.40125,51.9919526 L20.798375,53.6116893 L15.549625,51.6177885 C14.71275,51.2994208 14.135875,51.118903 13.820625,51.072953 C13.36075,51.0155156 12.949625,51.1057745 12.585625,51.3437297 C12.221625,51.583326 11.948625,51.9443616 11.76825,52.4317595 C11.587875,52.9175165 11.54075,53.4213251 11.6285,53.9399035 C11.71625,54.4601229 11.9405,54.8884423 12.299625,55.2265029 C12.65875,55.5645634 13.242125,55.8878543 14.04975,56.1947345 L19.121375,58.1197104 L18.5185,59.7394471 L9.0545,56.1455024 L9.59075,54.6980781 Z" id="Shape"></path>
                <path d="M8.112,58.667828 L17.577625,62.2617727 L17.034875,63.7190434 L15.6,63.174208 C16.133,63.802738 16.446625,64.313111 16.544125,64.7102501 C16.641625,65.1073892 16.618875,65.4946819 16.4775,65.8721281 C16.274375,66.4186047 15.89575,66.9092848 15.34,67.3425274 L14.0595,66.216753 C14.438125,65.9082317 14.703,65.5586836 14.84925,65.1615445 C14.980875,64.8070733 14.993875,64.4493199 14.88825,64.0882843 C14.782625,63.7256077 14.564875,63.4138043 14.235,63.151233 C13.73125,62.755735 13.141375,62.4291619 12.46375,62.1715138 L7.509125,60.2892058 L8.112,58.667828 Z" id="Shape"></path>
                <path d="M6.43175,72.5250285 L5.603,74.1217903 C4.733625,73.488337 4.16325,72.7170338 3.895125,71.7980342 C3.625375,70.8806757 3.6985,69.8664941 4.11125,68.7571303 C4.63125,67.3589381 5.46975,66.4103993 6.628375,65.9180781 C7.785375,65.4208337 9.134125,65.4667837 10.673,66.0510048 C12.2655,66.6549188 13.34775,67.5394559 13.918125,68.6996928 C14.4885,69.8632119 14.5275,71.1038613 14.03675,72.4249232 C13.560625,73.7016762 12.741625,74.58129 11.578125,75.0654059 C10.41625,75.5478806 9.052875,75.4920842 7.489625,74.8980167 C7.39375,74.8635542 7.252375,74.8044756 7.0655,74.7273453 L9.719125,67.5985344 C8.656375,67.262115 7.749625,67.2588328 6.998875,67.5821237 C6.248125,67.9054147 5.72325,68.4666608 5.425875,69.2642211 C5.204875,69.8566477 5.17075,70.4244581 5.3235,70.9610882 C5.477875,71.5010004 5.84675,72.0212198 6.43175,72.5250285 Z M11.006125,68.1893199 L9.01875,73.5260816 C9.841,73.7574726 10.515375,73.7788065 11.038625,73.5950066 C11.8495,73.3143835 12.406875,72.7629838 12.712375,71.9391663 C12.988625,71.1957613 12.975625,70.4769724 12.67175,69.7827995 C12.36625,69.0886266 11.812125,68.5585608 11.006125,68.1893199 Z" id="Shape"></path>
                <path d="M5.07,75.5002896 L4.723875,77.1955156 C4.054375,77.0445371 3.47425,77.1085388 2.981875,77.3924441 C2.491125,77.6747082 2.107625,78.1850812 1.831375,78.923563 C1.555125,79.666968 1.49825,80.2758052 1.665625,80.7500746 C1.831375,81.224344 2.11575,81.5377885 2.520375,81.6920491 C2.88275,81.828258 3.22725,81.7790259 3.553875,81.5377885 C3.77975,81.3703993 4.164875,80.8879245 4.714125,80.0887231 C5.4535,79.0138219 6.017375,78.2868276 6.404125,77.9110224 C6.7925,77.5352172 7.2215,77.3005441 7.69275,77.2070031 C8.164,77.1167442 8.632,77.159412 9.095125,77.3350066 C9.517625,77.4958315 9.871875,77.740351 10.157875,78.0718473 C10.443875,78.4033436 10.64375,78.7824309 10.7575,79.2074682 C10.8485,79.529118 10.876125,79.9328214 10.842,80.4152962 C10.807875,80.899412 10.699,81.3900921 10.512125,81.8873366 C10.232625,82.6373058 9.88,83.2559895 9.455875,83.7401053 C9.03175,84.2275033 8.584875,84.5343835 8.120125,84.6656692 C7.655375,84.7969548 7.096375,84.7969548 6.446375,84.6673102 L6.82175,83.0016235 C7.33525,83.1132163 7.7935,83.0492146 8.1965,82.8096183 C8.597875,82.5683809 8.916375,82.1334971 9.150375,81.5016849 C9.426625,80.7582799 9.503,80.1806231 9.377875,79.7703554 C9.25275,79.3600878 9.026875,79.0909522 8.70025,78.9695129 C8.49225,78.8891005 8.281,78.8841773 8.064875,78.9531022 C7.843875,79.0203861 7.6245,79.1713646 7.405125,79.4109609 C7.284875,79.550452 6.97125,79.9754892 6.462625,80.6860728 C5.733,81.7166652 5.187,82.4223256 4.824625,82.8014129 C4.46225,83.1805002 4.0495,83.429943 3.58475,83.5481 C3.12,83.6662571 2.614625,83.6219482 2.068625,83.4135323 C1.534,83.2116806 1.08875,82.8621325 0.7345,82.3681703 C0.38025,81.8725669 0.183625,81.2801404 0.14625,80.5876086 C0.108875,79.8950768 0.23075,79.1746468 0.51025,78.4246775 C0.973375,77.182387 1.581125,76.3339535 2.3335,75.8760948 C3.085875,75.4264414 3.9975,75.2984379 5.07,75.5002896 Z" id="Shape"></path>
            </g>
            <g id="Group" transform="translate(76.000000, 414.000000)" fill="#000000">
                <path d="M22.6632143,34.2644348 L8.82542857,37.1953913 L8.50014286,35.6423478 L9.80128571,35.3664348 C9.21642857,35.1070435 8.74821429,34.7749565 8.39664286,34.3685217 C8.04671429,33.9604348 7.80192857,33.430087 7.66392857,32.7725217 C7.48485714,31.9133913 7.54564286,31.1087826 7.84628571,30.3586957 C8.14857143,29.6086087 8.66607143,28.9824348 9.3955,28.4768696 C10.1265714,27.9729565 10.9693571,27.6193913 11.9238571,27.4178261 C12.9473571,27.2013913 13.9084286,27.1898261 14.8037857,27.3864348 C15.6991429,27.5830435 16.4417143,27.9861739 17.0249286,28.5974783 C17.6081429,29.2087826 17.9827143,29.9043478 18.1453571,30.6792174 C18.2652857,31.2475652 18.2521429,31.7828696 18.1075714,32.2851304 C17.9646429,32.7873913 17.7395714,33.221913 17.4372857,33.5903478 L22.3067143,32.5577391 L22.6632143,34.2644348 Z M13.5617857,34.58 C14.8481429,34.3073913 15.7451429,33.8431304 16.2511429,33.1888696 C16.7571429,32.5346087 16.9312857,31.834087 16.7752143,31.0889565 C16.6158571,30.3322609 16.1624286,29.7490435 15.4116429,29.3442609 C14.6608571,28.9394783 13.6176429,28.8783478 12.2803571,29.1625217 C11.0055,29.4334783 10.1052143,29.8977391 9.58114286,30.5602609 C9.05707143,31.2227826 8.87142857,31.9183478 9.02585714,32.651913 C9.177,33.3788696 9.65014286,33.9505217 10.442,34.3652174 C11.2338571,34.779913 12.2737857,34.8526087 13.5617857,34.58 Z" id="Shape"></path>
                <path d="M11.7020714,25.9804348 C9.85057143,26.372 8.36871429,26.1456522 7.25978571,25.298087 C6.33814286,24.5893043 5.74671429,23.6128696 5.4855,22.3687826 C5.19635714,20.985913 5.40992857,19.76 6.12785714,18.6910435 C6.84578571,17.622087 7.99742857,16.919913 9.58607143,16.5828696 C10.8740714,16.3102609 11.9271429,16.2904348 12.7452857,16.5217391 C13.5650714,16.7530435 14.2550714,17.1974783 14.8185714,17.8533913 C15.3820714,18.5093043 15.7566429,19.275913 15.9406429,20.1548696 C16.2363571,21.5625217 16.0244286,22.7966957 15.3081429,23.854087 C14.5918571,24.9114783 13.3909286,25.621913 11.7020714,25.9804348 Z M11.3340714,24.2274783 C12.6155,23.9565217 13.5157857,23.4724348 14.0349286,22.7752174 C14.5540714,22.078 14.7249286,21.3031304 14.5475,20.4506087 C14.3700714,19.6046957 13.9018571,18.9686087 13.1445,18.5406957 C12.3871429,18.1144348 11.3505,18.040087 10.0378571,18.3176522 C8.80078571,18.5803478 7.92185714,19.0611304 7.40271429,19.7616522 C6.88357143,20.4621739 6.71271429,21.232087 6.8885,22.0713913 C7.06757143,22.923913 7.5325,23.5633043 8.28492857,23.9912174 C9.03735714,24.4207826 10.0542857,24.500087 11.3340714,24.2274783 Z" id="Shape"></path>
                <path d="M12.0142143,10.0947826 L13.4599286,9.5313913 C13.6603571,9.99069565 13.8016429,10.4086957 13.8805,10.7886957 C14.0102857,11.4082609 14.0135714,11.9072174 13.8903571,12.2905217 C13.7671429,12.6721739 13.5617857,12.967913 13.2742857,13.1727826 C12.9867857,13.3776522 12.3329286,13.5891304 11.316,13.8055652 L5.56107143,15.0248696 L5.82392857,16.2755652 L4.50471429,16.5547826 L4.24185714,15.304087 L1.76442857,15.8278261 L0.392642857,14.3474783 L3.887,13.6073043 L3.52721429,11.8923478 L4.84642857,11.6131304 L5.20621429,13.328087 L11.0564286,12.0889565 C11.5394286,11.9865217 11.8433571,11.8906957 11.9698571,11.8014783 C12.0947143,11.7122609 12.1850714,11.5916522 12.2376429,11.438 C12.2902143,11.2843478 12.2918571,11.0827826 12.2376429,10.83 C12.1982143,10.64 12.1242857,10.3954783 12.0142143,10.0947826 Z" id="Shape"></path>
                <path d="M10.3385,9.42069565 L9.72242857,7.79 C10.3746429,7.55208696 10.8346429,7.18034783 11.1007857,6.67147826 C11.3685714,6.1626087 11.4211429,5.51991304 11.2585,4.7433913 C11.0942143,3.96026087 10.8132857,3.41173913 10.4173571,3.10113043 C10.0214286,2.78886957 9.60907143,2.67817391 9.18192857,2.76904348 C8.79914286,2.85 8.533,3.08130435 8.3835,3.46295652 C8.28164286,3.72895652 8.21264286,4.35017391 8.17485714,5.3266087 C8.12228571,6.6433913 8.03192857,7.5686087 7.90378571,8.1006087 C7.77564286,8.6326087 7.53578571,9.06547826 7.18257143,9.40086957 C6.82935714,9.73626087 6.40878571,9.95434783 5.91757143,10.0584348 C5.47235714,10.1526087 5.037,10.1377391 4.61478571,10.0121739 C4.19092857,9.88826087 3.818,9.67513043 3.49271429,9.37443478 C3.243,9.14973913 3.0015,8.82426087 2.7715,8.39469565 C2.5415,7.96513043 2.37064286,7.48930435 2.26057143,6.96391304 C2.09464286,6.17417391 2.06342857,5.45713043 2.16364286,4.81278261 C2.26385714,4.16843478 2.47907143,3.66286957 2.806,3.29608696 C3.13292857,2.93095652 3.60771429,2.62530435 4.232,2.38078261 L4.807,3.99991304 C4.30757143,4.18495652 3.95107143,4.48895652 3.73914286,4.91356522 C3.52721429,5.33817391 3.48942857,5.88008696 3.62907143,6.54426087 C3.79335714,7.3273913 4.03978571,7.8593913 4.36671429,8.14026087 C4.69364286,8.41947826 5.03042857,8.52356522 5.37542857,8.45086957 C5.59557143,8.4046087 5.77957143,8.29391304 5.92578571,8.11713043 C6.07857143,7.94034783 6.18371429,7.69086957 6.24121429,7.36704348 C6.2675,7.18365217 6.30692857,6.65 6.3595,5.7693913 C6.42685714,4.49556522 6.51228571,3.59843478 6.61742857,3.078 C6.72092857,2.55756522 6.93942857,2.11973913 7.27292857,1.76782609 C7.60478571,1.41426087 8.05985714,1.17634783 8.63814286,1.05243478 C9.20328571,0.933478261 9.77007143,0.984695652 10.3385,1.21104348 C10.9069286,1.4373913 11.3932143,1.83391304 11.7973571,2.4006087 C12.2015,2.96730435 12.4857143,3.64634783 12.6516429,4.43608696 C12.926,5.74295652 12.8635714,6.79704348 12.4676429,7.59669565 C12.0700714,8.39965217 11.362,9.00765217 10.3385,9.42069565 Z" id="Shape"></path>
            </g>
        </g>
    </g>
</svg>