<?xml version="1.0" encoding="UTF-8"?>
<svg width="355px" height="410px" viewBox="0 0 355 410" version="1.1" xmlns="http://www.w3.org/2000/svg" xmlns:xlink="http://www.w3.org/1999/xlink">
    <!-- Generator: Sketch 51.3 (57544) - http://www.bohemiancoding.com/sketch -->
    <title>b11</title>
    <desc>Created with Sketch.</desc>
    <defs></defs>
    <g id="Page-1" stroke="none" stroke-width="1" fill="none" fill-rule="evenodd">
        <g id="b11" fill="#FFDAB9" fill-rule="nonzero">
            <path d="M354.451759,220.040848 C354.392129,217.893838 354.514797,215.736221 354.398944,213.595271 C354.272869,211.290682 353.966201,209.00276 353.732792,206.707262 C353.180789,201.246552 352.141524,195.908572 350.833072,190.620593 C349.80914,186.491726 349.078247,182.279525 347.880536,178.190054 C345.948525,171.592959 344.309553,164.886771 341.965243,158.4518 C339.566415,151.865311 337.418032,145.156093 334.882906,138.642333 C331.098959,128.919421 326.638637,119.607123 321.239569,110.923625 C315.847316,102.255278 311.569291,92.789947 306.65067,83.7822002 C303.885543,78.7169525 301.176639,73.6107949 298.498401,68.4834248 C296.641354,64.9272967 294.93764,61.2651059 293.066963,57.7210992 C291.117914,54.0331504 289.039384,50.4376276 287.035817,46.7890735 C286.189071,45.2420744 285.367881,43.675378 284.570543,42.0935297 C280.796818,34.6176302 276.944722,27.1887012 273.300479,19.6279516 C271.135059,15.1293813 269.289937,10.4217162 267.31363,5.80193148 C266.995035,5.05646278 266.785478,4.2473565 266.449847,3.51400924 C265.65762,1.78215817 264.487169,0.704864989 262.694862,0.626075614 C258.375949,0.432132537 254.057035,-0.0133304676 249.736418,0.000306155035 C237.466273,0.0397008425 225.194425,0.270008246 212.925984,0.406374472 C206.876098,0.473042405 200.826211,0.401828931 194.781436,0.563953222 C184.105967,0.851837477 173.435609,1.29275494 162.761845,1.62457942 C160.165385,1.70488398 157.562111,1.64276159 154.962244,1.5882151 C154.388093,1.57609365 153.865053,1.65336785 153.379494,1.8260984 C149.13384,1.82003768 144.888186,1.87458417 140.637421,1.86094755 C128.367277,1.82306804 116.095429,1.69276254 103.825284,1.75033939 C99.5046667,1.77155191 95.1908642,2.25186406 90.8685431,2.47914111 C89.0779402,2.57459746 87.9160076,3.66098173 87.1340031,5.39737834 C86.801779,6.13375596 86.5990371,6.94437742 86.2838501,7.69287648 C84.3348019,12.3293282 82.520347,17.0521451 80.3787792,21.5673824 C76.7805363,29.1569204 72.9761441,36.616153 69.2467153,44.1223561 C68.457896,45.7102651 67.6469284,47.2845374 66.8069976,48.836082 C64.8272825,52.5013031 62.7709004,56.1134929 60.8457041,59.8165936 C58.9937676,63.3757521 57.3139061,67.0500643 55.477303,70.6213442 C52.8314359,75.7699268 50.1531983,80.8988121 47.4187382,85.9867875 C42.5546362,95.033929 38.3345379,104.532594 32.9968036,113.243366 C27.6471433,121.969289 23.2447476,131.317951 19.52043,141.071167 C17.0244897,147.606139 14.9152924,154.332025 12.557353,160.936696 C10.2522286,167.391364 8.65244168,174.111188 6.76302343,180.723435 C5.58916485,184.821998 4.88212375,189.04026 3.88374765,193.179732 C2.60596254,198.475287 1.60077159,203.820843 1.08284269,209.287614 C0.863063652,211.584627 0.570024933,213.87558 0.459283557,216.180169 C0.353653321,218.322634 0.491654113,220.478735 0.442246422,222.628776 C0.317875338,228.422826 0.150911417,234.213845 0.000984631011,240.009409 C0.760840843,247.079241 0.128763142,253.84149 2.08121879,260.244642 C2.38447979,267.597812 4.08478584,274.617642 5.861759,281.625351 C6.05938977,282.41476 5.91798155,283.373869 6.24850196,284.0557 C8.29806928,288.311842 9.13629631,293.04981 10.4021554,297.613534 C10.749713,298.863557 10.8161578,300.218128 11.1943822,301.453 C12.1876472,304.710638 13.5165437,307.860698 14.281511,311.183488 C15.9613725,318.459384 18.6549435,325.226179 21.5614787,331.908124 C22.3928909,333.823312 23.355489,335.662741 24.229494,337.553686 C25.9860226,341.347697 27.4239568,345.370501 30.4701965,348.185706 C31.1142002,348.782687 31.4753875,349.791797 31.9643532,350.61151 C32.6185792,351.70547 33.1535452,352.926705 33.9423646,353.869147 C38.1266849,358.860151 41.7164092,364.429954 46.3505099,369.016405 C51.7870596,374.398325 56.6920507,380.49238 62.3824537,385.57884 C68.071153,390.666816 73.7360003,395.792671 79.4229959,400.888222 C83.4165003,404.465563 87.4134122,408.041388 92.7664799,408.430789 C95.8382753,410.438403 99.1656277,410.006577 102.486165,409.852029 C110.99451,409.459597 119.501152,409.10656 128.011201,408.812615 C137.100512,408.497457 146.193231,408.341394 155.279135,407.985326 C167.395945,407.50956 179.512755,406.908033 191.627862,406.350447 C194.805288,406.442873 197.773157,406.54439 200.741025,406.636816 C209.830337,406.92167 218.924759,407.00349 228.014071,407.244403 C236.52412,407.470165 245.035872,407.755019 253.544217,408.079268 C256.868162,408.206543 260.195515,408.612611 263.258792,406.580754 C268.605044,406.147413 272.584919,402.539768 276.554572,398.930609 C282.207493,393.788087 287.843377,388.618292 293.503113,383.484861 C299.161146,378.352946 304.030359,372.216465 309.434538,366.79515 C314.043083,362.169305 317.597029,356.570714 321.750683,351.547891 C322.534391,350.599388 323.064246,349.372092 323.709953,348.273586 C324.195512,347.450844 324.54818,346.438703 325.187073,345.838692 C328.216275,342.997729 329.630358,338.964319 331.364738,335.156671 C332.228521,333.259665 333.175785,331.411145 333.998679,329.489896 C336.866029,322.785224 339.518711,315.997216 341.152572,308.707684 C341.898798,305.378832 343.208954,302.221197 344.183478,298.952953 C344.55148,297.716566 344.609407,296.358964 344.950149,295.107425 C346.190453,290.531581 346.996309,285.789067 349.023728,281.514743 C349.34573,280.831397 349.200914,279.875318 349.395138,279.082879 C351.129518,272.063048 352.785528,265.028066 353.044492,257.671866 C354.959466,251.253562 354.286499,244.497373 354.986725,237.921491 C354.81465,231.627432 354.610205,225.834898 354.451759,220.040848 Z" id="Shape"></path>
        </g>
    </g>
</svg>