<?xml version="1.0" encoding="UTF-8"?>
<svg width="325px" height="359px" viewBox="0 0 325 359" version="1.1" xmlns="http://www.w3.org/2000/svg" xmlns:xlink="http://www.w3.org/1999/xlink">
    <!-- Generator: Sketch 51.3 (57544) - http://www.bohemiancoding.com/sketch -->
    <title>b14</title>
    <desc>Created with Sketch.</desc>
    <defs></defs>
    <g id="Page-1" stroke="none" stroke-width="1" fill="none" fill-rule="evenodd">
        <g id="b14" fill-rule="nonzero">
            <g id="Group" fill="#F3F3F3">
                <path d="M0.722656271,138.054421 C0.333714551,132.097636 -0.138469309,126.408289 1.13312613,120.718942 C2.96732362,112.512397 5.25935287,104.71738 9.70419607,98.4604087 C10.9169479,96.7520764 12.1842377,95.4487226 13.8447749,94.661689 C17.3782602,92.9904706 20.8385498,92.1903379 24.604539,93.4576694 C28.1538116,94.6551394 31.8293826,95.1419869 35.4647678,95.8023965 C37.5529973,96.1800853 39.169043,97.4801644 40.5784185,99.6316806 C42.3279387,102.3017 44.2310262,104.775235 46.0408251,107.374301 C47.6496948,109.680823 49.3662051,111.645678 51.5850387,112.859521 C52.9671452,113.610533 54.1239239,115.179142 55.3696856,116.407176 C60.0872186,121.050784 65.7720826,120.771338 70.1997033,115.647432 C70.904391,114.830926 71.5229663,113.87033 72.2405709,113.070198 C75.7324351,109.17651 77.1088009,104.168313 77.0327348,97.9233483 C76.883473,85.6080735 77.0356052,73.2851576 77.0600037,60.9633333 C77.0700502,55.6593163 77.2336641,50.3422002 77.0241235,45.0501906 C76.8045365,39.4809182 75.5142833,34.206374 73.9197658,29.1119415 C72.6955323,25.2117042 71.5200958,21.2667119 70.1064147,17.5018313 C68.2808284,12.6388151 66.2356552,7.93517042 64.2062692,2.96954508 C64.478959,1.88450847 65.342955,2.20870955 66.0404667,2.20543479 C70.9374009,2.16613769 75.8328998,2.20325162 80.7283987,2.16286293 C82.2324981,2.15085548 83.6677074,2.13557328 85.0813885,0.768907434 C85.962607,-0.0803465801 87.416474,0.0626512037 88.616309,0.0506437562 C94.5853445,-0.0137598258 100.552945,0.016804586 106.52198,0.016804586 C115.856582,0.0200793444 125.191183,-0.0377747208 134.525784,0.0440942394 C140.479032,0.0997651324 146.425104,0.0495521701 152.389834,0.649924545 C159.548658,1.37146298 166.75915,1.086559 173.952419,1.14441306 C185.574744,1.23938106 197.198504,1.22737361 208.825134,1.32234161 C216.626932,1.38347043 224.42873,1.53629249 232.230528,1.68256503 C234.219728,1.71967896 236.207493,1.80809744 238.190952,2.02204832 C238.904251,2.09845935 239.593151,2.61259642 240.330849,2.94225543 C240.478675,6.05655068 239.55153,8.56610721 238.951613,11.1695401 C236.988246,19.6904615 234.964601,28.1830017 233.037115,36.7235716 C232.48743,39.1567171 232.115711,41.683739 231.80427,44.2020282 C231.304818,48.2463548 231.268937,52.2295527 232.582154,56.1134161 C233.229433,58.0236919 233.668607,60.1260868 233.945603,62.2088331 C234.904323,69.3314327 237.387235,75.4006516 240.534649,80.9710156 C242.710426,84.8221315 244.975186,88.6143018 247.458098,92.0779046 C250.045781,95.6812304 252.907588,98.9112338 255.723469,102.181626 C256.396582,102.96211 257.339514,103.624703 258.192029,103.709846 C260.870129,103.988201 263.156418,105.82534 265.561828,107.095947 C271.520817,110.237532 277.550132,111.487398 283.956906,110.819347 C288.885415,110.30521 293.545539,108.208273 298.380759,107.39395 C301.697528,106.831783 305.076011,106.838332 308.425789,106.89837 C309.400296,106.916927 310.491056,107.766181 311.30769,108.639449 C314.350333,111.900017 317.193483,115.472779 319.145368,120.188431 C320.442797,123.331107 321.882312,126.38864 322.977376,129.662307 C325.344037,136.743426 325.852101,143.960994 323.323262,151.274621 C321.398646,156.843893 319.71084,162.575812 317.68863,168.076315 C311.686585,184.391161 305.519491,200.590299 299.521751,216.910604 C295.256309,228.509798 290.352199,239.549008 285.251465,250.451771 C281.907427,257.594019 278.896358,265.036453 275.767602,272.369729 C275.143286,273.831363 274.508923,275.344301 274.138639,276.947841 C271.474891,288.504463 268.168169,299.800197 267.121901,312.009588 C266.613837,317.927076 265.742665,323.781253 265.030801,329.664902 C264.291668,335.770143 263.708973,341.880842 264.402179,348.08651 C264.494033,348.921573 264.458152,349.791567 264.420837,350.640821 C264.317502,352.954984 263.575499,354.113157 261.883387,354.415526 C259.457883,354.847794 257.023768,355.188369 254.591089,355.536585 C238.601422,357.824549 222.570134,359.158468 206.49579,358.984906 C190.585059,358.80916 174.677199,358.349602 158.766469,357.977372 C146.682007,357.693559 134.597545,357.438128 122.515953,357.025508 C108.09784,356.529928 93.8663046,353.927587 79.8471802,349.185737 C78.8095239,348.835338 77.7948309,348.336483 76.7887492,347.828895 C75.1497402,347.000381 73.8465701,345.607517 73.0658163,343.364308 C72.4658988,341.636327 71.7640814,339.970567 71.2359244,338.203289 C68.8907924,330.337319 66.4337141,322.51283 65.1190624,314.141455 C64.7947051,312.080541 64.6511841,309.941032 64.6081278,307.830996 C64.5363674,304.423064 64.6712771,301.006399 64.6066926,297.595193 C64.5736828,295.908692 64.4603013,294.147964 64.0842765,292.564072 C62.4467026,285.702362 60.5852362,278.985832 58.0937128,272.579313 C55.4758911,265.84641 53.3388644,258.774023 51.8936087,251.317399 C51.4257304,248.904993 50.4583994,246.662875 49.5915329,244.440406 C48.9356423,242.765913 47.8448832,241.377415 47.3526064,239.638518 C45.7394312,233.957904 43.0168391,229.47476 40.0545671,225.11824 C37.749621,221.72559 35.7015773,217.987999 33.6219591,214.312629 C32.4881437,212.311751 31.4103015,210.210448 30.5204718,207.98907 C28.1408947,202.053025 26.0469244,195.888838 23.5238264,190.079416 C20.4467377,182.992839 18.2393858,175.163983 14.3313109,168.783662 C13.3438869,167.169206 12.4224825,165.330975 11.1882025,164.201184 C9.539147,162.695886 8.59477928,160.687368 7.8872211,158.28697 C7.07489263,155.52744 5.97695752,152.868337 5.4961624,150.006198 C4.69818603,145.25889 3.10223329,141.278966 0.722656271,138.054421 Z" id="Shape"></path>
            </g>
            <g id="Group" transform="translate(149.000000, 56.000000)" fill="#000000">
                <path d="M7.8289638,0.977044261 L9.11610487,0 L10,1.07546887 L8.71285893,2.05251313 L7.8289638,0.977044261 Z M0,6.92453113 L6.60424469,1.90727682 L7.48938826,2.98274569 L0.883895131,8 L0,6.92453113 Z" id="Shape"></path>
                <path d="M2,10.4228093 L8.63097074,5 L9.429294,6.0469395 L8.48684645,6.81884656 C9.59973664,6.72673664 10.5208789,7.15744781 11.2465133,8.10838542 C11.5623335,8.5222314 11.7791466,8.96202382 11.9019656,9.42516806 C12.022278,9.88960962 12.0323041,10.3021583 11.9295372,10.666706 C11.8280235,11.0299564 11.6425418,11.3763415 11.3755986,11.7084562 C11.2001429,11.9212171 10.8529914,12.2416559 10.3328907,12.6658804 L6.25605304,16 L5.3687487,14.8375988 L9.4017224,11.5385069 C9.85916037,11.1648779 10.1662078,10.8392499 10.3241179,10.5642175 C10.4832812,10.2878877 10.5421842,9.97782757 10.5008268,9.637929 C10.4594694,9.29673311 10.3216114,8.96980776 10.0847462,8.66104493 C9.70751655,8.16546763 9.22877324,7.86189409 8.64976956,7.75162165 C8.07076588,7.64134922 7.35766394,7.93194952 6.50795724,8.62601722 L2.88730434,11.5878052 L2,10.4228093 Z" id="Shape"></path>
                <path d="M8.92796825,14.6910696 L10.006101,15.7056662 C9.60051774,16.1371313 9.39130865,16.6012831 9.37975722,17.0928917 C9.36692231,17.5858079 9.56714697,18.100951 9.98171469,18.6343987 C10.4001329,19.1730763 10.8172676,19.4842541 11.2344023,19.573162 C11.6528205,19.659455 12.0057806,19.5875442 12.2958497,19.3535071 C12.5563984,19.1443119 12.6719126,18.8632059 12.6423923,18.5141114 C12.6192895,18.2709221 12.4396007,17.7675462 12.103326,17.0013688 C11.64897,15.9697751 11.3717359,15.2258248 11.2690566,14.7682103 C11.1689442,14.3105959 11.1869131,13.8869756 11.3293806,13.4934272 C11.4718482,13.0998788 11.7080106,12.7703964 12.0417184,12.5036725 C12.3433388,12.2591757 12.6783301,12.1048942 13.0466921,12.0382133 C13.4137707,11.9715323 13.7757152,11.9924518 14.1350928,12.0983569 C14.40976,12.1741901 14.7139474,12.332394 15.0502222,12.5729684 C15.3864969,12.8148504 15.6945349,13.1155684 15.9730525,13.4751226 C16.3940377,14.0177226 16.6879572,14.5564002 16.8535276,15.0898479 C17.016531,15.6232956 17.0434843,16.0939848 16.9343876,16.4993004 C16.8240073,16.9059235 16.5788604,17.3230064 16.1950965,17.7505491 L15.151618,16.7281076 C15.4622229,16.3947028 15.6175254,16.0233814 15.6200924,15.6167583 C15.6226594,15.2088277 15.446821,14.7773626 15.0938609,14.3210556 C14.6767262,13.7823781 14.2891118,13.4698928 13.9374352,13.3796773 C13.5857585,13.2907694 13.291839,13.3391458 13.0556766,13.5287289 C12.9080751,13.6477087 12.8105297,13.804605 12.764324,13.9954956 C12.7142679,14.1903086 12.7283863,14.4230383 12.8053957,14.6910696 C12.8528849,14.8440436 13.0223058,15.2676638 13.3136583,15.9645452 C13.741061,16.9686821 14.0105942,17.6904054 14.1273919,18.1297153 C14.2429061,18.5690252 14.2416226,18.988723 14.1222579,19.3875013 C14.0028932,19.7875871 13.7461949,20.1445264 13.3534466,20.4609341 C12.9696826,20.7694969 12.5217442,20.9460054 12.0044971,20.9904593 C11.4898171,21.0362208 10.9712866,20.917241 10.4540395,20.636135 C9.93422551,20.3563365 9.46446766,19.9444835 9.04348248,19.4018835 C8.34654665,18.5023442 7.99872049,17.6707934 8.00000398,16.9046161 C7.99872049,16.1384387 8.30804191,15.4010257 8.92796825,14.6910696 Z" id="Shape"></path>
                <path d="M15.1468661,25.0469846 L14.3072841,26 C13.9989905,25.7349229 13.750406,25.4748948 13.5578749,25.2237027 C13.2459257,24.8134642 13.0643615,24.4436185 13.0180565,24.1154278 C12.9717516,23.7859748 13.0144009,23.4918654 13.147223,23.2330996 C13.2812637,22.9718093 13.6772929,22.5754558 14.3316551,22.0389902 L18.040926,19.0032258 L17.4072792,18.1726508 L18.2566096,17.4771388 L18.8902564,18.3064516 L20.486559,17 L22,17.5894811 L19.7481167,19.431136 L20.616944,20.5697055 L19.7676136,21.2652174 L18.8987863,20.1279102 L15.1298064,23.2129032 C14.8190757,23.4678822 14.6338559,23.6521739 14.5741469,23.7645161 C14.5156564,23.8781206 14.4937225,24.000561 14.5095636,24.1343619 C14.5266234,24.2669004 14.5985179,24.4171108 14.7264658,24.584993 C14.8227314,24.7099579 14.9616463,24.8652174 15.1468661,25.0469846 Z" id="Shape"></path>
                <path d="M19.503202,30.9671168 C18.8567386,30.8313422 18.3196035,30.6295486 17.8941735,30.3617362 C17.4675552,30.0939238 17.0872826,29.7401622 16.7569208,29.3016972 C16.2114673,28.5779809 15.9619134,27.8816686 16.004694,27.214006 C16.0486631,26.5450977 16.3338675,25.9945252 16.859119,25.5597971 C17.1669022,25.3044411 17.5043941,25.1449993 17.8692181,25.0827173 C18.2340422,25.0179441 18.584606,25.0416112 18.9173445,25.1512275 C19.250083,25.2620893 19.5685613,25.4339876 19.8727794,25.6656764 C20.0938129,25.8388203 20.3944659,26.1265629 20.7806803,26.5264131 C21.5626158,27.3423068 22.1865005,27.9040901 22.6487694,28.2130086 C22.7973134,28.0959185 22.8923816,28.0211802 22.9315972,27.9887935 C23.3653456,27.6288038 23.5923208,27.2700597 23.6089577,26.9125613 C23.6351015,26.426762 23.4354584,25.9035935 23.0124051,25.3418103 C22.6154956,24.8161505 22.235223,24.5022494 21.8715873,24.3963701 C21.5067633,24.2917364 21.0575662,24.3639835 20.5204312,24.6131113 L19.8395056,23.4035957 C20.361192,23.133292 20.8436629,22.9987629 21.2904832,23.0000086 C21.7361152,23.0000086 22.1960074,23.1532222 22.6665947,23.4621407 C23.137182,23.7698136 23.5887558,24.2070329 24.0153741,24.7725531 C24.4396157,25.3355821 24.7212551,25.8450485 24.8602923,26.3009524 C24.9993294,26.758102 25.0337916,27.1479871 24.9672439,27.4718533 C24.9018846,27.7957195 24.7462105,28.1121118 24.5049751,28.4197847 C24.3504893,28.6078762 24.0379528,28.8968645 23.5649887,29.2892408 L22.1449082,30.4651242 C21.1538227,31.2860005 20.5453866,31.8278535 20.3195997,32.091929 C20.0926245,32.3572502 19.911995,32.6599405 19.7765229,33 L18.8983309,31.8328361 C19.0290496,31.5338827 19.2322578,31.2448944 19.503202,30.9671168 Z M21.8109813,28.9030927 C21.3487125,28.6278064 20.7557249,28.132042 20.0343953,27.4120626 C19.6256022,27.0047386 19.310689,26.7394174 19.0872788,26.6148535 C18.8638687,26.4890439 18.6392702,26.4379727 18.4087299,26.4616399 C18.179378,26.4828158 17.9714164,26.5712561 17.7872219,26.7244698 C17.5032058,26.9598956 17.3510967,27.2688141 17.3308947,27.6499797 C17.3106928,28.0323909 17.4651785,28.4409606 17.7931636,28.8756886 C18.1163953,29.3054342 18.4954796,29.613107 18.9268513,29.8011986 C19.3594114,29.9867988 19.7919715,30.0291505 20.2209665,29.9282538 C20.5513283,29.8497785 20.9518029,29.6155983 21.4223903,29.2269589 L21.8109813,28.9030927 Z" id="Shape"></path>
                <path d="M20.078369,34.2977774 L20.7986315,35.4664586 C20.4886614,35.7664281 20.3407504,36.0735968 20.3497536,36.3891647 C20.3639017,36.8139215 20.5658324,37.2566765 20.9581182,37.7186295 C21.3799863,38.215379 21.8121438,38.5225477 22.2545908,38.6365361 C22.6970378,38.7505245 23.1510604,38.7121284 23.6166587,38.5249475 C23.9009051,38.4061595 24.4153784,38.0689938 25.1626507,37.5110506 C24.1710036,37.4786539 23.3774286,37.1114912 22.783212,36.4107625 C22.0449429,35.5384512 21.8095714,34.6145452 22.0809561,33.6378446 C22.3497683,32.6623438 22.9581329,31.8260289 23.9009051,31.1312995 C24.5504276,30.6525482 25.2411079,30.320182 25.9755184,30.1354008 C26.709929,29.9494198 27.4018955,29.9554192 28.0539903,30.1509993 C28.7060851,30.3465794 29.2694333,30.7257408 29.7453211,31.2860838 C30.3794093,32.0360075 30.5774815,32.8927204 30.3408238,33.8574222 L31.1614086,33.2526838 L32,34.2449828 L26.1195709,38.5801418 C25.0610423,39.3600625 24.2250233,39.8124165 23.6128001,39.9372038 C23.000577,40.0619911 22.3819229,40.0007973 21.7568379,39.7536225 C21.1304668,39.5064476 20.5478258,39.0648925 20.0089151,38.4265575 C19.3671098,37.6694345 19.031416,36.9243103 19.0018338,36.189985 C18.9709654,35.45206 19.3298105,34.823324 20.078369,34.2977774 Z M24.9195621,32.1751934 C24.0269511,32.8339263 23.5150502,33.4782608 23.3864319,34.1105965 C23.2552412,34.7429322 23.4018661,35.3092746 23.8237341,35.8072239 C24.2417436,36.3015736 24.7973747,36.5655468 25.4893412,36.5991434 C26.1800216,36.6327399 26.9607347,36.3291708 27.8314806,35.6872361 C28.6636411,35.0728986 29.1459597,34.4381632 29.2771504,33.7818299 C29.4083411,33.1254967 29.2668609,32.5543548 28.8565685,32.0684042 C28.4514209,31.5896529 27.8996483,31.3376785 27.1999647,31.3076816 C26.498995,31.283684 25.7401469,31.5704549 24.9195621,32.1751934 Z" id="Shape"></path>
                <path d="M27,40.9399252 L33.441272,36 L34.2194858,36.9537128 L33.2415426,37.7029742 C33.8955345,37.5966122 34.3814614,37.5883396 34.694452,37.6840654 C35.0074425,37.7774276 35.2656292,37.9487887 35.4653586,38.1957849 C35.7564276,38.5538704 35.9342355,39.0064999 36,39.5548552 L34.6895805,39.9673035 C34.6372124,39.5879456 34.5044655,39.2676778 34.2937754,39.0088635 C34.1050068,38.7772306 33.8638701,38.6235966 33.5703654,38.5491432 C33.2768606,38.4746898 32.9699594,38.4959622 32.6520974,38.6129604 C32.1686062,38.7925941 31.6948579,39.0596809 31.2332882,39.414221 L27.8598106,42 L27,40.9399252 Z" id="Shape"></path>
                <path d="M34.503202,48.9698593 C33.8555502,48.8341014 33.3184152,48.6323328 32.8929852,48.3645535 C32.4675552,48.0955287 32.0872826,47.7430564 31.7569208,47.3046457 C31.2114673,46.5797733 30.9619134,45.8835471 31.004694,45.2159671 C31.0486631,44.5483871 31.3338675,43.9966372 31.859119,43.5619629 C32.1669022,43.3078839 32.5043941,43.1472163 32.8692181,43.0836966 C33.2340422,43.0189314 33.5834176,43.0425956 33.9173445,43.1521983 C34.250083,43.2642919 34.5685613,43.4361689 34.8727794,43.6678291 C35.0938129,43.8409516 35.3944659,44.1274131 35.7806803,44.5272138 C36.5626158,45.3430066 37.1865005,45.9047204 37.6487694,46.2136007 C37.7973134,46.0965251 37.8923816,46.021796 37.9315972,45.9894134 C38.3653456,45.6294682 38.5923208,45.2707685 38.6089577,44.9133142 C38.6339131,44.4288205 38.4354584,43.9044713 38.0124051,43.3427575 C37.6154956,42.8171628 37.235223,42.5020551 36.8715873,42.3961888 C36.5067633,42.2928136 36.0575662,42.3650517 35.5204312,42.6141487 L34.8395056,41.4047827 C35.3600037,41.1332669 35.8436629,41 36.2892949,41 C36.7361152,41 37.1960074,41.1544402 37.6665947,41.462075 C38.137182,41.7697098 38.5875674,42.2068751 39.0153741,42.7735708 C39.4396157,43.3352846 39.7212551,43.844688 39.8602923,44.301781 C39.9993294,44.7588741 40.0337916,45.1487109 39.9672439,45.4712916 C39.9006962,45.7951177 39.7462105,46.1114709 39.5049751,46.4191057 C39.3504893,46.607174 39.0367644,46.897372 38.5638004,47.2884544 L37.1437199,48.4641923 C36.1538227,49.2837215 35.5453866,49.826753 35.3184114,50.0920414 C35.0926245,50.3573297 34.911995,50.6587371 34.7765229,51 L33.8983309,49.8342259 C34.0290496,49.536555 34.2322578,49.246357 34.503202,48.9698593 Z M36.8109813,46.9060904 C36.3487125,46.6308382 35.7545365,46.1351351 35.0343953,45.4164902 C34.6244139,45.0092166 34.3095006,44.7439283 34.0872788,44.6181343 C33.8638687,44.4935858 33.6392702,44.4412754 33.4087299,44.4649396 C33.179378,44.4873583 32.9714164,44.5757878 32.7872219,44.7289824 C32.5020174,44.9631336 32.3510967,45.2732594 32.3308947,45.6543779 C32.3106928,46.0379873 32.4651785,46.4452609 32.7931636,46.8786897 C33.1163953,47.3096276 33.4954796,47.6172624 33.9268513,47.8040852 C34.3594114,47.9896625 34.7907831,48.0332545 35.2209665,47.9323702 C35.5513283,47.8526591 35.9518029,47.6185079 36.4223903,47.2299166 L36.8109813,46.9060904 Z" id="Shape"></path>
                <path d="M36,52.1589988 L42.6655123,47 L43.4657771,47.9908338 L42.5306646,48.7151419 C43.0209055,48.6670192 43.5023246,48.7361185 43.9749219,48.9224396 C44.4500397,49.1087608 44.8608843,49.4184735 45.2112364,49.8528116 C45.6019169,50.3377402 45.8186815,50.8115635 45.8627906,51.2804513 C45.9081599,51.749339 45.7972571,52.1873788 45.5300821,52.5995064 C46.7260683,52.5143663 47.6574001,52.8833069 48.3265978,53.7112639 C48.8483453,54.3578354 49.0676304,54.9982373 48.9819328,55.6312357 C48.8987556,56.2617663 48.4753085,56.8713203 47.7115912,57.4598978 L43.1355891,61 L42.2483664,59.9005817 L46.447551,56.6516834 C46.8987239,56.3024855 47.1974054,56.0137493 47.3372942,55.7891768 C47.4784432,55.5633704 47.5338946,55.3091839 47.5023881,55.0266173 C47.4708817,54.7452847 47.3549378,54.4762912 47.1495155,54.2221047 C46.7789992,53.7643222 46.3152237,53.5039662 45.7594493,53.4422704 C45.2024146,53.3793407 44.5798464,53.6137846 43.8942653,54.1443681 L40.021488,57.1403138 L39.1292243,56.0347259 L43.4619963,52.6834127 C43.9635796,52.2959633 44.2685624,51.9146836 44.3731639,51.5395734 C44.4802859,51.1644632 44.3681229,50.7733122 44.0354144,50.3624185 C43.7846227,50.0514719 43.4682976,49.8281333 43.0889595,49.6948704 C42.7071009,49.5603737 42.3075986,49.5579059 41.8904527,49.6887009 C41.4733069,49.817028 40.959121,50.1193372 40.3529362,50.5882249 L36.893524,53.2645866 L36,52.1589988 Z" id="Shape"></path>
                <polygon id="Shape" points="43 63.0522862 54.3063017 58 55 58.9411507 43.701052 64"></polygon>
                <path d="M50.5584587,71.9594946 L51.5334099,71.1619036 C50.3737708,71.2411431 49.4440493,70.8202645 48.7404762,69.9018658 C48.4301502,69.4952763 48.2165656,69.0575106 48.0984658,68.5820737 C47.9791097,68.1079358 47.9678023,67.6922532 48.0670563,67.337624 C48.165054,66.9803968 48.3522547,66.6335616 48.627402,66.2945205 C48.8120899,66.0658951 49.1437743,65.7554322 49.6237117,65.3644308 L53.7421267,62 L54.6316441,63.1639112 L50.9441675,66.1737128 C50.3561815,66.6543458 49.9780109,67.0024799 49.8109123,67.2181153 C49.5709437,67.5337742 49.4578694,67.8793103 49.4704332,68.2534247 C49.4829971,68.627539 49.6224553,68.9899622 49.8888079,69.3406944 C50.156417,69.6901275 50.4931269,69.9473311 50.9014506,70.1123051 C51.3097742,70.2772792 51.7093032,70.3019603 52.1038066,70.1850496 C52.4995665,70.0681389 52.9820166,69.7784601 53.5486441,69.3147142 L57.1092263,66.4062352 L58,67.5701464 L51.3524911,73 L50.5584587,71.9594946 Z" id="Shape"></path>
                <path d="M52,74.4241066 L58.6305485,69 L59.4302252,70.0482368 L58.4864061,70.8188466 C59.5994358,70.728034 60.5194401,71.1574478 61.2464189,72.1096827 C61.5622787,72.5222314 61.7791189,72.9620238 61.9019533,73.4264654 C62.0222808,73.8896096 62.0323081,74.3047529 61.9295283,74.666706 C61.828002,75.0299564 61.642497,75.3776389 61.3755203,75.7084562 C61.2012961,75.9225144 60.8528476,76.2416559 60.3339351,76.6671777 L56.2565865,80 L55.3691709,78.8375988 L59.4026501,75.5398042 C59.858892,75.1648779 60.1659779,74.8405472 60.3239078,74.5642175 C60.4830911,74.2878877 60.5407481,73.9778276 60.4993855,73.637929 C60.4605297,73.2967331 60.321401,72.9698078 60.0845062,72.6610449 C59.7059758,72.1641703 59.2284259,71.8618941 58.6480962,71.7503243 C58.0702734,71.6400519 57.3570821,71.9319495 56.5072689,72.6260172 L52.8861621,75.5878052 L52,74.4241066 Z" id="Shape"></path>
                <path d="M65.8277154,74.9770443 L67.1148564,74 L68,75.0754689 L66.7128589,76.0525131 L65.8277154,74.9770443 Z M58,80.9245311 L64.6042447,75.9072768 L65.4881398,76.9827457 L58.8838951,82 L58,80.9245311 Z" id="Shape"></path>
                <path d="M63.1480846,86.0478462 L62.3072841,87 C61.9989905,86.7348113 61.750406,86.4759366 61.5590934,86.2246387 C61.2459257,85.8142276 61.0643615,85.4442262 61.0180565,85.1146345 C60.9717516,84.7850428 61.0144009,84.4920724 61.147223,84.2331977 C61.2812637,83.9730602 61.6772929,83.5752771 62.3328737,83.0385857 L66.040926,80.0028062 L65.4084978,79.1731444 L66.2578282,78.4773397 L66.891475,79.3070015 L68.4877775,78 L70,78.5897292 L67.7493353,80.4321594 L68.616944,81.5712081 L67.7676136,82.2670128 L66.9000049,81.1279641 L63.1298064,84.2142556 C62.8190757,84.4693419 62.6338559,84.6537112 62.5741469,84.7661007 C62.5156564,84.8797531 62.494941,85.0035078 62.5107822,85.1361021 C62.5266234,85.2686965 62.5985179,85.4189701 62.7276844,85.586923 C62.8227314,85.7106777 62.9616463,85.8647397 63.1480846,86.0478462 Z" id="Shape"></path>
                <path d="M69.0040398,84.3567191 C68.8092926,83.7793441 68.7782819,83.2622379 68.9159694,82.8054005 C69.0536569,82.3485631 69.3414362,81.9531999 69.7780669,81.6181055 C70.4354937,81.1118477 71.1772697,80.9165768 71.9996735,81.0322929 C72.8233177,81.1492143 73.5452468,81.5891764 74.1679417,82.35459 C74.791877,83.1236197 75.0660116,83.9167569 74.9866242,84.7376178 C74.9084773,85.559684 74.5388297,86.2214353 73.878922,86.7276931 C73.4596573,87.0507338 73.0069011,87.2231025 72.5231341,87.2484154 C72.0368863,87.2737283 71.5332726,87.1326994 71.0085715,86.8253286 C71.267821,87.5039551 71.3087551,88.1415988 71.1350952,88.7322329 C70.9601948,89.3252778 70.5930281,89.8351517 70.0323546,90.2654708 C69.2583275,90.8585157 68.3912683,91.0947693 67.431177,90.9657941 C66.4723262,90.8392297 65.6387585,90.3402041 64.9317145,89.4723336 C64.2246706,88.6032577 63.9207657,87.6992259 64.0175191,86.7614436 C64.113032,85.8236613 64.5571053,85.0510155 65.3472579,84.4435061 C65.9377017,83.9902849 66.5479923,83.756442 67.181851,83.7419775 C67.8169502,83.7263076 68.4235195,83.9312215 69.0040398,84.3567191 Z M66.2478087,85.5584787 C65.9302591,85.8019646 65.6834139,86.1093354 65.5047923,86.4842072 C65.3274111,86.8590791 65.2728323,87.2520316 65.3447771,87.66427 C65.4179623,88.0765085 65.5866605,88.4489696 65.8583143,88.7828587 C66.277579,89.2987595 66.7948375,89.5928712 67.4100898,89.6663991 C68.0253421,89.739927 68.595939,89.5747906 69.1243613,89.1697843 C69.6589858,88.7587512 69.9616502,88.2464665 70.0286334,87.6317249 C70.0993378,87.0169833 69.9207161,86.4492513 69.4977302,85.928529 C69.0834272,85.4198605 68.5686496,85.1317757 67.9509164,85.0630693 C67.3331832,84.9943628 66.7663076,85.1582939 66.2478087,85.5584787 Z M70.7121092,82.6957113 C70.2841615,83.0235735 70.0435185,83.426169 69.9889397,83.9022924 C69.9356012,84.3796212 70.0819718,84.8328425 70.430532,85.2619562 C70.7679285,85.6778109 71.1797506,85.9164753 71.6672388,85.9755387 C72.1534866,86.0333967 72.5925981,85.9128591 72.9845734,85.6115152 C73.3914338,85.2993229 73.6246342,84.8979328 73.6792131,84.410961 C73.7337919,83.9239892 73.594864,83.4755894 73.2624292,83.0681724 C72.9275137,82.6559339 72.5144511,82.4172696 72.0220012,82.3533846 C71.5283109,82.2894997 71.0916802,82.402805 70.7121092,82.6957113 Z" id="Shape"></path>
                <path d="M74.0287706,99.1248369 L72.9171556,100 L68,93.8058472 C68.2733902,93.5787155 68.5764407,93.4131787 68.9104411,93.3079539 C69.4610903,93.1321513 70.0762183,93.0577239 70.7648522,93.0821053 C71.450907,93.1052035 72.3252399,93.23096 73.3865615,93.464508 C75.0333508,93.8225292 76.2455528,93.9880659 77.0192988,93.9624013 C77.7943343,93.9354535 78.3991457,93.7493851 78.8363122,93.4054794 C79.2928223,93.0461749 79.5520272,92.5765126 79.6061894,92.0041919 C79.6616412,91.4305879 79.4823901,90.8813653 79.0671464,90.3590906 C78.6261112,89.8034518 78.108991,89.4929101 77.5106274,89.4236157 C76.9122639,89.3543212 76.3151899,89.548089 75.7219847,90.0087687 L74.9043931,88.7319545 C75.8548111,88.1147207 76.7717,87.8888722 77.6576392,88.0505592 C78.5422887,88.2135295 79.3366679,88.7422204 80.0446455,89.6327822 C80.7577813,90.5310434 81.072438,91.4395705 80.9860364,92.3570802 C80.9035035,93.2758731 80.4882598,94.0265628 79.7480428,94.6078662 C79.3714865,94.9030092 78.9407679,95.1160254 78.4545975,95.2520478 C77.9684271,95.3855038 77.3829594,95.4304168 76.6994838,95.3919199 C76.0147186,95.3521398 74.9920843,95.1943024 73.6341602,94.9209744 C72.5032015,94.6874265 71.7565366,94.5552537 71.392876,94.523173 C71.0292154,94.489809 70.6939255,94.4923754 70.381848,94.5295891 L74.0287706,99.1248369 Z" id="Shape"></path>
                <path d="M76.1232615,99.2952519 L77.1353085,100.434518 C76.6397375,100.99443 76.3728916,101.555638 76.3372301,102.123327 C76.2991093,102.688423 76.4565115,103.201676 76.8045179,103.666973 C77.2238473,104.226886 77.7784441,104.532763 78.4695382,104.588495 C79.1606322,104.641635 79.8357401,104.394082 80.4973213,103.841946 C81.1257004,103.320917 81.4823148,102.718233 81.5659347,102.044265 C81.6507844,101.370297 81.4675583,100.730027 81.0162567,100.127344 C80.7346543,99.7527727 80.4014043,99.4818893 80.015277,99.3146933 C79.6291498,99.1500895 79.2417928,99.086581 78.8556655,99.1267599 L78.1719496,97.9239856 L83.4719771,95 L87,99.7061134 L85.946143,100.582272 L83.1153627,96.8054574 L80.3190141,98.306333 C81.1207816,98.5616634 81.7553093,99.0023349 82.2238268,99.6283478 C82.843598,100.453959 83.0944577,101.378073 82.9776358,102.398098 C82.8595841,103.418124 82.3750804,104.283914 81.5204357,104.992876 C80.7076008,105.670733 79.8185243,106.005125 78.8532061,105.999941 C77.6702301,105.994756 76.6852366,105.471135 75.8994553,104.420003 C75.2538603,103.559398 74.955042,102.667686 75.0054599,101.742275 C75.0521887,100.816865 75.4260189,100.001623 76.1232615,99.2952519 Z" id="Shape"></path>
            </g>
            <g id="Group" transform="translate(97.000000, 235.000000)" fill="#000000">
                <path d="M8.0486981,84.640512 L9,85.5788439 C8.73019001,85.9161616 8.46544687,86.1878897 8.21083744,86.3967053 C7.79282196,86.7393772 7.41914145,86.9321301 7.08599578,86.9829955 C6.75285011,87.0298452 6.45770584,86.9803184 6.19802956,86.8290609 C5.93835327,86.6778034 5.54187192,86.238755 5.0085855,85.5092387 L1.98874032,81.3837906 L1.14637579,82.0744886 L0.454750176,81.1281253 L1.29838142,80.4374273 L0,78.662494 L0.609289233,77 L2.44095707,79.5044495 L3.59873329,78.5607633 L4.2903589,79.5044495 L3.13258269,80.4481357 L6.2018297,84.6418505 C6.45517241,84.9898767 6.63884588,85.1960152 6.75158339,85.2616048 C6.86558761,85.3271943 6.98972555,85.352627 7.12273047,85.3379028 C7.2557354,85.3191629 7.40900774,85.2442034 7.57874736,85.1023159 C7.70668543,84.9965695 7.8624912,84.8426348 8.0486981,84.640512 Z" id="Shape"></path>
                <path d="M12.2448564,84 L4,78.1421995 L5.33896924,77.1038363 L9.96333265,80.5870077 L11.6830312,81.8817391 C11.6402526,81.7872123 11.3664697,81.1541688 10.8602567,79.9940665 L8.6186596,74.5559079 L9.94907313,73.5204092 L14.5192504,77.0809207 L16.0293339,78.2524808 L15.3291913,76.4321228 L13.2230597,70.9796419 L14.4807496,70 L18,79.5271611 L16.653901,80.5726854 L11.9026278,76.9219437 L10.6021593,75.842046 L13.5980851,82.9444501 L12.2448564,84 Z" id="Shape"></path>
                <path d="M14.0964674,67.5902692 L13,66.038775 L14.232337,65 L15.330163,66.5485305 L14.0964674,67.5902692 Z M20.767663,77 L15.138587,69.0617436 L16.3722826,68.0229686 L22,75.9582613 L20.767663,77 Z" id="Shape"></path>
                <path d="M25.0476995,70.640512 L26,71.5788439 C25.7277332,71.9161616 25.4655973,72.1878897 25.2097932,72.3967053 C24.7918953,72.7367001 24.4170536,72.9321301 24.085268,72.9829955 C23.7522161,73.0298452 23.4584213,72.9803184 23.1975517,72.8290609 C22.9379485,72.6778034 22.5403124,72.238755 22.0084424,71.5092387 L18.9919797,67.3837906 L18.1473195,68.0744886 L17.4558886,67.1281253 L18.2992824,66.4401044 L17,64.662494 L17.6103841,63 L19.4428029,65.5044495 L20.5977206,64.5607633 L21.2891515,65.5044495 L20.1329675,66.4481357 L23.2000844,70.6418505 C23.4533558,70.9898767 23.638244,71.1960152 23.7496834,71.2642819 C23.8636556,71.3298714 23.9877585,71.352627 24.1219924,71.3379028 C24.2549599,71.3191629 24.4081891,71.2442034 24.5791473,71.104993 C24.705783,70.9965695 24.861545,70.845312 25.0476995,70.640512 Z" id="Shape"></path>
                <path d="M29.0476995,67.640512 L30,68.5788439 C29.7289996,68.9161616 29.4655973,69.1878897 29.2097932,69.3967053 C28.7931617,69.7367001 28.41832,69.9321301 28.085268,69.9829955 C27.7534825,70.0298452 27.4571549,69.9803184 27.1975517,69.8290609 C26.9379485,69.6778034 26.5403124,69.238755 26.007176,68.5092387 L22.9907134,64.3837906 L22.1473195,65.0744886 L21.4558886,64.1281253 L22.298016,63.4374273 L21,61.662494 L21.6091178,60 L23.4415365,62.5044495 L24.5977206,61.5607633 L25.2891515,62.5044495 L24.1329675,63.4481357 L27.2000844,67.6418505 C27.4546222,67.9898767 27.638244,68.1933381 27.7509498,68.2616048 C27.8649219,68.3298714 27.9877585,68.352627 28.1219924,68.3379028 C28.2549599,68.3191629 28.4081891,68.2442034 28.577881,68.104993 C28.705783,67.9952309 28.861545,67.8439734 29.0476995,67.640512 Z" id="Shape"></path>
                <path d="M34.3233163,62.237157 L35.6635318,61.4515629 C36.0237066,62.3055256 36.0941755,63.127239 35.8775487,63.915413 C35.6622268,64.706167 35.1467593,65.4117828 34.3350611,66.0322602 C33.311956,66.8152744 32.2575313,67.1209982 31.1717871,66.9571715 C30.0860428,66.7933448 29.1046971,66.1483579 28.2251399,65.0273706 C27.3155681,63.8638141 26.9136339,62.729927 27.0154225,61.6257093 C27.118516,60.5202017 27.6535582,59.6004503 28.6192442,58.8612953 C29.5549156,58.1453597 30.5636659,57.8757552 31.6481051,58.0524816 C32.7325444,58.229208 33.720415,58.8883847 34.6117171,60.0274317 C34.6678313,60.0983802 34.7448251,60.2041581 34.8505286,60.3473452 L29.6371294,64.3307846 C30.2739601,65.05704 30.9460253,65.4698316 31.6533251,65.5756095 C32.3593198,65.6813873 33.0039804,65.5098208 33.587307,65.0647798 C34.0205607,64.7345465 34.3037416,64.3372345 34.4342397,63.8754238 C34.5660427,63.4136132 34.5295033,62.8692442 34.3233163,62.237157 Z M28.9494044,63.3181551 L32.8539076,60.3331555 C32.34627,59.7939464 31.8555971,59.4714529 31.383194,59.368255 C30.6510996,59.2070083 29.9868643,59.3553553 29.386573,59.812006 C28.8410909,60.2299576 28.5252855,60.7588469 28.4365468,61.4038338 C28.3478081,62.0462408 28.5187606,62.683488 28.9494044,63.3181551 Z" id="Shape"></path>
                <path d="M39.7425233,61 L34,53.7941374 L35.1313131,52.945677 L36.003367,54.0388598 C35.8841355,53.3114159 35.8827491,52.7762539 35.9978214,52.4293398 C36.1128936,52.0824257 36.3166964,51.7987092 36.6092296,51.5781901 C37.0348584,51.2608579 37.5700139,51.068576 38.2174688,51 L38.6874629,52.457577 C38.2396514,52.5127067 37.8597742,52.6538927 37.5533769,52.8851688 C37.2788671,53.0922415 37.0944742,53.3584779 37.0043573,53.6838779 C36.9142404,54.0092779 36.9336502,54.345435 37.0681323,54.7031061 C37.271935,55.2409574 37.5824916,55.7693963 37.9928699,56.2843889 L41,60.056071 L39.7425233,61 Z" id="Shape"></path>
                <polygon id="Shape" points="43.0253333 60 38 46.7960673 38.9693333 46 44 59.1982566"></polygon>
                <path d="M54.1688896,48.4779069 C54.1367369,49.0460802 54.0151159,49.5725157 53.7998327,50.0612525 C53.5887433,50.5472965 53.2909815,50.9323618 52.9093432,51.2151021 C52.4913583,51.5274628 51.9908948,51.7146099 51.4051568,51.7698116 C50.8236126,51.8303988 50.2113137,51.7065316 49.5724539,51.4022492 C48.9321961,51.0966204 48.3786108,50.6523143 47.9089021,50.0693308 C47.3329497,49.3490162 46.9457195,48.4859852 46.7472117,47.4788912 C46.5501017,46.4717973 46.593438,45.5751067 46.8688327,44.7888194 C47.1484212,44.0025322 47.5552226,43.410124 48.0906346,43.0115948 C48.5002318,42.705966 48.9727365,42.5201653 49.5109444,42.448807 C50.0477544,42.3774488 50.619513,42.4541925 51.2248222,42.6749992 L50.619513,41.4444058 L51.8818553,40.504631 L54.5225691,45.8174555 C54.8916259,46.5566194 55.1027153,46.9605341 55.1572351,47.0265068 C55.255091,47.1490276 55.3878956,47.2190395 55.5556487,47.2338497 C55.7234019,47.2513526 55.8757776,47.206922 56.0113781,47.1072897 C56.2588139,46.9201426 56.4740971,46.5391164 56.6586255,45.9628648 C56.9032655,45.2008124 56.9382141,44.3983686 56.7606754,43.558226 C56.5845346,42.7153907 56.2364468,41.9708413 55.7164121,41.3245778 C55.109705,40.5665646 54.3422345,40.0118551 53.4126025,39.6550638 C52.4843686,39.2969261 51.4624725,39.2188359 50.3525059,39.4181005 C49.2383456,39.6173651 48.1996741,40.075135 47.2364916,40.7927568 C46.1377086,41.6113572 45.3324936,42.6090265 44.8194487,43.7803791 C44.3078016,44.9544245 44.1722012,46.1904034 44.4168411,47.4883159 C44.6586852,48.7875748 45.2038829,49.9683521 46.056628,51.0266086 C46.9471175,52.1373739 47.9634218,52.9034655 49.1083369,53.3343078 C50.2518541,53.7624574 51.4512889,53.8122735 52.7052435,53.4918345 C53.9591981,53.1713955 55.1628268,52.5789873 56.3147316,51.7226882 C57.5463192,50.8044555 58.4172375,49.837753 58.9302825,48.819888 C59.4405315,47.802023 59.6753859,46.8528235 59.6306518,45.9749822 L60.9069735,45.0244363 C61.0509616,45.6774317 61.0271965,46.4691045 60.8398722,47.3981083 C60.6525479,48.3244193 60.2751034,49.2305346 59.7019468,50.1191469 C59.1287903,51.0037201 58.2746473,51.8694439 57.1423137,52.7136256 C56.0994484,53.4891418 55.0328182,54.0788572 53.9452187,54.4787327 C52.8548234,54.8759155 51.7923869,55.0469061 50.7579093,54.9890116 C49.7206358,54.93381 48.7728307,54.6860756 47.9172897,54.247155 C46.83668,53.6843672 45.8972625,52.9061582 45.1004351,51.9152209 C44.2127415,50.8111874 43.6032385,49.5846331 43.2705281,48.2342117 C42.8567371,46.5795079 42.9182466,45.033861 43.4508627,43.5959247 C43.9834789,42.1593348 44.9997833,40.8789253 46.5067655,39.7587352 C47.6712518,38.8903186 48.9028393,38.3409947 50.2001302,38.1094169 C51.498819,37.8764928 52.7807324,38.0151701 54.0472685,38.5281418 C55.1306741,38.9711016 56.0421328,39.6537174 56.7802466,40.5719501 C57.8342954,41.8860192 58.2900247,43.4074312 58.1488325,45.1415716 C58.0272115,46.692604 57.4582488,47.8478 56.4433424,48.6031204 C56.1204176,48.8441229 55.818462,48.9922249 55.5430672,49.0447338 C55.2662746,49.0999355 55.0090531,49.0730079 54.7728008,48.9652973 C54.621823,48.893939 54.4205192,48.7337195 54.1688896,48.4779069 Z M49.2788859,49.1793721 C49.7779515,49.8014007 50.3175574,50.1676167 50.8991015,50.2834055 C51.4806457,50.4005408 51.9713236,50.3116796 52.3641455,50.0181682 C52.6269587,49.8229428 52.8450378,49.5415489 53.0141889,49.1699474 C53.1833399,48.802385 53.2811959,48.3701963 53.3077568,47.8733812 C53.3343178,47.3765662 53.2462474,46.8353205 53.0463416,46.2496442 C52.8464357,45.6639679 52.5612554,45.1415716 52.1908006,44.6784161 C51.6959289,44.0631194 51.1535271,43.7022889 50.5635953,43.5999639 C49.9736635,43.4976388 49.4508329,43.6161205 48.9951036,43.9554088 C48.6945459,44.1789083 48.470875,44.4629949 48.3226931,44.8090152 C48.1773071,45.153689 48.1102058,45.5818386 48.1213894,46.0934639 C48.1325729,46.6050891 48.251398,47.1490276 48.4764668,47.727972 C48.7001376,48.30557 48.9685426,48.7902676 49.2788859,49.1793721 Z" id="Shape"></path>
                <path d="M67.8516205,39.4843475 L66.9903359,38.5011121 C67.0638774,39.6619804 66.5929287,40.5876727 65.5803182,41.280691 C65.1334119,41.5859193 64.6497348,41.7948255 64.1307012,41.9099116 C63.6102534,42.0224958 63.1562758,42.0300014 62.7687684,41.9299265 C62.3798468,41.8298517 62.0022392,41.6384586 61.6345315,41.358249 C61.3884502,41.1706086 61.0532705,40.8353579 60.6289923,40.3512459 L57,36.2006416 L58.2855628,35.3224849 L61.534119,39.0377635 C62.0531526,39.6319579 62.4279316,40.0134932 62.6598704,40.1836205 C63.0021214,40.4275529 63.3783147,40.5451409 63.7898645,40.5351334 C64.2,40.5276278 64.5974072,40.3912758 64.9835003,40.1273284 C65.3681791,39.8646319 65.6538598,39.5306321 65.8377136,39.1240781 C66.024396,38.7187749 66.0526812,38.3172246 65.9310548,37.920678 C65.8080141,37.5253824 65.4968768,37.0387685 64.9962286,36.4683418 L61.8579847,32.8769058 L63.1421332,32 L69,38.7000109 L67.8516205,39.4843475 Z" id="Shape"></path>
                <path d="M69.8509361,37 L64,30.3180017 L65.1529495,29.5295358 L65.9851643,30.4789385 C65.8975627,29.3648563 66.3793712,28.4503856 67.429177,27.734279 C67.8855528,27.4236334 68.3673614,27.209051 68.8774285,27.0917792 C69.3860827,26.9757549 69.8396326,26.969517 70.2352526,27.0743131 C70.6294596,27.1791092 71.0081243,27.3674927 71.3670081,27.6394635 C71.5987284,27.8178664 71.9420699,28.1684342 72.4012716,28.6924147 L76,32.8006709 L74.7170611,33.6777144 L71.1578947,29.6118756 C70.7523843,29.1502738 70.4019781,28.8396282 70.1010244,28.6786914 C69.8000706,28.5177545 69.4652066,28.4553759 69.0907806,28.4940507 C68.7163546,28.5327254 68.3588838,28.6674632 68.0169551,28.8995117 C67.4701519,29.2737835 67.133875,29.747861 67.0038856,30.3254871 C66.8753091,30.9031132 67.1861533,31.6192198 67.9350053,32.4750545 L71.132462,36.1266992 L69.8509361,37 Z" id="Shape"></path>
                <path d="M71.0976604,23.156887 L70,21.8659666 L71.2335094,21 L72.3311698,22.289685 L71.0976604,23.156887 Z M77.7678491,31 L72.1409811,24.3835701 L73.3731321,23.5163681 L79,30.1340334 L77.7678491,31 Z" id="Shape"></path>
                <path d="M83.0476995,26.6416884 L84,27.5801649 C83.7289996,27.9161956 83.4655973,28.1893043 83.2097932,28.3981522 C82.7931617,28.7381993 82.41832,28.9336594 82.085268,28.9818551 C81.7534825,29.0313895 81.4571549,28.9791775 81.1975517,28.8292355 C80.9379485,28.6792935 80.5403124,28.2388388 80.0084424,27.5092101 L76.9919797,23.3844656 L76.1473195,24.0725924 L75.4558886,23.1287609 L76.2992824,22.4379565 L75,20.66275 L75.6103841,19 L77.4415365,21.5048351 L78.5977206,20.5583261 L79.2891515,21.5048351 L78.1342339,22.4486667 L81.2000844,26.6430272 C81.4546222,26.9897681 81.638244,27.1945996 81.7509498,27.2628768 C81.8649219,27.3284764 81.9877585,27.3525743 82.1219924,27.3365091 C82.2549599,27.3204438 82.4081891,27.2427953 82.5791473,27.1035634 C82.7070494,26.9978007 82.8628113,26.8438424 83.0476995,26.6416884 Z" id="Shape"></path>
                <path d="M83.0113457,21.0669802 C82.3146577,21.2897239 81.6902402,21.3173848 81.1424295,21.1499631 C80.5931734,20.9839972 80.120524,20.6404188 79.7230361,20.1206835 C79.1217452,19.3388969 78.8962611,18.4624806 79.043693,17.4928904 C79.1940157,16.5233003 79.7331539,15.6789125 80.6611077,14.9539037 C81.5948431,14.2288948 82.5560413,13.915889 83.5418115,14.0192537 C84.5304725,14.1211626 85.324003,14.5651941 85.9238485,15.3484366 C86.3083278,15.8477901 86.5106853,16.3835396 86.5352573,16.9556851 C86.5583838,17.5278306 86.3834891,18.1218138 86.0076823,18.7347228 C86.8286757,18.4391871 87.5961888,18.3984236 88.3073309,18.6109763 C89.0184731,18.8235291 89.6284364,19.2617373 90.1401119,19.9285125 C90.8469178,20.848604 91.1172096,21.874972 90.9538782,23.0032488 C90.7876559,24.1329814 90.1776926,25.1083949 89.1225427,25.9309451 C88.0673927,26.7505836 86.9746622,27.1014413 85.8443509,26.9747831 C84.7169305,26.8481249 83.7904221,26.316743 83.0691621,25.3762696 C82.5314693,24.6760101 82.2568412,23.9510013 82.2481688,23.2056107 C82.2366055,22.46022 82.4909978,21.7468579 83.0113457,21.0669802 Z M84.4220666,24.3338875 C84.7125942,24.7109503 85.081174,25.006486 85.5278059,25.2204947 C85.9773287,25.4345033 86.449978,25.501472 86.9486448,25.4243124 C87.4458661,25.3442411 87.8968343,25.1491584 88.3001039,24.8332409 C88.930303,24.3455342 89.2902103,23.7384485 89.3870528,23.0163513 C89.4824499,22.2913425 89.2902103,21.6143764 88.8103339,20.9883648 C88.3217851,20.3507064 87.70604,19.9896578 86.9674351,19.9008515 C86.2288302,19.8120452 85.54226,20.0129513 84.9106155,20.5050255 C84.2919797,20.9854531 83.9392994,21.5910829 83.849684,22.3175476 C83.7600685,23.0440123 83.9494173,23.7180667 84.4220666,24.3338875 Z M81.0296874,19.0331702 C81.4213938,19.5427146 81.9027156,19.8309711 82.4765437,19.9023073 C83.0489264,19.9707319 83.5981825,19.8033102 84.117085,19.3971305 C84.6229788,19.0025976 84.9149517,18.5207142 84.9915585,17.9485687 C85.0681653,17.3764231 84.9279604,16.8566879 84.570944,16.3937304 C84.198028,15.9089354 83.7181516,15.6308697 83.1327602,15.5595335 C82.5473688,15.4881973 82.0053398,15.646884 81.5095638,16.0326819 C81.0094517,16.4228473 80.7174787,16.9061865 80.6365357,17.4870671 C80.5527019,18.0679476 80.6827888,18.5818595 81.0296874,19.0331702 Z" id="Shape"></path>
                <path d="M98.0636829,14.5784078 L99,15.7823701 L92.2096175,21 C91.9665084,20.7059129 91.7886915,20.3773085 91.6789452,20.0155676 C91.4941823,19.4232513 91.4191658,18.7591391 91.4538957,18.0204696 C91.4886255,17.2818001 91.6372693,16.3443112 91.9012163,15.2066221 C92.3096395,13.4393381 92.5041267,12.1373468 92.4818996,11.3047903 C92.4610617,10.4722339 92.2679636,9.81916719 91.8970487,9.3455903 C91.5108526,8.84854167 91.0051859,8.56688078 90.3828267,8.49922694 C89.7618568,8.43295379 89.1617248,8.62072772 88.5879875,9.06254872 C87.9795203,9.52922216 87.6350001,10.0842598 87.5530376,10.7262809 C87.4710751,11.3683021 87.6752867,12.0103232 88.1684508,12.6551058 L86.7695319,13.5180374 C86.1096646,12.4894229 85.8748907,11.4994677 86.062432,10.5509332 C86.248584,9.60239876 86.8320457,8.75327402 87.8072602,8.00217831 C88.7935883,7.24555984 89.7840839,6.91695547 90.7829147,7.01774588 C91.7789672,7.11991699 92.5916459,7.57278352 93.2153943,8.37634547 C93.5335198,8.78364921 93.7627369,9.25032265 93.9002671,9.7736044 C94.0391866,10.2982668 94.0836408,10.9278618 94.0336298,11.6637699 C93.9822296,12.399678 93.8002451,13.4973271 93.484898,14.9553364 C93.2195618,16.1689634 93.0667504,16.9711447 93.027853,17.3604995 C92.9889556,17.7498542 92.9861772,18.1129759 93.0236854,18.4484837 L98.0636829,14.5784078 Z" id="Shape"></path>
                <path d="M97.6178443,12.6596324 L98.8780279,11.4933322 C99.4861973,12.0779081 100.097195,12.3944345 100.718094,12.4443373 C101.338992,12.4942402 101.904731,12.3174416 102.416725,11.9196448 C103.036209,11.4377262 103.379896,10.7946927 103.447784,9.98911863 C103.515673,9.18639614 103.249776,8.3965058 102.654336,7.61944761 C102.088597,6.88088589 101.436582,6.46027641 100.696879,6.351916 C99.9585893,6.24640718 99.2556587,6.45172164 98.5909154,6.97213676 C98.1765116,7.29579218 97.8752556,7.68075679 97.6871474,8.12988216 C97.5004535,8.57758174 97.4269074,9.02955871 97.4679235,9.47868408 L96.14268,10.2600197 L93,4.05496052 L98.2005555,0 L99.1509969,1.23758992 L94.9772577,4.49125374 L96.5881994,7.76345289 C96.8753119,6.83383466 97.3660905,6.09812452 98.056292,5.56059987 C98.9699605,4.85055404 99.9840476,4.56824666 101.099968,4.71652932 C102.217302,4.86481199 103.159258,5.43940731 103.928663,6.44174108 C104.661295,7.39559782 105.01771,8.43500226 104.999324,9.56138018 C104.982351,10.9372722 104.393983,12.0779081 103.232804,12.981862 C102.283776,13.7232753 101.300805,14.0597629 100.288132,13.9913247 C99.2726308,13.9243124 98.3830063,13.4808902 97.6178443,12.6596324 Z" id="Shape"></path>
            </g>
        </g>
    </g>
</svg>