<?xml version="1.0" encoding="UTF-8"?>
<svg width="347px" height="389px" viewBox="0 0 347 389" version="1.1" xmlns="http://www.w3.org/2000/svg" xmlns:xlink="http://www.w3.org/1999/xlink">
    <!-- Generator: Sketch 51.3 (57544) - http://www.bohemiancoding.com/sketch -->
    <title>b15</title>
    <desc>Created with Sketch.</desc>
    <defs></defs>
    <g id="Page-1" stroke="none" stroke-width="1" fill="none" fill-rule="evenodd">
        <g id="b15" fill-rule="nonzero">
            <g id="Group">
                <path d="M9.39963074,68.8050152 C10.1714405,71.8151209 10.8475459,74.5785526 11.5915705,77.3101553 C11.9805627,78.7401829 12.3031791,80.2952526 12.9700228,81.4842899 C16.0263895,86.9429484 19.0210115,92.4516238 22.5728801,97.4214811 C25.6091798,101.668367 28.8801097,105.484427 32.4582198,108.835557 C34.7674747,110.997649 37.2635075,112.80394 39.6530306,114.820529 C40.8431613,115.82655 42.0595335,116.81893 43.124631,118.036386 C45.4400604,120.681596 45.4061007,122.656125 43.1385236,125.169472 C42.6445653,125.717384 42.1181911,126.214143 41.6026221,126.727952 C40.2612167,128.06704 38.8719591,129.329966 37.5845804,130.75431 C32.9259365,135.912867 28.2935342,141.112347 23.6703936,146.332289 C22.4910683,147.662283 21.3225483,149.0332 20.272887,150.535979 C17.813901,154.053074 15.3888747,157.612228 13.0240495,161.237314 C6.46675356,171.283883 1.9964313,182.645668 0.284557197,195.893316 C-0.214031923,199.748025 -0.00564328122,203.395846 0.509925654,207.092547 C0.886568828,209.779816 1.64757327,212.37842 1.95166633,215.07592 C2.26347748,217.847309 3.34246756,219.818428 4.88917436,221.473531 C8.40399612,225.239574 11.914187,229.013573 15.4737737,232.704591 C22.654692,240.153693 31.053526,243.951564 39.7657148,246.740004 C43.1524162,247.821051 46.5962314,248.599722 49.9721274,249.745563 C52.0868862,250.463987 54.1213768,251.599597 56.1882834,252.566969 C57.4648568,253.166034 57.9325735,254.524447 57.9588151,256.185234 C57.9742513,257.204896 57.8384127,258.227968 57.8106276,259.252177 C57.7272721,261.982643 57.4910983,264.731297 57.6439167,267.440165 C57.8013659,270.212691 57.7010306,272.865858 57.2904278,275.600871 C56.2716389,282.356558 55.7653317,289.130432 56.9600932,296.012298 C57.5374069,299.335009 57.7396211,302.80095 57.8692851,306.219148 C58.287606,317.251277 60.1445804,327.907142 62.4553789,338.449332 C63.0666522,341.236636 64.1610785,343.84888 64.6735602,346.657782 C65.4746987,351.046761 66.9071777,355.036743 68.4446228,358.998306 C68.7981117,359.914524 69.0790504,360.878485 69.409385,361.808344 C72.1168937,369.410907 75.1948711,376.740651 78.5275458,383.885105 C79.7161328,386.426871 81.4002218,387.686387 83.6600808,387.789831 C88.4344962,388.012633 93.2089115,388.463922 97.9833268,388.565092 C108.061619,388.77539 118.142998,388.769707 128.22129,388.945902 C144.384531,389.231226 160.523074,388.340016 176.661616,387.396516 C191.120701,386.54964 205.575154,385.499286 220.041957,385.004801 C238.511365,384.371633 256.990035,384.14883 275.46253,383.864644 C282.180362,383.758926 288.899738,384.043113 295.620658,384.024925 C303.632044,384.004464 311.646516,383.864644 319.659445,383.746422 C320.670516,383.730508 321.684674,383.555449 322.811517,383.442911 C323.211314,381.805995 323.553998,380.340728 323.921379,378.892513 C324.616008,376.131355 325.216476,373.316769 326.043856,370.624953 C331.824711,351.761775 335.534029,332.204045 337.310735,311.985865 C337.415701,310.799101 337.505231,309.575962 337.796975,308.460813 C340.110861,299.630563 340.848711,290.436554 341.583474,281.219811 C341.936963,276.801276 340.856429,273.148908 338.92073,269.770496 C333.212425,259.804636 327.607543,249.731922 320.891254,240.863023 C317.228245,236.027302 313.860067,230.776668 309.531758,226.910592 C305.462776,223.283232 301.631513,219.164799 297.090184,216.512768 C296.074482,215.918249 294.929116,215.315774 294.581802,213.436731 C295.541933,211.305331 297.202868,210.235652 298.658501,208.901111 C306.85049,201.408812 315.054828,193.947206 323.279233,186.520838 C331.145519,179.417307 337.738318,170.482477 344.084138,161.196391 C346.816345,157.200726 347.552651,152.341133 346.609499,147.262148 C345.464134,141.096433 343.000517,135.959474 338.926905,132.301422 C336.015638,129.689178 333.050345,127.325881 329.563309,126.338048 C324.137486,124.801166 318.728643,123.15061 313.287384,121.719446 C305.056804,119.556216 296.816963,117.457782 288.560142,115.490073 C284.367671,114.492009 280.127348,113.854294 275.911723,113.008554 C275.331322,112.892606 274.57958,113.035836 274.270856,111.688791 C274.454546,111.264785 274.641324,110.62707 274.960854,110.145089 C278.105207,105.375299 281.374593,100.738509 284.415524,95.8516337 C289.51873,87.6579622 294.487641,79.3153768 299.499774,71.0205348 C301.926344,67.0021346 303.104126,62.3710278 303.315602,57.2465729 C303.405131,55.023096 303.587279,52.7996191 303.821909,50.5943301 C305.543045,34.328619 304.181572,18.4516754 300.459905,2.87028587 C300.240711,1.95179439 299.785344,1.13219989 299.334607,0 C296.290589,0.7832186 293.377779,1.43230107 290.497385,2.29281846 C280.669159,5.23244589 270.780732,7.8344595 260.798144,9.50775091 C251.965553,10.9866586 243.324371,13.7137144 234.550437,15.5484238 C227.290794,17.0659809 220.142292,19.5133969 212.908891,21.2958161 C204.914485,23.2657984 196.884576,24.9822862 188.865472,26.7465173 C178.421342,29.042746 167.986474,31.3935386 157.522277,33.5044775 C147.823715,35.4608189 138.08965,37.0806832 128.380283,38.9472216 C119.694336,40.6182395 111.025369,42.4461285 102.344052,44.1580693 C99.9298311,44.6332295 97.4847377,44.8583054 95.0720603,45.3527903 C89.0905345,46.5793402 83.1229012,47.9161545 77.1444626,49.1654393 C74.8521876,49.6440098 72.5352146,49.9281965 70.2460268,50.4329121 C62.7517538,52.0846053 55.2713734,53.8386057 47.7771004,55.4698375 C44.086306,56.2735176 40.3600084,56.7748229 36.6769321,57.6194259 C29.9374891,59.1631281 23.242811,61.0671792 16.4817573,62.4051302 C13.2679414,63.034888 10.9664046,64.7957089 9.39963074,68.8050152 Z" id="Shape" fill="#FFFFFF"></path>
                <path d="M9.39410656,68.8118356 C10.9593338,64.8025294 13.2624097,63.0417085 16.482394,62.4051302 C23.2434346,61.0671792 29.9380998,59.1631281 36.6775298,57.6194259 C40.360599,56.7748229 44.0868895,56.2723808 47.7776768,55.4698375 C55.2719353,53.8386057 62.7523013,52.0846053 70.2465599,50.4329121 C72.5357433,49.9281965 74.8511682,49.6451465 77.1449824,49.1654393 C83.1234095,47.9172912 89.0910313,46.5804769 95.0725456,45.3527903 C97.4852183,44.8583054 99.930307,44.6332295 102.344523,44.1580693 C111.027367,42.4461285 119.694774,40.6182395 128.380704,38.9472216 C138.090053,37.0795465 147.825643,35.4608189 157.522642,33.5044775 C167.986819,31.3946753 178.421667,29.042746 188.865777,26.7465173 C196.884865,24.9822862 204.914759,23.2646617 212.909149,21.2958161 C220.142536,19.5133969 227.289481,17.0659809 234.550654,15.5484238 C243.32457,13.7137144 251.965736,10.9866586 260.79831,9.50775091 C270.780879,7.83559625 280.669287,5.23358264 290.497493,2.29281846 C293.376338,1.43230107 296.290687,0.7832186 299.334698,0 C299.785435,1.13219989 300.240801,1.95179439 300.459995,2.87028587 C304.181655,18.4516754 305.543124,34.328619 303.821992,50.5943301 C303.587362,52.7996191 303.403672,55.023096 303.315686,57.2465729 C303.10421,62.3710278 301.927974,67.0021346 299.499865,71.0205348 C294.487742,79.3153768 289.517297,87.6579622 284.415644,95.8516337 C281.374719,100.737372 278.105339,105.375299 274.960992,110.145089 C274.641464,110.62707 274.454686,111.264785 274.270996,111.688791 C274.578176,113.035836 275.33146,112.892606 275.91186,113.008554 C280.127477,113.854294 284.369336,114.492009 288.560255,115.490073 C296.81706,117.457782 305.056885,119.556216 313.287449,121.719446 C318.728697,123.15061 324.13753,124.801166 329.563342,126.338048 C333.051916,127.324745 336.017203,129.689178 338.92692,132.301422 C343.000525,135.958337 345.462593,141.095296 346.6095,147.262148 C347.55265,152.341133 346.816345,157.200726 344.084144,161.196391 C337.739879,170.482477 331.145549,179.418444 323.279279,186.520838 C315.05489,193.947206 306.849024,201.408812 298.658594,208.901111 C297.204508,210.235652 295.542033,211.305331 294.581903,213.436731 C294.929217,215.315774 296.07458,215.918249 297.09028,216.512768 C301.630056,219.164799 305.462856,223.283232 309.53183,226.910592 C313.861674,230.776668 317.228302,236.028438 320.891304,240.863023 C327.60758,249.731922 333.210908,259.804636 338.920746,269.770496 C340.856441,273.150045 341.936973,276.802412 341.583485,281.219811 C340.84718,290.435418 340.110874,299.630563 337.796993,308.460813 C337.50525,309.574825 337.41572,310.799101 337.310754,311.985865 C335.535595,332.204045 331.824741,351.761775 326.043896,370.624953 C325.216518,373.316769 324.616051,376.132491 323.921424,378.892513 C323.555586,380.340728 323.21136,381.805995 322.811563,383.442911 C321.684723,383.555449 320.670567,383.730508 319.659498,383.746422 C311.646584,383.864644 303.632127,384.0056 295.620757,384.024925 C288.89985,384.04425 282.180487,383.760063 275.462668,383.864644 C256.988664,384.14883 238.511574,384.371633 220.042201,385.004801 C205.57697,385.500423 191.122544,386.54964 176.661944,387.396516 C160.521889,388.340016 144.383378,389.231226 128.221712,388.945902 C118.143439,388.769707 108.062079,388.77539 97.9838065,388.565092 C93.2094003,388.463922 88.4349942,388.01377 83.6605881,387.789831 C81.402277,387.686387 79.7166477,386.428008 78.5280629,383.885105 C75.1953947,376.740651 72.1189668,369.410907 69.4099197,361.808344 C69.0795857,360.879622 68.7986475,359.914524 68.4451593,358.998306 C66.9077172,355.036743 65.475241,351.046761 64.674104,346.657782 C64.1616233,343.84888 63.0656555,341.236636 62.4559269,338.449332 C60.1451329,327.908279 58.2881621,317.252413 57.869842,306.219148 C57.7401783,302.80095 57.5364209,299.335009 56.9606519,296.012298 C55.7658926,289.130432 56.2721989,282.356558 57.2909858,275.600871 C57.7015878,272.866995 57.8019229,270.213827 57.644474,267.440165 C57.491656,264.731297 57.7278293,261.982643 57.8111846,259.252177 C57.8405133,258.227968 57.974808,257.204896 57.9593718,256.185234 C57.9331303,254.524447 57.4654145,253.167171 56.1888436,252.566969 C54.121941,251.59846 52.0859107,250.46285 49.9726996,249.745563 C46.5968101,248.599722 43.1530014,247.822187 39.7663066,246.740004 C31.052591,243.951564 22.6553167,240.153693 15.4744123,232.704591 C11.9148325,229.013573 8.40464832,225.239574 4.88983334,221.473531 C3.34467313,219.818428 2.26414151,217.848446 1.95233096,215.07592 C1.64823849,212.37842 0.887235513,209.779816 0.510593064,207.092547 C-0.00497487782,203.395846 -0.214906734,199.748025 0.285225042,195.893316 C1.99863946,182.645668 6.4674095,171.283883 13.0246928,161.237314 C15.3895134,157.612228 17.8145351,154.053074 20.2735163,150.535979 C21.3231756,149.034336 22.4916933,147.66342 23.6710164,146.332289 C28.2941481,141.113484 32.9265415,135.912867 37.5851764,130.75431 C38.8725526,129.329966 40.2618076,128.06704 41.6032104,126.727952 C42.1172347,126.214143 42.643608,125.717384 43.1391089,125.169472 C45.4066817,122.656125 45.4390976,120.681596 43.1252163,118.036386 C42.0601209,116.81893 40.843751,115.827687 39.6536226,114.820529 C37.2641041,112.80394 34.7665325,110.997649 32.4588257,108.835557 C28.882266,105.484427 25.6097989,101.668367 22.573505,97.4214811 C19.0216432,92.4527605 16.0270271,86.9429484 12.9706662,81.4842899 C12.3038238,80.2952526 11.981208,78.7401829 11.5922166,77.3101553 C10.8435625,74.5865098 10.1659149,71.8230781 9.39410656,68.8118356 Z M88.8919047,177.932716 C88.90271,177.736058 88.9474749,177.05401 88.9798909,176.369689 C89.2052589,171.76018 87.9672784,168.008915 85.2860164,165.056784 C84.494141,164.184899 83.7670976,163.20616 83.0601212,162.216053 C81.7820067,160.430224 80.2522826,159.237776 78.4894725,158.507985 C77.3857866,158.049876 76.2821008,157.572442 75.2077436,157.007479 C73.0991634,155.902561 70.9905831,155.713861 68.7600571,156.392499 C67.5344255,156.766489 66.1297344,157.062043 64.9643039,156.632353 C62.0144526,155.546759 59.0445343,155.990091 56.1085755,156.078757 C52.6678541,156.184474 49.991223,158.565959 48.2762649,162.59459 C47.6433821,164.081455 47.1339886,165.66608 46.6153335,167.231381 C44.3817203,173.9757 45.767888,180.155056 50.3616909,184.251892 C52.6061095,186.251429 54.8042195,188.343044 57.0177657,190.403966 C59.7607724,192.955962 62.5176716,195.457942 65.5817505,197.32107 C69.1567666,199.492257 72.6299039,199.458155 75.8498881,196.418493 C77.2653845,195.082816 78.6392033,194.368939 80.3788592,194.085889 C85.3585663,193.275388 88.6927782,188.162301 88.8903611,181.504374 C88.9181462,180.477892 88.8919047,179.449136 88.8919047,177.932716 Z M259.402881,184.896427 C259.402881,184.920299 259.402881,184.945307 259.402881,184.970316 C260.952672,184.970316 262.500919,184.996461 264.04608,184.964632 C268.962498,184.870282 272.806104,180.898488 273.682878,174.519065 C274.084218,171.597625 274.764953,169.172944 276.09092,166.691426 C279.713788,159.905047 277.342793,150.496193 271.455439,147.658873 C270.04303,146.977961 268.416058,146.688091 266.91875,146.825637 C265.007753,147.000696 263.210983,146.542587 261.738373,145.233055 C258.958319,142.756083 255.756858,142.066078 252.6758,140.948656 C247.674482,139.136681 242.582091,143.006168 241.08787,149.616351 C240.1617,153.705229 240.975186,158.128312 239.873044,162.246745 C239.590562,163.305057 239.789688,164.63164 239.896198,165.816131 C240.079888,167.850908 240.34539,169.874317 240.610892,171.895453 C241.212903,176.468586 243.136249,179.79016 246.314556,181.588494 C249.982189,183.660783 253.677607,185.830833 257.859264,184.912342 C258.359396,184.799804 258.887313,184.896427 259.402881,184.896427 Z" id="Shape" fill="#D5DCFF"></path>
                <path d="M89.8876219,178.0558 C89.8876219,179.574836 89.9142036,180.605367 89.882931,181.634759 C89.6827859,188.303033 86.3053376,193.42608 81.2610561,194.237979 C79.5004048,194.521518 78.1072074,195.236626 76.6733556,196.574608 C73.4116162,199.619513 69.8934409,199.653675 66.2720658,197.478742 C63.1666898,195.611261 60.3756041,193.104965 57.5970274,190.549704 C55.354777,188.485226 53.128163,186.390004 50.85464,184.387016 C46.2012668,180.283113 44.797124,174.093096 47.0597016,167.337141 C47.5850824,165.76914 48.1010814,164.181781 48.7421712,162.692351 C50.4793679,158.65677 53.192272,156.271177 56.6760473,156.165277 C59.6500781,156.075319 62.6600725,155.632361 65.6466124,156.719828 C66.8271557,157.150259 68.2500621,156.854195 69.4915871,156.47956 C71.7494738,155.799752 73.8869607,155.988777 76.022884,157.095601 C77.1111729,157.662678 78.2291708,158.139796 79.3471688,158.598696 C81.1328382,159.330885 82.6823989,160.524251 83.9770874,162.313161 C84.6932315,163.304976 85.4312665,164.285404 86.2318469,165.158793 C88.9478782,168.114879 90.2019122,171.873754 89.9736217,176.491215 C89.9439127,177.175578 89.8985673,177.858803 89.8876219,178.0558 Z" id="Shape" fill="#000000"></path>
                <path d="M259.635701,183.771325 C259.121209,183.771325 258.594393,183.67718 258.092224,183.785895 C253.919288,184.692603 250.231577,182.551921 246.571594,180.508746 C243.398376,178.735678 241.479042,175.46077 240.879827,170.951888 C240.614879,168.959148 240.34993,166.964167 240.166623,164.957977 C240.061876,163.790129 239.863165,162.482183 240.143517,161.43874 C241.243361,157.377048 240.433112,153.016108 241.35581,148.985797 C242.846914,142.468483 247.928684,138.653362 252.91957,140.439879 C255.994203,141.541602 259.188986,142.221913 261.963241,144.664084 C263.43278,145.956339 265.225802,146.408012 267.132814,146.234291 C268.628539,146.098677 270.250577,146.384475 271.660041,147.05582 C277.533575,149.853277 279.901165,159.129941 276.285853,165.820975 C274.964192,168.26875 274.283337,170.658245 273.882834,173.538639 C273.007888,179.828435 269.170759,183.743306 264.266135,183.837451 C262.724197,183.868833 261.179179,183.843055 259.632621,183.843055 C259.635701,183.819519 259.635701,183.794862 259.635701,183.771325 Z" id="Shape" fill="#000000"></path>
            </g>
            <g id="Group" transform="translate(99.000000, 57.000000)" fill="#000000">
                <path d="M2.99434762,65 L0,55.7139939 L1.34385304,55.2386618 L1.76354216,56.5417531 C1.89495996,55.9879393 2.14649082,55.4918762 2.51954781,55.0520828 C2.89119171,54.6122895 3.373057,54.2865167 3.96231748,54.077726 C4.61799341,53.8452426 5.2030146,53.7978575 5.71455488,53.9340897 C6.22609515,54.070322 6.65143665,54.3649983 6.98916628,54.816638 C7.34102685,53.4839309 8.07724918,52.6191522 9.20065945,52.2223017 C10.0796043,51.9113367 10.8370231,51.9261446 11.4743287,52.2696868 C12.1116345,52.6117483 12.6005653,53.3136407 12.9439472,54.3738831 L15,60.7486647 L13.5063589,61.2773052 L11.6198775,55.4282024 C11.4163919,54.7988685 11.2227979,54.3635175 11.0362694,54.1206688 C10.849741,53.8778199 10.6010363,53.7178951 10.2901554,53.6394134 C9.97927461,53.5609318 9.65143665,53.5816629 9.30805464,53.704568 C8.68487988,53.9252051 8.23692887,54.3250172 7.9656147,54.905485 C7.69430052,55.485953 7.71267075,56.2544806 8.02072539,57.2095874 L9.76024494,62.6040891 L8.2581253,63.135691 L6.31229393,57.10149 C6.08619877,56.4025592 5.79510128,55.921304 5.43758832,55.6577241 C5.08007536,55.3941443 4.62364578,55.361567 4.06688649,55.5585114 C3.64437117,55.7080708 3.2910975,55.9627659 3.00706547,56.3225968 C2.72303344,56.6839084 2.5732454,57.1162979 2.55770136,57.6227265 C2.54074423,58.1276744 2.66933584,58.8043934 2.94206312,59.6499219 L4.49505417,64.4669172 L2.99434762,65 Z" id="Shape"></path>
                <path d="M22.6783284,57.598537 L22.2465639,56.2572759 C21.9008747,57.5286342 21.1470221,58.3718374 19.9836179,58.7839731 C19.4699431,58.9660118 18.9562682,59.033002 18.44537,58.9849438 C17.9330834,58.9354293 17.5193669,58.7941673 17.2028321,58.5582451 C16.8862973,58.3223229 16.6114119,57.993197 16.3781758,57.5708672 C16.2199083,57.288343 16.0352631,56.817955 15.8228516,56.1582467 L14,50.5004837 L15.475774,49.9776686 L17.108427,55.0427135 C17.3694294,55.8509654 17.573511,56.385431 17.7248369,56.6446542 C17.9497431,57.0189258 18.2482299,57.2694111 18.6230737,57.3946536 C18.9993059,57.5198963 19.4074691,57.5053332 19.8503401,57.3480517 C20.2932111,57.1922266 20.6694433,56.9242656 20.9804248,56.549994 C21.2927947,56.1742661 21.4621686,55.7533927 21.4913231,55.2859172 C21.5204776,54.8184419 21.4094128,54.1951413 21.1581286,53.4160157 L19.5823962,48.5228152 L21.0581702,48 L24,57.1325179 L22.6783284,57.598537 Z" id="Shape"></path>
                <path d="M25.2288466,54.0610402 L26.6838022,53.3122936 C26.9777179,53.8885842 27.3783792,54.2722989 27.8828612,54.4648748 C28.3888057,54.6560137 28.9941841,54.6344566 29.7033837,54.4002038 C30.41697,54.1630768 30.8965936,53.844033 31.145179,53.4430727 C31.3908398,53.0435496 31.4493305,52.6497749 31.3177264,52.2660601 C31.1992828,51.9211481 30.9521597,51.6998294 30.5807439,51.6035414 C30.3204604,51.5388704 29.7311667,51.5417448 28.8143253,51.6136014 C27.5772474,51.7084522 26.704274,51.727135 26.1924805,51.6667753 C25.6806871,51.6064158 25.2478561,51.4310854 24.8954497,51.1422215 C24.5430433,50.8519205 24.2900712,50.4868885 24.1379954,50.0456884 C24.0005423,49.643291 23.965448,49.2408935 24.0341744,48.837059 C24.102901,48.4317873 24.2608258,48.063881 24.5050244,47.730466 C24.6863456,47.4746562 24.9641763,47.2174092 25.3399789,46.9558509 C25.7157815,46.6942925 26.1413012,46.4859081 26.6194626,46.3278234 C27.338898,46.0878221 28.0056916,45.9800371 28.6183815,46.0030312 C29.2325336,46.0260253 29.7297044,46.1683015 30.1084316,46.42986 C30.4871587,46.6914183 30.8264047,47.0981271 31.123245,47.6471122 L29.6741383,48.3556192 C29.4460246,47.9144191 29.1214014,47.6183695 28.7002684,47.4689077 C28.2791356,47.3194458 27.7673422,47.343877 27.1619636,47.5450758 C26.4483773,47.7822028 25.9789896,48.0667553 25.7538005,48.4001703 C25.5286114,48.7335853 25.4701206,49.0555033 25.5768661,49.3673613 C25.6455927,49.5656858 25.7698854,49.7223334 25.9512065,49.8387412 C26.1339899,49.9608975 26.3781885,50.02988 26.6867268,50.0485628 C26.8621989,50.0528741 27.3637564,50.0313171 28.1943241,49.9838918 C29.3933831,49.9077237 30.2414979,49.8890409 30.7386687,49.9278435 C31.2358395,49.9680832 31.6686705,50.1218565 32.0371618,50.3906005 C32.4041908,50.6593447 32.6776347,51.0531192 32.8574936,51.5733617 C33.0329657,52.082107 33.046126,52.6124094 32.898437,53.1613944 C32.750748,53.7103796 32.4348984,54.2047536 31.9494257,54.6402051 C31.4639531,55.0756567 30.8614991,55.4133831 30.1420637,55.6519473 C28.9503161,56.0471591 27.9588991,56.1060816 27.1663504,55.8272777 C26.3767262,55.5484737 25.7304042,54.960686 25.2288466,54.0610402 Z" id="Shape"></path>
                <path d="M39.7776636,50.1618443 C39.383672,50.8686404 38.9644427,51.4183707 38.5199753,51.8125455 C38.075508,52.2067203 37.5595333,52.5102801 36.9748556,52.7232251 C36.0088052,53.075113 35.1871717,53.0917256 34.5085529,52.771553 C33.829934,52.4513804 33.3672393,51.8971193 33.1190668,51.1057493 C32.9732479,50.6421032 32.9395973,50.1829877 33.0139089,49.728403 C33.0896226,49.2738183 33.2494626,48.8720923 33.4948309,48.5247353 C33.7401993,48.1773782 34.0416519,47.872308 34.4019929,47.6095248 C34.6669907,47.4192336 35.084818,47.1791042 35.6512685,46.886116 C36.806603,46.2925884 37.633845,45.7866553 38.1357986,45.3668063 C38.0713017,45.1447999 38.0306407,45.0028366 38.0124133,44.9439368 C37.807706,44.2899994 37.5216766,43.879212 37.1557271,43.7161051 C36.6607841,43.4925884 36.0382495,43.5167524 35.2881232,43.7901072 C34.5870707,44.0453393 34.1117571,44.3655119 33.8607803,44.7521353 C33.6098036,45.1372486 33.5102541,45.6960405 33.5607299,46.4254903 L32.0366417,46.7411321 C31.9581238,46.0207438 32.0057954,45.4000318 32.1796565,44.8759757 C32.3535175,44.3519196 32.6928268,43.8731709 33.1975847,43.4427502 C33.7009403,43.0108193 34.3318876,42.6574212 35.0876222,42.382556 C35.8377485,42.1092011 36.4771083,41.9823403 37.007104,42.0019734 C37.5356976,42.0216067 37.9563291,42.1348753 38.2661943,42.3447998 C38.5774617,42.5517038 38.8466658,42.8597945 39.0724047,43.2675614 C39.2084089,43.5227934 39.3878783,44.007583 39.610813,44.7204201 L40.2824213,46.8604418 C40.7507244,48.3525669 41.078817,49.2843901 41.2666991,49.6559111 C41.4545811,50.0289424 41.6985474,50.3627072 42,50.6572056 L40.4436634,51.2235488 C40.1828719,50.9441528 39.9613393,50.5907547 39.7776636,50.1618443 Z M38.528388,46.6218226 C38.061487,47.0567741 37.314165,47.5536457 36.2836178,48.1139478 C35.7017442,48.4326102 35.3021443,48.6969035 35.084818,48.9083383 C34.8688938,49.119773 34.7272812,49.3644333 34.6613823,49.6438292 C34.5954833,49.923225 34.6052981,50.2026209 34.6936307,50.4820169 C34.8282328,50.9094171 35.0904265,51.2114667 35.4802117,51.3881657 C35.8699968,51.5633545 36.3565272,51.5452315 36.9355967,51.3353071 C37.5090576,51.1268929 37.9773607,50.80521 38.3391038,50.373279 C38.7008469,49.9383276 38.9139669,49.4505174 38.9756594,48.9038075 C39.0219289,48.4839585 38.9335963,47.9191258 38.7120637,47.2108194 L38.528388,46.6218226 Z" id="Shape"></path>
                <path d="M49.7818079,47.1633545 C49.3892076,47.8686404 48.9685643,48.4198809 48.5240846,48.8125455 C48.0796049,49.20521 47.5636159,49.5102801 46.9775196,49.7232251 C46.0128443,50.075113 45.1897858,50.0917256 44.511148,49.771553 C43.8339123,49.4513804 43.3698027,48.8971193 43.1216231,48.1057493 C42.9758001,47.6421032 42.9407465,47.1829877 43.0164623,46.728403 C43.0921781,46.2738183 43.2520225,45.8720923 43.4959955,45.5247353 C43.7399687,45.1773782 44.0428318,44.872308 44.4031829,44.6095248 C44.6695902,44.4192336 45.0860271,44.1775939 45.6524933,43.886116 C46.8078601,43.2940987 47.6351252,42.7866553 48.1370928,42.3668063 C48.0739963,42.1447999 48.031932,42.0043468 48.0137041,41.9439368 C47.8089911,41.2899994 47.5229537,40.8807222 47.156994,40.7161051 C46.6620371,40.4925884 46.0408872,40.5167524 45.289338,40.7901072 C44.5882659,41.0453393 44.1115369,41.3655119 43.8605531,41.7521353 C43.6095692,42.1372486 43.510017,42.6960405 43.5604942,43.4254903 L42.0363635,43.7411321 C41.9578434,43.0207438 42.0069184,42.4000318 42.1793822,41.8759757 C42.3546502,41.3519196 42.692567,40.8746812 43.1959368,40.4427502 C43.7007087,40.0108193 44.3316735,39.6574212 45.0860271,39.382556 C45.8375763,39.1092011 46.4769541,38.9823403 47.0055624,39.0019734 C47.5341708,39.0216067 47.9548141,39.1348753 48.2660901,39.3432896 C48.5773661,39.5501935 48.8465778,39.8582842 49.072323,40.2660512 C49.208331,40.5212831 49.3878054,41.0060728 49.6121484,41.7189098 L50.2837756,43.8589316 C50.7520917,45.3510567 51.0801934,46.2828798 51.2666786,46.6559111 C51.4545659,47.0289424 51.6999411,47.361197 52,47.6556954 L50.44362,48.2220385 C50.1870276,47.945663 49.9654888,47.592265 49.7818079,47.1633545 Z M48.5324974,43.6233328 C48.0655834,44.0582842 47.3182406,44.5551559 46.2890668,45.1154579 C45.7057748,45.4341204 45.3061637,45.6984138 45.0902335,45.9098486 C44.8729012,46.1212833 44.7312845,46.3659434 44.6653839,46.6453394 C44.5994831,46.9247353 44.6092981,47.2041312 44.6976331,47.4835271 C44.832239,47.9124376 45.09444,48.212977 45.4856382,48.389676 C45.8768364,48.5648648 46.3605761,48.548252 46.9410638,48.3368173 C47.5159429,48.128403 47.982857,47.8067203 48.3446101,47.3747892 C48.7077654,46.9398378 48.9194892,46.4520276 48.9811836,45.9053178 C49.0274543,45.4854688 48.9405214,44.920636 48.7175804,44.2123296 L48.5324974,43.6233328 Z" id="Shape"></path>
                <path d="M54.9940656,47 L52,37.7129361 L53.3437265,37.2375498 L53.763376,38.5407895 C53.8947815,37.9869127 54.1462886,37.4907929 54.5193104,37.0509496 C54.8923324,36.6111062 55.3727393,36.2852962 55.9619442,36.0779627 C56.6175584,35.8454528 57.2025245,35.7965814 57.7140165,35.9343101 C58.2269216,36.0705579 58.652223,36.3652678 58.9885079,36.8184397 C59.3403354,35.4855809 60.0779013,34.6207037 61.1997927,34.2223271 C62.0786548,33.9113267 62.8374153,33.9261362 63.4746609,34.2697176 C64.1119065,34.611818 64.6007913,35.3137903 64.9441409,36.3756345 L67,42.7496614 L65.5064996,43.2783621 L63.6201959,37.427112 C63.4167295,36.7977064 63.2231538,36.3623058 63.0366428,36.1194294 C62.8501319,35.8765529 62.6014507,35.7166098 62.2905991,35.6381193 C61.9811605,35.5596287 61.6533534,35.581843 61.3085908,35.7032812 C60.6854748,35.9239434 60.237566,36.323801 59.9662774,36.9043351 C59.6949886,37.4848691 59.7133572,38.2520035 60.0213829,39.2086999 L61.7607385,44.6038161 L60.2587603,45.1354787 L58.3131123,39.1020712 C58.0870385,38.4015799 57.7959684,37.9217506 57.438489,37.6581408 C57.0810098,37.394531 56.6246232,37.3619499 56.0679163,37.5589168 C55.6454409,37.7084932 55.2907875,37.9632174 55.0081951,38.3245702 C54.7256029,38.685923 54.5744159,39.1183616 54.5588734,39.6233671 C54.5419179,40.1298534 54.6704974,40.8051685 54.943199,41.6507934 L56.4974566,46.4683375 L54.9940656,47 Z" id="Shape"></path>
                <path d="M74.6811051,39.5983514 L74.2493406,38.2569126 C73.9036512,39.5284393 73.1497987,40.3717543 71.9850062,40.7839445 C71.4713314,40.9660073 70.9590449,41.0330064 70.4467583,40.9849418 C69.9358601,40.9354208 69.5207552,40.79414 69.2042204,40.5581865 C68.8876857,40.3222331 68.6128002,39.9945201 68.3781758,39.5721343 C68.2212967,39.2895729 68.0352631,38.8191226 67.8228516,38.159327 L66,32.5008148 L67.475774,31.9779304 L69.1070388,37.0436461 C69.3680411,37.8520049 69.5721228,38.3865414 69.7234486,38.6457988 C69.9483549,39.0201199 70.2468416,39.2706384 70.6230737,39.3958976 C70.9979176,39.5211568 71.4074691,39.5065917 71.8503401,39.3492895 C72.2932111,39.1934437 72.6694433,38.9254473 72.9804248,38.5511261 C73.2914063,38.176805 73.4621686,37.7544193 73.4913231,37.286882 C73.5204776,36.8193446 73.4094128,36.1959616 73.1581286,35.4167328 L71.5823962,30.5228843 L73.0581702,30 L76,39.1337271 L74.6811051,39.5983514 Z" id="Shape"></path>
                <path d="M79.3694759,39 L75,26.5176927 L76.5879497,26 L78.1564796,30.4789795 C78.6076186,29.408985 79.3978588,28.6894065 80.5257064,28.320244 C81.2203411,28.0938436 81.8686668,28.0289517 82.4721772,28.1255685 C83.0756878,28.2236272 83.5701481,28.4687743 83.9525707,28.8610094 C84.336487,29.2546866 84.6830573,29.8949529 84.9937756,30.7803661 L87,36.5110371 L85.4120503,37.0287299 L83.405826,31.2980588 C83.138429,30.5323349 82.7709448,30.0305047 82.3048675,29.79401 C81.83879,29.5575152 81.2905515,29.5416528 80.6616457,29.7464227 C80.1910868,29.9007211 79.7907382,30.1631725 79.4576124,30.5337771 C79.1244865,30.9043816 78.9407445,31.3196894 78.9063862,31.7811426 C78.8720279,32.2425957 78.9765965,32.8266223 79.2260675,33.5361065 L80.9574256,38.4823073 L79.3694759,39 Z" id="Shape"></path>
                <path d="M86.2288464,33.0621334 L87.6834179,32.3146913 C87.9787178,32.8910842 88.3778114,33.274867 88.8821602,33.4660398 C89.387971,33.6586499 89.9931896,33.6356517 90.7022019,33.4013572 C91.4155998,33.1641881 91.8965586,32.8450878 92.1421546,32.4440563 C92.3892125,32.0444622 92.4462258,31.652055 92.3146565,31.2668348 C92.1947822,30.9218616 91.9491863,30.6990662 91.5778686,30.6041986 C91.3176537,30.5380787 90.7285157,30.5423909 89.8119165,30.6142603 C88.5751653,30.709128 87.7009605,30.727814 87.190764,30.6674437 C86.6791057,30.6070733 86.2478509,30.4317119 85.8955376,30.1427968 C85.5417624,29.8538816 85.2903188,29.4873475 85.1382833,29.0475065 C84.9994046,28.6450376 84.9657813,28.2425687 85.0344898,27.8372251 C85.10466,27.4333188 85.2610813,27.0639099 85.5052154,26.7304357 C85.6864886,26.4745805 85.9642459,26.2172879 86.3399494,25.9571205 C86.7141908,25.6969531 87.1410601,25.4870944 87.6190952,25.3275441 C88.3383405,25.0889376 89.0049583,24.9811335 89.6189482,25.0026943 C90.2329382,25.0271299 90.7285157,25.167994 91.1086048,25.4295988 C91.4872319,25.6912036 91.8249265,26.0979846 92.1231501,26.6485045 L90.6744262,27.3571372 C90.4449109,26.9158588 90.1218352,26.6197567 89.6993517,26.4702683 C89.2797918,26.3207799 88.7666717,26.3452155 88.1629149,26.5464499 C87.4495169,26.783619 86.9802532,27.068222 86.7551235,27.4016962 C86.5299939,27.7351705 86.4700567,28.0571456 86.5767741,28.3690589 C86.6440205,28.5659812 86.7697423,28.724094 86.9510156,28.8405225 C87.1337507,28.9627006 87.3793466,29.0316952 87.6863417,29.0489439 C87.8617673,29.053256 88.3631926,29.0316952 89.1935409,28.9842614 C90.3922832,28.9066424 91.2401741,28.8879564 91.7372136,28.9267658 C92.2357149,28.9670127 92.6684317,29.1208134 93.0368257,29.389605 C93.4052197,29.6583967 93.6771295,30.0522412 93.8569408,30.5740135 C94.0323666,31.082849 94.0469854,31.6118081 93.8978735,32.1623281 C93.7502236,32.7114106 93.4359191,33.2058723 92.9505747,33.6399638 C92.4652302,34.0754927 91.8629354,34.413279 91.1436899,34.6518855 C89.9537189,35.0471674 88.9625636,35.1061004 88.1702242,34.827247 C87.3764229,34.5498309 86.7302716,33.9619389 86.2288464,33.0621334 Z" id="Shape"></path>
                <path d="M101.38765,27.7662108 L102.989581,27.4266172 C103.051194,28.4381724 102.83975,29.3138902 102.349649,30.0552155 C101.860948,30.795096 101.107593,31.3442259 100.088182,31.6997153 C98.8041169,32.1476898 97.6530792,32.0942218 96.6322684,31.5407567 C95.6128578,30.9858463 94.8609025,29.9728461 94.3792031,28.5003108 C93.8807002,26.9757527 93.8736987,25.6592858 94.3581988,24.5523554 C94.8426988,23.4454251 95.6926743,22.6809783 96.9025242,22.2575703 C98.0773669,21.848613 99.1723929,21.9266472 100.186202,22.4916731 C101.201412,23.0566989 101.953367,24.0870401 102.442068,25.5826967 C102.471474,25.6737367 102.514883,25.8110191 102.568094,25.9959892 L96.020342,28.2792138 C96.4012207,29.2546419 96.9235285,29.9237134 97.5872656,30.2806479 C98.2524029,30.6390274 98.949747,30.6896052 99.680698,30.4338262 C100.228211,30.2430759 100.644097,29.933829 100.933957,29.5017504 C101.223817,29.0740071 101.373648,28.4945304 101.38765,27.7662108 Z M95.6898737,26.9887583 L100.592286,25.2792301 C100.275821,24.5393498 99.9005433,24.0335721 99.4678539,23.7604522 C98.7985157,23.334154 98.0885692,23.2517845 97.3338133,23.5162339 C96.6518724,23.754672 96.1533695,24.1910858 95.8439056,24.8240302 C95.5302407,25.459865 95.4784301,26.1809593 95.6898737,26.9887583 Z" id="Shape"></path>
                <path d="M105.936937,29 L103,19.8838595 L104.326403,19.414315 L104.74359,20.7095599 C105.060984,19.4826389 105.820513,18.6554846 107.024948,18.2280973 C107.548857,18.0434777 108.063063,17.9693392 108.566181,18.0114963 C109.067914,18.0536536 109.479557,18.196116 109.802494,18.4388836 C110.122661,18.6816512 110.398476,19.0087332 110.628551,19.4186761 C110.775468,19.6847028 110.963964,20.1760528 111.19404,20.8912722 L113,26.4952782 L111.52668,27.0171558 L109.740124,21.4727515 C109.537769,20.8433001 109.327097,20.3926538 109.113652,20.122266 C108.898822,19.8504244 108.616078,19.6730733 108.265419,19.5916661 C107.913375,19.5088053 107.540541,19.5378793 107.146916,19.6774343 C106.519058,19.8998502 106.045045,20.3010709 105.726265,20.8796426 C105.404712,21.4582144 105.431046,22.3333407 105.808039,23.4992066 L107.411642,28.4781224 L105.936937,29 Z" id="Shape"></path>
                <polygon id="Shape" points="116.50525 26 116 24.5052502 117.49475 24 118 25.4947498"></polygon>
                <path d="M125.315638,18.4472589 L126.919273,18.1340319 C127.110533,19.2296044 126.961939,20.185163 126.473492,21.0021512 C125.982103,21.8205829 125.233249,22.3965162 124.22546,22.7299513 C122.964619,23.1485495 121.809708,23.0807078 120.762196,22.5249825 C119.717625,21.9692574 118.931991,20.9371963 118.411178,19.4259126 C118.074267,18.4487023 117.944799,17.5393338 118.021302,16.6963637 C118.099277,15.8533936 118.414119,15.1360028 118.962887,14.5470784 C119.511654,13.9567107 120.181061,13.5308953 120.974052,13.2681889 C121.977427,12.9361971 122.88076,12.9116587 123.689934,13.1989037 C124.497637,13.4847051 125.14939,14.0563082 125.643721,14.9108259 L124.203392,15.6440944 C123.848827,15.0854823 123.436883,14.7116309 122.963149,14.5268703 C122.489414,14.3421097 121.990669,14.3363359 121.468384,14.509549 C120.682749,14.770812 120.138396,15.2601389 119.836794,15.9760861 C119.535193,16.6934768 119.589629,17.6519223 120.003044,18.8514226 C120.420871,20.0668008 120.963753,20.870798 121.628747,21.2648577 C122.29227,21.6574739 123.008757,21.7282025 123.772322,21.4756002 C124.385824,21.2720749 124.834547,20.9184315 125.118494,20.4117834 C125.40244,19.9051353 125.468645,19.251256 125.315638,18.4472589 Z" id="Shape"></path>
                <path d="M126.381599,17.4301372 C125.831372,15.7567789 125.876174,14.3601517 126.516005,13.2388142 C127.050831,12.3077294 127.862871,11.6519343 128.947924,11.2743118 C130.153383,10.8534499 131.273438,10.9168674 132.306688,11.4645643 C133.339939,12.0122613 134.091775,13.0038811 134.563598,14.4394236 C134.944417,15.602559 135.077424,16.5754417 134.957017,17.3595131 C134.836612,18.1435846 134.514596,18.8325297 133.988171,19.4277898 C133.461745,20.0230499 132.813513,20.4525596 132.047675,20.7192016 C130.818416,21.1458286 129.692761,21.086735 128.66931,20.539038 C127.645861,19.9913411 126.881423,18.9550408 126.381599,17.4301372 Z M127.910473,16.8968533 C128.289892,18.0542235 128.820518,18.8354122 129.499551,19.2404198 C130.178584,19.6454272 130.889819,19.7189339 131.634655,19.4594986 C132.372492,19.2029458 132.891917,18.6999293 133.192932,17.9504493 C133.493946,17.2009692 133.449144,16.2338518 133.059925,15.0476554 C132.691707,13.930642 132.169481,13.1681901 131.487648,12.764624 C130.804415,12.3610578 130.09598,12.2861098 129.362344,12.5412212 C128.617508,12.8006567 128.095282,13.3007904 127.792868,14.0445052 C127.491853,14.7896613 127.529655,15.7394832 127.910473,16.8968533 Z" id="Shape"></path>
                <polygon id="Shape" points="138.50525 17 138 15.5052502 139.49475 15 140 16.4959852"></polygon>
                <path d="M148.681106,13.5988488 L148.247952,12.2573405 C147.902263,13.528933 147.147022,14.3722917 145.983618,14.7845033 C145.469943,14.9665755 144.959044,15.0321215 144.448147,14.985511 C143.93586,14.9359874 143.520756,14.7946993 143.20422,14.5587337 C142.887686,14.3227681 142.611412,13.995038 142.378176,13.5726304 C142.219909,13.2900543 142.033874,12.8195796 141.822851,12.1597497 L140,6.50094437 L141.475774,5.97803288 L143.108427,11.044011 C143.369429,11.8524118 143.574899,12.386976 143.724837,12.6462468 C143.949743,13.0205874 144.24823,13.2711188 144.623073,13.3963845 C144.999306,13.5216502 145.407469,13.5070844 145.85034,13.3497739 C146.293211,13.1924635 146.670831,12.9259097 146.980424,12.5501127 C147.292794,12.1757721 147.464946,11.7533645 147.4941,11.285803 C147.523254,10.8182414 147.409412,10.1948261 147.159517,9.41555688 L145.582397,4.52291149 L147.05817,4 L150,13.1342005 L148.681106,13.5988488 Z" id="Shape"></path>
                <polygon id="Shape" points="153.323073 13 149 0.517692734 150.569072 0 153.034967 7.11791459 155.477223 2.213533 157.510219 1.54298392 155.130017 6.06666667 161 10.4677759 159.063039 11.1066002 154.400147 7.49284526 153.651071 8.89739323 154.892145 12.4823073"></polygon>
            </g>
            <g id="Group" transform="translate(258.000000, 349.000000)" fill="#000000">
                <path d="M11,14.1191174 L11,16 L0.00170916555,16 C-0.0129704455,15.5282171 0.0669518815,15.0751807 0.239845079,14.6408905 C0.520388757,13.923843 0.967301361,13.217731 1.58384502,12.5225542 C2.20201976,11.8273775 3.09258283,11.0228471 4.25716531,10.1089631 C6.06601961,8.68892794 7.28768947,7.56414763 7.92380594,6.73462214 C8.55992242,5.90509666 8.87634959,5.12087483 8.87634959,4.38039445 C8.87634959,3.6055458 8.58765057,2.95098614 8.00862148,2.41827769 C7.43122345,1.88556923 6.676039,1.6199961 5.74469923,1.6199961 C4.75953422,1.6199961 3.9733595,1.90275337 3.38454398,2.46670572 C2.79409741,3.03222027 2.49561198,3.8148799 2.48745664,4.81468463 L0.388272257,4.6084749 C0.531806232,3.10876782 1.07332077,1.96524117 2.01118482,1.17945714 C2.94904886,0.39367311 4.20986434,0 5.78873807,0 C7.38555354,0 8.64963116,0.423354814 9.57933986,1.27162663 C10.5090486,2.11833626 10.9739029,3.16969342 10.9739029,4.42413591 C10.9739029,5.06151142 10.8385243,5.68951377 10.5661359,6.30345636 C10.2937476,6.92052334 9.84194179,7.56883422 9.20908745,8.24995118 C8.57786417,8.93106815 7.52908751,9.86526069 6.05949533,11.054091 C4.83456335,12.039836 4.04838862,12.7084554 3.69934009,13.0599492 C3.35192263,13.4114431 3.06322361,13.7644991 2.83813624,14.1191174 L11,14.1191174 Z" id="Shape"></path>
                <path d="M13,8.00614439 C13,6.15360983 13.2051127,4.66205838 13.6153383,3.53302612 C14.0255639,2.40399386 14.6359398,1.53149002 15.4448121,0.920122887 C16.2536843,0.307219662 17.2726316,0 18.5016542,0 C19.4064661,0 20.2004511,0.168970814 20.8819549,0.506912442 C21.5651127,0.846390169 22.1291729,1.33333333 22.5741354,1.97235023 C23.0190977,2.60983103 23.3664661,3.38556068 23.621203,4.30261137 C23.8742858,5.21812596 24,6.4516129 24,8.00614439 C24,9.84331797 23.7965413,11.3271889 23.3912782,12.4562212 C22.984361,13.5852534 22.375639,14.4592934 21.5651127,15.0752688 C20.7545865,15.6912442 19.733985,16 18.4983458,16 C16.8706767,16 15.5936843,15.4577573 14.6657142,14.374808 C13.5557894,13.0721967 13,10.9477727 13,8.00614439 Z M15.1288722,8.00614439 C15.1288722,10.577573 15.4530827,12.2903226 16.1015038,13.141321 C16.7499248,13.9938556 17.5488722,14.4193548 18.5016542,14.4193548 C19.4511278,14.4193548 20.2533835,13.9923195 20.9001504,13.1367127 C21.5469173,12.281106 21.872782,10.5714286 21.872782,8.00614439 C21.872782,5.42549924 21.5485714,3.71274961 20.9001504,2.86328725 C20.2517293,2.01536098 19.4445113,1.59293394 18.4768421,1.59293394 C17.5257142,1.59293394 16.7664661,1.96620583 16.1974436,2.71428571 C15.4861654,3.66973887 15.1288722,5.43317973 15.1288722,8.00614439 Z" id="Shape"></path>
                <path d="M34,16 L31.9994678,16 L31.9994678,3.53368482 C31.5188931,3.98203476 30.8882385,4.43194688 30.1059074,4.88029681 C29.3235764,5.33020895 28.621075,5.66608085 28,5.89103691 L28,3.9992189 C29.1192124,3.48525679 30.0963279,2.86037883 30.932943,2.12927163 C31.7695583,1.39816442 32.3634912,0.687365749 32.7099521,0 L34,0 L34,16 Z" id="Shape"></path>
                <path d="M42.1790868,7.23655914 C41.328276,6.94470046 40.6999851,6.52688172 40.2893054,5.98617511 C39.8802618,5.44393241 39.67574,4.79723503 39.67574,4.03993856 C39.67574,2.90015361 40.1125985,1.94162826 40.9846794,1.16589862 C41.8567604,0.388632873 43.0184441,0 44.4680946,0 C45.925926,0 47.0974267,0.397849462 47.9858694,1.19047619 C48.8743121,1.98617511 49.3177153,2.95238095 49.3177153,4.09370199 C49.3177153,4.82027649 49.1131936,5.453149 48.7074223,5.98924731 C48.3016511,6.52841782 47.6848134,6.94316436 46.8569091,7.23655914 C47.8827904,7.5499232 48.6632455,8.05529954 49.1982745,8.75268817 C49.7333035,9.4516129 50,10.2857143 50,11.2549923 C50,12.59447 49.4944222,13.718894 48.4849025,14.6313364 C47.4770192,15.5437788 46.1468095,16 44.500818,16 C42.8531905,16 41.5262532,15.5422427 40.5150975,14.6267281 C39.5055778,13.7096774 39,12.5683564 39,11.2012289 C39,10.1827957 39.2748773,9.32872503 39.8262681,8.6420891 C40.3776588,7.95391705 41.1630224,7.48540706 42.1790868,7.23655914 Z M41.1073926,11.2119816 C41.1073926,11.7603687 41.2464673,12.2918587 41.5229808,12.8049156 C41.8011304,13.3179723 42.2134464,13.7158218 42.7599286,13.9953918 C43.3064108,14.2780338 43.8937975,14.4178187 44.5237246,14.4178187 C45.5037929,14.4178187 46.3104269,14.1213518 46.9485349,13.529954 C47.5850067,12.9385561 47.9040607,12.187404 47.9040607,11.2749616 C47.9040607,10.3471582 47.5768258,9.58218126 46.9190837,8.97695852 C46.2613416,8.37173579 45.4416183,8.06758832 44.453369,8.06758832 C43.4896623,8.06758832 42.6912093,8.3671275 42.0563736,8.96620583 C41.4264465,9.56682027 41.1073926,10.3149001 41.1073926,11.2119816 Z M41.7700431,3.97542242 C41.7700431,4.71582181 42.0236502,5.32258064 42.5325004,5.79416283 C43.0413506,6.26420891 43.7007289,6.49923195 44.5139074,6.49923195 C45.3025435,6.49923195 45.9504686,6.26574501 46.4560464,5.79877113 C46.9599881,5.33179723 47.2119589,4.76036866 47.2119589,4.0844854 C47.2119589,3.37788018 46.9534434,2.78494624 46.4315038,2.30414747 C45.9128366,1.82334869 45.2649115,1.58218126 44.4893648,1.58218126 C43.7072735,1.58218126 43.0593485,1.8172043 42.5439536,2.28878649 C42.0269226,2.75729647 41.7700431,3.31950844 41.7700431,3.97542242 Z" id="Shape"></path>
            </g>
        </g>
    </g>
</svg>