<?xml version="1.0" encoding="UTF-8"?>
<svg width="341px" height="451px" viewBox="0 0 341 451" version="1.1" xmlns="http://www.w3.org/2000/svg" xmlns:xlink="http://www.w3.org/1999/xlink">
    <!-- Generator: Sketch 51.3 (57544) - http://www.bohemiancoding.com/sketch -->
    <title>b18</title>
    <desc>Created with Sketch.</desc>
    <defs></defs>
    <g id="Page-1" stroke="none" stroke-width="1" fill="none" fill-rule="evenodd">
        <g id="b18" fill="#EFFFDE" fill-rule="nonzero">
            <path d="M24.8179376,450.823262 C23.2931815,449.39813 23.1954408,447.600571 22.9668777,445.959191 C21.6270772,436.364702 20.3790027,426.758199 19.1279208,417.153198 C18.9264244,415.60042 18.8783059,414.025116 18.7414688,412.464829 C18.3505057,407.997212 19.0722837,403.67376 20.3083286,399.392356 C21.3714475,395.707136 22.5067442,392.018911 23.1834111,388.254099 C23.7563224,385.059941 23.7307595,381.756157 23.951804,378.497425 C24.0856337,376.518158 24.1923967,374.532884 24.2961523,372.553617 C24.4660709,369.279868 24.6555376,366.012125 24.7818487,362.738375 C24.9622933,358.051507 24.9803377,353.355629 25.2885971,348.679273 C25.4900934,345.642795 25.0344711,342.694919 24.4735894,339.780081 C24.1623226,338.158223 23.2195,336.623465 22.4029886,335.138264 C21.231603,333.010327 20.2166026,330.841843 19.3970838,328.545714 C17.8678166,324.270317 15.9881863,320.112054 14.561171,315.805121 C13.1176149,311.444127 12.9642371,306.860877 13.0529556,302.292645 C13.0890445,300.313378 13.2634742,298.331108 13.3717409,296.351841 C13.523615,293.597686 14.2017857,291.086811 15.923527,288.793684 C17.8843574,286.182193 19.472269,283.294386 21.3413734,280.60931 C23.7758706,277.104296 26.3051012,273.675869 28.5170501,270.008669 C30.1260136,267.340113 32.1740588,264.940364 33.9258743,262.351399 C36.037075,259.230825 37.2836459,255.646219 37.7031794,252.009054 C38.0370017,249.112236 37.3272533,246.075758 36.9077198,243.12638 C36.5077345,240.307652 36.007001,237.491927 35.3258229,234.728762 C34.608556,231.831944 33.6311482,229.002704 32.7514813,226.144931 C32.6266738,225.739466 32.3424737,225.382057 32.2311996,224.976593 C30.8252361,219.759617 28.9350799,214.716842 27.0554496,209.654544 C25.7066269,206.020381 24.0690929,202.59646 22.0526255,199.316704 C21.6135439,198.603387 21.0481511,197.869045 20.911314,197.079141 C20.0000692,191.83964 17.5550461,187.110724 15.9566085,182.102488 C15.2062601,179.756801 14.6814673,177.403606 14.576208,174.999352 C14.4092968,171.315633 14.3807265,167.613893 14.5656821,163.934679 C14.7160525,160.922229 15.3130231,157.837696 17.5144461,155.622659 C20.7564325,152.360924 21.6135439,148.169623 22.4526109,144.011361 C22.9322925,141.63564 23.366863,139.310977 24.1683374,136.996827 C25.0961229,134.323765 25.553249,131.471999 26.0494714,128.668288 C26.793805,124.455963 26.484042,120.179065 26.6689976,115.935204 C26.8930495,110.722734 25.4043823,105.785079 24.9683081,100.692746 C24.8480117,99.2781262 24.6660635,97.863506 24.4224634,96.4624013 C24.2029226,95.2069634 24.08413,93.8659274 23.539789,92.7441426 C20.6842547,86.8649089 17.8888685,80.9646512 14.8198081,75.1785242 C12.3522294,70.5307009 9.62450992,66.0345513 7.22008683,61.3627005 C5.79006409,58.587522 4.73296,55.6231268 3.48338177,52.7563433 C3.02926309,51.712648 2.54507032,50.6779629 2.00373679,49.6793191 C0.626343701,47.1309003 -0.355575173,44.5464403 0.122602778,41.523478 C0.363195457,40.0067408 0.151173158,38.4104125 0.0865138756,36.8516272 C-0.0728787747,33.136372 0.272973202,29.4931993 0.955654931,25.8259992 C1.42029954,23.3406526 1.15113648,20.7276599 1.33158099,18.1807428 C1.39624028,17.2181403 1.66239593,16.2104862 2.0774183,15.3379869 C3.97659677,11.358429 6.05471604,7.46446913 7.87570188,3.44886994 C8.96739117,1.04611799 10.6680807,0.0684982962 13.2198668,0.00993121747 C17.5309869,-0.0876805804 21.7639143,0.550550406 25.990827,1.20830375 C36.4160085,2.83466648 46.8051012,4.69529751 57.2483272,6.18500372 C64.723241,7.2512249 72.2522882,7.99157284 79.7768242,8.66284167 C87.8757753,9.38366725 96.0002894,9.83268152 104.11127,10.446885 C107.235968,10.6841567 110.350139,11.0490747 113.471829,11.3464152 C121.566269,12.1228045 129.657702,12.9502522 137.75966,13.648552 C142.878269,14.0870542 148.014923,14.3258277 153.142555,14.6607112 C165.109033,15.4386022 177.077015,16.1864587 189.038982,17.010903 C196.444726,17.5214878 203.85498,18.0500932 211.242679,18.7604067 C218.767215,19.4842357 226.266188,20.4258142 233.777191,21.3028186 C241.573898,22.2128609 249.370604,23.1214015 257.161296,24.0960178 C265.371521,25.1246959 273.560694,26.336584 281.778438,27.2706538 C288.865396,28.0785791 295.983932,28.6041811 303.085927,29.2544259 C305.78658,29.5007079 308.482722,29.8010519 311.190893,29.9692446 C312.41942,30.047334 313.377279,30.5293861 314.231383,31.3283011 C317.559081,34.4488752 320.922867,37.5319063 324.196431,40.7050406 C327.680514,44.0794054 331.048812,47.5694026 334.535902,50.9377605 C335.593006,51.9604318 336.373428,53.0792131 336.884688,54.4427749 C337.635036,56.4445676 338.305688,58.4974188 339.274074,60.3925894 C341.789771,65.3137257 341.098067,70.3640099 340.060511,75.4248062 C339.095133,80.1342001 336.459139,84.0987408 333.965998,88.076797 C327.224892,98.8381222 319.987563,109.264564 312.321679,119.393665 C309.819515,122.703456 307.977477,126.412704 306.234684,130.18052 C305.142995,132.539722 305.057284,134.847865 305.708388,137.256624 C306.451217,140.007775 307.248181,142.743909 308.046648,145.483046 C309.090218,149.072157 310.613471,152.430003 312.903612,155.416924 C317.760577,161.757185 322.59649,168.115468 327.471499,174.442214 C328.602285,175.907893 329.772167,177.360056 331.048812,178.702594 C334.466731,182.300715 335.750895,186.742802 336.377939,191.492742 C337.186932,197.589726 337.370384,203.719746 337.308732,209.851269 C337.262117,214.697319 336.889199,219.538865 336.773414,224.381911 C336.729806,226.171962 336.15088,227.691702 335.316324,229.221955 C332.299893,234.760298 328.578225,239.807579 324.593409,244.665643 C320.700319,249.408075 316.694451,254.055898 312.742716,258.751776 C309.202996,262.965603 306.706847,267.717045 305.275321,273.040642 C303.684402,278.955917 302.006268,284.845663 300.400312,290.757934 C299.834919,292.84082 299.755222,294.911691 300.219867,297.083179 C301.44689,302.839271 303.412231,308.233449 306.356484,313.38585 C309.618019,319.096892 313.493064,324.382946 316.948577,329.954327 C323.874639,341.131629 328.566196,353.154399 330.1105,366.244892 C331.302938,376.352969 331.14956,386.464049 328.478981,396.378404 C327.119632,401.428689 326.883551,406.515014 327.424884,411.652398 C327.903062,416.189094 328.558677,420.701763 329.113544,425.23095 C329.233841,426.201061 329.247374,427.18619 329.324063,428.371047 C327.265492,428.738968 325.333232,429.130917 323.387438,429.431261 C312.252508,431.143222 301.101038,432.777093 289.972123,434.553628 C276.73351,436.663544 263.505424,438.865066 250.28636,441.101127 C248.12253,441.467546 246.045914,441.652258 243.982832,440.797779 C241.513749,439.769101 238.954445,439.976339 236.381607,440.140026 C228.688656,440.617573 220.98969,441.077099 213.293732,441.530619 C204.59781,442.044207 195.903392,442.539775 187.205967,443.039847 C180.649816,443.412274 174.090658,443.763676 167.536012,444.154123 C159.554349,444.63167 151.575695,445.149764 143.595536,445.637823 C138.750601,445.930658 133.904162,446.2295 129.05622,446.471277 C120.927195,446.873738 112.795162,447.253673 104.664633,447.608079 C94.3913258,448.061599 84.1180184,448.465561 73.844711,448.911572 C62.5714402,449.396628 51.2996732,449.899704 40.0279061,450.405784 C35.8912157,450.595 31.7560291,450.826265 27.6193387,450.992956 C26.6434346,451.035004 25.6524935,450.877324 24.8179376,450.823262 Z" id="Shape"></path>
        </g>
    </g>
</svg>