<?xml version="1.0" encoding="UTF-8"?>
<svg width="381px" height="185px" viewBox="0 0 381 185" version="1.1" xmlns="http://www.w3.org/2000/svg" xmlns:xlink="http://www.w3.org/1999/xlink">
    <!-- Generator: Sketch 51.3 (57544) - http://www.bohemiancoding.com/sketch -->
    <title>b2</title>
    <desc>Created with Sketch.</desc>
    <defs></defs>
    <g id="Page-1" stroke="none" stroke-width="1" fill="none" fill-rule="evenodd">
        <g id="b2" fill-rule="nonzero">
            <g id="Group" fill="#F0FFF0">
                <path d="M1.81912381,19.5205471 C1.5314385,20.9324111 1.21465208,21.9230468 1.1448094,22.9303319 C0.766494909,28.3313777 0.442225342,33.7365859 0.120450157,39.141794 C0.0672366892,40.0408584 0.118787236,40.94575 0.132922063,41.8473117 C0.219393947,47.4414899 1.56469692,52.8192267 2.99148301,58.1728219 C5.41685308,67.2583666 7.83224562,76.3472411 10.4180875,85.3861677 C11.6195479,89.5851312 12.7120869,93.8823258 14.9304233,97.6916947 C17.5869394,102.253614 20.3315902,106.779737 23.3015669,111.141864 C28.2745317,118.442599 34.624395,124.510451 41.4016289,130.080488 C53.4428388,139.97852 66.0087003,149.168123 79.0892357,157.666779 C87.0704243,162.853048 95.60786,166.515903 104.82543,168.756904 C110.319721,170.092181 115.748326,171.696345 121.22765,173.09489 C129.573018,175.226838 137.899263,177.447859 146.300339,179.332565 C155.974381,181.503639 165.757345,183.149426 175.667522,183.781268 C182.342486,184.204994 189.022439,184.80104 195.730662,184.354006 C201.382098,183.978563 207.038524,183.650571 212.691623,183.3026 C219.611868,182.878874 226.596136,183.015399 233.326808,180.943388 C233.569594,180.869299 233.844808,180.91342 234.095077,180.857644 C239.23766,179.709672 244.408512,178.674083 249.513679,177.3771 C257.986261,175.229335 266.446371,173.0208 274.855762,170.639112 C283.880433,168.084271 293.019846,165.904872 301.725237,162.294463 C310.755729,158.549194 319.850243,154.955434 328.894869,151.241799 C331.515633,150.163754 333.975093,148.791016 336.092822,146.830556 C339.776192,143.420771 343.504461,140.057605 347.251021,136.714417 C349.092706,135.07196 350.66084,133.199742 352.012795,131.1577 C355.424277,126.003065 358.834928,120.842602 362.128343,115.610547 C364.320904,112.126672 366.241577,108.47131 368.411689,104.970786 C370.659958,101.345392 372.690384,97.6192701 373.939238,93.5343546 C375.333597,88.9757654 376.669754,84.3963645 377.852091,79.7811675 C378.650293,76.6669085 378.841529,73.3745015 379.860068,70.3476516 C380.638315,68.0375557 380.724787,65.8456701 380.540202,63.5305794 C380.437101,62.2460828 380.346472,60.9582564 380.304068,59.6712624 C380.021371,50.90705 379.645551,42.1428375 379.510023,33.3769601 C379.349551,22.9952643 377.516181,12.8691359 375.270406,2.79129052 C375.134047,2.18109222 374.826406,1.61085233 374.599418,1.02562804 C371.882205,0.0707883998 369.191599,0.170684438 366.495173,0.221464925 C358.000142,0.383795987 349.50511,0.555284187 341.010911,0.644358155 C328.776802,0.773390538 316.541862,0.783380142 304.307753,0.937386535 C296.587643,1.03645011 288.868364,1.30949928 281.148254,1.49597188 C277.156413,1.59253805 273.162077,1.60918739 269.173561,1.76569119 C261.072642,2.08369358 252.975049,2.49493227 244.872467,2.82542166 C231.621483,3.36569274 218.356363,3.10762797 205.102052,3.7045068 C194.68801,4.17318572 184.250688,3.88681707 173.829163,4.50534005 C167.795254,4.86330085 161.739728,4.72261393 155.698337,5.2354136 C149.41499,5.76902494 143.097554,5.88307291 136.800072,6.27349993 C131.020591,6.6322932 125.24693,7.11845392 119.469943,7.53968222 C115.106438,7.85685214 110.742103,8.1806818 106.376935,8.46455304 C100.984915,8.81502165 95.5854106,9.06226434 90.1983785,9.4718381 C81.0913924,10.1644506 71.9885637,10.9294878 62.8882293,11.7020172 C58.786635,12.0499884 54.6875351,12.4445777 50.5967498,12.8991047 C43.1826171,13.7215821 35.7684845,14.5598763 28.3659923,15.47559 C21.8614774,16.2797531 15.3644456,17.1580058 8.87822284,18.0895364 C6.60417857,18.4175284 4.36505564,18.9969254 1.81912381,19.5205471 Z" id="Shape"></path>
                <path d="M1.81912381,19.5205471 C4.36505564,18.9977578 6.60417857,18.4175284 8.87988576,18.0912013 C15.36694,17.1605032 21.8639718,16.2814181 28.3676553,15.477255 C35.7701474,14.5615413 43.1842801,13.723247 50.5984127,12.9007696 C54.689198,12.4470751 58.7891294,12.0516533 62.8898922,11.7036821 C71.9902266,10.9311527 81.0930553,10.1652831 90.2000414,9.47350303 C95.5870735,9.06392928 100.986578,8.81668658 106.378598,8.46621798 C110.743766,8.18234673 115.108101,7.85851708 119.471606,7.54134715 C125.248593,7.12095132 131.022254,6.63395814 136.801735,6.27516486 C143.098385,5.88473785 149.416653,5.77068987 155.699999,5.23707853 C161.741391,4.72427886 167.796917,4.86496579 173.830826,4.50700498 C184.252351,3.88848201 194.689673,4.17485065 205.103715,3.70617174 C218.358026,3.10929291 231.623977,3.36735767 244.87413,2.8270866 C252.975881,2.4965972 261.073474,2.08452604 269.175224,1.76735612 C273.16374,1.61085233 277.158907,1.59420299 281.149917,1.49763682 C288.870027,1.31116421 296.589306,1.03811504 304.309416,0.939051469 C316.543525,0.785045076 328.778465,0.775055472 341.012574,0.646023089 C349.507605,0.557781588 358.002636,0.385460921 366.496836,0.223129859 C369.193262,0.171516905 371.883868,0.0716208668 374.601081,1.02729297 C374.827238,1.61251726 375.13571,2.18275715 375.272069,2.79295545 C377.517012,12.8708008 379.350383,22.9977617 379.511686,33.3786251 C379.647214,42.1445025 380.023034,50.9087149 380.305731,59.6729274 C380.348135,60.9599213 380.438764,62.2477478 380.541865,63.5322443 C380.72645,65.847335 380.639146,68.0392206 379.861731,70.3493165 C378.843192,73.375334 378.651956,76.6685734 377.853754,79.7828324 C376.671417,84.3980294 375.33526,88.9774303 373.940901,93.5360195 C372.692047,97.620935 370.661621,101.346225 368.413352,104.972451 C366.244072,108.472975 364.322567,112.12917 362.130006,115.612212 C358.836591,120.844267 355.42594,126.003897 352.014458,131.159365 C350.662503,133.201407 349.094369,135.073625 347.252684,136.716082 C343.506123,140.05927 339.777855,143.423269 336.094485,146.832221 C333.976756,148.791848 331.517296,150.165419 328.896532,151.243464 C319.851906,154.957099 310.758223,158.550859 301.7269,162.296128 C293.020678,165.90737 283.881265,168.085936 274.857425,170.640777 C266.448034,173.021633 257.987924,175.231 249.515342,177.378765 C244.410175,178.675748 239.239323,179.711337 234.09674,180.859309 C233.846471,180.914252 233.571257,180.870964 233.328471,180.945053 C226.596967,183.017064 219.613531,182.880539 212.693286,183.304265 C207.039355,183.652236 201.38293,183.980228 195.732325,184.355671 C189.024102,184.801873 182.344149,184.205826 175.669185,183.782933 C165.759008,183.151091 155.975213,181.506136 146.302002,179.33423 C137.900926,177.449524 129.574681,175.22767 121.229313,173.096555 C115.749989,171.69801 110.322215,170.093846 104.827093,168.758569 C95.6095229,166.517568 87.0720873,162.854713 79.0908986,157.668444 C66.0103632,149.169788 53.4445017,139.980185 41.4032918,130.082153 C34.6260579,124.512116 28.2761946,118.444264 23.3032298,111.143529 C20.3324217,106.782234 17.5886023,102.255279 14.9320862,97.6933597 C12.7137498,93.8839907 11.6212108,89.5876286 10.4197505,85.3878326 C7.83390854,76.3489061 5.41768454,67.259199 2.99314593,58.1744868 C1.56469692,52.8192267 0.219393947,47.4414899 0.132922063,41.8473117 C0.118787236,40.94575 0.0672366892,40.0400259 0.120450157,39.141794 C0.442225342,33.7365859 0.766494909,28.3322102 1.1448094,22.9303319 C1.21465208,21.9222144 1.5314385,20.9315787 1.81912381,19.5205471 Z" id="Shape"></path>
            </g>
            <g id="Group" transform="translate(49.000000, 23.000000)" fill="#000000">
                <path d="M7.85990769,65.4887459 L9.55135385,65.0888967 C9.79476923,66.2692847 9.67264615,67.3122246 9.18415385,68.2177163 C8.69566154,69.122375 7.92304615,69.774629 6.86630769,70.1744781 C5.54206154,70.6759556 4.31501538,70.6443009 3.18433846,70.08118 C2.05283077,69.5180591 1.18218462,68.4268041 0.5724,66.807415 C0.178615385,65.7603101 0.00581538462,64.7781806 0.0573230769,63.8618596 C0.108,62.9455387 0.412892308,62.1575026 0.972830769,61.4969185 C1.53193846,60.8371674 2.22812308,60.3490182 3.05972308,60.034137 C4.10981538,59.6359539 5.07018462,59.5776426 5.93833846,59.857537 C6.80649231,60.1374314 7.51929231,60.732207 8.07673846,61.6418638 L6.57553846,62.4915433 C6.17843077,61.8976007 5.72566154,61.5094138 5.2164,61.3261496 C4.70713846,61.1437184 4.17876923,61.1553807 3.63212308,61.3619694 C2.80716923,61.6743516 2.24723077,62.2258102 1.95396923,63.0146792 C1.66153846,63.8035483 1.75707692,64.840657 2.24058462,66.1251724 C2.73073846,67.4280142 3.33636923,68.2801928 4.05747692,68.682541 C4.77692308,69.0848892 5.53790769,69.1340373 6.3396,68.8308184 C6.98344615,68.5875768 7.44618462,68.1860616 7.72864615,67.6271058 C8.01110769,67.066484 8.05430769,66.3542527 7.85990769,65.4887459 Z" id="Shape"></path>
                <path d="M17.6588308,62.2716262 L19.4325231,61.8401224 C19.5388615,62.9338764 19.3336615,63.8910153 18.8169231,64.7132051 C18.3010154,65.5345619 17.4818769,66.1576602 16.3578462,66.5833329 C14.9430462,67.1181312 13.6561846,67.1056359 12.4989231,66.5458471 C11.3408308,65.9860582 10.4652,64.9172948 9.8712,63.3403897 C9.25726154,61.7085053 9.19993846,60.2840427 9.6984,59.0653358 C10.1976923,57.847462 11.1140308,56.9852872 12.4507385,56.4796447 C13.7442462,55.9906625 14.9671385,56.0314804 16.1194154,56.6045975 C17.2716923,57.1777146 18.1489846,58.2648045 18.7512923,59.8658672 C18.7878462,59.9641634 18.8401846,60.1107748 18.9074769,60.3082003 L11.6930769,63.0380038 C12.1549846,64.0801106 12.7622769,64.7823457 13.5157846,65.144709 C14.2692923,65.5070723 15.0502154,65.5345619 15.8577231,65.2288439 C16.4592,65.0014297 16.9128,64.6490626 17.2176923,64.1717427 C17.5250769,63.6927568 17.6712923,63.0596623 17.6588308,62.2716262 Z M11.2752,61.651027 L16.6768615,59.6067982 C16.2963692,58.8187622 15.8602154,58.284797 15.3667385,58.0057356 C14.6057538,57.5700666 13.8090462,57.5100893 12.9782769,57.8249705 C12.2256,58.109863 11.6872615,58.6021772 11.3649231,59.3010802 C11.0425846,59.9999832 11.0118462,60.7838542 11.2752,61.651027 Z" id="Shape"></path>
                <path d="M22.5695077,63.9818144 L18.9182769,54.2821404 L20.3937231,53.7240176 L20.9470154,55.1942962 C21.0649846,54.3637762 21.2411077,53.7789969 21.4778769,53.4391251 C21.7138154,53.0992533 22.0236923,52.8568448 22.4058462,52.7118994 C22.9591385,52.5028116 23.5863692,52.4669918 24.2900308,52.60444 L24.3,54.3429508 C23.8098462,54.2571498 23.3645538,54.2904706 22.9632923,54.44208 C22.6052308,54.5778621 22.3244308,54.8077754 22.1200615,55.1318198 C21.9165231,55.4558642 21.8259692,55.8323889 21.8492308,56.2622267 C21.8866154,56.9153136 22.0361538,57.5892261 22.2970154,58.2831309 L24.2086154,63.3612152 L22.5695077,63.9818144 Z" id="Shape"></path>
                <path d="M34.6613538,58.0398894 C34.2484615,58.7871075 33.8015077,59.3735529 33.3204923,59.7992256 C32.8378154,60.2248984 32.2762154,60.5597721 31.6323692,60.8030136 C30.5698154,61.2053618 29.6551385,61.25451 28.8883385,60.949625 C28.1215385,60.64474 27.5856923,60.0874502 27.2808,59.2777557 C27.1013538,58.8037679 27.0465231,58.328114 27.1138154,57.8541261 C27.1811077,57.3801383 27.3447692,56.9577976 27.6048,56.5879371 C27.8648308,56.2180767 28.1913231,55.8898672 28.5817846,55.6033086 C28.8717231,55.3958869 29.3269846,55.1301538 29.9467385,54.8052763 C31.2103385,54.1455252 32.1142154,53.5890685 32.6575385,53.1325741 C32.5786154,52.9059929 32.5271077,52.7610476 32.5046769,52.7002372 C32.2521231,52.0304898 31.9198154,51.6173124 31.5069231,51.4598718 C30.9478154,51.2474519 30.2557846,51.2974331 29.43,51.6098152 C28.6590462,51.9022049 28.1406462,52.2529059 27.8756308,52.6627513 C27.6097846,53.0725967 27.5184,53.654877 27.6014769,54.4095923 L25.9158462,54.7969462 C25.8020308,54.0538931 25.8327692,53.4074704 26.0080615,52.8576778 C26.1825231,52.3078852 26.5430769,51.7989105 27.0888923,51.3315868 C27.6338769,50.8642631 28.3225846,50.4735772 29.1541846,50.158696 C29.9808,49.8463138 30.6877846,49.6897063 31.2776308,49.6897063 C31.8674769,49.6897063 32.3385231,49.7913346 32.6932615,49.9945912 C33.0471692,50.1978479 33.3578769,50.5060649 33.6245538,50.9200754 C33.7840615,51.1791444 34.0017231,51.6739577 34.2767077,52.4045154 L35.1016615,54.5961886 C35.6765538,56.1247785 36.0753231,57.0777524 36.2979692,57.456776 C36.5206154,57.8349667 36.8047385,58.1706734 37.1511692,58.4638961 L35.4381231,59.1119849 C35.1415385,58.8345896 34.8815077,58.4780574 34.6613538,58.0398894 Z M33.1427077,54.4187555 C32.6400923,54.8877452 31.8242769,55.4325397 30.6985846,56.0531389 C30.0605538,56.405506 29.6252308,56.6953966 29.3926154,56.9228108 C29.1583385,57.150225 29.0104615,57.4092939 28.9473231,57.7016836 C28.8825231,57.9940733 28.9057846,58.2822979 29.0129538,58.5688565 C29.1782769,59.0070245 29.4806769,59.3102435 29.9218154,59.4768473 C30.3629538,59.6434511 30.9021231,59.6059652 31.5401538,59.3652227 C32.1723692,59.1261462 32.6816308,58.7754452 33.0687692,58.3114536 C33.4559077,57.848295 33.6744,57.3326562 33.7242462,56.7645372 C33.7599692,56.3263692 33.6428308,55.7449219 33.3703385,55.0210283 L33.1427077,54.4187555 Z" id="Shape"></path>
                <path d="M39.1740923,57.6983516 L35.5228615,47.9986776 L36.9891692,47.4438869 L37.5017538,48.804207 C37.6263692,48.2144295 37.8872308,47.6796313 38.2818462,47.1998123 C38.6772923,46.7199933 39.1965231,46.358463 39.8395385,46.1143884 C40.5556615,45.8428242 41.1995077,45.7703516 41.7702462,45.8953044 C42.3418154,46.0194243 42.822,46.314313 43.2116308,46.7791376 C43.5505846,45.3571741 44.3331692,44.4141965 45.5602154,43.9502049 C46.5189231,43.5870086 47.3571692,43.5745133 48.0732923,43.911886 C48.7902462,44.2492587 49.3568308,44.9723193 49.7738769,46.0810677 L52.2811385,52.7393891 L50.6495077,53.3566562 L48.3499385,47.2464613 C48.1023692,46.5892093 47.8714154,46.1360469 47.6562462,45.8869742 C47.4410769,45.6379015 47.1602769,45.4779619 46.8138462,45.4071552 C46.4690769,45.3363486 46.1068615,45.3721684 45.7313538,45.5137817 C45.0509538,45.7720176 44.5716,46.2118517 44.2932923,46.8357829 C44.0149846,47.4597142 44.064,48.2702418 44.4386769,49.2690316 L46.5596308,54.9044056 L44.9196923,55.5250048 L42.5478462,49.2232156 C42.2728615,48.4926579 41.9322462,47.9953455 41.5276615,47.7312784 C41.1230769,47.4672114 40.6179692,47.449718 40.0098462,47.6796313 C39.5479385,47.8537322 39.1674462,48.1369587 38.8675385,48.5293107 C38.5668,48.9216627 38.4172615,49.3848213 38.4180923,49.9196195 C38.4180923,50.4552508 38.5842462,51.164983 38.9165538,52.0479832 L40.8107077,57.0802514 L39.1740923,57.6983516 Z" id="Shape"></path>
                <path d="M50.3944615,40.3165757 L49.6833231,38.4256225 L51.3232615,37.8050233 L52.0344,39.6959765 L50.3944615,40.3165757 Z M54.7219385,51.8147379 L51.0715385,42.1150639 L52.7106462,41.4944647 L56.3618769,51.1941387 L54.7219385,51.8147379 Z" id="Shape"></path>
                <path d="M63.8329846,44.3092361 L65.5236,43.909387 C65.7670154,45.089775 65.6448923,46.1327149 65.1564,47.0373736 C64.6679077,47.9420323 63.8952923,48.5951192 62.8385538,48.9941353 C61.5143077,49.4956128 60.2880923,49.4639581 59.1557538,48.9008372 C58.0250769,48.3377163 57.1544308,47.2456283 56.5438154,45.6262393 C56.1500308,44.5791343 55.9780615,43.5970048 56.0287385,42.6806838 C56.0802462,41.7635299 56.3851385,40.9763268 56.9442462,40.3157427 C57.5050154,39.6551586 58.2003692,39.1678424 59.0328,38.8529612 C60.0828923,38.4556111 61.0424308,38.3964668 61.9105846,38.6771942 C62.7804,38.9570886 63.4923692,39.5510312 64.0498154,40.460688 L62.5477846,41.3103675 C62.1506769,40.7164249 61.6979077,40.328238 61.1886462,40.1449738 C60.6793846,39.9617096 60.1510154,39.9742049 59.6043692,40.1807936 C58.7785846,40.4931758 58.2194769,41.0446344 57.9262154,41.8326704 C57.6337846,42.6215395 57.7284923,43.6586482 58.2128308,44.9431636 C58.7038154,46.2460054 59.3077846,47.099017 60.0288923,47.5013652 C60.7491692,47.9028804 61.5101538,47.9528615 62.3110154,47.6496426 C62.9548615,47.406401 63.4184308,47.0048858 63.7008923,46.44593 C63.9825231,45.8869742 64.0257231,45.1747429 63.8329846,44.3092361 Z" id="Shape"></path>
                <path d="M66.4391077,44.0743247 L67.9644,43.2054859 C68.3008615,43.822753 68.7428308,44.2259342 69.2886462,44.4158626 C69.8352923,44.6057909 70.4832923,44.5591418 71.2293231,44.2767484 C71.982,43.9918559 72.4837846,43.6269935 72.7321846,43.1813283 C72.9814154,42.7356631 73.0271077,42.3066583 72.8709231,41.8926478 C72.7313538,41.5211213 72.4605231,41.289542 72.0576,41.1987429 C71.7784615,41.1379325 71.1495692,41.1637561 70.1717538,41.2762137 C68.8549846,41.4269902 67.9228615,41.4786373 67.3745538,41.4328213 C66.8270769,41.3861722 66.3585231,41.2120712 65.9713846,40.9105183 C65.5825846,40.6081324 65.3001231,40.2199455 65.1223385,39.7451247 C64.9595077,39.3127878 64.9071692,38.8754528 64.9661538,38.4322866 C65.0243077,37.9891205 65.178,37.5817741 65.4272308,37.2094146 C65.6108308,36.9245221 65.8982769,36.6329654 66.2895692,36.3355776 C66.6800308,36.0381898 67.1278154,35.7941152 67.6312615,35.6033539 C68.3905846,35.3159623 69.0975692,35.173516 69.7547077,35.1760151 C70.4110154,35.1776811 70.9460308,35.3142962 71.3605846,35.5858605 C71.7743077,35.8565917 72.1514769,36.2864295 72.4904308,36.874541 L70.9701231,37.7008959 C70.7092615,37.2294071 70.3520308,36.919524 69.8967692,36.7712466 C69.4423385,36.6229692 68.8965231,36.6696183 68.2584923,36.9111938 C67.5058154,37.1960863 67.0148308,37.5242958 66.7872,37.8958223 C66.5595692,38.2673488 66.5080615,38.6197159 66.6335077,38.9554226 C66.7132615,39.1678424 66.8536615,39.3352793 67.0513846,39.454401 C67.2499385,39.5801869 67.5157846,39.6476614 67.8439385,39.6551586 C68.0316923,39.6543256 68.5658769,39.6110086 69.4506462,39.5268737 C70.7275385,39.3985887 71.6322462,39.3469415 72.1656,39.3710991 C72.6981231,39.3952567 73.1666769,39.5468661 73.5696,39.8259275 C73.9725231,40.1041559 74.2790769,40.5239975 74.4900923,41.0846193 C74.6961231,41.6319128 74.7310154,42.2091951 74.5939385,42.8131339 C74.4585231,43.4179057 74.1386769,43.9668653 73.6377231,44.4591796 C73.1367692,44.9514938 72.5062154,45.3413467 71.7468923,45.6287383 C70.4899385,46.1043922 69.4340308,46.2043545 68.5783385,45.9302912 C67.7226462,45.6562279 67.0081846,45.0339627 66.4391077,44.0743247 Z" id="Shape"></path>
                <path d="M82.6947692,41.2303977 L79.0435385,31.5307237 L80.5106769,30.9750999 L81.0232615,32.3362531 C81.1470462,31.7464756 81.4070769,31.2116774 81.8025231,30.7318584 C82.1971385,30.2520394 82.7163692,29.8896761 83.3602154,29.6464345 C84.0763385,29.3757033 84.7210154,29.3015646 85.2917538,29.4265175 C85.8624923,29.5514704 86.3426769,29.8463591 86.7323077,30.3111837 C87.0704308,28.8892202 87.8530154,27.9462426 89.0800615,27.482251 C90.0387692,27.1190547 90.8770154,27.1057264 91.5939692,27.4439321 C92.3100923,27.7813048 92.8775077,28.5035324 93.2945538,29.6122807 L95.8009846,36.2706021 L94.1701846,36.8870362 L91.8697846,30.7768414 C91.6222154,30.1195894 91.3912615,29.666427 91.1760923,29.4173543 C90.9609231,29.1682816 90.6809538,29.0083419 90.3345231,28.9375353 C89.9889231,28.8667287 89.6275385,28.9025485 89.2512,29.0449948 C88.5716308,29.3023977 88.0914462,29.7430647 87.8131385,30.366996 C87.5348308,30.9900943 87.5838462,31.8014549 87.9593538,32.8002447 L90.0803077,38.4356187 L88.4403692,39.0562179 L86.0685231,32.7544287 C85.7935385,32.0238709 85.4545846,31.5265586 85.0491692,31.2616585 C84.6437538,30.9967584 84.1386462,30.9800981 83.5313538,31.2100113 C83.0694462,31.3841123 82.6889538,31.6673388 82.3890462,32.0596908 C82.0899692,32.4512097 81.9387692,32.9143683 81.9396,33.4499996 C81.9404308,33.9856308 82.1065846,34.6945301 82.4397231,35.5775303 L84.3330462,40.6106315 L82.6947692,41.2303977 Z" id="Shape"></path>
                <path d="M104.095385,31.765635 C103.683323,32.5128531 103.236369,33.0992986 102.755354,33.5249713 C102.273508,33.950644 101.711077,34.2855177 101.068062,34.5287593 C100.005508,34.9302745 99.0908308,34.9794226 98.3232,34.6745376 C97.5572308,34.3696526 97.0205538,33.8131959 96.7164923,33.0026683 C96.5370462,32.5278475 96.4822154,32.0530266 96.5495077,31.5790388 C96.6168,31.1050509 96.7804615,30.6827102 97.0404923,30.3128498 C97.3005231,29.9438223 97.6261846,29.6147798 98.0183077,29.3273882 C98.3082462,29.1199665 98.7626769,28.8542334 99.3832615,28.529356 C100.646862,27.8696049 101.550738,27.3123151 102.094062,26.8566537 C102.015138,26.6292395 101.964462,26.4851272 101.940369,26.4234838 C101.688646,25.7537364 101.356338,25.340559 100.944277,25.1839514 C100.385169,24.9706985 99.6923077,25.0206797 98.8673538,25.3330618 C98.0955692,25.6254515 97.5771692,25.9761525 97.3121538,26.3859979 C97.0471385,26.7958433 96.9549231,27.3781236 97.0388308,28.1328389 L95.3532,28.5201928 C95.2393846,27.7771397 95.2701231,27.1307169 95.4454154,26.5809244 C95.6198769,26.0311318 95.9804308,25.5229902 96.5262462,25.0556665 C97.0704,24.5883428 97.7599385,24.1976568 98.5915385,23.8827756 C99.4173231,23.5703935 100.125138,23.4137859 100.714985,23.4129529 C101.304,23.4129529 101.775877,23.5145812 102.130615,23.7178378 C102.483692,23.9210945 102.7944,24.2301446 103.061908,24.643322 C103.220585,24.9023909 103.438246,25.3980373 103.713231,26.128595 L104.538185,28.3202682 C105.113077,29.8488582 105.512677,30.801832 105.733662,31.1808556 C105.956308,31.5590463 106.240431,31.895586 106.586031,32.1888087 L104.873815,32.8360645 C104.575569,32.5611682 104.315538,32.2038031 104.095385,31.765635 Z M102.577569,28.1453342 C102.074123,28.6143239 101.259138,29.1591184 100.134277,29.7797176 C99.4954154,30.1320846 99.0609231,30.4219753 98.8283077,30.6493895 C98.5940308,30.8768037 98.4461538,31.1367056 98.3821846,31.4290953 C98.3182154,31.721485 98.3406462,32.0097096 98.4486462,32.2962682 C98.6131385,32.7344362 98.9163692,33.0368221 99.3575077,33.204259 C99.7978154,33.3708628 100.337815,33.3342099 100.975015,33.0926344 C101.6064,32.8535579 102.115662,32.5028569 102.504462,32.0396983 C102.8916,31.5765397 103.110092,31.0609009 103.159108,30.4927819 C103.195662,30.0546139 103.077692,29.4731666 102.804369,28.74844 L102.577569,28.1453342 Z" id="Shape"></path>
                <path d="M108.589846,31.4315944 L104.939446,21.7319204 L106.414892,21.1737976 L106.968185,22.6440763 C107.086154,21.8135563 107.262277,21.2287769 107.499046,20.8889051 C107.735815,20.5490333 108.044862,20.3066248 108.427015,20.1616794 C108.980308,19.9525917 109.607538,19.9167718 110.312031,20.05422 L110.322,21.7927308 C109.831015,21.7069298 109.385723,21.7402506 108.985292,21.89186 C108.627231,22.0276422 108.3456,22.2567224 108.141231,22.5815998 C107.938523,22.9056442 107.847138,23.2821689 107.8704,23.7111737 C107.908615,24.3650937 108.058154,25.0390061 108.318185,25.732911 L110.229785,30.8109952 L108.589846,31.4315944 Z" id="Shape"></path>
                <polygon id="Shape" points="114.829754 29.0699853 109.791138 15.6808699 111.431077 15.0602707 114.304708 22.6957234 116.699815 17.2819325 118.822431 16.4789022 116.478831 21.4770166 122.846677 26.0377959 120.824585 26.8025074 115.760215 23.0530886 115.022492 24.6050031 116.469692 28.4502191"></polygon>
                <path d="M129.594185,19.9151058 L131.367046,19.4844349 C131.474215,20.578189 131.269015,21.5353279 130.752277,22.3566847 C130.236369,23.1780415 129.4164,23.8011397 128.292369,24.2268125 C126.8784,24.7624437 125.591538,24.7499485 124.433446,24.1893266 C123.275354,23.6295378 122.400554,22.5607744 121.807385,20.9838693 C121.192615,19.3519849 121.134462,17.9266893 121.633754,16.7088154 C122.133046,15.4909415 123.050215,14.6287668 124.386092,14.1231242 C125.678769,13.634142 126.901662,13.675793 128.053108,14.2480771 C129.205385,14.8211942 130.082677,15.9082841 130.685815,17.5093467 C130.722369,17.60681 130.773877,17.7534213 130.842,17.9508468 L123.6276,20.6806503 C124.089508,21.7227572 124.697631,22.4258253 125.451138,22.7873555 C126.203815,23.1488858 126.984738,23.1772085 127.791415,22.8714905 C128.393723,22.6440763 128.847323,22.2917092 129.153046,21.8135563 C129.4596,21.3370693 129.606646,20.7039749 129.594185,19.9151058 Z M123.211385,19.2945066 L128.612215,17.2502778 C128.232554,16.4614088 127.795569,15.9282766 127.302092,15.6483821 C126.541938,15.2127132 125.745231,15.1527358 124.913631,15.466784 C124.160954,15.7516765 123.621785,16.2439908 123.299446,16.9437268 C122.977108,17.6434628 122.946369,18.4273338 123.211385,19.2945066 Z" id="Shape"></path>
                <path d="M137.547969,18.7938621 L138.331385,20.1558483 C137.906031,20.4282455 137.512246,20.6331682 137.147538,20.7706164 C136.551877,20.9963646 136.055908,21.0763344 135.656308,21.0113589 C135.256708,20.9463834 134.932708,20.7856107 134.683477,20.5282078 C134.434246,20.271638 134.124369,19.6493727 133.753015,18.6639112 L131.652831,13.0835164 L130.450708,13.5383449 L129.969692,12.2596606 L131.171815,11.8048322 L130.267938,9.40323821 L131.527385,7.79967651 L132.802615,11.1883981 L134.450862,10.5644668 L134.932708,11.8431511 L133.283631,12.4670823 L135.417877,18.1382761 C135.594,18.6072659 135.736892,18.8979895 135.845723,19.0096141 C135.953723,19.1212386 136.087477,19.1928783 136.246985,19.2220339 C136.407323,19.2520226 136.610031,19.2212009 136.852615,19.1287358 C137.035385,19.0612613 137.267169,18.9488037 137.547969,18.7938621 Z" id="Shape"></path>
                <path d="M153.6732,12.671172 C153.449723,13.2776099 153.146492,13.8115751 152.761846,14.2730677 C152.3772,14.7345602 151.939385,15.0594377 151.447569,15.2452009 C150.907569,15.4501236 150.322708,15.4901085 149.692985,15.3668217 C149.063262,15.2435349 148.465938,14.9128263 147.900185,14.375529 C147.3336,13.8382317 146.903262,13.1776476 146.606677,12.3921106 C146.2428,11.4241425 146.124831,10.3612101 146.254431,9.20248062 C146.384031,8.0437511 146.723815,7.0824471 147.275446,6.31690258 C147.826246,5.55135806 148.447662,5.03821831 149.140523,4.77581731 C149.668892,4.57589273 150.224677,4.52341253 150.808708,4.61920972 C151.392738,4.71417389 151.965138,4.97990698 152.523415,5.41557595 L152.299938,3.88198785 L153.930738,3.26555374 L154.925169,9.89055437 C155.063908,10.8118735 155.150308,11.318349 155.1852,11.4099811 C155.246677,11.5740859 155.362985,11.6923746 155.531631,11.7640142 C155.701108,11.8356539 155.873908,11.8381529 156.050031,11.7715114 C156.372369,11.6498906 156.724615,11.3050207 157.105938,10.7352357 C157.6152,9.98635156 157.918431,9.12584287 158.013138,8.15370962 C158.108677,7.18157637 157.9932,6.2610903 157.665877,5.39058538 C157.282892,4.3734691 156.665631,3.52212361 155.814092,2.8357159 C154.963385,2.14930819 153.923262,1.73613074 152.694554,1.59535051 C151.465846,1.45540331 150.228831,1.62034109 148.983508,2.09182988 C147.562062,2.62996019 146.390677,3.45381605 145.466862,4.56506348 C144.543046,5.67631092 143.991415,6.9774867 143.813631,8.46692479 C143.635015,9.95719589 143.814462,11.4149793 144.350308,12.8394419 C144.911908,14.331379 145.718585,15.4934406 146.771169,16.3264597 C147.823754,17.1594787 149.058277,17.6018119 150.474738,17.653459 C151.892862,17.7051062 153.345046,17.4485364 154.832954,16.8862485 C156.423877,16.2839757 157.655077,15.511767 158.529046,14.5696225 C159.402185,13.6274779 159.961292,12.671172 160.2072,11.7023708 L161.855446,11.0784396 C161.786492,11.8348209 161.499877,12.6878324 160.997262,13.6358081 C160.494646,14.5837838 159.7968,15.4484576 158.902892,16.2281634 C158.009815,17.0078693 156.832615,17.6742845 155.367969,18.2282422 C154.019631,18.7388829 152.712,19.0354377 151.441754,19.1187396 C150.171508,19.2020415 149.005938,19.047933 147.942554,18.6539149 C146.878338,18.2598969 145.971969,17.6859468 145.224277,16.9328975 C144.281354,15.9749256 143.558585,14.8295244 143.0568,13.4958609 C142.497692,12.0105879 142.269231,10.4803319 142.369754,8.90425979 C142.490215,6.97415462 143.065938,5.31228158 144.098585,3.92030673 C145.132062,2.52749885 146.619969,1.4637335 148.563969,0.728177666 C150.070154,0.158392625 151.538954,-0.0448640268 152.970369,0.120073748 C154.402615,0.284178504 155.695292,0.847299392 156.847569,1.80943641 C157.833692,2.63995642 158.558954,3.67290006 159.024185,4.90910036 C159.687969,6.67510078 159.658892,8.47692101 158.936954,10.3162271 C158.294769,11.9647718 157.316954,13.0368674 156.006,13.5325137 C155.586462,13.6907873 155.225077,13.7549298 154.917692,13.7249411 C154.611969,13.6949524 154.351938,13.5841609 154.141754,13.3925665 C154.005508,13.2692797 153.848492,13.0285372 153.6732,12.671172 Z M148.333015,11.8648096 C148.647046,12.6986616 149.089015,13.2726118 149.657262,13.5858269 C150.227169,13.8998751 150.765508,13.9598525 151.2756,13.7665921 C151.616215,13.6383071 151.935231,13.4008967 152.235138,13.0543608 C152.535046,12.7078248 152.780954,12.2688238 152.972862,11.7373576 C153.164769,11.2058915 153.253662,10.5894574 153.238708,9.88888833 C153.224585,9.1883193 153.1008,8.52690216 152.868185,7.90630295 C152.556646,7.078282 152.109692,6.51349508 151.528154,6.21194217 C150.946615,5.91122229 150.360923,5.87123738 149.771908,6.09365347 C149.383108,6.24109784 149.055785,6.47767526 148.785785,6.80588477 C148.517446,7.13326126 148.304769,7.57726042 148.146923,8.13788225 C147.990738,8.69767107 147.932585,9.3282665 147.974954,10.0296686 C148.016492,10.7285715 148.136123,11.3408406 148.333015,11.8648096 Z" id="Shape"></path>
            </g>
            <g id="Group" transform="translate(255.000000, 83.000000)" fill="#000000">
                <path d="M5.84717073,12.5898222 L6.48487805,11.1888889 C5.26585366,11.9235556 4.0302439,11.9953333 2.77721951,11.4050667 C2.22492683,11.1441333 1.75804878,10.7936889 1.37741463,10.3520444 C0.99595122,9.9104 0.763756098,9.47213333 0.679170732,9.0364 C0.594585366,8.60066667 0.613658537,8.12355556 0.733902439,7.60675556 C0.814341463,7.25884444 1.01004878,6.7412 1.32268293,6.05213333 L4.00868293,0.142711111 L5.59590244,0.890888889 L3.19185366,6.18048889 C2.80873171,7.02493333 2.58234146,7.60844444 2.51434146,7.93271111 C2.42063415,8.4056 2.48034146,8.8388 2.69429268,9.234 C2.90741463,9.62835556 3.25239024,9.93826667 3.72839024,10.1628889 C4.20439024,10.3875111 4.7077561,10.4736444 5.23765854,10.4221333 C5.76839024,10.3697778 6.21785366,10.1713333 6.58521951,9.82511111 C6.95341463,9.47888889 7.32243902,8.89791111 7.69229268,8.08386667 L10.0150732,2.97413333 L11.6022927,3.72231111 L7.26770732,13.2594667 L5.84717073,12.5898222 Z" id="Shape"></path>
                <path d="M9.75468293,14.4307111 L14.0892683,4.89355556 L15.5189268,5.56657778 L14.9019512,6.92275556 C16.0662439,6.19991111 17.2985366,6.14417778 18.5971707,6.7564 C19.1619024,7.0224 19.6337561,7.37031111 20.013561,7.79928889 C20.3925366,8.22911111 20.6239024,8.66653333 20.7068293,9.11324444 C20.7897561,9.55995556 20.7731707,10.0353778 20.6570732,10.5403556 C20.5799512,10.8671556 20.3709756,11.4050667 20.0309756,12.1532444 L17.3657073,18.0179111 L15.7784878,17.2697333 L18.415561,11.4684 C18.7140976,10.8097333 18.8766341,10.2887111 18.9015122,9.90364444 C18.9263902,9.51942222 18.8252195,9.15546667 18.5996585,8.81262222 C18.3740976,8.46977778 18.0490244,8.19871111 17.6252683,7.99942222 C16.9494146,7.68106667 16.2660976,7.62448889 15.5769756,7.82968889 C14.8870244,8.03573333 14.2650732,8.74844444 13.7094634,9.97035556 L11.3427317,15.1788889 L9.75468293,14.4307111 Z" id="Shape"></path>
                <path d="M24.946878,7.86262222 L25.7919024,6.004 L27.3799512,6.75217778 L26.5340976,8.6108 L24.946878,7.86262222 Z M19.8087317,19.1688889 L24.1433171,9.63173333 L25.7305366,10.3799111 L21.3959512,19.9170667 L19.8087317,19.1688889 Z" id="Shape"></path>
                <path d="M27.935561,21.2436889 L27.5159512,22.7797333 C27.0250244,22.6648889 26.6037561,22.5247111 26.2513171,22.3583556 C25.6758049,22.0864444 25.2702927,21.7832889 25.0372683,21.4480444 C24.8042439,21.1128 24.6914634,20.7632 24.6997561,20.4000889 C24.7080488,20.0369778 24.9319512,19.3698667 25.3739512,18.4004444 L27.867561,12.9132444 L26.7040976,12.3652 L27.2746341,11.1078222 L28.4389268,11.6567111 L29.512,9.2948 L31.5320976,9.06848889 L30.0178537,12.3998222 L31.6141951,13.1522222 L31.0436585,14.4096 L29.4473171,13.6572 L26.9122439,19.2339111 C26.702439,19.6949778 26.5954634,20.0048889 26.5913171,20.1628 C26.5871707,20.3207111 26.631122,20.4684889 26.7215122,20.6061333 C26.8127317,20.7437778 26.9760976,20.8679111 27.2116098,20.9785333 C27.3857561,21.0612889 27.6279024,21.1499556 27.935561,21.2436889 Z" id="Shape"></path>
                <path d="M39.0958537,19.5894222 C38.5493659,19.0337778 38.2193171,18.4536444 38.1098537,17.8481778 C37.9987317,17.2435556 38.0882927,16.6237333 38.3760488,15.9895556 C38.8114146,15.0319556 39.5154634,14.3859556 40.4881951,14.0515556 C41.4609268,13.7171556 42.509122,13.8151111 43.6319512,14.3445778 C44.7605854,14.8765778 45.516878,15.6382667 45.9016585,16.6304889 C46.286439,17.6227111 46.261561,18.5972 45.8253659,19.5548 C45.547561,20.1653333 45.1495122,20.6230222 44.629561,20.9261778 C44.1096098,21.2301778 43.4727317,21.3534667 42.7205854,21.2968889 C43.3947805,21.9344444 43.8060976,22.6437778 43.952878,23.4257333 C44.1013171,24.2076889 43.9893659,25.0065333 43.6195122,25.8197333 C43.1086829,26.9453778 42.2877073,27.7070667 41.1565854,28.1048 C40.027122,28.5025333 38.8238537,28.4012 37.5476098,27.7999556 C36.2713659,27.1987111 35.4180488,26.3289333 34.9851707,25.1914667 C34.553122,24.054 34.5979024,22.9097778 35.1203415,21.7604889 C35.5092683,20.9042222 36.0482927,20.2877778 36.7365854,19.9111556 C37.4265366,19.5353778 38.2118537,19.4281333 39.0958537,19.5894222 Z M36.7473659,22.5399111 C36.5383902,23.0009778 36.4430244,23.4975111 36.4612683,24.0295111 C36.4795122,24.5615111 36.6478537,25.0462222 36.9629756,25.4819556 C37.2789268,25.9185333 37.6802927,26.2512444 38.1679024,26.4809333 C38.9266829,26.8381333 39.6663902,26.8854222 40.3853659,26.6211111 C41.1051707,26.3568 41.6400488,25.8416889 41.9883415,25.0749333 C42.3416098,24.2972 42.3805854,23.5329778 42.1027805,22.7848 C41.8258049,22.0366222 41.3050244,21.4818222 40.540439,21.1220889 C39.7940976,20.7699556 39.0610244,20.7302667 38.3412195,21.0013333 C37.6222439,21.2724 37.0915122,21.7858222 36.7473659,22.5399111 Z M40.0229756,16.7014222 C39.7401951,17.3237778 39.7053659,17.9258667 39.9201463,18.5068444 C40.1349268,19.0878222 40.5561951,19.5260889 41.1847805,19.8224889 C41.7959512,20.1104444 42.3863902,20.1509778 42.9560976,19.9432444 C43.5258049,19.7355111 43.9396098,19.3470667 44.1975122,18.7787556 C44.4670244,18.1859556 44.4919024,17.5931556 44.2729756,16.9986667 C44.0540488,16.4050222 43.6443902,15.9667556 43.0456585,15.6838667 C42.4402927,15.3984444 41.8473659,15.3596 41.2677073,15.5656444 C40.6880488,15.7716889 40.2725854,16.15 40.0229756,16.7014222 Z" id="Shape"></path>
                <path d="M52.5026341,32.6901333 L51.7960976,34.2439111 L43.2496585,30.2167556 C43.4146829,29.8215556 43.646878,29.4770222 43.9454146,29.1814667 C44.4321951,28.6908444 45.0458537,28.2711556 45.7863902,27.9224 C46.5269268,27.5736444 47.5212195,27.2350222 48.7700976,26.9073778 C50.7080976,26.3964889 52.0805366,25.9143111 52.8857561,25.4616889 C53.6918049,25.0082222 54.2324878,24.4770667 54.5102927,23.8665333 C54.8021951,23.2256 54.8220976,22.5796 54.5724878,21.9276889 C54.3220488,21.2757778 53.8360976,20.7792444 53.1121463,20.4380889 C52.3483902,20.0783556 51.6310732,20.0234667 50.9593659,20.2742667 C50.2884878,20.5250667 49.7627317,21.0621333 49.3812683,21.8854667 L47.8272195,20.9456 C48.5022439,19.7591556 49.3522439,19.0126667 50.3763902,18.7069778 C51.4005366,18.4012889 52.5275122,18.5372444 53.7556585,19.1165333 C54.9962439,19.7008889 55.818878,20.5140889 56.2243902,21.5561333 C56.6290732,22.5973333 56.5959024,23.636 56.1257073,24.6712889 C55.8860488,25.1982222 55.5452195,25.6660444 55.1023902,26.0756 C54.659561,26.4851556 54.0641463,26.8550222 53.3178049,27.1860444 C52.5714634,27.5170667 51.4038537,27.9055111 49.8174634,28.3496889 C48.4947805,28.7153333 47.6323415,28.9796444 47.2301463,29.1417778 C46.8279512,29.3039111 46.4713659,29.4913778 46.1620488,29.7016444 L52.5026341,32.6901333 Z" id="Shape"></path>
                <path d="M55.0650732,31.5974222 L56.7974146,32.2392 C56.5453171,33.1233333 56.5494634,33.8799556 56.8106829,34.5082222 C57.0719024,35.1364889 57.518878,35.6000889 58.1540976,35.8990222 C58.9186829,36.2596 59.6981951,36.2705778 60.4942927,35.9336444 C61.289561,35.5967111 61.9081951,34.9431111 62.3485366,33.9728444 C62.7681463,33.0507111 62.844439,32.2037333 62.5774146,31.4310667 C62.3112195,30.6584 61.765561,30.0782667 60.9429268,29.6906667 C60.4312683,29.4491556 59.9162927,29.3503556 59.3971707,29.3925778 C58.8780488,29.4348 58.4144878,29.5893333 58.0081463,29.8561778 L56.6083415,28.956 L60.9338049,22.7839556 L67.363122,25.8138222 L66.661561,27.3591556 L61.5018537,24.928 L59.1973171,28.1377333 C60.223122,27.9528 61.1626829,28.0608889 62.0151707,28.4628444 C63.1438049,28.9948444 63.9158537,29.8418222 64.3296585,31.0037778 C64.7434634,32.1657333 64.6663415,33.3724444 64.0982927,34.6239111 C63.5567805,35.8154222 62.7474146,36.6843556 61.6710244,37.2315556 C60.3574634,37.9062667 58.9833659,37.9062667 57.5487317,37.2298667 C56.3728293,36.6759111 55.565122,35.8880444 55.126439,34.8671111 C54.6885854,33.8444889 54.6678537,32.7551556 55.0650732,31.5974222 Z" id="Shape"></path>
            </g>
        </g>
    </g>
</svg>