<?xml version="1.0" encoding="UTF-8"?>
<svg width="387px" height="589px" viewBox="0 0 387 589" version="1.1" xmlns="http://www.w3.org/2000/svg" xmlns:xlink="http://www.w3.org/1999/xlink">
    <!-- Generator: Sketch 51.3 (57544) - http://www.bohemiancoding.com/sketch -->
    <title>b3</title>
    <desc>Created with Sketch.</desc>
    <defs></defs>
    <g id="Page-1" stroke="none" stroke-width="1" fill="none" fill-rule="evenodd">
        <g id="b3" fill-rule="nonzero">
            <g id="Group" fill="#FFB9C1">
                <path d="M386.262352,301.690669 C386.262352,294.951977 386.65478,288.185843 386.178383,281.483169 C385.22559,268.040087 383.832388,254.629593 382.557427,241.213953 C382.231833,237.785436 381.974784,234.30718 381.167652,230.97814 C378.175608,218.649884 375.524581,206.227297 371.773388,194.091134 C365.943529,175.22657 360.161652,156.348285 354.299233,137.495727 C353.091106,133.607558 351.834996,129.712529 350.232727,125.978721 C343.739683,110.861686 337.166097,95.7772384 330.489692,80.7390988 C327.744414,74.5646802 324.34452,68.7847384 319.434894,63.9789826 C314.737762,59.3721802 310.210282,54.5887209 305.662238,49.8378488 C302.709608,46.7575 299.302859,44.279157 295.75559,41.9603198 C280.394374,31.9354651 264.517348,22.8007558 248.273599,14.2989244 C246.748445,13.5048256 245.168454,12.8102035 243.571326,12.184186 C235.383476,8.96834302 226.818621,7.04055233 218.289753,5.03386628 C211.599639,3.45767442 204.811846,2.27767442 198.04633,1.00162791 C196.838203,0.771802326 195.549533,0.867848837 194.307132,0.953604651 C189.154167,1.29834302 184.008057,1.77514535 178.851665,2.06156977 C170.879736,2.50921512 162.900952,2.81965116 154.927308,3.23813953 C149.297947,3.5297093 143.653163,3.71494186 138.049507,4.27406977 C131.82722,4.89665698 125.586084,5.60328488 119.452907,6.79700581 C111.470696,8.34918605 103.575881,10.3610174 95.6673568,12.271657 C84.0076388,15.0913081 73.2510176,20.1440407 62.746304,25.797064 C60.4945595,27.007936 58.6986476,28.6630233 57.2009119,30.7503198 C53.5473965,35.8425 49.844185,40.8986628 46.0724273,45.9050872 C38.7893877,55.5714826 32.4351498,65.7781395 27.3901454,76.8131977 C25.4228678,81.1164244 23.8840044,85.5242733 22.7478502,90.093343 C22.0298282,92.983314 21.3700705,95.8818605 20.6434802,98.7684012 C15.8229648,117.898808 11.0144449,137.037791 6.14594714,156.161337 C5.45362996,158.884942 4.71161674,161.649709 3.52919383,164.181221 C2.166837,167.095203 1.42482379,170.081221 1.31514978,173.23189 C1.02554185,181.375262 0.732506608,189.520349 0.607409692,197.665436 C0.348647577,214.633081 2.46672687,231.453227 3.91133921,248.307674 C4.82300441,258.920814 5.99343172,269.516802 7.22555066,280.097355 C8.2023348,288.494564 9.31107048,296.886628 10.6117357,305.240959 C12.5156079,317.471453 14.8239031,329.640203 16.6352379,341.879273 C19.617,362.028459 22.3280044,382.218808 25.1743877,402.385145 C27.9350881,421.939186 30.9494097,441.446919 36.1812026,460.534448 C37.0088987,463.553052 37.6686564,466.624826 38.5888899,469.615988 C40.2031542,474.855669 42.0881762,480.013023 43.620185,485.27157 C44.8197445,489.396424 46.7544626,493.106221 49.071326,496.666802 C49.8407577,497.846802 50.7455683,498.946192 51.4464537,500.163924 C57.6944449,511.044622 64.686163,521.431366 71.7995507,531.752936 C80.2564449,544.021163 89.3936608,555.745698 99.2540396,566.90939 C101.663441,569.64157 104.355595,571.958692 107.707507,573.505727 C109.978101,574.548517 112.135595,575.841715 114.342784,577.02686 C119.031348,579.542936 123.726767,582.047006 128.406762,584.576802 C131.074925,586.015785 133.86133,586.82875 136.939057,586.796163 C139.437568,586.765291 141.946361,586.974535 144.441445,587.199215 C153.328467,588.010465 162.215489,588.730814 171.150493,588.81314 C178.430106,588.881744 185.50922,587.847529 192.401546,585.58186 C203.845344,581.824041 215.275432,578.014767 226.681529,574.15061 C236.457938,570.83186 246.210357,567.463372 255.93707,564.003983 C257.972894,563.280203 259.953881,562.249419 261.761789,561.057413 C266.998722,557.618605 272.184247,554.102616 277.287515,550.468285 C280.601727,548.115145 283.879952,545.664244 286.907982,542.961221 C295.351167,535.425 302.865551,527.002064 309.540242,517.884506 C326.579128,494.612093 342.606956,470.663924 356.785749,445.522035 C358.089841,443.208343 359.359661,440.841483 360.297031,438.36657 C363.074868,431.029302 365.168956,423.477645 366.87233,415.819651 C367.830264,411.540436 368.81733,407.266366 369.821533,402.995727 C373.07748,389.120436 376.52193,375.289738 379.577379,361.36814 C383.894079,341.728343 386.001877,321.798692 386.262352,301.690669 Z" id="Shape"></path>
                <path d="M386.262352,301.690669 C386.00359,321.800407 383.892366,341.728343 379.579093,361.375 C376.520216,375.291453 373.079194,389.125581 369.819819,403.002587 C368.819044,407.269797 367.828551,411.543866 366.874044,415.826512 C365.165529,423.487936 363.076581,431.036163 360.298744,438.37343 C359.361374,440.844913 358.091555,443.215203 356.787463,445.528895 C342.605242,470.670785 326.580841,494.618953 309.541956,517.889651 C302.863837,527.008924 295.352881,535.433576 286.909696,542.968081 C283.878238,545.671105 280.600013,548.118576 277.289229,550.475145 C272.18596,554.109477 267.000436,557.625465 261.763502,561.064273 C259.950454,562.251134 257.972894,563.287064 255.935357,564.010843 C246.21207,567.470233 236.459652,570.838721 226.683242,574.157471 C215.277145,578.021628 203.847057,581.830901 192.40326,585.588721 C185.510934,587.85439 178.430106,588.888605 171.152207,588.82 C162.217203,588.732529 153.330181,588.01218 144.443159,587.206076 C141.948075,586.977965 139.440996,586.772151 136.940771,586.803023 C133.863044,586.83561 131.078352,586.022645 128.408476,584.583663 C123.72848,582.048721 119.034775,579.544651 114.344498,577.033721 C112.137308,575.853721 109.981529,574.560523 107.70922,573.512587 C104.357308,571.970698 101.666868,569.64843 99.2557533,566.91625 C89.3953744,555.752558 80.2581586,544.028023 71.8012643,531.759797 C64.6878767,521.438227 57.6961586,511.051483 51.4481674,500.170785 C50.7472819,498.953052 49.8424714,497.853663 49.0730396,496.673663 C46.7561762,493.119942 44.8214581,489.40843 43.6218987,485.27843 C42.0898899,480.019884 40.2048678,474.860814 38.5906035,469.622849 C37.6686564,466.631686 37.0106123,463.559913 36.1829163,460.541308 C30.9511233,441.455494 27.9368018,421.947762 25.1761013,402.392006 C22.3280044,382.222238 19.6187137,362.03532 16.6369515,341.886134 C14.8256167,329.643634 12.5173216,317.478314 10.6134493,305.24782 C9.31278414,296.893488 8.20404846,288.50314 7.22726432,280.104215 C5.99514537,269.523663 4.82471806,258.927674 3.91305286,248.314535 C2.46844053,231.458372 0.350361233,214.636512 0.609123348,197.672297 C0.732506608,189.527209 1.02554185,181.382122 1.31686344,173.23875 C1.4282511,170.088081 2.16855066,167.103779 3.53090749,164.188081 C4.7133304,161.65657 5.45534361,158.891802 6.14766079,156.169913 C11.0161586,137.046366 15.8246784,117.902238 20.6434802,98.766686 C21.3700705,95.8801453 22.0298282,92.9798837 22.7478502,90.0916279 C23.8857181,85.5225581 25.4228678,81.1164244 27.3901454,76.8097674 C32.4351498,65.7764244 38.7893877,55.5697674 46.0724273,45.9033721 C49.844185,40.8986628 53.5473965,35.8407849 57.2009119,30.7486047 C58.6986476,28.6613081 60.4945595,27.0062209 62.746304,25.7953488 C73.2527313,20.1406105 84.0093524,15.089593 95.6673568,12.2699419 C103.575881,10.3593023 111.47241,8.34575581 119.452907,6.7952907 C125.58437,5.60671512 131.825507,4.89837209 138.049507,4.27063953 C143.654877,3.71151163 149.297947,3.52284884 154.927308,3.2347093 C162.900952,2.81965116 170.879736,2.50578488 178.851665,2.05642442 C184.008057,1.76828488 189.154167,1.29662791 194.307132,0.948459302 C195.549533,0.864418605 196.838203,0.770087209 198.04633,0.996482558 C204.806705,2.26738372 211.594498,3.45252907 218.289753,5.02872093 C226.818621,7.03540698 235.383476,8.96319767 243.571326,12.1790407 C245.173595,12.8050581 246.748445,13.5013953 248.273599,14.2937791 C264.517348,22.7956105 280.396088,31.9286047 295.75559,41.9551744 C299.304573,44.2740116 302.714749,46.7489244 305.662238,49.8327035 C310.210282,54.5852907 314.736048,59.36875 319.434894,63.9721221 C324.341093,68.7847384 327.747841,74.5646802 330.489692,80.7322384 C337.166097,95.7703779 343.739683,110.854826 350.232727,125.97186 C351.836709,129.707384 353.091106,133.602413 354.299233,137.490581 C360.161652,156.341424 365.943529,175.221424 371.773388,194.085988 C375.522868,206.220436 378.175608,218.641308 381.167652,230.972994 C381.974784,234.298605 382.226692,237.782006 382.557427,241.208808 C383.832388,254.622733 385.229018,268.036657 386.178383,281.478023 C386.653066,288.185843 386.262352,294.953692 386.262352,301.690669 Z" id="Shape"></path>
            </g>
            <g id="Group" transform="translate(61.000000, 53.000000)" fill="#000000">
                <path d="M13.1244277,96.5714559 L11.9389182,95.9313971 C12.5513459,97.0325735 12.5496352,98.163 11.9303648,99.3243971 C11.5300629,100.076294 10.9535597,100.656132 10.2059874,101.065632 C9.4567044,101.473412 8.61846541,101.650632 7.69469182,101.599015 C6.76920755,101.547397 5.82661635,101.261779 4.86349686,100.742162 C3.92603774,100.236309 3.15793711,99.6203382 2.56090566,98.89425 C1.96387421,98.1681618 1.63028931,97.3818529 1.55672956,96.5336029 C1.4848805,95.6870735 1.65423899,94.8749559 2.06822642,94.0989706 C2.37101887,93.5294559 2.7610566,93.0889853 3.23662893,92.7723971 C3.71220126,92.4575294 4.21685535,92.2631029 4.74716981,92.1925588 L0.0923773585,89.6822206 L0.940880503,88.0923971 L13.9147673,95.0883088 L13.1244277,96.5714559 Z M5.73766038,99.099 C6.94198742,99.7476618 7.97695597,99.9782206 8.84427673,99.7906765 C9.71159748,99.6031324 10.3308679,99.1609412 10.6986667,98.4675441 C11.0715975,97.7689853 11.1023899,97.02225 10.7944654,96.2256176 C10.4865409,95.4289853 9.74752201,94.7166618 8.5791195,94.0869265 C7.29267925,93.3935294 6.21665409,93.1337206 5.34933333,93.3057794 C4.48201258,93.4778382 3.85418868,93.9303529 3.46586164,94.6581618 C3.08779874,95.3687647 3.06042767,96.1189412 3.38374843,96.9069706 C3.70877987,97.6967206 4.49398742,98.4279706 5.73766038,99.099 Z" id="Shape"></path>
                <path d="M4.29554717,86.3993382 L2.48734591,85.3669853 L3.37861635,83.7892059 L5.18681761,84.8215588 L4.29554717,86.3993382 Z M15.2918742,92.6743235 L6.01650314,87.3817941 L6.90777358,85.8040147 L16.1831447,91.0965441 L15.2918742,92.6743235 Z" id="Shape"></path>
                <path d="M14.4194214,87.7293529 L15.0729057,86.0362941 C15.7434969,86.3115882 16.3576352,86.3477206 16.9170314,86.1429706 C17.4781384,85.9382206 17.9639748,85.4788235 18.3779623,84.7647794 C18.7953711,84.0438529 18.9578868,83.4244412 18.8672201,82.9048235 C18.7765535,82.3852059 18.5353459,82.0101176 18.1418868,81.7795588 C17.7877736,81.5730882 17.4216855,81.5644853 17.0402013,81.75375 C16.7767547,81.8879559 16.2909182,82.3181029 15.5826918,83.0459118 C14.6281258,84.0266471 13.916478,84.6770294 13.4477484,84.9987794 C12.9790189,85.3205294 12.4914717,85.4857059 11.9868176,85.4960294 C11.4821635,85.5063529 11.0014591,85.38075 10.5515472,85.1157794 C10.1409811,84.8748971 9.81423899,84.5583088 9.57474214,84.1642941 C9.33524528,83.7702794 9.19154717,83.3435735 9.14877987,82.8824559 C9.11114465,82.5331765 9.15049057,82.1116324 9.27023899,81.6178235 C9.38998742,81.1240147 9.58842767,80.6353676 9.86727044,80.1536029 C10.2881006,79.4275147 10.7602516,78.8511176 11.2871447,78.4244118 C11.8140377,77.9959853 12.328956,77.7568235 12.8370314,77.7052059 C13.3433962,77.6518676 13.9250314,77.7499412 14.5785157,78.0011471 L13.8993711,79.6563529 C13.3844528,79.4481618 12.8969057,79.4343971 12.4384403,79.6116176 C11.9799748,79.7888382 11.5728302,80.1845735 11.2204277,80.7936618 C10.8030189,81.5128676 10.6251069,82.0978676 10.6849811,82.5435 C10.7448553,82.9908529 10.9330314,83.3074412 11.2512201,83.4932647 C11.4547925,83.6119853 11.673761,83.655 11.9098365,83.6205882 C12.151044,83.5913382 12.4059371,83.4726176 12.6745157,83.2627059 C12.8233459,83.1405441 13.2236478,82.7568529 13.8754214,82.1116324 C14.8128805,81.1756324 15.5022893,80.5424559 15.9436478,80.2138235 C16.3850063,79.8869118 16.8588679,79.7010882 17.3618113,79.6615147 C17.8647547,79.6219412 18.3830943,79.7578676 18.9151195,80.0692941 C19.4351698,80.3738382 19.8388931,80.8143088 20.1211572,81.3889853 C20.4051321,81.9636618 20.5060629,82.6106029 20.4256604,83.33325 C20.3452579,84.0558971 20.0937862,84.7802647 19.672956,85.5063529 C18.9767044,86.7090441 18.1983396,87.4798676 17.3361509,87.8188235 C16.4688302,88.1577794 15.4988679,88.1268088 14.4194214,87.7293529 Z" id="Shape"></path>
                <path d="M22.7693082,71.7949853 L23.8504654,70.3617353 C24.8170063,71.1428824 25.4037736,72.0547941 25.6073459,73.0974706 C25.8126289,74.1401471 25.6261635,75.1707794 25.0479497,76.1842059 C24.324327,77.4557206 23.3287044,78.2403088 22.0610818,78.53625 C20.7934591,78.8321912 19.3872704,78.53625 17.840805,77.6449853 C16.841761,77.0703088 16.0616855,76.3992794 15.5005786,75.6353382 C14.9394717,74.8713971 14.665761,74.0420735 14.6794465,73.1473676 C14.6914214,72.2509412 14.9257862,71.4044118 15.3791195,70.6060588 C15.9539119,69.5977941 16.6775346,68.9181618 17.5516981,68.5688824 C18.4258616,68.2196029 19.3821384,68.2247647 20.4205283,68.5826471 L19.7841509,70.2498971 C19.0793459,70.0365441 18.4652075,70.0262206 17.9400252,70.2154853 C17.4148428,70.40475 17.0042767,70.7626324 16.7049057,71.2874118 C16.253283,72.0806029 16.1694591,72.8875588 16.4551447,73.71 C16.7391195,74.5324412 17.4935346,75.2946618 18.7201006,76.0018235 C19.9637736,76.7175882 21.0038742,76.9980441 21.8386918,76.8449118 C22.6752201,76.6917794 23.3115975,76.2289412 23.7495346,75.4598382 C24.1019371,74.8421471 24.2062893,74.2158529 24.0643019,73.5861176 C23.9206038,72.9546618 23.4895094,72.3576176 22.7693082,71.7949853 Z" id="Shape"></path>
                <path d="M22.7487799,68.6153382 C21.0534843,67.59675 20.0783899,66.36825 19.8269182,64.9315588 C19.6182138,63.7340294 19.8525786,62.56575 20.5283019,61.4301618 C21.2792956,60.16725 22.3057107,59.3826618 23.6075472,59.0763971 C24.907673,58.7701324 26.2864906,59.05575 27.7405786,59.9298088 C28.9175346,60.6386912 29.7386667,61.3733824 30.2039748,62.1338824 C30.6675723,62.8943824 30.8848302,63.7271471 30.8557484,64.6287353 C30.8266667,65.5303235 30.5734843,66.3837353 30.0962013,67.1855294 C29.331522,68.4725294 28.3033962,69.264 27.0101132,69.5633824 C25.7134088,69.8593235 24.2935346,69.5444559 22.7487799,68.6153382 Z M23.6999245,67.0134706 C24.8717484,67.7189118 25.9032956,67.9890441 26.7911447,67.8273088 C27.6807044,67.6655735 28.3564277,67.1941324 28.8183145,66.4164265 C29.2784906,65.6438824 29.3674465,64.8231618 29.0868931,63.9577059 C28.8063396,63.09225 28.0656101,62.2973382 26.8647044,61.5746912 C25.7322264,60.8933382 24.7229182,60.6369706 23.8316478,60.8021471 C22.9420881,60.9673235 22.2680755,61.4336029 21.8130314,62.2009853 C21.349434,62.9786912 21.2553459,63.7994118 21.5307673,64.6631471 C21.804478,65.5251618 22.5281006,66.30975 23.6999245,67.0134706 Z" id="Shape"></path>
                <path d="M35.199195,58.8664853 L24.1789182,55.9019118 L25.2925786,54.3482206 L31.8103145,56.2374265 C32.5151195,56.4421765 33.228478,56.6761765 33.9521006,56.9445882 C33.589434,56.4834706 33.1720252,55.9036324 32.6998742,55.2033529 L28.8029182,49.4479853 L29.8874969,47.9355882 L36.1862642,57.4934559 L35.199195,58.8664853 Z" id="Shape"></path>
                <path d="M41.5407296,45.3443824 L42.931522,44.0745882 C43.5661887,45.0140294 43.8535849,45.9844412 43.7902893,46.9875441 C43.7269937,47.9889265 43.2941887,48.9610588 42.4867421,49.9022206 C41.4705912,51.0894265 40.3021887,51.7157206 38.9781132,51.7793824 C37.6557484,51.8447647 36.336805,51.3079412 35.021283,50.1706324 C33.661283,48.99375 32.9068679,47.7291176 32.7580377,46.3750147 C32.6092075,45.0226324 33.0129308,43.7855294 33.9726289,42.6637059 C34.9015346,41.5797353 36.0271698,41.0119412 37.3512453,40.9603235 C38.6753208,40.9087059 40.0045283,41.4627353 41.3405786,42.61725 C41.4209811,42.6877941 41.5407296,42.7961912 41.6981132,42.9407206 L36.5198491,48.9920294 C37.4504654,49.7095147 38.3468679,50.04675 39.2073459,50.0020147 C40.0678239,49.9572794 40.7863145,49.5959559 41.366239,48.9180441 C41.7973333,48.4139118 42.0351195,47.8702059 42.0761761,47.2834853 C42.1189434,46.7019265 41.9393208,46.0549853 41.5407296,45.3443824 Z M35.4609308,47.9441912 L39.3390692,43.4138824 C38.6068931,42.8856618 37.9482767,42.61725 37.3649308,42.6086471 C36.4616855,42.5897206 35.7124025,42.9286765 35.1153711,43.6272353 C34.5747925,44.2586912 34.3318742,44.9727353 34.383195,45.7676471 C34.4345157,46.5608382 34.7954717,47.2869265 35.4609308,47.9441912 Z" id="Shape"></path>
                <path d="M46.7668931,44.7955147 L39.2158994,37.2197647 L40.3620629,36.0635294 L41.5065157,37.2111618 C41.2635975,36.3783971 41.1814843,35.7521029 41.2584654,35.3305588 C41.3354465,34.9090147 41.5219119,34.5494118 41.8195723,34.2500294 C42.248956,33.8181618 42.8237484,33.5153382 43.542239,33.3432794 L44.291522,34.9761176 C43.7937107,35.1051618 43.3916981,35.3271176 43.0803522,35.6402647 C42.8015094,35.9207206 42.6355723,36.2579559 42.5825409,36.65025 C42.5295094,37.0425441 42.6047799,37.4365588 42.8083522,37.8305735 C43.1231195,38.4310588 43.5490818,39.0005735 44.0896604,39.5425588 L48.0430692,43.5085147 L46.7668931,44.7955147 Z" id="Shape"></path>
                <path d="M60.2659623,31.0497353 C60.0880503,31.9134706 59.8280252,32.6309559 59.4841761,33.19875 C59.140327,33.7682647 58.6904151,34.2706765 58.1310189,34.7077059 C57.208956,35.4303529 56.3228176,35.7589853 55.4760252,35.6936029 C54.6292327,35.6282206 53.9312704,35.2428088 53.3838491,34.5356471 C53.062239,34.1209853 52.8637987,33.6701912 52.7851069,33.1798235 C52.7064151,32.6911765 52.7389182,32.2231765 52.8809057,31.7792647 C53.0228931,31.3353529 53.2418616,30.9103676 53.539522,30.5060294 C53.7602013,30.2135294 54.1262893,29.8109118 54.6377862,29.2981765 C55.6795975,28.2589412 56.3980881,27.4313382 56.7932579,26.8153676 C56.6461384,26.6140588 56.5520503,26.4884559 56.5109937,26.4351176 C56.0576604,25.8518382 55.604327,25.5438529 55.1509937,25.5163235 C54.5368553,25.4784706 53.8696855,25.7382794 53.1546164,26.3009118 C52.4857358,26.8256912 52.0837233,27.3315441 51.9468679,27.8184706 C51.8100126,28.3053971 51.8989686,28.9076029 52.2120252,29.6268088 L50.6741132,30.5266765 C50.3353962,29.8263971 50.1677484,29.1794559 50.1711698,28.5824118 C50.1745912,27.9870882 50.3730314,27.3728382 50.7682013,26.7448235 C51.1616604,26.1150882 51.7193459,25.5180441 52.4412579,24.9519706 C53.1580377,24.3893382 53.8063899,24.0176912 54.3863145,23.8370294 C54.966239,23.6563676 55.4606289,23.6116324 55.871195,23.7028235 C56.281761,23.7957353 56.6820629,24.0039265 57.0703899,24.3308382 C57.3081761,24.5390294 57.6725535,24.9605735 58.1669434,25.5971912 L59.6484025,27.5087647 C60.6816604,28.8405 61.3659371,29.6612206 61.699522,29.9657647 C62.0331069,30.2720294 62.4163019,30.5163529 62.8456855,30.6987353 L61.3590943,31.8635735 C60.9793208,31.6880735 60.6166541,31.4162206 60.2659623,31.0497353 Z M57.664,27.9423529 C57.3115975,28.5600441 56.6769308,29.3480735 55.76,30.3064412 C55.2399497,30.8501471 54.9012327,31.2699706 54.7404277,31.5659118 C54.5813333,31.8618529 54.5146164,32.1646765 54.5402767,32.4709412 C54.5676478,32.7789265 54.6771321,33.0576618 54.8704403,33.3071471 C55.1663899,33.6891176 55.5581384,33.8955882 56.0422642,33.9248382 C56.5263899,33.9540882 57.0464403,33.7510588 57.5989937,33.3174706 C58.1464151,32.8873235 58.5415849,32.3849118 58.7810818,31.8085147 C59.0205786,31.2321176 59.0770314,30.6557206 58.9521509,30.0793235 C58.8546415,29.6354118 58.5604025,29.0985882 58.069434,28.4654118 L57.664,27.9423529 Z" id="Shape"></path>
                <path d="M69.0281258,26.6037353 L63.8259119,17.2402941 L65.2440755,16.4436618 L65.984805,17.7753971 C66.096,16.3627941 66.795673,15.2943088 68.0855346,14.5699412 C68.6449308,14.2550735 69.2163019,14.0675294 69.7979371,14.0055882 C70.3795723,13.9453676 70.8790943,14.0124706 71.2947925,14.2120588 C71.7122013,14.4099265 72.0919748,14.7093088 72.4358239,15.1084853 C72.6565031,15.3700147 72.9712704,15.8672647 73.3801258,16.6019559 L76.5791195,22.3590441 L75.005283,23.2451471 L71.8405031,17.5482794 C71.4812579,16.9030588 71.152805,16.4522647 70.8517233,16.2010588 C70.5506415,15.9498529 70.1913962,15.8156471 69.7739874,15.8001618 C69.3548679,15.7846765 68.9374591,15.8947941 68.5166289,16.1305147 C67.8460377,16.5073235 67.3858616,17.0475882 67.1378113,17.7495882 C66.8880503,18.4533088 67.0984654,19.4030735 67.7639245,20.6023235 L70.6053836,25.7159118 L69.0281258,26.6037353 Z" id="Shape"></path>
                <path d="M84.1027421,15.2461324 L85.9092327,14.7282353 C86.063195,15.8552206 85.8938365,16.8531618 85.3960252,17.7220588 C84.8982138,18.5926765 84.0805031,19.2705882 82.9428931,19.7557941 C81.5093333,20.3666029 80.1852579,20.4061765 78.9706667,19.8762353 C77.7560755,19.3445735 76.8100629,18.2760882 76.1326289,16.6707794 C75.432956,15.0086912 75.3132075,13.5393088 75.776805,12.2591912 C76.2386918,10.9790735 77.1470692,10.0516765 78.5002264,9.47355882 C79.8106164,8.91436765 81.0713962,8.90748529 82.2808553,9.45291176 C83.4903145,9.99661765 84.4380377,11.08575 85.1257358,12.7151471 C85.1667925,12.8149412 85.2266667,12.9646324 85.3036478,13.1659412 L77.9955723,16.2819265 C78.5139119,17.3400882 79.1691069,18.0420882 79.9594465,18.3844853 C80.7497862,18.7268824 81.5538113,18.7251618 82.3732327,18.3758824 C82.982239,18.1160735 83.4338616,17.7341029 83.7281006,17.22825 C84.0223396,16.7206765 84.1472201,16.0599706 84.1027421,15.2461324 Z M77.5080252,14.8658824 L82.9805283,12.5327647 C82.5562767,11.7326912 82.0858365,11.1993088 81.5657862,10.9308971 C80.7651824,10.5127941 79.9423396,10.4818235 79.1006792,10.8414265 C78.3377107,11.1666176 77.8056855,11.6982794 77.5011824,12.4329706 C77.1966792,13.1711029 77.1983899,13.9815 77.5080252,14.8658824 Z" id="Shape"></path>
                <path d="M90.7487799,16.4780735 L84.7664906,7.01311765 L86.562717,6.51242647 L89.8369811,12.0269118 L91.0549937,14.0761324 C91.0498616,13.9591324 91.0327547,13.1986324 91.0002516,11.7963529 L90.9677484,5.28736765 L92.7537107,4.79011765 L95.9390189,10.3596618 L96.9945157,12.1938088 L97.0355723,10.0344706 L97.1501887,3.5685 L98.8403522,3.09877941 L98.4742642,14.3290588 L96.671195,14.8314706 L93.3370566,9.09502941 L92.4560503,7.44326471 L92.5655346,15.9739412 L90.7487799,16.4780735 Z" id="Shape"></path>
                <path d="M110.195925,12.4278088 L106.064604,2.00964706 L107.922415,1.85479412 L110.120654,7.88373529 L110.940075,10.1256618 C110.957182,10.0103824 111.080352,9.26020588 111.307874,7.87513235 L112.477987,1.47282353 L114.325535,1.31797059 L116.426264,7.38476471 L117.125937,9.38408824 L117.563874,7.26948529 L118.870843,0.937720588 L120.61917,0.791470588 L118.186566,11.7585 L116.318491,11.9150735 L114.101434,5.65385294 L113.540327,3.86616176 L112.074264,12.2695147 L110.195925,12.4278088 Z" id="Shape"></path>
                <path d="M129.737157,10.0723235 C129.07683,10.6538824 128.440453,11.0685441 127.826314,11.3145882 C127.212176,11.5589118 126.550138,11.6879559 125.841912,11.6982794 C124.671799,11.7154853 123.770264,11.4419118 123.133887,10.8758382 C122.495799,10.3097647 122.170767,9.58023529 122.158792,8.68380882 C122.150239,8.15902941 122.261434,7.67726471 122.492377,7.23851471 C122.72161,6.80148529 123.027824,6.44876471 123.407597,6.17863235 C123.789082,5.91022059 124.218465,5.70547059 124.695748,5.56266176 C125.049862,5.46286765 125.581887,5.36479412 126.295245,5.265 C127.749333,5.06885294 128.818516,4.84345588 129.502792,4.58880882 C129.504503,4.33932353 129.506214,4.18275 129.504503,4.11392647 C129.492528,3.37407353 129.314616,2.85445588 128.969057,2.55679412 C128.502038,2.15417647 127.812629,1.95802941 126.904252,1.97351471 C126.055748,1.98555882 125.431346,2.14557353 125.031044,2.45183824 C124.632453,2.75810294 124.339925,3.29148529 124.158591,4.05542647 L122.391447,3.84035294 C122.540277,3.07813235 122.79517,2.45872059 123.154415,1.98555882 C123.515371,1.51239706 124.040553,1.14419118 124.731673,0.880941176 C125.422792,0.617691176 126.225107,0.478323529 127.140327,0.464558824 C128.048704,0.450794118 128.789434,0.547147059 129.360805,0.753617647 C129.932176,0.960088235 130.354717,1.22505882 130.626717,1.54680882 C130.898717,1.87027941 131.092025,2.27805882 131.206642,2.77530882 C131.271648,3.08501471 131.310994,3.64248529 131.321258,4.45116176 L131.357182,6.87547059 C131.382843,8.56508824 131.437585,9.63357353 131.521409,10.0792059 C131.605233,10.5265588 131.764327,10.9532647 131.996981,11.3610441 L130.111799,11.3902941 C129.925333,11.0152059 129.798742,10.5764559 129.737157,10.0723235 Z M129.525031,6.01345588 C128.874969,6.29391176 127.894742,6.53651471 126.589484,6.74642647 C125.848755,6.86514706 125.326994,6.99419118 125.02078,7.13355882 C124.714566,7.27292647 124.481912,7.47423529 124.317686,7.73576471 C124.153459,7.99729412 124.074767,8.28635294 124.079899,8.60294118 C124.086742,9.08814706 124.274918,9.48904412 124.644428,9.80735294 C125.013937,10.1256618 125.549384,10.2787941 126.250767,10.2684706 C126.945308,10.2581471 127.561157,10.0946912 128.098314,9.77982353 C128.635472,9.46495588 129.025509,9.03997059 129.271849,8.50486765 C129.460025,8.09192647 129.54727,7.48455882 129.535296,6.68276471 L129.525031,6.01345588 Z" id="Shape"></path>
                <path d="M136.944302,11.5726765 L133.440805,0.653823529 L135.341384,0.750176471 L137.301836,7.28152941 C137.513962,7.98697059 137.703849,8.71822059 137.873208,9.47527941 C138.061384,8.91780882 138.319698,8.25022059 138.64644,7.47079412 L141.339069,1.05472059 L143.190038,1.14935294 L138.625912,11.6569853 L136.944302,11.5726765 Z" id="Shape"></path>
                <path d="M151.630591,9.48560294 L153.450767,9.95188235 C153.023094,11.0031618 152.374742,11.7808676 151.512553,12.2815588 C150.646943,12.78225 149.601711,12.9543088 148.375145,12.7994559 C146.832101,12.6033088 145.665409,11.9684118 144.880201,10.8947647 C144.098415,9.82111765 143.81444,8.41883824 144.031698,6.68964706 C144.255799,4.89851471 144.887044,3.5685 145.925434,2.69616176 C146.963824,1.82382353 148.21434,1.47970588 149.67356,1.66552941 C151.08317,1.84447059 152.176302,2.47592647 152.951245,3.55989706 C153.722767,4.64214706 153.999899,6.06163235 153.77922,7.81835294 C153.765535,7.92502941 153.743296,8.08504412 153.709082,8.29839706 L145.831346,7.29701471 C145.750943,8.47561765 145.968201,9.41161765 146.479698,10.1084559 C146.991195,10.8035735 147.689157,11.2096324 148.571874,11.3214706 C149.227069,11.4040588 149.808704,11.3025441 150.31678,11.0134853 C150.824855,10.7244265 151.262792,10.2134118 151.630591,9.48560294 Z M146.120453,5.82247059 L152.017208,6.57264706 C152.051421,5.66761765 151.909434,4.96733824 151.592956,4.47180882 C151.112252,3.70442647 150.416,3.26223529 149.507623,3.14695588 C148.686491,3.042 147.957736,3.23126471 147.329912,3.71475 C146.698667,4.19995588 146.298365,4.90195588 146.120453,5.82247059 Z" id="Shape"></path>
                <path d="M161.155723,9.24988235 C161.663799,7.32970588 162.568755,6.05130882 163.872302,5.40952941 C164.962013,4.87786765 166.140679,4.78323529 167.410013,5.12219118 C168.826465,5.50072059 169.859723,6.27670588 170.511497,7.45014706 C171.159849,8.62358824 171.269333,10.0344706 170.833107,11.6793529 C170.482415,13.0128088 170.005132,14.0090294 169.40639,14.6680147 C168.807648,15.3252794 168.073761,15.76575 167.201308,15.9859853 C166.328855,16.2062206 165.447849,16.1958971 164.548025,15.9550147 C163.107623,15.5696029 162.069233,14.7936176 161.424302,13.6253382 C160.781082,12.4587794 160.695547,10.9997206 161.155723,9.24988235 Z M162.946818,9.72992647 C162.596126,11.0565 162.623497,12.1284265 163.020377,12.9422647 C163.420679,13.7561029 164.058767,14.2791618 164.927799,14.5131618 C165.793409,14.7437206 166.602566,14.6043529 167.35356,14.0950588 C168.102843,13.5857647 168.657107,12.6497647 169.018063,11.2905 C169.355069,10.0086618 169.325987,8.96082353 168.920553,8.14526471 C168.51683,7.32970588 167.885585,6.80836765 167.026818,6.57780882 C166.154365,6.34380882 165.346918,6.47973529 164.597635,6.98386765 C163.848352,7.48627941 163.297509,8.40163235 162.946818,9.72992647 Z" id="Shape"></path>
                <path d="M171.609761,17.8252941 L174.624,9.01932353 L173.113459,8.49798529 L173.571925,7.16108824 L175.079044,7.68242647 L175.450264,6.60361765 C175.684629,5.92226471 175.913862,5.43705882 176.148226,5.14627941 C176.466415,4.75742647 176.880403,4.49589706 177.388478,4.36169118 C177.896553,4.22748529 178.524377,4.28942647 179.270239,4.54751471 C179.750943,4.71441176 180.26244,4.95357353 180.803019,5.27016176 L180.034918,6.68104412 C179.701333,6.49522059 179.376302,6.34725 179.063245,6.23713235 C178.544906,6.05819118 178.141182,6.04270588 177.850365,6.19067647 C177.556126,6.33864706 177.309786,6.71889706 177.099371,7.33142647 L176.777761,8.26742647 L178.738214,8.94705882 L178.28317,10.2839559 L176.319296,9.60432353 L173.308478,18.4102941 L171.609761,17.8252941 Z" id="Shape"></path>
                <path d="M189.452277,21.0531176 L190.952553,22.0304118 C190.25117,23.0593235 189.392403,23.7148676 188.37283,23.9987647 C187.353258,24.2826618 186.318289,24.1742647 185.269635,23.6701324 C183.952403,23.0403971 183.100478,22.0992353 182.713862,20.8500882 C182.322113,19.6009412 182.513711,18.1676912 183.27839,16.5503382 C183.77278,15.5059412 184.378365,14.6731765 185.096855,14.0520441 C185.811925,13.4326324 186.614239,13.0953971 187.502088,13.0403382 C188.388226,12.9852794 189.246994,13.1556176 190.074969,13.5513529 C191.11678,14.0520441 191.845535,14.7265147 192.256101,15.5764853 C192.666667,16.4264559 192.733384,17.3848235 192.459673,18.4533088 L190.759245,17.9405735 C190.916629,17.2179265 190.878994,16.6002353 190.651472,16.0892206 C190.42395,15.5782059 190.040755,15.1927941 189.495044,14.9312647 C188.675623,14.53725 187.868176,14.5148824 187.076126,14.8624412 C186.280654,15.21 185.57927,16.0238382 184.973686,17.3056765 C184.356126,18.6064412 184.154264,19.6714853 184.371522,20.4973676 C184.585358,21.32325 185.093434,21.9288971 185.888906,22.3091471 C186.526994,22.6154118 187.154818,22.6739118 187.770667,22.4846471 C188.389937,22.2971029 188.947623,21.8187794 189.452277,21.0531176 Z" id="Shape"></path>
                <path d="M198.479597,26.7000882 L199.973031,27.8477206 C199.167296,28.6460735 198.272604,29.10375 197.280403,29.2241912 C196.291623,29.3429118 195.261786,29.0899853 194.192604,28.4619706 C192.849711,27.6722206 192.026868,26.6278235 191.724075,25.3305 C191.422994,24.0331765 191.71039,22.6326176 192.586264,21.1271029 C193.49122,19.5699706 194.591195,18.5943971 195.887899,18.2021029 C197.184604,17.8098088 198.467623,17.9870294 199.736956,18.7337647 C200.966943,19.4564118 201.72478,20.4681176 202.012176,21.7688824 C202.299572,23.0696471 202.001912,24.4856912 201.110642,26.0135735 C201.05761,26.1064853 200.973786,26.2441324 200.860881,26.4265147 L194.007849,22.3951765 C193.472403,23.4464559 193.306465,24.3927794 193.506616,25.2358676 C193.703346,26.0789559 194.187472,26.7258971 194.957283,27.1766912 C195.525233,27.5122059 196.103447,27.6481324 196.68166,27.58275 C197.259874,27.5173676 197.858616,27.2248676 198.479597,26.7000882 Z M194.844377,21.1546324 L199.973031,24.1725441 C200.357937,23.3535441 200.501635,22.6532647 200.404126,22.0734265 C200.260428,21.177 199.793409,20.4956471 199.001358,20.0310882 C198.286289,19.6095441 197.543849,19.4977059 196.77917,19.6938529 C196.011069,19.8917206 195.366138,20.3786471 194.844377,21.1546324 Z" id="Shape"></path>
                <path d="M200.027774,31.7964706 L206.004931,22.9113529 L207.347824,23.8267059 L206.442868,25.1739265 C207.210969,24.7764706 207.806289,24.5768824 208.233962,24.5734412 C208.658214,24.57 209.046541,24.687 209.393811,24.9244412 C209.898465,25.2668382 210.302189,25.7778529 210.60327,26.4540441 L209.149182,27.5001618 C208.928503,27.0338824 208.637686,26.676 208.273308,26.4282353 C207.946566,26.2062794 207.58561,26.1047647 207.19044,26.1271324 C206.798692,26.1477794 206.429182,26.2974706 206.081912,26.5727647 C205.55673,26.9943088 205.079447,27.52425 204.651774,28.1591471 L201.524629,32.8116176 L200.027774,31.7964706 Z" id="Shape"></path>
                <path d="M211.852075,38.7579706 C210.976201,38.8027059 210.221786,38.7304412 209.587119,38.5394559 C208.955874,38.3484706 208.357132,38.0370441 207.796025,37.6034559 C206.867119,36.8876912 206.326541,36.1099853 206.176,35.2686176 C206.025459,34.42725 206.222189,33.6512647 206.764478,32.9406618 C207.082667,32.5242794 207.465862,32.2162941 207.917484,32.0149853 C208.369107,31.8153971 208.825862,31.7293676 209.29117,31.7568971 C209.753057,31.7827059 210.216654,31.8911029 210.681962,32.0786471 C211.018969,32.2214559 211.497962,32.4743824 212.118943,32.8425882 C213.381434,33.5944853 214.358239,34.0848529 215.05278,34.3136912 C215.206742,34.1209853 215.305962,33.9971029 215.347019,33.9437647 C215.79522,33.3553235 215.974843,32.8374265 215.887597,32.3883529 C215.77127,31.7809853 215.35044,31.1994265 214.628528,30.6419559 C213.956226,30.1223382 213.369459,29.8590882 212.868226,29.8487647 C212.363572,29.8401618 211.805887,30.0776029 211.193459,30.5628088 L209.937811,29.2912941 C210.526289,28.7854412 211.107925,28.46025 211.682717,28.3122794 C212.257509,28.1660294 212.895597,28.2038824 213.600403,28.4292794 C214.305208,28.6529559 215.020277,29.04525 215.749031,29.6061618 C216.470943,30.1619118 216.989283,30.6987353 217.309182,31.2183529 C217.630792,31.7379706 217.800151,32.2076912 217.813836,32.6309559 C217.827522,33.0542206 217.726591,33.4946912 217.509333,33.9575294 C217.372478,34.2397059 217.057711,34.7025441 216.566742,35.3426029 L215.104101,37.2679412 C214.081107,38.61 213.463547,39.4806176 213.256553,39.8832353 C213.046138,40.2858529 212.905862,40.7194412 212.839145,41.184 L211.342289,40.0312059 C211.41756,39.6165441 211.588629,39.1915588 211.852075,38.7579706 Z M214.18717,35.4441176 C213.506314,35.2565735 212.585962,34.83675 211.434667,34.1863676 C210.779472,33.8181618 210.288503,33.5927647 209.965182,33.5118971 C209.641862,33.4310294 209.333937,33.4413529 209.043119,33.5463088 C208.752302,33.6512647 208.511094,33.8284853 208.321208,34.0796912 C208.026969,34.4651029 207.929459,34.8969706 208.023547,35.3752941 C208.117635,35.8536176 208.440956,36.3078529 208.998642,36.738 C209.549484,37.1629853 210.131119,37.4193529 210.745258,37.5071029 C211.359396,37.5948529 211.930767,37.5053824 212.452528,37.2386912 C212.856252,37.0322206 213.29761,36.6106765 213.781736,35.9740588 L214.18717,35.4441176 Z" id="Shape"></path>
                <path d="M214.377057,42.3780882 L221.50722,34.4014412 L222.709836,35.4871324 L221.707371,36.6055147 C222.306113,36.4386176 222.91683,36.4248529 223.541233,36.5590588 C224.165635,36.6932647 224.740428,36.9995294 225.269031,37.4761324 C225.857509,38.0060735 226.22873,38.5635441 226.380981,39.1485441 C226.538365,39.7335441 226.493887,40.3151029 226.257811,40.8949412 C227.715321,40.5301765 228.947019,40.8003088 229.949484,41.7087794 C230.734692,42.4193824 231.141836,43.1833235 231.17605,44.0040441 C231.206843,44.8247647 230.811673,45.6902206 229.999094,46.6021324 L225.104805,52.0770441 L223.772176,50.8709118 L228.262742,45.8467941 C228.743447,45.3065294 229.051371,44.8781029 229.174541,44.5597941 C229.301132,44.2432059 229.314818,43.9094118 229.213887,43.5566912 C229.116377,43.2039706 228.912805,42.8891029 228.606591,42.6103676 C228.048906,42.1079559 227.421082,41.8756765 226.717987,41.9169706 C226.014893,41.9582647 225.298113,42.3884118 224.565937,43.2091324 L220.422642,47.8426765 L219.079748,46.6296618 L223.714013,41.44725 C224.249459,40.8467647 224.541987,40.2978971 224.593308,39.7989265 C224.644629,39.2999559 224.418818,38.8267941 223.921006,38.3777206 C223.542943,38.0370441 223.105006,37.82025 222.607195,37.7325 C222.105962,37.6430294 221.611572,37.7256176 221.124025,37.9819853 C220.636478,38.2366324 220.065107,38.7287206 219.416755,39.4530882 L215.718239,43.5911029 L214.377057,42.3780882 Z" id="Shape"></path>
                <path d="M226.830893,53.9421618 L234.342541,46.3268382 L235.62556,47.6052353 L228.113912,55.2205588 L226.830893,53.9421618 Z M235.735044,44.9142353 L237.197686,43.4293676 L238.480704,44.7077647 L237.018063,46.1926324 L235.735044,44.9142353 Z" id="Shape"></path>
                <path d="M237.596277,59.4755735 L238.634667,60.9397941 C237.60483,61.6383529 236.56644,61.9308529 235.517786,61.8190147 C234.465711,61.7071765 233.543648,61.2236912 232.751597,60.3685588 C231.755975,59.2966324 231.304352,58.1094265 231.401862,56.8035 C231.49595,55.4975735 232.190491,54.2346618 233.494038,53.0130441 C234.335698,52.2232941 235.20473,51.6709853 236.094289,51.3595588 C236.98556,51.0481324 237.854591,51.0292059 238.703094,51.3062206 C239.548176,51.5832353 240.283774,52.0581176 240.908176,52.7308676 C241.696805,53.5808382 242.127899,54.4772647 242.201459,55.4201471 C242.275019,56.3630294 241.987623,57.2801029 241.33927,58.1713676 L239.946767,57.06675 C240.357333,56.4525 240.548931,55.8640588 240.524981,55.3048676 C240.49761,54.7439559 240.280352,54.2432647 239.869786,53.8010735 C239.252226,53.1317647 238.509786,52.8134559 237.644176,52.8427059 C236.778566,52.8719559 235.829132,53.3726471 234.797585,54.3413382 C233.748931,55.3237941 233.174138,56.2408676 233.073208,57.0891176 C232.972277,57.9373676 233.223748,58.6858235 233.824201,59.3344853 C234.304906,59.8558235 234.869434,60.1414412 235.510943,60.1913382 C236.152453,60.2412353 236.846994,60.0020735 237.596277,59.4755735 Z" id="Shape"></path>
                <path d="M245.063447,73.8046324 C244.218365,73.5620294 243.527245,73.2488824 242.988377,72.86175 C242.449509,72.4746176 241.985912,71.9859706 241.592453,71.3923676 C240.944101,70.4133529 240.684075,69.5014412 240.810667,68.6566324 C240.937258,67.8118235 241.371774,67.1407941 242.114214,66.6435441 C242.54873,66.3527647 243.012327,66.1858676 243.501585,66.1428529 C243.992553,66.0998382 244.45444,66.1669412 244.885535,66.3424412 C245.316629,66.5179412 245.720352,66.7708676 246.098415,67.0977794 C246.372126,67.3421029 246.746767,67.7395588 247.213786,68.2884265 C248.166642,69.41025 248.934742,70.1913971 249.516377,70.6335882 C249.726792,70.5011029 249.860226,70.4167941 249.916679,70.3789412 C250.527396,69.9677206 250.866113,69.5358529 250.925987,69.0833382 C251.009811,68.4708088 250.799396,67.7825735 250.298164,67.0220735 C249.827723,66.3114706 249.352151,65.871 248.881711,65.6989412 C248.41127,65.5268824 247.805686,65.5698971 247.066667,65.8314265 L246.288302,64.2209559 C247.006792,63.9336176 247.661987,63.8131765 248.252176,63.8613529 C248.842365,63.9095294 249.437686,64.1538529 250.029585,64.5960441 C250.624906,65.0365147 251.175748,65.6404412 251.683824,66.4061029 C252.188478,67.1666029 252.508377,67.8445147 252.646943,68.4398382 C252.785509,69.0351618 252.790642,69.5341324 252.670893,69.9401912 C252.547723,70.3445294 252.309937,70.7299412 251.959245,71.0964265 C251.735145,71.3183824 251.290365,71.6538971 250.623195,72.1029706 L248.618264,73.44675 C247.218918,74.3844706 246.35673,75.0107647 246.028277,75.3221912 C245.699824,75.6336176 245.429535,76.0001029 245.215698,76.4182059 L244.170465,74.8404265 C244.375748,74.4739412 244.671698,74.1298235 245.063447,73.8046324 Z M248.337711,71.4250588 C247.749233,71.0276029 247.015346,70.3324853 246.132629,69.3414265 C245.631396,68.7805147 245.241358,68.4088676 244.959094,68.2264853 C244.678541,68.0441029 244.380881,67.9546324 244.076377,67.9580735 C243.768453,67.9615147 243.481057,68.0527059 243.221031,68.2282059 C242.82073,68.4966176 242.586365,68.8734265 242.523069,69.3569118 C242.456352,69.8403971 242.620579,70.3772206 243.007195,70.9639412 C243.395522,71.5455 243.862541,71.9773676 244.416805,72.2595441 C244.971069,72.5417206 245.535597,72.6432353 246.117233,72.5606471 C246.565434,72.4952647 247.119698,72.2388971 247.785157,71.7949853 L248.337711,71.4250588 Z" id="Shape"></path>
                <path d="M246.101836,78.1387941 L255.45761,72.9907941 L256.235975,74.4240441 L254.819522,75.2051912 C255.681711,75.2051912 256.302692,75.3015441 256.680755,75.49425 C257.062239,75.6869559 257.353057,75.9691324 257.556629,76.3407794 C257.847447,76.8776029 257.974038,77.5176618 257.934692,78.2592353 L256.167547,78.5190441 C256.184654,78.0045882 256.087145,77.5520735 255.873308,77.1632206 C255.686843,76.8156618 255.411421,76.5592941 255.052176,76.3975588 C254.694642,76.2341029 254.297761,76.19625 253.863245,76.2822794 C253.201208,76.4164853 252.537459,76.6659706 251.868579,77.0358971 L246.970868,79.7303382 L246.101836,78.1387941 Z" id="Shape"></path>
                <path d="M252.373233,86.9172353 L251.047447,87.8463529 C250.729258,87.4316912 250.48634,87.0428382 250.31527,86.6780735 C250.031296,86.0844706 249.908126,85.5786176 249.937208,85.1605147 C249.966289,84.7424118 250.104855,84.3948529 250.347774,84.1143971 C250.588981,83.8339412 251.199698,83.4588529 252.174792,82.9891324 L257.710591,80.3291029 L257.13922,79.1281324 L258.408553,78.5190441 L258.979925,79.7200147 L261.362918,78.5741029 L263.116377,79.7320588 L259.751447,81.3476912 L260.536654,82.9942941 L259.267321,83.6033824 L258.485535,81.9567794 L252.859069,84.6615441 C252.395472,84.8852206 252.108075,85.0572794 252.003723,85.1794412 C251.89595,85.3016029 251.836075,85.4461324 251.820679,85.61475 C251.803572,85.7833676 251.854893,85.9881176 251.967799,86.2307206 C252.056755,86.4113824 252.19361,86.6402206 252.373233,86.9172353 Z" id="Shape"></path>
                <path d="M251.57605,89.1643235 L261.381736,84.9471618 L262.089962,86.6161324 L252.284277,90.8332941 L251.57605,89.1643235 Z M263.198491,84.1642941 L265.109333,83.3418529 L265.81756,85.0108235 L263.906717,85.8332647 L263.198491,84.1642941 Z" id="Shape"></path>
                <path d="M256.028981,91.3959265 L256.904855,92.9840294 C256.266767,93.3264265 255.845937,93.7789412 255.645786,94.3432941 C255.445635,94.9076471 255.484981,95.5769559 255.765535,96.3529412 C256.049509,97.1358088 256.42073,97.6588676 256.874063,97.9203971 C257.329107,98.1836471 257.768755,98.2352647 258.196428,98.0786912 C258.581333,97.9376029 258.82083,97.6588676 258.921761,97.2442059 C258.988478,96.9551471 258.96795,96.3047647 258.865308,95.2896176 C258.725031,93.9251912 258.682264,92.9582206 258.738717,92.3904265 C258.791748,91.8226324 258.976503,91.3408676 259.28956,90.9416912 C259.607748,90.5425147 260.00805,90.2534559 260.499019,90.0745147 C260.94722,89.9110588 261.397132,89.8611618 261.852176,89.9265441 C262.30722,89.9919265 262.724629,90.1553824 263.104403,90.4169118 C263.39522,90.6113382 263.689459,90.9124412 263.993962,91.3202206 C264.295044,91.728 264.537962,92.1942794 264.72956,92.7190588 C265.016956,93.5070882 265.153811,94.2435 265.143547,94.9231324 C265.133283,95.6027647 264.989585,96.1550735 264.70561,96.5817794 C264.421635,97.0084853 263.973434,97.3938971 263.366138,97.7380147 L262.534742,96.1550735 C263.022289,95.8901029 263.347321,95.5236176 263.502994,95.0538971 C263.658667,94.5841765 263.619321,94.0181029 263.379824,93.3556765 C263.095849,92.5728088 262.762264,92.0617941 262.384201,91.8209118 C262.002717,91.58175 261.641761,91.5249706 261.294491,91.6522941 C261.073811,91.7331618 260.902742,91.87425 260.776151,92.079 C260.646138,92.2854706 260.572579,92.5590441 260.562314,92.8997206 C260.558893,93.0924265 260.598239,93.6481765 260.671799,94.56525 C260.788126,95.8901029 260.832604,96.8261029 260.801811,97.3784118 C260.767597,97.9307206 260.608503,98.4142059 260.317686,98.8288676 C260.026868,99.2435294 259.588931,99.5566765 259.010717,99.7683088 C258.446189,99.9765 257.850868,100.00575 257.233308,99.8577794 C256.612327,99.7098088 256.05122,99.3742941 255.553409,98.8495147 C255.052176,98.3247353 254.658717,97.6674706 254.371321,96.8777206 C253.897459,95.5700735 253.806792,94.4757794 254.101031,93.5913971 C254.391849,92.7070147 255.03678,91.9757647 256.028981,91.3959265 Z" id="Shape"></path>
                <path d="M259.330616,106.055338 L257.883371,106.779706 C257.630189,106.32375 257.445434,105.902206 257.325686,105.516794 C257.132377,104.887059 257.081057,104.369162 257.175145,103.959662 C257.265811,103.551882 257.452277,103.226691 257.729409,102.985809 C258.009962,102.743206 258.668579,102.46275 259.703547,102.141 L265.567799,100.318897 L265.17605,99.0473824 L266.518943,98.6292794 L266.910692,99.9007941 L269.433962,99.1162059 L271.000956,100.518485 L267.439296,101.624824 L267.974742,103.367779 L266.631849,103.785882 L266.096403,102.042926 L260.139774,103.894279 C259.645384,104.047412 259.337459,104.176456 259.217711,104.281412 C259.094541,104.386368 259.014138,104.520574 258.973082,104.684029 C258.932025,104.847485 258.949132,105.059118 259.029535,105.315485 C259.089409,105.508191 259.19034,105.754235 259.330616,106.055338 Z" id="Shape"></path>
                <path d="M261.161057,106.607647 L261.88639,108.271456 C261.217509,108.553632 260.760755,108.964853 260.505862,109.506838 C260.256101,110.048824 260.232151,110.721574 260.442566,111.519926 C260.652981,112.325162 260.97117,112.880912 261.402264,113.183735 C261.829937,113.488279 262.264453,113.581191 262.705811,113.464191 C263.09927,113.359235 263.367849,113.106309 263.504704,112.70025 C263.595371,112.418074 263.638138,111.767691 263.627874,110.749103 C263.614189,109.377794 263.662088,108.410824 263.76473,107.849912 C263.872503,107.290721 264.098314,106.826162 264.449006,106.459676 C264.799698,106.093191 265.227371,105.841985 265.732025,105.707779 C266.193912,105.585618 266.647245,105.578735 267.092025,105.687132 C267.540226,105.793809 267.940528,105.995118 268.294642,106.291059 C268.568352,106.511294 268.83522,106.838206 269.096956,107.271794 C269.360403,107.705382 269.560553,108.194029 269.702541,108.732574 C269.916377,109.544691 269.986516,110.289706 269.912956,110.964176 C269.842818,111.640368 269.646088,112.177191 269.321057,112.576368 C268.999447,112.973824 268.518742,113.316221 267.884075,113.603559 L267.199799,111.950074 C267.711296,111.731559 268.06883,111.396044 268.26556,110.943529 C268.465711,110.491015 268.479396,109.923221 268.299774,109.241868 C268.089358,108.434912 267.805384,107.894647 267.45127,107.621074 C267.093736,107.3475 266.739623,107.258029 266.382088,107.350941 C266.154566,107.411162 265.971522,107.535044 265.827824,107.72775 C265.677283,107.920456 265.579774,108.185426 265.537006,108.522662 C265.516478,108.715368 265.502792,109.272838 265.49766,110.191632 C265.490818,111.519926 265.44805,112.457647 265.367648,113.004794 C265.283824,113.551941 265.080252,114.018221 264.750088,114.403632 C264.423346,114.789044 263.961459,115.060897 263.366138,115.219191 C262.781082,115.374044 262.189182,115.348235 261.585308,115.143485 C260.981434,114.938735 260.45283,114.551603 260.004629,113.983809 C259.553006,113.414294 259.222843,112.724338 259.009006,111.9105 C258.658314,110.565 258.668579,109.465544 259.039799,108.613853 C259.411019,107.760441 260.119245,107.091132 261.161057,106.607647 Z" id="Shape"></path>
            </g>
        </g>
    </g>
</svg>