<?xml version="1.0" encoding="UTF-8"?>
<svg width="397px" height="472px" viewBox="0 0 397 472" version="1.1" xmlns="http://www.w3.org/2000/svg" xmlns:xlink="http://www.w3.org/1999/xlink">
    <!-- Generator: Sketch 51.3 (57544) - http://www.bohemiancoding.com/sketch -->
    <title>b6</title>
    <desc>Created with Sketch.</desc>
    <defs></defs>
    <g id="Page-1" stroke="none" stroke-width="1" fill="none" fill-rule="evenodd">
        <g id="b6">
            <g id="Layer_1" fill="#FFF8DC" fill-rule="nonzero">
                <g id="Group">
                    <path d="M20.6651027,1.24957225 C20.9990411,2.40774566 21.090363,3.44450867 21.5701438,4.25345665 C22.9317945,6.55616185 23.8640959,8.99528324 24.4256575,11.5953757 C24.4924452,11.8968555 24.675089,12.2829133 24.9190685,12.4193295 C27.3629521,13.7671214 28.355226,16.3358382 29.9867534,18.3629827 C30.338411,18.7981503 30.6778014,19.3724624 31.1507671,19.5607168 C33.1571233,20.3669364 33.7091438,22.6778266 35.5165,23.6641156 C35.6459863,23.7336879 35.7918288,23.9478613 35.7754726,24.0760925 C35.6282671,25.2288092 36.4910548,25.4648092 37.2652466,25.8495029 C37.7763767,26.1059653 38.2643356,26.4688324 38.6596096,26.8849017 C40.2829589,28.5832832 41.8695068,30.3184971 43.4642329,32.0441618 C44.6323356,33.3114682 45.7391027,34.6387977 46.9685411,35.8433526 C49.445137,38.2688324 52.0266849,40.5892717 54.4882877,43.0338497 C55.8240411,44.3625434 56.9226301,45.9326936 58.2624726,47.258659 C62.3283425,51.2774798 66.4323767,55.2608324 70.5813904,59.1950751 C73.5050548,61.9697803 75.2551644,65.2260347 76.210637,69.2121156 C78.0602466,76.9182659 80.3746438,84.5166474 82.5173014,92.1491329 C84.3001233,98.4979422 86.166089,104.822197 87.9052945,111.181919 C90.238774,119.721572 92.4509452,128.296694 94.7776096,136.839075 C97.7653356,147.793295 100.84711,158.72296 103.828021,169.678543 C106.522699,179.590543 109.147863,189.520277 111.783932,199.448647 C114.396829,209.292439 116.968836,219.14578 119.603541,228.98548 C119.990637,230.432855 119.917034,231.754728 119.399089,233.139353 C118.609904,235.255168 117.858884,237.38326 117.200548,239.54 C113.227363,252.55274 109.375486,265.602312 105.309616,278.586405 C101.065192,292.137988 96.6244932,305.626821 92.2696644,319.141572 C91.0674863,322.875283 89.6922055,326.562613 88.7012945,330.353618 C87.158363,336.249526 86.0461438,342.262751 84.4473288,348.145017 C80.7453836,361.768902 76.8403493,375.339584 73.0593493,388.948462 C71.7849315,393.534775 70.2120137,398.093803 69.5168767,402.779699 C68.0584521,412.608486 67.0102945,422.506844 65.9525959,432.391561 C64.9398767,441.858844 64.1138904,451.347954 63.2388356,460.831607 C63.0684589,462.659584 62.9894041,464.502566 62.9934932,466.338728 C62.9934932,466.936231 63.2701849,467.962081 63.6218425,468.057572 C65.2615479,468.510474 66.4950753,469.768231 68.4210137,469.773688 C79.8648767,469.796879 91.3073767,470.066983 102.75124,470.151561 C111.270075,470.221133 119.788911,470.101087 128.307747,470.129734 C140.753425,470.167931 153.19774,470.274335 165.642055,470.332994 C176.25039,470.386197 186.861452,470.378012 197.469788,470.450312 C208.163993,470.529434 218.856836,470.706775 229.552404,470.780439 C239.997178,470.858197 250.441952,470.822728 260.885363,470.905942 C273.162027,471.009618 285.438692,471.216971 297.715356,471.323376 C310.744404,471.435237 323.770726,471.465249 336.798411,471.568925 C351.66889,471.680786 366.538007,471.837665 381.408486,471.957711 C382.186767,471.963168 382.9705,471.843121 384.035014,471.758543 C383.562048,470.590821 383.266274,469.730035 382.879178,468.910173 C379.605219,461.963861 376.164973,455.08985 373.075021,448.061688 C370.256308,441.652855 367.583438,435.149896 365.243144,428.544624 C360.944199,416.429503 357.491685,404.032 352.846534,392.008277 C348.002384,379.47163 343.787945,366.682613 339.483548,353.944069 C336.194596,344.206682 333.232767,334.36289 330.035137,324.595491 C329.278664,322.292786 328.636685,320.129225 330.366349,318.01341 C332.939719,309.975769 335.862021,302.036347 338.003315,293.884116 C341.290904,281.358382 344.094623,268.703052 346.996479,256.07637 C349.05463,247.119283 350.921959,238.117179 352.896966,229.140994 C356.792459,211.431445 360.698856,193.719168 364.610705,176.010983 C368.812877,157.000023 373.115911,138.013618 377.211767,118.980832 C379.404856,108.772809 381.325342,98.5033988 383.247192,88.2408092 C385.353048,76.9878382 387.336233,65.7103121 389.35213,54.4409711 C391.748308,41.0326243 394.122678,27.6188208 396.491596,14.2050173 C396.587007,13.6552601 396.525671,13.0754913 396.539301,12.5257341 C396.248979,12.3538497 396.049979,12.1396763 395.827808,12.1151214 C393.17811,11.8136416 390.520233,11.555815 387.871897,11.2584277 C385.805568,11.0251561 383.726973,10.8396301 381.683815,10.4699422 C379.973233,10.1575491 378.328075,9.40726012 376.613404,9.21218497 C374.401233,8.95845087 372.15226,9.0252948 369.915555,9.03211561 C365.608432,9.04712139 361.301308,9.15079769 356.995548,9.14943353 C351.067801,9.14943353 345.142781,9.12487861 339.219123,9.03620809 C335.657568,8.98164162 332.094651,8.71017341 328.531733,8.66652023 C324.979719,8.62150289 321.419527,8.83021965 317.868877,8.7606474 C313.20737,8.67197688 308.549952,8.41415029 303.889808,8.23680925 C302.157418,8.16996532 300.422301,8.07720231 298.688548,8.07720231 C296.445027,8.07856647 294.200144,8.23544509 291.956623,8.19588439 C283.351918,8.04582659 274.752664,7.80164162 266.149322,7.68295954 C260.896267,7.6092948 255.641849,7.76890173 250.388795,7.68978035 C247.249774,7.64203468 244.113479,7.24506358 240.974459,7.15775723 C233.386562,6.94631214 225.791849,6.8262659 218.201226,6.66665896 C213.629678,6.56980347 209.060856,6.4934104 204.492034,6.35972254 C195.678788,6.10462428 186.862815,5.86862428 178.053658,5.52076301 C173.685199,5.34887861 169.329007,4.92053179 164.963274,4.65042775 C162.402171,4.49491329 159.834253,4.39396532 157.267699,4.32712139 C153.295877,4.22071676 149.321329,4.23299422 145.353596,4.06793064 C139.795226,3.83875145 134.246397,3.43223121 128.688027,3.21260116 C123.794808,3.01616185 118.894774,2.98615029 114.000192,2.86473988 C104.656733,2.63283237 95.313274,2.1990289 85.9698151,2.19766474 C78.1502055,2.19493642 70.3660342,1.12543353 62.5423356,1.63153757 C62.1293425,1.66018497 61.7095342,1.58652023 61.2924521,1.54968786 C59.3855959,1.38871676 57.4801027,1.13089017 55.5705205,1.08723699 C52.7381781,1.02312139 49.8990205,1.19500578 47.0680411,1.11588439 C40.6509726,0.942635838 34.2379932,0.592046243 27.8209247,0.499283237 C25.5324247,0.465179191 23.2371096,0.964462428 20.6651027,1.24957225 Z M1.40708219,419.602543 C1.27759589,419.534335 1.1494726,419.464763 1.02134932,419.397919 C0.737842466,419.89311 0.454335616,420.386936 0.170828767,420.884855 C0.294863014,420.948971 0.41889726,421.017179 0.542931507,421.084023 C0.830527397,420.588832 1.11812329,420.093642 1.40708219,419.602543 Z" id="Shape"></path>
                    <path d="M20.6651027,1.24957225 C23.2371096,0.964462428 25.5324247,0.465179191 27.8209247,0.500647399 C34.2379932,0.593410405 40.6509726,0.944 47.0680411,1.11724855 C49.8990205,1.19500578 52.7381781,1.02312139 55.5705205,1.08860116 C57.4801027,1.13225434 59.3855959,1.39008092 61.2924521,1.55105202 C61.7095342,1.58652023 62.1293425,1.66154913 62.5423356,1.63290173 C70.3660342,1.12679769 78.1502055,2.19630058 85.9684521,2.1990289 C95.311911,2.1990289 104.654007,2.63283237 113.998829,2.86473988 C118.893411,2.98615029 123.793445,3.01616185 128.685301,3.20987283 C134.242308,3.43086705 139.7925,3.83602312 145.35087,4.06520231 C149.319966,4.2302659 153.294514,4.21798844 157.264973,4.32439306 C159.831527,4.39260116 162.399445,4.49218497 164.960548,4.64633526 C169.326281,4.91507514 173.682473,5.34615029 178.050932,5.51803468 C186.860089,5.86589595 195.676062,6.10326012 204.489308,6.35699422 C209.05813,6.49068208 213.628315,6.56571098 218.1985,6.66393064 C225.789123,6.82353757 233.382473,6.94494798 240.971733,7.1550289 C244.113479,7.2409711 247.247048,7.6379422 250.386068,7.68705202 C255.639123,7.76753757 260.893541,7.60656647 266.146596,7.68023121 C274.748575,7.80027746 283.349192,8.04446243 291.952534,8.19315607 C294.196055,8.2313526 296.440938,8.07583815 298.685822,8.07447399 C300.418212,8.07447399 302.151966,8.16450867 303.885719,8.23408092 C308.545863,8.41142197 313.203281,8.66788439 317.864788,8.75791908 C321.414075,8.82749133 324.974267,8.61604624 328.527644,8.66379191 C332.089199,8.70608092 335.652116,8.97754913 339.215034,9.03347977 C345.140055,9.12215029 351.065075,9.1467052 356.991459,9.1467052 C361.298582,9.1467052 365.605705,9.0430289 369.912829,9.02938728 C372.146808,9.02120231 374.398507,8.95572254 376.610678,9.20945665 C378.322623,9.40453179 379.967781,10.1534566 381.679726,10.4672139 C383.722884,10.8369017 385.800116,11.0224277 387.867808,11.2556994 C390.517507,11.5530867 393.175384,11.8095491 395.823719,12.1123931 C396.04589,12.1383121 396.247616,12.3511214 396.533849,12.5230058 C396.521582,13.0741272 396.582918,13.6525318 396.486144,14.202289 C394.118589,27.6160925 391.744219,41.029896 389.348041,54.4368786 C387.333507,65.708948 385.350322,76.9851098 383.243103,88.2380809 C381.321253,98.5006705 379.404856,108.770081 377.209041,118.978104 C373.114548,138.009526 368.810151,156.998659 364.607979,176.008254 C360.693404,193.716439 356.792459,211.427353 352.89424,229.138266 C350.920596,238.115815 349.053267,247.116555 346.993753,256.073642 C344.091897,268.69896 341.286815,281.355653 337.999226,293.881387 C335.862021,302.03089 332.93563,309.97304 330.363623,318.010682 C328.631233,320.126497 329.275938,322.291422 330.031048,324.592763 C333.228678,334.360162 336.19187,344.203954 339.480822,353.941341 C343.783856,366.679884 347.999658,379.468902 352.843808,392.005549 C357.488959,404.029272 360.941473,416.426775 365.239055,428.541896 C367.579349,435.147168 370.252219,441.646035 373.072295,448.05896 C376.162247,455.087121 379.602493,461.961133 382.876452,468.907445 C383.260822,469.725942 383.557959,470.585364 384.032288,471.755815 C382.966411,471.840393 382.186767,471.957711 381.40576,471.954983 C366.535281,471.834936 351.667527,471.678058 336.795685,471.566197 C323.766637,471.465249 310.738952,471.431145 297.71263,471.319283 C285.43324,471.214243 273.157938,471.00689 260.882637,470.903214 C250.439226,470.82 239.994452,470.855468 229.549678,470.777711 C218.855473,470.702682 208.16263,470.523977 197.467062,470.447584 C186.858726,470.375283 176.249027,470.383468 165.639329,470.330266 C153.195014,470.271607 140.750699,470.165202 128.305021,470.125642 C119.786185,470.096994 111.267349,470.215676 102.748514,470.148832 C91.3046507,470.06289 79.8607877,469.791422 68.4182877,469.77096 C66.4937123,469.765503 65.2588219,468.507746 63.6191164,468.054844 C63.2674589,467.962081 62.9921301,466.936231 62.9907671,466.336 C62.9866781,464.498474 63.0657329,462.656855 63.2361096,460.828879 C64.1111644,451.34659 64.9371507,441.858844 65.9498699,432.388832 C67.0075685,422.504116 68.055726,412.604393 69.5141507,402.776971 C70.2079247,398.091075 71.7822055,393.534775 73.0566233,388.94437 C76.8376233,375.335491 80.7426575,361.767538 84.4446027,348.142289 C86.0434178,342.260023 87.155637,336.248162 88.6985685,330.35089 C89.6908425,326.561249 91.0647603,322.873919 92.2669384,319.138844 C96.6217671,305.624092 101.063829,292.13526 105.30689,278.583676 C109.37276,265.59822 113.224637,252.550012 117.197822,239.537272 C117.856158,237.380532 118.607178,235.251075 119.396363,233.136624 C119.914308,231.752 119.987911,230.430127 119.600815,228.982751 C116.96611,219.144416 114.394103,209.288347 111.781205,199.445919 C109.145137,189.518913 106.519973,179.586451 103.825295,169.675815 C100.844384,158.720231 97.7626096,147.791931 94.7748836,136.836347 C92.4468562,128.293965 90.2360479,119.718844 87.9025685,111.179191 C86.164726,104.819468 84.2973973,98.4952139 82.5145753,92.1464046 C80.3705548,84.5098266 78.0561575,76.9155376 76.207911,69.2093873 C75.2510753,65.2233064 73.5023288,61.9656879 70.5786644,59.1923468 C66.4296507,55.258104 62.3256164,51.2747514 58.2597466,47.2559306 C56.9199041,45.9313295 55.8213151,44.359815 54.4855616,43.0311214 C52.0253219,40.5879075 49.443774,38.2688324 46.9658151,35.8406243 C45.7363767,34.6360694 44.6296096,33.3087399 43.4615068,32.0414335 C41.8667808,30.3144046 40.2802329,28.5791908 38.6568836,26.8821734 C38.2616096,26.466104 37.7722877,26.1046012 37.2625205,25.8467746 C36.4896918,25.4607168 35.6255411,25.2233526 35.7727466,24.0733642 C35.7891027,23.9451329 35.6432603,23.7309595 35.513774,23.6613873 C33.7064178,22.6750983 33.1543973,20.3642081 31.1480411,19.5579884 C30.6750753,19.3670058 30.3356849,18.7940578 29.9840274,18.3602543 C28.3525,16.3331098 27.360226,13.7643931 24.9163425,12.4166012 C24.671,12.2815491 24.4897192,11.8941272 24.4229315,11.5926474 C23.8600068,8.99119075 22.9290685,6.55206936 21.5674178,4.24936416 C21.090363,3.44450867 20.9990411,2.40774566 20.6651027,1.24957225 Z" id="Shape"></path>
                    <path d="M1.40708219,419.602543 C1.1194863,420.093642 0.831890411,420.588832 0.544294521,421.081295 C0.420260274,421.014451 0.296226027,420.946243 0.172191781,420.882127 C0.45569863,420.384208 0.739205479,419.890382 1.02271233,419.395191 C1.14810959,419.466127 1.27759589,419.534335 1.40708219,419.602543 Z" id="Shape"></path>
                </g>
            </g>
            <g id="Layer_2" transform="translate(133.000000, 143.000000)">
                <rect id="Rectangle-path" x="0.45288" y="0.906893617" width="202.64" height="115.744681"></rect>
                <g id="Group" transform="translate(66.640000, 14.617021)" fill="#000000" fill-rule="nonzero">
                    <path d="M7.6432,20.7177872 L7.41064,19.4949787 C6.94144,20.5584681 6.15128,21.1957447 5.04016,21.4068085 C4.5492,21.4994043 4.0732,21.4925957 3.61216,21.3850213 C3.15112,21.2774468 2.79072,21.1017872 2.53096,20.8553191 C2.2712,20.6088511 2.0604,20.2874894 1.89856,19.891234 C1.7884,19.6257021 1.67688,19.1913191 1.56264,18.5908085 L0.5848,13.4326809 L1.99376,13.1657872 L2.86824,17.7833191 C3.00832,18.52 3.13072,19.0102128 3.2368,19.2566809 C3.39592,19.6107234 3.63936,19.8667234 3.96712,20.0233191 C4.29352,20.1799149 4.66888,20.2194043 5.09184,20.1377021 C5.5148,20.0573617 5.89016,19.8735319 6.21928,19.5862128 C6.5484,19.2988936 6.75648,18.9530213 6.83808,18.5513191 C6.9224,18.1482553 6.89656,17.5913191 6.76056,16.8805106 L5.916,12.4209362 L7.32496,12.1526809 L8.90256,20.4781277 L7.6432,20.7177872 Z" id="Shape"></path>
                    <path d="M11.10984,20.0600851 L9.53224,11.7346383 L10.80112,11.493617 L11.02552,12.6769362 C11.46208,11.6461277 12.25768,11.0224681 13.41232,10.803234 C13.9128,10.7079149 14.39152,10.7106383 14.84576,10.8114043 C15.3,10.9121702 15.65904,11.0891915 15.92288,11.3411064 C16.18672,11.594383 16.40024,11.914383 16.55936,12.3011064 C16.66136,12.5530213 16.77424,13.0051064 16.898,13.6587234 L17.86768,18.7773617 L16.45872,19.0442553 L15.49992,13.9800851 C15.39112,13.4054468 15.25376,12.9860426 15.09056,12.7218723 C14.92736,12.4577021 14.68936,12.2670638 14.37792,12.1513191 C14.06648,12.0342128 13.72376,12.0110638 13.34704,12.083234 C12.74728,12.197617 12.26448,12.4862979 11.90136,12.9506383 C11.53688,13.4149787 11.45664,14.1802553 11.65792,15.2464681 L12.52016,19.7931915 L11.10984,20.0600851 Z" id="Shape"></path>
                    <path d="M18.16552,8.49514894 L17.8568,6.872 L19.26712,6.60510638 L19.57448,8.22689362 L18.16552,8.49514894 Z M20.03552,18.3634043 L18.45792,10.0379574 L19.86688,9.77106383 L21.44448,18.0951489 L20.03552,18.3634043 Z" id="Shape"></path>
                    <path d="M26.42752,15.8415319 L26.8668,17.0493617 C26.486,17.2086809 26.1392,17.317617 25.82504,17.3761702 C25.31368,17.4742128 24.9016,17.4674043 24.59016,17.3598298 C24.27736,17.2508936 24.038,17.0765957 23.87344,16.8342128 C23.70888,16.5918298 23.54704,16.0471489 23.38656,15.2015319 L22.47944,10.4124255 L21.44584,10.6085106 L21.23776,9.51097872 L22.27136,9.31489362 L21.88104,7.2532766 L23.12136,6.14076596 L23.67216,9.0493617 L25.08928,8.77974468 L25.29736,9.8772766 L23.88024,10.1468936 L24.80232,15.0149787 C24.87984,15.4166809 24.95192,15.6713191 25.024,15.7761702 C25.09608,15.882383 25.194,15.9586383 25.31912,16.0049362 C25.44424,16.051234 25.61152,16.0553191 25.8196,16.0144681 C25.976,15.9845106 26.18,15.9273191 26.42752,15.8415319 Z" id="Shape"></path>
                    <path d="M33.0956,9.42655319 C32.47,9.32306383 31.97904,9.09974468 31.62136,8.75659574 C31.26368,8.41344681 31.03248,7.96408511 30.92776,7.40987234 C30.77,6.57378723 30.93728,5.81395745 31.42824,5.13038298 C31.92056,4.44680851 32.66584,4.00970213 33.66272,3.82042553 C34.66504,3.62978723 35.52728,3.76868085 36.24808,4.23438298 C36.96752,4.70144681 37.40952,5.35234043 37.56728,6.18978723 C37.66792,6.72221277 37.61624,7.21242553 37.41224,7.66042553 C37.20824,8.10842553 36.84104,8.49242553 36.312,8.81514894 C37.06136,8.91046809 37.66656,9.18008511 38.13304,9.6226383 C38.59816,10.0651915 38.89872,10.6411915 39.032,11.352 C39.21832,12.3351489 39.02792,13.2257021 38.45944,14.026383 C37.89232,14.8270638 37.04232,15.3349787 35.90944,15.5501277 C34.77792,15.7652766 33.80008,15.603234 32.97864,15.064 C32.1572,14.524766 31.65128,13.7526809 31.46224,12.7491064 C31.3208,12.0015319 31.39016,11.3397447 31.67304,10.7637447 C31.95728,10.1891064 32.43056,9.74246809 33.0956,9.42655319 Z M32.91336,12.4822128 C32.98952,12.8839149 33.15816,13.2556596 33.41928,13.5960851 C33.68176,13.9365106 34.01904,14.1734468 34.4352,14.3082553 C34.85,14.4430638 35.27296,14.4702979 35.70816,14.387234 C36.38,14.259234 36.89544,13.9365106 37.25176,13.4204255 C37.60944,12.9029787 37.72368,12.3106383 37.5972,11.6420426 C37.468,10.9625532 37.1348,10.4437447 36.60032,10.0842553 C36.06584,9.72476596 35.45792,9.61174468 34.77928,9.74110638 C34.11696,9.86638298 33.60832,10.1904681 33.25608,10.712 C32.90112,11.2335319 32.78824,11.8245106 32.91336,12.4822128 Z M32.35984,7.08987234 C32.4632,7.63319149 32.72296,8.04442553 33.1364,8.32221277 C33.55256,8.6013617 34.03808,8.68714894 34.59704,8.58093617 C35.13968,8.47744681 35.55176,8.22280851 35.83464,7.81429787 C36.11616,7.40578723 36.21,6.95370213 36.11616,6.45668085 C36.01824,5.93923404 35.75712,5.53753191 35.3328,5.25293617 C34.90848,4.96834043 34.43112,4.87574468 33.898,4.97651064 C33.35944,5.0786383 32.946,5.336 32.65632,5.74859574 C32.36664,6.16119149 32.27008,6.60919149 32.35984,7.08987234 Z" id="Shape"></path>
                    <path d="M48.17392,11.6134468 L48.43096,12.9697021 L40.84488,14.410383 C40.76872,14.0726809 40.76192,13.7349787 40.82312,13.4 C40.91696,12.8457872 41.13048,12.2779574 41.46096,11.6951489 C41.79144,11.1123404 42.296,10.4151489 42.97464,9.60357447 C44.02728,8.3426383 44.7168,7.37038298 45.0432,6.68953191 C45.36688,6.00868085 45.47976,5.4013617 45.37912,4.86757447 C45.27304,4.30791489 44.98336,3.87489362 44.51144,3.56578723 C44.03816,3.25668085 43.48192,3.16408511 42.84,3.2866383 C42.16136,3.416 41.6568,3.72238298 41.32768,4.20714894 C40.9972,4.69191489 40.89928,5.29514894 41.02984,6.01821277 L39.55288,6.14485106 C39.4468,5.04323404 39.6644,4.14859574 40.20432,3.45821277 C40.74424,2.76782979 41.55888,2.31982979 42.65096,2.11285106 C43.75256,1.90314894 44.68144,2.04340426 45.43896,2.53361702 C46.19784,3.02246809 46.6616,3.71965957 46.83296,4.62382979 C46.91864,5.08408511 46.91184,5.55387234 46.80712,6.03319149 C46.70376,6.51387234 46.48072,7.04085106 46.138,7.61412766 C45.79528,8.18740426 45.1996,9.00034043 44.3496,10.0488511 C43.63832,10.9203404 43.1868,11.5058723 42.99504,11.8054468 C42.80192,12.1050213 42.65232,12.3977872 42.54488,12.682383 L48.17392,11.6134468 Z" id="Shape"></path>
                    <path d="M49.37208,9.67302128 L50.82728,9.26587234 C51.0748,9.96714894 51.43112,10.4600851 51.89896,10.7474043 C52.3668,11.0347234 52.8836,11.1245957 53.44664,11.0170213 C54.12528,10.8876596 54.6516,10.5227234 55.02424,9.92221277 C55.39552,9.32034043 55.50296,8.5972766 55.34112,7.75029787 C55.1888,6.94553191 54.84336,6.35319149 54.30344,5.9746383 C53.76352,5.5947234 53.1284,5.47489362 52.39808,5.61378723 C51.94384,5.69957447 51.55352,5.88068085 51.22712,6.15710638 C50.90208,6.43353191 50.66544,6.75489362 50.51856,7.12391489 L49.16264,7.20289362 L49.15584,1.08885106 L54.8624,0.00493617021 L55.11808,1.35302128 L50.53896,2.22314894 L50.50632,5.42859574 C51.10336,4.81719149 51.782,4.4386383 52.53816,4.29565957 C53.54048,4.10502128 54.45168,4.29293617 55.27312,4.85668085 C56.09456,5.42042553 56.60592,6.24834043 56.814,7.34042553 C57.01256,8.38076596 56.87928,9.33668085 56.41688,10.2095319 C55.85792,11.2798298 54.94128,11.9361702 53.66832,12.1771915 C52.62384,12.376 51.71672,12.2452766 50.9456,11.7850213 C50.17448,11.324766 49.64952,10.620766 49.37208,9.67302128 Z" id="Shape"></path>
                </g>
                <g id="Group" transform="translate(47.600000, 55.829787)" fill="#000000" fill-rule="nonzero">
                    <path d="M3.57544,11.0257021 L3.70736,12.3043404 C3.29936,12.365617 2.93624,12.3860426 2.618,12.3669787 C2.09848,12.3356596 1.70136,12.2280851 1.42392,12.0469787 C1.14648,11.8645106 0.9588,11.6371064 0.85816,11.3620426 C0.75752,11.0869787 0.73304,10.5177872 0.78472,9.65991489 L1.0744,4.79319149 L0.02448,4.73055319 L0.09112,3.61531915 L1.14104,3.67931915 L1.26616,1.58365957 L2.7404,0.808851064 L2.5636,3.76374468 L4.00384,3.84953191 L3.9372,4.96476596 L2.49832,4.87897872 L2.2032,9.82468085 C2.17872,10.2331915 2.18824,10.4987234 2.23176,10.6185532 C2.27528,10.738383 2.35144,10.8364255 2.4616,10.9113191 C2.57176,10.9875745 2.73224,11.0311489 2.9444,11.044766 C3.10216,11.0542979 3.31432,11.0474894 3.57544,11.0257021 Z" id="Shape"></path>
                    <path d="M4.90008,12.3928511 L5.5964,0.716255319 L7.02848,0.802042553 L6.77688,4.992 C7.49088,4.25668085 8.35856,3.92034043 9.3772,3.98025532 C10.00144,4.01838298 10.53864,4.17361702 10.98608,4.44868085 C11.43352,4.72374468 11.74224,5.08459574 11.91496,5.53123404 C12.08768,5.97923404 12.14888,6.61651064 12.09992,7.44442553 L11.77896,12.8040851 L10.34824,12.7182979 L10.66784,7.3572766 C10.71,6.64102128 10.58624,6.10859574 10.29656,5.76544681 C10.00552,5.41957447 9.57576,5.23029787 9.01,5.19761702 C8.58568,5.17174468 8.1804,5.25753191 7.7928,5.45497872 C7.4052,5.65378723 7.12096,5.93702128 6.94008,6.30331915 C6.75784,6.67097872 6.64768,7.18570213 6.60688,7.85021277 L6.3308,12.4786383 L4.90008,12.3928511 Z" id="Shape"></path>
                    <path d="M13.67888,8.67268085 C13.77272,7.1067234 14.27728,5.97242553 15.1912,5.26978723 C15.95552,4.68697872 16.85992,4.42689362 17.9044,4.48953191 C19.06584,4.55897872 19.992,4.99744681 20.68288,5.80221277 C21.37376,6.60834043 21.67976,7.6827234 21.59952,9.0267234 C21.53424,10.1147234 21.31936,10.9617021 20.95624,11.5649362 C20.59312,12.1695319 20.08992,12.6257021 19.44528,12.9334468 C18.802,13.2411915 18.11248,13.3732766 17.37536,13.3297021 C16.19216,13.2588936 15.2592,12.8217872 14.57512,12.0197447 C13.8924,11.2177021 13.59456,10.1024681 13.67888,8.67268085 Z M15.1504,8.76119149 C15.08512,9.84374468 15.2728,10.6689362 15.71344,11.236766 C16.15408,11.8045957 16.73072,12.109617 17.44608,12.1518298 C18.15736,12.1940426 18.76392,11.9584681 19.26848,11.4451064 C19.7744,10.9317447 20.05864,10.1201702 20.12528,9.01038298 C20.18784,7.96459574 19.99744,7.15710638 19.55544,6.5906383 C19.11344,6.02280851 18.53952,5.71914894 17.83368,5.67693617 C17.11832,5.6333617 16.50904,5.86621277 16.00448,6.37412766 C15.49856,6.88340426 15.21568,7.6786383 15.1504,8.76119149 Z" id="Shape"></path>
                    <path d="M23.01936,13.476766 L23.52392,5.01923404 L24.80368,5.09548936 L24.73432,6.28289362 C25.02264,5.8852766 25.39528,5.57208511 25.85224,5.34604255 C26.30648,5.12 26.81512,5.02468085 27.3768,5.0587234 C28.00376,5.09548936 28.50832,5.25753191 28.8932,5.54076596 C29.27808,5.824 29.5392,6.2052766 29.67384,6.68187234 C30.40144,5.73412766 31.3004,5.29293617 32.37208,5.35693617 C33.20848,5.40731915 33.84088,5.67829787 34.26384,6.16987234 C34.6868,6.66144681 34.86904,7.38995745 34.81056,8.35676596 L34.46512,14.1630638 L33.03984,14.0772766 L33.35808,8.74757447 C33.39208,8.17565957 33.37032,7.75897872 33.2928,7.50161702 C33.21528,7.24289362 33.05752,7.03046809 32.8236,6.86161702 C32.58696,6.69276596 32.3068,6.59880851 31.97768,6.57838298 C31.38336,6.54434043 30.8788,6.71182979 30.46264,7.08357447 C30.04648,7.45531915 29.81392,8.07761702 29.76088,8.94774468 L29.46712,13.8621277 L28.03504,13.7763404 L28.3628,8.28051064 C28.40088,7.64323404 28.31384,7.15846809 28.09896,6.82621277 C27.88544,6.49395745 27.51144,6.31148936 26.98376,6.28017021 C26.57848,6.25565957 26.2004,6.34008511 25.84544,6.53208511 C25.49184,6.72408511 25.22528,7.01957447 25.04576,7.41855319 C24.86896,7.81753191 24.75608,8.40306383 24.70984,9.17242553 L24.44736,13.5611915 L23.01936,13.476766 Z" id="Shape"></path>
                    <path d="M42.16408,13.5761702 C41.60648,13.9955745 41.07744,14.2842553 40.57696,14.4394894 C40.07512,14.5960851 39.542,14.6587234 38.97896,14.6246809 C38.05144,14.5688511 37.3524,14.299234 36.88184,13.8158298 C36.40856,13.3324255 36.19368,12.7373617 36.23584,12.0306383 C36.26032,11.6166809 36.37728,11.2435745 36.58672,10.9126809 C36.79616,10.5804255 37.05864,10.3203404 37.37552,10.1324255 C37.6924,9.94451064 38.04464,9.80697872 38.4336,9.72391489 C38.7192,9.6667234 39.1476,9.62042553 39.71744,9.58502128 C40.8816,9.51557447 41.74384,9.40255319 42.30008,9.24459574 C42.31776,9.04714894 42.32864,8.92323404 42.33136,8.87012766 C42.364,8.28595745 42.2552,7.86655319 41.99952,7.61191489 C41.65272,7.26604255 41.1196,7.07131915 40.39744,7.02910638 C39.72424,6.98825532 39.21968,7.07676596 38.88376,7.2932766 C38.55056,7.51114894 38.28808,7.91421277 38.09768,8.50519149 L36.70912,8.23012766 C36.87096,7.63778723 37.11032,7.1652766 37.42312,6.81395745 C37.73592,6.4626383 38.1752,6.20391489 38.7396,6.03778723 C39.304,5.87165957 39.94728,5.81038298 40.67352,5.85395745 C41.39432,5.89753191 41.9764,6.0173617 42.41568,6.21480851 C42.85768,6.41089362 43.17728,6.64374468 43.37176,6.9147234 C43.57032,7.18570213 43.69816,7.51795745 43.76072,7.91693617 C43.792,8.16476596 43.79064,8.60731915 43.7512,9.24323404 L43.63696,11.1550638 C43.55672,12.4881702 43.53904,13.3324255 43.57848,13.6878298 C43.61792,14.0445957 43.71992,14.3904681 43.8804,14.7254468 L42.3844,14.6369362 C42.25792,14.3305532 42.18448,13.9765106 42.16408,13.5761702 Z M42.23616,10.368 C41.70304,10.5491064 40.91288,10.6825532 39.86568,10.7697021 C39.27136,10.8187234 38.84976,10.8895319 38.59952,10.9821277 C38.34928,11.0733617 38.15208,11.2177021 38.0052,11.4137872 C37.8624,11.611234 37.7808,11.8331915 37.76584,12.0837447 C37.74272,12.466383 37.86784,12.7931915 38.14256,13.0655319 C38.41592,13.3378723 38.83208,13.4917447 39.38832,13.5230638 C39.93912,13.5557447 40.43688,13.4645106 40.8816,13.2493617 C41.32632,13.0328511 41.66088,12.722383 41.88664,12.3138723 C42.06072,12.0006809 42.1668,11.5268085 42.20352,10.8949787 L42.23616,10.368 Z" id="Shape"></path>
                    <path d="M45.22816,12.2716596 L46.65616,12.132766 C46.7024,12.7060426 46.89824,13.1540426 47.24504,13.4794894 C47.58912,13.8035745 48.08688,13.9860426 48.73968,14.0241702 C49.39792,14.0636596 49.89432,13.9588085 50.22888,13.709617 C50.56208,13.4604255 50.74024,13.1554043 50.762,12.7945532 C50.78104,12.4718298 50.65728,12.2076596 50.38664,12.004766 C50.1976,11.8658723 49.72024,11.675234 48.95184,11.4314894 C47.91824,11.1033191 47.2056,10.829617 46.8112,10.6117447 C46.4168,10.3938723 46.1244,10.1065532 45.93536,9.75251064 C45.74632,9.39846809 45.66336,9.01310638 45.68784,8.59914894 C45.71096,8.22195745 45.81704,7.87880851 46.0088,7.56697872 C46.20056,7.25514894 46.44944,7.00323404 46.75952,6.80851064 C46.99344,6.6573617 47.30488,6.53617021 47.69656,6.44493617 C48.08688,6.35370213 48.50168,6.32102128 48.94232,6.34689362 C49.60464,6.38774468 50.18264,6.51710638 50.67224,6.73906383 C51.16048,6.96102128 51.51544,7.24153191 51.73304,7.58195745 C51.952,7.92238298 52.09208,8.36902128 52.1492,8.92187234 L50.73752,9.02944681 C50.69944,8.58961702 50.5376,8.23965957 50.24792,7.97685106 C49.95824,7.71540426 49.53392,7.56697872 48.97496,7.53293617 C48.31808,7.49344681 47.84072,7.57378723 47.54832,7.77531915 C47.2532,7.97548936 47.09816,8.22331915 47.07912,8.5147234 C47.06824,8.7012766 47.1172,8.87148936 47.22328,9.0267234 C47.33072,9.18740426 47.50752,9.32493617 47.7496,9.44204255 C47.89104,9.50331915 48.30448,9.65174468 48.99264,9.88459574 C49.98952,10.2168511 50.68448,10.4796596 51.0748,10.6771064 C51.46512,10.8731915 51.7616,11.1428085 51.97104,11.4859574 C52.17912,11.8277447 52.26888,12.2444255 52.23896,12.7332766 C52.2104,13.211234 52.04448,13.6524255 51.74256,14.0582128 C51.43792,14.464 51.01632,14.7662979 50.4764,14.9664681 C49.93784,15.1652766 49.33672,15.245617 48.6744,15.2061277 C47.57552,15.140766 46.75544,14.861617 46.20736,14.3714043 C45.66064,13.8784681 45.33288,13.1785532 45.22816,12.2716596 Z" id="Shape"></path>
                    <path d="M57.89928,13.0314894 L59.32864,12.8925957 C59.37352,13.4658723 59.57072,13.9138723 59.91752,14.2379574 C60.2616,14.5634043 60.75936,14.7445106 61.41216,14.784 C62.0704,14.8234894 62.56544,14.7186383 62.90136,14.4694468 C63.23456,14.2202553 63.41272,13.915234 63.43448,13.554383 C63.45352,13.2302979 63.32976,12.9674894 63.05912,12.7645957 C62.87008,12.6257021 62.39272,12.4350638 61.62296,12.1913191 C60.58936,11.8631489 59.87672,11.5894468 59.48368,11.3715745 C59.08928,11.1537021 58.79824,10.866383 58.6092,10.5123404 C58.4188,10.1569362 58.33584,9.77293617 58.36032,9.35897872 C58.38344,8.98178723 58.49088,8.6386383 58.68128,8.32680851 C58.87168,8.01497872 59.12192,7.76306383 59.432,7.56834043 C59.66456,7.41719149 59.97736,7.296 60.36904,7.20476596 C60.75936,7.11353191 61.17416,7.08085106 61.6148,7.1067234 C62.27712,7.14621277 62.85512,7.27693617 63.34472,7.49889362 C63.83296,7.71948936 64.18792,8 64.40552,8.34178723 C64.62448,8.68221277 64.7632,9.12885106 64.82168,9.68170213 L63.41,9.7892766 C63.37328,9.35080851 63.21008,8.99948936 62.9204,8.73668085 C62.63072,8.47387234 62.20504,8.32544681 61.64744,8.29276596 C60.9892,8.2532766 60.5132,8.33361702 60.21944,8.53514894 C59.92568,8.73668085 59.77064,8.98178723 59.7516,9.27455319 C59.74072,9.46110638 59.78968,9.63131915 59.89576,9.78655319 C60.0032,9.94859574 60.17864,10.0861277 60.42208,10.2018723 C60.56352,10.2631489 60.97696,10.4102128 61.66512,10.6444255 C62.662,10.9753191 63.3556,11.2408511 63.74728,11.4369362 C64.1376,11.634383 64.43408,11.9026383 64.64352,12.2457872 C64.85024,12.5889362 64.94136,13.0042553 64.91144,13.4931064 C64.88288,13.9710638 64.71696,14.4122553 64.41504,14.8180426 C64.1104,15.2238298 63.6888,15.5261277 63.14888,15.7262979 C62.61032,15.9251064 62.01056,16.0054468 61.34688,15.9659574 C60.248,15.9005957 59.42656,15.6228085 58.87984,15.131234 C58.33176,14.6369362 58.004,13.938383 57.89928,13.0314894 Z" id="Shape"></path>
                    <path d="M69.66872,14.9828085 L69.80064,16.2614468 C69.39264,16.3213617 69.02952,16.3431489 68.71128,16.3240851 C68.19176,16.292766 67.79192,16.1851915 67.5172,16.0040851 C67.24112,15.821617 67.05072,15.5942128 66.95144,15.3191489 C66.8508,15.0440851 66.82632,14.4762553 66.87664,13.6156596 L67.16768,8.75029787 L66.11776,8.68765957 L66.1844,7.57242553 L67.23432,7.63642553 L67.35944,5.54076596 L68.83504,4.76595745 L68.65824,7.72085106 L70.09848,7.8066383 L70.03184,8.92187234 L68.5916,8.83608511 L68.29512,13.7817872 C68.27064,14.1902979 68.28152,14.4544681 68.32368,14.5742979 C68.3672,14.6941277 68.44472,14.7921702 68.55352,14.8684255 C68.66504,14.9433191 68.82416,14.9882553 69.03632,15.0005106 C69.1968,15.0114043 69.4076,15.0045957 69.66872,14.9828085 Z" id="Shape"></path>
                    <path d="M70.97568,16.3485957 L71.4816,7.89106383 L72.77088,7.96868085 L72.69336,9.25004255 C73.05784,8.66995745 73.38696,8.29276596 73.67664,8.11710638 C73.96768,7.94280851 74.2764,7.86519149 74.61232,7.88561702 C75.09376,7.91421277 75.5752,8.09804255 76.05664,8.43574468 L75.48272,9.73617021 C75.14544,9.50876596 74.80136,9.38348936 74.45184,9.36306383 C74.1404,9.344 73.85344,9.42161702 73.59232,9.59455319 C73.3312,9.76885106 73.13672,10.0194043 73.0116,10.3475745 C72.8212,10.8473191 72.70832,11.4001702 72.67296,12.0061277 L72.40912,16.434383 L70.97568,16.3485957 Z" id="Shape"></path>
                    <path d="M82.36296,14.2965106 L83.83176,14.5674894 C83.54752,15.4185532 83.07424,16.0653617 82.41464,16.5051915 C81.75504,16.9450213 80.93496,17.1356596 79.95304,17.0771064 C78.71816,17.0022128 77.76208,16.5637447 77.08344,15.757617 C76.40616,14.9528511 76.1056,13.8621277 76.18856,12.4868085 C76.27424,11.0651915 76.70536,9.9812766 77.48464,9.23914894 C78.26256,8.49838298 79.23496,8.16068085 80.40184,8.23148936 C81.532,8.29957447 82.43232,8.73940426 83.1028,9.55234043 C83.77056,10.3652766 84.06432,11.469617 83.98136,12.8667234 C83.97728,12.9525106 83.9664,13.0791489 83.95144,13.248 L77.65192,12.8708085 C77.6492,13.8035745 77.86816,14.5307234 78.31152,15.0522553 C78.75352,15.5751489 79.32744,15.8570213 80.03328,15.899234 C80.5596,15.9291915 81.0152,15.8188936 81.4028,15.5642553 C81.78768,15.3109787 82.11,14.8888511 82.36296,14.2965106 Z M77.80152,11.6970213 L82.518,11.9788936 C82.49624,11.264 82.34936,10.7193191 82.07328,10.3462128 C81.64896,9.76612766 81.0764,9.45565957 80.3488,9.4107234 C79.69192,9.37123404 79.12616,9.55914894 78.65152,9.97310638 C78.17688,10.3870638 77.89128,10.9617021 77.80152,11.6970213 Z" id="Shape"></path>
                    <path d="M91.42328,14.8384681 L92.89072,15.1094468 C92.60648,15.9605106 92.1332,16.6073191 91.47496,17.0471489 C90.81672,17.4869787 89.99528,17.677617 89.01336,17.6190638 C87.77712,17.5441702 86.8224,17.1057021 86.14376,16.2995745 C85.46512,15.4934468 85.16592,14.4040851 85.24888,13.028766 C85.33456,11.6071489 85.76704,10.523234 86.54496,9.78110638 C87.32288,9.04034043 88.29664,8.7026383 89.46352,8.77344681 C90.59232,8.84153191 91.49128,9.2813617 92.16176,10.0942979 C92.83224,10.907234 93.12464,12.0115745 93.04032,13.4086809 C93.03488,13.4931064 93.024,13.6211064 93.0104,13.7899574 L86.70952,13.412766 C86.70816,14.3455319 86.92848,15.0726809 87.36912,15.5942128 C87.81248,16.1157447 88.38504,16.3989787 89.09224,16.4411915 C89.6172,16.4725106 90.07416,16.3608511 90.4604,16.1075745 C90.84936,15.8542979 91.17032,15.4308085 91.42328,14.8384681 Z M86.86048,12.2403404 L91.57968,12.5222128 C91.55656,11.8073191 91.40968,11.2626383 91.1336,10.8881702 C90.71064,10.3094468 90.13536,9.99761702 89.40912,9.95404255 C88.75088,9.91455319 88.18784,10.1011064 87.71184,10.5164255 C87.2372,10.930383 86.95296,11.5036596 86.86048,12.2403404 Z" id="Shape"></path>
                    <path d="M97.74048,16.6631489 L97.8724,17.9417872 C97.4644,18.0030638 97.10128,18.0234894 96.78304,18.0044255 C96.26216,17.9731064 95.86504,17.8655319 95.5876,17.6844255 C95.31288,17.5019574 95.12384,17.2745532 95.0232,16.9994894 C94.92256,16.7244255 94.89672,16.1565957 94.9484,15.2973617 L95.23944,10.4306383 L94.19088,10.368 L94.25616,9.25276596 L95.30608,9.31540426 L95.4312,7.21974468 L96.90544,6.44493617 L96.73,9.39982979 L98.17024,9.48561702 L98.1036,10.5994894 L96.66336,10.5137021 L96.36824,15.4594043 C96.34376,15.8679149 96.35328,16.1320851 96.3968,16.2532766 C96.43896,16.3731064 96.51648,16.4711489 96.62664,16.5460426 C96.7368,16.6209362 96.89592,16.6658723 97.10808,16.6781277 C97.26856,16.6917447 97.478,16.6849362 97.74048,16.6631489 Z" id="Shape"></path>
                </g>
                <g id="Group" transform="translate(42.160000, 93.957447)" fill="#000000" fill-rule="nonzero">
                    <path d="M0.4352,5.93157447 C0.6936,4.38331915 1.31376,3.30893617 2.2984,2.70842553 C3.11984,2.21004255 4.046,2.0466383 5.07824,2.21957447 C6.22608,2.41293617 7.10056,2.944 7.7044,3.82093617 C8.30688,4.69514894 8.49728,5.79540426 8.2756,7.12442553 C8.09608,8.19880851 7.79416,9.01855319 7.36848,9.58093617 C6.9428,10.1433191 6.39472,10.5436596 5.72288,10.7819574 C5.05104,11.0202553 4.34928,11.0788085 3.62168,10.9562553 C2.45344,10.7601702 1.57216,10.2277447 0.97648,9.35625532 C0.37944,8.48476596 0.19856,7.34365957 0.4352,5.93157447 Z M1.88904,6.17395745 C1.71088,7.24425532 1.8088,8.08442553 2.18688,8.69582979 C2.5636,9.30587234 3.10624,9.67080851 3.81344,9.7892766 C4.5152,9.90774468 5.14488,9.73753191 5.69976,9.28 C6.256,8.82246809 6.62456,8.04629787 6.80816,6.95012766 C6.98088,5.91659574 6.87616,5.09412766 6.49672,4.4827234 C6.11728,3.87131915 5.57872,3.50774468 4.88104,3.3906383 C4.17384,3.27217021 3.5428,3.43829787 2.98792,3.89038298 C2.4344,4.34382979 2.06856,5.10365957 1.88904,6.17395745 Z" id="Shape"></path>
                    <polygon id="Shape" points="9.18408 11.6902128 11.10984 0.15387234 12.5256 0.390808511 10.59984 11.9271489"></polygon>
                    <path d="M18.20768,13.2017021 L18.38312,12.1477447 C17.71536,12.8885106 16.86808,13.1717447 15.84128,13.0001702 C15.17624,12.8885106 14.59416,12.6025532 14.09776,12.1422979 C13.60136,11.6820426 13.25456,11.0965106 13.05736,10.3870638 C12.86016,9.67761702 12.83296,8.8946383 12.97576,8.03948936 C13.11584,7.20476596 13.37968,6.47217021 13.77136,5.83897872 C14.16304,5.20578723 14.66624,4.75506383 15.28232,4.48544681 C15.8984,4.21719149 16.54848,4.13957447 17.23528,4.25395745 C17.73848,4.33974468 18.1696,4.51812766 18.52592,4.79591489 C18.8836,5.07370213 19.15696,5.40595745 19.346,5.78859574 L20.03688,1.64902128 L21.44312,1.88459574 L19.51736,13.4222979 L18.20768,13.2017021 Z M14.43232,8.28187234 C14.25416,9.35080851 14.34528,10.1882553 14.70704,10.7955745 C15.07016,11.4001702 15.55704,11.7542128 16.1704,11.8563404 C16.7892,11.9598298 17.35632,11.7950638 17.87312,11.3606809 C18.38992,10.9276596 18.73536,10.1909787 18.90808,9.152 C19.09984,8.00817021 19.0196,7.13259574 18.66872,6.52255319 C18.31784,5.91251064 17.82008,5.55574468 17.17544,5.44817021 C16.54712,5.34331915 15.97864,5.51217021 15.47136,5.95608511 C14.96272,6.3986383 14.61728,7.17480851 14.43232,8.28187234 Z" id="Shape"></path>
                    <path d="M29.51744,13.7913191 L29.51336,15.0754043 C29.10128,15.0931064 28.73816,15.0754043 28.42264,15.0222979 C27.90992,14.9365106 27.52504,14.7894468 27.26936,14.5797447 C27.01368,14.3700426 26.85048,14.1222128 26.7784,13.837617 C26.70768,13.5530213 26.74304,12.9865532 26.88448,12.1368511 L27.68688,7.32868085 L26.6492,7.15438298 L26.8328,6.05276596 L27.87048,6.22570213 L28.21592,4.15591489 L29.76496,3.54178723 L29.27808,6.4612766 L30.69928,6.69957447 L30.51568,7.80255319 L29.09312,7.56425532 L28.27712,12.4514043 C28.21048,12.8558298 28.19144,13.1186383 28.22136,13.2425532 C28.25128,13.3664681 28.31792,13.4726809 28.41992,13.5584681 C28.52056,13.645617 28.6756,13.7068936 28.8864,13.7422979 C29.04416,13.7695319 29.25496,13.7845106 29.51744,13.7913191 Z" id="Shape"></path>
                    <path d="M30.67344,15.2864681 L32.06744,6.92970213 L33.34176,7.14212766 L33.13096,8.40987234 C33.55528,7.8706383 33.91976,7.53021277 34.22712,7.38723404 C34.53312,7.24561702 34.85136,7.20068085 35.18184,7.25514894 C35.6592,7.33548936 36.11752,7.56834043 36.55952,7.95506383 L35.85232,9.18740426 C35.54088,8.92595745 35.21176,8.7652766 34.86496,8.7067234 C34.55624,8.65497872 34.26384,8.7012766 33.9864,8.84697872 C33.70896,8.99268085 33.49136,9.22144681 33.33088,9.5346383 C33.0888,10.0125957 32.9188,10.5491064 32.81952,11.1482553 L32.0892,15.5234043 L30.67344,15.2864681 Z" id="Shape"></path>
                    <path d="M41.66768,16.0667234 C41.07064,16.4248511 40.51168,16.6563404 39.99624,16.7584681 C39.4808,16.8605957 38.94632,16.8660426 38.39008,16.7734468 C37.47344,16.6195745 36.80568,16.2777872 36.38816,15.7467234 C35.96928,15.2142979 35.81968,14.6001702 35.93664,13.9029787 C36.00464,13.4931064 36.15968,13.1349787 36.40312,12.827234 C36.6452,12.5194894 36.93488,12.2893617 37.26944,12.1354894 C37.60536,11.981617 37.9712,11.8822128 38.3656,11.8413617 C38.65528,11.812766 39.0864,11.812766 39.65896,11.8386383 C40.82312,11.8931064 41.6908,11.8713191 42.26336,11.7732766 C42.30008,11.5785532 42.3232,11.4573617 42.33272,11.4042553 C42.42928,10.8268936 42.36264,10.3979574 42.13416,10.1174468 C41.82544,9.73753191 41.31544,9.48697872 40.60416,9.36714894 C39.93912,9.25548936 39.42776,9.28953191 39.07144,9.4706383 C38.71512,9.65174468 38.4132,10.0248511 38.1616,10.5926809 L36.80976,10.1719149 C37.03416,9.6 37.32112,9.15608511 37.67064,8.83880851 C38.02016,8.52153191 38.48392,8.30910638 39.06056,8.20425532 C39.63856,8.09804255 40.28456,8.10757447 41.004,8.22740426 C41.71528,8.34723404 42.28104,8.52834043 42.69856,8.7693617 C43.11608,9.01038298 43.40712,9.2772766 43.57576,9.56731915 C43.7444,9.8573617 43.83552,10.203234 43.85592,10.6049362 C43.86272,10.8554894 43.81376,11.2939574 43.70904,11.9244255 L43.39352,13.8131064 C43.17456,15.1298723 43.06576,15.9673191 43.06712,16.3268085 C43.06984,16.6862979 43.1324,17.0403404 43.25752,17.3902979 L41.78056,17.1424681 C41.68128,16.8279149 41.64456,16.4670638 41.66768,16.0667234 Z M42.0784,12.8830638 C41.53032,13.0069787 40.73064,13.0573617 39.678,13.0314894 C39.08232,13.0178723 38.65528,13.0437447 38.39688,13.1091064 C38.13984,13.1731064 37.92632,13.2956596 37.76176,13.476766 C37.5972,13.6565106 37.4952,13.8689362 37.45304,14.116766 C37.38912,14.4939574 37.48024,14.8330213 37.72368,15.1325957 C37.96712,15.4321702 38.36424,15.6282553 38.91368,15.7208511 C39.45768,15.8107234 39.96224,15.7739574 40.42736,15.6051064 C40.89112,15.437617 41.25696,15.1639149 41.52624,14.7826383 C41.7316,14.4885106 41.88664,14.0282553 41.99136,13.4045957 L42.0784,12.8830638 Z" id="Shape"></path>
                    <path d="M45.33968,17.741617 L46.55008,10.4864681 L45.3016,10.276766 L45.4852,9.17514894 L46.73504,9.38348936 L46.88328,8.49429787 C46.97576,7.9332766 47.09544,7.52476596 47.24096,7.26876596 C47.43952,6.92425532 47.72784,6.66689362 48.11,6.49531915 C48.49216,6.32510638 48.99128,6.29242553 49.61008,6.39591489 C50.00856,6.4626383 50.43968,6.58382979 50.90752,6.75948936 L50.48728,7.95914894 C50.20304,7.85838298 49.92968,7.78485106 49.6672,7.7412766 C49.2388,7.66910638 48.91784,7.71131915 48.70976,7.86519149 C48.50168,8.01770213 48.35344,8.34723404 48.27048,8.85106383 L48.14128,9.62178723 L49.76784,9.89412766 L49.58424,10.9957447 L47.95768,10.724766 L46.74592,17.9799149 L45.33968,17.741617 Z" id="Shape"></path>
                    <path d="M49.52168,18.4401702 L50.73344,11.1850213 L49.4836,10.9766809 L49.6672,9.87370213 L50.91704,10.0820426 L51.06528,9.19421277 C51.15912,8.63182979 51.2788,8.22331915 51.42432,7.96731915 C51.62288,7.62280851 51.9112,7.36544681 52.29336,7.19387234 C52.67416,7.02365957 53.17328,6.99097872 53.79344,7.09446809 C54.19056,7.16119149 54.62304,7.28238298 55.08952,7.45804255 L54.67064,8.65770213 C54.38504,8.55693617 54.11304,8.48340426 53.8492,8.43982979 C53.4208,8.36765957 53.1012,8.40987234 52.89176,8.56374468 C52.68368,8.71625532 52.5368,9.04578723 52.45384,9.54961702 L52.32464,10.3203404 L53.9512,10.5926809 L53.76624,11.6956596 L52.13968,11.4233191 L50.92792,18.6784681 L49.52168,18.4401702 Z" id="Shape"></path>
                    <path d="M53.82608,14.8657021 C54.08448,13.3174468 54.706,12.2430638 55.68928,11.6425532 C56.51072,11.1441702 57.43688,10.980766 58.46912,11.1537021 C59.61832,11.3457021 60.4928,11.876766 61.09528,12.7537021 C61.69776,13.6292766 61.88816,14.7295319 61.66784,16.0571915 C61.48696,17.1329362 61.1864,17.9526809 60.76072,18.5150638 C60.33504,19.0774468 59.7856,19.4777872 59.11376,19.7160851 C58.44056,19.954383 57.74016,20.0115745 57.01256,19.890383 C55.84432,19.6942979 54.96168,19.1618723 54.36736,18.290383 C53.77032,17.4175319 53.5908,16.2764255 53.82608,14.8657021 Z M55.27992,15.1094468 C55.10176,16.178383 55.20104,17.0185532 55.57912,17.6313191 C55.95584,18.2413617 56.49848,18.6062979 57.20568,18.724766 C57.9088,18.8418723 58.53712,18.6716596 59.09336,18.2154894 C59.64824,17.7579574 60.01816,16.9817872 60.2004,15.8842553 C60.37312,14.8507234 60.26976,14.029617 59.88896,13.4168511 C59.50816,12.8068085 58.9696,12.4418723 58.27328,12.324766 C57.56608,12.2076596 56.93504,12.3737872 56.38016,12.8258723 C55.82528,13.2765957 55.45944,14.0391489 55.27992,15.1094468 Z" id="Shape"></path>
                    <path d="M62.59128,20.6284255 L63.98664,12.2702979 L65.26096,12.4827234 L65.0488,13.7504681 C65.47312,13.211234 65.8376,12.8708085 66.14496,12.7291915 C66.45232,12.5862128 66.77056,12.5412766 67.09968,12.5971064 C67.57704,12.6774468 68.03536,12.9089362 68.47872,13.2970213 L67.77152,14.5293617 C67.46008,14.2665532 67.13096,14.1058723 66.78416,14.0486809 C66.47408,13.9969362 66.18304,14.043234 65.9056,14.1889362 C65.62816,14.3346383 65.4092,14.5620426 65.25008,14.875234 C65.008,15.3531915 64.838,15.8910638 64.73872,16.4902128 L64.0084,20.8653617 L62.59128,20.6284255 Z" id="Shape"></path>
                    <path d="M73.38288,22.4340426 L73.55832,21.3800851 C72.89192,22.1208511 72.04464,22.4040851 71.01648,22.2325106 C70.35144,22.1208511 69.77072,21.8348936 69.27432,21.3746383 C68.77792,20.9130213 68.43112,20.3274894 68.23392,19.6194043 C68.03672,18.9099574 68.00952,18.1269787 68.15232,17.2718298 C68.2924,16.4371064 68.55624,15.7045106 68.94792,15.0713191 C69.33824,14.4381277 69.84144,13.9874043 70.45752,13.7177872 C71.0736,13.4495319 71.72504,13.3719149 72.41184,13.4862979 C72.91504,13.5720851 73.34616,13.7504681 73.70248,14.0282553 C74.0588,14.3060426 74.33352,14.6382979 74.52256,15.0209362 L75.2148,10.8813617 L76.62104,11.1169362 L74.69528,22.6546383 L73.38288,22.4340426 Z M69.60752,17.5155745 C69.428,18.5845106 69.52048,19.4219574 69.88224,20.0292766 C70.24536,20.6338723 70.73224,20.9879149 71.34424,21.0900426 C71.96304,21.1935319 72.53016,21.028766 73.04696,20.594383 C73.56376,20.1613617 73.9092,19.4246809 74.08328,18.3857021 C74.27504,17.2418723 74.19344,16.3662979 73.84256,15.7562553 C73.49168,15.1462128 72.99392,14.7894468 72.34928,14.6818723 C71.72096,14.5770213 71.15248,14.7458723 70.6452,15.1897872 C70.13792,15.6323404 69.79248,16.4071489 69.60752,17.5155745 Z" id="Shape"></path>
                </g>
                <g id="Group" transform="translate(35.000000, 122.191489)" fill="#000000" fill-rule="nonzero">
                    <path d="M0.01592,8.35897872 L2.17696,0.165617021 L3.41728,0.493787234 L3.114,1.64306383 C3.47712,1.31080851 3.90416,1.07795745 4.39376,0.94587234 C4.88336,0.813787234 5.40152,0.820595745 5.94688,0.96493617 C6.55344,1.12561702 7.0172,1.38297872 7.33816,1.73702128 C7.65912,2.09106383 7.84,2.51591489 7.87944,3.01157447 C8.7784,2.22587234 9.74808,1.96987234 10.7844,2.24493617 C11.59632,2.46008511 12.16072,2.84953191 12.47896,3.4146383 C12.7972,3.97974468 12.83256,4.73140426 12.5864,5.66689362 L11.10264,11.2907234 L9.7236,10.9244255 L11.08496,5.76493617 C11.23184,5.2093617 11.29168,4.79676596 11.2672,4.52987234 C11.24136,4.26161702 11.12984,4.02195745 10.934,3.81089362 C10.7368,3.59846809 10.47976,3.45004255 10.16016,3.36697872 C9.58488,3.21582979 9.0572,3.28119149 8.57576,3.56306383 C8.09432,3.84629787 7.74344,4.40868085 7.5204,5.25157447 L6.26512,10.0120851 L4.87792,9.64442553 L6.28144,4.32153191 C6.44464,3.70468085 6.4528,3.21174468 6.30864,2.8427234 C6.16448,2.47370213 5.834,2.22314894 5.32128,2.08697872 C4.93096,1.98348936 4.54336,1.99165957 4.15712,2.11012766 C3.77224,2.22723404 3.45264,2.46553191 3.19832,2.82093617 C2.94536,3.17770213 2.7196,3.72919149 2.5224,4.47404255 L1.40176,8.7252766 L0.01592,8.35897872 Z" id="Shape"></path>
                    <path d="M18.76488,12.2371064 C18.13656,12.5380426 17.55992,12.7164255 17.03768,12.7708936 C16.51544,12.8253617 15.98096,12.7804255 15.43696,12.6360851 C14.538,12.3977872 13.9056,11.9947234 13.5384,11.4282553 C13.1712,10.8604255 13.07872,10.2340426 13.25824,9.55046809 C13.36432,9.14876596 13.552,8.80697872 13.82264,8.52374468 C14.09328,8.24051064 14.402,8.03761702 14.75016,7.91506383 C15.09832,7.79251064 15.47096,7.72851064 15.86808,7.72306383 C16.15912,7.72306383 16.58888,7.76119149 17.156,7.84017021 C18.312,8.00357447 19.17696,8.06212766 19.75632,8.01719149 C19.81208,7.82655319 19.84608,7.7067234 19.85968,7.65497872 C20.00928,7.08987234 19.98344,6.65685106 19.78216,6.35591489 C19.51016,5.94876596 19.026,5.65191489 18.32696,5.46808511 C17.67552,5.29514894 17.1628,5.28289362 16.79152,5.42995745 C16.42024,5.57702128 16.08296,5.92017021 15.78104,6.46348936 L14.47408,5.92017021 C14.75016,5.37140426 15.07656,4.95608511 15.45328,4.67285106 C15.83,4.38961702 16.31144,4.22348936 16.89624,4.17174468 C17.48104,4.12 18.12568,4.18808511 18.8288,4.3732766 C19.52784,4.55846809 20.0732,4.78995745 20.46624,5.07046809 C20.85928,5.34961702 21.12584,5.64238298 21.26592,5.94604255 C21.406,6.25106383 21.46584,6.60238298 21.44816,7.00544681 C21.43184,7.2546383 21.34208,7.68765957 21.18024,8.30451064 L20.692,10.1550638 C20.352,11.4459574 20.16568,12.2697872 20.1344,12.6265532 C20.10312,12.9833191 20.1344,13.3428085 20.22552,13.7036596 L18.77712,13.3210213 C18.70776,12.9942128 18.70504,12.6333617 18.76488,12.2371064 Z M19.46664,9.10519149 C18.90904,9.1773617 18.108,9.15148936 17.06352,9.03029787 C16.47192,8.96085106 16.04352,8.94723404 15.78104,8.98808511 C15.51856,9.02757447 15.29552,9.12970213 15.11464,9.29446809 C14.93376,9.45923404 14.81136,9.66212766 14.74744,9.90314894 C14.64952,10.2735319 14.708,10.6194043 14.92288,10.940766 C15.13776,11.260766 15.51448,11.4922553 16.0544,11.6365957 C16.58888,11.7782128 17.0948,11.7850213 17.57216,11.6624681 C18.05088,11.5385532 18.43984,11.2988936 18.74176,10.9448511 C18.97296,10.6711489 19.17016,10.2285957 19.332,9.61446809 L19.46664,9.10519149 Z" id="Shape"></path>
                    <path d="M21.93504,14.1557447 L24.09608,5.96238298 L25.34456,6.29191489 L25.0372,7.45617021 C25.87496,6.71540426 26.86232,6.49480851 27.99792,6.79574468 C28.49024,6.92646809 28.92,7.13480851 29.2872,7.42076596 C29.6544,7.70808511 29.90192,8.0226383 30.03112,8.36442553 C30.16032,8.70621277 30.21336,9.08612766 30.1916,9.50417021 C30.17528,9.77514894 30.08144,10.2313191 29.9128,10.8754043 L28.58408,15.9123404 L27.19688,15.5446809 L28.512,10.5622128 C28.66024,9.99574468 28.71872,9.5586383 28.68472,9.24953191 C28.65072,8.94042553 28.5188,8.6667234 28.2876,8.42706383 C28.05776,8.18740426 27.7572,8.01855319 27.38728,7.92187234 C26.79568,7.7652766 26.23672,7.81838298 25.70904,8.07982979 C25.18136,8.3412766 24.7788,8.99761702 24.50272,10.0461277 L23.32224,14.5206809 L21.93504,14.1557447 Z" id="Shape"></path>
                    <path d="M36.842,14.8869787 L38.15848,15.4248511 C37.76136,16.3276596 37.18608,16.9635745 36.43128,17.3325957 C35.67648,17.701617 34.85368,17.7683404 33.9588,17.532766 C32.83952,17.2359149 32.03576,16.6326809 31.54888,15.7189787 C31.062,14.8066383 30.99808,13.6655319 31.35984,12.2970213 C31.5924,11.4132766 31.94328,10.6779574 32.41112,10.0924255 C32.87896,9.50553191 33.4556,9.12561702 34.14104,8.95268085 C34.82648,8.77838298 35.52144,8.78519149 36.22592,8.97174468 C37.114,9.20731915 37.78176,9.624 38.2292,10.2231489 C38.67528,10.8222979 38.8684,11.5562553 38.80992,12.4277447 L37.4064,12.2793191 C37.42408,11.6951489 37.30576,11.2212766 37.05144,10.8577021 C36.79848,10.492766 36.44216,10.250383 35.97976,10.1278298 C35.28072,9.9426383 34.64832,10.0434043 34.07848,10.4301277 C33.51,10.8168511 33.0816,11.5521702 32.796,12.6374468 C32.50632,13.7377021 32.50632,14.5942128 32.796,15.2042553 C33.08568,15.8129362 33.56848,16.2078298 34.24712,16.3875745 C34.79248,16.5305532 35.29024,16.4842553 35.74312,16.2459574 C36.196,16.0076596 36.56048,15.5555745 36.842,14.8869787 Z" id="Shape"></path>
                    <path d="M38.60048,18.5622128 L41.58296,7.25191489 L42.97016,7.61957447 L41.89984,11.6760851 C42.74576,11.096 43.66104,10.9366809 44.6484,11.1981277 C45.2536,11.3574468 45.75,11.6175319 46.13352,11.9729362 C46.51568,12.3310638 46.7496,12.7450213 46.8312,13.2188936 C46.9128,13.6914043 46.84752,14.3273191 46.63536,15.1307234 L45.26584,20.3228936 L43.87728,19.955234 L45.24816,14.7630638 C45.43176,14.0685957 45.41408,13.5239149 45.19648,13.1276596 C44.98024,12.732766 44.59672,12.4617872 44.04592,12.3160851 C43.6352,12.2071489 43.22176,12.2125957 42.80288,12.3297021 C42.384,12.4481702 42.04944,12.668766 41.7992,12.9928511 C41.54896,13.3169362 41.33952,13.8017021 41.16952,14.4430638 L39.98768,18.9244255 L38.60048,18.5622128 Z" id="Shape"></path>
                    <path d="M53.67336,19.7251064 L55.0592,20.2820426 C54.61312,21.0595745 54.02152,21.6001702 53.28848,21.9011064 C52.55544,22.2020426 51.7136,22.2265532 50.76432,21.976 C49.56752,21.6600851 48.7148,21.0391489 48.20888,20.1172766 C47.70296,19.1926809 47.62408,18.0651915 47.97632,16.7348085 C48.3408,15.3554043 48.97592,14.3804255 49.88576,13.8071489 C50.7956,13.2325106 51.81424,13.0963404 52.9444,13.3945532 C54.0392,13.683234 54.8348,14.2919149 55.3312,15.2219574 C55.8276,16.152 55.89832,17.2917447 55.54064,18.6452766 C55.51888,18.7269787 55.48352,18.8495319 55.43592,19.0129362 L49.3336,17.3993191 C49.14728,18.3130213 49.22072,19.0701277 49.5512,19.6679149 C49.88168,20.2670638 50.38896,20.6578723 51.07168,20.837617 C51.58032,20.9724255 52.05088,20.9533617 52.47928,20.7804255 C52.90904,20.6074894 53.30752,20.2561702 53.67336,19.7251064 Z M49.71168,16.2772766 L54.27992,17.4851064 C54.40096,16.7797447 54.36288,16.216 54.16432,15.7965957 C53.86376,15.1443404 53.36192,14.7262979 52.6588,14.5397447 C52.02232,14.3722553 51.43072,14.4444255 50.884,14.7548936 C50.33728,15.0667234 49.9456,15.5746383 49.71168,16.2772766 Z" id="Shape"></path>
                    <path d="M56.24104,20.6102128 L57.66904,20.7572766 C57.60104,21.3278298 57.7044,21.8071489 57.97912,22.1925106 C58.25384,22.5778723 58.70672,22.8542979 59.33912,23.0217872 C59.9756,23.1906383 60.48288,23.1851915 60.8596,23.0068085 C61.23496,22.8284255 61.47024,22.5642553 61.56272,22.2142979 C61.64704,21.9024681 61.57496,21.6178723 61.35056,21.3659574 C61.1928,21.1930213 60.76168,20.9111489 60.0572,20.5217021 C59.10792,19.9947234 58.46192,19.5862128 58.11784,19.2948085 C57.77512,19.0034043 57.54528,18.6643404 57.42968,18.2803404 C57.31408,17.8949787 57.30864,17.5014468 57.41472,17.0997447 C57.51128,16.7348085 57.684,16.4188936 57.93288,16.152 C58.18312,15.8864681 58.47688,15.6862979 58.81824,15.5569362 C59.07528,15.4548085 59.40712,15.397617 59.80832,15.3853617 C60.20952,15.3731064 60.62432,15.4234894 61.05,15.5351489 C61.69328,15.7053617 62.23184,15.9477447 62.66704,16.2595745 C63.1036,16.572766 63.396,16.9186383 63.54424,17.2971915 C63.69248,17.6757447 63.74008,18.1387234 63.68704,18.6915745 L62.28216,18.5186383 C62.33112,18.0801702 62.24,17.7029787 62.00744,17.3897872 C61.77488,17.075234 61.38864,16.8464681 60.84872,16.7034894 C60.21088,16.5346383 59.72944,16.5196596 59.40168,16.6585532 C59.07392,16.7988085 58.87264,17.0085106 58.7992,17.2917447 C58.7516,17.4728511 58.7652,17.6498723 58.84,17.8228085 C58.91344,18.0025532 59.0576,18.172766 59.27248,18.3348085 C59.39896,18.4219574 59.77568,18.648 60.404,19.0129362 C61.31656,19.5344681 61.94488,19.9307234 62.2876,20.2003404 C62.63168,20.4685957 62.8724,20.7940426 63.0084,21.1698723 C63.14576,21.5470638 63.1512,21.9732766 63.02744,22.4471489 C62.90504,22.9101277 62.65616,23.3104681 62.27672,23.6468085 C61.9,23.9845106 61.42672,24.1982979 60.8596,24.2881702 C60.29248,24.3780426 59.68728,24.3371915 59.04536,24.1669787 C57.98184,23.8864681 57.22976,23.4507234 56.78912,22.8611064 C56.34848,22.2701277 56.16624,21.5211915 56.24104,20.6102128 Z" id="Shape"></path>
                    <path d="M67.39576,24.8491915 L67.27336,26.1278298 C66.86128,26.1060426 66.50088,26.0556596 66.19216,25.9739574 C65.68896,25.8405106 65.31904,25.6594043 65.08512,25.4265532 C64.84984,25.1923404 64.71112,24.9322553 64.66488,24.6422128 C64.62,24.3535319 64.70704,23.7911489 64.92736,22.9591489 L66.1704,18.2449362 L65.15312,17.9766809 L65.43872,16.8968511 L66.45464,17.1651064 L66.99048,15.1375319 L68.58984,14.6677447 L67.83504,17.5300426 L69.22904,17.8990638 L68.94344,18.9788936 L67.54944,18.6098723 L66.286,23.4003404 C66.18128,23.7965957 66.13912,24.0566809 66.1568,24.1833191 C66.1772,24.3099574 66.23296,24.4202553 66.32544,24.5155745 C66.41656,24.6122553 66.56752,24.6871489 66.77288,24.741617 C66.92792,24.7824681 67.13464,24.8178723 67.39576,24.8491915 Z" id="Shape"></path>
                    <path d="M74.72072,25.2917447 L76.10792,25.8473191 C75.66048,26.6262128 75.07024,27.1668085 74.3372,27.466383 C73.60416,27.7686809 72.76232,27.7931915 71.81168,27.5426383 C70.61488,27.2267234 69.76352,26.6057872 69.2576,25.6825532 C68.75032,24.7593191 68.6728,23.6318298 69.02368,22.3000851 C69.38816,20.9220426 70.02464,19.9457021 70.93312,19.3724255 C71.84296,18.7991489 72.86296,18.661617 73.99312,18.9598298 C75.08792,19.2498723 75.88352,19.8585532 76.37992,20.787234 C76.87632,21.7172766 76.94568,22.858383 76.58936,24.2105532 C76.56624,24.293617 76.53224,24.4148085 76.48328,24.5795745 L70.38232,22.9659574 C70.196,23.8796596 70.26808,24.6354043 70.59992,25.2345532 C70.9304,25.8337021 71.43768,26.2245106 72.1204,26.4042553 C72.62904,26.5390638 73.09824,26.52 73.528,26.3470638 C73.95776,26.1741277 74.35624,25.8228085 74.72072,25.2917447 Z M70.7604,21.8425532 L75.32864,23.0517447 C75.44832,22.3450213 75.41024,21.7826383 75.21304,21.363234 C74.91248,20.7109787 74.41064,20.2929362 73.70752,20.106383 C73.06968,19.9375319 72.47944,20.0097021 71.93136,20.3215319 C71.386,20.6333617 70.99432,21.1399149 70.7604,21.8425532 Z" id="Shape"></path>
                    <path d="M77.18504,28.7654468 L79.34608,20.5720851 L80.59456,20.9029787 L80.2668,22.1434894 C80.73872,21.6478298 81.13448,21.3414468 81.45136,21.2284255 C81.7696,21.1140426 82.09192,21.0990638 82.4156,21.1862128 C82.88208,21.3101277 83.31864,21.5838298 83.72256,22.0100426 L82.90384,23.1715745 C82.61824,22.8815319 82.3068,22.6908936 81.9668,22.602383 C81.66352,22.5220426 81.3684,22.5411064 81.07872,22.6595745 C80.78904,22.7794043 80.54968,22.986383 80.362,23.283234 C80.07776,23.7366809 79.8588,24.2568511 79.70512,24.842383 L78.5736,29.1317447 L77.18504,28.7654468 Z" id="Shape"></path>
                </g>
                <g id="Group" transform="translate(62.560000, 168.851064)" fill="#000000" fill-rule="nonzero">
                    <path d="M0.05712,9.36578723 L1.45112,1.00902128 L2.71728,1.22008511 L2.52144,2.39251064 C2.85192,2.02621277 3.25584,1.75523404 3.73184,1.57821277 C4.20784,1.40255319 4.72328,1.36034043 5.27952,1.45293617 C5.89832,1.55642553 6.38384,1.77021277 6.73608,2.09429787 C7.08832,2.41838298 7.30728,2.82280851 7.39296,3.31302128 C8.21576,2.44697872 9.15688,2.10246809 10.21632,2.27948936 C11.0432,2.41974468 11.64296,2.7547234 12.01016,3.28851064 C12.37872,3.82229787 12.4848,4.56578723 12.32432,5.52034043 L11.36688,11.2585532 L9.95928,11.0229787 L10.83784,5.7572766 C10.93168,5.19080851 10.9548,4.77548936 10.90448,4.51131915 C10.85552,4.24714894 10.72224,4.01838298 10.506,3.82502128 C10.29112,3.63302128 10.02048,3.51046809 9.69544,3.456 C9.10928,3.35795745 8.58976,3.47234043 8.13552,3.79778723 C7.68264,4.12323404 7.3848,4.71693617 7.24064,5.57753191 L6.43008,10.4333617 L5.01568,10.1964255 L5.9228,4.76595745 C6.02752,4.13685106 5.9908,3.6452766 5.81264,3.29123404 C5.63448,2.93855319 5.2836,2.71795745 4.76,2.63080851 C4.36288,2.56408511 3.97664,2.60629787 3.60264,2.76153191 C3.23,2.91404255 2.93352,3.18093617 2.71456,3.55948936 C2.4956,3.93668085 2.32152,4.50723404 2.19504,5.26842553 L1.47152,9.60408511 L0.05712,9.36578723 Z" id="Shape"></path>
                    <path d="M20.73456,11.4274043 L20.50744,12.7891064 L12.89144,11.5131915 C12.93768,11.1714043 13.04648,10.852766 13.22056,10.5586383 C13.50072,10.0711489 13.89648,9.61225532 14.40784,9.17923404 C14.9192,8.74621277 15.63184,8.26689362 16.54984,7.7412766 C17.97376,6.92153191 18.95704,6.24885106 19.49696,5.72323404 C20.03688,5.19489362 20.3524,4.66519149 20.4408,4.13004255 C20.53328,3.56765957 20.41224,3.06110638 20.07632,2.60902128 C19.73904,2.15557447 19.24944,1.87642553 18.6048,1.76885106 C17.92344,1.65446809 17.34408,1.76748936 16.86808,2.10791489 C16.38936,2.44970213 16.0888,2.98212766 15.96232,3.70519149 L14.53296,3.31165957 C14.81448,2.2427234 15.3272,1.47744681 16.07248,1.01582979 C16.81776,0.555574468 17.73712,0.418042553 18.83192,0.600510638 C19.9376,0.785702128 20.76176,1.23914894 21.30304,1.95948936 C21.84432,2.68119149 22.04016,3.49685106 21.8892,4.40374468 C21.81168,4.8653617 21.64168,5.30382979 21.3792,5.71778723 C21.11536,6.13310638 20.72504,6.54978723 20.20416,6.97055319 C19.68464,7.38995745 18.84416,7.94553191 17.68408,8.63591489 C16.71576,9.20782979 16.09016,9.6 15.80728,9.81378723 C15.52304,10.0275745 15.28096,10.2495319 15.08104,10.4810213 L20.73456,11.4274043 Z" id="Shape"></path>
                    <path d="M29.68744,12.9252766 L29.46032,14.285617 L21.84296,13.0110638 C21.8892,12.6679149 21.99936,12.3506383 22.17208,12.0551489 C22.45224,11.5690213 22.848,11.108766 23.35936,10.6757447 C23.87072,10.2427234 24.58472,9.76476596 25.50272,9.23778723 C26.92664,8.41940426 27.90856,7.7467234 28.44848,7.21974468 C28.9884,6.69276596 29.30392,6.16170213 29.39232,5.62655319 C29.48616,5.06553191 29.36512,4.55897872 29.02784,4.10553191 C28.69192,3.65344681 28.20096,3.37293617 27.55632,3.2653617 C26.87496,3.15097872 26.2956,3.2653617 25.8196,3.60578723 C25.3436,3.94621277 25.04168,4.4786383 24.9152,5.20170213 L23.48584,4.80953191 C23.766,3.73923404 24.27872,2.97395745 25.024,2.51370213 C25.76928,2.05344681 26.69,1.91455319 27.78344,2.09702128 C28.88912,2.28221277 29.71328,2.73565957 30.25456,3.4573617 C30.79584,4.17906383 30.99168,4.9933617 30.84072,5.90161702 C30.7632,6.36323404 30.5932,6.80034043 30.33072,7.21565957 C30.06824,7.63097872 29.67656,8.04629787 29.15704,8.46706383 C28.63616,8.88782979 27.79704,9.44204255 26.6356,10.1324255 C25.66864,10.7043404 25.04304,11.0978723 24.7588,11.3116596 C24.47592,11.5254468 24.23384,11.7474043 24.03392,11.9775319 L29.68744,12.9252766 Z" id="Shape"></path>
                    <path d="M35.9652,12.2444255 L37.41088,12.2920851 C37.43944,13.1213617 37.61896,13.7450213 37.94944,14.1657872 C38.27992,14.5851915 38.726,14.8411915 39.28632,14.9351489 C39.95272,15.0468085 40.55384,14.9092766 41.08832,14.5239149 C41.62416,14.1399149 41.9492,13.6061277 42.06208,12.9239149 C42.17088,12.2716596 42.04848,11.7011064 41.69352,11.2068085 C41.33992,10.7138723 40.83536,10.4129362 40.1812,10.3026383 C39.91328,10.2590638 39.57192,10.2549787 39.15576,10.2931064 L39.5216,9.07574468 C39.61408,9.10161702 39.68888,9.11931915 39.74736,9.12885106 C40.34848,9.22961702 40.91696,9.16289362 41.4528,8.93004255 C41.98864,8.69719149 42.3096,8.25055319 42.4184,7.59557447 C42.50544,7.07540426 42.40208,6.61651064 42.10696,6.21617021 C41.8132,5.81719149 41.38888,5.5693617 40.83264,5.47676596 C40.28184,5.38553191 39.7936,5.48221277 39.37064,5.76680851 C38.94496,6.05140426 38.62264,6.53208511 38.40232,7.20748936 L37.03008,6.7186383 C37.36056,5.79812766 37.87736,5.12817021 38.57776,4.70876596 C39.27816,4.288 40.08328,4.15591489 40.99448,4.30842553 C41.62416,4.4132766 42.1804,4.64476596 42.66456,5.00425532 C43.14872,5.36374468 43.49144,5.79948936 43.69544,6.31285106 C43.89672,6.82757447 43.95384,7.34638298 43.8668,7.872 C43.78384,8.36902128 43.5744,8.80204255 43.23848,9.16561702 C42.90392,9.53055319 42.45376,9.7892766 41.88936,9.94314894 C42.54352,10.2141277 43.01952,10.6294468 43.31328,11.1877447 C43.6084,11.7460426 43.69272,12.3996596 43.56896,13.1445106 C43.40032,14.1508085 42.89032,14.9433191 42.04032,15.5220426 C41.19032,16.0994043 40.20296,16.2941277 39.08232,16.1075745 C38.07184,15.9373617 37.28168,15.4961702 36.71456,14.7799149 C36.14744,14.0636596 35.89856,13.220766 35.9652,12.2444255 Z" id="Shape"></path>
                    <path d="M46.3352,17.1111489 L45.17512,8.32544681 L46.63576,8.57055319 L47.15936,13.6170213 L47.3552,15.4948085 C47.39192,15.4090213 47.63128,14.8575319 48.076,13.8430638 L50.22072,9.16970213 L51.67456,9.41344681 L52.11384,14.4708085 L52.26344,16.1388936 L53.0128,14.605617 L55.25,10.0125957 L56.62632,10.2427234 L52.62248,18.1637447 L51.15232,17.9172766 L50.66,12.6897021 L50.57432,11.2108936 L47.81216,17.3589787 L46.3352,17.1111489 Z" id="Shape"></path>
                    <path d="M61.20408,22.8915745 L61.8868,18.7982979 C61.61616,19.0706383 61.26528,19.277617 60.83552,19.4151489 C60.40712,19.5540426 59.96784,19.5853617 59.52312,19.5104681 C58.53168,19.3457021 57.7456,18.8051064 57.16352,17.8941277 C56.58008,16.9817872 56.40328,15.835234 56.63312,14.4571915 C56.77456,13.6170213 57.0452,12.8898723 57.44776,12.2716596 C57.85032,11.6548085 58.35488,11.2204255 58.96552,10.9685106 C59.5748,10.7165957 60.21128,10.6471489 60.87088,10.7574468 C61.90312,10.930383 62.64296,11.5022979 63.08904,12.4718298 L63.27672,11.355234 L64.54968,11.5676596 L62.61984,23.1285106 L61.20408,22.8915745 Z M58.0788,14.7554043 C57.89928,15.8311489 57.99176,16.6754043 58.3508,17.2881702 C58.71256,17.9009362 59.2076,18.2604255 59.83592,18.3652766 C60.4384,18.4660426 60.99872,18.2971915 61.5196,17.8587234 C62.04048,17.4202553 62.38728,16.6794894 62.56272,15.6337021 C62.74768,14.5225532 62.65792,13.6469787 62.29344,13.0083404 C61.92896,12.3697021 61.43664,11.9993191 60.8192,11.8971915 C60.20584,11.7937021 59.6428,11.968 59.12872,12.4187234 C58.61464,12.8694468 58.26376,13.6497021 58.0788,14.7554043 Z" id="Shape"></path>
                </g>
            </g>
        </g>
    </g>
</svg>