<?xml version="1.0" encoding="UTF-8"?>
<svg width="395px" height="458px" viewBox="0 0 395 458" version="1.1" xmlns="http://www.w3.org/2000/svg" xmlns:xlink="http://www.w3.org/1999/xlink">
    <!-- Generator: Sketch 51.3 (57544) - http://www.bohemiancoding.com/sketch -->
    <title>b7</title>
    <desc>Created with Sketch.</desc>
    <defs></defs>
    <g id="Page-1" stroke="none" stroke-width="1" fill="none" fill-rule="evenodd">
        <g id="b7" fill-rule="nonzero">
            <g id="Group" fill="#D8BFD8">
                <path d="M165.15972,131.489556 C165.27588,126.470035 166.73448,121.892674 168.70656,117.58853 C170.44896,113.780663 172.93452,110.309366 175.10592,106.698161 C176.26356,104.77245 177.27864,102.727948 178.65804,100.972501 C181.43268,97.4418098 184.45284,94.1051412 187.2948,90.627245 C190.79148,86.3508184 194.46504,82.1852622 197.6106,77.6606974 C204.39672,67.8948703 210.8436,57.8941037 217.54524,48.0702017 C219.18072,45.6732911 219.89748,43.1193141 219.61368,40.3779135 C219.37344,38.0562363 219.74172,35.9206628 220.38456,33.7507723 C221.82996,28.8949164 222.90576,23.9691066 223.30044,18.8994294 C223.42584,17.3195274 223.23312,15.9626859 222.21672,14.6916369 C221.46168,13.7465994 220.93632,12.6207378 220.23408,11.6308242 C217.81452,8.22948127 215.82924,4.39785591 211.6026,2.74140058 C211.26072,2.60677233 210.96372,2.34543516 210.672,2.10917579 C209.36256,1.0453487 207.82344,0.572829971 206.1972,0.77081268 C203.511,1.09946398 200.82084,1.49146974 198.17688,2.06957925 C194.61288,2.85095101 191.09904,3.8540634 187.55484,4.71990778 C183.10908,5.8074928 178.63692,6.78816715 174.207,7.93910663 C167.86704,9.58764265 161.52048,11.2203401 155.2452,13.0958963 C149.70912,14.7510317 143.97636,15.7805418 138.68448,18.2500461 C134.70732,20.105804 130.6074,21.7015447 126.65796,23.6140576 C119.66592,26.9969222 112.78212,30.6041671 105.79008,33.9843919 C98.3928,37.5586398 91.23972,41.5328127 84.37176,46.0494582 C80.26128,48.7512622 75.84984,50.9686686 72.20532,54.3911297 C69.35016,57.0731354 66.231,59.4766455 63.20292,61.9725476 C61.56084,63.3227896 59.86728,64.612317 58.19484,65.9282421 C57.97572,66.0998271 57.73812,66.2489741 57.53088,66.4337579 C54.26652,69.3097867 50.95332,72.1343401 47.75628,75.0869222 C43.95204,78.6004553 40.1478,82.1245476 36.53364,85.829464 C33.70092,88.7318905 31.22856,91.9827666 28.46976,94.9604265 C23.73624,100.07102 19.74852,105.765003 15.48228,111.239885 C13.15908,114.222824 10.62996,117.084334 8.64996,120.282415 C6.43764,123.855343 3.28548,127.067942 3.24192,131.702058 C3.23928,131.963395 3.12708,132.306565 2.94096,132.47419 C1.48368,133.787476 1.75956,135.45185 1.88232,137.126784 C1.94964,138.053343 1.97208,139.043256 1.72524,139.92362 C0.14256,145.554248 0.95304,151.297066 0.98604,156.98313 C0.99528,158.556432 1.47048,160.175931 1.3992,161.845585 C1.36224,162.70747 1.7028,163.779216 2.25192,164.444438 C4.26228,166.884905 6.435,169.193383 8.54172,171.555977 C11.15532,174.488761 14.23092,176.665251 18.10908,177.645925 C18.9684,177.863706 19.80264,178.408818 20.5062,178.979009 C23.89068,181.728329 27.6474,183.071971 32.0166,182.162571 C35.12784,181.517147 38.32356,181.088184 41.30676,180.053395 C52.9056,176.038305 64.40676,171.738121 76.00824,167.726991 C79.80192,166.416346 83.77248,165.607256 87.69024,164.678058 C89.5092,164.246455 90.48732,164.870761 90.5058,166.407107 C90.52956,168.450288 90.56784,170.543625 90.1758,172.531372 C88.88484,179.066121 86.78604,185.354052 83.6022,191.227539 C81.68952,194.751631 79.18812,198.026265 77.75856,201.724582 C76.12176,205.958772 73.42236,209.566017 71.68128,213.691977 C70.26624,217.044484 68.7258,220.361354 67.58136,223.804934 C66.79728,226.163568 66.43824,228.699066 66.18612,231.188369 C65.97492,233.272467 66.93984,235.454236 68.76144,236.110219 C71.1018,236.954945 73.0884,238.187718 75.08556,239.53664 C75.38784,239.739902 75.76668,239.885089 76.12704,239.939205 C80.47776,240.575389 84.81924,241.310565 89.19108,241.738207 C90.4728,241.866236 91.87596,241.210254 93.15768,240.732455 C94.017,240.411723 94.74828,239.754421 95.55744,239.284542 C102.1152,235.483274 108.69408,231.716323 115.236,227.884697 C121.13244,224.435839 126.89688,220.745441 132.8976,217.489285 C137.15988,215.176847 141.67032,213.298651 146.157,211.433654 C150.47472,209.638611 154.90464,208.111504 159.28176,206.457689 C163.31304,204.934542 167.28756,203.24113 171.3822,201.914646 C175.08744,200.710911 176.74932,201.582035 178.29372,205.102167 C179.9688,208.920594 180.939,212.845931 180.04932,217.080121 C179.34972,220.41283 178.4376,223.604311 176.30844,226.36419 C173.44932,230.069107 170.70504,233.861135 167.8578,237.575291 C165.69432,240.397205 163.6932,243.405222 161.17596,245.880006 C157.37568,249.617919 153.23748,253.016622 149.15736,256.461522 C138.7782,265.222916 128.34096,273.918317 117.94464,282.658594 C109.47948,289.774092 101.01564,296.886951 92.59668,304.053925 C88.39512,307.633452 84.25296,311.285573 80.16888,314.999729 C78.65484,316.377689 77.45364,318.093539 75.9924,319.537493 C70.08276,325.391182 65.16972,331.93385 61.60044,339.48755 C59.7432,343.419487 58.1724,347.418738 58.12488,351.794156 C58.10244,353.859775 57.5784,355.64162 56.60028,357.375948 C56.23332,358.029291 55.94028,358.72355 55.59576,359.388772 C51.05232,368.209562 46.56432,377.059389 41.9364,385.836622 C39.5868,390.291233 36.7752,394.509585 34.5444,399.020951 C30.93816,406.315954 27.36228,413.622836 24.47676,421.274207 C22.33572,426.951032 20.91276,432.730807 20.08248,438.65181 C19.37892,443.672651 21.5622,447.744496 25.59216,450.778911 C28.3866,452.886767 31.70904,453.553308 35.06184,453.99151 C38.85684,454.486467 42.70068,455.307435 46.47588,455.112092 C53.48904,454.750444 60.45204,453.491274 67.46388,453.07815 C78.77892,452.411608 90.09528,451.675112 101.46312,452.358813 C112.22904,453.009516 123.02532,453.129625 133.80312,453.619303 C144.01596,454.083902 154.2156,454.836236 164.42976,455.261239 C179.51208,455.888184 194.601,456.385781 209.69124,456.837182 C216.90636,457.053643 224.1294,457.140755 231.3498,457.106438 C240.15948,457.065522 248.97576,457.014046 257.77488,456.637879 C270.14328,456.109925 282.49848,455.306115 294.85896,454.572259 C304.78008,453.983591 314.69988,453.367205 324.61308,452.674265 C333.68808,452.039401 342.76572,451.442813 351.813,450.533412 C359.634,449.744121 367.41276,448.529827 375.21396,447.521435 C378.5166,447.095112 381.35328,445.933614 383.09964,442.862242 C383.41776,442.298651 383.98668,441.885527 384.3378,441.336455 C386.46564,438.003746 388.8786,435.004968 389.46996,430.699504 C390.74244,421.402236 392.02416,412.164363 391.71396,402.732467 C391.48164,395.71596 391.78524,388.680974 391.809,381.655228 C391.83408,374.158282 391.87368,366.665297 391.79052,359.169671 C391.6902,350.003072 391.45788,340.836473 391.30344,331.669873 C391.21896,326.614715 391.07112,321.556916 391.1622,316.504398 C391.21104,313.807873 391.68096,311.116628 391.99908,308.429343 C392.40168,305.005562 392.67096,301.555383 393.30984,298.173839 C394.21668,293.383977 394.98096,288.580916 394.76976,283.715821 C394.65228,280.970461 394.70376,278.062755 392.49804,275.821591 C389.31024,272.582594 386.13696,269.430709 380.97576,270.262236 C379.78248,270.454939 378.543,270.33615 377.32596,270.408744 C371.40312,270.766432 365.7192,270.024657 360.64644,266.66687 C360.01944,266.252427 359.22084,265.471055 359.21556,264.853349 C359.18784,262.2017 358.68096,259.436542 360.68736,257.104305 C361.46352,256.200184 361.95588,255.026807 362.47068,253.924703 C367.3956,243.353746 374.11968,233.875654 380.41608,224.129625 C383.05608,220.047222 385.40964,215.777395 387.81336,211.548484 C389.00136,209.459107 389.7102,207.264138 388.20012,204.9583 C387.9546,204.584772 387.86484,204.072657 387.816,203.612017 C387.40152,199.841107 384.88428,197.754369 381.90504,195.90917 C377.31276,193.068778 372.31524,193.805274 367.41012,194.181441 C362.46012,194.560248 358.03284,196.793493 353.67156,198.948865 C342.33408,204.549135 331.08636,210.328911 319.75548,215.941061 C317.6844,216.966611 315.447,217.857533 313.18848,218.278576 C305.18136,219.764767 297.12012,220.948703 289.10904,222.407176 C286.4796,222.882334 283.98084,222.723948 281.75532,221.435741 C279.42552,220.088138 277.21056,218.46468 275.20548,216.672277 C274.06764,215.653326 273.933,214.012709 274.75932,212.505401 C278.17944,206.261026 281.33952,199.858265 285.05532,193.796035 C291.36492,183.495654 298.01772,173.407775 304.53588,163.236744 C306.6096,160.001706 308.80212,156.841902 310.78344,153.551429 C314.5494,147.300455 318.11736,140.929372 321.91764,134.703476 C326.90328,126.536029 331.39128,118.116484 335.1612,109.322092 C336.26736,106.741718 337.26,104.101948 338.55096,101.616605 C340.10064,98.6363055 341.92224,95.7998732 343.61052,92.8908473 C344.83416,90.7816715 345.9786,88.6276196 347.26032,86.5514409 C350.01648,82.0862709 352.85052,77.6699366 355.61196,73.2100461 C356.20068,72.261049 356.78676,71.2473775 357.06924,70.1822305 C357.97872,66.7465706 358.77864,63.2818732 359.56404,59.8158559 C360.49596,55.7110144 361.23648,51.5573372 362.29248,47.4868127 C364.07052,40.636611 361.43976,34.1308991 355.96308,30.1950029 C351.34572,26.8768127 346.11984,24.7795159 340.95996,22.5528703 C338.75424,21.6012334 336.50892,21.2343055 334.1382,22.1819827 C333.3132,22.5119539 332.29548,22.3548876 331.36752,22.4472795 C330.44484,22.5396715 329.43636,22.4617983 328.62192,22.8181671 C326.66436,23.6721326 324.6672,24.5498559 322.91952,25.7535908 C317.91012,29.2011297 313.12908,32.9852392 308.0484,36.3205879 C301.35864,40.715804 295.8978,46.5747723 289.54332,51.3619942 C285.96348,54.0598386 282.67536,57.1457291 279.16416,59.941245 C274.92564,63.3148703 270.56304,66.5274697 266.30604,69.8746974 C259.70076,75.0671239 253.13772,80.3149856 246.55488,85.5351297 C241.0848,89.8722709 235.6398,94.2410893 230.13012,98.526755 C226.149,101.623205 222.12696,104.664219 218.04156,107.618121 C213.49152,110.903314 208.93092,114.189827 204.22248,117.24272 C197.00076,121.930951 189.61272,126.363124 182.3646,131.015718 C176.71236,134.642761 171.07596,134.046173 165.15972,131.489556 Z" id="Shape"></path>
                <path d="M165.15972,131.489556 C171.07596,134.046173 176.71236,134.642761 182.36724,131.015718 C189.61404,126.364444 197.00208,121.930951 204.22512,117.24272 C208.9296,114.188507 213.49284,110.901994 218.04288,107.618121 C222.1296,104.665539 226.15296,101.623205 230.13276,98.526755 C235.64244,94.2410893 241.08744,89.8722709 246.55752,85.5351297 C253.13904,80.3149856 259.70076,75.065804 266.30604,69.8746974 C270.56568,66.5261499 274.92696,63.3122305 279.16548,59.941245 C282.67668,57.1457291 285.9648,54.0598386 289.54464,51.3619942 C295.8978,46.5734524 301.35864,40.715804 308.05104,36.3205879 C313.1304,32.9839193 317.91012,29.1998098 322.92084,25.7535908 C324.66984,24.5498559 326.66436,23.6734524 328.62192,22.8181671 C329.43636,22.4604784 330.44484,22.5396715 331.36752,22.4472795 C332.29548,22.3548876 333.3132,22.5119539 334.13952,22.1819827 C336.51024,21.2343055 338.75688,21.6038732 340.96128,22.5528703 C346.12248,24.7808357 351.34836,26.8768127 355.96308,30.1950029 C361.44108,34.1295793 364.07184,40.6352911 362.29248,47.4868127 C361.2378,51.5573372 360.49728,55.7096945 359.56536,59.8158559 C358.77996,63.2818732 357.98268,66.7465706 357.06924,70.1822305 C356.78808,71.2473775 356.202,72.261049 355.61196,73.2100461 C352.85052,77.6725764 350.01516,82.0889107 347.26164,86.5527608 C345.97992,88.6249798 344.83548,90.7816715 343.61052,92.8908473 C341.92224,95.7998732 340.10064,98.6376254 338.55096,101.616605 C337.26,104.101948 336.26604,106.743037 335.15988,109.322092 C331.39128,118.119124 326.90328,126.536029 321.91632,134.703476 C318.11604,140.932012 314.54808,147.300455 310.78344,153.551429 C308.80212,156.841902 306.60828,160.001706 304.5372,163.236744 C298.01904,173.407775 291.36492,183.496974 285.054,193.796035 C281.34084,199.858265 278.18076,206.259706 274.75932,212.505401 C273.933,214.014029 274.06896,215.652006 275.20548,216.672277 C277.20924,218.46468 279.42552,220.089458 281.754,221.435741 C283.98216,222.725268 286.4796,222.884974 289.10904,222.407176 C297.1188,220.950023 305.18136,219.766086 313.18848,218.278576 C315.447,217.858853 317.68176,216.969251 319.75548,215.941061 C331.08636,210.328911 342.33408,204.549135 353.67156,198.948865 C358.03416,196.793493 362.4588,194.560248 367.4088,194.181441 C372.31788,193.805274 377.3154,193.067458 381.90504,195.90917 C384.8856,197.753049 387.4002,199.841107 387.81468,203.612017 C387.86352,204.071337 387.9546,204.582133 388.20144,204.9583 C389.7102,207.265458 389.00268,209.459107 387.81468,211.548484 C385.41096,215.777395 383.0574,220.047222 380.4174,224.129625 C374.11968,233.875654 367.39692,243.353746 362.472,253.924703 C361.95852,255.026807 361.46616,256.201504 360.69,257.104305 C358.68228,259.437862 359.18784,262.20302 359.21556,264.853349 C359.22216,265.471055 360.01944,266.252427 360.64776,266.66687 C365.72052,270.024657 371.40444,270.765112 377.32728,270.408744 C378.54432,270.33483 379.7838,270.454939 380.9784,270.262236 C386.13828,269.432029 389.31156,272.583914 392.50068,275.821591 C394.7064,278.062755 394.65492,280.970461 394.7724,283.715821 C394.98096,288.582236 394.21668,293.385297 393.31116,298.173839 C392.6736,301.554063 392.403,305.004242 392.00172,308.429343 C391.6836,311.117948 391.21236,313.807873 391.16352,316.504398 C391.07508,321.556916 391.22292,326.614715 391.30608,331.669873 C391.46052,340.836473 391.69284,350.003072 391.79316,359.169671 C391.87632,366.665297 391.8354,374.158282 391.81032,381.655228 C391.78656,388.680974 391.4856,395.71332 391.71528,402.732467 C392.02548,412.164363 390.74508,421.403556 389.4726,430.699504 C388.88388,435.004968 386.47092,438.001107 384.33912,441.336455 C383.988,441.885527 383.42172,442.298651 383.10096,442.862242 C381.35592,445.933614 378.51924,447.095112 375.2166,447.521435 C367.41672,448.532467 359.63664,449.748081 351.81432,450.533412 C342.76704,451.442813 333.68808,452.039401 324.61572,452.674265 C314.70252,453.364565 304.78272,453.980951 294.8616,454.572259 C282.50244,455.308755 270.1446,456.109925 257.77752,456.637879 C248.9784,457.014046 240.1608,457.065522 231.35112,457.106438 C224.13204,457.140755 216.909,457.053643 209.69256,456.838501 C194.60232,456.383141 179.5134,455.885545 164.43108,455.261239 C154.21692,454.836236 144.01728,454.081262 133.80444,453.619303 C123.02664,453.129625 112.23036,453.009516 101.46444,452.358813 C90.0966,451.672473 78.78024,452.411608 67.4652,453.07815 C60.45336,453.491274 53.49036,454.751764 46.4772,455.112092 C42.70068,455.307435 38.85816,454.486467 35.06316,453.99151 C31.71036,453.553308 28.38792,452.886767 25.59348,450.778911 C21.56352,447.743176 19.38024,443.671331 20.0838,438.65181 C20.91408,432.730807 22.33836,426.951032 24.47808,421.274207 C27.3636,413.620196 30.93948,406.315954 34.54572,399.020951 C36.7752,394.509585 39.5868,390.292553 41.93772,385.836622 C46.56564,377.059389 51.05364,368.209562 55.59708,359.388772 C55.94028,358.722231 56.23332,358.029291 56.6016,357.375948 C57.57972,355.64162 58.10376,353.859775 58.1262,351.794156 C58.17372,347.418738 59.74452,343.418167 61.60176,339.48755 C65.17236,331.93253 70.08408,325.389862 75.99372,319.537493 C77.45364,318.090899 78.65484,316.376369 80.1702,314.999729 C84.25428,311.285573 88.39644,307.632133 92.598,304.053925 C101.01696,296.884311 109.4808,289.772772 117.94596,282.658594 C128.34228,273.918317 138.77952,265.222916 149.15868,256.460202 C153.2388,253.019262 157.377,249.616599 161.17728,245.878686 C163.69452,243.403902 165.69432,240.395885 167.85912,237.573971 C170.70768,233.859816 173.45064,230.066467 176.30976,226.36287 C178.44024,223.602991 179.35236,220.41151 180.05064,217.078801 C180.94032,212.844611 179.97012,208.916634 178.29504,205.100847 C176.75064,201.580715 175.08744,200.710911 171.38352,201.913326 C167.28888,203.24245 163.31436,204.933222 159.28308,206.456369 C154.90596,208.110184 150.47604,209.635971 146.15832,211.432334 C141.67296,213.298651 137.1612,215.176847 132.89892,217.489285 C126.8982,220.744121 121.13376,224.434519 115.23732,227.884697 C108.69408,231.712363 102.11652,235.480634 95.55876,239.283222 C94.7496,239.751781 94.01832,240.410403 93.159,240.731135 C91.87728,241.207614 90.47412,241.863597 89.1924,241.738207 C84.82056,241.307925 80.47908,240.574069 76.12836,239.937885 C73.08972,238.187718 71.10312,236.954945 68.76276,236.108899 C66.94248,235.452916 65.97756,233.272467 66.18744,231.187049 C66.43956,228.699066 66.7986,226.162248 67.58268,223.803614 C68.72712,220.360035 70.26756,217.044484 71.6826,213.691977 C73.42236,209.567337 76.12176,205.957452 77.75988,201.723262 C79.18944,198.024945 81.69084,194.750311 83.60352,191.226219 C86.78868,185.352732 88.88748,179.064801 90.17712,172.530052 C90.56916,170.542305 90.5322,168.448968 90.50712,166.405787 C90.48732,164.869441 89.51052,164.245135 87.69156,164.676738 C83.77512,165.603297 79.80324,166.412386 76.00956,167.725671 C64.40808,171.736801 52.90692,176.036986 41.30808,180.052075 C38.32488,181.084225 35.12916,181.513187 32.01792,182.161251 C27.64872,183.069331 23.892,181.727009 20.50752,178.977689 C19.80396,178.407499 18.96972,177.861066 18.1104,177.644605 C14.23224,176.662611 11.15664,174.486121 8.54304,171.554657 C6.43632,169.192063 4.26492,166.883585 2.25324,164.443118 C1.70412,163.777896 1.36356,162.70747 1.40052,161.844265 C1.47312,160.174611 0.9966,158.556432 0.98736,156.98181 C0.95436,151.295746 0.14388,145.554248 1.72656,139.9223 C1.9734,139.041937 1.94964,138.052023 1.88364,137.125464 C1.76088,135.44921 1.48368,133.787476 2.94228,132.47287 C3.2868,127.065303 6.43764,123.854023 8.65128,120.281095 C10.63128,117.083014 13.1604,114.221504 15.4836,111.239885 C19.74984,105.763683 23.73756,100.07102 28.47108,94.9604265 C31.22988,91.9814467 33.70224,88.7305706 36.53496,85.829464 C40.14912,82.1232277 43.95336,78.5991354 47.7576,75.0856023 C50.95464,72.1356599 54.26784,69.3097867 57.5322,66.432438 C59.8686,64.6109971 61.56216,63.3227896 63.20424,61.9712277 C66.23232,59.4740058 69.35148,57.0731354 72.20664,54.3898098 C75.85116,50.9660288 80.26392,48.7499424 84.37308,46.0481383 C91.23972,41.5314928 98.39412,37.5586398 105.7914,33.983072 C112.78344,30.6015274 119.66724,26.9956023 126.65928,23.6127378 C130.60872,21.7015447 134.70864,20.1044841 138.6858,18.2487262 C143.979,15.7792219 149.71044,14.7497118 155.24652,13.0945764 C161.52048,11.2203401 167.86836,9.58632277 174.20832,7.93778674 C178.63692,6.78684726 183.1104,5.80617291 187.55616,4.7185879 C191.10036,3.85142363 194.6142,2.84831124 198.1782,2.06957925 C200.81952,1.49146974 203.50968,1.09814409 206.19588,0.769492795 C207.8208,0.572829971 209.35992,1.04402882 210.672,2.10785591 C215.83056,4.39653602 217.8132,8.22816138 220.23408,11.6295043 C220.93764,12.6194179 221.46168,13.7465994 222.21672,14.690317 C223.23444,15.9626859 223.42584,17.3182075 223.30176,18.8994294 C222.90444,23.9691066 221.82996,28.8935965 220.38588,33.7507723 C219.7404,35.9206628 219.37212,38.0562363 219.615,40.3779135 C219.8988,43.1193141 219.1794,45.6732911 217.54524,48.0702017 C210.8436,57.8954236 204.39672,67.8948703 197.6106,77.6606974 C194.46504,82.1865821 190.79148,86.3494986 187.2948,90.627245 C184.45152,94.1051412 181.43136,97.4418098 178.65804,100.972501 C177.27864,102.727948 176.26356,104.77113 175.10592,106.698161 C172.93452,110.310686 170.44896,113.780663 168.70656,117.58853 C166.73448,121.895314 165.27588,126.471354 165.15972,131.489556 Z" id="Shape"></path>
            </g>
            <g id="Group" transform="translate(127.000000, 272.000000)" fill="#000000">
                <path d="M5.782,42.1893333 L2.01255556,36.092 L0.978088889,36.7533333 L0.405133333,35.828 L1.4396,35.1666667 L0.976777778,34.4186667 C0.685711111,33.9466667 0.510022222,33.5706667 0.451022222,33.288 C0.372355556,32.908 0.416933333,32.5306667 0.582133333,32.156 C0.747333333,31.784 1.0856,31.4333333 1.59693333,31.1053333 C1.92602222,30.8946667 2.31542222,30.7013333 2.76382222,30.5253333 L3.23057778,31.676 C2.96048889,31.7866667 2.71662222,31.912 2.50028889,32.0506667 C2.14497778,32.2773333 1.94044444,32.516 1.88931111,32.764 C1.83817778,33.012 1.94306667,33.348 2.20397778,33.772 L2.60517778,34.42 L3.95037778,33.5586667 L4.52333333,34.4853333 L3.17682222,35.3466667 L6.94757778,41.444 L5.782,42.1893333 Z" id="Shape"></path>
                <path d="M9.18957778,40.0106667 L4.84586667,32.9866667 L5.9,32.312 L6.55817778,33.3773333 C6.51884444,32.7066667 6.56342222,32.22 6.69453333,31.916 C6.82433333,31.6106667 7.02493333,31.372 7.29764444,31.1973333 C7.69228889,30.9453333 8.17215556,30.816 8.73855556,30.8106667 L9.01782222,32.1733333 C8.6258,32.184 8.28622222,32.2813333 8.0004,32.464 C7.74473333,32.628 7.5638,32.8533333 7.45628889,33.14 C7.34877778,33.4266667 7.33828889,33.7373333 7.42351111,34.0693333 C7.55593333,34.576 7.77751111,35.0813333 8.08693333,35.584 L10.3604,39.2613333 L9.18957778,40.0106667 Z" id="Shape"></path>
                <path d="M16.9670889,31.88 L18.2716444,31.2586667 C18.5246889,32.0986667 18.5168222,32.8826667 18.2454222,33.6106667 C17.9740222,34.3373333 17.4377778,34.9573333 16.6366889,35.4706667 C15.6258222,36.116 14.6293778,36.312 13.6460444,36.0573333 C12.6627111,35.804 11.8183556,35.104 11.1129778,33.9626667 C10.3813778,32.7813333 10.1139111,31.6733333 10.3092667,30.6386667 C10.5046222,29.604 11.0788889,28.78 12.0320667,28.1706667 C12.9550889,27.58 13.9069556,27.4173333 14.8876667,27.6826667 C15.8683778,27.9466667 16.7179778,28.6586667 17.4338444,29.82 C17.4771111,29.8906667 17.5413556,29.9973333 17.6239556,30.1413333 L12.4726,33.4346667 C12.9931111,34.18 13.5726222,34.632 14.2124444,34.796 C14.8522667,34.96 15.4606222,34.8573333 16.0362,34.4893333 C16.4662444,34.2146667 16.7612444,33.8653333 16.9225111,33.4426667 C17.0837778,33.02 17.1008222,32.496 16.9670889,31.88 Z M11.9350444,32.4146667 L15.7910222,29.948 C15.3740889,29.3893333 14.9519111,29.0413333 14.5271111,28.9013333 C13.8715556,28.6813333 13.2448444,28.7613333 12.6509111,29.1413333 C12.1133556,29.4853333 11.7750889,29.956 11.6348,30.5573333 C11.4945111,31.156 11.5941556,31.776 11.9350444,32.4146667 Z" id="Shape"></path>
                <path d="M24.3748667,27.144 L25.6781111,26.5226667 C25.9311556,27.364 25.9232889,28.1466667 25.6518889,28.8746667 C25.3818,29.6013333 24.8455556,30.2213333 24.0431556,30.7346667 C23.0322889,31.38 22.0358444,31.576 21.0538222,31.3213333 C20.0704889,31.068 19.2261333,30.3693333 18.5194444,29.228 C17.7891556,28.0453333 17.5203778,26.9373333 17.7157333,25.9026667 C17.9097778,24.868 18.4840444,24.044 19.4385333,23.4346667 C20.3615556,22.844 21.3147333,22.6813333 22.2941333,22.9466667 C23.2748444,23.2106667 24.1244444,23.9226667 24.8403111,25.084 C24.8835778,25.1546667 24.9478222,25.2613333 25.0304222,25.4053333 L19.8790667,28.6986667 C20.3995778,29.444 20.9790889,29.896 21.6189111,30.06 C22.2574222,30.224 22.8657778,30.1213333 23.4426667,29.7533333 C23.8714,29.4786667 24.1677111,29.1293333 24.3289778,28.7066667 C24.4941778,28.28 24.5086,27.7613333 24.3748667,27.144 Z M19.3415111,27.6773333 L23.1974889,25.2106667 C22.7805556,24.6533333 22.3583778,24.304 21.9335778,24.164 C21.2780222,23.944 20.6526222,24.024 20.0586889,24.404 C19.5211333,24.748 19.1828667,25.22 19.0425778,25.8213333 C18.9022889,26.4226667 19.0019333,27.04 19.3415111,27.6773333 Z" id="Shape"></path>
                <path d="M35.4826,20.0413333 L36.7871556,19.42 C37.0402,20.26 37.0323333,21.044 36.7609333,21.7706667 C36.4895333,22.4973333 35.9546,23.1186667 35.1522,23.6306667 C34.1413333,24.2773333 33.1448889,24.4733333 32.1628667,24.2186667 C31.1795333,23.964 30.3351778,23.2653333 29.6284889,22.124 C28.8982,20.9426667 28.6294222,19.8346667 28.8247778,18.8 C29.0201333,17.7653333 29.5944,16.9413333 30.5475778,16.3306667 C31.4706,15.7413333 32.4224667,15.5786667 33.4031778,15.8426667 C34.3838889,16.108 35.2334889,16.82 35.9493556,17.9813333 C35.9926222,18.052 36.0568667,18.1586667 36.1394667,18.3026667 L30.9894222,21.596 C31.5099333,22.34 32.0894444,22.7933333 32.7292667,22.9573333 C33.3690889,23.1213333 33.9774444,23.0186667 34.5543333,22.6506667 C34.9830667,22.376 35.2793778,22.0266667 35.4406444,21.604 C35.6019111,21.176 35.6163333,20.656 35.4826,20.0413333 Z M30.4492444,20.5746667 L34.3052222,18.108 C33.8882889,17.5493333 33.4661111,17.2 33.0413111,17.0613333 C32.3857556,16.8413333 31.7590444,16.9213333 31.1651111,17.3013333 C30.6275556,17.6453333 30.2892889,18.116 30.149,18.7173333 C30.0100222,19.3173333 30.1096667,19.936 30.4492444,20.5746667 Z" id="Shape"></path>
                <path d="M39.5601556,20.5893333 L35.2164444,13.5653333 L36.2705778,12.892 L36.8881111,13.8906667 C36.9182667,12.7946667 37.4125556,11.94 38.3696667,11.3266667 C38.7866,11.0613333 39.2166444,10.892 39.6584889,10.8213333 C40.1016444,10.7493333 40.4858,10.7826667 40.8122667,10.9173333 C41.1387333,11.0546667 41.4402889,11.2693333 41.7195556,11.564 C41.8991778,11.7573333 42.1600889,12.1293333 42.5009778,12.68 L45.1717111,16.9986667 L44.0008889,17.748 L41.359,13.4746667 C41.0587556,12.9906667 40.7886667,12.6573333 40.5500444,12.4746667 C40.3114222,12.292 40.0308444,12.204 39.7096222,12.2093333 C39.3897111,12.2146667 39.0737333,12.3173333 38.7603778,12.516 C38.2621556,12.8346667 37.9304444,13.2706667 37.7678667,13.824 C37.6039778,14.3773333 37.8006444,15.1026667 38.3578667,16.0026667 L40.7296667,19.8386667 L39.5601556,20.5893333 Z" id="Shape"></path>
                <path d="M48.8664222,13.1533333 L49.6858667,14.0973333 C49.4000444,14.3786667 49.1273333,14.6026667 48.8664222,14.768 C48.4416222,15.04 48.0705778,15.1826667 47.7506667,15.1946667 C47.4307556,15.2066667 47.1554222,15.1333333 46.9233556,14.972 C46.6912889,14.8106667 46.3530222,14.3733333 45.9111778,13.6586667 L43.4122,9.61866667 L42.5547333,10.1666667 L41.9817778,9.24133333 L42.8405556,8.69333333 L41.7654444,6.95333333 L42.4878667,5.49466667 L44.0048222,7.948 L45.1808889,7.196 L45.7538444,8.12133333 L44.5764667,8.87333333 L47.1160889,12.98 C47.3258667,13.32 47.4818889,13.5253333 47.5828444,13.596 C47.6838,13.6666667 47.7991778,13.7 47.9276667,13.6986667 C48.0561556,13.696 48.2069333,13.6386667 48.3813111,13.528 C48.5111111,13.444 48.6723778,13.32 48.8664222,13.1533333 Z" id="Shape"></path>
                <path d="M50.6560889,13.4933333 L46.3123778,6.46933333 L47.3665111,5.796 L48.0246889,6.86 C47.9853556,6.19066667 48.0299333,5.704 48.1597333,5.39866667 C48.2895333,5.09333333 48.4901333,4.85466667 48.7641556,4.68 C49.1588,4.428 49.6386667,4.3 50.2037556,4.29466667 L50.4830222,5.656 C50.091,5.668 49.7514222,5.764 49.4656,5.948 C49.2099333,6.11066667 49.029,6.336 48.9214889,6.624 C48.8139778,6.91066667 48.8034889,7.22 48.8887111,7.55333333 C49.0211333,8.06 49.2414,8.564 49.5521333,9.06666667 L51.8256,12.744 L50.6560889,13.4933333 Z" id="Shape"></path>
                <path d="M56.7252222,13.388 L55.9031556,12.3533333 C56.2034,12.2613333 56.4485778,12.1533333 56.64,12.0306667 C56.8996,11.8653333 57.0805333,11.688 57.1814889,11.5 C57.2837556,11.312 57.3348889,11.1066667 57.3362,10.884 C57.3362,10.7186667 57.2732667,10.3466667 57.1460889,9.76933333 C57.1264222,9.68933333 57.1015111,9.57066667 57.0687333,9.41066667 L50.0975556,4.04933333 L51.3588444,3.244 L55.3105333,6.39066667 C55.8166222,6.788 56.3187778,7.224 56.817,7.69733333 C56.6137778,7.064 56.4446444,6.42933333 56.3082889,5.78933333 L55.2528444,0.750666667 L56.4236667,0.00266666667 L58.2133333,8.824 C58.4073778,9.776 58.5175111,10.448 58.5411111,10.8386667 C58.5752,11.3653333 58.5148889,11.8053333 58.3588667,12.1586667 C58.2041556,12.5146667 57.9393111,12.8106667 57.5669556,13.0493333 C57.3427556,13.196 57.0608667,13.308 56.7252222,13.388 Z" id="Shape"></path>
            </g>
            <g id="Group" transform="translate(165.000000, 401.000000)" fill="#000000">
                <path d="M0.221617021,6.8432 L1.61068085,6.7509 C1.63838298,7.2995 1.81514894,7.7324 2.14097872,8.0522 C2.46680851,8.3707 2.94565957,8.5592 3.57621277,8.6138 C4.21204255,8.6697 4.69617021,8.5852 5.0272766,8.3564 C5.35838298,8.1289 5.53910638,7.8416 5.57076596,7.4971 C5.59846809,7.189 5.48502128,6.9329 5.22910638,6.7327 C5.04970213,6.5949 4.59195745,6.3986 3.85455319,6.1464 C2.86123404,5.8032 2.17659574,5.5237 1.79931915,5.3066 C1.4233617,5.0869 1.14897872,4.8048 0.976170213,4.4616 C0.803361702,4.1171 0.733446809,3.7466 0.76906383,3.3527 C0.802042553,2.9939 0.915489362,2.6689 1.10940426,2.3777 C1.30331915,2.0852 1.55395745,1.8512 1.86,1.6731 C2.08953191,1.5366 2.39557447,1.43 2.77680851,1.3546 C3.15804255,1.2792 3.56302128,1.2584 3.98910638,1.2948 C4.63021277,1.3507 5.18557447,1.4911 5.65387234,1.716 C6.12217021,1.9409 6.45723404,2.2204 6.66038298,2.5519 C6.86353191,2.8834 6.98489362,3.3124 7.02446809,3.8402 L5.65255319,3.9039 C5.62880851,3.484 5.47974468,3.1447 5.2053617,2.886 C4.93097872,2.6273 4.52468085,2.4752 3.98514894,2.4258 C3.34931915,2.3699 2.88629787,2.4349 2.59476596,2.6169 C2.30455319,2.8015 2.14625532,3.0316 2.12119149,3.3098 C2.1053617,3.4866 2.14757447,3.6517 2.24782979,3.8025 C2.34808511,3.9585 2.51429787,4.0963 2.74646809,4.2133 C2.88102128,4.2757 3.27808511,4.4278 3.93897872,4.6696 C4.89668085,5.0141 5.56021277,5.2871 5.93353191,5.4847 C6.30553191,5.6823 6.58914894,5.9475 6.78174468,6.2803 C6.97434043,6.6131 7.04953191,7.0122 7.00731915,7.4776 C6.96642553,7.9339 6.79229787,8.3512 6.48625532,8.7295 C6.18153191,9.1078 5.7633617,9.3847 5.23570213,9.5615 C4.70804255,9.737 4.12234043,9.7955 3.48123404,9.7383 C2.41931915,9.646 1.62914894,9.3561 1.11204255,8.8725 C0.596255319,8.3863 0.299446809,7.7116 0.221617021,6.8432 Z" id="Shape"></path>
                <path d="M13.8682128,9.464 C13.3168085,9.8488 12.7944255,10.1088 12.3037021,10.244 C11.8129787,10.3792 11.2958723,10.4247 10.7510638,10.3766 C9.8527234,10.2973 9.18259574,10.023 8.7393617,9.5472 C8.29612766,9.0714 8.10485106,8.4968 8.16553191,7.8247 C8.20114894,7.4295 8.32514894,7.0785 8.53621277,6.7678 C8.7472766,6.4571 9.00978723,6.2153 9.32374468,6.0437 C9.63770213,5.8721 9.98331915,5.7525 10.3619149,5.6836 C10.6402553,5.6368 11.0571064,5.6043 11.6124681,5.5874 C12.7429787,5.5549 13.5819574,5.4691 14.126766,5.3352 C14.1491915,5.148 14.162383,5.0297 14.1663404,4.979 C14.2164681,4.4226 14.1214894,4.0196 13.8800851,3.7687 C13.5542553,3.4281 13.0424255,3.2279 12.3432766,3.1668 C11.691617,3.1096 11.1995745,3.1811 10.8684681,3.3787 C10.5386809,3.5763 10.2722128,3.9533 10.0717021,4.5123 L8.73276596,4.212 C8.90689362,3.6504 9.15225532,3.2084 9.46621277,2.8821 C9.78017021,2.5558 10.2128511,2.3205 10.7642553,2.1775 C11.3143404,2.0358 11.9422553,1.9929 12.6453617,2.054 C13.3431915,2.1164 13.9038298,2.2464 14.3246383,2.4466 C14.746766,2.6468 15.0488511,2.8808 15.2322128,3.1434 C15.4155745,3.406 15.5316596,3.7271 15.5791489,4.1093 C15.6042128,4.3459 15.5897021,4.7684 15.5342979,5.3755 L15.3694043,7.1955 C15.2546383,8.4656 15.2111064,9.2729 15.2401277,9.6135 C15.2678298,9.9554 15.3562128,10.2869 15.5026383,10.6106 L14.0555319,10.4832 C13.9368085,10.1855 13.8748085,9.8449 13.8682128,9.464 Z M14.0278298,6.4025 C13.5054468,6.5611 12.736383,6.6664 11.718,6.7197 C11.1402128,6.7496 10.7299574,6.8055 10.4845957,6.8874 C10.239234,6.968 10.044,7.1006 9.89757447,7.2839 C9.75246809,7.4685 9.66804255,7.6778 9.64693617,7.9144 C9.61395745,8.2784 9.72608511,8.5943 9.98331915,8.8621 C10.2405532,9.1299 10.6402553,9.2872 11.1784681,9.334 C11.7114043,9.3808 12.1968511,9.308 12.6334894,9.1156 C13.0701277,8.9219 13.4038723,8.632 13.6347234,8.2498 C13.8114894,7.9534 13.9275745,7.5062 13.9816596,6.9043 L14.0278298,6.4025 Z" id="Shape"></path>
                <path d="M20.3478723,9.802 L20.4388936,11.0253 C20.0418298,11.0721 19.6882979,11.0825 19.3809362,11.0539 C18.8783404,11.011 18.4957872,10.8979 18.2319574,10.7159 C17.9694468,10.5352 17.7926809,10.3129 17.7029787,10.0477 C17.6132766,9.7825 17.6053617,9.2378 17.679234,8.4188 L18.0987234,3.783 L17.0816596,3.6946 L17.1779574,2.6338 L18.1950213,2.7222 L18.3757447,0.7267 L19.8281277,0.0286 L19.5735319,2.8431 L20.9678723,2.9653 L20.8715745,4.0274 L19.477234,3.9052 L19.0511489,8.6164 C19.0155319,9.0064 19.0181702,9.2586 19.0564255,9.3743 C19.0946809,9.49 19.1659149,9.5849 19.2714468,9.6603 C19.3756596,9.737 19.5313191,9.7838 19.7371064,9.8007 C19.8888085,9.8163 20.0932766,9.8163 20.3478723,9.802 Z" id="Shape"></path>
                <path d="M26.9502128,11.6142 L27.058383,10.4299 C26.3394468,11.284 25.4331915,11.6636 24.339617,11.5687 C23.8568085,11.5258 23.4148936,11.3945 23.0138723,11.1761 C22.6115319,10.9577 22.3226383,10.7029 22.143234,10.4091 C21.9651489,10.1153 21.8543404,9.7643 21.8081702,9.3561 C21.7765106,9.0831 21.7857447,8.6567 21.8385106,8.0743 L22.2896596,3.0823 L23.6760851,3.2045 L23.2724255,7.6739 C23.2077872,8.3876 23.1919574,8.8699 23.2262553,9.1221 C23.2816596,9.4887 23.4399574,9.789 23.7037872,10.0178 C23.967617,10.2479 24.3079574,10.3792 24.7221702,10.4156 C25.1377021,10.452 25.5374043,10.3831 25.9212766,10.205 C26.3051489,10.0269 26.588766,9.7643 26.7734468,9.4159 C26.9568085,9.0675 27.0808085,8.5488 27.1428085,7.8611 L27.5332766,3.5451 L28.9197021,3.666 L28.1915319,11.7234 L26.9502128,11.6142 Z" id="Shape"></path>
                <path d="M30.3457021,11.9106 L31.0738723,3.8545 L32.3217872,3.9637 L32.2109787,5.1844 C32.5816596,4.641 32.9088085,4.29 33.1950638,4.1301 C33.48,3.9728 33.7860426,3.9065 34.109234,3.9364 C34.5762128,3.9767 35.0379149,4.1652 35.4930213,4.5019 L34.9020426,5.7265 C34.5814894,5.499 34.2517021,5.3716 33.9126809,5.3417 C33.6105957,5.3144 33.329617,5.382 33.072383,5.5393 C32.8151489,5.6979 32.6199149,5.9306 32.4893191,6.24 C32.2914468,6.7119 32.1661277,7.2371 32.1146809,7.813 L31.7334468,12.0315 L30.3457021,11.9106 Z" id="Shape"></path>
                <path d="M40.9160426,12.8388 L41.008383,11.8235 C40.4174043,12.5762 39.6193191,12.909 38.6141277,12.8219 C37.9624681,12.7647 37.3780851,12.5346 36.863617,12.1329 C36.3491489,11.7299 35.9705532,11.2008 35.7278298,10.5391 C35.4851064,9.8774 35.4006809,9.1338 35.4758723,8.3083 C35.5497447,7.5049 35.7502553,6.7886 36.0826809,6.1581 C36.4137872,5.5263 36.8675745,5.0583 37.4427234,4.758 C38.0178723,4.4577 38.6418298,4.3355 39.3145957,4.3953 C39.8066383,4.4382 40.2366809,4.5812 40.6034043,4.8191 C40.9701277,5.057 41.2590213,5.3508 41.4700851,5.7005 L41.8302128,1.7108 L43.2087234,1.8317 L42.2022128,12.9545 L40.9160426,12.8388 Z M36.899234,8.4344 C36.8068936,9.4666 36.9572766,10.257 37.3530213,10.8069 C37.7474468,11.3555 38.2460851,11.6571 38.8462979,11.7091 C39.4517872,11.7624 39.9886809,11.5648 40.4556596,11.1137 C40.9226383,10.6626 41.2022979,9.9359 41.2933191,8.9336 C41.3935745,7.8312 41.2511064,7.0031 40.867234,6.4493 C40.4820426,5.8955 39.9741702,5.5913 39.343617,5.5354 C38.7275745,5.4821 38.1906809,5.6836 37.7329362,6.1438 C37.2725532,6.6027 36.9955319,7.3658 36.899234,8.4344 Z" id="Shape"></path>
                <path d="M49.8057872,12.6178 C49.2530638,13.0026 48.7333191,13.2626 48.2412766,13.3991 C47.7505532,13.5343 47.2321277,13.5785 46.6886383,13.5304 C45.7889787,13.4511 45.1201702,13.1768 44.6769362,12.701 C44.232383,12.2265 44.0424255,11.6506 44.1017872,10.9785 C44.1374043,10.5833 44.2614043,10.2336 44.4724681,9.9216 C44.6835319,9.6122 44.9460426,9.3691 45.26,9.1975 C45.5739574,9.0259 45.9182553,8.9063 46.2968511,8.8387 C46.5765106,8.7919 46.9920426,8.7581 47.5474043,8.7425 C48.6779149,8.7087 49.5155745,8.6242 50.060383,8.489 C50.0841277,8.3018 50.096,8.1835 50.0999574,8.1341 C50.1500851,7.5764 50.0551064,7.1734 49.8137021,6.9225 C49.4878723,6.5819 48.9747234,6.383 48.2768936,6.3206 C47.625234,6.2634 47.1345106,6.3362 46.8034043,6.5325 C46.4722979,6.7301 46.2071489,7.1071 46.0066383,7.6661 L44.666383,7.3658 C44.8418298,6.8042 45.0858723,6.3635 45.4011489,6.0359 C45.7151064,5.7096 46.1464681,5.4743 46.6978723,5.3326 C47.2492766,5.1896 47.8758723,5.1467 48.5789787,5.2091 C49.2768085,5.2702 49.8374468,5.4002 50.2582553,5.6017 C50.6790638,5.8006 50.9824681,6.0346 51.1658298,6.2972 C51.3491915,6.5611 51.4652766,6.8822 51.5140851,7.2631 C51.5391489,7.501 51.5246383,7.9222 51.469234,8.5293 L51.3043404,10.3493 C51.1895745,11.6194 51.1473617,12.4267 51.1750638,12.7673 C51.202766,13.1079 51.2911489,13.4407 51.4375745,13.7644 L49.9891489,13.637 C49.8757021,13.3406 49.812383,13.0013 49.8057872,12.6178 Z M49.9654043,9.5589 C49.4443404,9.7162 48.6739574,9.8215 47.6555745,9.8748 C47.0777872,9.906 46.6675319,9.9619 46.4221702,10.0425 C46.1754894,10.1231 45.9802553,10.2557 45.8351489,10.4403 C45.6900426,10.6236 45.605617,10.8329 45.5845106,11.0695 C45.5528511,11.4335 45.6649787,11.7494 45.9222128,12.0172 C46.1794468,12.2837 46.5778298,12.441 47.1173617,12.4878 C47.6502979,12.5346 48.1357447,12.4631 48.5737021,12.2694 C49.0090213,12.0757 49.3440851,11.7871 49.5749362,11.4036 C49.7517021,11.1085 49.8677872,10.66 49.9218723,10.0581 L49.9654043,9.5589 Z" id="Shape"></path>
                <path d="M52.8081702,17.0105 L52.771234,15.7157 C53.0667234,15.8223 53.3265957,15.8873 53.5534894,15.9055 C53.8608511,15.9328 54.1114894,15.9042 54.3054043,15.8197 C54.4993191,15.7352 54.6628936,15.6065 54.7974468,15.4349 C54.8977021,15.3049 55.0691915,14.9786 55.313234,14.4547 C55.3462128,14.3806 55.3963404,14.2727 55.4662553,14.1323 L53.0944255,5.7863 L54.5877021,5.9189 L55.8672766,10.7341 C56.0348085,11.3451 56.1759574,11.9847 56.2907234,12.6529 C56.5070638,12.0393 56.7524255,11.4439 57.0281277,10.8667 L59.1994468,6.3232 L60.5858723,6.4454 L56.7339574,14.3676 C56.3210638,15.223 56.0057872,15.8093 55.790766,16.1278 C55.5031915,16.5568 55.1918723,16.8623 54.8541702,17.0443 C54.5164681,17.2276 54.1273191,17.2965 53.6867234,17.2588 C53.4202553,17.2328 53.1260851,17.1522 52.8081702,17.0105 Z" id="Shape"></path>
                <path d="M70.2486383,15.4154 L68.8622128,15.2932 L69.6497447,6.591 C69.2882979,6.8757 68.8213191,7.1513 68.2514468,7.4165 C67.6815745,7.683 67.1750213,7.8767 66.7291489,7.9937 L66.8491915,6.6729 C67.6565106,6.3817 68.3728085,6.006 68.9994043,5.5471 C69.626,5.0882 70.0811064,4.628 70.3660426,4.1678 L71.2591064,4.2471 L70.2486383,15.4154 Z" id="Shape"></path>
                <path d="M76.4763404,9.8826 C75.9196596,9.6239 75.5199574,9.2911 75.2785532,8.8816 C75.0371489,8.4721 74.9395319,8.0002 74.9870213,7.4646 C75.0608936,6.6547 75.4170638,6.0008 76.0581702,5.5003 C76.6979574,5.0011 77.509234,4.7944 78.4893617,4.8802 C79.474766,4.966 80.2411915,5.3196 80.7912766,5.9358 C81.3400426,6.5533 81.5788085,7.2644 81.5062553,8.0743 C81.458766,8.5904 81.2806809,9.0285 80.972,9.3873 C80.6633191,9.7461 80.2200851,10.0022 79.6409787,10.1595 C80.3137447,10.4442 80.8097447,10.8485 81.1263404,11.3763 C81.4429362,11.9041 81.5708936,12.5125 81.5075745,13.1989 C81.4231489,14.1505 81.0089362,14.9188 80.2675745,15.5064 C79.5262128,16.094 78.5988511,16.3397 77.4854894,16.2409 C76.3721277,16.1434 75.5028085,15.7404 74.8788511,15.0293 C74.2548936,14.3195 73.9871064,13.4784 74.0754894,12.5073 C74.1414468,11.7845 74.3815319,11.1956 74.798383,10.7419 C75.2125957,10.2856 75.773234,9.9983 76.4763404,9.8826 Z M75.4975319,12.6412 C75.463234,13.0312 75.5225957,13.416 75.6769362,13.7969 C75.8312766,14.1765 76.0845532,14.4846 76.4354468,14.7173 C76.7863404,14.95 77.1768085,15.0826 77.6015745,15.1203 C78.2637872,15.1788 78.8297021,15.0176 79.298,14.6354 C79.767617,14.2532 80.0314468,13.7384 80.0908085,13.091 C80.1501702,12.4332 79.9773617,11.8716 79.5710638,11.401 C79.1660851,10.933 78.6305106,10.6691 77.9630213,10.6106 C77.3113617,10.5534 76.7507234,10.7185 76.2850638,11.1059 C75.816766,11.4907 75.5555745,12.0042 75.4975319,12.6412 Z M76.4077447,7.5439 C76.3602553,8.0691 76.4934894,8.515 76.8074468,8.8777 C77.1214043,9.2417 77.552766,9.4471 78.1015319,9.4965 C78.6344681,9.5433 79.0869362,9.4172 79.4589362,9.1169 C79.829617,8.8153 80.0367234,8.4227 80.0802553,7.943 C80.1264255,7.4412 79.989234,7.007 79.6673617,6.6339 C79.3468085,6.2621 78.9246809,6.0515 78.4009787,6.006 C77.872,5.9605 77.4182128,6.0879 77.039617,6.3921 C76.6610213,6.6937 76.4512766,7.0785 76.4077447,7.5439 Z" id="Shape"></path>
                <path d="M86.0889787,15.574 L86.1786809,16.7973 C85.781617,16.8441 85.4294043,16.8545 85.1207234,16.8272 C84.6168085,16.783 84.2342553,16.6699 83.9717447,16.4879 C83.709234,16.3072 83.5324681,16.0849 83.442766,15.8197 C83.3530638,15.5545 83.3451489,15.0111 83.4190213,14.1908 L83.8371915,9.5563 L82.8201277,9.4666 L82.9164255,8.4058 L83.9334894,8.4942 L84.1142128,6.4987 L85.5665957,5.8006 L85.3133191,8.6151 L86.7063404,8.7386 L86.6113617,9.7994 L85.2170213,9.6772 L84.7909362,14.3884 C84.7566383,14.7784 84.7579574,15.0306 84.7962128,15.1463 C84.8344681,15.262 84.9070213,15.3569 85.011234,15.4336 C85.1154468,15.509 85.2697872,15.5558 85.4768936,15.5727 C85.6299149,15.587 85.834383,15.587 86.0889787,15.574 Z" id="Shape"></path>
                <path d="M87.3342553,16.9143 L88.3394468,5.7915 L89.7258723,5.9137 L89.3657447,9.9034 C90.0794043,9.2222 90.9289362,8.9245 91.9143404,9.0103 C92.5198298,9.0636 93.035617,9.2287 93.460383,9.503 C93.8851489,9.7773 94.1766809,10.1283 94.3310213,10.5599 C94.4853617,10.9915 94.5275745,11.6025 94.4563404,12.3916 L93.9946383,17.498 L92.6082128,17.3758 L93.071234,12.2694 C93.133234,11.5869 93.0277021,11.0773 92.7559574,10.7393 C92.4828936,10.4026 92.0726383,10.2089 91.5225532,10.1608 C91.1122979,10.1244 90.7165532,10.1959 90.3366383,10.3753 C89.9554043,10.5534 89.6717872,10.8134 89.4844681,11.1592 C89.2984681,11.5063 89.1771064,11.9951 89.120383,12.6269 L88.7206809,17.0352 L87.3342553,16.9143 Z" id="Shape"></path>
                <path d="M105.907872,17.5435 C105.356468,17.9283 104.835404,18.1883 104.343362,18.3235 C103.852638,18.4587 103.335532,18.5029 102.790723,18.4561 C101.892383,18.3768 101.222255,18.1025 100.779021,17.6267 C100.335787,17.1509 100.144511,16.5763 100.205191,15.9042 C100.239489,15.509 100.363489,15.158 100.575872,14.8473 C100.786936,14.5379 101.049447,14.2948 101.363404,14.1232 C101.677362,13.9516 102.02166,13.832 102.400255,13.7631 C102.678596,13.7163 103.095447,13.6838 103.650809,13.6669 C104.78,13.6344 105.618979,13.5486 106.163787,13.4147 C106.186213,13.2262 106.198085,13.1092 106.203362,13.0585 C106.253489,12.5021 106.158511,12.0991 105.917106,11.8482 C105.589957,11.5076 105.078128,11.3074 104.380298,11.2463 C103.728638,11.1891 103.236596,11.2606 102.906809,11.4582 C102.575702,11.6558 102.310553,12.0328 102.110043,12.5918 L100.771106,12.2915 C100.946553,11.7299 101.189277,11.2879 101.504553,10.9616 C101.81983,10.6353 102.251191,10.4 102.801277,10.257 C103.352681,10.1153 103.980596,10.0724 104.683702,10.1335 C105.381532,10.1959 105.940851,10.3259 106.36166,10.5261 C106.783787,10.7263 107.085872,10.9603 107.269234,11.2229 C107.452596,11.4855 107.568681,11.8066 107.61617,12.1888 C107.642553,12.4254 107.626723,12.8479 107.572638,13.455 L107.407745,15.275 C107.292979,16.5451 107.249447,17.3524 107.277149,17.693 C107.30617,18.0349 107.394553,18.3664 107.540979,18.6901 L106.092553,18.5627 C105.976468,18.2663 105.915787,17.9257 105.907872,17.5435 Z M106.068809,14.4833 C105.546426,14.6419 104.777362,14.7472 103.758979,14.8005 C103.181191,14.8304 102.770936,14.8863 102.524255,14.9682 C102.278894,15.0488 102.08366,15.1814 101.938553,15.3647 C101.792128,15.5493 101.707702,15.7586 101.687915,15.9952 C101.654936,16.3592 101.768383,16.6751 102.025617,16.9429 C102.282851,17.2107 102.681234,17.368 103.219447,17.4148 C103.753702,17.4616 104.23783,17.3888 104.675787,17.1964 C105.112426,17.0027 105.44617,16.7128 105.67834,16.3306 C105.855106,16.0342 105.971191,15.587 106.025277,14.9851 L106.068809,14.4833 Z" id="Shape"></path>
                <path d="M114.610298,19.3102 L114.717149,18.1259 C113.998213,18.98 113.093277,19.3596 111.998383,19.2647 C111.515574,19.2218 111.07366,19.0905 110.671319,18.8721 C110.268979,18.6537 109.980085,18.3989 109.802,18.1051 C109.623915,17.8113 109.511787,17.4603 109.466936,17.0521 C109.435277,16.7791 109.444511,16.3527 109.495957,15.7703 L109.948426,10.7783 L111.334851,10.9005 L110.929872,15.3699 C110.865234,16.0836 110.849404,16.5659 110.883702,16.8181 C110.939106,17.1847 111.098723,17.485 111.361234,17.7138 C111.625064,17.9439 111.965404,18.0752 112.380936,18.1116 C112.795149,18.148 113.194851,18.0791 113.578723,17.901 C113.962596,17.7229 114.246213,17.4603 114.430894,17.1132 C114.615574,16.7635 114.736936,16.2448 114.800255,15.5571 L115.190723,11.2411 L116.57583,11.362 L115.84766,19.4194 L114.610298,19.3102 Z" id="Shape"></path>
                <path d="M117.70634,20.254 L119.036043,20.5686 C119.05583,20.9833 119.185106,21.2966 119.425191,21.5059 C119.745745,21.7893 120.204809,21.957 120.799745,22.009 C121.440851,22.0662 121.947404,21.9817 122.319404,21.7607 C122.691404,21.5397 122.959191,21.2056 123.122766,20.761 C123.220383,20.488 123.307447,19.9069 123.381319,19.0164 C122.712511,19.6664 121.924979,19.9524 121.022681,19.8718 C119.898766,19.773 119.065064,19.2972 118.521574,18.4431 C117.978085,17.589 117.756468,16.6049 117.858043,15.4869 C117.927957,14.7186 118.132426,14.0231 118.474085,13.3978 C118.815745,12.7738 119.269532,12.3058 119.838085,11.999 C120.406638,11.6922 121.051702,11.57 121.775915,11.6337 C122.740213,11.7182 123.502681,12.1732 124.058043,12.9974 L124.145106,12.0263 L125.423362,12.1381 L124.792809,19.1022 C124.679362,20.358 124.469617,21.2368 124.162255,21.736 C123.856213,22.2378 123.409021,22.6135 122.818043,22.867 C122.229702,23.1205 121.523957,23.2128 120.702128,23.14 C119.727277,23.0555 118.958213,22.7708 118.396255,22.2859 C117.839574,21.801 117.607404,21.1224 117.70634,20.254 Z M119.290638,15.5142 C119.19566,16.5711 119.338128,17.3615 119.720681,17.8841 C120.103234,18.4067 120.615064,18.6966 121.25617,18.7538 C121.892,18.8097 122.447362,18.616 122.923574,18.1714 C123.397149,17.7255 123.682085,16.9858 123.775745,15.9536 C123.865447,14.9682 123.709787,14.2051 123.311404,13.6643 C122.911702,13.1248 122.401191,12.8271 121.774596,12.7725 C121.157234,12.7179 120.612426,12.9194 120.136213,13.3757 C119.66,13.8307 119.38034,14.5431 119.290638,15.5142 Z" id="Shape"></path>
                <path d="M132.148383,20.8481 L132.255234,19.6651 C131.536298,20.5192 130.631362,20.8988 129.536468,20.8026 C129.054979,20.761 128.611745,20.6297 128.209404,20.4113 C127.807064,20.1929 127.51817,19.9381 127.340085,19.6443 C127.162,19.3492 127.051191,18.9995 127.005021,18.5913 C126.973362,18.3183 126.982596,17.8919 127.035362,17.3095 L127.486511,12.3175 L128.872936,12.4397 L128.467957,16.9091 C128.403319,17.6228 128.387489,18.1051 128.423106,18.3573 C128.477191,18.7239 128.636809,19.0242 128.899319,19.253 C129.163149,19.4831 129.503489,19.6144 129.919021,19.6508 C130.333234,19.6872 130.734255,19.6183 131.116809,19.4402 C131.500681,19.2621 131.784298,18.9995 131.968979,18.6511 C132.15366,18.3027 132.275021,17.784 132.33834,17.0963 L132.728809,12.779 L134.113915,12.9012 L133.385745,20.9586 L132.148383,20.8481 Z" id="Shape"></path>
                <path d="M135.222,18.694 L136.611064,18.603 C136.638766,19.1516 136.816851,19.5845 137.141362,19.903 C137.467191,20.2228 137.944723,20.41 138.576596,20.4659 C139.212426,20.5218 139.697872,20.4373 140.028979,20.2085 C140.360085,19.9797 140.540809,19.6937 140.572468,19.3492 C140.60017,19.0411 140.486723,18.785 140.229489,18.5848 C140.050085,18.447 139.59234,18.2507 138.854936,17.9985 C137.861617,17.6553 137.176979,17.3758 136.799702,17.1574 C136.423745,16.939 136.149362,16.6569 135.976553,16.3137 C135.802426,15.9692 135.73383,15.5987 135.770766,15.2035 C135.802426,14.846 135.915872,14.521 136.111106,14.2298 C136.305021,13.9373 136.55566,13.7033 136.860383,13.5252 C137.091234,13.3887 137.395957,13.2808 137.777191,13.2054 C138.159745,13.13 138.564723,13.1092 138.989489,13.1469 C139.630596,13.2028 140.185957,13.3432 140.655574,13.5681 C141.125191,13.793 141.458936,14.0725 141.663404,14.404 C141.865234,14.7355 141.987915,15.1632 142.027489,15.6923 L140.655574,15.756 C140.630511,15.3361 140.482766,14.9955 140.208383,14.7381 C139.934,14.4794 139.527702,14.326 138.98817,14.2779 C138.35234,14.222 137.888,14.2857 137.596468,14.469 C137.306255,14.6536 137.147957,14.8824 137.124213,15.1619 C137.107064,15.3387 137.150596,15.5025 137.250851,15.6546 C137.349787,15.8106 137.516,15.9484 137.74817,16.0641 C137.882723,16.1278 138.279787,16.2799 138.940681,16.5217 C139.898383,16.8662 140.561915,17.1392 140.935234,17.3368 C141.308553,17.5344 141.590851,17.7983 141.783447,18.1324 C141.976043,18.4652 142.051234,18.8643 142.009021,19.3297 C141.968128,19.786 141.795319,20.2033 141.487957,20.5816 C141.183234,20.9599 140.765064,21.2368 140.237404,21.4123 C139.709745,21.5891 139.125362,21.6463 138.484255,21.5904 C137.421021,21.4981 136.63217,21.2082 136.113745,20.7246 C135.595319,20.241 135.298511,19.5624 135.222,18.694 Z" id="Shape"></path>
                <path d="M146.579872,20.8858 L146.669574,22.1091 C146.272511,22.1546 145.920298,22.165 145.611617,22.1377 C145.107702,22.0935 144.725149,21.9804 144.462638,21.7997 C144.200128,21.6177 144.023362,21.3954 143.93366,21.1302 C143.843957,20.865 143.836043,20.3216 143.909915,19.5013 L144.328085,14.8668 L143.311021,14.7784 L143.407319,13.7163 L144.424383,13.8047 L144.605106,11.8092 L146.057489,11.1111 L145.804213,13.9269 L147.197234,14.0491 L147.102255,15.1112 L145.707915,14.9877 L145.28183,19.6989 C145.247532,20.0889 145.248851,20.3411 145.287106,20.4568 C145.325362,20.5725 145.397915,20.6674 145.502128,20.7441 C145.60634,20.8195 145.760681,20.8663 145.967787,20.8832 C146.119489,20.8975 146.323957,20.8975 146.579872,20.8858 Z" id="Shape"></path>
                <path d="M159.221277,21.9024 L159.102553,23.2154 L151.642766,22.5602 C151.662553,22.2313 151.74434,21.9206 151.890766,21.6268 C152.125574,21.1419 152.47383,20.6765 152.936851,20.2267 C153.399872,19.7782 154.05417,19.2699 154.902383,18.7018 C156.217574,17.8178 157.118553,17.1067 157.601362,16.5646 C158.08417,16.0238 158.349319,15.4947 158.396809,14.9773 C158.445617,14.4365 158.291277,13.9646 157.931149,13.5577 C157.57366,13.1508 157.07766,12.9194 156.445787,12.8635 C155.778298,12.805 155.226894,12.9558 154.791574,13.3159 C154.354936,13.6747 154.104298,14.2038 154.035702,14.9006 L152.624213,14.6315 C152.816809,13.5928 153.256085,12.8284 153.942043,12.3357 C154.628,11.843 155.507872,11.6428 156.58034,11.7364 C157.662043,11.8313 158.493106,12.2018 159.070894,12.8492 C159.648681,13.4966 159.898,14.2571 159.818851,15.1333 C159.779277,15.5779 159.646043,16.0069 159.423106,16.4203 C159.198851,16.8337 158.850596,17.2601 158.37966,17.6969 C157.908723,18.135 157.13834,18.7252 156.067191,19.4675 C155.172809,20.0824 154.59766,20.5036 154.337787,20.7272 C154.080553,20.9521 153.862894,21.1809 153.686128,21.4149 L159.221277,21.9024 Z" id="Shape"></path>
                <path d="M161.083915,17.8607 C161.203957,16.5451 161.436128,15.5012 161.783064,14.7238 C162.13,13.9451 162.593021,13.3614 163.174766,12.974 C163.756511,12.5866 164.456979,12.4293 165.278809,12.5008 C165.884298,12.5541 166.405362,12.7231 166.839362,13.0039 C167.274681,13.2834 167.621617,13.663 167.877532,14.1427 C168.133447,14.6211 168.318128,15.1931 168.428936,15.8574 C168.539745,16.5217 168.545021,17.4044 168.446085,18.5068 C168.327362,19.812 168.096511,20.8546 167.752213,21.632 C167.407915,22.4107 166.946213,22.9944 166.363149,23.3844 C165.782723,23.7744 165.078298,23.9317 164.252511,23.8589 C163.164213,23.764 162.345021,23.3038 161.793617,22.4796 C161.131404,21.4903 160.895277,19.9498 161.083915,17.8607 Z M162.508596,17.9855 C162.343702,19.8107 162.450553,21.0457 162.829149,21.6892 C163.207745,22.3327 163.716936,22.6811 164.352766,22.737 C164.988596,22.7929 165.550553,22.5368 166.038638,21.9661 C166.528043,21.3967 166.853872,20.2033 167.018766,18.382 C167.184979,16.5503 167.078128,15.3153 166.698213,14.6744 C166.319617,14.0348 165.806468,13.6864 165.160085,13.6292 C164.522936,13.5733 163.99,13.7943 163.562596,14.2922 C163.024383,14.9292 162.673489,16.159 162.508596,17.9855 Z" id="Shape"></path>
                <path d="M174.57617,24.5752 L173.191064,24.453 L173.977277,15.7508 C173.61583,16.0355 173.15017,16.3111 172.578979,16.5763 C172.009106,16.8428 171.502553,17.0352 171.056681,17.1535 L171.176723,15.8327 C171.984043,15.5415 172.70034,15.1658 173.326936,14.7069 C173.953532,14.248 174.408638,13.7865 174.693574,13.3276 L175.586638,13.4056 L174.57617,24.5752 Z" id="Shape"></path>
                <path d="M180.803872,19.0411 C180.248511,18.7837 179.848809,18.4509 179.606085,18.0414 C179.363362,17.6332 179.267064,17.16 179.315872,16.6231 C179.388426,15.8145 179.744596,15.1593 180.385702,14.6601 C181.025489,14.1596 181.836766,13.9542 182.816894,14.0387 C183.802298,14.1245 184.570043,14.4781 185.118809,15.0956 C185.668894,15.7131 185.90766,16.4242 185.833787,17.2341 C185.787617,17.7489 185.608213,18.1883 185.300851,18.5458 C184.99217,18.9033 184.547617,19.1607 183.968511,19.3193 C184.642596,19.6027 185.137277,20.0083 185.453872,20.5361 C185.770468,21.0639 185.898426,21.671 185.836426,22.3587 C185.750681,23.309 185.336468,24.0786 184.596426,24.6662 C183.853745,25.2538 182.926383,25.4982 181.81434,25.3994 C180.69966,25.3019 179.83166,24.8989 179.206383,24.1891 C178.582426,23.4793 178.314638,22.6382 178.403021,21.6671 C178.468979,20.943 178.709064,20.3554 179.125915,19.9004 C179.542766,19.4454 180.100766,19.1581 180.803872,19.0411 Z M179.825064,21.7997 C179.790766,22.1897 179.850128,22.5758 180.004468,22.9554 C180.158809,23.3363 180.412085,23.6444 180.762979,23.8758 C181.115191,24.1085 181.50434,24.2424 181.930426,24.2801 C182.591319,24.3386 183.158553,24.1761 183.626851,23.7939 C184.095149,23.413 184.360298,22.8982 184.41834,22.2495 C184.477702,21.5917 184.304894,21.0301 183.899915,20.5595 C183.493617,20.0915 182.958043,19.8276 182.290553,19.7691 C181.638894,19.7119 181.079574,19.877 180.612596,20.2644 C180.145617,20.6505 179.883106,21.1627 179.825064,21.7997 Z M180.735277,16.7024 C180.689106,17.2289 180.821021,17.6735 181.134979,18.0375 C181.448936,18.4015 181.880298,18.6069 182.429064,18.6563 C182.962,18.7031 183.415787,18.577 183.786468,18.2754 C184.157149,17.9751 184.364255,17.5825 184.409106,17.1028 C184.453957,16.601 184.316766,16.1655 183.996213,15.7937 C183.67566,15.4219 183.253532,15.2113 182.72983,15.1658 C182.20217,15.119 181.747064,15.2477 181.368468,15.5506 C180.989872,15.8535 180.778809,16.237 180.735277,16.7024 Z" id="Shape"></path>
            </g>
            <g id="Group" transform="translate(65.000000, 46.000000)" fill="#000000">
                <path d="M1.65394737,79.0810645 C0.711842105,77.8867742 0.344736842,76.7374516 0.552631579,75.6370645 C0.727631579,74.7205161 1.21184211,73.9454839 2.00657895,73.3132903 C2.88815789,72.611 3.83947368,72.3266452 4.85657895,72.4615484 C5.875,72.5977742 6.78815789,73.1770645 7.59473684,74.2007419 C8.24868421,75.0313226 8.63947368,75.7825484 8.76710526,76.4557419 C8.89342105,77.1289355 8.82368421,77.7849355 8.55921053,78.4250645 C8.29342105,79.0651935 7.88026316,79.6087742 7.31973684,80.0531613 C6.42105263,80.7686774 5.46710526,81.057 4.45657895,80.9194516 C3.44605263,80.7832258 2.51184211,80.1695484 1.65394737,79.0810645 Z M2.77105263,78.1896452 C3.42236842,79.0162581 4.08815789,79.4910645 4.77105263,79.6167097 C5.45394737,79.7423548 6.06710526,79.5889355 6.61052632,79.155129 C7.15,78.7252903 7.43552632,78.1605484 7.46973684,77.4622258 C7.50263158,76.7639032 7.18552632,75.9915161 6.51842105,75.1450645 C5.88947368,74.3475484 5.23289474,73.8859677 4.54868421,73.7629677 C3.86315789,73.6386452 3.25394737,73.7894194 2.71842105,74.2166129 C2.17368421,74.6490968 1.88421053,75.2125161 1.84868421,75.9081935 C1.81315789,76.603871 2.11973684,77.3630323 2.77105263,78.1896452 Z" id="Shape"></path>
                <path d="M13.4315789,78.9739355 L6.39868421,70.0504839 L7.38947368,69.2609032 L8.05,70.0980968 C8.025,69.5849355 8.09473684,69.1286452 8.26052632,68.7305484 C8.425,68.3324516 8.71710526,67.9660968 9.13684211,67.6328065 C9.68552632,67.1950323 10.2802632,66.953 10.9223684,66.9027419 C11.5644737,66.8524839 12.1960526,67.0006129 12.8171053,67.347129 C13.4368421,67.6936452 13.9894737,68.1750645 14.475,68.7900645 C14.9960526,69.4500323 15.3460526,70.1390968 15.5263158,70.8546129 C15.7065789,71.5714516 15.6828947,72.2486129 15.4552632,72.8874194 C15.2289474,73.5262258 14.8671053,74.0433548 14.3710526,74.4374839 C14.0078947,74.7258065 13.6223684,74.9083226 13.2131579,74.9837097 C12.8039474,75.0590968 12.4144737,75.0538065 12.0434211,74.9665161 L14.5184211,78.1063226 L13.4315789,78.9739355 Z M9.95526316,72.529 C10.6092105,73.3595806 11.2605263,73.8396774 11.9065789,73.9706129 C12.5539474,74.1002258 13.1144737,73.9772258 13.5907895,73.5989677 C14.0736842,73.2127742 14.3263158,72.6784516 14.3473684,71.9933548 C14.3684211,71.3069355 14.0381579,70.5332258 13.3592105,69.6709032 C12.7105263,68.8482581 12.0578947,68.3668387 11.3986842,68.2253226 C10.7407895,68.085129 10.1776316,68.2001935 9.71052632,68.5718387 C9.24736842,68.9408387 9.00789474,69.4844194 8.99605263,70.2039032 C8.98157895,70.9233871 9.30131579,71.6984194 9.95526316,72.529 Z" id="Shape"></path>
                <path d="M21.1223684,65.4452581 L22.3565789,64.6900645 C22.6986842,65.4915484 22.7736842,66.2652581 22.5828947,67.0111935 C22.3907895,67.757129 21.9223684,68.4276774 21.1763158,69.0201935 C20.2381579,69.7674516 19.2644737,70.0703226 18.2565789,69.9274839 C17.2486842,69.7846452 16.3315789,69.1881613 15.5052632,68.1393548 C14.65,67.0535161 14.2644737,65.9901613 14.3473684,64.9479677 C14.4302632,63.9057742 14.9157895,63.032871 15.8026316,62.3266129 C16.6605263,61.6428387 17.5921053,61.3783226 18.5986842,61.5330645 C19.6065789,61.6864839 20.5289474,62.2975161 21.3671053,63.3621935 C21.4184211,63.427 21.4934211,63.5261935 21.5907895,63.6584516 L16.8039474,67.470129 C17.4026316,68.1472903 18.0302632,68.5308387 18.6855263,68.6220968 C19.3407895,68.7133548 19.9368421,68.5453871 20.4723684,68.1181935 C20.8710526,67.8007742 21.1289474,67.4238387 21.2447368,66.9887097 C21.3631579,66.5535806 21.3223684,66.0390968 21.1223684,65.4452581 Z M16.1592105,66.5218387 L19.7434211,63.6677097 C19.2671053,63.1638065 18.8092105,62.8662258 18.3697368,62.7736452 C17.6907895,62.6281613 17.0763158,62.7749677 16.5236842,63.2140645 C16.025,63.6121613 15.7368421,64.1147419 15.6618421,64.7218065 C15.5855263,65.3301935 15.7513158,65.9306452 16.1592105,66.5218387 Z" id="Shape"></path>
                <path d="M25.25,65.5404839 L20.1657895,59.0902581 L21.1447368,58.3112581 L21.8671053,59.2278065 C21.7802632,58.1432903 22.1815789,57.2465806 23.0723684,56.539 C23.4592105,56.2308387 23.8697368,56.0165806 24.3052632,55.898871 C24.7394737,55.7798387 25.1263158,55.7692581 25.4671053,55.8684516 C25.8065789,55.9663226 26.1315789,56.1461935 26.4421053,56.4067419 C26.6421053,56.5760323 26.9407895,56.9146129 27.3407895,57.4224839 L30.4671053,61.3889032 L29.3789474,62.2551935 L26.2868421,58.3310968 C25.9355263,57.8853871 25.6302632,57.5851613 25.3723684,57.4330645 C25.1131579,57.2796452 24.825,57.2227742 24.5052632,57.2624516 C24.1855263,57.302129 23.8815789,57.4383548 23.5907895,57.6698065 C23.1276316,58.0388065 22.8447368,58.5043548 22.7407895,59.0677742 C22.6381579,59.6311935 22.9105263,60.326871 23.5631579,61.1521613 L26.3394737,64.6755161 L25.25,65.5404839 Z" id="Shape"></path>
                <path d="M39.3671053,54.299871 L38.2789474,55.1661613 L32.7881579,48.1974839 C32.7236842,48.6577419 32.5789474,49.1828065 32.3513158,49.7713548 C32.1236842,50.3599032 31.8907895,50.8532258 31.6513158,51.2486774 L30.8184211,50.1919355 C31.2,49.4195484 31.4578947,48.6471613 31.5894737,47.8760968 C31.7223684,47.1050323 31.7315789,46.4503548 31.6184211,45.9160323 L32.3197368,45.3579032 L39.3671053,54.299871 Z" id="Shape"></path>
                <path d="M38.6921053,47.6896129 C37.8631579,46.6368387 37.3026316,45.7044194 37.0118421,44.8897097 C36.7210526,44.075 36.6526316,43.3264194 36.8013158,42.6386774 C36.9526316,41.9522581 37.35,41.3518065 37.9947368,40.8386452 C38.4697368,40.4590645 38.9618421,40.2249677 39.4723684,40.1310645 C39.9828947,40.0371613 40.4973684,40.0794839 41.0171053,40.2553871 C41.5368421,40.4326129 42.0671053,40.7275484 42.6105263,41.1415161 C43.1526316,41.5554839 43.7723684,42.204871 44.4684211,43.0883548 C45.2921053,44.1331935 45.85,45.0616452 46.1421053,45.8723871 C46.4342105,46.683129 46.5052632,47.4343548 46.3578947,48.1234194 C46.2078947,48.8124839 45.8092105,49.4155806 45.1605263,49.9313871 C44.3065789,50.6111935 43.3934211,50.8373548 42.4210526,50.6111935 C41.2539474,50.3360968 40.0105263,49.3613548 38.6921053,47.6896129 Z M39.8092105,46.7995161 C40.9618421,48.2609677 41.8986842,49.0994839 42.6197368,49.3110968 C43.3421053,49.5240323 43.9526316,49.4314516 44.4526316,49.0346774 C44.9526316,48.6379032 45.1802632,48.0599355 45.1381579,47.3020968 C45.0947368,46.5455806 44.5,45.4372581 43.3513158,43.9797742 C42.1960526,42.5143548 41.2578947,41.6745161 40.5381579,41.4642258 C39.8171053,41.2539355 39.2039474,41.3504839 38.6960526,41.753871 C38.1960526,42.1519677 37.9644737,42.6823226 38.0026316,43.3449355 C38.0552632,44.1847742 38.6578947,45.3380645 39.8092105,46.7995161 Z" id="Shape"></path>
                <path d="M52.9,42.2286774 C52.7684211,42.8939355 52.5723684,43.4454516 52.3118421,43.8832258 C52.05,44.3223226 51.7065789,44.7098387 51.2789474,45.0510645 C50.5736842,45.6131613 49.8960526,45.8710645 49.2447368,45.8260968 C48.5921053,45.781129 48.0552632,45.4901613 47.6302632,44.951871 C47.3815789,44.6357742 47.2263158,44.2905806 47.1631579,43.9149677 C47.1013158,43.5406774 47.1223684,43.1822581 47.2289474,42.8397097 C47.3368421,42.4971613 47.5026316,42.1704839 47.7302632,41.8583548 C47.8986842,41.6321935 48.1776316,41.3200645 48.5671053,40.9246129 C49.3618421,40.1204839 49.9105263,39.4790323 50.2105263,39.0029032 C50.0973684,38.8494839 50.0236842,38.7529355 49.9907895,38.7119355 C49.6394737,38.2675484 49.2894737,38.0347742 48.9407895,38.0162581 C48.4671053,37.991129 47.9565789,38.196129 47.4092105,38.6325806 C46.8973684,39.0399355 46.5907895,39.4300968 46.4881579,39.8043871 C46.3868421,40.1786774 46.4578947,40.6415806 46.7013158,41.1917742 L45.5223684,41.8927419 C45.2578947,41.3584194 45.1263158,40.8624516 45.1263158,40.4048387 C45.1263158,39.9472258 45.275,39.4750645 45.575,38.9896774 C45.875,38.5042903 46.3,38.0427097 46.8526316,37.6022903 C47.4,37.1658387 47.8960526,36.8761935 48.3407895,36.7333548 C48.7855263,36.5905161 49.1657895,36.5521613 49.4815789,36.6209355 C49.7973684,36.6897097 50.1052632,36.8470968 50.4065789,37.0957419 C50.5894737,37.253129 50.8723684,37.5745161 51.2565789,38.0612258 L52.4052632,39.5187097 C53.2065789,40.5357742 53.7355263,41.1600323 53.9947368,41.3928065 C54.2526316,41.6242581 54.5486842,41.8094194 54.8802632,41.9482903 L53.7447368,42.8516129 C53.4526316,42.7153871 53.1710526,42.5077419 52.9,42.2286774 Z M50.8842105,39.8599355 C50.6171053,40.3360645 50.1342105,40.9444516 49.4328947,41.6877419 C49.0381579,42.1083226 48.7789474,42.4323548 48.6565789,42.6611613 C48.5355263,42.8899677 48.4855263,43.1227419 48.5078947,43.3581613 C48.5302632,43.5949032 48.6171053,43.8078387 48.7657895,43.9982903 C48.9960526,44.2892581 49.2973684,44.4453226 49.6710526,44.4651613 C50.0434211,44.485 50.4407895,44.3262903 50.8644737,43.9890323 C51.2828947,43.6557419 51.5828947,43.2669032 51.7644737,42.8225161 C51.9460526,42.3794516 51.9868421,41.9350645 51.8868421,41.4933226 C51.8092105,41.1534194 51.5802632,40.7420968 51.2013158,40.2606774 L50.8842105,39.8599355 Z" id="Shape"></path>
                <path d="M56.2223684,40.8783226 L51.1381579,34.4267742 L52.1105263,33.6530645 L52.8236842,34.5577097 C52.7763158,34.0815806 52.8447368,33.6147097 53.0276316,33.1557742 C53.2092105,32.6968387 53.5157895,32.2974194 53.9421053,31.9575161 C54.4184211,31.5779355 54.8855263,31.3676452 55.3460526,31.324 C55.8065789,31.2803548 56.2394737,31.3874839 56.6447368,31.6440645 C56.5592105,30.4868065 56.9223684,29.5834839 57.7368421,28.9354194 C58.3736842,28.428871 59.0026316,28.2159355 59.625,28.2979355 C60.2473684,28.3799355 60.8486842,28.7886129 61.4289474,29.5252903 L64.9184211,33.9532903 L63.8368421,34.8142903 L60.6342105,30.75 C60.2894737,30.3122258 60.0052632,30.0265484 59.7842105,29.8903226 C59.5631579,29.7540968 59.3131579,29.7011935 59.0355263,29.7316129 C58.7578947,29.7607097 58.4934211,29.8757742 58.2434211,30.0754839 C57.7921053,30.4339032 57.5368421,30.8835806 57.4763158,31.4231935 C57.4157895,31.9628065 57.6473684,32.5632581 58.1710526,33.2285161 L61.125,36.9767097 L60.0368421,37.843 L56.7328947,33.6517419 C56.35,33.1650323 55.9736842,32.8714194 55.6052632,32.7695806 C55.2368421,32.6677419 54.8513158,32.7775161 54.4473684,33.0989032 C54.1421053,33.3422581 53.9223684,33.6490968 53.7894737,34.0180968 C53.6565789,34.3870968 53.6552632,34.7746129 53.7842105,35.178 C53.9131579,35.5827097 54.2092105,36.0786774 54.6710526,36.6659032 L57.3092105,40.0120323 L56.2223684,40.8783226 Z" id="Shape"></path>
                <polygon id="Shape" points="67.4407895 27.5956452 66.5736842 26.4965806 69.9157895 23.8355484 70.7828947 24.9346129"></polygon>
                <path d="M77.5736842,12.9335161 L76.5592105,13.8804839 C76.1236842,13.5273548 75.7407895,13.325 75.4105263,13.2720968 C74.8697368,13.1940645 74.3842105,13.3276452 73.9539474,13.6701935 C73.6078947,13.9466129 73.3789474,14.2851935 73.2697368,14.6899032 C73.1263158,15.2136452 73.1447368,15.7942581 73.3263158,16.4330645 C73.5092105,17.071871 73.9473684,17.8402903 74.6407895,18.7383226 C74.5868421,18.1286129 74.6723684,17.5757742 74.8986842,17.0798065 C75.125,16.5838387 75.4447368,16.169871 75.8592105,15.8405484 C76.5842105,15.2625806 77.4131579,15.0390645 78.3460526,15.17 C79.2776316,15.3009355 80.0789474,15.7916129 80.75,16.6420323 C81.1907895,17.2001613 81.4802632,17.8151613 81.6184211,18.4870323 C81.7565789,19.1575806 81.7171053,19.787129 81.4986842,20.3756774 C81.2802632,20.9642258 80.9065789,21.4707742 80.375,21.894 C79.4684211,22.6148065 78.4644737,22.8687419 77.3644737,22.6544839 C76.2644737,22.4402258 75.1078947,21.5633548 73.8947368,20.0251935 C72.5394737,18.3031935 71.8684211,16.8007419 71.8855263,15.5151935 C71.9013158,14.3962903 72.3763158,13.463871 73.3105263,12.7192581 C74.0078947,12.1637742 74.7342105,11.905871 75.4881579,11.9442258 C76.2434211,11.9812581 76.9394737,12.3105806 77.5736842,12.9335161 Z M76.1565789,20.3095484 C76.4539474,20.6864839 76.8157895,20.9827419 77.2473684,21.2009677 C77.6776316,21.417871 78.1065789,21.5038387 78.5355263,21.4549032 C78.9644737,21.4059677 79.3342105,21.2591613 79.6486842,21.0091935 C80.1078947,20.6428387 80.3565789,20.1429032 80.3921053,19.5067419 C80.4276316,18.8705806 80.1947368,18.2330968 79.6907895,17.5929677 C79.2052632,16.9779677 78.6592105,16.6221935 78.0539474,16.5282903 C77.4486842,16.4343871 76.8973684,16.5838387 76.4026316,16.9779677 C75.9105263,17.3694516 75.6342105,17.8786452 75.5710526,18.5055484 C75.5078947,19.1324516 75.7039474,19.7342258 76.1565789,20.3095484 Z" id="Shape"></path>
                <path d="M86.3618421,20.9020645 L79.3289474,11.9786129 L80.3197368,11.1890323 L80.9789474,12.0275484 C80.9539474,11.5130645 81.025,11.0567742 81.1894737,10.6586774 C81.3539474,10.2605806 81.6460526,9.89422581 82.0657895,9.56093548 C82.6131579,9.12448387 83.2092105,8.88112903 83.8513158,8.83219355 C84.4934211,8.78193548 85.125,8.93006452 85.7447368,9.27658065 C86.3657895,9.62309677 86.9184211,10.1031935 87.4039474,10.7181935 C87.9236842,11.3781613 88.275,12.0672258 88.4552632,12.7840645 C88.6355263,13.4995806 88.6131579,14.1780645 88.3855263,14.816871 C88.1578947,15.4556774 87.7960526,15.9728065 87.3013158,16.3669355 C86.9394737,16.6552581 86.5526316,16.8377742 86.1434211,16.9131613 C85.7342105,16.9885484 85.3447368,16.9832581 84.9736842,16.8959677 L87.4486842,20.0370968 L86.3618421,20.9020645 Z M82.8855263,14.457129 C83.5394737,15.2877097 84.1907895,15.7678065 84.8368421,15.8987419 C85.4828947,16.0296774 86.0447368,15.9053548 86.5197368,15.5257742 C87.0039474,15.1409032 87.2565789,14.6065806 87.2763158,13.9201613 C87.2960526,13.2350645 86.9671053,12.4600323 86.2868421,11.5990323 C85.6394737,10.7763871 84.9855263,10.2949677 84.3263158,10.1534516 C83.6684211,10.0119355 83.1052632,10.1283226 82.6368421,10.4999677 C82.1736842,10.8676452 81.9355263,11.4125484 81.9223684,12.1320323 C81.9105263,12.8515161 82.2315789,13.6265484 82.8855263,14.457129 Z" id="Shape"></path>
                <path d="M91.2973684,12.9493871 L86.2131579,6.49783871 L87.1868421,5.72280645 L87.9,6.62877419 C87.8526316,6.15264516 87.9197368,5.68445161 88.1026316,5.22551613 C88.2855263,4.76790323 88.5907895,4.36848387 89.0171053,4.02725806 C89.4921053,3.649 89.9605263,3.4373871 90.4210526,3.39374194 C90.8802632,3.35009677 91.3144737,3.45590323 91.7197368,3.71380645 C91.6342105,2.55654839 91.9973684,1.65322581 92.8118421,1.00516129 C93.4486842,0.497290323 94.0776316,0.285677419 94.7,0.367677419 C95.3210526,0.449677419 95.9223684,0.858354839 96.5039474,1.59635484 L99.9934211,6.02435484 L98.9118421,6.88535484 L95.7078947,2.8223871 C95.3631579,2.38329032 95.0802632,2.0976129 94.8578947,1.9613871 C94.6368421,1.82516129 94.3855263,1.77093548 94.1078947,1.80135484 C93.8302632,1.83177419 93.5657895,1.94683871 93.3157895,2.14522581 C92.8644737,2.50496774 92.6078947,2.95332258 92.5486842,3.49293548 C92.4894737,4.03254839 92.7197368,4.63432258 93.2434211,5.29693548 L96.1973684,9.04512903 L95.1092105,9.91141935 L91.8065789,5.72016129 C91.4223684,5.23477419 91.0473684,4.94116129 90.6789474,4.838 C90.3105263,4.73616129 89.9236842,4.84593548 89.5210526,5.166 C89.2157895,5.41067742 88.9960526,5.71751613 88.8631579,6.08519355 C88.7302632,6.45419355 88.7289474,6.8403871 88.8578947,7.24641935 C88.9868421,7.65112903 89.2828947,8.14709677 89.7447368,8.73432258 L92.3828947,12.0817742 L91.2973684,12.9493871 Z" id="Shape"></path>
            </g>
        </g>
    </g>
</svg>