<?xml version="1.0" encoding="utf-8"?>
<!-- Generator: Adobe Illustrator 16.0.0, SVG Export Plug-In . SVG Version: 6.00 Build 0)  -->
<!DOCTYPE svg PUBLIC "-//W3C//DTD SVG 1.1//EN" "http://www.w3.org/Graphics/SVG/1.1/DTD/svg11.dtd">
<svg version="1.1" id="Layer_1" xmlns="http://www.w3.org/2000/svg" xmlns:xlink="http://www.w3.org/1999/xlink" x="0px" y="0px"
	 width="21.132875px" height="21.132875px" viewBox="0 0 402 326" enable-background="new 0 0 402 326" xml:space="preserve">
<g>
	<path fill="#ffffff" stroke="#ffffff" stroke-miterlimit="10" d="M130.824,315.52c142.759,0,220.827-118.271,220.827-220.828
		c0-3.362-0.067-6.708-0.222-10.033c15.152-10.955,28.328-24.626,38.72-40.187c-13.906,6.178-28.872,10.34-44.57,12.218
		c16.022-9.608,28.324-24.809,34.126-42.934c-14.998,8.89-31.603,15.356-49.281,18.839C316.261,17.508,296.09,8.073,273.771,8.073
		c-42.865,0-77.626,34.758-77.626,77.608c0,6.09,0.682,12.015,2.015,17.696c-64.504-3.243-121.704-34.129-159.978-81.091
		c-6.673,11.469-10.513,24.795-10.513,39.012c0,26.927,13.703,50.696,34.537,64.603c-12.728-0.391-24.689-3.891-35.149-9.71
		c-0.017,0.324-0.017,0.65-0.017,0.992c0,37.591,26.755,68.973,62.267,76.09c-6.519,1.771-13.379,2.729-20.462,2.729
		c-4.999,0-9.861-0.494-14.589-1.4c9.879,30.836,38.53,53.275,72.507,53.908c-26.572,20.816-60.032,33.223-96.396,33.223
		c-6.265,0-12.439-0.359-18.515-1.076C46.203,302.67,86.985,315.52,130.824,315.52"/>
</g>
</svg>
