<?xml version="1.0" encoding="utf-8"?>
<!-- Generator: Adobe Illustrator 16.0.0, SVG Export Plug-In . SVG Version: 6.00 Build 0)  -->
<!DOCTYPE svg PUBLIC "-//W3C//DTD SVG 1.1//EN" "http://www.w3.org/Graphics/SVG/1.1/DTD/svg11.dtd">
<svg version="1.1" id="Layer_1" xmlns="http://www.w3.org/2000/svg" xmlns:xlink="http://www.w3.org/1999/xlink" x="0px" y="0px"
	 width="370.97px" height="700px" viewBox="0 0 370.97 700" enable-background="new 0 0 370.97 700" xml:space="preserve">
<g>
	<linearGradient id="SVGID_1_" gradientUnits="userSpaceOnUse" x1="9.6362" y1="349.8623" x2="358.71" y2="349.8623">
		<stop  offset="0" style="stop-color:#FFFFFF"/>
		<stop  offset="1" style="stop-color:#000000"/>
	</linearGradient>
	<ellipse fill="url(#SVGID_1_)" cx="184.173" cy="349.862" rx="174.537" ry="340.683"/>
	<g>
		<path fill="#0000FF" d="M353.71,349.862c-0.072,55.119-6.574,110.308-21.551,163.423c-11.936,42.33-29.511,84.642-56.937,119.41
			c-19.924,25.258-47.235,48.098-80.219,52.204c-32.019,3.986-61.498-11.021-84.162-32.622
			c-29.94-28.536-49.638-67.112-63.8-105.479c-18.307-49.596-27.716-102.352-31.097-154.995
			c-3.632-56.567-0.131-113.841,11.406-169.364C36.924,176.375,52.23,130.696,76.9,90.418c17.957-29.317,42.801-57.989,75.79-70.406
			c29.45-11.084,60.378-5.081,86.084,12.151c31.861,21.359,53.667,55.966,69.743,90.017c21.491,45.517,33.659,95.555,40.057,145.318
			C352.085,294.801,353.674,322.34,353.71,349.862c0.009,6.448,10.009,6.449,10,0c-0.071-54.957-6.48-110.129-21.093-163.172
			c-11.801-42.839-29.247-85.394-56.017-121.156C266.477,38.65,239.58,14.561,206.108,6.708
			c-31.292-7.341-62.883,2.391-88.033,21.46C86.75,51.919,64.992,86.683,48.938,122.025c-20.871,45.945-32.75,95.563-39.167,145.472
			c-7.279,56.615-6.909,114.446,0.826,170.99c6.783,49.585,19.347,98.664,40.596,144.104
			c27.882,59.629,83.952,129.27,158.431,109.547c33.509-8.873,59.927-34.397,79.753-61.716
			c26.503-36.519,43.307-79.919,54.829-123.258c13.604-51.17,19.435-104.424,19.504-157.303
			C363.719,343.413,353.719,343.414,353.71,349.862z"/>
	</g>
</g>
</svg>
