<?xml version="1.0" encoding="utf-8"?>
<!-- Generator: Adobe Illustrator 16.0.0, SVG Export Plug-In . SVG Version: 6.00 Build 0)  -->
<!DOCTYPE svg PUBLIC "-//W3C//DTD SVG 1.1//EN" "http://www.w3.org/Graphics/SVG/1.1/DTD/svg11.dtd">
<svg version="1.1" id="Layer_1" xmlns="http://www.w3.org/2000/svg" xmlns:xlink="http://www.w3.org/1999/xlink" x="0px" y="0px"
	 width="40px" height="18.174px" viewBox="0 0 40 18.174" enable-background="new 0 0 40 18.174" xml:space="preserve">
<g id="CR8xGI_1_">
	<g>
		<g>
			<path fill="#A4FF62" d="M37.39,16.768c0.041-0.104,0.089-0.197,0.118-0.3c0.021-0.078,0.051-0.143,0.123-0.183
				c0.069-0.04,0.104-0.102,0.1-0.181c-0.012-0.27-0.012-0.537-0.054-0.804c-0.021-0.122-0.026-0.246-0.031-0.369
				c-0.004-0.09,0.011-0.18,0.004-0.27c-0.031-0.412,0.023-0.817,0.079-1.225c0.032-0.231,0.066-0.465,0.082-0.699
				c0.035-0.516,0.057-1.031,0.087-1.547c0.006-0.099,0.022-0.196,0.042-0.291c0.008-0.034,0.032-0.079,0.061-0.088
				c0.125-0.045,0.249-0.086,0.388-0.066c0.101,0.015,0.203,0.022,0.304,0.015c0.087-0.007,0.172-0.05,0.26,0.003
				c0.008,0.006,0.025,0,0.036-0.006c0.069-0.032,0.144-0.053,0.182-0.132c0.048-0.099,0.103-0.195,0.156-0.291
				c0.017-0.029,0.03-0.063,0.057-0.083c0.101-0.084,0.139-0.196,0.14-0.318c0.005-0.397,0.002-0.794,0.003-1.191
				c0-0.375-0.007-0.751,0.004-1.126c0.009-0.32,0.039-0.639,0.061-0.959c0.012-0.168-0.004-0.333-0.064-0.491
				C39.476,6.034,39.4,5.94,39.24,5.93c-0.174-0.011-0.347-0.046-0.521-0.063c-0.075-0.008-0.152,0.004-0.229,0.008
				c-0.042,0.002-0.084,0.013-0.127,0.008c-0.119-0.015-0.187-0.093-0.174-0.211c0.023-0.221,0.052-0.441,0.082-0.661
				c0.021-0.161,0.06-0.319,0.074-0.48c0.018-0.195,0.024-0.392,0.027-0.588c0.003-0.183-0.016-0.367-0.01-0.55
				c0.007-0.182,0.002-0.367,0.087-0.539c0.026-0.054,0.03-0.125,0.028-0.188c-0.009-0.282-0.049-0.561-0.104-0.837
				c-0.024-0.123-0.062-0.247-0.158-0.33c-0.12-0.104-0.143-0.223-0.109-0.368c0.021-0.092,0.011-0.117-0.079-0.144
				c-0.105-0.032-0.215-0.054-0.323-0.072c-0.114-0.019-0.231-0.019-0.344-0.044c-0.436-0.1-0.878-0.121-1.321-0.133
				c-0.346-0.01-0.692-0.013-1.037-0.022c-0.212-0.005-0.425-0.019-0.638-0.023c-0.166-0.004-0.332,0.007-0.497,0
				c-0.328-0.014-0.655-0.036-0.983-0.054c-0.034-0.002-0.068,0.002-0.103,0.001c-0.195-0.001-0.392-0.001-0.588-0.005
				c-0.161-0.004-0.322-0.019-0.483-0.021c-0.257-0.005-0.513,0-0.769-0.005c-0.358-0.006-0.717-0.021-1.075-0.024
				c-0.636-0.004-1.272,0.003-1.909-0.006c-0.41-0.007-0.818-0.042-1.228,0c-0.009,0-0.018-0.001-0.025-0.001
				c-0.29-0.012-0.58-0.024-0.869-0.036c-0.063-0.003-0.128-0.002-0.191-0.004c-0.188-0.006-0.376-0.017-0.562-0.019
				c-0.201-0.002-0.402,0.012-0.601,0.006c-0.585-0.018-1.169-0.046-1.754-0.062c-0.336-0.01-0.674-0.001-1.011-0.003
				c-0.303-0.001-0.605-0.007-0.909-0.01c-0.29-0.002-0.58-0.006-0.871-0.002c-0.361,0.005-0.72,0.055-1.082,0.044
				c-0.004,0-0.008,0-0.012,0c-0.248,0.012-0.495,0.023-0.742,0.035c-0.329,0.015-0.657,0.027-0.985,0.046
				c-0.459,0.028-0.917,0.062-1.376,0.091c-0.29,0.018-0.579,0.03-0.868,0.046c-0.136,0.007-0.272,0.021-0.409,0.025
				c-0.179,0.006-0.358,0.001-0.537,0.01c-0.331,0.015-0.663,0.034-0.994,0.054c-0.059,0.003-0.118,0.021-0.177,0.023
				c-0.298,0.013-0.596,0.02-0.893,0.036c-0.354,0.02-0.707,0.049-1.062,0.032c-0.157-0.007-0.315-0.001-0.473,0.003
				c-0.093,0.002-0.187,0.02-0.28,0.021c-0.26,0.003-0.521,0.001-0.781,0c-0.06,0-0.119-0.005-0.179-0.007
				C8.941,0.9,8.796,0.895,8.651,0.892C8.412,0.888,8.173,0.896,7.935,0.88C7.479,0.85,7.025,0.81,6.57,0.77
				C6.252,0.742,5.934,0.706,5.616,0.675C5.565,0.67,5.514,0.663,5.463,0.667C5.16,0.693,4.861,0.639,4.559,0.635
				C4.291,0.632,4.023,0.607,3.755,0.604c-0.112-0.001-0.219,0-0.328-0.035C3.361,0.548,3.284,0.551,3.212,0.555
				C3.127,0.56,3.04,0.566,2.96,0.593C2.849,0.631,2.739,0.68,2.639,0.742c-0.082,0.05-0.144,0.132-0.223,0.187
				C2.344,0.978,2.264,1.04,2.169,1.014c-0.133-0.038-0.263-0.02-0.394-0.001c-0.234,0.033-0.46,0.252-0.499,0.484
				c-0.02,0.118-0.021,0.239-0.055,0.352C1.192,1.947,1.153,2.04,1.181,2.145c0.006,0.019,0.001,0.043-0.005,0.063
				c-0.047,0.135-0.098,0.27-0.143,0.406c-0.07,0.215-0.139,0.43-0.201,0.646C0.777,3.453,0.717,3.646,0.685,3.843
				C0.647,4.076,0.555,4.3,0.572,4.542c0.001,0.021-0.002,0.044-0.01,0.063C0.485,4.792,0.512,4.993,0.478,5.185
				C0.46,5.281,0.448,5.378,0.439,5.475C0.43,5.577,0.425,5.678,0.423,5.78C0.42,5.882,0.434,5.985,0.42,6.085
				C0.403,6.207,0.415,6.323,0.439,6.44c0.007,0.034,0.014,0.068,0.011,0.102C0.43,6.788,0.47,7.031,0.475,7.276
				c0.002,0.143,0.072,0.283,0.012,0.428C0.479,7.722,0.49,7.746,0.49,7.767C0.498,7.984,0.5,8.202,0.514,8.418
				C0.525,8.592,0.55,8.765,0.567,8.939C0.57,8.976,0.562,9.014,0.561,9.052c-0.002,0.08-0.005,0.16-0.003,0.24
				C0.559,9.351,0.572,9.411,0.571,9.47C0.569,9.589,0.559,9.708,0.557,9.826c-0.003,0.217-0.006,0.435-0.005,0.652
				c0,0.092,0.017,0.186,0.015,0.279c-0.004,0.173-0.017,0.347-0.023,0.521c-0.002,0.062,0.006,0.126,0.01,0.19
				c0.005,0.076,0.017,0.151,0.017,0.227c0.001,0.285-0.005,0.57-0.002,0.855c0.001,0.153,0.016,0.306,0.028,0.458
				c0.006,0.072,0.02,0.143,0.029,0.215c0.008,0.067,0.017,0.135,0.019,0.202c0.002,0.072-0.007,0.146-0.002,0.217
				c0.008,0.119,0.028,0.236,0.034,0.355c0.011,0.212,0.011,0.426,0.025,0.638c0.016,0.234,0.039,0.468,0.067,0.699
				c0.018,0.148,0.058,0.293,0.078,0.44c0.039,0.274,0.072,0.55,0.102,0.824c0.02,0.18,0.105,0.332,0.184,0.486
				c0.049,0.097,0.221,0.167,0.319,0.133c0.07-0.024,0.117,0,0.16,0.044c0.077,0.081,0.156,0.159,0.223,0.246
				c0.047,0.062,0.098,0.077,0.166,0.062c0.18-0.041,0.363-0.004,0.545-0.042c0.241-0.051,0.491-0.061,0.736-0.091
				c0.055-0.006,0.108-0.023,0.162-0.038c0.167-0.042,0.335-0.087,0.503-0.127c0.066-0.017,0.135-0.021,0.202-0.033
				c0.339-0.064,0.677-0.135,1.018-0.193c0.217-0.036,0.437-0.06,0.656-0.084c0.225-0.022,0.45-0.038,0.675-0.057
				c0.132-0.01,0.264-0.012,0.395-0.025c0.101-0.011,0.201-0.036,0.302-0.047c0.229-0.021,0.459-0.04,0.689-0.056
				c0.383-0.026,0.765-0.064,1.148-0.073c0.327-0.008,0.655-0.001,0.983,0.01c0.375,0.013,0.75-0.023,1.125-0.043
				c0.332-0.02,0.664-0.062,0.996-0.063c0.351-0.001,0.697-0.045,1.046-0.064c0.43-0.023,0.86-0.069,1.29-0.086
				c0.681-0.027,1.364-0.042,2.045-0.058c0.333-0.008,0.666-0.004,0.999-0.014c0.345-0.01,0.689-0.038,1.035-0.043
				c0.469-0.006,0.939-0.002,1.408,0.007c0.624,0.011,1.247,0.032,1.87,0.047c0.371,0.009,0.743,0.013,1.114,0.021
				c0.342,0.006,0.684,0.018,1.024,0.023c0.605,0.013,1.211,0.024,1.818,0.029c0.354,0.003,0.709-0.001,1.063-0.009
				c0.396-0.008,0.793-0.028,1.189-0.034c0.401-0.008,0.803-0.005,1.204-0.009c0.272-0.004,0.545-0.012,0.818-0.016
				c0.4-0.005,0.802-0.008,1.203-0.014c0.324-0.004,0.647-0.011,0.972-0.017c0.064,0,0.128-0.002,0.191-0.004
				c0.154-0.004,0.308-0.012,0.461-0.014c0.085-0.002,0.17,0.01,0.256,0.011c0.338,0.005,0.675,0.011,1.013,0.014
				c0.217,0.003,0.438,0.018,0.648-0.047c0.104-0.032,0.208-0.042,0.314-0.043c0.112-0.001,0.153,0.036,0.163,0.15
				c0.007,0.076,0.006,0.154,0.005,0.23c0,0.099,0.058,0.179,0.136,0.197c0.152,0.035,0.311,0.037,0.468,0.054
				c0.171-0.087,0.359-0.019,0.539-0.05c0.113-0.019,0.234,0.014,0.354,0.021c0.034,0.002,0.07,0.004,0.103-0.003
				C37.052,16.852,37.219,16.81,37.39,16.768z"/>
			<path fill="#A4FF62" fill-rule="evenodd" clip-rule="evenodd" d="M37.39,16.922c-0.171,0.042-0.338,0.083-0.506,0.122
				c-0.032,0.008-0.068,0.006-0.103,0.004c-0.119-0.008-0.24-0.042-0.354-0.021c-0.18,0.031-0.368-0.037-0.539,0.05
				c-0.157-0.016-0.315-0.018-0.468-0.054c-0.078-0.019-0.136-0.099-0.136-0.197c0.001-0.077,0.002-0.154-0.005-0.23
				c-0.01-0.115-0.051-0.151-0.163-0.151c-0.106,0.001-0.21,0.012-0.314,0.043c-0.211,0.063-0.432,0.05-0.648,0.048
				c-0.338-0.002-0.675-0.008-1.013-0.015c-0.086-0.002-0.171-0.012-0.256-0.011c-0.153,0.002-0.307,0.01-0.461,0.016
				c-0.063,0.002-0.127,0.002-0.191,0.004c-0.324,0.005-0.647,0.011-0.972,0.016c-0.401,0.005-0.803,0.008-1.203,0.014
				c-0.273,0.005-0.546,0.013-0.818,0.015c-0.401,0.004-0.803,0.002-1.204,0.008c-0.396,0.008-0.793,0.027-1.189,0.036
				c-0.354,0.007-0.709,0.012-1.063,0.008c-0.607-0.006-1.213-0.018-1.818-0.028c-0.341-0.007-0.683-0.018-1.024-0.025
				c-0.371-0.007-0.743-0.011-1.114-0.021c-0.623-0.014-1.246-0.036-1.87-0.046c-0.469-0.009-0.939-0.013-1.408-0.006
				c-0.346,0.004-0.69,0.032-1.035,0.042c-0.333,0.01-0.666,0.005-0.999,0.013c-0.682,0.017-1.364,0.029-2.045,0.058
				c-0.43,0.018-0.86,0.064-1.29,0.086c-0.349,0.019-0.695,0.063-1.046,0.064c-0.332,0-0.664,0.044-0.996,0.062
				c-0.375,0.021-0.75,0.059-1.125,0.044c-0.328-0.012-0.656-0.017-0.983-0.01c-0.383,0.009-0.766,0.046-1.148,0.074
				c-0.23,0.016-0.46,0.034-0.689,0.056c-0.101,0.01-0.201,0.037-0.302,0.047c-0.131,0.013-0.263,0.016-0.395,0.026
				c-0.225,0.016-0.45,0.032-0.675,0.056c-0.219,0.022-0.439,0.047-0.656,0.085c-0.34,0.058-0.678,0.128-1.018,0.192
				c-0.067,0.012-0.136,0.017-0.202,0.032c-0.168,0.04-0.336,0.085-0.503,0.129c-0.054,0.013-0.107,0.03-0.162,0.038
				c-0.245,0.03-0.495,0.038-0.736,0.088c-0.183,0.038-0.366,0.002-0.545,0.044c-0.068,0.016-0.119-0.001-0.166-0.062
				c-0.067-0.088-0.146-0.166-0.223-0.245c-0.043-0.045-0.09-0.069-0.16-0.046c-0.099,0.034-0.27-0.035-0.319-0.132
				c-0.079-0.155-0.165-0.308-0.184-0.487c-0.03-0.275-0.063-0.55-0.102-0.823c-0.02-0.146-0.06-0.292-0.078-0.44
				c-0.028-0.232-0.051-0.466-0.067-0.698c-0.015-0.213-0.014-0.426-0.025-0.639c-0.006-0.119-0.026-0.237-0.034-0.355
				c-0.005-0.072,0.004-0.145,0.002-0.218c-0.002-0.066-0.011-0.134-0.019-0.2c-0.009-0.072-0.023-0.143-0.029-0.215
				c-0.012-0.153-0.026-0.306-0.028-0.458c-0.003-0.285,0.003-0.57,0.002-0.855c0-0.076-0.011-0.153-0.017-0.229
				c-0.004-0.063-0.012-0.127-0.01-0.19c0.006-0.174,0.019-0.347,0.023-0.521c0.002-0.092-0.014-0.186-0.015-0.279
				c-0.001-0.217,0.001-0.434,0.005-0.651c0.002-0.119,0.013-0.237,0.014-0.356c0.001-0.059-0.012-0.119-0.013-0.178
				c-0.002-0.08,0.001-0.16,0.003-0.24C0.562,9.168,0.57,9.13,0.567,9.093C0.55,8.919,0.525,8.746,0.514,8.571
				C0.5,8.355,0.498,8.138,0.49,7.921c0-0.021-0.011-0.046-0.003-0.063c0.06-0.145-0.009-0.286-0.012-0.428
				C0.47,7.185,0.43,6.941,0.451,6.695c0.003-0.033-0.004-0.068-0.011-0.101C0.415,6.477,0.403,6.36,0.42,6.239
				c0.014-0.1,0-0.204,0.003-0.305C0.425,5.832,0.43,5.73,0.439,5.628c0.009-0.097,0.021-0.194,0.038-0.29
				c0.035-0.192,0.008-0.393,0.084-0.58C0.57,4.74,0.573,4.717,0.572,4.696c-0.017-0.242,0.075-0.466,0.113-0.7
				c0.032-0.197,0.092-0.39,0.147-0.582c0.062-0.217,0.131-0.432,0.201-0.646c0.045-0.137,0.096-0.271,0.143-0.407
				c0.006-0.02,0.011-0.043,0.005-0.063C1.153,2.193,1.192,2.102,1.222,2.002C1.256,1.89,1.258,1.768,1.277,1.651
				c0.039-0.233,0.265-0.452,0.499-0.485C1.907,1.147,2.037,1.13,2.169,1.167c0.094,0.026,0.174-0.036,0.247-0.085
				c0.079-0.055,0.141-0.137,0.223-0.187c0.1-0.062,0.209-0.111,0.321-0.149C3.04,0.72,3.127,0.713,3.212,0.708
				c0.072-0.004,0.148-0.006,0.215,0.015c0.109,0.035,0.216,0.034,0.328,0.035c0.268,0.002,0.536,0.026,0.804,0.03
				C4.861,0.793,5.16,0.847,5.463,0.821c0.051-0.004,0.103,0.002,0.153,0.007C5.934,0.859,6.252,0.895,6.57,0.923
				c0.455,0.04,0.909,0.081,1.364,0.11c0.238,0.016,0.478,0.008,0.717,0.012c0.145,0.002,0.29,0.008,0.435,0.013
				c0.06,0.002,0.12,0.007,0.179,0.007c0.26,0.001,0.521,0.003,0.781,0c0.094,0,0.187-0.018,0.28-0.021
				c0.158-0.004,0.316-0.011,0.473-0.003c0.355,0.017,0.708-0.013,1.062-0.032c0.297-0.017,0.595-0.022,0.893-0.036
				c0.06-0.002,0.118-0.02,0.177-0.023c0.332-0.02,0.663-0.04,0.994-0.054c0.179-0.008,0.358-0.004,0.537-0.009
				c0.136-0.004,0.272-0.018,0.409-0.025c0.289-0.016,0.579-0.028,0.868-0.046c0.458-0.029,0.917-0.063,1.376-0.091
				c0.329-0.02,0.657-0.031,0.985-0.046c0.248-0.011,0.495-0.023,0.742-0.035c0.004,0,0.008-0.001,0.012-0.001
				c0.362,0.011,0.721-0.039,1.082-0.043c0.291-0.003,0.581,0,0.871,0.002c0.304,0.002,0.606,0.008,0.909,0.009
				c0.337,0.002,0.675-0.006,1.011,0.004c0.585,0.016,1.169,0.044,1.754,0.062c0.198,0.006,0.399-0.008,0.601-0.006
				c0.187,0.001,0.375,0.012,0.562,0.018c0.063,0.002,0.128,0.002,0.191,0.004c0.289,0.012,0.579,0.024,0.869,0.036
				c0.008,0,0.017,0.002,0.025,0.001c0.409-0.041,0.817-0.006,1.228,0c0.637,0.01,1.273,0.002,1.909,0.007
				c0.358,0.002,0.717,0.018,1.075,0.024c0.256,0.004,0.512,0,0.769,0.004c0.161,0.003,0.322,0.017,0.483,0.021
				c0.196,0.005,0.393,0.005,0.588,0.006c0.034,0,0.068-0.003,0.103-0.001c0.328,0.018,0.655,0.04,0.983,0.054
				c0.165,0.007,0.331-0.004,0.497,0c0.213,0.004,0.426,0.019,0.638,0.024c0.345,0.009,0.691,0.012,1.037,0.021
				c0.443,0.013,0.886,0.034,1.321,0.134c0.112,0.025,0.229,0.025,0.344,0.044c0.108,0.018,0.218,0.04,0.323,0.072
				c0.09,0.028,0.101,0.052,0.079,0.144c-0.033,0.146-0.011,0.264,0.109,0.368c0.097,0.083,0.134,0.208,0.158,0.33
				c0.055,0.276,0.095,0.555,0.104,0.837c0.002,0.063-0.002,0.133-0.028,0.188c-0.085,0.172-0.08,0.357-0.087,0.539
				c-0.006,0.183,0.013,0.367,0.01,0.55c-0.003,0.196-0.01,0.392-0.027,0.587c-0.015,0.161-0.053,0.32-0.074,0.48
				c-0.03,0.22-0.059,0.44-0.082,0.662c-0.013,0.118,0.055,0.196,0.174,0.21c0.043,0.005,0.085-0.005,0.127-0.008
				c0.077-0.003,0.154-0.015,0.229-0.008c0.174,0.018,0.347,0.053,0.521,0.063c0.16,0.011,0.235,0.104,0.284,0.236
				c0.061,0.158,0.076,0.323,0.064,0.491c-0.021,0.319-0.052,0.639-0.061,0.958c-0.011,0.375-0.004,0.751-0.004,1.126
				c-0.001,0.397,0.002,0.794-0.003,1.191c-0.001,0.123-0.039,0.235-0.14,0.317c-0.026,0.021-0.04,0.055-0.057,0.084
				c-0.054,0.096-0.108,0.192-0.156,0.291c-0.038,0.078-0.112,0.101-0.182,0.133c-0.011,0.004-0.028,0.01-0.036,0.006
				c-0.088-0.054-0.173-0.01-0.26-0.004c-0.101,0.007-0.203,0-0.304-0.014c-0.139-0.02-0.263,0.02-0.388,0.065
				c-0.028,0.01-0.053,0.055-0.061,0.087c-0.02,0.097-0.036,0.195-0.042,0.291c-0.03,0.517-0.052,1.033-0.087,1.549
				c-0.016,0.233-0.05,0.466-0.082,0.699c-0.056,0.406-0.11,0.812-0.079,1.225c0.007,0.089-0.008,0.179-0.004,0.27
				c0.005,0.122,0.011,0.247,0.031,0.368c0.042,0.267,0.042,0.535,0.054,0.804c0.004,0.079-0.03,0.142-0.1,0.18
				c-0.072,0.042-0.102,0.106-0.123,0.185C37.479,16.723,37.431,16.819,37.39,16.922z"/>
		</g>
	</g>
</g>
<g id="fzhhW5_1_">
	<g>
		<g>
			<path  fill="#BD62FF" d="M35.741,4.092c0,0.034,0,0.068,0,0.103c-0.024,0.082-0.041,0.162-0.033,0.25
				c0.009,0.082-0.003,0.166-0.01,0.248c-0.007,0.099-0.031,0.199-0.026,0.296c0.009,0.146-0.004,0.288-0.027,0.431
				c-0.021,0.121-0.033,0.244-0.047,0.366c-0.012,0.12-0.021,0.239-0.032,0.359c-0.004,0.044-0.005,0.089-0.012,0.132
				c-0.01,0.067-0.033,0.133-0.035,0.2c-0.008,0.265-0.009,0.531-0.014,0.797c0,0.015-0.001,0.03-0.003,0.045
				c-0.003,0.074-0.009,0.147-0.011,0.221c-0.002,0.058,0.002,0.115,0,0.173c-0.004,0.11-0.011,0.22-0.013,0.331
				c-0.003,0.127-0.001,0.254-0.003,0.381c0,0.053,0,0.105-0.004,0.158c-0.002,0.037-0.015,0.074-0.018,0.112
				c-0.005,0.081-0.004,0.161-0.01,0.242c-0.011,0.151-0.029,0.301-0.037,0.451c-0.005,0.095,0.012,0.192,0,0.286
				c-0.026,0.217-0.011,0.433-0.013,0.649c-0.001,0.066-0.003,0.133-0.01,0.198c-0.014,0.15-0.031,0.3-0.046,0.45
				c-0.014,0.144-0.029,0.286-0.04,0.431c-0.012,0.165-0.02,0.329-0.028,0.494c-0.002,0.022-0.001,0.043-0.004,0.064
				c-0.01,0.092-0.029,0.184-0.033,0.276c-0.007,0.169,0.003,0.34-0.013,0.509c-0.025,0.279-0.064,0.557-0.101,0.835
				c-0.025,0.204-0.055,0.408-0.077,0.613c-0.005,0.048-0.029,0.063-0.07,0.062c-0.087-0.005-0.174-0.009-0.261-0.017
				c-0.108-0.01-0.218-0.03-0.327-0.035c-0.142-0.007-0.283-0.003-0.425-0.004c-0.161-0.001-0.323-0.001-0.485-0.001
				c-0.033,0-0.066,0.008-0.1,0.01c-0.158,0.008-0.313-0.021-0.473-0.002c-0.112,0.015-0.229-0.006-0.343-0.008
				c-0.233-0.001-0.465,0.002-0.697,0c-0.152,0-0.305-0.008-0.456-0.006c-0.181,0.002-0.36-0.004-0.542-0.015
				c-0.243-0.012-0.49,0.021-0.737,0.034c-0.063,0.004-0.127,0.015-0.19,0.013c-0.202-0.004-0.404-0.014-0.606-0.021
				c-0.005,0-0.009-0.001-0.014,0c-0.191,0.011-0.383,0.051-0.576,0.014c-0.017-0.004-0.033-0.002-0.052-0.001
				c-0.185,0.008-0.37,0.029-0.553,0.015c-0.17-0.014-0.339,0.039-0.508-0.006c-0.069-0.02-0.148,0.002-0.223,0.002
				c-0.236-0.001-0.474-0.001-0.711-0.003c-0.338-0.003-0.677-0.007-1.014-0.011c-0.117-0.002-0.233-0.012-0.351-0.017
				c-0.21-0.009-0.419-0.02-0.629-0.027c-0.037-0.001-0.075,0-0.113,0.004c-0.148,0.017-0.299,0.055-0.446-0.014
				c-0.012-0.005-0.028-0.001-0.044-0.001c-0.095-0.001-0.19,0.001-0.285-0.003c-0.106-0.004-0.213-0.014-0.318-0.021
				c-0.018-0.001-0.034,0.002-0.051,0.002c-0.075,0.002-0.15,0.008-0.225,0.005c-0.314-0.011-0.63-0.019-0.943-0.013
				c-0.174,0.003-0.349,0-0.522,0c-0.031-0.001-0.062-0.012-0.094-0.012c-0.166,0.002-0.333,0.008-0.5,0.012
				c-0.046,0-0.092-0.01-0.139-0.01c-0.07,0.001-0.143,0.02-0.209,0.006c-0.15-0.032-0.298-0.048-0.451-0.036
				c-0.071,0.006-0.144-0.011-0.215-0.01c-0.128,0.001-0.256,0.01-0.384,0.01c-0.076,0.002-0.152-0.011-0.229-0.01
				c-0.128,0.001-0.256,0.008-0.384,0.011c-0.114,0.002-0.228,0.004-0.341-0.001c-0.164-0.005-0.326-0.021-0.489-0.024
				c-0.104-0.002-0.208,0.008-0.313,0.01c-0.203,0.003-0.407,0.006-0.609,0.005c-0.217-0.002-0.435-0.011-0.651-0.013
				c-0.12-0.002-0.24-0.002-0.361,0c-0.088,0.002-0.177,0.011-0.265,0.011c-0.165-0.003-0.331-0.017-0.495-0.012
				c-0.254,0.007-0.508,0.029-0.762,0.04c-0.21,0.011-0.42,0.015-0.63,0.022c-0.192,0.007-0.384,0.016-0.576,0.025
				c-0.051,0.002-0.103,0.011-0.152,0.005c-0.055-0.007-0.103-0.009-0.153,0.021c-0.021,0.015-0.057,0.008-0.086,0.006
				c-0.044-0.004-0.089-0.016-0.133-0.013c-0.13,0.009-0.26,0.024-0.392,0.033c-0.114,0.008-0.229,0.011-0.343,0.017
				c-0.137,0.007-0.273,0.014-0.411,0.021c-0.096,0.005-0.191,0.008-0.287,0.019c-0.078,0.008-0.153,0.033-0.231,0.006
				c-0.023-0.008-0.055-0.01-0.076,0c-0.077,0.039-0.159,0.038-0.242,0.04c-0.093,0.001-0.186,0.014-0.277,0.012
				c-0.076-0.002-0.152-0.021-0.228-0.023c-0.055-0.004-0.11,0.012-0.165,0.01c-0.11-0.004-0.221-0.023-0.331-0.021
				c-0.262,0.007-0.522,0.021-0.784,0.032c-0.072,0.003-0.144,0.002-0.216,0.006c-0.14,0.007-0.28,0.015-0.42,0.024
				c-0.081,0.006-0.162,0.017-0.243,0.023c-0.053,0.005-0.106,0.006-0.159,0.009c-0.033,0.001-0.067,0.004-0.102,0.004
				c-0.048-0.001-0.096-0.006-0.144-0.004c-0.082,0.002-0.164,0.01-0.246,0.01c-0.174,0.001-0.348-0.008-0.522-0.002
				c-0.222,0.008-0.444,0.026-0.666,0.038c-0.121,0.007-0.243,0.01-0.364,0.017c-0.072,0.003-0.144,0.01-0.215,0.017
				c-0.033,0.003-0.065,0.016-0.098,0.018c-0.229,0.01-0.459,0.014-0.681,0.082c-0.012,0.004-0.025,0.004-0.038,0.004
				c-0.059-0.001-0.119-0.007-0.178-0.002c-0.069,0.006-0.138,0.021-0.207,0.033c-0.037,0.007-0.072,0.018-0.109,0.022
				c-0.041,0.005-0.084,0.002-0.125,0.009c-0.123,0.023-0.244,0.051-0.367,0.072c-0.087,0.016-0.177,0.022-0.265,0.036
				c-0.065,0.012-0.129,0.036-0.195,0.046c-0.129,0.022-0.259,0.04-0.39,0.057c-0.052,0.006-0.091-0.019-0.104-0.072
				c-0.009-0.04-0.017-0.079-0.022-0.119c-0.02-0.168-0.048-0.335-0.055-0.503c-0.006-0.146-0.071-0.296,0.007-0.441
				c0.002-0.005,0.001-0.013,0-0.02c-0.01-0.124-0.019-0.251-0.029-0.375c-0.015-0.183-0.039-0.366-0.042-0.549
				c-0.002-0.122-0.044-0.255,0.038-0.371c0.004-0.007,0.004-0.018,0.004-0.026c0-0.107-0.002-0.216-0.001-0.323
				c0.002-0.237,0.006-0.472,0.01-0.709c0.002-0.116,0.009-0.233,0.007-0.35c-0.002-0.087-0.025-0.175-0.021-0.261
				C3.219,10.358,3.238,10,3.253,9.642C3.267,9.34,3.281,9.039,3.292,8.737c0.003-0.084,0-0.169-0.005-0.253
				C3.285,8.417,3.274,8.349,3.27,8.281c-0.002-0.044,0.001-0.089,0-0.133C3.266,8.067,3.255,7.986,3.257,7.906
				C3.266,7.628,3.278,7.352,3.29,7.073c0.004-0.084,0.017-0.169,0.016-0.254c-0.001-0.12-0.011-0.24-0.018-0.36
				C3.285,6.403,3.28,6.347,3.282,6.291C3.283,6.247,3.298,6.203,3.3,6.159c0.006-0.169,0-0.34,0.016-0.508
				c0.021-0.211,0.058-0.42,0.091-0.63c0.02-0.128,0.046-0.255,0.069-0.383C3.5,4.499,3.519,4.357,3.549,4.219
				c0.031-0.141,0.072-0.28,0.113-0.418c0.008-0.026,0.035-0.06,0.059-0.064C3.814,3.718,3.909,3.705,4.004,3.7
				c0.217-0.012,0.435-0.018,0.652-0.025C4.833,3.668,5.009,3.66,5.186,3.66c0.069,0,0.138,0.022,0.207,0.027
				C5.458,3.692,5.524,3.686,5.59,3.69c0.151,0.009,0.301,0.02,0.452,0.033c0.101,0.008,0.201,0.024,0.302,0.033
				C6.39,3.759,6.438,3.748,6.483,3.75c0.123,0.005,0.246,0.013,0.369,0.021C6.959,3.778,7.065,3.784,7.17,3.795
				c0.1,0.01,0.197,0.031,0.296,0.037c0.084,0.005,0.17-0.014,0.253-0.006C7.875,3.84,8.028,3.84,8.184,3.826
				c0.209-0.019,0.422-0.005,0.633-0.002c0.18,0.002,0.36,0.012,0.541,0.011c0.346-0.002,0.693-0.006,1.04-0.015
				c0.167-0.004,0.332-0.021,0.497-0.033c0.231-0.017,0.462-0.033,0.692-0.051c0.232-0.019,0.463-0.045,0.695-0.061
				c0.335-0.023,0.671-0.039,1.006-0.063c0.158-0.012,0.315-0.039,0.474-0.052c0.242-0.02,0.484-0.036,0.726-0.052
				c0.059-0.003,0.119,0.009,0.178,0.005c0.144-0.011,0.287-0.027,0.43-0.041c0.089-0.009,0.177-0.017,0.266-0.026
				c0.126-0.013,0.252-0.031,0.379-0.041c0.204-0.016,0.409-0.027,0.613-0.039c0.227-0.014,0.454-0.028,0.681-0.04
				c0.208-0.011,0.417-0.024,0.625-0.023c0.1,0.001,0.205-0.029,0.302,0.022c0.01,0.006,0.031,0.01,0.037,0.004
				c0.057-0.05,0.124-0.031,0.188-0.035c0.195-0.011,0.39-0.023,0.583-0.033c0.254-0.013,0.509,0.006,0.762-0.039
				c0.11-0.019,0.224-0.012,0.336-0.014c0.131-0.001,0.262,0.001,0.393,0c0.131-0.001,0.262-0.01,0.393-0.011
				c0.157-0.001,0.314,0.005,0.471,0.005c0.039,0,0.078-0.013,0.117-0.02c0.048,0,0.094,0,0.142,0
				c0.007,0.004,0.013,0.013,0.019,0.013c0.208,0.006,0.416,0.013,0.625,0.015c0.122,0.001,0.246-0.008,0.369-0.005
				c0.167,0.003,0.335,0.016,0.502,0.02c0.265,0.006,0.528,0.009,0.791,0.014c0.222,0.003,0.44,0.007,0.661,0.008
				c0.046,0,0.093-0.011,0.14-0.01c0.159,0.001,0.318,0.009,0.478,0.008c0.179,0,0.356-0.012,0.534-0.012
				c0.307,0.001,0.615,0.009,0.924,0.014c0.032,0,0.066,0.012,0.1,0.01c0.104-0.005,0.211-0.017,0.316-0.02
				c0.107-0.004,0.216-0.002,0.322,0c0.104,0.002,0.207,0.011,0.31,0.011c0.124,0,0.246-0.011,0.369-0.011
				c0.182,0,0.364,0.006,0.547,0.008c0.125,0.001,0.249,0.002,0.375,0.002c0.294,0,0.587-0.002,0.88-0.002
				c0.229,0,0.459,0.006,0.688,0.002c0.144-0.002,0.288-0.022,0.431-0.023c0.12-0.001,0.239,0.017,0.359,0.022
				c0.161,0.007,0.321,0.012,0.484,0.014c0.118,0.001,0.239-0.008,0.359-0.005c0.136,0.002,0.271,0.016,0.407,0.018
				c0.171,0.002,0.344-0.005,0.516-0.003c0.188,0.003,0.378,0.015,0.566,0.019c0.134,0.003,0.266-0.001,0.399-0.001
				c0.104,0,0.208,0.005,0.311,0.007c0.134,0.003,0.267,0.028,0.398-0.018c0.027-0.01,0.062,0.005,0.094,0.009
				c0.025,0.004,0.05,0.012,0.075,0.013c0.186,0.005,0.371,0.01,0.558,0.012c0.075,0.001,0.15-0.004,0.226-0.007
				c0.098-0.002,0.143,0.021,0.154,0.087c0.014,0.078,0.023,0.156,0.029,0.234c0.011,0.142,0.018,0.284,0.026,0.426
				C35.728,4.065,35.736,4.079,35.741,4.092z"/>
		</g>
	</g>
</g>
<g id="b3utUi_1_">
	<g>
		<path fill="#A4FF62" fill-rule="evenodd" clip-rule="evenodd" d="M5.788,4.894c0.066,0.039,0.136,0.073,0.198,0.118
			C6.084,5.084,6.2,5.069,6.269,4.966c0.082-0.122,0.212-0.14,0.342-0.158c0.225-0.03,0.451-0.057,0.676-0.083
			C7.359,4.716,7.433,4.72,7.502,4.703c0.22-0.053,0.445-0.032,0.667-0.056c0.122-0.013,0.245-0.01,0.368-0.016
			c0.029-0.001,0.057-0.006,0.085-0.01c0.202-0.025,0.404-0.026,0.605,0.014c0.125,0.026,0.255,0.033,0.38,0.059
			c0.26,0.051,0.521,0.081,0.787,0.074c0.227-0.005,0.453,0.007,0.679,0.029c0.196,0.02,0.396-0.001,0.594-0.013
			c0.148-0.008,0.296-0.037,0.444-0.044c0.181-0.008,0.363,0.003,0.545-0.008c0.25-0.014,0.499-0.039,0.748-0.063
			c0.187-0.018,0.374-0.043,0.561-0.063c0.049-0.005,0.1-0.009,0.15-0.009c0.163-0.001,0.326-0.001,0.49-0.001
			c0.239,0,0.479,0.002,0.717-0.002c0.125-0.002,0.251-0.018,0.377-0.024c0.254-0.013,0.507-0.028,0.761-0.033
			c0.141-0.003,0.283,0.013,0.425,0.017c0.172,0.005,0.345,0.004,0.516,0.014c0.17,0.009,0.339,0.028,0.509,0.042
			c0.047,0.004,0.093,0.003,0.14,0.007c0.015,0.001,0.029,0.008,0.043,0.013c0.049,0.016,0.097,0.045,0.146,0.045
			c0.134,0,0.269-0.014,0.402-0.022c0.017-0.001,0.033-0.001,0.05-0.001c0.248,0.001,0.496-0.001,0.744,0.004
			c0.127,0.002,0.253,0.021,0.381,0.028c0.113,0.006,0.226,0.008,0.34,0.009c0.095,0,0.191-0.014,0.284,0
			C20.6,4.716,20.757,4.75,20.912,4.79c0.139,0.036,0.271,0.061,0.418,0.037c0.283-0.043,0.569-0.062,0.854-0.093
			c0.097-0.01,0.189-0.033,0.285-0.039c0.146-0.009,0.293-0.011,0.439-0.012c0.189-0.001,0.378-0.002,0.566,0
			c0.09,0.001,0.179,0.014,0.269,0.019c0.14,0.009,0.278,0.02,0.419,0.02c0.19,0,0.383-0.01,0.574-0.011
			c0.063,0,0.126,0.02,0.188,0.023c0.139,0.007,0.278,0.011,0.418,0.013c0.27,0.002,0.54-0.01,0.81,0.009
			c0.152,0.011,0.312-0.015,0.46,0.053c0.068,0.03,0.086,0.047,0.054,0.112c-0.056,0.112,0,0.225,0.125,0.241
			c0.022,0.003,0.052-0.016,0.071-0.033c0.041-0.038,0.083-0.064,0.14-0.041c0.06,0.024,0.076,0.078,0.076,0.134
			c-0.008,0.281-0.015,0.562-0.028,0.844c-0.017,0.337-0.038,0.674,0.016,1.01c0.012,0.078-0.01,0.16-0.008,0.24
			c0.005,0.102,0.024,0.203,0.026,0.305c0.004,0.094-0.006,0.188-0.01,0.283c-0.006,0.194-0.019,0.388-0.014,0.581
			c0.008,0.443,0.021,0.885-0.031,1.327c-0.034,0.284-0.047,0.571-0.071,0.856c-0.028,0.314-0.053,0.628-0.091,0.94
			c-0.03,0.247-0.082,0.49-0.122,0.735c-0.009,0.048-0.01,0.1-0.007,0.148c0.011,0.125-0.057,0.226-0.13,0.303
			c-0.062,0.063-0.062,0.125-0.061,0.191c0,0.056-0.016,0.074-0.066,0.073c-0.153-0.003-0.307-0.02-0.46-0.008
			c-0.219,0.016-0.438-0.032-0.656,0.038c-0.117,0.037-0.249,0.024-0.373,0.043c-0.206,0.028-0.414-0.025-0.622,0.034
			c-0.092,0.025-0.2-0.006-0.301-0.015c-0.04-0.002-0.08-0.018-0.12-0.018c-0.15-0.002-0.303,0-0.454-0.001
			c-0.239-0.001-0.478,0.005-0.716-0.005c-0.118-0.005-0.233-0.039-0.35-0.061c-0.039-0.007-0.079-0.016-0.119-0.021
			c-0.131-0.017-0.264-0.027-0.395-0.049c-0.031-0.004-0.06-0.036-0.088-0.06c-0.01-0.008-0.012-0.026-0.022-0.035
			c-0.018-0.016-0.042-0.04-0.062-0.039c-0.017,0.001-0.03,0.034-0.055,0.065c-0.224-0.013-0.462-0.024-0.7-0.042
			c-0.111-0.008-0.22-0.032-0.33-0.048c-0.138-0.021-0.268,0.006-0.396,0.058c-0.064,0.026-0.136,0.047-0.204,0.047
			c-0.244-0.005-0.487-0.022-0.731-0.026c-0.225-0.005-0.449,0.002-0.674,0.002c-0.294,0-0.588-0.004-0.882-0.002
			c-0.229,0.001-0.458,0.009-0.688,0.016c-0.118,0.003-0.236,0.011-0.355,0.016c-0.201,0.009-0.402,0.018-0.604,0.028
			c-0.106,0.007-0.213,0.019-0.319,0.025c-0.17,0.012-0.341,0.02-0.512,0.032c-0.144,0.011-0.287,0.029-0.43,0.042
			c-0.033,0.003-0.065,0.003-0.099,0.003c-0.064,0-0.128-0.004-0.191-0.002c-0.102,0.004-0.203,0.011-0.305,0.015
			c-0.146,0.005-0.295-0.009-0.439,0.016c-0.219,0.036-0.434-0.01-0.649-0.013c-0.072-0.001-0.145,0.011-0.217,0.013
			c-0.082,0.003-0.164,0-0.246,0.002c-0.172,0.002-0.344,0.005-0.517,0.011c-0.085,0.002-0.17,0.008-0.255,0.016
			c-0.181,0.014-0.362,0.032-0.543,0.044c-0.09,0.005-0.18-0.002-0.27,0.003c-0.17,0.01-0.339,0.021-0.509,0.033
			c-0.129,0.011-0.258,0.024-0.388,0.034c-0.082,0.008-0.164,0.016-0.246,0.022c-0.343,0.033-0.686,0.048-1.03,0.025
			c-0.125-0.01-0.25,0.003-0.376,0.003c-0.092,0-0.183-0.005-0.275-0.007c-0.206-0.002-0.411-0.002-0.616-0.005
			c-0.146-0.001-0.292-0.007-0.438-0.008c-0.027,0-0.055,0.007-0.082,0.011c-0.064,0.013-0.129,0.023-0.193,0.034
			c-0.033,0.005-0.065,0.012-0.098,0.014c-0.221,0.011-0.439,0.069-0.662,0.031c-0.101-0.017-0.179,0.04-0.261,0.075
			c-0.065,0.029-0.125,0.033-0.191,0.033c-0.116,0-0.232,0.006-0.347,0.002c-0.099-0.004-0.203-0.004-0.294-0.036
			c-0.058-0.021-0.12-0.087-0.141-0.146c-0.051-0.142-0.09-0.289-0.113-0.438c-0.02-0.132-0.008-0.269-0.016-0.404
			c-0.009-0.138-0.022-0.276-0.042-0.415C4.81,12,4.786,11.948,4.752,11.921c-0.139-0.112-0.167-0.268-0.185-0.43
			c-0.01-0.101-0.027-0.201-0.035-0.302c-0.005-0.07,0.002-0.141-0.002-0.211c-0.006-0.125-0.023-0.247-0.025-0.372
			c-0.002-0.102,0.01-0.205,0.016-0.308C4.53,10.11,4.533,9.921,4.549,9.734C4.562,9.586,4.568,9.439,4.566,9.29
			c-0.001-0.186,0.04-0.372,0.058-0.558C4.629,8.671,4.619,8.61,4.619,8.549c0-0.08-0.001-0.161,0.006-0.241
			c0.013-0.141,0.035-0.282,0.048-0.423c0.012-0.121,0.021-0.243,0.025-0.364c0.004-0.12,0-0.239,0.005-0.359
			c0.001-0.033,0.023-0.065,0.031-0.099c0.018-0.08,0.033-0.156,0.023-0.243c-0.019-0.161-0.002-0.326-0.02-0.487
			C4.725,6.218,4.728,6.101,4.715,5.985C4.692,5.792,4.701,5.588,4.861,5.436c0.01-0.01,0.02-0.022,0.032-0.027
			c0.079-0.035,0.157-0.077,0.24-0.097c0.109-0.027,0.224-0.033,0.333-0.056c0.051-0.011,0.098-0.042,0.146-0.062
			C5.671,5.167,5.73,5.145,5.788,5.118c0.03-0.014,0.082-0.038,0.08-0.054C5.865,5.026,5.838,4.988,5.815,4.956
			C5.805,4.94,5.78,4.935,5.761,4.925C5.77,4.915,5.779,4.905,5.788,4.894z"/>
	</g>
</g>
</svg>
