<?xml version="1.0" encoding="utf-8"?>
<!-- Generator: Adobe Illustrator 16.0.0, SVG Export Plug-In . SVG Version: 6.00 Build 0)  -->
<!DOCTYPE svg PUBLIC "-//W3C//DTD SVG 1.1//EN" "http://www.w3.org/Graphics/SVG/1.1/DTD/svg11.dtd">
<svg version="1.1" id="Layer_1" xmlns="http://www.w3.org/2000/svg" xmlns:xlink="http://www.w3.org/1999/xlink" x="0px" y="0px"
	 width="398.81px" height="248.07px" viewBox="0 0 398.81 248.07" enable-background="new 0 0 398.81 248.07" xml:space="preserve">
<g id="LwaDfy_2_">
	<g>
		<g>
			<path fill="#A4FF62" d="M5.856,104.191c1.501,0.093,1.913,0.842,2.046,1.981c0.194,1.658,0.643,3.291,0.897,4.947
				c0.286,1.864,0.51,3.715-0.075,5.613c-0.518,1.679-0.727,3.439-1.016,5.17c-0.09,0.54,0.164,1.153-0.019,1.65
				c-0.51,1.396-0.197,2.776-0.047,4.149c0.208,1.918,0.565,3.822,0.813,5.736c0.17,1.32,0.273,2.646,0.389,3.969
				c0.188,2.139,0.372,4.277,0.542,6.416c0.075,0.941,0.054,1.891,0.179,2.824c0.29,2.166,0.648,4.324,0.963,6.486
				c0.224,1.529,0.366,3.072,0.645,4.596c0.49,2.689,0.493,5.379,0.216,8.082c-0.105,1.02-0.147,2.059-0.056,3.076
				c0.233,2.562,0.584,5.119,0.832,7.68c0.075,0.766,0.061,1.557-0.074,2.311c-0.348,1.947-0.805,3.879-1.173,5.822
				c-0.112,0.584-0.121,1.195-0.087,1.789c0.076,1.33,0.237,2.654,0.31,3.982c0.118,2.154-0.013,4.277-0.678,6.381
				c-0.375,1.186-0.424,2.453-0.612,3.686c-0.105,0.678-0.097,1.385-0.313,2.031c-0.505,1.504-0.444,3.053-0.557,4.584
				c-0.186,2.521-0.257,5.049-0.353,7.576c-0.075,2.012-0.203,4.025-0.138,6.033c0.045,1.387,0.027,2.865,1.621,3.789
				c0.522,0.301,0.44,0.988-0.11,1.455c-0.376,0.32-0.854,0.545-1.279,0.822c-0.603,0.387-0.629,0.674-0.083,1.113
				c0.406,0.33,0.836,0.635,1.239,0.939c-0.712,1.4-2.886,1.113-3.301,2.719c1.645,0.51,3.631-0.188,5.09,1.318
				c-0.331,0.348-0.578,0.812-0.982,0.99c-0.975,0.43-2.004,0.781-3.047,1.051c-1.08,0.281-1.321,0.562-0.91,1.547
				c0.415,0.986,0.539,1.891-0.588,2.586c-0.052,0.031-0.03,0.158-0.047,0.275c0.221,0.195,0.53,0.371,0.68,0.621
				c0.596,1.01,1.523,1.148,2.671,1.002c0.687-0.088,1.446-0.164,2.013,0.381c-0.068,1.352-0.063,1.334,1.409,1.709
				c0.542,0.139,1.051,0.379,1.572,0.578c0.688,0.264,1.348,0.646,2.066,0.783c2.286,0.43,4.592,0.766,6.89,1.145
				c0.375,0.064,0.748,0.143,1.119,0.23c1.678,0.387,3.392,0.643,5.101,0.34c3.641-0.643,7.334-0.531,11.004-0.727
				c4.531-0.24,9.073-0.33,13.598-0.637c2.757-0.188,5.519-0.531,8.227-1.033c3.329-0.615,6.655-1.189,10.037-1.502
				c3.283-0.301,6.56-0.639,9.84-0.961c1.613-0.156,3.225-0.322,4.838-0.465c1.993-0.178,3.986-0.35,5.981-0.49
				c1.713-0.117,3.433-0.162,5.146-0.285c5.289-0.369,10.572-0.818,15.864-1.129c4.242-0.248,8.5-0.277,12.743-0.506
				c6.062-0.324,12.117-0.74,18.175-1.119c4.671-0.293,9.342-0.582,14.012-0.893c2.575-0.168,5.145-0.406,7.721-0.559
				c3.431-0.203,6.867-0.344,10.299-0.529c1.526-0.082,3.047-0.27,4.573-0.297c3.58-0.066,7.161-0.072,10.741-0.076
				c0.656,0,1.31,0.176,1.967,0.184c1.288,0.018,2.576-0.041,3.863-0.037c1.051,0.002,2.101,0.078,3.152,0.068
				c2.674-0.02,5.348-0.076,8.023-0.105c3.25-0.039,6.5-0.049,9.75-0.111c2.148-0.039,4.297-0.232,6.447-0.217
				c4.488,0.033,8.977,0.186,13.463,0.236c2.389,0.027,4.777-0.072,7.164-0.074c2.434,0,4.867,0.031,7.299,0.08
				c2.008,0.039,4.023,0.031,6.021,0.203c3.018,0.258,6.039,0.182,9.004-0.213c2.449-0.326,4.852-0.037,7.268-0.057
				c2.906-0.023,5.812,0.268,8.719,0.324c2.338,0.045,4.676-0.07,7.016-0.084c1-0.008,2,0.111,2.998,0.088
				c2.193-0.055,4.363-0.096,6.564,0.141c2.594,0.275,5.229,0.295,7.85,0.33c2.383,0.031,4.77-0.145,7.152-0.09
				c3.957,0.09,7.912,0.324,11.871,0.436c3.719,0.105,7.439,0.129,11.16,0.193c0.191,0.004,0.381,0.045,0.57,0.049
				c3.369,0.088,6.652,1.09,10.088,0.594c2.717-0.393,5.412,0.334,8.129,0.447c1.615,0.064,3.223,0.336,4.828,0.547
				c2.41,0.314,4.807,0.787,7.229,0.953c3.133,0.217,6.268,0.637,9.43,0.357c0.967-0.084,1.812,0.109,2.268,1.004
				c0.135,0.268,0.32,0.514,0.566,0.902c0.387-0.521,0.543-0.725,0.691-0.934c0.854-1.184,1.521-1.438,3.012-1.131
				c0.186,0.037,0.365,0.111,0.553,0.133c2.084,0.24,4.057,0.119,5.41-1.59c1.021-1.291,1.967-2.629,2.957-3.938
				c0.451-0.596,0.834-1.27,1.418-1.738c0.668-0.533,0.77-0.992,0.371-1.668c-0.615-1.043-0.889-2.18-0.926-3.35
				c-0.064-2.23-0.074-4.461-0.139-6.691c-0.064-2.268-0.141-4.535-0.258-6.799c-0.199-3.939-0.479-7.877-0.641-11.818
				c-0.096-2.314-0.086-4.635-0.02-6.949c0.066-2.23,0.291-4.457,0.398-6.686c0.109-2.229,0.152-4.461,0.244-6.689
				c0.111-2.699,0.5-5.395,0.09-8.102c-0.078-0.506-0.025-1.029-0.033-1.543c-0.023-2.02-0.025-4.037-0.072-6.055
				c-0.041-1.713-0.164-3.424-0.193-5.137c-0.045-2.529-0.039-5.062-0.053-7.596c-0.01-2.098-0.027-4.195-0.021-6.295
				c0.008-2.619,0.115-5.24,0.039-7.855c-0.113-3.857-0.42-7.707-0.506-11.564c-0.066-2.869,0.025-5.746,0.152-8.616
				c0.125-2.825,0.379-5.646,0.586-8.468c0.172-2.352,0.471-4.702,0.512-7.056c0.074-4.164,0.082-8.328,0.816-12.451
				c0.578-3.252,0.172-6.506,0.148-9.758c-0.012-2.06-0.104-4.118-0.127-6.176c-0.033-2.657,0.053-5.316-0.068-7.969
				c-0.189-4.216-1.131-8.347-1.961-12.488c-0.836-4.18-1.549-8.376-1.855-12.619c-0.064-0.9-0.168-1.796-0.236-2.694
				c-0.203-2.655-0.297-5.318-0.611-7.958c-0.521-4.393-1.172-8.773-1.795-13.157c-0.078-0.546-0.275-1.088-0.49-1.61
				c-0.361-0.883-0.74-1.766-1.197-2.611c-0.195-0.36-0.555-0.799-0.934-0.896c-0.713-0.182-1.547-0.011-2.236-0.227
				c-0.729-0.227-1.146-1.05-2.082-1.008c-0.047,0.002-0.098-0.002-0.141-0.014c-0.924-0.285-1.844-0.573-2.74-0.851
				c0.088-0.506,0.15-0.866,0.213-1.232c-0.871-0.286-1.656-0.543-2.434-0.799c0.104-1.104,1.467-0.92,1.748-1.693
				c-0.154-0.629-0.752-0.578-1.244-0.65c-1.65-0.24-3.318-0.409-4.951-0.712c-0.77-0.142-1.514-0.471-2.211-0.811
				c-1.168-0.569-2.227-1.362-3.447-1.79c-1.365-0.479-2.848-0.721-4.363-0.541c-0.461,0.056-1.023,0.12-1.398-0.059
				c-0.77-0.367-1.539-0.403-2.359-0.374c-0.326,0.013-0.688-0.004-0.979-0.12c-1.531-0.601-3.17-0.607-4.781-0.693
				c-0.84-0.043-1.697,0.183-2.545,0.288c-0.5,0.062-1,0.154-1.504,0.177c-0.951,0.037-1.91-0.027-2.852,0.063
				c-0.934,0.089-1.848,0.444-2.777,0.466c-3.154,0.074-6.309,0.056-9.461,0.063c-0.334,0.001-0.664-0.071-0.998-0.089
				c-0.9-0.045-1.803-0.143-2.699-0.101c-1.559,0.074-3.086,0.545-4.672,0.296c-1.463-0.229-2.93-0.285-4.414-0.179
				c-0.625,0.045-1.217,0.016-1.725,0.465c-0.195,0.173-0.602,0.203-0.916,0.211c-2.18,0.061-4.367,0.033-6.541,0.159
				c-3.098,0.182-6.189,0.441-9.279,0.723c-1.703,0.157-3.494,0.183-5.066,0.703c-2.398,0.793-4.877,0.757-7.32,1.059
				c-3.262,0.4-6.541,0.697-9.816,1.002c-2.803,0.262-5.605,0.565-8.418,0.685c-5.15,0.218-10.307,0.317-15.461,0.459
				c-0.807,0.024-1.619,0.026-2.43,0.031c-2.039,0.008-4.08,0.044-6.119,0.006c-1.328-0.026-2.686-0.367-3.973-0.206
				c-2.314,0.289-4.67-0.073-6.951,0.482c-0.254,0.06-0.562-0.076-0.846-0.097c-1.145-0.083-2.287-0.222-3.43-0.22
				c-1.709,0.002-3.416,0.139-5.125,0.162c-3.766,0.051-7.531,0.047-11.295,0.103c-1.475,0.023-2.947,0.18-4.422,0.212
				c-1.428,0.032-2.861-0.088-4.285-0.014c-2.43,0.125-4.875,0.229-7.27,0.578c-1.494,0.218-2.931,0.203-4.41,0.118
				c-1.168-0.067-2.347-0.012-3.521-0.01c-2.339,0.004-4.679,0.009-7.018,0.016c-2.578,0.006-5.155,0.008-7.733,0.023
				c-0.993,0.005-1.986,0.032-2.978,0.067c-0.568,0.021-1.136,0.086-1.704,0.112c-0.52,0.023-1.042,0.027-1.562,0.032
				c-0.662,0.007-1.325,0-1.988,0.01c-0.521,0.008-1.042,0.051-1.562,0.04c-0.999-0.019-1.999-0.112-2.994-0.077
				c-0.385,0.014-0.747,0.315-1.14,0.431c-0.746,0.22-1.497,0.522-2.263,0.571c-1.945,0.125-3.917,0-5.841,0.229
				c-0.997,0.12-1.659,0.195-1.937-0.806c-0.733,0-1.385,0-2.017,0c-0.045,0.15-0.076,0.229-0.09,0.308
				c-0.043,0.219,0.005,0.558-0.131,0.633c-0.321,0.178-0.448-0.041-0.563-0.334c-0.054-0.138-0.44-0.245-0.672-0.239
				c-1.62,0.038-3.238,0.131-4.859,0.166c-1.473,0.032-2.97,0.147-4.417-0.033c-0.904-0.112-1.585-0.29-1.896,0.703
				c-0.382-0.174-0.665-0.301-0.948-0.431c-0.301,0.217-0.539,0.433-0.82,0.583c-0.554,0.295-1.189,0.317-1.547-0.172
				c-0.443-0.602-0.968-0.538-1.611-0.475c-1.039,0.1-2.073,0.154-2.706,0.973c-0.196-0.043-0.304-0.04-0.372-0.086
				c-1.02-0.686-1-0.664-2.018-0.066c-0.339,0.199-0.79,0.302-1.201,0.336c-0.997,0.083-2.008,0.037-2.998,0.153
				c-2.501,0.297-4.984,0.707-7.489,0.958c-0.862,0.088-1.882,0.045-2.618-0.303c-0.678-0.32-1.211-0.375-1.875-0.224
				c-0.322,0.074-0.654,0.146-0.984,0.161c-1.885,0.081-3.768-0.076-5.662,0.157c-1.967,0.243-3.966,0.292-5.955,0.371
				c-2.29,0.09-4.583,0.137-6.875,0.166c-1.576,0.02-3.153-0.067-4.727-0.026c-2.194,0.056-4.386,0.203-6.579,0.276
				c-1.523,0.052-3.049,0.05-4.574,0.063c-2.042,0.018-4.086,0.051-6.128,0.036c-2.29-0.016-4.58-0.128-6.87-0.109
				c-2,0.018-4.001,0.158-6.002,0.251c-1.38,0.066-2.761,0.137-4.141,0.221c-1.955,0.119-3.907,0.329-5.862,0.363
				c-3.672,0.062-7.348-0.003-11.021,0.041c-1.767,0.021-3.533,0.162-5.298,0.257c-1.137,0.062-2.274,0.141-3.411,0.21
				c-0.333,0.02-0.735-0.071-0.986,0.066c-1.19,0.643-2.538,0.667-3.835,0.898c-0.319,0.057-0.615,0.219-0.924,0.329
				c-0.528,0.189-1.043,0.462-1.592,0.547c-1.552,0.234-3.114,0.414-4.679,0.561c-0.46,0.043-0.986-0.006-1.404-0.172
				c-2.488-0.991-4.957-1.129-7.379,0.036c-1.089-0.455-1.112-2.172-2.806-1.813c-0.079,0.519-0.148,0.972-0.232,1.518
				c-1.83-0.338-1.257,1.178-1.859,1.857c-0.362-0.178-0.7-0.346-1.27-0.628c-0.165,1.711-0.42,3.238-0.419,4.764
				c0,0.96-0.179,1.857-0.376,2.782c-0.392,1.844-0.833,3.673-0.689,5.598c0.139,1.872,0.196,3.797-0.143,5.634
				c-0.468,2.543-0.423,5.035-0.032,7.552c0.152,0.981,0.284,1.953-0.092,2.931c-0.116,0.304-0.05,0.675-0.02,1.011
				c0.249,2.642,0.504,5.283,0.772,7.925c0.178,1.749,0.386,3.495,0.567,5.244c0.235,2.261,0.72,4.533,0.626,6.785
				c-0.147,3.557,0.625,7.011,1.041,10.501c0.228,1.922,0.388,3.825,0.353,5.755c-0.034,1.837-0.397,3.667,0.014,5.519
				c0.353,1.593,0.603,3.215,0.721,4.834c0.198,2.695,0.249,5.398,0.375,8.097C5.691,102.861,5.781,103.454,5.856,104.191z"/>
			<path fill-rule="evenodd"  fill="#A4FF62" clip-rule="evenodd" d="M5.856,104.191c-0.075-0.738-0.165-1.331-0.192-1.926
				c-0.126-2.699-0.177-5.402-0.375-8.097c-0.118-1.62-0.368-3.241-0.721-4.834c-0.412-1.852-0.048-3.681-0.014-5.519
				c0.036-1.93-0.125-3.833-0.353-5.755C3.785,74.57,3.013,71.117,3.16,67.56c0.094-2.252-0.391-4.524-0.626-6.785
				c-0.182-1.749-0.39-3.495-0.567-5.244c-0.268-2.642-0.523-5.283-0.772-7.925c-0.031-0.335-0.097-0.707,0.02-1.011
				c0.375-0.978,0.244-1.95,0.092-2.931c-0.391-2.517-0.436-5.009,0.032-7.552c0.338-1.837,0.281-3.762,0.143-5.634
				c-0.145-1.925,0.297-3.754,0.689-5.598c0.197-0.925,0.376-1.822,0.376-2.782c-0.001-1.526,0.254-3.053,0.419-4.764
				c0.57,0.283,0.908,0.45,1.27,0.628c0.602-0.679,0.029-2.195,1.859-1.857c0.084-0.545,0.153-0.999,0.232-1.518
				c1.694-0.358,1.716,1.358,2.806,1.813c2.422-1.166,4.892-1.027,7.379-0.036c0.417,0.167,0.944,0.216,1.404,0.172
				c1.565-0.147,3.127-0.327,4.679-0.561c0.549-0.084,1.063-0.358,1.592-0.547c0.309-0.11,0.604-0.272,0.924-0.329
				c1.297-0.23,2.646-0.255,3.835-0.898c0.251-0.137,0.654-0.047,0.986-0.066c1.137-0.069,2.274-0.148,3.411-0.21
				c1.766-0.095,3.532-0.236,5.298-0.257c3.673-0.043,7.349,0.021,11.021-0.041c1.955-0.034,3.907-0.244,5.862-0.363
				c1.379-0.083,2.76-0.155,4.141-0.221c2-0.093,4.001-0.233,6.002-0.251c2.29-0.02,4.58,0.093,6.87,0.109
				c2.042,0.016,4.086-0.018,6.128-0.036c1.525-0.013,3.051-0.011,4.574-0.063c2.193-0.073,4.385-0.22,6.579-0.276
				c1.574-0.041,3.151,0.046,4.727,0.026c2.292-0.028,4.585-0.076,6.875-0.166c1.989-0.078,3.988-0.127,5.955-0.371
				c1.894-0.233,3.777-0.076,5.662-0.157c0.331-0.015,0.662-0.087,0.984-0.161c0.664-0.151,1.197-0.096,1.875,0.224
				c0.736,0.348,1.755,0.391,2.618,0.303c2.504-0.252,4.988-0.661,7.489-0.958c0.989-0.116,2.001-0.069,2.998-0.153
				c0.411-0.034,0.861-0.137,1.201-0.336c1.017-0.598,0.998-0.62,2.018,0.066c0.068,0.047,0.176,0.043,0.372,0.086
				c0.633-0.819,1.667-0.873,2.706-0.973c0.644-0.063,1.168-0.127,1.611,0.475c0.358,0.489,0.994,0.467,1.547,0.172
				c0.282-0.15,0.519-0.366,0.82-0.583c0.283,0.129,0.566,0.257,0.948,0.431c0.311-0.993,0.992-0.815,1.896-0.703
				c1.447,0.18,2.944,0.065,4.417,0.033c1.622-0.035,3.24-0.127,4.859-0.166c0.232-0.006,0.618,0.101,0.672,0.239
				c0.115,0.293,0.242,0.512,0.563,0.334c0.137-0.076,0.088-0.415,0.131-0.633c0.014-0.079,0.045-0.158,0.09-0.308
				c0.632,0,1.284,0,2.017,0c0.278,1,0.94,0.925,1.937,0.806c1.923-0.229,3.896-0.104,5.841-0.229
				c0.766-0.049,1.517-0.352,2.263-0.571c0.393-0.116,0.755-0.417,1.14-0.431c0.995-0.035,1.995,0.058,2.994,0.077
				c0.52,0.011,1.041-0.032,1.562-0.04c0.663-0.01,1.326-0.003,1.988-0.01c0.52-0.005,1.042-0.009,1.562-0.032
				c0.568-0.026,1.135-0.091,1.704-0.112c0.992-0.035,1.985-0.062,2.978-0.067c2.578-0.016,5.155-0.018,7.733-0.023
				c2.339-0.007,4.679-0.012,7.018-0.016c1.174-0.002,2.353-0.057,3.521,0.01c1.479,0.085,2.916,0.1,4.41-0.118
				c2.394-0.35,4.84-0.453,7.27-0.578c1.424-0.075,2.857,0.046,4.285,0.014c1.475-0.032,2.947-0.189,4.422-0.212
				c3.764-0.056,7.529-0.052,11.295-0.103c1.709-0.022,3.416-0.16,5.125-0.162c1.143-0.002,2.285,0.137,3.43,0.22
				c0.283,0.021,0.592,0.157,0.846,0.097c2.281-0.555,4.637-0.193,6.951-0.482c1.287-0.162,2.645,0.179,3.973,0.206
				c2.039,0.039,4.08,0.002,6.119-0.006c0.811-0.005,1.623-0.007,2.43-0.031c5.154-0.143,10.311-0.241,15.461-0.459
				c2.812-0.12,5.615-0.423,8.418-0.685c3.275-0.306,6.555-0.602,9.816-1.002c2.443-0.302,4.922-0.266,7.32-1.059
				c1.572-0.521,3.363-0.546,5.066-0.703c3.09-0.282,6.182-0.542,9.279-0.723c2.174-0.126,4.361-0.098,6.541-0.159
				c0.314-0.009,0.721-0.039,0.916-0.211c0.508-0.449,1.1-0.42,1.725-0.465c1.484-0.105,2.951-0.049,4.414,0.179
				c1.586,0.249,3.113-0.222,4.672-0.296c0.896-0.042,1.799,0.056,2.699,0.101c0.334,0.018,0.664,0.09,0.998,0.089
				c3.152-0.008,6.307,0.01,9.461-0.063c0.93-0.022,1.844-0.377,2.777-0.466c0.941-0.09,1.9-0.026,2.852-0.063
				c0.504-0.022,1.004-0.115,1.504-0.177c0.848-0.104,1.705-0.331,2.545-0.288c1.611,0.085,3.25,0.092,4.781,0.693
				c0.291,0.116,0.652,0.132,0.979,0.12c0.82-0.029,1.59,0.007,2.359,0.374c0.375,0.179,0.938,0.115,1.398,0.059
				c1.516-0.18,2.998,0.062,4.363,0.541c1.221,0.428,2.279,1.22,3.447,1.79c0.697,0.34,1.441,0.669,2.211,0.811
				c1.633,0.303,3.301,0.472,4.951,0.712c0.492,0.072,1.09,0.021,1.244,0.65c-0.281,0.773-1.645,0.589-1.748,1.693
				c0.777,0.255,1.562,0.513,2.434,0.799c-0.062,0.366-0.125,0.726-0.213,1.232c0.896,0.278,1.816,0.566,2.74,0.851
				c0.043,0.012,0.094,0.016,0.141,0.014c0.936-0.042,1.354,0.781,2.082,1.008c0.689,0.216,1.523,0.044,2.236,0.227
				c0.379,0.097,0.738,0.536,0.934,0.896c0.457,0.845,0.836,1.728,1.197,2.611c0.215,0.522,0.412,1.064,0.49,1.61
				c0.623,4.383,1.273,8.764,1.795,13.157c0.314,2.641,0.408,5.304,0.611,7.958c0.068,0.897,0.172,1.794,0.236,2.694
				c0.307,4.243,1.02,8.438,1.855,12.619c0.83,4.141,1.771,8.271,1.961,12.488c0.121,2.653,0.035,5.312,0.068,7.969
				c0.023,2.059,0.115,4.117,0.127,6.176c0.023,3.252,0.43,6.506-0.148,9.758c-0.734,4.123-0.742,8.288-0.816,12.451
				c-0.041,2.354-0.34,4.704-0.512,7.056c-0.207,2.823-0.461,5.643-0.586,8.468c-0.127,2.87-0.219,5.747-0.152,8.616
				c0.086,3.857,0.393,7.707,0.506,11.564c0.076,2.615-0.031,5.236-0.039,7.855c-0.006,2.1,0.012,4.197,0.021,6.295
				c0.014,2.533,0.008,5.066,0.053,7.596c0.029,1.713,0.152,3.424,0.193,5.137c0.047,2.018,0.049,4.035,0.072,6.055
				c0.008,0.514-0.045,1.037,0.033,1.543c0.41,2.707,0.021,5.402-0.09,8.102c-0.092,2.229-0.135,4.461-0.244,6.689
				c-0.107,2.229-0.332,4.455-0.398,6.686c-0.066,2.314-0.076,4.635,0.02,6.949c0.162,3.941,0.441,7.879,0.641,11.818
				c0.117,2.264,0.193,4.531,0.258,6.799c0.064,2.23,0.074,4.461,0.139,6.691c0.037,1.17,0.311,2.307,0.926,3.35
				c0.398,0.676,0.297,1.135-0.371,1.668c-0.584,0.469-0.967,1.143-1.418,1.738c-0.99,1.309-1.936,2.646-2.957,3.938
				c-1.354,1.709-3.326,1.83-5.41,1.59c-0.188-0.021-0.367-0.096-0.553-0.133c-1.49-0.307-2.158-0.053-3.012,1.131
				c-0.148,0.209-0.305,0.412-0.691,0.934c-0.246-0.389-0.432-0.635-0.566-0.902c-0.455-0.895-1.301-1.088-2.268-1.004
				c-3.162,0.279-6.297-0.141-9.43-0.357c-2.422-0.166-4.818-0.639-7.229-0.953c-1.605-0.211-3.213-0.482-4.828-0.547
				c-2.717-0.113-5.412-0.84-8.129-0.447c-3.436,0.496-6.719-0.506-10.088-0.594c-0.189-0.004-0.379-0.045-0.57-0.049
				c-3.721-0.064-7.441-0.088-11.16-0.193c-3.959-0.111-7.914-0.346-11.871-0.436c-2.383-0.055-4.77,0.121-7.152,0.09
				c-2.621-0.035-5.256-0.055-7.85-0.33c-2.201-0.236-4.371-0.195-6.564-0.141c-0.998,0.023-1.998-0.096-2.998-0.088
				c-2.34,0.014-4.678,0.129-7.016,0.084c-2.906-0.057-5.812-0.348-8.719-0.324c-2.416,0.02-4.818-0.27-7.268,0.057
				c-2.965,0.395-5.986,0.471-9.004,0.213c-1.998-0.172-4.014-0.164-6.021-0.203c-2.432-0.049-4.865-0.08-7.299-0.08
				c-2.387,0.002-4.775,0.102-7.164,0.074c-4.486-0.051-8.975-0.203-13.463-0.236c-2.15-0.016-4.299,0.178-6.447,0.217
				c-3.25,0.062-6.5,0.072-9.75,0.111c-2.676,0.029-5.349,0.086-8.023,0.105c-1.051,0.01-2.101-0.066-3.152-0.068
				c-1.287-0.004-2.575,0.055-3.863,0.037c-0.657-0.008-1.311-0.184-1.967-0.184c-3.58,0.004-7.161,0.01-10.741,0.076
				c-1.526,0.027-3.047,0.215-4.573,0.297c-3.432,0.186-6.868,0.326-10.299,0.529c-2.576,0.152-5.146,0.391-7.721,0.559
				c-4.67,0.311-9.341,0.6-14.012,0.893c-6.058,0.379-12.113,0.795-18.175,1.119c-4.243,0.229-8.501,0.258-12.743,0.506
				c-5.292,0.311-10.576,0.76-15.864,1.129c-1.714,0.123-3.434,0.168-5.146,0.285c-1.995,0.141-3.988,0.312-5.981,0.49
				c-1.613,0.143-3.225,0.309-4.838,0.465c-3.28,0.322-6.557,0.66-9.84,0.961c-3.381,0.312-6.708,0.887-10.037,1.502
				c-2.708,0.502-5.47,0.846-8.227,1.033c-4.525,0.307-9.067,0.396-13.598,0.637c-3.67,0.195-7.364,0.084-11.004,0.727
				c-1.709,0.303-3.423,0.047-5.101-0.34c-0.371-0.088-0.743-0.166-1.119-0.23c-2.297-0.379-4.604-0.715-6.89-1.145
				c-0.718-0.137-1.377-0.52-2.066-0.783c-0.521-0.199-1.03-0.439-1.572-0.578c-1.472-0.375-1.477-0.357-1.409-1.709
				c-0.566-0.545-1.326-0.469-2.013-0.381c-1.148,0.146-2.075,0.008-2.671-1.002c-0.149-0.25-0.459-0.426-0.68-0.621
				c0.017-0.117-0.005-0.244,0.047-0.275c1.127-0.695,1.002-1.6,0.588-2.586c-0.411-0.984-0.17-1.266,0.91-1.547
				c1.043-0.27,2.072-0.621,3.047-1.051c0.404-0.178,0.651-0.643,0.982-0.99c-1.459-1.506-3.446-0.809-5.09-1.318
				c0.415-1.605,2.589-1.318,3.301-2.719c-0.403-0.305-0.833-0.609-1.239-0.939c-0.546-0.439-0.52-0.727,0.083-1.113
				c0.425-0.277,0.903-0.502,1.279-0.822c0.55-0.467,0.632-1.154,0.11-1.455c-1.593-0.924-1.576-2.402-1.621-3.789
				c-0.064-2.008,0.063-4.021,0.138-6.033c0.095-2.527,0.167-5.055,0.353-7.576c0.113-1.531,0.052-3.08,0.557-4.584
				c0.216-0.646,0.208-1.354,0.313-2.031c0.188-1.232,0.237-2.5,0.612-3.686c0.666-2.104,0.796-4.227,0.678-6.381
				c-0.073-1.328-0.234-2.652-0.31-3.982c-0.034-0.594-0.025-1.205,0.087-1.789c0.368-1.943,0.826-3.875,1.173-5.822
				c0.135-0.754,0.148-1.545,0.074-2.311c-0.248-2.561-0.598-5.117-0.832-7.68c-0.092-1.018-0.049-2.057,0.056-3.076
				c0.277-2.703,0.274-5.393-0.216-8.082c-0.279-1.523-0.421-3.066-0.645-4.596c-0.315-2.162-0.673-4.32-0.963-6.486
				c-0.125-0.934-0.104-1.883-0.179-2.824c-0.17-2.139-0.354-4.277-0.542-6.416c-0.116-1.322-0.219-2.648-0.389-3.969
				c-0.248-1.914-0.604-3.818-0.813-5.736c-0.149-1.374-0.463-2.753,0.047-4.149c0.183-0.497-0.071-1.11,0.019-1.65
				c0.289-1.731,0.498-3.491,1.016-5.17c0.585-1.898,0.36-3.749,0.075-5.613c-0.254-1.656-0.704-3.289-0.897-4.947
				C7.769,105.033,7.357,104.284,5.856,104.191z"/>
		</g>
	</g>
</g>
</svg>
