<?xml version="1.0" encoding="utf-8"?>
<!-- Generator: Adobe Illustrator 16.0.0, SVG Export Plug-In . SVG Version: 6.00 Build 0)  -->
<!DOCTYPE svg PUBLIC "-//W3C//DTD SVG 1.1//EN" "http://www.w3.org/Graphics/SVG/1.1/DTD/svg11.dtd">
<svg version="1.1" id="Layer_1" xmlns="http://www.w3.org/2000/svg" xmlns:xlink="http://www.w3.org/1999/xlink" x="0px" y="0px"
	 width="460px" height="auto" viewBox="0 0 505 831.334" enable-background="new 0 0 505 831.334" xml:space="preserve">
<g id="PFpdl2_3_">
	<g>
		<g>
			<path fill="#BD62FF" d="M500.223,135.777c-0.17-0.062-0.34-0.123-0.51-0.185c1.701-1.27,1.271-2.878,1.127-4.424
				c-0.059-0.614-0.316-1.209-0.436-1.82c-0.211-1.073-0.742-2.237-0.498-3.211c0.557-2.2,0.148-4.398,0.336-6.589
				c0.283-3.361,0.094-6.758,0.176-10.138c0.135-5.708,0.332-11.41,0.484-17.118c0.025-0.985-0.082-1.976-0.053-2.96
				c0.053-1.683,0.279-3.37,0.23-5.049c-0.176-6.232-0.439-12.462-0.654-18.694c-0.17-4.894-0.307-9.789-0.479-14.683
				c-0.135-3.782-0.33-7.563-0.443-11.345c-0.119-3.956-0.055-7.924-0.324-11.873c-0.096-1.414-0.545-2.816-0.361-4.272
				c0.02-0.16-0.031-0.385-0.141-0.495c-1.328-1.349-1.061-3.451-2.436-4.796c-0.232-0.228-0.328-0.856-0.172-1.142
				c0.953-1.761,0.83-3.277-0.404-4.955c-0.518-0.705-0.887-1.318-1.75-1.505c-0.99-0.215-2.125-0.145-2.965-0.601
				c-1.32-0.709-2.643-0.656-4.025-0.64c-2.408,0.03-4.846,0.26-7.215-0.03c-2.188-0.268-4.322,0.002-6.48-0.043
				c-0.346-0.009-0.75,0.076-1.031,0.257c-1.824,1.173-3.895,1.108-5.922,1.074c-3.43-0.061-6.857-0.241-10.285-0.359
				c-9.088-0.31-18.176-0.621-27.264-0.908c-1.547-0.05-3.098,0.039-4.646,0.034c-1.623-0.007-3.246-0.045-4.869-0.074
				c-1.266-0.022-2.533-0.021-3.795-0.082c-2.334-0.115-4.664-0.296-7-0.399c-4.689-0.21-9.383-0.332-14.07-0.584
				c-7.23-0.391-14.453-0.377-21.67,0.221c-3.234,0.27-6.463,0.77-9.701,0.815c-7.16,0.104-14.316,0.154-21.465,0.676
				c-5.871,0.429-11.758,0.7-17.631,1.115c-5.4,0.383-10.793,0.854-16.188,1.31c-1.137,0.094-2.264,0.39-3.398,0.421
				c-4.09,0.117-8.184,0.119-12.273,0.239c-5.189,0.155-10.336-0.364-15.486-0.81c-2.574-0.226-5.154-0.407-7.713-0.744
				c-3.818-0.5-7.615-1.144-11.429-1.683c-2.203-0.312-4.416-0.587-6.633-0.792c-5.75-0.534-11.501-1.07-17.26-1.502
				c-2.396-0.178-4.816-0.021-7.219-0.143c-4.5-0.227-8.992-0.599-13.492-0.808c-3.307-0.153-6.624-0.117-9.934-0.211
				c-3.603-0.101-7.202-0.265-10.804-0.378c-3.61-0.114-7.221-0.177-10.83-0.305c-4.744-0.169-9.486-0.425-14.23-0.562
				c-3.484-0.103-6.972-0.07-10.459-0.103c-4.207-0.039-8.412-0.085-12.619-0.127c-1.972-0.02-3.948-0.002-5.919-0.062
				c-4.081-0.128-8.159-0.365-12.241-0.429c-5.465-0.087-10.933-0.002-16.398-0.086c-7.825-0.118-15.649-0.311-23.473-0.495
				c-2.642-0.06-5.281-0.199-7.922-0.284C73.937,3.322,69.914,3.222,65.891,3.1c-3.468-0.105-6.934-0.262-10.402-0.327
				c-5.176-0.099-10.351-0.13-15.526-0.199C36.175,2.521,32.388,2.426,28.6,2.421c-0.996-0.001-1.74-0.289-2.241-1.09
				c-0.531,0.331-0.95,0.789-1.422,0.847c-1.184,0.145-2.399,0.207-3.589,0.123c-1.357-0.097-2.69-0.533-3.985,0.324
				c-0.287,0.19-0.824,0.024-1.245,0.024c-0.662,0-1.332,0.07-1.982-0.011c-1.777-0.222-3.01,0.345-3.711,2.017
				C10.257,5.055,9.62,5.586,9.271,5.541C7.959,5.367,7.508,6.216,7.18,7.07c-0.585,1.526-1.06,3.098-1.5,4.671
				c-1.056,3.769-2.295,7.496-2.583,11.434c-0.092,1.273-0.171,2.596-0.582,3.792c-0.902,2.642-0.518,5.258,0.377,7.689
				c0.722,1.958,1.085,3.914,1.382,5.923c0.067,0.461,0.102,0.929,0.172,1.387c0.414,2.71,1.014,5.404,1.216,8.128
				c0.468,6.342,0.779,12.693,1.08,19.046c0.073,1.554-0.273,3.124-0.199,4.677c0.096,2.023,0.528,4.032,0.613,6.055
				c0.105,2.501-0.082,5.011,0.008,7.513c0.153,4.256,0.513,8.509,0.614,12.766c0.091,3.787-0.14,7.584-0.067,11.372
				c0.09,4.664,0.374,9.322,0.527,13.985c0.208,6.297,0.406,12.592,0.54,18.89c0.093,4.315,0.155,8.634,0.078,12.951
				c-0.094,5.193-0.391,10.383-0.526,15.575c-0.1,3.852,0.009,7.707-0.139,11.556c-0.291,7.52-0.747,15.032-1.037,22.552
				c-0.21,5.479-0.181,10.969-0.41,16.45c-0.336,8.044-0.834,16.082-1.199,24.126c-0.079,1.738,0.135,3.486,0.18,5.229
				c0.028,1.047,0.019,2.098-0.03,3.144c-0.054,1.161-0.237,2.32-0.247,3.483c-0.051,6.937-0.077,13.878-0.093,20.815
				c-0.004,1.807,0.063,3.612,0.081,5.416c0.022,2.2,0.067,4.398,0.02,6.598c-0.025,1.099-0.34,2.194-0.34,3.294
				c0.002,3.38,0.238,6.766,0.122,10.142c-0.319,9.276-0.353,18.54,0.19,27.814c0.287,4.877,0.167,9.777,0.244,14.666
				c0.014,0.935,0.102,1.864,0.124,2.794c0.082,3.384,0.09,6.77,0.235,10.152c0.387,8.979,0.663,17.949,0.027,26.934
				c-0.234,3.312-0.288,6.652-0.17,9.971c0.369,10.378,0.739,20.757,1.335,31.125c0.573,9.965,0.098,19.952,0.957,29.91
				c0.335,3.887,0.224,7.811,0.283,11.722c0.114,7.522,0.278,15.046,0.281,22.569c0.002,5.303-0.342,10.602-0.328,15.901
				c0.02,8.172,0.244,16.339,0.312,24.507c0.016,1.855-0.368,3.71-0.368,5.565c-0.001,3.323,0.201,6.646,0.223,9.967
				c0.02,3.091-0.076,6.183-0.142,9.272c-0.027,1.329-0.113,2.659-0.159,3.99c-0.16,4.714,0.225,9.43-0.047,14.156
				c-0.217,3.766,0.23,7.543-0.027,11.343c-0.285,4.231,0.047,8.496,0.052,12.749c0.003,2.854-0.135,5.71-0.137,8.564
				c-0.001,3.314,0.106,6.629,0.109,9.944c0.002,1.804-0.124,3.607-0.17,5.413c-0.027,1.104-0.029,2.209-0.009,3.312
				c0.03,1.621,0.094,3.241,0.136,4.862c0.012,0.464,0.038,0.938-0.02,1.398c-0.267,2.198-0.591,4.391-0.835,6.592
				c-0.417,3.765-0.918,7.53-1.145,11.308c-0.273,4.541-0.366,9.095-0.409,13.646c-0.051,5.354,0.027,10.714,0.068,16.069
				c0.009,1.222,0.142,2.443,0.142,3.662c0,3.208-0.035,6.415-0.068,9.624c-0.035,3.378-0.114,6.757-0.115,10.135
				c-0.001,1.516,0.205,3.029,0.197,4.545c-0.01,1.98-0.24,3.963-0.2,5.941c0.133,6.41,0.391,12.814,0.496,19.226
				c0.026,1.609-0.396,3.22-0.519,4.837c-0.544,7.166-0.296,14.335,0.045,21.502c0.185,3.901,0.447,7.798,0.67,11.698
				c0.06,1.048,0.071,2.101,0.166,3.147c0.396,4.418,0.786,8.838,1.248,13.251c0.126,1.208,0.541,2.387,0.738,3.591
				c0.177,1.08,0.292,2.174,0.333,3.268c0.035,0.855-0.275,1.579-1.177,1.998c-0.342,0.158-0.699,0.509-0.824,0.85
				c-0.541,1.475-1.088,2.955-1.443,4.477c-0.143,0.615-0.04,1.571,0.368,1.969c0.999,0.966,0.936,2.048,0.851,3.2
				c-0.069,0.927-0.266,1.855-0.218,2.772c0.078,1.476-0.794,2.98,0.139,4.438c0.102,0.161-0.023,0.45-0.019,0.678
				c0.01,0.619,0.02,1.241,0.055,1.858c0.033,0.565,0.054,1.138,0.158,1.694c0.191,1.016,0.294,2.084,0.727,2.998
				c0.199,0.42,1.087,0.552,1.676,0.781c0.838,0.322,1.677,0.652,2.539,0.905c0.9,0.264,1.624,0.598,1.974,1.577
				c0.391,1.092,1.431,1.525,2.531,1.726c0.939,0.171,1.892,0.277,2.842,0.372c1.073,0.106,2.154,0.262,3.229,0.238
				c3.853-0.089,7.704-0.25,11.556-0.367c1.265-0.036,2.534,0.02,3.797-0.032c5.599-0.228,11.197-0.548,16.798-0.701
				c7.832-0.216,15.666-0.347,23.5-0.446c4.701-0.061,9.409,0.149,14.103-0.014c11.869-0.409,23.735-0.823,35.613-0.529
				c2.651,0.066,5.303,0.344,7.95,0.292c4.215-0.083,8.427-0.315,12.637-0.565c6.677-0.396,13.377-0.619,20.018-1.345
				c10.038-1.095,20.084-1.188,30.153-0.997c6.577,0.127,13.136-0.074,19.686-0.707c6.897-0.664,13.814-1.081,20.752-1.095
				c9.102-0.019,18.202-0.044,27.302-0.121c3.797-0.032,7.605-0.042,11.385-0.343c8.723-0.696,17.451-1.052,26.197-0.875
				c4.396,0.086,8.789,0.426,13.188,0.531c5.66,0.134,11.322,0.229,16.984,0.186c5.24-0.04,10.479-0.281,15.717-0.438
				c6.021-0.18,12.043-0.344,18.062-0.55c6.248-0.211,12.482,0.562,18.762-0.435c4.424-0.705,9.02-0.586,13.533-0.527
				c4.998,0.068,9.992,0.447,14.984,0.764c3.064,0.196,6.117,0.707,9.184,0.772c7.773,0.177,15.547,0.035,23.32-0.302
				c3.184-0.139,6.381-0.01,9.572-0.037c1.336-0.012,2.244,0.429,2.861,1.674c0.621,1.251,1.475,2.401,2.293,3.551
				c0.645,0.907,1.244,0.897,2.008,0.105c0.229-0.241,0.486-0.451,0.691-0.641c0.781,0.441,1.432,0.875,2.137,1.188
				c1.035,0.46,1.271-0.912,2.172-0.996c0.244,0.333,0.457,0.684,0.729,0.979c1.002,1.1,2.963,1.545,4.02,0.939
				c1.699-0.974,1.693-0.968,3.277,0.229c1.006,0.762,2.01,1.263,3.26,0.337c0.379-0.281,1.023-0.263,1.555-0.309
				c1.137-0.096,2.283-0.106,3.416-0.228c0.664-0.071,1.121,0.048,1.561,0.585c0.822,1.011,1.541,1.18,2.582,0.457
				c1.107-0.767,2.377-1.223,3.436-2.145c1.383-1.206,2.018-2.643,2.453-4.266c0.211-0.783,0.271-1.614,0.547-2.375
				c0.408-1.126,0.406-2.112-0.328-3.148c-0.346-0.485-0.496-1.198-0.484-1.804c0.029-1.573,0.154-3.147,0.322-4.714
				c0.408-3.83,0.807-7.651,0.352-11.511c-0.412-3.474-0.725-6.955-1.039-10.436c-0.143-1.565-0.156-3.142-0.277-4.71
				c-0.367-4.708-0.822-9.416-1.123-14.129c-0.311-4.834-0.508-9.673-0.703-14.512c-0.199-4.893-0.324-9.787-0.5-14.68
				c-0.09-2.566-0.213-5.13-0.33-7.695c-0.236-5.068-0.748-10.143-0.658-15.209c0.15-8.51,0.58-17.019,1.09-25.52
				c0.449-7.508,1.1-15.008,1.801-22.499c0.357-3.825,0.975-7.632,1.559-11.435c1.039-6.765,1.256-13.589,1.627-20.401
				c0.293-5.354,0.387-10.72,0.664-16.073c0.375-7.223,0.469-14.444,0.193-21.67c-0.195-5.125-0.338-10.256-0.402-15.383
				c-0.045-3.616,0.021-7.233,0.141-10.848c0.143-4.254,0.453-8.504,0.594-12.76c0.152-4.604,0.174-9.215,0.285-13.82
				c0.074-3.146,0.256-6.289,0.293-9.434c0.037-3.206-0.092-6.414-0.062-9.619c0.059-6.123,0.186-12.245,0.268-18.369
				c0.037-2.681,0-5.363,0.061-8.045c0.107-4.777,0.396-9.558,0.367-14.333c-0.031-5.305-0.334-10.605-0.523-15.907
				c-0.234-6.587-0.637-13.173-0.674-19.76c-0.057-9.801,0.158-19.6,0.23-29.4c0.039-5.367,0.02-10.732,0.037-16.098
				c0.02-5.134,0.045-10.27,0.084-15.402c0.055-7.64-0.305-15.285,0.41-22.915c0.305-3.254,0.363-6.526,0.551-9.79
				c0.193-3.319,0.496-6.635,0.59-9.955c0.115-4.079,0.078-8.161,0.078-12.242c0.002-5.827,0.025-11.655-0.053-17.482
				c-0.059-4.257-0.365-8.514-0.385-12.767c-0.031-7.299-0.367-14.579-0.77-21.864c-0.371-6.697-0.385-13.414-0.352-20.123
				c0.027-6.182,0.35-12.365,0.5-18.547c0.145-5.947,0.293-11.895,0.328-17.842c0.033-6.186-0.092-12.371-0.104-18.559
				c-0.008-5.13,0.037-10.262,0.08-15.394c0.037-4.194,0.119-8.392,0.158-12.588c0.031-3.208-0.049-6.416,0.053-9.617
				c0.16-5.126,0.518-10.247,0.627-15.374c0.107-5.01-0.008-10.021,0.014-15.031c0.008-1.571,0.145-3.141,0.213-4.709
				c0.004-0.105-0.061-0.215-0.104-0.359C500.635,135.677,500.428,135.727,500.223,135.777z"/>
			<path fill-rule="evenodd" clip-rule="evenodd" fill="#BD62FF" d="M500.223,135.777c0.205-0.051,0.412-0.101,0.617-0.151
				c0.043,0.145,0.107,0.254,0.104,0.359c-0.068,1.568-0.205,3.138-0.213,4.709c-0.021,5.011,0.094,10.021-0.014,15.031
				c-0.109,5.127-0.467,10.248-0.627,15.374c-0.102,3.201-0.021,6.409-0.053,9.617c-0.039,4.196-0.121,8.394-0.158,12.588
				c-0.043,5.132-0.088,10.264-0.08,15.394c0.012,6.188,0.137,12.373,0.104,18.559c-0.035,5.947-0.184,11.895-0.328,17.842
				c-0.15,6.182-0.473,12.365-0.5,18.547c-0.033,6.709-0.02,13.426,0.352,20.123c0.402,7.285,0.738,14.565,0.77,21.864
				c0.02,4.253,0.326,8.51,0.385,12.767c0.078,5.827,0.055,11.655,0.053,17.482c0,4.081,0.037,8.163-0.078,12.242
				c-0.094,3.32-0.396,6.636-0.59,9.955c-0.188,3.264-0.246,6.536-0.551,9.79c-0.715,7.63-0.355,15.275-0.41,22.915
				c-0.039,5.133-0.064,10.269-0.084,15.402c-0.018,5.365,0.002,10.73-0.037,16.098c-0.072,9.801-0.287,19.6-0.23,29.4
				c0.037,6.587,0.439,13.173,0.674,19.76c0.189,5.302,0.492,10.603,0.523,15.907c0.029,4.775-0.26,9.556-0.367,14.333
				c-0.061,2.682-0.023,5.364-0.061,8.045c-0.082,6.124-0.209,12.246-0.268,18.369c-0.029,3.205,0.1,6.413,0.062,9.619
				c-0.037,3.145-0.219,6.287-0.293,9.434c-0.111,4.605-0.133,9.217-0.285,13.82c-0.141,4.256-0.451,8.506-0.594,12.76
				c-0.119,3.614-0.186,7.231-0.141,10.848c0.064,5.127,0.207,10.258,0.402,15.383c0.275,7.226,0.182,14.447-0.193,21.67
				c-0.277,5.354-0.371,10.719-0.664,16.073c-0.371,6.812-0.588,13.637-1.627,20.401c-0.584,3.803-1.201,7.609-1.559,11.435
				c-0.701,7.491-1.352,14.991-1.801,22.499c-0.51,8.501-0.939,17.01-1.09,25.52c-0.09,5.066,0.422,10.141,0.658,15.209
				c0.117,2.565,0.24,5.129,0.33,7.695c0.176,4.893,0.301,9.787,0.5,14.68c0.195,4.839,0.393,9.678,0.703,14.512
				c0.301,4.713,0.756,9.421,1.123,14.129c0.121,1.568,0.135,3.145,0.277,4.71c0.314,3.48,0.627,6.962,1.039,10.436
				c0.455,3.859,0.057,7.681-0.352,11.511c-0.168,1.566-0.293,3.141-0.322,4.714c-0.012,0.605,0.139,1.318,0.484,1.804
				c0.734,1.036,0.736,2.022,0.328,3.148c-0.275,0.761-0.336,1.592-0.547,2.375c-0.436,1.623-1.07,3.06-2.453,4.266
				c-1.059,0.922-2.328,1.378-3.436,2.145c-1.041,0.723-1.76,0.554-2.582-0.457c-0.439-0.537-0.896-0.656-1.561-0.585
				c-1.133,0.121-2.279,0.132-3.416,0.228c-0.531,0.046-1.176,0.027-1.555,0.309c-1.25,0.926-2.254,0.425-3.26-0.337
				c-1.584-1.197-1.578-1.203-3.277-0.229c-1.057,0.605-3.018,0.16-4.02-0.939c-0.271-0.295-0.484-0.646-0.729-0.979
				c-0.9,0.084-1.137,1.456-2.172,0.996c-0.705-0.312-1.355-0.746-2.137-1.188c-0.205,0.189-0.463,0.399-0.691,0.641
				c-0.764,0.792-1.363,0.802-2.008-0.105c-0.818-1.149-1.672-2.3-2.293-3.551c-0.617-1.245-1.525-1.686-2.861-1.674
				c-3.191,0.027-6.389-0.102-9.572,0.037c-7.773,0.337-15.547,0.479-23.32,0.302c-3.066-0.065-6.119-0.576-9.184-0.772
				c-4.992-0.316-9.986-0.695-14.984-0.764c-4.514-0.059-9.109-0.178-13.533,0.527c-6.279,0.997-12.514,0.224-18.762,0.435
				c-6.02,0.206-12.041,0.37-18.062,0.55c-5.238,0.156-10.477,0.397-15.717,0.438c-5.662,0.043-11.324-0.052-16.984-0.186
				c-4.398-0.105-8.791-0.445-13.188-0.531c-8.746-0.177-17.475,0.179-26.197,0.875c-3.779,0.301-7.588,0.311-11.385,0.343
				c-9.1,0.077-18.201,0.103-27.302,0.121c-6.938,0.014-13.854,0.431-20.752,1.095c-6.55,0.633-13.109,0.834-19.686,0.707
				c-10.069-0.191-20.116-0.098-30.153,0.997c-6.641,0.726-13.341,0.948-20.018,1.345c-4.21,0.25-8.422,0.482-12.637,0.565
				c-2.646,0.052-5.299-0.226-7.95-0.292c-11.878-0.294-23.744,0.12-35.613,0.529c-4.694,0.163-9.402-0.047-14.103,0.014
				c-7.834,0.1-15.668,0.23-23.5,0.446c-5.601,0.153-11.199,0.474-16.798,0.701c-1.263,0.052-2.532-0.004-3.797,0.032
				c-3.853,0.117-7.704,0.278-11.556,0.367c-1.074,0.023-2.155-0.132-3.229-0.238c-0.95-0.095-1.903-0.201-2.842-0.372
				c-1.101-0.2-2.14-0.634-2.531-1.726c-0.35-0.979-1.074-1.313-1.974-1.577c-0.862-0.253-1.701-0.583-2.539-0.905
				c-0.589-0.229-1.477-0.361-1.676-0.781c-0.433-0.914-0.536-1.982-0.727-2.998c-0.104-0.557-0.125-1.129-0.158-1.694
				c-0.036-0.617-0.045-1.239-0.055-1.858c-0.005-0.228,0.12-0.517,0.019-0.678c-0.933-1.457-0.061-2.962-0.139-4.438
				c-0.048-0.917,0.149-1.846,0.218-2.772c0.085-1.152,0.148-2.234-0.851-3.2c-0.408-0.397-0.511-1.354-0.368-1.969
				c0.355-1.521,0.902-3.002,1.443-4.477c0.125-0.341,0.482-0.691,0.824-0.85c0.902-0.419,1.211-1.143,1.177-1.998
				c-0.042-1.094-0.156-2.188-0.333-3.268c-0.197-1.204-0.612-2.383-0.738-3.591c-0.462-4.413-0.853-8.833-1.248-13.251
				c-0.095-1.047-0.106-2.1-0.166-3.147c-0.223-3.9-0.485-7.797-0.67-11.698c-0.342-7.167-0.589-14.336-0.045-21.502
				c0.123-1.617,0.544-3.228,0.519-4.837c-0.105-6.411-0.363-12.815-0.496-19.226c-0.041-1.979,0.189-3.961,0.2-5.941
				c0.008-1.516-0.199-3.029-0.197-4.545c0.001-3.378,0.08-6.757,0.115-10.135c0.033-3.209,0.068-6.416,0.068-9.624
				c0-1.219-0.133-2.44-0.142-3.662c-0.041-5.355-0.119-10.715-0.068-16.069c0.043-4.551,0.136-9.104,0.409-13.646
				c0.227-3.777,0.729-7.543,1.145-11.308c0.244-2.201,0.568-4.394,0.835-6.592c0.057-0.461,0.031-0.935,0.02-1.398
				c-0.042-1.621-0.106-3.241-0.136-4.862c-0.021-1.103-0.018-2.208,0.009-3.312c0.047-1.806,0.173-3.609,0.17-5.413
				c-0.003-3.315-0.111-6.63-0.109-9.944c0.001-2.854,0.14-5.71,0.137-8.564c-0.004-4.253-0.337-8.518-0.052-12.749
				c0.257-3.8-0.19-7.577,0.027-11.343c0.272-4.727-0.113-9.442,0.047-14.156c0.045-1.331,0.131-2.661,0.159-3.99
				c0.065-3.09,0.161-6.182,0.142-9.272c-0.021-3.321-0.224-6.644-0.223-9.967c0-1.855,0.384-3.71,0.368-5.565
				c-0.068-8.168-0.292-16.335-0.312-24.507c-0.014-5.3,0.331-10.599,0.328-15.901c-0.003-7.523-0.167-15.047-0.281-22.569
				c-0.059-3.911,0.052-7.835-0.283-11.722c-0.858-9.958-0.384-19.945-0.957-29.91c-0.597-10.368-0.967-20.747-1.335-31.125
				c-0.118-3.318-0.064-6.658,0.17-9.971c0.636-8.984,0.36-17.955-0.027-26.934c-0.146-3.383-0.153-6.769-0.235-10.152
				c-0.022-0.93-0.11-1.859-0.124-2.794c-0.077-4.889,0.042-9.789-0.244-14.666c-0.543-9.274-0.509-18.538-0.19-27.814
				c0.116-3.376-0.119-6.762-0.122-10.142c0-1.1,0.315-2.195,0.34-3.294c0.048-2.199,0.002-4.397-0.02-6.598
				c-0.018-1.804-0.085-3.609-0.081-5.416c0.016-6.938,0.042-13.879,0.093-20.815c0.01-1.163,0.193-2.322,0.247-3.483
				c0.048-1.046,0.058-2.097,0.03-3.144c-0.045-1.742-0.258-3.49-0.18-5.229c0.364-8.044,0.862-16.082,1.199-24.126
				c0.229-5.481,0.199-10.972,0.41-16.45c0.291-7.52,0.747-15.032,1.037-22.552c0.148-3.849,0.039-7.704,0.139-11.556
				c0.135-5.192,0.432-10.382,0.526-15.575c0.077-4.317,0.015-8.636-0.078-12.951c-0.134-6.298-0.333-12.593-0.54-18.89
				c-0.154-4.663-0.438-9.321-0.527-13.985c-0.073-3.788,0.158-7.585,0.067-11.372c-0.102-4.257-0.461-8.51-0.614-12.766
				c-0.089-2.502,0.097-5.012-0.008-7.513c-0.085-2.022-0.517-4.031-0.613-6.055c-0.074-1.553,0.272-3.123,0.199-4.677
				c-0.301-6.353-0.612-12.704-1.08-19.046c-0.202-2.724-0.802-5.418-1.216-8.128c-0.07-0.458-0.105-0.926-0.172-1.387
				c-0.297-2.009-0.66-3.965-1.382-5.923c-0.895-2.432-1.279-5.048-0.377-7.689c0.411-1.196,0.49-2.519,0.582-3.792
				c0.288-3.938,1.527-7.665,2.583-11.434c0.44-1.573,0.916-3.145,1.5-4.671c0.328-0.854,0.779-1.703,2.091-1.529
				c0.349,0.045,0.986-0.486,1.154-0.886c0.701-1.672,1.934-2.238,3.711-2.017c0.65,0.081,1.32,0.011,1.982,0.011
				c0.42,0,0.958,0.166,1.245-0.024c1.295-0.857,2.628-0.421,3.985-0.324c1.19,0.084,2.405,0.021,3.589-0.123
				c0.472-0.058,0.892-0.516,1.422-0.847c0.501,0.801,1.245,1.089,2.241,1.09c3.788,0.005,7.575,0.101,11.362,0.152
				c5.175,0.069,10.351,0.101,15.526,0.199c3.469,0.065,6.935,0.222,10.402,0.327c4.023,0.122,8.046,0.223,12.069,0.345
				c2.642,0.085,5.281,0.225,7.922,0.284c7.824,0.185,15.648,0.377,23.473,0.495c5.465,0.084,10.933-0.001,16.398,0.086
				c4.082,0.063,8.16,0.301,12.241,0.429c1.972,0.061,3.947,0.043,5.919,0.062c4.207,0.042,8.412,0.088,12.619,0.127
				c3.487,0.032,6.975,0,10.459,0.103c4.745,0.137,9.486,0.393,14.23,0.562c3.609,0.128,7.22,0.19,10.83,0.305
				c3.602,0.113,7.201,0.277,10.804,0.378c3.31,0.094,6.626,0.058,9.934,0.211c4.5,0.209,8.993,0.581,13.492,0.808
				c2.403,0.121,4.824-0.035,7.219,0.143c5.759,0.432,11.51,0.968,17.26,1.502c2.217,0.205,4.43,0.48,6.633,0.792
				c3.814,0.539,7.611,1.183,11.429,1.683c2.559,0.337,5.139,0.519,7.713,0.744c5.15,0.445,10.297,0.965,15.486,0.81
				c4.09-0.12,8.184-0.122,12.273-0.239c1.135-0.031,2.262-0.327,3.398-0.421c5.395-0.456,10.787-0.927,16.188-1.31
				c5.873-0.415,11.76-0.687,17.631-1.115c7.148-0.521,14.305-0.572,21.465-0.676c3.238-0.046,6.467-0.546,9.701-0.815
				c7.217-0.598,14.439-0.611,21.67-0.221c4.688,0.252,9.381,0.374,14.07,0.584c2.336,0.104,4.666,0.284,7,0.399
				c1.262,0.062,2.529,0.06,3.795,0.082c1.623,0.029,3.246,0.067,4.869,0.074c1.549,0.005,3.1-0.084,4.646-0.034
				c9.088,0.287,18.176,0.599,27.264,0.908c3.428,0.118,6.855,0.299,10.285,0.359c2.027,0.034,4.098,0.099,5.922-1.074
				c0.281-0.181,0.686-0.266,1.031-0.257c2.158,0.045,4.293-0.225,6.48,0.043c2.369,0.29,4.807,0.061,7.215,0.03
				c1.383-0.017,2.705-0.069,4.025,0.64c0.84,0.456,1.975,0.386,2.965,0.601c0.863,0.187,1.232,0.8,1.75,1.505
				c1.234,1.678,1.357,3.194,0.404,4.955c-0.156,0.285-0.061,0.914,0.172,1.142c1.375,1.345,1.107,3.447,2.436,4.796
				c0.109,0.11,0.16,0.335,0.141,0.495c-0.184,1.456,0.266,2.858,0.361,4.272c0.27,3.949,0.205,7.917,0.324,11.873
				c0.113,3.781,0.309,7.562,0.443,11.345c0.172,4.894,0.309,9.789,0.479,14.683c0.215,6.232,0.479,12.462,0.654,18.694
				c0.049,1.679-0.178,3.366-0.23,5.049c-0.029,0.984,0.078,1.975,0.053,2.96c-0.152,5.708-0.35,11.41-0.484,17.118
				c-0.082,3.38,0.107,6.776-0.176,10.138c-0.188,2.19,0.221,4.389-0.336,6.589c-0.244,0.974,0.287,2.138,0.498,3.211
				c0.119,0.611,0.377,1.206,0.436,1.82c0.145,1.546,0.574,3.154-1.127,4.424C499.883,135.654,500.053,135.716,500.223,135.777z
				 M500.344,144.394c-0.916,1.143-0.951,1.892,0,2.86C500.344,146.214,500.344,145.328,500.344,144.394z M499.447,187.771
				c-0.131-0.013-0.262-0.026-0.391-0.041c-0.035,0.354-0.07,0.706-0.105,1.061c0.123,0.013,0.246,0.026,0.367,0.038
				C499.361,188.475,499.404,188.124,499.447,187.771z M500.234,148.913c0.02-0.155,0.068-0.301,0.041-0.432
				c-0.014-0.055-0.184-0.075-0.283-0.111c-0.041,0.138-0.098,0.277-0.105,0.419C499.885,148.819,500.068,148.855,500.234,148.913z"
				/>
			<path fill-rule="evenodd" clip-rule="evenodd" fill="#BD62FF" d="M500.344,144.394c0,0.935,0,1.82,0,2.86
				C499.393,146.285,499.428,145.536,500.344,144.394z"/>
			<path fill-rule="evenodd" clip-rule="evenodd" fill="#BD62FF" d="M499.447,187.771c-0.043,0.354-0.086,0.704-0.129,1.058
				c-0.121-0.012-0.244-0.025-0.367-0.038c0.035-0.354,0.07-0.707,0.105-1.061C499.186,187.744,499.316,187.758,499.447,187.771z"/>
			<path fill-rule="evenodd" clip-rule="evenodd" fill="#BD62FF" d="M500.234,148.913c-0.166-0.058-0.35-0.094-0.348-0.124
				c0.008-0.142,0.064-0.281,0.105-0.419c0.1,0.036,0.27,0.057,0.283,0.111C500.303,148.612,500.254,148.758,500.234,148.913z"/>
		</g>
	</g>
</g>
</svg>
