<?xml version="1.0" encoding="utf-8"?>
<!-- Generator: Adobe Illustrator 16.0.0, SVG Export Plug-In . SVG Version: 6.00 Build 0)  -->
<!DOCTYPE svg PUBLIC "-//W3C//DTD SVG 1.1//EN" "http://www.w3.org/Graphics/SVG/1.1/DTD/svg11.dtd">
<svg version="1.1" id="Layer_1" xmlns="http://www.w3.org/2000/svg" xmlns:xlink="http://www.w3.org/1999/xlink" x="0px" y="0px"
	 width="11.377px" height="14.371px" viewBox="0 0 11.377 14.371" enable-background="new 0 0 11.377 14.371" xml:space="preserve">
<g id="eXOi7o_1_">
	<g>
		<g>
			<path fill="#A4FF62" stroke="#A4FF62" stroke-miterlimit="10" d="M3.563,0.915c-0.071,0-0.147-0.015-0.214,0.003
				c-0.39,0.101-0.731,0.3-1.038,0.556c-0.127,0.105-0.241,0.225-0.36,0.34C1.92,1.845,1.895,1.881,1.867,1.915
				c-0.088,0.109-0.179,0.217-0.263,0.33c-0.1,0.135-0.225,0.263-0.282,0.416C1.226,2.917,1.2,3.199,1.099,3.453
				c-0.121,0.306-0.243,0.601-0.204,0.94c0.011,0.095-0.028,0.195-0.052,0.292C0.803,4.854,0.727,5.021,0.826,5.196
				c0.017,0.029,0.02,0.077,0.012,0.112C0.789,5.516,0.794,5.714,0.835,5.928c0.066,0.343,0.078,0.697,0.112,1.046
				c0.009,0.098,0,0.197,0.022,0.291c0.061,0.265,0.132,0.527,0.199,0.791c0.049,0.192,0.064,0.402,0.154,0.572
				c0.191,0.36,0.254,0.785,0.545,1.096c0.027,0.029,0.03,0.082,0.05,0.121c0.058,0.119,0.115,0.24,0.178,0.357
				c0.028,0.053,0.073,0.096,0.1,0.148c0.075,0.146,0.139,0.3,0.218,0.445c0.183,0.334,0.367,0.668,0.561,0.995
				c0.084,0.144,0.182,0.284,0.298,0.401c0.099,0.1,0.204,0.176,0.203,0.336c-0.001,0.089,0.027,0.181,0.056,0.267
				c0.024,0.07,0.055,0.149,0.106,0.198c0.196,0.186,0.407,0.355,0.603,0.541c0.285,0.27,0.824,0.174,1.001-0.178
				c0.03-0.058,0.096-0.1,0.151-0.143c0.21-0.158,0.441-0.295,0.631-0.477c0.19-0.181,0.322-0.424,0.515-0.604
				c0.284-0.262,0.546-0.542,0.756-0.863c0.178-0.271,0.463-0.48,0.49-0.84c0-0.014,0.02-0.025,0.03-0.038
				c0.132-0.165,0.271-0.314,0.377-0.511c0.206-0.384,0.46-0.743,0.66-1.134C8.986,8.487,9.148,8.24,9.297,7.986
				c0.011-0.019,0.012-0.042,0.021-0.062c0.072-0.153,0.144-0.307,0.219-0.457c0.13-0.266,0.275-0.523,0.389-0.797
				c0.064-0.158,0.043-0.357,0.121-0.507c0.172-0.325,0.287-0.661,0.34-1.022c0.006-0.043,0.016-0.088,0.032-0.129
				c0.176-0.424,0.183-0.871,0.182-1.318c0-0.239-0.066-0.485-0.025-0.714c0.053-0.289-0.083-0.529-0.118-0.792
				c-0.017-0.121-0.081-0.238-0.133-0.353c-0.092-0.198-0.188-0.394-0.288-0.587C10,1.181,9.963,1.094,9.901,1.06
				C9.729,0.961,9.535,0.9,9.365,0.8c-0.367-0.22-0.71-0.098-1.037,0.072C8.096,0.993,7.887,1.161,7.673,1.316
				c-0.077,0.056-0.144,0.13-0.198,0.208C7.43,1.586,7.428,1.683,7.376,1.733C7.146,1.96,6.917,2.185,6.754,2.468
				C6.637,2.673,6.457,2.855,6.392,3.074C6.333,3.271,6.254,3.432,6.104,3.554C6.035,3.61,5.9,3.675,5.852,3.646
				C5.748,3.58,5.588,3.54,5.599,3.355C5.613,3.11,5.508,2.909,5.353,2.724C5.255,2.606,5.15,2.481,5.097,2.341
				C4.959,1.979,4.781,1.646,4.491,1.385C4.406,1.31,4.303,1.255,4.206,1.192C4.165,1.167,4.107,1.155,4.08,1.12
				C3.945,0.95,3.772,0.894,3.563,0.915z"/>
			<path fill-rule="evenodd" clip-rule="evenodd" fill="#A4FF62" stroke="#A4FF62" stroke-miterlimit="10" d="M3.563,0.915
				C3.772,0.894,3.945,0.95,4.08,1.12c0.028,0.035,0.085,0.047,0.126,0.072c0.097,0.062,0.2,0.117,0.285,0.192
				c0.291,0.261,0.468,0.594,0.606,0.956C5.15,2.481,5.255,2.606,5.353,2.724c0.155,0.186,0.26,0.387,0.246,0.632
				C5.588,3.54,5.748,3.58,5.852,3.646C5.9,3.675,6.035,3.61,6.104,3.554c0.15-0.122,0.229-0.283,0.288-0.479
				c0.065-0.219,0.245-0.401,0.362-0.606C6.917,2.185,7.146,1.96,7.376,1.733C7.428,1.683,7.43,1.586,7.475,1.524
				c0.055-0.078,0.121-0.152,0.198-0.208c0.214-0.155,0.423-0.323,0.655-0.444C8.655,0.702,8.998,0.58,9.365,0.8
				C9.535,0.9,9.729,0.961,9.901,1.06C9.963,1.094,10,1.181,10.036,1.249c0.1,0.193,0.196,0.389,0.288,0.587
				c0.052,0.114,0.116,0.231,0.133,0.353c0.035,0.263,0.171,0.503,0.118,0.792c-0.041,0.229,0.025,0.475,0.025,0.714
				c0.001,0.447-0.006,0.895-0.182,1.318c-0.017,0.041-0.026,0.086-0.032,0.129c-0.053,0.361-0.168,0.697-0.34,1.022
				C9.969,6.313,9.99,6.513,9.926,6.671C9.812,6.944,9.667,7.202,9.537,7.468c-0.075,0.15-0.146,0.304-0.219,0.457
				c-0.01,0.02-0.011,0.043-0.021,0.062C9.148,8.24,8.986,8.487,8.853,8.748c-0.2,0.391-0.454,0.75-0.66,1.134
				c-0.105,0.196-0.245,0.346-0.377,0.511c-0.011,0.013-0.03,0.024-0.03,0.038C7.758,10.79,7.473,11,7.295,11.271
				c-0.21,0.321-0.472,0.602-0.756,0.863c-0.192,0.18-0.324,0.423-0.515,0.604c-0.189,0.182-0.42,0.318-0.631,0.477
				c-0.056,0.043-0.122,0.085-0.151,0.143c-0.178,0.352-0.717,0.447-1.001,0.178c-0.196-0.186-0.407-0.355-0.603-0.541
				c-0.052-0.049-0.082-0.128-0.106-0.198c-0.029-0.086-0.057-0.178-0.056-0.267c0.001-0.16-0.104-0.236-0.203-0.336
				c-0.116-0.117-0.213-0.258-0.298-0.401c-0.194-0.327-0.378-0.661-0.561-0.995c-0.079-0.146-0.143-0.299-0.218-0.445
				c-0.027-0.053-0.072-0.096-0.1-0.148c-0.063-0.117-0.121-0.238-0.178-0.357c-0.02-0.039-0.022-0.092-0.05-0.121
				C1.576,9.413,1.514,8.988,1.322,8.628c-0.09-0.17-0.105-0.38-0.154-0.572C1.101,7.792,1.029,7.529,0.969,7.265
				C0.947,7.171,0.956,7.071,0.947,6.974C0.913,6.625,0.901,6.271,0.835,5.928C0.794,5.714,0.789,5.516,0.837,5.309
				c0.008-0.035,0.005-0.083-0.012-0.112C0.727,5.021,0.803,4.854,0.844,4.686c0.023-0.097,0.062-0.197,0.052-0.292
				c-0.039-0.34,0.083-0.635,0.204-0.94C1.2,3.199,1.226,2.917,1.322,2.661C1.379,2.508,1.504,2.38,1.604,2.245
				c0.083-0.113,0.174-0.221,0.263-0.33c0.028-0.034,0.053-0.07,0.085-0.102c0.119-0.115,0.233-0.234,0.36-0.34
				C2.619,1.218,2.959,1.019,3.35,0.918C3.417,0.9,3.492,0.915,3.563,0.915z"/>
		</g>
	</g>
</g>
</svg>
