<?xml version="1.0" encoding="utf-8"?>
<!-- Generator: Adobe Illustrator 16.0.0, SVG Export Plug-In . SVG Version: 6.00 Build 0)  -->
<!DOCTYPE svg PUBLIC "-//W3C//DTD SVG 1.1//EN" "http://www.w3.org/Graphics/SVG/1.1/DTD/svg11.dtd">
<svg version="1.1" id="Layer_1" xmlns="http://www.w3.org/2000/svg" xmlns:xlink="http://www.w3.org/1999/xlink" x="0px" y="0px"
	 width="11.616px" height="15.149px" viewBox="0 0 11.616 15.149" enable-background="new 0 0 11.616 15.149" xml:space="preserve">
<g id="_x38_Kg2O2_1_">
	<g>
		<g>
			<path fill-rule="evenodd" clip-rule="evenodd" fill="#A4FF62" stroke="#A4FF62" stroke-miterlimit="10" d="M10.745,4.508
				c-0.014,0.305-0.016,0.608-0.046,0.91c-0.022,0.213-0.089,0.42-0.124,0.633c-0.017,0.098,0.002,0.202-0.008,0.303
				c-0.01,0.1-0.029,0.199-0.057,0.295c-0.068,0.235-0.143,0.47-0.219,0.703c-0.057,0.176-0.125,0.348-0.178,0.524
				c-0.035,0.118-0.043,0.243-0.078,0.36c-0.045,0.15-0.073,0.32-0.166,0.438C9.735,8.846,9.687,9.039,9.636,9.239
				C9.618,9.304,9.603,9.37,9.573,9.43C9.478,9.617,9.378,9.803,9.278,9.99c-0.014,0.027-0.027,0.055-0.043,0.08
				c-0.094,0.132-0.197,0.258-0.279,0.396C8.81,10.711,8.677,10.96,8.542,11.21c-0.043,0.081-0.062,0.177-0.111,0.253
				c-0.162,0.248-0.327,0.497-0.504,0.736c-0.186,0.25-0.441,0.465-0.562,0.741c-0.115,0.263-0.385,0.374-0.482,0.633
				c-0.023,0.064-0.098,0.136-0.162,0.153c-0.139,0.04-0.183,0.149-0.221,0.256c-0.092,0.254-0.261,0.402-0.529,0.439
				c-0.185,0.025-0.369,0.119-0.557,0.008c-0.201-0.119-0.453-0.148-0.601-0.357c-0.02-0.028-0.053-0.061-0.085-0.066
				c-0.275-0.048-0.269-0.239-0.276-0.46c-0.005-0.134-0.089-0.277-0.171-0.392c-0.137-0.189-0.267-0.381-0.386-0.582
				c-0.116-0.197-0.291-0.357-0.43-0.541c-0.054-0.072-0.075-0.171-0.126-0.246c-0.087-0.127-0.204-0.236-0.276-0.37
				c-0.103-0.19-0.237-0.351-0.391-0.498c-0.015-0.015-0.031-0.03-0.038-0.05c-0.161-0.406-0.318-0.816-0.48-1.224
				C2.124,9.574,2.077,9.512,2.046,9.441C1.991,9.315,1.937,9.188,1.89,9.059C1.781,8.76,1.689,8.454,1.569,8.16
				C1.423,7.805,1.3,7.447,1.253,7.061C1.23,6.867,1.133,6.682,1.081,6.49C1.048,6.371,1.042,6.248,1.019,6.126
				C0.958,5.803,0.881,5.48,0.835,5.154C0.811,4.984,0.831,4.807,0.84,4.634c0.013-0.247,0.018-0.497,0.054-0.741
				c0.049-0.328,0.101-0.66,0.196-0.979c0.096-0.319,0.266-0.615,0.369-0.933c0.105-0.321,0.297-0.589,0.529-0.81
				c0.265-0.251,0.59-0.398,0.989-0.318c0.343,0.07,0.651,0.211,0.951,0.381c0.057,0.031,0.101,0.087,0.146,0.135
				c0.056,0.06,0.109,0.124,0.164,0.186C4.346,1.676,4.461,1.793,4.56,1.92c0.128,0.164,0.246,0.334,0.362,0.506
				C5.023,2.575,5.11,2.734,5.215,2.881C5.338,3.052,5.46,3.226,5.607,3.373C5.737,3.505,5.829,3.48,5.944,3.34
				c0.168-0.204,0.339-0.404,0.507-0.607c0.183-0.224,0.44-0.344,0.667-0.508c0.387-0.28,0.84-0.295,1.266-0.409
				c0.131-0.036,0.297,0.079,0.448,0.081c0.544,0.006,0.85,0.4,1.206,0.713c0.207,0.181,0.338,0.411,0.404,0.681
				c0.021,0.083,0.088,0.153,0.109,0.236c0.066,0.262,0.123,0.524,0.182,0.788c0.014,0.064,0.023,0.131,0.035,0.195
				C10.761,4.51,10.753,4.51,10.745,4.508z"/>
		</g>
	</g>
</g>
</svg>
