<?xml version="1.0" encoding="utf-8"?>
<!-- Generator: Adobe Illustrator 16.0.0, SVG Export Plug-In . SVG Version: 6.00 Build 0)  -->
<!DOCTYPE svg PUBLIC "-//W3C//DTD SVG 1.1//EN" "http://www.w3.org/Graphics/SVG/1.1/DTD/svg11.dtd">
<svg version="1.1" id="Layer_1" xmlns="http://www.w3.org/2000/svg" xmlns:xlink="http://www.w3.org/1999/xlink" x="0px" y="0px"
	 width="11.317px" height="13.473px" viewBox="0 0 11.317 13.473" enable-background="new 0 0 11.317 13.473" xml:space="preserve">
<g id="l6SoyA_1_">
	<g>
		<g>
			<path fill="#A4FF62" stroke="#A4FF62" stroke-miterlimit="10" d="M3.53,0.924C3.354,0.953,3.163,0.947,3.007,1.017
				C2.675,1.167,2.35,1.341,2.126,1.648c-0.038,0.053-0.067,0.119-0.118,0.15c-0.23,0.14-0.263,0.404-0.385,0.608
				C1.49,2.63,1.419,2.891,1.322,3.135C1.316,3.15,1.312,3.164,1.308,3.177c-0.07,0.275-0.14,0.551-0.21,0.826
				c-0.065,0.256-0.141,0.51-0.192,0.768C0.869,4.953,0.854,5.14,0.85,5.325C0.841,5.658,0.814,5.992,0.853,6.321
				c0.039,0.323,0.124,0.648,0.234,0.956c0.143,0.396,0.327,0.777,0.504,1.16c0.067,0.145,0.162,0.275,0.249,0.41
				c0.11,0.168,0.218,0.339,0.341,0.497c0.184,0.237,0.381,0.463,0.572,0.694c0.036,0.044,0.081,0.09,0.096,0.143
				c0.032,0.117,0.11,0.175,0.208,0.234c0.112,0.068,0.237,0.148,0.3,0.256c0.099,0.17,0.233,0.287,0.382,0.402
				c0.128,0.102,0.23,0.238,0.366,0.323c0.283,0.176,0.58,0.33,0.875,0.488c0.13,0.069,0.182,0.175,0.177,0.314
				c-0.013,0.331-0.015,0.331,0.312,0.417c0.034,0.01,0.067,0.02,0.101,0.025c0.187,0.028,0.477-0.121,0.573-0.28
				c0.031-0.05,0.09-0.101,0.145-0.115c0.107-0.03,0.16-0.091,0.207-0.189c0.049-0.102,0.135-0.185,0.204-0.276
				c0.023-0.03,0.059-0.054,0.073-0.086c0.107-0.266,0.271-0.49,0.475-0.688c0.083-0.081,0.143-0.188,0.211-0.282
				c0.032-0.043,0.062-0.087,0.096-0.129c0.233-0.284,0.49-0.553,0.697-0.856c0.295-0.437,0.557-0.897,0.826-1.353
				c0.122-0.205,0.229-0.421,0.34-0.633c0.023-0.047,0.038-0.1,0.061-0.148c0.137-0.292,0.299-0.574,0.404-0.877
				c0.066-0.19,0.2-0.334,0.268-0.526c0.066-0.185-0.047-0.41,0.141-0.554c0.012-0.281,0.223-0.527,0.154-0.824
				c-0.006-0.026,0.032-0.061,0.043-0.092C10.53,4.6,10.625,4.458,10.6,4.339c-0.047-0.237,0.119-0.475-0.02-0.702
				c-0.004-0.006,0.001-0.021,0.006-0.028c0.076-0.119,0.023-0.256-0.033-0.331c-0.205-0.274-0.199-0.636-0.41-0.905
				C10.009,2.205,9.928,1.994,9.79,1.832S9.481,1.527,9.305,1.406C9.09,1.257,8.879,1.097,8.598,1.073
				c-0.209-0.019-0.41-0.052-0.611,0.044C7.745,1.234,7.502,1.328,7.301,1.531C7.045,1.788,6.737,1.99,6.682,2.386
				C6.679,2.414,6.655,2.438,6.641,2.464c-0.078,0.146-0.164,0.289-0.23,0.439C6.317,3.117,6.245,3.337,6.149,3.548
				C6.124,3.606,6.046,3.683,6.001,3.677C5.942,3.67,5.883,3.597,5.839,3.541C5.79,3.478,5.756,3.403,5.717,3.332
				C5.693,3.289,5.656,3.244,5.654,3.2C5.646,2.998,5.571,2.829,5.431,2.685c-0.02-0.021-0.038-0.047-0.048-0.074
				C5.305,2.41,5.226,2.211,5.057,2.06C5.006,2.016,4.988,1.933,4.954,1.869C4.931,1.827,4.913,1.777,4.879,1.746
				c-0.1-0.094-0.233-0.164-0.303-0.275C4.503,1.355,4.421,1.273,4.305,1.215C4.059,1.091,3.847,0.873,3.53,0.924z"/>
			<path fill-rule="evenodd" clip-rule="evenodd" fill="#A4FF62" stroke="#A4FF62" stroke-miterlimit="10" d="M3.53,0.924
				c0.317-0.052,0.529,0.167,0.775,0.291c0.116,0.058,0.199,0.14,0.271,0.255c0.069,0.111,0.203,0.182,0.303,0.275
				c0.034,0.031,0.052,0.081,0.075,0.123C4.988,1.933,5.006,2.016,5.057,2.06c0.169,0.151,0.248,0.35,0.326,0.551
				c0.01,0.027,0.028,0.054,0.048,0.074C5.571,2.829,5.646,2.998,5.654,3.2c0.002,0.044,0.039,0.089,0.063,0.132
				C5.756,3.403,5.79,3.478,5.839,3.541c0.044,0.057,0.103,0.13,0.162,0.137c0.045,0.006,0.123-0.071,0.148-0.129
				c0.096-0.211,0.168-0.432,0.262-0.645c0.066-0.15,0.152-0.293,0.23-0.439c0.014-0.026,0.038-0.051,0.041-0.078
				C6.737,1.99,7.045,1.788,7.301,1.531c0.201-0.203,0.443-0.297,0.686-0.414c0.201-0.096,0.402-0.062,0.611-0.044
				C8.879,1.097,9.09,1.257,9.305,1.406C9.481,1.527,9.651,1.669,9.79,1.832s0.22,0.373,0.354,0.541
				c0.211,0.27,0.205,0.631,0.41,0.905c0.057,0.075,0.109,0.212,0.033,0.331c-0.005,0.008-0.01,0.022-0.006,0.028
				c0.139,0.228-0.027,0.465,0.02,0.702c0.025,0.119-0.07,0.261-0.113,0.393c-0.011,0.031-0.049,0.065-0.043,0.092
				c0.068,0.297-0.143,0.543-0.154,0.824c-0.188,0.144-0.074,0.369-0.141,0.554c-0.067,0.192-0.201,0.336-0.268,0.526
				C9.776,7.031,9.614,7.313,9.477,7.605C9.455,7.654,9.44,7.707,9.417,7.753c-0.111,0.212-0.218,0.428-0.34,0.633
				C8.807,8.841,8.545,9.302,8.25,9.739c-0.207,0.304-0.464,0.572-0.697,0.856c-0.033,0.042-0.063,0.086-0.096,0.129
				c-0.068,0.095-0.128,0.201-0.211,0.282c-0.204,0.198-0.367,0.423-0.475,0.688c-0.015,0.032-0.05,0.056-0.073,0.086
				c-0.069,0.092-0.155,0.175-0.204,0.276c-0.047,0.099-0.1,0.159-0.207,0.189c-0.055,0.015-0.113,0.065-0.145,0.115
				c-0.097,0.159-0.386,0.309-0.573,0.28c-0.034-0.006-0.067-0.016-0.101-0.025c-0.326-0.086-0.324-0.086-0.312-0.417
				c0.005-0.14-0.047-0.245-0.177-0.314c-0.294-0.158-0.591-0.312-0.875-0.488c-0.136-0.085-0.238-0.222-0.366-0.323
				c-0.148-0.115-0.283-0.232-0.382-0.402c-0.063-0.107-0.188-0.188-0.3-0.256c-0.098-0.06-0.176-0.117-0.208-0.234
				c-0.015-0.053-0.06-0.099-0.096-0.143C2.562,9.807,2.364,9.582,2.181,9.344C2.058,9.186,1.95,9.015,1.84,8.847
				c-0.087-0.135-0.182-0.266-0.249-0.41C1.414,8.054,1.23,7.673,1.087,7.277C0.977,6.969,0.892,6.644,0.853,6.321
				C0.814,5.992,0.841,5.658,0.85,5.325c0.005-0.185,0.02-0.372,0.056-0.554c0.052-0.258,0.127-0.512,0.192-0.768
				c0.07-0.275,0.14-0.551,0.21-0.826C1.312,3.164,1.316,3.15,1.322,3.135C1.419,2.891,1.49,2.63,1.623,2.407
				c0.122-0.204,0.154-0.469,0.385-0.608c0.051-0.031,0.081-0.098,0.118-0.15c0.224-0.307,0.549-0.48,0.881-0.631
				C3.163,0.947,3.354,0.953,3.53,0.924z"/>
		</g>
	</g>
</g>
</svg>
