<?xml version="1.0" encoding="utf-8"?>
<!-- Generator: Adobe Illustrator 16.0.0, SVG Export Plug-In . SVG Version: 6.00 Build 0)  -->
<!DOCTYPE svg PUBLIC "-//W3C//DTD SVG 1.1//EN" "http://www.w3.org/Graphics/SVG/1.1/DTD/svg11.dtd">
<svg version="1.1" id="Layer_1" xmlns="http://www.w3.org/2000/svg" xmlns:xlink="http://www.w3.org/1999/xlink" x="0px" y="0px"
	 width="150px" height="auto" viewBox="0 0 115.5 187" enable-background="new 0 0 115.5 187" xml:space="preserve">
<path d="M48.869,5.136c2.716-0.843,5.476-1.608,8.304-1.973c4.509-0.382,9.079,0.07,13.483,1.085
	c4.88,1.092,8.954,4.438,11.875,8.396c1.121,1.429,1.922,3.078,2.514,4.791c1.31,3.817,2.89,7.535,4.481,11.244
	c0.983,2.45,1.928,4.964,2.209,7.609c0.458,2.88,0.532,5.813,1.198,8.66c0.327,1.175,0.24,2.386,0.097,3.583
	c0.066,2.575,0.041,5.313-1.16,7.661c-1.56,2.472-4.583,3.228-6.979,4.618c1.499,1.204,3.67,0.899,5.134,2.212
	c1.354,0.045,2.6,0.625,3.517,1.627c1.053,0.225,2.148,0.545,2.917,1.357c1.169,1.237,1.807,2.851,2.684,4.289
	c-0.489,1.774,0.442,3.427,0.938,5.079c2.485,7.525,5.611,14.84,7.661,22.504c0.599,3.404,1.188,6.812,1.925,10.19
	c1.556,7.593,3.279,15.276,2.917,23.077c-0.058,1.278-0.179,2.684-1.111,3.66c-1.557,1.64-3.865,2.12-5.762,3.231
	c-1.915,1.107-3.839,2.197-5.832,3.161c0.871,1.992,1.624,4.339,0.743,6.459c-0.455,0.938-0.134,1.979-0.029,2.966
	c0.42,3.241,1.141,6.53,0.599,9.803c-0.275,1.711-1.066,3.295-2.12,4.663c0.884,3.231,1.061,6.584,1.387,9.905
	c0.093,1.78,0.986,3.525,0.384,5.313c0.196,0.115,0.589,0.349,0.785,0.464c-0.035,0.237-0.106,0.708-0.141,0.945
	c-0.945,0.396-1.887,0.896-2.937,0.864c-4.503,0.183-8.961,0.964-13.47,1.051c-2.351-0.048-4.644,0.611-6.991,0.621
	c-1.429,0.121-2.815-0.285-4.218-0.433c-1.841,0.051-3.561,0.935-5.416,0.842c-1.54,0.022-2.972-0.641-4.496-0.682
	c-1.928-0.083-3.897-0.438-5.79,0.09c-0.631,0.208-1.338,0.874-1.749,0.003c-2.408,0.038-4.807,0.263-7.212,0.077
	c-2.133,0.112-4.176-0.833-6.306-0.611c-1.451,0.262-2.815-0.494-4.256-0.429c-1.666,0.047-3.324-0.286-4.979-0.056
	c-2.857,0.378-5.746,0.212-8.605,0.016c-1.489-0.104-3.206-0.797-3.548-2.411c-0.583-2.487-1.438-5.015-1.077-7.6
	c0.26-2.241-0.698-4.361-0.845-6.571c-1.323-1.233-2.578-2.997-2.12-4.896c0.448-1.473-0.116-2.985-0.199-4.471
	c-0.371-2.485-0.361-5.051-1.155-7.455c-0.164-0.619-0.189-1.253-0.208-1.874c0.375-1.866-0.234-3.785-0.362-5.655
	c-3.414-3.154-7.689-5.329-10.732-8.91c-1.636-1.895-2.395-4.429-2.37-6.907c-0.096-2.287,0.836-4.448,0.9-6.719
	c0.045-2.722,0.897-5.333,1.147-8.028c0.198-2.412,1.002-4.711,1.614-7.036c0.502-2.345,0.951-4.708,1.505-7.036
	c1.387-2.495,2.107-5.274,2.856-8.013c0.673-2.148,0.177-4.602,1.403-6.575c0.256-2.93,0.913-5.812,1.653-8.65
	c0.727-2.318,1.312-4.693,2.395-6.878c0.605-2.251,2.428-3.913,4.445-4.941c-0.071-0.234-0.211-0.701-0.285-0.933
	c4.419-2.862,9.912-2.687,14.895-3.785c-0.66-3.458-0.378-6.981-0.202-10.469c0.045-2.104,0.186-4.272-0.474-6.306
	c-0.65-2.009-0.66-4.138-0.973-6.207c-0.375-2.657-0.077-5.348-0.282-8.016c-0.192-2.036,0.868-3.853,1.233-5.8
	c0.653-4.166,3.613-7.449,6.431-10.389C42.964,8.149,45.705,6.134,48.869,5.136 M48.715,7.405c-1.348,0.59-2.898,0.983-3.804,2.232
	c-2.959,3.309-6.979,6.06-8.26,10.527c-0.31,1.912-0.977,3.75-1.319,5.651c0.566,2.992-0.474,6.075,0.349,9.057
	c0.452,1.253,0.105,2.613,0.573,3.863c0.301,0.973,0.375,1.998,0.468,3.013c0.285,3.635,0.304,7.286,0.154,10.931
	c-0.08,1.589,0.266,3.157,0.285,4.749c1.695,0.022,3.43,0.063,5.025,0.727c-0.224,0.395-0.448,0.792-0.66,1.192
	c-5.108-0.336-10.129,0.832-15.049,2.036c0.026,0.23,0.08,0.692,0.106,0.923c-1.333,0.936-3.078,0.627-4.458,1.425
	c-1.973,1.092-3.238,3.074-4.17,5.063c-1.924,4.243-2.764,8.855-3.843,13.357c-1.243,4.576-1.319,9.519-3.567,13.786
	c-0.442,0.878-0.509,1.875-0.772,2.81c-1.14,2.517-0.916,5.402-2.037,7.933c-0.769,1.633-0.714,3.472-1.06,5.214
	c-0.724,3.958-1.063,7.971-1.8,11.926c-0.324,2.162-0.599,4.582,0.615,6.536c1.175,1.79,3.007,2.981,4.615,4.35
	c4.019,3.4,8.138,6.699,12.541,9.598c1.208,0.713,2.303,1.681,3.651,2.129c0.48-2.997,2.937-4.995,4.679-7.286
	c0.611-0.713,0.698-1.678,0.964-2.542c0.521-2.021,1.428-3.92,2.005-5.922c0.105-1.235,0.202-2.479,0.516-3.683
	c0.637-2.273,0.695-4.659,0.723-7.007c-1.168-0.407-2.439-0.525-3.535-1.111c-2.648-1.592-5.982-1.169-8.641-2.758
	c-0.871,0.403-1.828,0.388-2.757,0.311c-0.02-0.505-0.023-0.995-0.025-1.492c-1.576-0.566-3.408-0.429-4.759-1.53
	c0.983-1.566,3.032-0.919,4.56-0.874c0.304-1.807-0.307-3.837,0.657-5.477c-0.186-1.592-0.41-3.244,0.217-4.771
	c0.846-2.255,0.263-4.756,1.121-7.001c0.458-1.281,0.144-2.667,0.176-3.99c-0.265-0.269-0.524-0.513-0.746-0.798
	c0.247-0.968,0.673-1.89,0.775-2.889c0.24-1.493-0.106-2.997,0.054-4.486c0.076-0.558,0.852-0.538,1.287-0.484
	c0.483,0.376,0.631,1.006,0.896,1.541c0.554-0.084,1.112-0.173,1.681-0.247c0.113,0.196,0.343,0.59,0.455,0.785
	c-1.214,1.729-2.296,3.885-1.784,6.05c0.145,1.498-0.167,2.997-0.423,4.474c-1.169,5.928-1.716,11.965-1.915,18.002
	c2.37,0.973,4.535,2.664,7.216,2.664c2.216-0.055,3.865,1.776,6.053,1.825c0.086-1.384,0.646-2.651,1.062-3.951
	c0.48-0.109,0.961-0.403,1.474-0.261c3.273,0.795,6.667,0.385,9.989,0.76c1.601,0.108,3.147,0.663,4.762,0.679
	c5.444-0.311,10.524,2.639,15.987,2.168c0.096-0.583,0.105-1.191,0.371-1.726c0.698-0.25,1.413,0.103,2.104,0.253
	c-0.173,1.024,0.496,1.821,1.124,2.546c-0.483,0.371-0.983,0.787-0.733,1.477c3.767-0.615,7.397-2.235,11.279-1.986
	c1.979,0.056,4.083,0.823,5.985-0.01c0.135-1.754-0.323-3.468-0.64-5.171c-0.631-3.161-0.266-6.611-1.893-9.506
	c-0.759-1.258-0.919-2.744-1.371-4.112c-0.506-0.214-1.072-0.409-1.258-0.973c-0.909-1.797-2.84-2.765-3.747-4.566
	c0.622-0.209,1.281-0.606,1.96-0.327c0.743,0.262,1.387,0.739,2.072,1.14c-0.369-1.128-0.792-2.235-1.105-3.375
	c-0.311-1.01-0.093-2.076-0.237-3.104c0.625-0.391,1.765-0.948,2.312-0.349c0.938,3.903,1.572,7.882,2.469,11.797
	c0.647,2.672,1.976,5.121,2.61,7.796c0.336,1.328,0.02,2.709,0.225,4.058c0.278,2.14,0.996,4.186,1.438,6.293
	c3.366,0.073,6.915-0.433,10.133,0.785c-0.375,0.562-0.426,1.741-1.313,1.629c-3.09-0.364-6.213-0.422-9.31-0.1
	c-2.283,0.132-4.554,0.843-6.844,0.395c-3.878-0.697-7.827,0.173-11.449,1.565c0.458,0.189,0.75,0.525,0.868,1.013
	c-0.522-0.244-1.031-0.494-1.524-0.749c0.56,2.264,1.041,4.547,1.579,6.817c0.811,1.768,1.214,3.674,1.829,5.512
	c0.449,1.527,0.449,3.231,1.524,4.515c-0.4,0.363-0.327,0.514,0.218,0.453c0.574,2.692,3.125,4.137,4.349,6.475
	c2.296-0.624,3.984-2.42,6.11-3.395c1.63-0.826,3.52-0.41,5.246-0.852c6.014-1.266,10.859-5.304,16.451-7.603
	c0.222-1.826,0.484-3.654,0.449-5.496c-0.147-2.559,0.064-5.155-0.564-7.667c-0.874-3.5-1.102-7.145-2.235-10.581
	c-0.426-1.216-0.298-2.549-0.794-3.737c-0.871-2.174-0.926-4.537-1.348-6.806c-0.974-3.858-2.239-7.634-3.51-11.403
	c-0.816-2.258-1.454-4.586-2.494-6.751c-1.009-2.3-1.557-4.749-2.232-7.155c-0.343-1.431-1.387-2.706-1.019-4.252
	c-0.816-0.919-1.543-1.912-2.222-2.928c-0.545-0.108-1.086-0.215-1.611-0.32c-1.035-1.229-2.751-1.072-4.112-1.646
	c-0.877-0.522-1.521-1.438-2.581-1.614c-3.302-0.843-6.735-0.877-10.091-1.354c-1.666-0.246-3.968,0.429-4.967-1.352
	c0.493-0.82,1.556-0.701,2.379-0.739c2.789-0.1,5.518,0.957,8.308,0.575c1.754-0.458,3.234-1.574,4.784-2.472
	c1.679-1.012,3.5-2.149,4.263-4.055c1.06-2.449,0.295-5.146,0.583-7.708c0.263-1.655-0.46-3.209-0.695-4.816
	c-0.47-2.549-0.355-5.182-1.034-7.695c-1.095-4.327-3.404-8.215-4.65-12.487c-1.496-4.506-3.747-9.037-7.699-11.865
	c-4.347-3.145-9.857-3.846-15.062-4.176C57.269,4.911,52.811,5.734,48.715,7.405 M38.708,115.215
	c-1.768,5.925-1.294,12.231-2.915,18.181c-0.391,1.704-1.768,3.011-1.941,4.785c-0.269,2.289-2.296,3.66-3.667,5.293
	c-1.387,1.438-1.063,3.604-1.954,5.295c-1.233,2.535-0.746,5.389-0.948,8.099c2.065,0.996,4.272,1.809,6.584,1.928
	c4.477,0.285,8.916-1.115,13.39-0.499c3.094,0.425,6.255,0.146,9.329,0.761c2.226,0.446,4.452,0.92,6.713,1.192
	c3.523,0.499,7.084,0.086,10.591-0.372c0.756-0.304,1.313-1.044,2.171-1.14c2.28-0.404,4.605,0.16,6.892-0.218
	c-0.131-2.863-1.133-5.599-1.262-8.458c0.028-1.493-1.144-2.553-1.886-3.715c-2.284-3.171-4.75-6.341-5.886-10.139
	c-0.503-1.445-0.57-2.988-0.977-4.452c-1.451-4.219-2.235-8.617-3.462-12.899c-2.274-0.24-4.563-0.358-6.792-0.872
	c-3.106-0.556-6.133-1.786-9.332-1.581c-1.938,0.067-3.789-0.608-5.707-0.727C44.667,115.465,41.676,115.532,38.708,115.215
	 M91.465,143.742c-1.255,0.045-2.6,0.189-3.552,1.093c-1.207,1.111-2.866,1.519-4.089,2.601c0.118,0.33,0.256,0.659,0.413,0.99
	c-0.067,1.162-0.045,2.344,0.23,3.486c0.516,2.229,0.778,4.513,0.824,6.8c-0.048,0.755-0.295,1.8-1.186,1.921
	c-1.729,0.246-3.427-0.333-5.143-0.349c-0.785,0.256-1.3,1.14-2.226,1.034c-4.054,0.032-8.074,1.013-12.134,0.592
	c-4.436-0.246-8.686-1.848-13.144-1.796c-2.795,0.038-5.556-0.676-8.346-0.392c-4.262,0.309-8.644,1.263-12.842-0.016
	c-1.784-0.582-3.875-0.436-5.402-1.649c-0.971-0.918,0.205-2.171,0.224-3.225c-0.086-1.815-0.49-3.692,0.259-5.428
	c-2.101-2.201-4.81-3.645-7.119-5.589c-0.025,2.172-0.275,4.33-0.471,6.481c0.628,4.411,0.791,8.91,1.932,13.23
	c0.188,1.252,1.514,1.54,2.449,2.091c0.625,0.391,1.396,0.153,2.102,0.26c1.54,0.035,2.956,1.044,4.521,0.691
	c2.011-0.396,4.042-0.045,6.056,0.147c4.202,0.489,8.169,2.431,12.455,2.338c2.232-0.298,4.451-0.829,6.722-0.787
	c2.284-0.112,4.49,0.787,6.776,0.562c2.018-0.298,4.042,0.122,6.069,0.016c2.783-0.082,5.568,0.494,8.339,0.055
	c1.976-0.037,4.016-0.01,5.899-0.707c1.492-0.577,3.122-0.221,4.663-0.566c1.899-0.347,3.904-0.254,5.726-0.946
	c1.445-0.943,3.199-1.146,4.708-1.956c0.471-0.926,1.418-1.422,2.069-2.193c0.566-0.971,0.471-2.152,0.464-3.228
	c-0.077-1.608,0.144-3.219-0.051-4.817c-0.413-4.009-0.887-8.013-1.032-12.042C95.533,142.705,93.592,143.686,91.465,143.742
	 M91.824,167.281c0.663,4.275,0.996,8.596,1.367,12.903c-0.08,0.131-0.247,0.394-0.327,0.524c-0.675-4.335-0.66-8.762-1.531-13.075
	c-1.037,0.099-2.062,0.253-3.09,0.378c0.362,4.156,0.535,8.333,1.025,12.48c0.006,0.974,1.194,0.915,1.889,0.954
	c2.421-0.087,4.871-0.224,7.222-0.868c0.327-2.626-0.426-5.204-0.599-7.808c-0.108-2.057-0.544-4.073-0.967-6.078
	c-0.102-0.365-0.339-1.364-0.842-0.679c0.391,4.673,1.368,9.284,1.896,13.946c-0.377-0.149-0.583-0.41-0.615-0.781
	c-0.506-2.985-0.909-5.985-1.345-8.979c-0.225-1.454-0.292-2.947-0.849-4.316C93.964,166.292,92.708,166.468,91.824,167.281
	 M22.74,166.843c-0.615,0.486-0.58,1.381-0.42,2.082c1.076,3.993,0.048,8.39,1.915,12.201c0.5,0.272,1.399,0.714,1.742,0
	c-0.07-4.864-1.223-9.64-1.463-14.491C23.921,166.673,23.262,166.525,22.74,166.843 M25.017,166.609
	c0.233,5.006,1.432,9.927,1.47,14.949c1.114-0.07,2.235-0.077,3.356-0.07c-0.577-4.68-1.08-9.367-1.579-14.054
	C27.156,167.256,26.083,166.936,25.017,166.609 M28.789,167.166c0.602,4.791,0.932,9.623,1.704,14.389
	c1,0.221,2.049,0.049,3.055-0.118c-0.611-4.771-0.103-9.665-1.348-14.354C31.06,166.993,29.917,167.051,28.789,167.166
	 M32.767,167.207c1.191,4.647,0.535,9.487,1.367,14.178c1.121,0.045,2.239,0.129,3.366,0.196c-0.263-2.63-0.308-5.274-0.525-7.907
	c-0.09-2.005-0.417-4.02-0.125-6.014C35.495,167.457,34.134,167.246,32.767,167.207 M37.128,167.762
	c0.122,3.276,0.403,6.546,0.58,9.821c0.1,1.083-0.202,2.374,0.737,3.188c-0.02,0.183-0.055,0.541-0.07,0.724
	c1.104,0.061,2.209,0.166,3.317,0.301c-0.058-3.795-0.24-7.586-0.163-11.381l0.477-0.025c-0.074,3.794,0.109,7.582,0.17,11.378
	c1.441,0.166,2.87,0.441,4.32,0.615c0.029-4.167-1.662-8.212-1.088-12.391c0.316,0.308,0.38,0.736,0.368,1.165
	c-0.103,3.814,1.223,7.487,1.229,11.298c0.493,0.062,0.996,0.129,1.505,0.196c-0.269-4.323-0.775-8.624-1.268-12.922
	C43.773,169.709,40.456,168.604,37.128,167.762 M84.507,168.454c0.922,3.481,1.111,7.096,1.329,10.68
	c0.028,0.926,0.433,1.78,0.641,2.681c0.749-0.006,1.502-0.006,2.264-0.006c0.045-0.772,0.058-1.541-0.02-2.3
	c-0.394-3.812-0.618-7.636-0.896-11.452C86.71,168.14,85.602,168.258,84.507,168.454 M80.775,169.123
	c0.247,1.387,0.359,2.793,0.391,4.205c-0.317-0.202-0.483-0.475-0.503-0.817c-0.108-1.044-0.16-2.091-0.317-3.125
	c-1.15,0.067-2.293,0.202-3.427,0.352c0.177,0.651,0.375,1.313,0.32,2.009c-0.096,1.304,0.301,2.571,0.397,3.868
	c0.196,2.348,0.314,4.708,0.635,7.049c2.334-0.025,4.65-0.441,6.952-0.813c0.042-0.715-0.042-1.444,0.23-2.12
	c-0.557-3.683-0.451-7.469-1.499-11.077C82.867,168.566,81.788,168.735,80.775,169.123 M47.78,169.645
	c0.369,4.32,0.983,8.619,1.214,12.951c1.168,0.045,2.341,0.125,3.519,0.145c0.026-2.938,0.035-5.893,0.269-8.813
	c0.253,0.541,0.442,1.124,0.439,1.745c0.022,2.338-0.234,4.669-0.144,7.01c1.3,0.059,2.613-0.006,3.9-0.255
	c0.019-4.42-0.25-8.843,0.157-13.249C54.019,168.569,50.858,169.11,47.78,169.645 M61.08,169.366
	c-0.208,1.758-0.022,3.526,0.025,5.287c0.103,2.53,0.122,5.067,0.221,7.6c1.178,0.147,2.37,0.222,3.564,0.208
	c0.09-4.377-0.781-8.694-0.947-13.06C62.985,169.347,62.028,169.338,61.08,169.366 M57.644,169.315
	c-0.483,4.391-0.138,8.804-0.183,13.204c1.121-0.106,2.249-0.205,3.376-0.32c-0.067-4.212-0.302-8.416-0.339-12.628
	C59.54,169.487,58.588,169.408,57.644,169.315 M64.567,169.565c0.061,4.368,1.028,8.682,0.894,13.06
	c1.22,0.307,2.469,0.521,3.741,0.534c-1.137-4.304-0.349-8.787-1.057-13.143c0.807,0.51,0.683,1.572,0.83,2.401
	c0.243,3.498-0.167,7.072,0.765,10.501c1.364-0.278,2.726-0.599,4.119-0.742c0.051-4.151-0.788-8.243-0.997-12.381
	C70.098,169.661,67.334,169.514,64.567,169.565 M73.464,169.824c0.18,4.176,0.993,8.305,0.999,12.496
	c1.08,0.225,2.169,0.382,3.274,0.49c-0.529-3.315-0.417-6.7-1.096-9.988c-0.093-1.096,0.109-2.21-0.33-3.257
	C75.354,169.581,74.403,169.684,73.464,169.824z"/>
<path fill="#FF0000" d="M48.715,7.405c4.096-1.671,8.554-2.494,12.983-2.161c5.204,0.33,10.715,1.031,15.062,4.176
	c3.952,2.828,6.203,7.359,7.699,11.865c1.246,4.272,3.555,8.16,4.65,12.487c0.679,2.514,0.564,5.146,1.034,7.695
	c0.234,1.607,0.958,3.161,0.695,4.816c-0.288,2.562,0.478,5.259-0.583,7.708c-0.763,1.905-2.584,3.043-4.263,4.055
	c-1.55,0.897-3.03,2.014-4.784,2.472c-2.79,0.382-5.519-0.675-8.308-0.575c-0.823,0.038-1.886-0.081-2.379,0.739
	c1,1.78,3.302,1.105,4.967,1.352c3.356,0.478,6.789,0.512,10.091,1.354c1.06,0.177,1.704,1.092,2.581,1.614
	c1.361,0.573,3.078,0.416,4.112,1.646c0.525,0.105,1.066,0.212,1.611,0.32c0.678,1.016,1.405,2.009,2.222,2.928
	c-0.368,1.546,0.676,2.821,1.019,4.252c0.675,2.406,1.223,4.855,2.232,7.155c1.041,2.165,1.678,4.493,2.494,6.751
	c1.271,3.77,2.537,7.545,3.51,11.403c0.422,2.269,0.477,4.632,1.348,6.806c0.497,1.188,0.368,2.521,0.794,3.737
	c1.133,3.437,1.361,7.081,2.235,10.581c0.628,2.512,0.417,5.108,0.564,7.667c0.035,1.842-0.227,3.67-0.449,5.496
	c-5.591,2.299-10.437,6.337-16.451,7.603c-1.727,0.441-3.616,0.025-5.246,0.852c-2.126,0.975-3.814,2.771-6.11,3.395
	c-1.224-2.338-3.775-3.782-4.349-6.475c-0.054-0.112-0.164-0.34-0.218-0.453c-1.076-1.283-1.076-2.987-1.524-4.515
	c-0.615-1.838-1.018-3.744-1.829-5.512c-0.538-2.271-1.019-4.554-1.579-6.817c0.493,0.255,1.002,0.505,1.524,0.749
	c-0.119-0.487-0.41-0.823-0.868-1.013c3.622-1.393,7.571-2.263,11.449-1.565c2.29,0.448,4.561-0.263,6.844-0.395
	c3.097-0.322,6.219-0.265,9.31,0.1c0.887,0.112,0.938-1.066,1.313-1.629c-3.218-1.218-6.767-0.712-10.133-0.785
	c-0.442-2.107-1.159-4.153-1.438-6.293c-0.205-1.349,0.112-2.729-0.225-4.058c-0.634-2.675-1.963-5.124-2.61-7.796
	c-0.897-3.915-1.531-7.894-2.469-11.797c-0.547-0.6-1.688-0.042-2.312,0.349c0.144,1.027-0.074,2.094,0.237,3.104
	c0.313,1.14,0.736,2.247,1.105,3.375c-0.686-0.4-1.329-0.878-2.072-1.14c-0.679-0.279-1.338,0.118-1.96,0.327
	c0.907,1.802,2.838,2.77,3.747,4.566c0.186,0.563,0.752,0.759,1.258,0.973c0.452,1.368,0.612,2.854,1.371,4.112
	c1.627,2.895,1.262,6.345,1.893,9.506c0.317,1.703,0.775,3.417,0.64,5.171c-1.902,0.833-4.006,0.065-5.985,0.01
	c-3.881-0.249-7.512,1.371-11.279,1.986c-0.25-0.689,0.25-1.105,0.733-1.477c-0.627-0.725-1.297-1.521-1.124-2.546
	c-0.692-0.15-1.406-0.503-2.104-0.253c-0.266,0.534-0.275,1.143-0.371,1.726c-5.463,0.471-10.543-2.479-15.987-2.168
	c-1.614-0.016-3.161-0.57-4.762-0.679c-3.321-0.375-6.716,0.035-9.989-0.76c-0.513-0.143-0.993,0.151-1.474,0.261
	c-0.416,1.3-0.977,2.567-1.062,3.951c-2.188-0.049-3.837-1.88-6.053-1.825c-2.681,0-4.846-1.691-7.216-2.664
	c0.199-6.037,0.746-12.074,1.915-18.002c0.256-1.477,0.567-2.976,0.423-4.474c-0.513-2.165,0.57-4.32,1.784-6.05
	c-0.112-0.195-0.342-0.589-0.455-0.785c-0.569,0.074-1.127,0.163-1.681,0.247c-0.265-0.535-0.413-1.165-0.896-1.541
	c-0.436-0.054-1.211-0.073-1.287,0.484c-0.16,1.489,0.186,2.993-0.054,4.486c-0.103,0.999-0.529,1.921-0.775,2.889
	c0.221,0.285,0.48,0.529,0.746,0.798c-0.032,1.323,0.282,2.709-0.176,3.99c-0.858,2.245-0.275,4.746-1.121,7.001
	c-0.627,1.527-0.403,3.18-0.217,4.771c-0.964,1.64-0.353,3.67-0.657,5.477c-1.528-0.045-3.577-0.692-4.56,0.874
	c1.351,1.102,3.183,0.964,4.759,1.53c0.002,0.497,0.006,0.987,0.025,1.492c0.929,0.077,1.886,0.093,2.757-0.311
	c2.658,1.589,5.992,1.166,8.641,2.758c1.096,0.586,2.367,0.704,3.535,1.111c-0.028,2.348-0.086,4.733-0.723,7.007
	c-0.314,1.204-0.41,2.447-0.516,3.683c-0.577,2.002-1.483,3.901-2.005,5.922c-0.266,0.864-0.353,1.829-0.964,2.542
	c-1.742,2.291-4.199,4.289-4.679,7.286c-1.348-0.448-2.443-1.416-3.651-2.129c-4.403-2.898-8.522-6.197-12.541-9.598
	c-1.607-1.368-3.439-2.56-4.615-4.35c-1.214-1.954-0.938-4.374-0.615-6.536c0.736-3.955,1.076-7.968,1.8-11.926
	c0.346-1.742,0.292-3.581,1.06-5.214c1.121-2.53,0.897-5.416,2.037-7.933c0.263-0.935,0.33-1.932,0.772-2.81
	c2.248-4.268,2.325-9.21,3.567-13.786c1.079-4.502,1.918-9.114,3.843-13.357c0.932-1.989,2.197-3.972,4.17-5.063
	c1.38-0.798,3.125-0.489,4.458-1.425c-0.026-0.23-0.08-0.692-0.106-0.923c4.919-1.204,9.941-2.372,15.049-2.036
	c0.211-0.4,0.436-0.798,0.66-1.192c-1.595-0.663-3.33-0.704-5.025-0.727c-0.019-1.592-0.365-3.16-0.285-4.749
	c0.15-3.645,0.131-7.296-0.154-10.931c-0.093-1.015-0.167-2.04-0.468-3.013c-0.467-1.25-0.121-2.61-0.573-3.863
	c-0.823-2.981,0.217-6.064-0.349-9.057c0.342-1.901,1.009-3.739,1.319-5.651c1.281-4.468,5.3-7.219,8.26-10.527
	C45.817,8.389,47.367,7.995,48.715,7.405 M46.524,13.192c-3.651,2.11-6.008,5.995-6.805,10.075
	c-0.118,1.031,0.054,2.079-0.141,3.106c-0.531,3.077-0.5,6.241-0.009,9.322c0.349,2.383,0.362,4.853,1.239,7.126
	c0.42,1.044,0.468,2.178,0.644,3.283c0.474,3.198,1.332,6.324,2.268,9.415c0.355,1.144,0.41,2.354,0.647,3.529
	c0.589,3.112,1.781,6.091,3.331,8.848c0.535,0.272,1.041,0.612,1.515,0.996c-0.138,1.003-0.231,2.012-0.381,3.018
	c-0.269,1.61,0.436,3.173,0.355,4.79c-0.093,0.887,0.502,1.644,0.532,2.521c0.063,2.033,0.307,4.06,0.631,6.071
	c0.243,1.623-0.16,3.285,0.278,4.887c0.231,0.875-0.487,1.995,0.289,2.71c0.887,0.266,1.854-0.016,2.77-0.061
	c0.759-0.017,1.749-0.48,1.602-1.396c0-2.476-0.525-4.916-0.618-7.389c-0.336-2.12-0.257-4.375-1.236-6.331
	c0.403-0.157,0.81-0.312,1.229-0.455c0.608-1.37,0.256-2.921-0.64-4.066c-1.205-1.479-0.932-3.523-1.774-5.16
	c0.384-0.073,0.775-0.144,1.175-0.205c1.182-2.005,1.599-4.339,2.688-6.389c1.028-1.995,2.293-3.853,3.43-5.783
	c0.995-1.679,1.485-3.587,2.322-5.343c3.669-8.345,6.299-17.415,5.79-26.612c-0.397-2.277-0.827-4.561-0.807-6.879
	c0.179-2.716-1.614-5.508-4.237-6.322c-1.646-0.541-3.407-0.46-5.108-0.371C53.702,10.429,49.83,11.207,46.524,13.192
	 M60.677,61.954c0.163,0.878,1.671,0.878,1.492,1.911c-0.225,3.104-0.971,6.169-0.874,9.294c-0.01,2.329,0.58,4.808,2.264,6.508
	c0.397,0.487,1.069,0.858,1.114,1.557c0.685,6.098,1.076,12.269,2.658,18.223c0.682,2.605,0.643,5.338,1.118,7.977
	c0.935,0.497,2.021,0.202,2.892-0.295c-0.589-2.132-0.602-4.374-1.246-6.494c-0.362-1.214-0.436-2.481-0.625-3.725
	c-0.74-5.248-1.604-10.485-2.056-15.766c0.019-1.006-0.926-1.566-1.541-2.196c-1.083-1.025-2.437-2.201-2.315-3.841
	c0.134-4.115,0.625-8.208,0.97-12.311c0.083-0.191,0.177-0.378,0.279-0.554c-0.91-0.676,0.215-2.012-0.65-2.678
	C62.659,58.688,60.167,60.104,60.677,61.954 M42.663,59.623c0.103,0.393,0.247,0.81,0.375,1.216
	c-0.878,1.951-0.605,4.189-0.894,6.271c-0.353,1.89,0.301,3.881-0.426,5.713c-0.74,2.144-2.719,3.657-3.187,5.915
	c-0.144,1.771-0.425,3.538-0.25,5.319c0.224,2.886,0.115,5.784-0.013,8.673c-0.045,3.309,0.362,6.606,0.372,9.918
	c0.019,0.842-0.417,1.729,0,2.54c0.749,1.571,0.188,3.396,0.8,5.015c0.794,0.631,1.854,0.26,2.767,0.156
	c0.289-1.495,0.471-3.077-0.029-4.544c-0.791-1.915-0.813-4.041-0.676-6.078c0.109-2.776-0.442-5.534-0.359-8.304
	c0.395-1.815,0.039-3.667-0.285-5.46c-0.275-1.295,0.173-2.61-0.09-3.901c-0.038-0.688-0.419-1.425-0.064-2.078
	c0.666-1.201,1.87-2.034,2.389-3.328c0.561-1.354,0.199-2.859,0.493-4.259c0.17-0.827,0.688-1.576,0.631-2.438
	c-0.108-1.405,0.404-2.767,0.253-4.166c-0.198-2.054,0.032-4.135-0.451-6.155C43.559,59.629,43.107,59.623,42.663,59.623z"/>
<path d="M46.524,13.192c3.305-1.985,7.177-2.764,10.975-3.064c1.701-0.089,3.462-0.17,5.108,0.371
	c2.623,0.814,4.417,3.606,4.237,6.322c-0.02,2.318,0.41,4.602,0.807,6.879c0.509,9.197-2.121,18.268-5.79,26.612
	c-0.836,1.756-1.327,3.664-2.322,5.343c-1.137,1.931-2.402,3.788-3.43,5.783c-1.089,2.05-1.505,4.384-2.688,6.389
	c-0.4,0.062-0.791,0.132-1.175,0.205c0.842,1.637,0.57,3.681,1.774,5.16c0.896,1.146,1.249,2.696,0.64,4.066
	c-0.419,0.144-0.826,0.298-1.229,0.455c0.979,1.956,0.9,4.211,1.236,6.331c0.093,2.473,0.618,4.913,0.618,7.389
	c0.147,0.916-0.843,1.38-1.602,1.396c-0.916,0.045-1.882,0.326-2.77,0.061c-0.775-0.715-0.058-1.835-0.289-2.71
	c-0.438-1.602-0.035-3.264-0.278-4.887c-0.324-2.012-0.567-4.038-0.631-6.071c-0.029-0.878-0.625-1.635-0.532-2.521
	c0.08-1.617-0.625-3.18-0.355-4.79c0.15-1.006,0.244-2.015,0.381-3.018c-0.475-0.384-0.98-0.724-1.515-0.996
	c-1.55-2.757-2.742-5.735-3.331-8.848c-0.237-1.175-0.292-2.386-0.647-3.529c-0.936-3.091-1.793-6.217-2.268-9.415
	c-0.176-1.105-0.224-2.239-0.644-3.283c-0.877-2.273-0.891-4.743-1.239-7.126c-0.49-3.081-0.522-6.245,0.009-9.322
	c0.195-1.027,0.023-2.075,0.141-3.106C40.517,19.188,42.874,15.303,46.524,13.192 M47.136,16.007
	c-3.123,2.608-4.947,6.668-4.849,10.732c-0.009,1.165-0.346,2.309-0.294,3.484c0.208,3.878,0.846,7.718,1.531,11.539
	c1.431,8.256,2.93,16.617,6.36,24.322c0.679,0.109,1.361,0.228,2.05,0.349c0.586-1.658,1.243-3.295,1.912-4.918
	c4.064-7.109,7.61-14.613,9.505-22.617c0.106-0.582,0.387-1.104,0.762-1.556c0.381-1.64-0.311-3.521,0.688-4.982
	c0.112-4.436,0.195-8.891-0.474-13.291c-0.378-2.271-0.298-4.967-2.223-6.574C56.936,11.787,51.229,12.526,47.136,16.007
	 M50.771,70.633c0.237,1.076,0.346,2.196,0.785,3.222c0.397-1.185,0.16-2.376-0.355-3.475
	C51.095,70.443,50.876,70.569,50.771,70.633 M49.769,71.129c-0.611,2.127,0.525,4.208,0.23,6.351
	c1.346-0.09,2.726-0.266,3.952-0.868c0.702-1.297-0.375-2.645-1.114-3.656c-0.259,0.771-0.538,2.283-1.714,1.852
	C50.124,73.846,50.269,72.333,49.769,71.129 M51.924,78.348c0,0.506,0.01,1.015,0.032,1.534c0.503-0.1,0.996-0.208,1.511-0.292
	c-0.252-0.538-0.515-1.06-0.771-1.581C52.43,78.117,52.174,78.229,51.924,78.348 M51.001,80.02c0.074-0.528,0.135-1.05,0.183-1.572
	C50.121,78.367,50.47,79.514,51.001,80.02 M52.968,82.098c1.079,0.183,0.637-0.944,0.365-1.521
	C52.35,80.475,52.885,81.554,52.968,82.098 M50.46,80.816c0.083,0.513,0.186,1.038,0.288,1.563c0.477-0.017,0.955-0.036,1.451-0.052
	c-0.067-0.42-0.167-0.842-0.244-1.248C51.453,80.986,50.947,80.894,50.46,80.816 M52.84,83.091c0.112,0.605,0.237,1.208,0.371,1.819
	c0.307-0.042,0.621-0.077,0.945-0.109c-0.052-0.657-0.179-1.303-0.339-1.935C53.48,82.931,53.157,83.007,52.84,83.091
	 M50.765,83.321c0.058,0.423,0.128,0.849,0.205,1.277c0.48,0.01,0.964,0.02,1.46,0.042c-0.128-0.43-0.24-0.849-0.353-1.269
	C51.633,83.347,51.197,83.334,50.765,83.321 M51.104,85.541c0.006,0.729,0.055,1.469,0.122,2.206
	c0.33-0.003,0.993-0.013,1.323-0.016c-0.086-0.677-0.112-1.355-0.307-1.999C51.876,85.572,51.476,85.582,51.104,85.541
	 M53.15,85.848c-0.028,0.725,0.061,1.451,0.096,2.184c0.333-0.061,0.672-0.115,1.021-0.166c0-0.739-0.07-1.47-0.272-2.175
	C53.785,85.729,53.362,85.806,53.15,85.848 M51.175,88.766c0.15,0.506,0.313,1.006,0.493,1.515c0.32-0.052,0.66-0.077,0.999-0.138
	c-0.007-0.442-0.007-0.881,0-1.31C52.164,88.798,51.661,88.775,51.175,88.766 M53.135,89.172c0.045,0.337,0.103,0.68,0.166,1.024
	c0.414-0.111,0.836-0.214,1.269-0.313c-0.102-0.32-0.195-0.634-0.285-0.938C53.887,89.01,53.513,89.089,53.135,89.172
	 M53.372,91.209c0.016,0.198,0.048,0.589,0.067,0.787c0.286-0.111,0.58-0.221,0.878-0.323c0.003-0.205,0.006-0.614,0.01-0.819
	C53.999,90.969,53.683,91.087,53.372,91.209 M51.562,91.261c-0.009,0.228-0.029,0.679-0.039,0.906
	c0.356-0.135,0.734-0.257,1.105-0.395c-0.077-0.128-0.227-0.384-0.304-0.512C52.136,91.261,51.751,91.261,51.562,91.261z"/>
<path fill="#B31515" d="M47.136,16.007c4.093-3.48,9.8-4.22,14.968-3.512c1.925,1.607,1.845,4.304,2.223,6.574
	c0.669,4.4,0.586,8.855,0.474,13.291c-0.999,1.462-0.308,3.343-0.688,4.982c-0.375,0.451-0.656,0.974-0.762,1.556
	c-1.896,8.004-5.441,15.508-9.505,22.617c-0.669,1.623-1.325,3.26-1.912,4.918c-0.688-0.121-1.371-0.239-2.05-0.349
	c-3.43-7.705-4.929-16.066-6.36-24.322c-0.685-3.821-1.323-7.661-1.531-11.539c-0.052-1.176,0.285-2.319,0.294-3.484
	C42.189,22.675,44.014,18.615,47.136,16.007z"/>
<path d="M60.677,61.954c-0.509-1.851,1.982-3.267,3.481-2.39c0.865,0.666-0.26,2.002,0.65,2.678
	c-0.102,0.176-0.195,0.362-0.279,0.554c-0.345,4.103-0.835,8.195-0.97,12.311c-0.122,1.64,1.232,2.815,2.315,3.841
	c0.615,0.63,1.56,1.19,1.541,2.196c0.452,5.28,1.316,10.518,2.056,15.766c0.188,1.243,0.263,2.511,0.625,3.725
	c0.644,2.12,0.657,4.362,1.246,6.494c-0.871,0.497-1.957,0.792-2.892,0.295c-0.475-2.639-0.436-5.371-1.118-7.977
	c-1.583-5.954-1.973-12.125-2.658-18.223c-0.045-0.698-0.717-1.069-1.114-1.557c-1.685-1.7-2.274-4.179-2.264-6.508
	c-0.097-3.125,0.649-6.19,0.874-9.294C62.348,62.832,60.84,62.832,60.677,61.954 M62.979,62.658
	c-0.32,3.92-1.304,7.814-0.971,11.766c0.157,2.31,1.323,4.49,3.196,5.865c0.807,6.77,1.169,13.652,3.094,20.236
	c0.349,0.021,0.708,0.051,1.073,0.086c-0.74-6.396-1.963-12.729-2.495-19.151c0.029-0.97-0.861-1.502-1.444-2.126
	c-1.095-1.069-2.466-2.242-2.431-3.913c0.045-4.231,0.679-8.426,0.91-12.644C63.677,62.748,63.213,62.688,62.979,62.658
	 M68.686,101.512c0.131,1.745,0.387,3.48,0.49,5.232c0.263,0.02,0.788,0.058,1.05,0.074c-0.195-1.506-0.353-3.018-0.634-4.503
	C69.592,101.81,68.984,101.738,68.686,101.512z"/>
<path d="M42.663,59.623c0.445,0,0.896,0.006,1.358,0.025c0.483,2.021,0.253,4.102,0.451,6.155c0.151,1.399-0.361,2.761-0.253,4.166
	c0.058,0.861-0.461,1.61-0.631,2.438c-0.294,1.399,0.067,2.904-0.493,4.259c-0.519,1.294-1.723,2.127-2.389,3.328
	c-0.355,0.653,0.026,1.39,0.064,2.078c0.263,1.291-0.186,2.606,0.09,3.901c0.323,1.793,0.679,3.645,0.285,5.46
	c-0.083,2.77,0.468,5.527,0.359,8.304c-0.138,2.037-0.115,4.163,0.676,6.078c0.5,1.467,0.317,3.049,0.029,4.544
	c-0.913,0.104-1.973,0.475-2.767-0.156c-0.612-1.618-0.051-3.443-0.8-5.015c-0.417-0.811,0.019-1.698,0-2.54
	c-0.01-3.312-0.417-6.609-0.372-9.918c0.128-2.889,0.237-5.787,0.013-8.673c-0.176-1.781,0.106-3.548,0.25-5.319
	c0.468-2.258,2.447-3.771,3.187-5.915c0.727-1.832,0.073-3.823,0.426-5.713c0.288-2.082,0.016-4.32,0.894-6.271
	C42.909,60.433,42.765,60.016,42.663,59.623 M42.774,66.768c-0.071,1.566-0.365,3.199,0.089,4.733
	c0.535,0.173,0.423-0.679,0.638-0.971c0.042-2.571,0.621-5.159-0.051-7.705C42.726,64.01,42.893,65.438,42.774,66.768
	 M42.614,71.878c-0.423,2.194-1.947,3.869-3.045,5.736c-0.625,0.961-0.49,2.127-0.586,3.216c-0.346,2.132,0.074,4.291,0.003,6.437
	c0.089,2.773-0.266,5.541-0.048,8.308c0.115,2.831,0.301,5.658,0.388,8.489c0.566,0.18,1.134,0.369,1.713,0.558
	c0.032-1.313-0.327-2.604-0.195-3.914c0.311-3.43-0.522-6.84-0.234-10.27c0.15-2.453-0.31-4.903-0.061-7.354
	c0.131-0.938-0.877-1.624-0.705-2.549c0.202-1.672,1.86-2.53,2.53-3.968c0.599-1.436,0.417-3.053,0.484-4.57
	C42.797,71.968,42.675,71.907,42.614,71.878 M40.251,105.556c-0.202,1.26-0.035,2.541,0.089,3.805
	c0.237,0.017,0.711,0.055,0.948,0.074c0.07-1.099,0.154-2.226-0.164-3.289C41.058,105.688,40.667,105.486,40.251,105.556z"/>
<path fill="#E70000" d="M62.979,62.658c0.233,0.029,0.698,0.09,0.932,0.119c-0.23,4.218-0.865,8.412-0.91,12.644
	c-0.035,1.671,1.335,2.844,2.431,3.913c0.583,0.624,1.473,1.156,1.444,2.126c0.532,6.422,1.755,12.756,2.495,19.151
	c-0.365-0.035-0.724-0.064-1.073-0.086c-1.925-6.584-2.287-13.467-3.094-20.236c-1.873-1.375-3.039-3.556-3.196-5.865
	C61.676,70.473,62.659,66.578,62.979,62.658z"/>
<path fill="#E70000" d="M42.774,66.768c0.119-1.329-0.048-2.758,0.676-3.942c0.672,2.546,0.093,5.134,0.051,7.705
	c-0.214,0.292-0.103,1.144-0.638,0.971C42.409,69.967,42.704,68.334,42.774,66.768z"/>
<path fill="#F4F8FD" d="M50.771,70.633c0.105-0.063,0.324-0.189,0.43-0.253c0.515,1.099,0.752,2.29,0.355,3.475
	C51.117,72.829,51.008,71.709,50.771,70.633z"/>
<path fill="#B31515" d="M49.769,71.129c0.5,1.204,0.355,2.717,1.354,3.678c1.176,0.432,1.455-1.08,1.714-1.852
	c0.74,1.012,1.816,2.359,1.114,3.656c-1.227,0.603-2.606,0.778-3.952,0.868C50.294,75.337,49.157,73.256,49.769,71.129z"/>
<path fill="#E70000" d="M42.614,71.878c0.061,0.029,0.183,0.09,0.244,0.119c-0.067,1.518,0.115,3.135-0.484,4.57
	c-0.669,1.438-2.328,2.296-2.53,3.968c-0.173,0.925,0.835,1.61,0.705,2.549c-0.25,2.45,0.211,4.9,0.061,7.354
	c-0.288,3.43,0.545,6.84,0.234,10.27c-0.132,1.311,0.227,2.601,0.195,3.914c-0.579-0.188-1.147-0.378-1.713-0.558
	c-0.086-2.831-0.272-5.658-0.388-8.489c-0.217-2.767,0.138-5.534,0.048-8.308c0.071-2.146-0.349-4.305-0.003-6.437
	c0.096-1.089-0.038-2.255,0.586-3.216C40.667,75.747,42.191,74.072,42.614,71.878z"/>
<path fill="#FFFFFF" d="M51.924,78.348c0.25-0.118,0.506-0.23,0.772-0.339c0.256,0.521,0.519,1.043,0.771,1.581
	c-0.515,0.084-1.008,0.192-1.511,0.292C51.934,79.362,51.924,78.854,51.924,78.348z"/>
<path fill="#F4F8FD" d="M51.001,80.02c-0.531-0.506-0.88-1.652,0.183-1.572C51.136,78.97,51.076,79.491,51.001,80.02z"/>
<path fill="#F4F8FD" d="M52.968,82.098c-0.083-0.544-0.618-1.623,0.365-1.521C53.605,81.153,54.047,82.28,52.968,82.098z"/>
<path fill="#FFFFFF" d="M50.46,80.816c0.487,0.077,0.993,0.17,1.496,0.264c0.077,0.406,0.176,0.828,0.244,1.248
	c-0.497,0.016-0.974,0.035-1.451,0.052C50.646,81.854,50.544,81.329,50.46,80.816z"/>
<path fill="#FFFFFF" d="M52.84,83.091c0.317-0.084,0.64-0.16,0.977-0.225c0.16,0.632,0.288,1.277,0.339,1.935
	c-0.324,0.032-0.638,0.067-0.945,0.109C53.077,84.299,52.952,83.696,52.84,83.091z"/>
<path fill="#FFFFFF" d="M50.765,83.321c0.432,0.013,0.868,0.025,1.313,0.051c0.112,0.42,0.224,0.839,0.353,1.269
	c-0.497-0.022-0.98-0.032-1.46-0.042C50.893,84.17,50.822,83.744,50.765,83.321z"/>
<path fill="#FFFFFF" d="M51.104,85.541c0.372,0.041,0.772,0.031,1.137,0.191c0.195,0.644,0.221,1.322,0.307,1.999
	c-0.33,0.003-0.993,0.013-1.323,0.016C51.159,87.01,51.11,86.271,51.104,85.541z"/>
<path fill="#FFFFFF" d="M53.15,85.848c0.212-0.042,0.634-0.118,0.846-0.157c0.202,0.705,0.272,1.436,0.272,2.175
	c-0.349,0.051-0.688,0.105-1.021,0.166C53.211,87.299,53.122,86.572,53.15,85.848z"/>
<path fill="#FFFFFF" d="M51.175,88.766c0.486,0.01,0.989,0.032,1.492,0.067c-0.007,0.429-0.007,0.867,0,1.31
	c-0.339,0.061-0.679,0.086-0.999,0.138C51.488,89.771,51.325,89.271,51.175,88.766z"/>
<path fill="#FFFFFF" d="M53.135,89.172c0.378-0.083,0.752-0.162,1.15-0.228c0.089,0.305,0.183,0.618,0.285,0.938
	c-0.432,0.1-0.855,0.202-1.269,0.313C53.237,89.852,53.18,89.509,53.135,89.172z"/>
<path fill="#F4F8FD" d="M53.372,91.209c0.311-0.122,0.627-0.24,0.955-0.355c-0.003,0.205-0.007,0.614-0.01,0.819
	c-0.298,0.103-0.592,0.212-0.878,0.323C53.42,91.798,53.388,91.407,53.372,91.209z"/>
<path fill="#F4F8FD" d="M51.562,91.261c0.189,0,0.574,0,0.762,0c0.077,0.128,0.228,0.384,0.304,0.512
	c-0.371,0.138-0.749,0.26-1.105,0.395C51.533,91.939,51.553,91.488,51.562,91.261z"/>
<path fill="#B31515" d="M68.686,101.512c0.298,0.227,0.906,0.298,0.906,0.804c0.282,1.485,0.439,2.997,0.634,4.503
	c-0.263-0.017-0.788-0.055-1.05-0.074C69.073,104.992,68.817,103.257,68.686,101.512z"/>
<path fill="#B31515" d="M40.251,105.556c0.416-0.069,0.807,0.132,0.874,0.59c0.317,1.063,0.234,2.19,0.164,3.289
	c-0.237-0.02-0.711-0.058-0.948-0.074C40.216,108.097,40.049,106.815,40.251,105.556z"/>
<path fill="#E70000" d="M38.708,115.215c2.969,0.317,5.959,0.25,8.941,0.462c1.918,0.118,3.769,0.794,5.707,0.727
	c3.199-0.205,6.226,1.025,9.332,1.581c2.229,0.514,4.519,0.632,6.792,0.872c1.227,4.282,2.011,8.681,3.462,12.899
	c0.407,1.464,0.474,3.007,0.977,4.452c1.137,3.798,3.603,6.968,5.886,10.139c0.743,1.162,1.915,2.222,1.886,3.715
	c0.128,2.859,1.13,5.595,1.262,8.458c-2.287,0.378-4.611-0.187-6.892,0.218c-0.858,0.096-1.416,0.836-2.171,1.14
	c-3.507,0.458-7.068,0.871-10.591,0.372c-2.261-0.272-4.487-0.746-6.713-1.192c-3.074-0.614-6.235-0.336-9.329-0.761
	c-4.474-0.616-8.913,0.784-13.39,0.499c-2.312-0.119-4.519-0.932-6.584-1.928c0.202-2.71-0.285-5.563,0.948-8.099
	c0.89-1.691,0.566-3.857,1.954-5.295c1.371-1.633,3.397-3.004,3.667-5.293c0.173-1.774,1.55-3.081,1.941-4.785
	C37.414,127.446,36.939,121.14,38.708,115.215 M50.951,127.718c-1.214,0.967-2.979,0.278-4.211,1.227
	c-1.489,0.938-1.774,2.812-2.001,4.413c-0.285,1.394-0.211,3.058-1.39,4.063c-0.974,0.846-0.759,2.224-0.778,3.372
	c-1.14,0.216-2.52,0.583-2.821,1.887c-0.055,1.021,0.215,2.086,0.698,2.997c0.5,0.93,1.633,1.102,2.427,1.666
	c0.919,2.033,1.713,4.358,3.67,5.649c1.787,0.954,3.875,1.076,5.864,1.188c2.796,0.055,5.764-0.224,8.195-1.735
	c1.015-0.597,1.602-1.644,2.322-2.53c1.899,0.388,3.593,1.381,5.441,1.947c-0.756,1.253-1.473,2.776-0.919,4.247
	c0.442,1.284,2.018,1.681,3.218,1.332c1.63-0.382,3.167-2.116,2.594-3.85c-0.366-1.3-2.296-1.297-2.389-2.729
	c-0.403-4.4-1.07-8.829-2.726-12.951c-0.701-1.55-0.867-3.289-1.681-4.784c-1.867-3.494-5.306-6.251-9.268-6.854
	C55.024,125.911,52.734,126.431,50.951,127.718z"/>
<path d="M50.951,127.718c1.784-1.287,4.073-1.807,6.245-1.444c3.962,0.603,7.401,3.359,9.268,6.854
	c0.814,1.495,0.98,3.234,1.681,4.784c1.656,4.122,2.322,8.551,2.726,12.951c0.093,1.432,2.023,1.429,2.389,2.729
	c0.573,1.733-0.964,3.468-2.594,3.85c-1.201,0.349-2.776-0.048-3.218-1.332c-0.554-1.471,0.163-2.994,0.919-4.247
	c-1.848-0.566-3.542-1.56-5.441-1.947c-0.72,0.887-1.307,1.934-2.322,2.53c-2.431,1.512-5.399,1.79-8.195,1.735
	c-1.989-0.111-4.077-0.233-5.864-1.188c-1.957-1.291-2.751-3.616-3.67-5.649c-0.794-0.564-1.928-0.736-2.427-1.666
	c-0.483-0.911-0.753-1.976-0.698-2.997c0.301-1.304,1.681-1.671,2.821-1.887c0.02-1.148-0.195-2.526,0.778-3.372
	c1.179-1.006,1.105-2.67,1.39-4.063c0.228-1.602,0.512-3.475,2.001-4.413C47.972,127.996,49.736,128.685,50.951,127.718
	 M51.437,128.396c1.771,0.688,3.597,1.301,5.198,2.36c1.044,0.704,2.085,1.585,2.412,2.866c-1.259-0.676-1.934-2.088-3.276-2.668
	c-2.037-0.964-4.195-2.415-6.539-1.824c-1.179,0.024-2.485,0.429-2.976,1.606c-0.81,1.95-0.752,4.128-1.338,6.149
	c4.852-0.199,9.761,1.006,13.924,3.52c1.217,0.707,2.254,1.755,3.658,2.123c-0.282-1.069-0.654-2.117-0.843-3.203
	c1.176,0.548,1.086,2.146,1.48,3.229c0.714,0.144,1.543,0.169,2.104,0.727c1.053,0.846,1.3,2.598,0.355,3.615
	c-0.683,0.739-1.762,0.649-2.671,0.656c-0.039,0.462-0.064,0.932-0.077,1.409c2.492,0.298,4.567,2.185,7.116,2.068
	c-0.157-3.686-0.797-7.35-1.906-10.865c-0.416-1.381-1.073-2.671-1.416-4.067c-0.884-3.933-4.022-7.173-7.753-8.562
	C56.446,126.619,53.573,126.85,51.437,128.396 M43.648,141.572c-1.021,0.227-2.434,0.093-2.972,1.193
	c-0.083,0.895,0.18,1.861,0.66,2.634c0.604,0.582,1.409-0.202,2.116-0.205c0.516,0.515,0.49,1.248,0.429,1.931
	c0.625,1.588,1.323,3.212,2.507,4.474c0.849,0.916,2.152,1.146,3.331,1.364c2.876,0.416,5.899,0.423,8.675-0.538
	c1.413-0.519,2.879-1.399,3.411-2.885c0.128-1.048-0.153-2.363,0.846-3.065c0.791-0.058,1.97,0.378,2.405-0.57
	c0.589-1.229-0.679-2.437-1.899-2.338c-0.369,0.484-0.766,0.949-1.179,1.394c-0.468-1.08-0.922-2.244-2.031-2.818
	c-4.461-3.199-10.056-4.749-15.522-4.4C42.986,138.411,43.498,140.326,43.648,141.572 M69.471,152.357
	c-0.932,0.939-1.64,2.629-0.75,3.809c1.348,0.929,3.267-0.192,3.616-1.669c0.134-0.836-0.778-1.185-1.316-1.579
	C70.527,152.668,70.06,152.07,69.471,152.357z"/>
<path fill="#FF0000" d="M51.437,128.396c2.136-1.547,5.009-1.777,7.453-0.859c3.731,1.389,6.869,4.629,7.753,8.562
	c0.343,1.396,1,2.687,1.416,4.067c1.108,3.516,1.749,7.18,1.906,10.865c-2.549,0.116-4.625-1.771-7.116-2.068
	c0.013-0.478,0.039-0.947,0.077-1.409c0.909-0.007,1.988,0.083,2.671-0.656c0.945-1.018,0.698-2.77-0.355-3.615
	c-0.561-0.558-1.39-0.583-2.104-0.727c-0.394-1.083-0.304-2.682-1.48-3.229c0.189,1.086,0.561,2.134,0.843,3.203
	c-1.403-0.368-2.44-1.416-3.658-2.123c-4.163-2.514-9.073-3.719-13.924-3.52c0.586-2.021,0.528-4.199,1.338-6.149
	c0.49-1.178,1.797-1.582,2.976-1.606c2.344-0.591,4.502,0.86,6.539,1.824c1.342,0.58,2.018,1.992,3.276,2.668
	c-0.327-1.281-1.368-2.162-2.412-2.866C55.034,129.697,53.208,129.085,51.437,128.396z"/>
<path fill="#FCECBC" d="M43.648,141.572c-0.15-1.246-0.663-3.161,0.778-3.831c5.467-0.349,11.062,1.201,15.522,4.4
	c1.108,0.574,1.563,1.738,2.031,2.818c0.413-0.444,0.81-0.909,1.179-1.394c1.22-0.099,2.488,1.109,1.899,2.338
	c-0.436,0.948-1.614,0.513-2.405,0.57c-0.999,0.702-0.717,2.018-0.846,3.065c-0.531,1.485-1.998,2.366-3.411,2.885
	c-2.776,0.961-5.799,0.954-8.675,0.538c-1.179-0.218-2.482-0.448-3.331-1.364c-1.185-1.262-1.883-2.886-2.507-4.474
	c0.061-0.683,0.086-1.416-0.429-1.931c-0.708,0.003-1.512,0.787-2.116,0.205c-0.48-0.772-0.743-1.739-0.66-2.634
	C41.214,141.665,42.627,141.799,43.648,141.572 M48.219,143.224c0.09,0.145,0.266,0.427,0.355,0.567
	c-0.224,1.021,0.724,1.604,1.617,1.634c0.295-1.058,0.169-2.156-0.355-3.113C49.205,142.445,48.648,142.75,48.219,143.224
	 M52.334,142.533c-0.452,1.053-0.192,2.192,0.452,3.108c0.387-0.16,0.819-0.262,1.185-0.496c0.301-0.65,0.077-1.403-0.086-2.053
	C53.698,142.423,52.827,142.683,52.334,142.533 M45.343,145.556c-0.042,0.16-0.122,0.478-0.16,0.634
	c2.168,2.521,5.496,4.151,8.849,4.045c2.469-0.097,4.894-1.685,5.726-4.051c-0.339-0.865-1.095-0.247-1.31,0.301
	c-0.958,1.685-2.834,2.731-4.765,2.719c-2.556-0.028-5.016-1.176-6.886-2.872C46.354,145.979,45.98,145.38,45.343,145.556z"/>
<path opacity="0.72" fill="#400000" enable-background="new    " d="M77.698,139.119c-0.544,0.061-0.618-0.09-0.218-0.453
	C77.534,138.779,77.644,139.007,77.698,139.119z"/>
<path d="M48.219,143.224c0.429-0.474,0.986-0.778,1.617-0.912c0.525,0.957,0.65,2.056,0.355,3.113
	c-0.894-0.029-1.841-0.612-1.617-1.634C48.484,143.65,48.309,143.368,48.219,143.224z"/>
<path d="M52.334,142.533c0.493,0.149,1.364-0.11,1.55,0.56c0.163,0.649,0.387,1.402,0.086,2.053
	c-0.365,0.234-0.797,0.336-1.185,0.496C52.142,144.726,51.882,143.586,52.334,142.533z"/>
<path fill="#FF0000" d="M91.465,143.742c2.126-0.057,4.067-1.037,6.165-1.297c0.145,4.029,0.619,8.033,1.032,12.042
	c0.195,1.599-0.026,3.209,0.051,4.817c0.006,1.075,0.102,2.257-0.464,3.228c-0.65,0.771-1.598,1.268-2.069,2.193
	c-1.509,0.811-3.263,1.013-4.708,1.956c-1.822,0.692-3.827,0.6-5.726,0.946c-1.541,0.346-3.171-0.011-4.663,0.566
	c-1.883,0.697-3.923,0.67-5.899,0.707c-2.771,0.439-5.557-0.137-8.339-0.055c-2.027,0.106-4.051-0.313-6.069-0.016
	c-2.286,0.225-4.493-0.675-6.776-0.562c-2.271-0.042-4.49,0.489-6.722,0.787c-4.285,0.093-8.253-1.849-12.455-2.338
	c-2.015-0.192-4.045-0.544-6.056-0.147c-1.566,0.353-2.981-0.656-4.521-0.691c-0.705-0.106-1.477,0.131-2.102-0.26
	c-0.935-0.551-2.261-0.839-2.449-2.091c-1.141-4.32-1.304-8.819-1.932-13.23c0.196-2.151,0.445-4.31,0.471-6.481
	c2.309,1.944,5.019,3.388,7.119,5.589c-0.749,1.735-0.345,3.612-0.259,5.428c-0.019,1.054-1.194,2.307-0.224,3.225
	c1.527,1.214,3.619,1.067,5.402,1.649c4.198,1.278,8.58,0.324,12.842,0.016c2.79-0.284,5.55,0.43,8.346,0.392
	c4.458-0.052,8.708,1.55,13.144,1.796c4.061,0.421,8.08-0.56,12.134-0.592c0.925,0.105,1.441-0.778,2.226-1.034
	c1.716,0.016,3.414,0.595,5.143,0.349c0.891-0.121,1.137-1.166,1.186-1.921c-0.045-2.287-0.308-4.57-0.824-6.8
	c-0.275-1.143-0.298-2.324-0.23-3.486c-0.157-0.331-0.295-0.66-0.413-0.99c1.223-1.082,2.882-1.489,4.089-2.601
	C88.865,143.932,90.21,143.787,91.465,143.742z"/>
<path d="M45.343,145.556c0.637-0.176,1.012,0.423,1.454,0.775c1.87,1.696,4.33,2.844,6.886,2.872
	c1.931,0.013,3.808-1.034,4.765-2.719c0.214-0.548,0.97-1.166,1.31-0.301c-0.833,2.366-3.257,3.954-5.726,4.051
	c-3.353,0.106-6.681-1.524-8.849-4.045C45.221,146.033,45.301,145.716,45.343,145.556z"/>
<path fill="#B31515" d="M69.471,152.357c0.589-0.287,1.057,0.311,1.55,0.561c0.538,0.395,1.451,0.743,1.316,1.579
	c-0.349,1.477-2.268,2.598-3.616,1.669C67.831,154.986,68.539,153.297,69.471,152.357z"/>
<path fill="#E70000" d="M91.824,167.281c0.884-0.813,2.14-0.989,3.234-1.398c0.557,1.369,0.624,2.862,0.849,4.316
	c0.436,2.994,0.839,5.994,1.345,8.979c0.033,0.371,0.238,0.632,0.615,0.781c-0.528-4.662-1.505-9.273-1.896-13.946
	c0.503-0.686,0.74,0.313,0.842,0.679c0.423,2.005,0.859,4.021,0.967,6.078c0.173,2.604,0.926,5.182,0.599,7.808
	c-2.351,0.645-4.801,0.781-7.222,0.868c-0.695-0.039-1.883,0.02-1.889-0.954c-0.49-4.147-0.663-8.324-1.025-12.48
	c1.028-0.125,2.053-0.279,3.09-0.378c0.871,4.313,0.855,8.74,1.531,13.075c0.08-0.131,0.247-0.394,0.327-0.524
	C92.82,175.877,92.487,171.557,91.824,167.281z"/>
<path fill="#E70000" d="M22.74,166.843c0.522-0.317,1.181-0.17,1.774-0.208c0.24,4.852,1.394,9.627,1.463,14.491
	c-0.343,0.714-1.242,0.272-1.742,0c-1.867-3.812-0.839-8.208-1.915-12.201C22.16,168.224,22.125,167.329,22.74,166.843z"/>
<path fill="#E70000" d="M25.017,166.609c1.066,0.326,2.139,0.646,3.247,0.825c0.5,4.687,1.002,9.374,1.579,14.054
	c-1.121-0.007-2.242,0-3.356,0.07C26.448,176.536,25.25,171.615,25.017,166.609z"/>
<path fill="#E70000" d="M28.789,167.166c1.127-0.115,2.271-0.173,3.411-0.083c1.245,4.688,0.736,9.582,1.348,14.354
	c-1.006,0.167-2.056,0.339-3.055,0.118C29.721,176.789,29.391,171.957,28.789,167.166z"/>
<path fill="#E70000" d="M32.767,167.207c1.367,0.039,2.729,0.25,4.083,0.453c-0.292,1.994,0.036,4.009,0.125,6.014
	c0.217,2.633,0.262,5.277,0.525,7.907c-1.127-0.067-2.245-0.151-3.366-0.196C33.302,176.694,33.958,171.854,32.767,167.207z"/>
<path fill="#E70000" d="M37.128,167.762c3.328,0.842,6.645,1.947,10.114,1.967c0.493,4.298,0.999,8.599,1.268,12.922
	c-0.509-0.067-1.012-0.135-1.505-0.196c-0.006-3.811-1.332-7.483-1.229-11.298c0.012-0.429-0.052-0.857-0.368-1.165
	c-0.574,4.179,1.117,8.224,1.088,12.391c-1.45-0.174-2.879-0.449-4.32-0.615c-0.061-3.796-0.244-7.584-0.17-11.378l-0.477,0.025
	c-0.077,3.795,0.105,7.586,0.163,11.381c-1.108-0.135-2.213-0.24-3.317-0.301c0.016-0.183,0.051-0.541,0.07-0.724
	c-0.939-0.813-0.637-2.104-0.737-3.188C37.532,174.308,37.25,171.038,37.128,167.762z"/>
<path fill="#E70000" d="M84.507,168.454c1.095-0.196,2.203-0.314,3.317-0.397c0.279,3.816,0.503,7.641,0.896,11.452
	c0.077,0.759,0.064,1.527,0.02,2.3c-0.762,0-1.515,0-2.264,0.006c-0.208-0.9-0.612-1.755-0.641-2.681
	C85.618,175.55,85.429,171.936,84.507,168.454z"/>
<path fill="#E70000" d="M80.775,169.123c1.012-0.388,2.091-0.557,3.18-0.471c1.047,3.608,0.941,7.395,1.499,11.077
	c-0.272,0.676-0.188,1.405-0.23,2.12c-2.302,0.372-4.618,0.788-6.952,0.813c-0.32-2.341-0.439-4.701-0.635-7.049
	c-0.096-1.297-0.493-2.564-0.397-3.868c0.054-0.695-0.144-1.357-0.32-2.009c1.134-0.149,2.277-0.284,3.427-0.352
	c0.157,1.034,0.208,2.081,0.317,3.125c0.02,0.343,0.186,0.615,0.503,0.817C81.134,171.916,81.022,170.51,80.775,169.123
	 M80.798,175.323c0.099,1.185,0.16,2.376,0.288,3.567c0.08,0.656,0.1,1.447,0.785,1.803c-0.221-1.735-0.343-3.478-0.49-5.217
	C81.237,175.438,80.945,175.361,80.798,175.323z"/>
<path fill="#E70000" d="M47.78,169.645c3.078-0.534,6.239-1.075,9.355-0.467c-0.407,4.406-0.138,8.829-0.157,13.249
	c-1.288,0.249-2.601,0.313-3.9,0.255c-0.09-2.341,0.167-4.672,0.144-7.01c0.003-0.621-0.186-1.204-0.439-1.745
	c-0.234,2.921-0.243,5.876-0.269,8.813c-1.178-0.02-2.351-0.1-3.519-0.145C48.763,178.264,48.148,173.965,47.78,169.645z"/>
<path fill="#E70000" d="M61.08,169.366c0.948-0.028,1.905-0.02,2.863,0.035c0.166,4.365,1.038,8.683,0.947,13.06
	c-1.194,0.014-2.386-0.061-3.564-0.208c-0.099-2.532-0.119-5.069-0.221-7.6C61.058,172.893,60.872,171.124,61.08,169.366z"/>
<path fill="#E70000" d="M57.644,169.315c0.944,0.093,1.896,0.172,2.854,0.256c0.038,4.212,0.272,8.416,0.339,12.628
	c-1.127,0.115-2.255,0.214-3.376,0.32C57.506,178.119,57.16,173.706,57.644,169.315z"/>
<path fill="#E70000" d="M64.567,169.565c2.767-0.052,5.531,0.096,8.294,0.23c0.208,4.138,1.048,8.229,0.997,12.381
	c-1.394,0.144-2.755,0.464-4.119,0.742c-0.932-3.429-0.522-7.003-0.765-10.501c-0.147-0.829-0.023-1.892-0.83-2.401
	c0.708,4.355-0.08,8.839,1.057,13.143c-1.272-0.013-2.521-0.228-3.741-0.534C65.596,178.247,64.628,173.934,64.567,169.565z"/>
<path fill="#E70000" d="M73.464,169.824c0.939-0.141,1.89-0.243,2.848-0.259c0.438,1.047,0.236,2.161,0.33,3.257
	c0.679,3.288,0.567,6.673,1.096,9.988c-1.105-0.108-2.194-0.266-3.274-0.49C74.457,178.129,73.644,174,73.464,169.824z"/>
<path d="M80.798,175.323c0.147,0.038,0.439,0.115,0.583,0.153c0.147,1.739,0.27,3.481,0.49,5.217
	c-0.685-0.355-0.705-1.146-0.785-1.803C80.958,177.699,80.897,176.508,80.798,175.323z"/>
</svg>
