<?xml version="1.0" encoding="utf-8"?>
<!-- Generator: Adobe Illustrator 16.0.0, SVG Export Plug-In . SVG Version: 6.00 Build 0)  -->
<!DOCTYPE svg PUBLIC "-//W3C//DTD SVG 1.1//EN" "http://www.w3.org/Graphics/SVG/1.1/DTD/svg11.dtd">
<svg version="1.1" id="Layer_1" xmlns="http://www.w3.org/2000/svg" xmlns:xlink="http://www.w3.org/1999/xlink" x="0px" y="0px"
	 width="310px" height="auto" viewBox="0 0 376.868 9.929" enable-background="new 0 0 376.868 9.929" xml:space="preserve">
<g id="NykFiL_1_">
	<g>
		<path fill="#A4FF62" d="M368.365,4.407c0.631,0.04,1.261-0.167,1.587-0.443c0.424-0.36,0.444-0.789,0.373-1.302
			c-0.083-0.617-0.939-1.406-1.671-1.395c-1.519,0.024-3.035,0.094-4.553,0.111c-0.481,0.006-0.963-0.141-1.444-0.133
			c-0.795,0.012-1.589,0.09-2.384,0.144c-0.109,0.007-0.216,0.034-0.325,0.046c-0.77,0.085-1.538,0.218-2.31,0.238
			c-0.605,0.016-1.215-0.128-1.825-0.164c-0.764-0.045-1.529-0.066-2.295-0.075c-1.169-0.013-2.341,0.03-3.509-0.019
			c-1.013-0.042-2.021-0.22-3.035-0.266c-1.407-0.064-2.817-0.078-4.227-0.078c-0.55,0-1.116-0.075-1.641,0.255
			c-0.174,0.109-0.482,0.031-0.726,0.003c-0.462-0.052-0.92-0.169-1.383-0.188c-1.044-0.042-2.09-0.036-3.135-0.058
			c-0.218-0.005-0.435-0.063-0.654-0.076c-0.217-0.013-0.437-0.014-0.654,0.005c-0.669,0.059-1.337,0.168-2.007,0.189
			c-1.514,0.049-3.031,0.031-4.545,0.085c-2.284,0.083-4.566,0.217-6.851,0.306c-1.564,0.062-3.131,0.089-4.696,0.121
			c-1.376,0.028-2.752,0.042-4.129,0.06c-0.109,0.001-0.218-0.023-0.326-0.025c-0.229-0.007-0.458-0.018-0.686-0.006
			c-0.276,0.015-0.55,0.078-0.825,0.077c-0.704-0.004-1.407-0.043-2.111-0.046c-0.827-0.003-1.655,0.002-2.482,0.028
			c-1.503,0.046-3.006,0.104-4.508,0.168c-0.469,0.02-0.935,0.079-1.403,0.111c-0.845,0.056-1.69,0.144-2.535,0.146
			c-0.903,0.002-1.808-0.116-2.711-0.109c-0.519,0.004-1.037,0.153-1.555,0.232c-0.153,0.023-0.309,0.044-0.463,0.042
			c-0.655-0.007-1.31-0.018-1.965-0.036c-0.932-0.027-1.863-0.077-2.795-0.088c-0.421-0.005-0.843,0.097-1.264,0.084
			c-0.889-0.025-1.777-0.093-2.666-0.145c-0.388-0.023-0.775-0.049-1.163-0.074c-0.608-0.038-1.219-0.124-1.826-0.105
			c-0.873,0.028-1.751,0.081-2.612,0.219c-0.667,0.106-1.296,0.044-1.942-0.089c-0.426-0.088-0.864-0.17-1.296-0.167
			c-1.72,0.011-3.439,0.044-5.157,0.095c-1.282,0.038-2.563,0.109-3.844,0.174c-0.374,0.019-0.747,0.067-1.12,0.104
			c-0.599,0.058-1.178,0.222-1.802,0.047c-0.5-0.14-1.046-0.16-1.571-0.151c-0.888,0.015-1.775,0.135-2.663,0.134
			c-1.104-0.001-2.211-0.141-3.312-0.108c-1.134,0.034-2.263,0.204-3.395,0.312c-0.419,0.04-0.841,0.127-1.257,0.104
			c-1.875-0.105-3.748-0.128-5.625-0.003c-0.663,0.044-1.334-0.044-2.001-0.087c-0.15-0.009-0.298-0.125-0.445-0.119
			c-0.829,0.031-1.656,0.088-2.483,0.13c-1.062,0.053-2.125,0.141-3.187,0.139c-0.968-0.001-1.935-0.109-2.904-0.155
			c-0.749-0.035-1.5-0.083-2.248-0.058c-1.253,0.043-2.504,0.168-3.757,0.207c-0.871,0.027-1.742-0.13-2.608,0.153
			c-0.259,0.085-0.586-0.027-0.881-0.062c-0.416-0.049-0.829-0.145-1.244-0.155c-0.421-0.011-0.843,0.07-1.266,0.088
			c-1.399,0.062-2.8,0.149-4.2,0.157c-1.347,0.008-2.707,0.027-4.036-0.15c-0.724-0.096-1.336,0.009-2.003,0.188
			c-0.366,0.098-0.791-0.018-1.188-0.047c-0.139-0.011-0.274-0.072-0.413-0.076c-0.937-0.018-1.875-0.033-2.813-0.037
			c-1.045-0.005-2.09,0.011-3.135,0.001c-0.326-0.003-0.652-0.095-0.977-0.086c-0.828,0.021-1.654,0.11-2.481,0.108
			c-0.97-0.002-1.94-0.088-2.911-0.108c-0.829-0.017-1.659,0.003-2.489,0.017c-1.22,0.02-2.44,0.037-3.66,0.08
			c-0.762,0.027-1.523,0.165-2.281,0.14c-1.553-0.053-3.093-0.318-4.66-0.16c-0.742,0.075-1.501-0.046-2.254-0.057
			c-1.063-0.016-2.127,0.011-3.189-0.023c-1.185-0.04-2.367-0.146-3.55-0.19c-0.825-0.032-1.661,0.067-2.474-0.033
			c-0.719-0.089-1.417-0.09-2.136-0.073c-1.005,0.023-2.027,0.195-3.03-0.131c-0.36-0.117-0.765-0.139-1.147-0.129
			c-0.852,0.021-1.702,0.109-2.553,0.132c-0.672,0.019-1.347-0.049-2.018-0.027c-1.403,0.045-2.805,0.142-4.207,0.186
			c-1.206,0.038-2.412,0.042-3.618,0.045c-1.362,0.003-2.724-0.006-4.085-0.023c-0.548-0.007-1.097-0.082-1.644-0.064
			c-1.524,0.049-3.047,0.172-4.571,0.186c-1.425,0.012-2.85-0.079-4.274-0.125c-0.736-0.024-1.473-0.093-2.207-0.064
			c-1.311,0.05-2.619,0.197-3.93,0.233c-1.281,0.035-2.564-0.025-3.847-0.03c-0.374-0.002-0.748,0.05-1.123,0.067
			c-1.578,0.072-3.156,0.141-4.734,0.209c-0.156,0.007-0.313,0.006-0.469-0.002c-0.999-0.051-1.997-0.129-2.997-0.151
			c-0.939-0.021-1.881,0.009-2.821,0.034c-0.324,0.008-0.646,0.109-0.968,0.1c-0.778-0.023-1.555-0.122-2.333-0.125
			c-1.048-0.003-2.097,0.082-3.145,0.079c-1.108-0.003-2.215-0.09-3.323-0.092c-0.51-0.001-1.021,0.167-1.53,0.169
			c-1.644,0.009-3.287-0.034-4.931-0.036c-1.395-0.001-2.79,0.012-4.183,0.045c-0.872,0.021-1.742,0.097-2.613,0.139
			c-0.468,0.022-0.937,0.027-1.405,0.03c-0.56,0.003-1.119-0.005-1.679-0.005c-0.109,0-0.218,0.022-0.327,0.019
			c-1.354-0.044-2.708-0.11-4.062-0.131c-0.845-0.014-1.689,0.036-2.534,0.064c-1.862,0.061-3.724,0.125-5.586,0.188
			c-0.936,0.031-1.873,0.078-2.808,0.085c-1.375,0.013-2.75-0.002-4.125-0.007c-1.159-0.004-2.319-0.002-3.478-0.022
			c-0.984-0.017-1.968-0.063-2.952-0.096c-0.282-0.01-0.563-0.012-0.844-0.03c-0.874-0.057-1.748-0.156-2.623-0.169
			c-1.281-0.02-2.564,0.054-3.845,0.024c-0.732-0.017-1.461-0.206-2.187,0.062c-0.108,0.04-0.248-0.013-0.373-0.008
			c-1.312,0.044-2.625,0.084-3.937,0.141c-0.718,0.032-1.434,0.109-2.152,0.138c-1.063,0.043-2.129,0.051-3.193,0.093
			C46.27,3.466,45.38,3.573,44.49,3.572c-2.066-0.001-4.133-0.055-6.2-0.074c-0.454-0.004-0.91,0.088-1.361,0.066
			c-1.149-0.055-2.29-0.372-3.451-0.058c-0.179,0.048-0.396-0.063-0.598-0.076c-0.355-0.021-0.713-0.052-1.065-0.023
			c-0.509,0.043-1.012,0.161-1.521,0.202c-0.764,0.062-1.534,0.058-2.297,0.13c-0.93,0.087-1.854,0.237-2.784,0.334
			c-0.306,0.032-0.625-0.058-0.928-0.016c-0.711,0.1-1.412,0.273-2.124,0.366C21.277,4.541,20.386,4.6,19.5,4.694
			c-1.491,0.16-2.98,0.342-4.473,0.489c-1.418,0.139-2.841,0.24-4.262,0.364C9.591,5.648,8.414,5.781,7.257,5.463
			C6.261,5.19,5.272,5.272,4.273,5.409C3.835,5.47,3.46,5.612,3.175,5.968c-0.41,0.513-0.521,1.107-0.263,1.678
			c0.23,0.509,0.662,0.895,1.296,0.859c1.533-0.087,3.061-0.171,4.57,0.241c0.232,0.063,0.5,0.027,0.748,0.002
			c1.493-0.147,2.986-0.306,4.479-0.459c1.886-0.194,3.772-0.388,5.659-0.577c0.855-0.085,1.71-0.17,2.567-0.235
			c0.764-0.058,1.577,0.064,2.287-0.158c2.379-0.742,4.831-0.625,7.259-0.749c2.077-0.106,4.161-0.09,6.242-0.141
			c1.159-0.028,2.318-0.102,3.478-0.119c1.314-0.019,2.629,0.025,3.943,0c1.687-0.032,3.368-0.297,5.062-0.125
			c0.29,0.029,0.59-0.051,0.886-0.071c0.404-0.027,0.809-0.072,1.212-0.059c0.827,0.026,1.652,0.09,2.479,0.132
			c0.233,0.013,0.468-0.004,0.702,0.011c0.731,0.045,1.461,0.135,2.192,0.139c0.82,0.004,1.641-0.066,2.461-0.103
			c0.062-0.002,0.125,0.007,0.188,0.007c0.844,0,1.688-0.004,2.533,0c0.939,0.004,1.878,0.011,2.817,0.025
			c1.114,0.017,2.228,0.04,3.342,0.064c0.975,0.022,1.949,0.063,2.924,0.071c0.997,0.009,2.007,0.086,2.986-0.049
			c0.862-0.12,1.653,0.222,2.491,0.157c0.59-0.046,1.22-0.114,1.771,0.042c0.617,0.175,1.129-0.037,1.685-0.127
			c0.124-0.02,0.246-0.063,0.369-0.067c1.42-0.042,2.84-0.072,4.259-0.118c0.579-0.019,1.157-0.068,1.735-0.105
			c0.482-0.031,0.976-0.146,1.443-0.078c1.017,0.148,2.019,0.25,3.031-0.007c0.118-0.03,0.25-0.005,0.375-0.002
			c0.639,0.012,1.279,0.046,1.917,0.034c0.75-0.013,1.498-0.096,2.247-0.094c1.266,0.003,2.531,0.066,3.797,0.072
			c0.981,0.005,1.963-0.058,2.944-0.058c0.953,0,1.905,0.058,2.858,0.061c1.425,0.003,2.856-0.094,4.274-0.003
			C111.235,6.113,112,6,112.783,5.883c0.212-0.031,0.437-0.003,0.653,0.017c0.356,0.034,0.711,0.125,1.066,0.118
			c1.062-0.02,2.122-0.082,3.184-0.116c1.251-0.04,2.502-0.073,3.754-0.097c1.585-0.03,3.17-0.051,4.755-0.068
			c1.076-0.012,2.152-0.013,3.228-0.019c0.032,0,0.062-0.012,0.094-0.013c1.545-0.004,3.091-0.014,4.637-0.01
			c0.732,0.002,1.466,0.059,2.198,0.04c1.235-0.032,2.469-0.132,3.705-0.153c1.024-0.016,2.05,0.044,3.075,0.063
			c0.844,0.016,1.688,0.037,2.531,0.028c1.327-0.014,2.652-0.056,3.978-0.075c0.736-0.01,1.473-0.008,2.209,0.004
			c0.829,0.013,1.657,0.068,2.485,0.06c1.102-0.011,2.204-0.088,3.306-0.094c0.718-0.003,1.436,0.089,2.154,0.104
			c0.923,0.019,1.846,0.001,2.769,0.005c0.445,0.002,0.893,0.044,1.338,0.021c0.56-0.029,1.116-0.131,1.675-0.153
			c0.638-0.026,1.278,0.013,1.917,0.003c0.656-0.01,1.311-0.065,1.965-0.057c0.367,0.004,0.781,0.232,1.088,0.122
			c0.59-0.211,1.136-0.088,1.709-0.047c1.507,0.106,3.017,0.188,4.526,0.277c0.937,0.056,1.874,0.106,2.811,0.161
			c0.484,0.028,0.968,0.065,1.452,0.088c0.873,0.042,1.746,0.105,2.618,0.104c0.697-0.001,1.395-0.125,2.091-0.125
			c1.373,0.001,2.745,0.058,4.118,0.077c0.261,0.003,0.523-0.09,0.785-0.09c0.899,0.001,1.8,0.051,2.699,0.033
			c1.011-0.02,2.02-0.121,3.03-0.131c0.433-0.004,0.863,0.147,1.274-0.127c0.077-0.051,0.235,0.029,0.356,0.033
			c0.328,0.009,0.658,0.035,0.983,0.007c0.307-0.026,0.612-0.177,0.91-0.16c0.428,0.025,0.847,0.186,1.274,0.225
			c0.328,0.03,0.667-0.07,0.999-0.056c1.376,0.059,2.75,0.167,4.127,0.198c0.735,0.016,1.464-0.005,2.214-0.154
			c0.703-0.14,1.49,0.153,2.243,0.238c0.219,0.025,0.446,0,0.667-0.024c0.229-0.025,0.455-0.117,0.679-0.11
			c0.402,0.014,0.831-0.198,1.208,0.129c0.05,0.043,0.204-0.037,0.311-0.055c0.137-0.023,0.274-0.062,0.41-0.057
			c0.883,0.031,1.766,0.099,2.648,0.104c0.993,0.006,1.973-0.136,2.982,0.045c0.773,0.138,1.602-0.04,2.406-0.073
			c0.81-0.033,1.62-0.077,2.43-0.089c1.264-0.019,2.529-0.043,3.793-0.011c1.007,0.026,2.005-0.351,3.024-0.011
			c0.339,0.113,0.743,0.042,1.117,0.041c0.89-0.004,1.78-0.006,2.669-0.031c0.303-0.008,0.603-0.086,0.906-0.118
			c0.165-0.017,0.334-0.014,0.499,0.003c0.181,0.019,0.361,0.101,0.54,0.094c1.114-0.041,2.23,0.184,3.35-0.107
			c0.387-0.101,0.848,0.116,1.278,0.134c0.79,0.033,1.581,0.027,2.371,0.036c0.668,0.007,1.348,0.132,1.963-0.277
			c0.264-0.175,0.524-0.116,0.782,0.083c0.131,0.101,0.338,0.18,0.496,0.159c1.075-0.145,2.145-0.337,3.21,0.053
			c0.054,0.02,0.123-0.004,0.184-0.007c1.054-0.057,2.107-0.116,3.162-0.168c0.25-0.012,0.515,0.056,0.748-0.005
			c1.146-0.302,2.319-0.131,3.477-0.219c0.711-0.055,1.434,0.074,2.152,0.079c1.086,0.007,2.172-0.029,3.258-0.034
			c1.298-0.005,2.596,0.013,3.894-0.001c0.403-0.005,0.806-0.109,1.209-0.121c0.651-0.02,1.306,0.036,1.955-0.01
			c0.654-0.046,1.321-0.319,1.949-0.238c0.927,0.119,1.824,0.135,2.749,0.027c1.019-0.119,2.026,0.343,3.074,0.081
			c0.428-0.106,0.917,0.061,1.374,0.039c0.54-0.027,1.076-0.175,1.615-0.179c1.436-0.009,2.872,0.026,4.309,0.054
			c0.718,0.014,1.436,0.065,2.153,0.073c0.541,0.006,1.083-0.054,1.622-0.041c0.812,0.02,1.623,0.116,2.434,0.111
			c1.361-0.008,2.721-0.095,4.082-0.101c1.404-0.006,2.809,0.058,4.213,0.065c0.902,0.005,1.808-0.087,2.707-0.044
			c0.835,0.04,1.647,0.087,2.456-0.208c0.247-0.09,0.558-0.035,0.835-0.008c0.342,0.034,0.68,0.163,1.018,0.157
			c1.417-0.022,2.833-0.079,4.249-0.125c0.031,0,0.062-0.012,0.092-0.016c0.939-0.106,1.878-0.218,2.818-0.312
			c0.309-0.031,0.624-0.04,0.933-0.017c0.43,0.031,0.857,0.129,1.286,0.148c0.715,0.031,1.431,0.018,2.146,0.029
			c0.642,0.01,1.289,0.087,1.923,0.025c0.716-0.069,1.378-0.278,2.153-0.149c1.06,0.177,2.173,0.046,3.262,0.025
			c0.717-0.014,1.432-0.074,2.148-0.1c0.416-0.016,0.833-0.002,1.25-0.005c0.837-0.005,1.674-0.01,2.511-0.019
			c0.391-0.004,0.784,0.007,1.173-0.025c0.992-0.083,1.981-0.212,2.975-0.271c0.559-0.033,1.125,0.026,1.686,0.061
			c0.525,0.032,1.052,0.147,1.572,0.118c0.714-0.04,1.423-0.266,2.133-0.26c1.136,0.009,2.27,0.166,3.406,0.22
			c0.968,0.047,1.939,0.032,2.909,0.058c0.372,0.01,0.743,0.094,1.113,0.083c0.828-0.025,1.656-0.142,2.482-0.124
			c1.389,0.03,2.775,0.151,4.165,0.203c0.434,0.017,0.871-0.073,1.308-0.098c0.633-0.037,1.268-0.054,1.9-0.09
			c1.39-0.08,2.777-0.197,4.167-0.241c1.199-0.039,2.402,0.016,3.602,0.004C367.137,4.5,367.777,4.44,368.365,4.407z"/>
		<path fill="#A4FF62" fill-rule="evenodd" clip-rule="evenodd" d="M368.365,4.407c-0.588,0.033-1.228,0.093-1.869,0.099
			c-1.2,0.012-2.403-0.043-3.602-0.004c-1.39,0.044-2.778,0.161-4.167,0.241c-0.633,0.036-1.267,0.053-1.9,0.09
			c-0.437,0.025-0.874,0.115-1.308,0.098c-1.39-0.052-2.776-0.173-4.165-0.203c-0.826-0.019-1.654,0.098-2.482,0.124
			c-0.37,0.01-0.741-0.074-1.113-0.083c-0.97-0.026-1.941-0.011-2.909-0.058c-1.137-0.054-2.271-0.21-3.406-0.22
			c-0.71-0.006-1.419,0.22-2.133,0.26c-0.52,0.029-1.046-0.085-1.572-0.118c-0.561-0.035-1.127-0.094-1.686-0.061
			c-0.994,0.059-1.982,0.188-2.975,0.271c-0.389,0.033-0.782,0.021-1.173,0.025c-0.837,0.008-1.674,0.014-2.511,0.019
			c-0.417,0.002-0.833-0.011-1.25,0.005c-0.716,0.026-1.432,0.086-2.148,0.1c-1.089,0.021-2.202,0.151-3.262-0.025
			c-0.775-0.129-1.438,0.08-2.153,0.149c-0.634,0.062-1.281-0.016-1.923-0.025c-0.715-0.011-1.431,0.002-2.146-0.029
			c-0.429-0.019-0.856-0.117-1.286-0.148c-0.309-0.023-0.624-0.014-0.933,0.017c-0.94,0.095-1.878,0.207-2.818,0.312
			c-0.031,0.003-0.062,0.015-0.092,0.016c-1.416,0.046-2.832,0.103-4.249,0.125c-0.338,0.005-0.676-0.123-1.018-0.157
			c-0.277-0.027-0.588-0.083-0.835,0.008c-0.809,0.295-1.621,0.248-2.456,0.208c-0.899-0.043-1.805,0.049-2.707,0.044
			c-1.404-0.007-2.809-0.072-4.213-0.065c-1.361,0.005-2.721,0.093-4.082,0.101c-0.811,0.004-1.622-0.092-2.434-0.111
			c-0.54-0.013-1.082,0.047-1.622,0.041c-0.718-0.008-1.436-0.059-2.153-0.073c-1.437-0.028-2.874-0.063-4.309-0.054
			c-0.539,0.004-1.075,0.152-1.615,0.179c-0.458,0.022-0.946-0.145-1.374-0.039c-1.048,0.262-2.055-0.2-3.074-0.081
			c-0.924,0.108-1.822,0.092-2.749-0.027c-0.628-0.081-1.295,0.191-1.949,0.238c-0.648,0.046-1.304-0.01-1.955,0.01
			c-0.404,0.012-0.806,0.116-1.209,0.121c-1.298,0.015-2.596-0.004-3.894,0.001c-1.086,0.005-2.172,0.041-3.258,0.034
			c-0.718-0.005-1.441-0.133-2.152-0.079c-1.158,0.088-2.331-0.083-3.477,0.219c-0.233,0.061-0.499-0.007-0.748,0.005
			c-1.054,0.052-2.108,0.111-3.162,0.168c-0.062,0.003-0.13,0.026-0.184,0.007c-1.065-0.39-2.136-0.198-3.21-0.053
			c-0.158,0.021-0.365-0.058-0.496-0.159c-0.258-0.199-0.519-0.257-0.782-0.083c-0.615,0.409-1.295,0.285-1.963,0.277
			c-0.79-0.009-1.581-0.003-2.371-0.036c-0.43-0.018-0.891-0.235-1.278-0.134c-1.12,0.292-2.236,0.067-3.35,0.107
			c-0.179,0.006-0.358-0.075-0.54-0.094c-0.165-0.017-0.334-0.02-0.499-0.003c-0.303,0.032-0.603,0.11-0.906,0.118
			c-0.889,0.024-1.779,0.027-2.669,0.031c-0.374,0.001-0.778,0.073-1.117-0.041c-1.02-0.34-2.018,0.037-3.024,0.011
			c-1.264-0.032-2.529-0.008-3.793,0.011c-0.81,0.012-1.62,0.056-2.43,0.089c-0.804,0.033-1.633,0.211-2.406,0.073
			c-1.01-0.181-1.99-0.039-2.982-0.045c-0.883-0.006-1.765-0.073-2.648-0.104c-0.136-0.005-0.273,0.034-0.41,0.057
			c-0.106,0.018-0.261,0.098-0.311,0.055c-0.378-0.328-0.807-0.116-1.208-0.129c-0.225-0.007-0.451,0.085-0.679,0.11
			c-0.221,0.024-0.448,0.049-0.667,0.024c-0.752-0.084-1.54-0.377-2.243-0.238c-0.75,0.149-1.479,0.17-2.214,0.154
			c-1.376-0.03-2.75-0.139-4.127-0.198c-0.332-0.014-0.671,0.086-0.999,0.056c-0.428-0.04-0.847-0.2-1.274-0.225
			c-0.298-0.017-0.604,0.134-0.91,0.16c-0.325,0.028-0.655,0.002-0.983-0.007c-0.122-0.004-0.28-0.084-0.356-0.033
			c-0.411,0.274-0.841,0.123-1.274,0.127c-1.011,0.01-2.02,0.111-3.03,0.131c-0.898,0.018-1.799-0.032-2.699-0.033
			c-0.262,0-0.524,0.094-0.785,0.09c-1.373-0.019-2.745-0.076-4.118-0.077c-0.696-0.001-1.394,0.123-2.091,0.125
			c-0.873,0.001-1.746-0.062-2.618-0.104c-0.484-0.023-0.968-0.061-1.452-0.088c-0.937-0.055-1.874-0.105-2.811-0.161
			c-1.509-0.089-3.019-0.17-4.526-0.277c-0.573-0.041-1.119-0.164-1.709,0.047c-0.307,0.11-0.722-0.117-1.088-0.122
			c-0.655-0.008-1.31,0.047-1.965,0.057c-0.639,0.009-1.279-0.029-1.917-0.003c-0.56,0.022-1.116,0.125-1.675,0.153
			c-0.445,0.022-0.893-0.02-1.338-0.021c-0.923-0.004-1.846,0.014-2.769-0.005c-0.719-0.015-1.437-0.107-2.154-0.104
			c-1.102,0.005-2.204,0.083-3.306,0.094c-0.828,0.008-1.656-0.047-2.485-0.06c-0.736-0.012-1.473-0.014-2.209-0.004
			c-1.326,0.019-2.651,0.061-3.978,0.075c-0.843,0.008-1.687-0.013-2.531-0.028c-1.025-0.02-2.051-0.08-3.075-0.063
			c-1.235,0.021-2.469,0.121-3.705,0.153c-0.732,0.019-1.466-0.038-2.198-0.04c-1.546-0.004-3.091,0.005-4.637,0.01
			c-0.031,0-0.062,0.013-0.094,0.013c-1.075,0.006-2.151,0.007-3.228,0.019c-1.585,0.018-3.17,0.039-4.755,0.068
			c-1.251,0.023-2.502,0.057-3.754,0.097c-1.062,0.034-2.122,0.096-3.184,0.116c-0.354,0.007-0.709-0.084-1.066-0.118
			c-0.217-0.021-0.441-0.048-0.653-0.017C112,6,111.235,6.113,110.422,6.06c-1.418-0.091-2.849,0.007-4.274,0.003
			c-0.953-0.003-1.905-0.061-2.858-0.061c-0.981,0-1.963,0.062-2.944,0.058c-1.266-0.006-2.531-0.069-3.797-0.072
			c-0.749-0.002-1.498,0.081-2.247,0.094c-0.639,0.012-1.278-0.022-1.917-0.034c-0.125-0.002-0.257-0.027-0.375,0.002
			c-1.012,0.258-2.014,0.156-3.031,0.007c-0.468-0.068-0.961,0.047-1.443,0.078c-0.578,0.037-1.156,0.086-1.735,0.105
			C84.38,6.286,82.96,6.316,81.54,6.358c-0.124,0.003-0.246,0.047-0.369,0.067c-0.555,0.09-1.067,0.302-1.685,0.127
			c-0.551-0.156-1.181-0.088-1.771-0.042c-0.838,0.065-1.629-0.277-2.491-0.157c-0.979,0.136-1.99,0.058-2.986,0.049
			c-0.975-0.008-1.949-0.049-2.924-0.071c-1.114-0.024-2.228-0.047-3.342-0.064c-0.939-0.014-1.878-0.021-2.817-0.025
			c-0.844-0.004-1.688,0-2.533,0c-0.063,0-0.126-0.01-0.188-0.007c-0.82,0.037-1.641,0.107-2.461,0.103
			c-0.731-0.004-1.461-0.094-2.192-0.139C55.548,6.184,55.312,6.2,55.08,6.188c-0.827-0.042-1.653-0.106-2.479-0.132
			c-0.403-0.013-0.808,0.032-1.212,0.059c-0.296,0.02-0.596,0.101-0.886,0.071c-1.694-0.172-3.375,0.093-5.062,0.125
			c-1.314,0.024-2.629-0.02-3.943,0c-1.159,0.017-2.318,0.09-3.478,0.119c-2.081,0.051-4.165,0.035-6.242,0.141
			c-2.429,0.124-4.88,0.007-7.259,0.749c-0.709,0.222-1.522,0.101-2.287,0.158c-0.856,0.065-1.712,0.15-2.567,0.235
			c-1.887,0.189-3.773,0.383-5.659,0.577c-1.493,0.153-2.986,0.312-4.479,0.459C9.278,8.773,9.011,8.809,8.778,8.746
			C7.27,8.333,5.741,8.418,4.208,8.505c-0.634,0.036-1.066-0.35-1.296-0.859C2.655,7.075,2.765,6.481,3.175,5.968
			C3.46,5.612,3.835,5.47,4.273,5.409C5.272,5.272,6.261,5.19,7.257,5.463c1.157,0.317,2.334,0.185,3.507,0.083
			c1.421-0.124,2.844-0.225,4.262-0.364c1.493-0.146,2.982-0.329,4.473-0.489c0.887-0.095,1.777-0.154,2.661-0.27
			c0.712-0.093,1.413-0.266,2.124-0.366c0.302-0.042,0.622,0.047,0.928,0.016c0.929-0.098,1.854-0.247,2.784-0.334
			c0.764-0.072,1.533-0.068,2.297-0.13c0.509-0.041,1.012-0.159,1.521-0.202c0.353-0.029,0.71,0.002,1.065,0.023
			c0.202,0.012,0.419,0.124,0.598,0.076c1.161-0.314,2.302,0.003,3.451,0.058c0.452,0.021,0.908-0.07,1.361-0.066
			c2.067,0.019,4.133,0.073,6.2,0.074c0.89,0.001,1.78-0.106,2.671-0.142c1.064-0.042,2.129-0.05,3.193-0.093
			c0.719-0.029,1.435-0.106,2.152-0.138c1.312-0.057,2.625-0.097,3.937-0.141c0.125-0.004,0.265,0.048,0.373,0.008
			c0.726-0.268,1.455-0.079,2.187-0.062c1.281,0.029,2.564-0.044,3.845-0.024c0.875,0.014,1.749,0.113,2.623,0.169
			c0.281,0.018,0.562,0.021,0.844,0.03c0.983,0.033,1.967,0.079,2.952,0.096c1.159,0.021,2.318,0.018,3.478,0.022
			c1.375,0.005,2.75,0.02,4.125,0.007c0.936-0.008,1.872-0.054,2.808-0.085c1.862-0.062,3.725-0.127,5.586-0.188
			c0.845-0.028,1.689-0.078,2.534-0.064c1.354,0.021,2.708,0.087,4.062,0.131c0.108,0.003,0.218-0.019,0.327-0.019
			c0.56,0,1.12,0.009,1.679,0.005c0.468-0.003,0.938-0.008,1.405-0.03c0.871-0.042,1.741-0.118,2.613-0.139
			c1.394-0.034,2.788-0.047,4.183-0.045c1.644,0.002,3.287,0.044,4.931,0.036c0.51-0.003,1.02-0.17,1.53-0.169
			c1.107,0.001,2.215,0.089,3.323,0.092c1.048,0.003,2.096-0.083,3.145-0.079c0.778,0.002,1.554,0.102,2.333,0.125
			c0.321,0.01,0.644-0.091,0.968-0.1c0.94-0.025,1.882-0.055,2.821-0.034c1,0.021,1.998,0.1,2.997,0.151
			c0.156,0.008,0.313,0.009,0.469,0.002c1.578-0.068,3.156-0.137,4.734-0.209c0.375-0.018,0.749-0.069,1.123-0.067
			c1.283,0.004,2.566,0.065,3.847,0.03c1.311-0.036,2.619-0.183,3.93-0.233c0.734-0.028,1.471,0.041,2.207,0.064
			c1.424,0.046,2.849,0.137,4.274,0.125c1.523-0.013,3.047-0.137,4.571-0.186c0.547-0.017,1.096,0.058,1.644,0.064
			c1.361,0.017,2.724,0.026,4.085,0.023c1.206-0.002,2.412-0.007,3.618-0.045c1.402-0.044,2.804-0.141,4.207-0.186
			c0.671-0.022,1.346,0.045,2.018,0.027c0.851-0.023,1.701-0.111,2.553-0.132c0.382-0.01,0.787,0.012,1.147,0.129
			c1.003,0.326,2.025,0.154,3.03,0.131c0.719-0.017,1.417-0.016,2.136,0.073c0.813,0.101,1.649,0.001,2.474,0.033
			c1.184,0.044,2.366,0.15,3.55,0.19c1.062,0.035,2.126,0.007,3.189,0.023c0.752,0.011,1.512,0.132,2.254,0.057
			c1.567-0.158,3.107,0.107,4.66,0.16c0.758,0.025,1.52-0.113,2.281-0.14c1.219-0.043,2.439-0.06,3.66-0.08
			c0.83-0.014,1.66-0.033,2.489-0.017c0.971,0.02,1.94,0.105,2.911,0.108c0.827,0.002,1.653-0.087,2.481-0.108
			c0.325-0.008,0.651,0.083,0.977,0.086c1.045,0.009,2.09-0.007,3.135-0.001c0.938,0.004,1.876,0.019,2.813,0.037
			c0.139,0.003,0.274,0.065,0.413,0.076c0.397,0.029,0.822,0.146,1.188,0.047c0.667-0.179,1.279-0.284,2.003-0.188
			c1.329,0.177,2.689,0.158,4.036,0.15c1.4-0.008,2.8-0.096,4.2-0.157c0.422-0.019,0.845-0.1,1.266-0.088
			c0.416,0.01,0.829,0.106,1.244,0.155c0.295,0.035,0.622,0.146,0.881,0.062c0.866-0.283,1.737-0.126,2.608-0.153
			c1.253-0.039,2.503-0.164,3.757-0.207c0.748-0.026,1.5,0.022,2.248,0.058c0.969,0.045,1.937,0.154,2.904,0.155
			c1.062,0.001,2.125-0.086,3.187-0.139c0.828-0.042,1.655-0.099,2.483-0.13c0.147-0.006,0.294,0.11,0.445,0.119
			c0.667,0.043,1.339,0.131,2.001,0.087c1.877-0.125,3.75-0.102,5.625,0.003c0.416,0.024,0.838-0.063,1.257-0.104
			c1.131-0.108,2.261-0.278,3.395-0.312c1.102-0.032,2.208,0.107,3.312,0.108c0.888,0.001,1.775-0.119,2.663-0.134
			c0.524-0.008,1.071,0.012,1.571,0.151c0.625,0.175,1.204,0.011,1.802-0.047c0.373-0.036,0.746-0.084,1.12-0.104
			c1.281-0.065,2.562-0.137,3.844-0.174c1.718-0.05,3.438-0.083,5.157-0.095c0.432-0.003,0.871,0.079,1.296,0.167
			c0.646,0.133,1.275,0.195,1.942,0.089c0.861-0.138,1.739-0.191,2.612-0.219c0.606-0.019,1.217,0.067,1.826,0.105
			c0.387,0.025,0.775,0.051,1.163,0.074c0.889,0.051,1.776,0.119,2.666,0.145c0.421,0.012,0.843-0.089,1.264-0.084
			c0.932,0.012,1.863,0.061,2.795,0.088c0.655,0.019,1.31,0.029,1.965,0.036c0.154,0.001,0.31-0.02,0.463-0.042
			c0.519-0.079,1.036-0.229,1.555-0.232c0.904-0.007,1.808,0.111,2.711,0.109c0.845-0.002,1.69-0.09,2.535-0.146
			c0.468-0.032,0.935-0.091,1.403-0.111c1.502-0.064,3.005-0.123,4.508-0.168c0.827-0.025,1.655-0.031,2.482-0.028
			c0.704,0.003,1.407,0.042,2.111,0.046c0.275,0.001,0.549-0.062,0.825-0.077c0.228-0.012,0.458-0.001,0.686,0.006
			c0.108,0.002,0.217,0.027,0.326,0.025c1.376-0.018,2.753-0.032,4.129-0.06c1.565-0.032,3.132-0.06,4.696-0.121
			c2.284-0.089,4.566-0.223,6.851-0.306c1.514-0.054,3.031-0.036,4.545-0.085c0.67-0.021,1.338-0.13,2.007-0.189
			c0.217-0.019,0.437-0.018,0.654-0.005c0.219,0.013,0.436,0.071,0.654,0.076c1.045,0.022,2.091,0.017,3.135,0.058
			c0.462,0.018,0.921,0.136,1.383,0.188c0.243,0.028,0.551,0.106,0.726-0.003c0.525-0.33,1.09-0.255,1.641-0.255
			c1.409,0,2.819,0.014,4.227,0.078c1.014,0.046,2.022,0.223,3.035,0.266c1.168,0.049,2.34,0.006,3.509,0.019
			c0.766,0.008,1.531,0.029,2.295,0.075c0.609,0.036,1.219,0.18,1.825,0.164c0.772-0.02,1.54-0.153,2.31-0.238
			c0.109-0.012,0.216-0.039,0.325-0.046c0.795-0.054,1.589-0.132,2.384-0.144c0.48-0.007,0.963,0.139,1.444,0.133
			c1.518-0.017,3.034-0.086,4.553-0.111c0.732-0.011,1.587,0.778,1.671,1.395c0.071,0.513,0.051,0.941-0.373,1.302
			C369.626,4.24,368.997,4.446,368.365,4.407z"/>
	</g>
</g>
</svg>
