<?xml version="1.0" encoding="utf-8"?>
<!-- Generator: Adobe Illustrator 16.0.0, SVG Export Plug-In . SVG Version: 6.00 Build 0)  -->
<!DOCTYPE svg PUBLIC "-//W3C//DTD SVG 1.1//EN" "http://www.w3.org/Graphics/SVG/1.1/DTD/svg11.dtd">
<svg version="1.1" id="Layer_1" xmlns="http://www.w3.org/2000/svg" xmlns:xlink="http://www.w3.org/1999/xlink" x="0px" y="0px"
	 width="376.868px" height="9.929px" viewBox="0 0 376.868 9.929" enable-background="new 0 0 376.868 9.929" xml:space="preserve">
<g id="xlUa6T_1_">
	<g>
		<g>
			<path fill="#A4FF62" d="M3.307,4.22C2.641,4.158,2.174,4.354,1.862,5.008C1.511,5.743,1.83,6.387,2.156,6.931
				c0.193,0.323,0.788,0.456,1.229,0.563c0.447,0.11,0.976-0.03,1.382,0.143C5.36,7.891,5.949,7.898,6.554,7.905
				c0.577,0.007,1.154-0.029,1.731-0.026c0.618,0.002,1.236,0.046,1.854,0.037c0.623-0.01,1.244-0.072,1.867-0.09
				c0.764-0.023,1.529-0.039,2.293-0.031c1.323,0.014,2.645,0.048,3.967,0.075c1.026,0.021,2.052,0.083,3.077,0.059
				c1.304-0.03,2.606-0.171,3.91-0.188c1.317-0.017,2.635,0.059,3.953,0.097c0.481,0.014,0.962,0.043,1.443,0.054
				c1.161,0.026,2.327,0.226,3.473-0.149c0.264-0.087,0.546-0.155,0.821-0.161c1.152-0.024,2.304-0.024,3.456-0.027
				c0.961-0.003,1.924,0.029,2.884-0.005c0.669-0.024,1.333-0.182,2.002-0.197c1.004-0.023,2.01,0.023,3.015,0.043
				c1.498,0.027,2.996,0.068,4.494,0.077c0.575,0.003,1.15-0.094,1.725-0.099c1.213-0.01,2.427,0.035,3.64,0.012
				c1.59-0.031,3.179-0.137,4.769-0.156c0.977-0.012,1.956,0.119,2.933,0.107c1.241-0.016,2.466-0.201,3.725-0.058
				c1.497,0.171,3.017,0.13,4.526,0.192c0.886,0.037,1.8,0.262,2.648,0.107c1.435-0.26,2.854,0.045,4.277-0.106
				c1.032-0.108,2.082-0.048,3.121-0.108c0.573-0.033,1.138-0.219,1.709-0.238c1.445-0.051,2.893-0.053,4.34-0.062
				c2.116-0.015,4.232-0.025,6.349-0.025c0.805,0,1.61,0.031,2.416,0.051c0.276,0.006,0.554,0.037,0.83,0.028
				c0.413-0.012,0.825-0.058,1.238-0.069c0.217-0.006,0.435,0.045,0.652,0.043c1.773-0.021,3.547-0.049,5.32-0.073
				c0.062-0.001,0.125,0.003,0.187-0.001c0.93-0.07,1.859-0.15,2.789-0.207c0.684-0.041,1.371-0.031,2.054-0.076
				c0.863-0.059,1.724-0.194,2.587-0.216c0.74-0.019,1.483,0.104,2.226,0.113c0.678,0.009,1.356-0.081,2.034-0.075
				c0.637,0.005,1.273,0.119,1.908,0.111c1.248-0.018,2.494-0.096,3.742-0.131c0.98-0.028,1.962-0.018,2.943-0.051
				c0.711-0.023,1.421-0.111,2.132-0.131c0.322-0.008,0.646,0.112,0.97,0.115c0.746,0.01,1.491-0.029,2.237-0.026
				c0.481,0.002,0.963,0.069,1.443,0.062c1.46-0.021,2.92-0.063,4.38-0.097c0.294-0.007,0.611-0.084,0.878-0.001
				c1.449,0.449,2.913,0.198,4.375,0.155c1.211-0.036,2.423-0.048,3.634-0.052c0.648-0.002,1.297,0.066,1.944,0.045
				c1.935-0.064,3.87-0.158,5.805-0.238c0.093-0.004,0.187,0.021,0.28,0.018c1.194-0.035,2.388-0.066,3.582-0.115
				c0.336-0.014,0.668-0.112,1.003-0.116c0.945-0.011,1.891,0.022,2.836,0.011c1.331-0.016,2.661-0.062,3.991-0.082
				c1.014-0.014,2.029,0.014,3.043-0.012c1.649-0.041,3.298-0.158,4.946-0.15c1.071,0.005,2.14,0.223,3.213,0.262
				c1.834,0.066,3.671,0.088,5.507,0.086c0.98-0.002,1.959-0.117,2.94-0.131c0.604-0.009,1.208,0.115,1.813,0.115
				c1.321-0.001,2.643-0.021,3.963-0.076c1.073-0.046,2.143-0.172,3.216-0.23c0.62-0.033,1.245,0.018,1.866,0
				c1.193-0.034,2.387-0.145,3.578-0.124c1.613,0.028,3.224,0.152,4.835,0.229c0.105,0.006,0.213-0.046,0.32-0.055
				c0.667-0.055,1.333-0.142,2-0.146c0.947-0.008,1.895,0.059,2.842,0.07c0.383,0.005,0.768-0.074,1.151-0.07
				c0.714,0.007,1.427,0.055,2.141,0.071c1.307,0.03,2.614,0.042,3.921,0.076c0.45,0.012,0.901,0.1,1.35,0.091
				c1.12-0.02,2.238-0.088,3.358-0.113c0.479-0.011,0.96,0.062,1.44,0.055c0.966-0.015,1.932-0.062,2.897-0.09
				c1.574-0.045,3.148-0.08,4.722-0.129c0.992-0.031,1.983-0.082,2.975-0.121c0.125-0.005,0.249,0.006,0.374,0.01
				c0.651,0.021,1.304,0.076,1.954,0.059c1.085-0.029,2.168-0.131,3.253-0.152c0.535-0.011,1.071,0.107,1.608,0.133
				c0.746,0.037,1.493,0.038,2.24,0.061c0.654,0.02,1.31,0.093,1.96,0.059c0.756-0.041,1.504-0.222,2.26-0.253
				c1.287-0.053,2.577-0.051,3.865-0.043c0.559,0.004,1.12,0.138,1.675,0.111c1.35-0.065,2.696-0.21,4.046-0.286
				c0.909-0.053,1.821-0.039,2.731-0.061c1.011-0.023,2.022-0.059,3.033-0.081c1.139-0.026,2.278-0.032,3.417-0.073
				c0.351-0.013,0.711-0.199,1.045-0.15c1.08,0.153,2.141,0.268,3.244,0.123c1.167-0.153,2.356-0.137,3.536-0.199
				c1.444-0.076,2.888-0.164,4.332-0.236c1.46-0.072,2.92-0.141,4.381-0.188c0.466-0.015,0.938,0.093,1.402,0.062
				c1.431-0.096,2.853-0.184,4.295-0.063c1.03,0.085,2.08-0.077,3.121-0.123c1.761-0.078,3.521-0.175,5.283-0.22
				c1.18-0.031,2.362,0.006,3.543,0.023c1.463,0.023,2.927,0.243,4.392,0.001c0.276-0.046,0.561-0.065,0.839-0.054
				c0.996,0.042,1.99,0.128,2.985,0.148c0.87,0.018,1.741-0.049,2.611-0.043c0.997,0.005,1.994,0.034,2.99,0.078
				c1.628,0.071,3.256,0.162,4.884,0.246c0.17,0.01,0.341,0.046,0.511,0.044c0.84-0.009,1.68-0.048,2.52-0.035
				c1.123,0.018,2.246,0.129,3.367,0.102c2.354-0.058,4.707-0.168,7.06-0.28c1.508-0.072,3.012-0.091,4.521-0.001
				c0.961,0.058,1.931-0.026,2.896-0.051c1.918-0.049,3.836-0.128,5.755-0.142c1.32-0.01,2.642,0.074,3.963,0.107
				c0.543,0.014,1.087,0.001,1.63,0.01c0.468,0.007,0.935,0.036,1.402,0.04c1.4,0.013,2.802-0.009,4.202,0.031
				c1.226,0.034,2.451,0.112,3.673,0.21c1.161,0.093,2.316,0.262,3.478,0.341c0.382,0.026,0.817-0.044,1.154-0.216
				c0.569-0.287,0.827-0.838,0.984-1.461c0.17-0.674-0.472-1.725-1.168-1.756c-0.481-0.021-0.968-0.001-1.448,0.05
				c-0.681,0.071-1.364,0.304-2.033,0.259c-1.053-0.07-2.1-0.241-3.163-0.182c-0.107,0.006-0.216-0.029-0.325-0.037
				c-0.42-0.031-0.842-0.1-1.26-0.082c-1.102,0.045-2.203,0.183-3.303,0.179c-1.407-0.005-2.814-0.106-4.222-0.177
				c-1.694-0.086-3.389-0.179-5.083-0.279c-0.99-0.058-1.979-0.138-2.97-0.204c-0.108-0.007-0.219,0.003-0.327,0.018
				c-1.201,0.161-2.397,0.378-3.604,0.47c-1.164,0.088-2.336,0.049-3.505,0.062c-1.077,0.012-2.154,0.01-3.231,0.031
				c-0.903,0.018-1.805,0.066-2.707,0.086c-0.478,0.01-0.957-0.031-1.435-0.021c-0.358,0.008-0.716,0.099-1.072,0.086
				c-1.756-0.063-3.511-0.161-5.267-0.221c-0.559-0.018-1.122,0.086-1.68,0.062c-0.978-0.043-1.953-0.156-2.931-0.209
				c-0.964-0.053-1.93-0.078-2.896-0.092c-0.466-0.006-0.933,0.061-1.399,0.061c-1.276-0.002-2.552-0.014-3.828-0.036
				c-0.53-0.009-1.061-0.101-1.588-0.081c-1.475,0.056-2.947,0.186-4.423,0.219c-1.272,0.028-2.548-0.067-3.821-0.053
				c-1.742,0.021-3.483,0.098-5.225,0.148c-0.811,0.025-1.622,0.051-2.433,0.066c-0.918,0.018-1.837,0.03-2.755,0.033
				c-0.962,0.003-1.925-0.013-2.887-0.012c-1.073,0.002-2.146,0.003-3.219,0.023c-0.538,0.01-1.075,0.061-1.612,0.096
				c-0.183,0.012-0.365,0.048-0.548,0.043c-0.429-0.009-0.858-0.062-1.287-0.049c-0.631,0.021-1.261,0.088-1.892,0.131
				c-0.045,0.004-0.094-0.012-0.137-0.029c-0.977-0.38-1.956-0.1-2.935-0.014c-0.369,0.033-0.738,0.103-1.107,0.105
				c-0.714,0.006-1.43-0.036-2.144-0.034c-1.396,0.003-2.794-0.006-4.188,0.048c-0.755,0.029-1.504,0.225-2.259,0.262
				c-1.022,0.05-2.048,0.021-3.072,0.023c-1.215,0.005-2.431,0.023-3.646,0.008c-0.959-0.013-1.917-0.084-2.876-0.094
				c-0.264-0.003-0.567,0.237-0.787,0.166c-0.641-0.209-1.262-0.045-1.893-0.039c-0.809,0.008-1.617-0.041-2.426-0.027
				c-0.612,0.011-1.224,0.1-1.836,0.123c-1.054,0.041-2.107,0.057-3.161,0.089c-0.229,0.007-0.458,0.053-0.688,0.062
				c-0.849,0.035-1.699,0.073-2.549,0.084c-0.339,0.005-0.68-0.084-1.021-0.084c-0.479,0.002-0.989,0.166-1.431,0.051
				c-1.214-0.315-2.378,0.189-3.578,0.099c-1.24-0.095-2.492-0.011-3.738-0.028c-0.982-0.015-1.963-0.071-2.945-0.098
				c-0.745-0.021-1.491-0.014-2.236-0.038c-0.575-0.02-1.149-0.079-1.724-0.102c-0.149-0.006-0.301,0.062-0.452,0.092
				c-0.409,0.083-0.816,0.222-1.228,0.234c-0.979,0.028-1.964-0.067-2.937,0.008c-0.998,0.077-1.973-0.026-2.958-0.104
				c-0.792-0.062-1.59-0.047-2.385-0.058c-1.483-0.021-2.975,0.27-4.449-0.114c-0.087-0.023-0.185-0.012-0.277-0.007
				c-0.963,0.054-1.931,0.192-2.887,0.138c-0.646-0.038-1.263-0.037-1.895,0.08c-0.299,0.056-0.62,0.01-0.93-0.009
				c-0.65-0.036-1.3-0.103-1.951-0.122c-0.401-0.013-0.804,0.051-1.207,0.059c-0.732,0.015-1.49-0.104-2.191,0.049
				c-1.041,0.225-2.069,0.129-3.104,0.135c-0.461,0.004-0.944,0.122-1.377,0.018c-0.792-0.19-1.54-0.004-2.306,0.08
				c-0.151,0.016-0.306,0.004-0.459,0.005c-0.269,0-0.539-0.014-0.807,0.003c-0.2,0.014-0.398,0.098-0.597,0.096
				c-1.088-0.006-2.175-0.03-3.263-0.047c-1.025-0.014-2.05-0.045-3.074-0.035c-0.978,0.009-1.965,0.162-2.931,0.072
				c-1.423-0.133-2.848,0.07-4.274-0.193c-1.054-0.195-2.157-0.127-3.239-0.17c-0.835-0.033-1.673-0.114-2.48,0.212
				c-0.105,0.042-0.262,0.042-0.365-0.005c-0.733-0.33-1.464-0.051-2.194-0.01c-0.215,0.012-0.476,0.097-0.636,0.006
				c-0.547-0.311-1.087-0.114-1.632-0.066c-0.185,0.016-0.371,0.037-0.556,0.039c-0.698,0.012-1.396-0.004-2.093,0.026
				c-0.871,0.038-1.739,0.128-2.609,0.159c-0.429,0.014-0.862-0.096-1.291-0.078c-0.997,0.042-2.014-0.195-2.988,0.199
				c-0.041,0.016-0.092,0.002-0.139,0.004c-0.383,0.018-0.768,0.014-1.147,0.055c-0.527,0.059-1.08-0.162-1.585,0.141
				c-0.021,0.013-0.061-0.008-0.092-0.008c-0.71,0.006-1.428-0.107-2.113,0.213c-0.139,0.066-0.336,0.016-0.506,0.008
				c-0.849-0.038-1.697-0.093-2.547-0.117c-0.621-0.018-1.243,0.012-1.864,0.006c-1.178-0.012-2.361-0.109-3.532-0.029
				c-1.052,0.071-2.098,0.188-3.149,0.076c-0.571-0.061-1.134-0.248-1.704-0.268c-0.928-0.033-1.859,0.017-2.788,0.046
				c-0.31,0.01-0.649,0.165-0.92,0.078c-0.75-0.239-1.509-0.183-2.268-0.204c-0.743-0.02-1.487-0.045-2.23-0.028
				c-0.74,0.017-1.479,0.071-2.218,0.127c-0.592,0.045-1.2-0.163-1.779,0.208c-0.181,0.115-0.526-0.02-0.795-0.049
				c-0.137-0.014-0.271-0.07-0.407-0.071c-1.738-0.02-3.477-0.048-5.215-0.038c-0.555,0.004-1.107,0.147-1.663,0.165
				c-0.925,0.03-1.852-0.003-2.777,0.015c-1.44,0.027-2.881,0.076-4.321,0.115c-0.528,0.016-1.104,0.17-1.575,0.013
				c-0.881-0.294-1.728,0.083-2.585-0.047c-0.378-0.058-0.769-0.053-1.153-0.039c-0.98,0.034-1.959,0.104-2.939,0.134
				c-1.471,0.047-2.942,0.076-4.413,0.102c-0.335,0.006-0.672-0.051-1.008-0.051c-0.246,0-0.491,0.043-0.736,0.072
				c-0.228,0.027-0.454,0.092-0.68,0.089c-0.529-0.007-1.059-0.073-1.586-0.06c-0.795,0.018-1.589,0.109-2.384,0.122
				c-1.315,0.021-2.631-0.005-3.947,0.009c-0.945,0.009-1.891,0.047-2.835,0.076c-0.576,0.018-1.153,0.035-1.728,0.065
				c-0.645,0.034-1.288,0.108-1.933,0.119c-1.073,0.018-2.146-0.004-3.22-0.004c-0.389,0.001-0.777,0.021-1.167,0.023
				c-0.773,0.005-1.547,0.015-2.32,0c-0.212-0.004-0.452-0.181-0.628-0.122c-0.625,0.204-1.21,0.052-1.833-0.012
				c-1.188-0.121-2.393-0.09-3.591-0.088c-1.027,0.002-2.053,0.068-3.08,0.076c-1.091,0.009-2.19,0.052-3.271-0.057
				c-0.678-0.066-1.224,0.354-1.967,0.191c-1.09-0.239-2.264-0.111-3.401-0.104c-0.96,0.006-1.919,0.1-2.878,0.091
				c-1.183-0.011-2.364-0.089-3.546-0.133c-0.39-0.015-0.791-0.072-1.168-0.007c-1.172,0.205-2.326,0.113-3.484-0.088
				c-0.24-0.041-0.497-0.021-0.743,0.005C42.071,3.99,41.224,4.1,40.375,4.192c-0.415,0.046-0.835,0.124-1.246,0.096
				c-0.723-0.05-1.438-0.188-2.16-0.252c-0.508-0.046-1.089-0.19-1.521-0.01c-1.083,0.452-2.22,0.214-3.315,0.423
				c-0.689,0.133-1.421-0.192-2.125,0.08c-0.065,0.025-0.153-0.01-0.231-0.016c-0.861-0.053-1.723-0.125-2.585-0.154
				c-0.588-0.019-1.182,0.068-1.767,0.028c-0.639-0.044-1.266-0.176-1.896,0.071c-0.143,0.056-0.335-0.029-0.504-0.026
				c-0.602,0.008-1.205,0.011-1.807,0.043c-0.658,0.035-1.314,0.104-1.973,0.15c-0.26,0.019-0.531-0.032-0.779,0.024
				c-0.722,0.169-1.423,0.098-2.129-0.082c-0.234-0.061-0.485-0.067-0.729-0.07c-0.493-0.006-0.985,0.008-1.479,0.012
				c-0.218,0.002-0.435-0.004-0.652-0.002c-0.756,0.004-1.513,0.012-2.269,0.016c-0.729,0.004-1.457,0.004-2.185,0.01
				C8.077,4.54,7.127,4.6,6.183,4.547C5.221,4.494,4.266,4.334,3.307,4.22z"/>
			<path fill="#A4FF62" fill-rule="evenodd" clip-rule="evenodd" d="M3.307,4.22c0.958,0.114,1.914,0.274,2.876,0.327
				C7.127,4.6,8.077,4.54,9.025,4.533c0.728-0.006,1.456-0.006,2.185-0.01c0.756-0.004,1.512-0.012,2.269-0.016
				c0.217-0.002,0.435,0.004,0.652,0.002c0.493-0.004,0.986-0.018,1.479-0.012c0.244,0.003,0.496,0.01,0.729,0.07
				c0.706,0.18,1.407,0.251,2.129,0.082c0.248-0.057,0.52-0.006,0.779-0.024c0.658-0.046,1.314-0.115,1.973-0.15
				c0.602-0.032,1.205-0.035,1.807-0.043c0.169-0.003,0.361,0.082,0.504,0.026c0.63-0.247,1.257-0.115,1.896-0.071
				c0.585,0.04,1.179-0.047,1.767-0.028c0.862,0.029,1.724,0.102,2.585,0.154c0.078,0.006,0.166,0.041,0.231,0.016
				c0.703-0.272,1.436,0.053,2.125-0.08c1.095-0.209,2.232,0.029,3.315-0.423c0.432-0.181,1.013-0.036,1.521,0.01
				c0.722,0.063,1.437,0.202,2.16,0.252c0.411,0.028,0.831-0.05,1.246-0.096C41.224,4.1,42.071,3.99,42.92,3.901
				c0.246-0.026,0.503-0.046,0.743-0.005c1.158,0.201,2.312,0.293,3.484,0.088c0.377-0.065,0.778-0.008,1.168,0.007
				c1.182,0.044,2.363,0.122,3.546,0.133c0.959,0.009,1.918-0.085,2.878-0.091c1.138-0.008,2.312-0.136,3.401,0.104
				c0.743,0.162,1.289-0.258,1.967-0.191c1.082,0.108,2.18,0.065,3.271,0.057c1.027-0.008,2.053-0.074,3.08-0.076
				c1.198-0.002,2.403-0.033,3.591,0.088c0.622,0.063,1.208,0.216,1.833,0.012c0.176-0.059,0.416,0.118,0.628,0.122
				c0.773,0.015,1.546,0.005,2.32,0c0.389-0.003,0.778-0.022,1.167-0.023c1.073,0,2.147,0.021,3.22,0.004
				c0.645-0.011,1.288-0.085,1.933-0.119c0.575-0.03,1.152-0.048,1.728-0.065c0.945-0.029,1.89-0.067,2.835-0.076
				c1.315-0.014,2.632,0.013,3.947-0.009c0.795-0.013,1.589-0.104,2.384-0.122c0.527-0.014,1.057,0.053,1.586,0.06
				c0.226,0.003,0.452-0.062,0.68-0.089c0.245-0.029,0.49-0.072,0.736-0.072c0.336,0,0.672,0.057,1.008,0.051
				c1.471-0.025,2.942-0.055,4.413-0.102c0.98-0.03,1.959-0.1,2.939-0.134c0.384-0.014,0.775-0.019,1.153,0.039
				c0.858,0.13,1.705-0.247,2.585,0.047c0.471,0.157,1.046,0.003,1.575-0.013c1.44-0.039,2.881-0.088,4.321-0.115
				c0.926-0.018,1.852,0.016,2.777-0.015c0.556-0.018,1.108-0.161,1.663-0.165c1.738-0.01,3.477,0.019,5.215,0.038
				c0.136,0.001,0.27,0.058,0.407,0.071c0.269,0.029,0.614,0.164,0.795,0.049c0.58-0.371,1.188-0.163,1.779-0.208
				c0.739-0.056,1.479-0.11,2.218-0.127c0.743-0.017,1.487,0.009,2.23,0.028c0.759,0.021,1.518-0.035,2.268,0.204
				c0.271,0.087,0.61-0.068,0.92-0.078c0.929-0.029,1.86-0.079,2.788-0.046c0.57,0.02,1.133,0.207,1.704,0.268
				c1.051,0.112,2.098-0.005,3.149-0.076c1.171-0.08,2.354,0.018,3.532,0.029c0.622,0.006,1.243-0.023,1.864-0.006
				c0.85,0.024,1.698,0.079,2.547,0.117c0.17,0.008,0.367,0.059,0.506-0.008c0.685-0.32,1.403-0.207,2.113-0.213
				c0.031,0,0.071,0.021,0.092,0.008c0.505-0.303,1.058-0.082,1.585-0.141c0.38-0.041,0.765-0.037,1.147-0.055
				c0.047-0.002,0.099,0.012,0.139-0.004c0.974-0.395,1.992-0.157,2.988-0.199c0.428-0.018,0.862,0.092,1.291,0.078
				c0.87-0.031,1.738-0.121,2.609-0.159c0.697-0.03,1.395-0.015,2.093-0.026c0.186-0.002,0.371-0.023,0.556-0.039
				c0.545-0.048,1.085-0.244,1.632,0.066c0.16,0.091,0.421,0.006,0.636-0.006c0.73-0.041,1.461-0.32,2.194,0.01
				c0.104,0.047,0.26,0.047,0.365,0.005c0.807-0.326,1.646-0.245,2.48-0.212c1.082,0.043,2.185-0.025,3.239,0.17
				c1.427,0.264,2.852,0.061,4.274,0.193c0.966,0.09,1.953-0.063,2.931-0.072c1.024-0.01,2.049,0.021,3.074,0.035
				c1.087,0.017,2.175,0.041,3.263,0.047c0.198,0.002,0.396-0.082,0.597-0.096c0.269-0.017,0.538-0.003,0.807-0.003
				c0.153-0.001,0.308,0.011,0.459-0.005c0.766-0.084,1.514-0.271,2.306-0.08c0.433,0.104,0.916-0.014,1.377-0.018
				c1.036-0.006,2.063,0.09,3.104-0.135c0.701-0.152,1.459-0.034,2.191-0.049c0.403-0.008,0.805-0.071,1.207-0.059
				c0.651,0.02,1.301,0.086,1.951,0.122c0.31,0.019,0.631,0.064,0.93,0.009c0.632-0.117,1.249-0.118,1.895-0.08
				c0.956,0.055,1.924-0.084,2.887-0.138c0.092-0.005,0.189-0.017,0.277,0.007c1.475,0.384,2.966,0.094,4.449,0.114
				c0.795,0.011,1.593-0.005,2.385,0.058c0.985,0.078,1.96,0.182,2.958,0.104c0.973-0.075,1.958,0.021,2.937-0.008
				c0.411-0.013,0.818-0.151,1.228-0.234c0.151-0.03,0.303-0.098,0.452-0.092c0.575,0.022,1.148,0.082,1.724,0.102
				c0.745,0.024,1.491,0.017,2.236,0.038c0.982,0.026,1.963,0.083,2.945,0.098c1.246,0.018,2.499-0.066,3.738,0.028
				c1.2,0.091,2.364-0.414,3.578-0.099c0.442,0.115,0.952-0.049,1.431-0.051c0.34,0,0.681,0.089,1.021,0.084
				c0.85-0.011,1.7-0.049,2.549-0.084c0.23-0.009,0.459-0.055,0.688-0.062c1.054-0.032,2.107-0.048,3.161-0.089
				c0.612-0.023,1.224-0.112,1.836-0.123c0.809-0.014,1.617,0.035,2.426,0.027c0.63-0.006,1.251-0.17,1.893,0.039
				c0.22,0.071,0.523-0.169,0.787-0.166c0.959,0.01,1.917,0.081,2.876,0.094c1.215,0.016,2.43-0.003,3.646-0.008
				c1.024-0.003,2.05,0.026,3.072-0.023c0.755-0.037,1.504-0.232,2.259-0.262c1.395-0.054,2.792-0.045,4.188-0.048
				c0.714-0.002,1.43,0.04,2.144,0.034c0.369-0.003,0.738-0.072,1.107-0.105c0.979-0.086,1.958-0.366,2.935,0.014
				c0.043,0.018,0.092,0.033,0.137,0.029c0.631-0.043,1.261-0.109,1.892-0.131c0.428-0.014,0.858,0.04,1.287,0.049
				c0.183,0.005,0.365-0.031,0.548-0.043c0.537-0.035,1.074-0.086,1.612-0.096c1.072-0.021,2.146-0.021,3.219-0.023
				c0.962-0.001,1.925,0.015,2.887,0.012c0.918-0.003,1.837-0.016,2.755-0.033c0.811-0.016,1.622-0.041,2.433-0.066
				c1.742-0.051,3.483-0.127,5.225-0.148c1.273-0.015,2.549,0.081,3.821,0.053c1.476-0.033,2.948-0.163,4.423-0.219
				c0.527-0.02,1.059,0.072,1.588,0.081c1.276,0.022,2.552,0.034,3.828,0.036c0.467,0,0.934-0.066,1.399-0.061
				c0.966,0.014,1.932,0.039,2.896,0.092c0.978,0.053,1.953,0.166,2.931,0.209c0.558,0.023,1.121-0.08,1.68-0.062
				c1.756,0.06,3.511,0.157,5.267,0.221c0.355,0.013,0.714-0.078,1.072-0.086c0.478-0.01,0.957,0.031,1.435,0.021
				c0.902-0.02,1.804-0.068,2.707-0.086c1.077-0.021,2.154-0.02,3.231-0.031c1.169-0.014,2.342,0.025,3.505-0.062
				c1.206-0.092,2.402-0.309,3.604-0.47c0.108-0.015,0.218-0.024,0.327-0.018c0.99,0.066,1.979,0.146,2.97,0.204
				c1.694,0.101,3.389,0.193,5.083,0.279c1.407,0.07,2.814,0.172,4.222,0.177c1.101,0.004,2.201-0.134,3.303-0.179
				c0.418-0.018,0.84,0.051,1.26,0.082c0.109,0.008,0.218,0.043,0.325,0.037c1.062-0.06,2.109,0.111,3.163,0.182
				c0.668,0.045,1.352-0.188,2.033-0.259c0.479-0.051,0.967-0.071,1.448-0.05c0.697,0.031,1.339,1.082,1.168,1.756
				c-0.157,0.623-0.416,1.174-0.984,1.461c-0.337,0.172-0.772,0.242-1.154,0.216c-1.161-0.079-2.316-0.248-3.478-0.341
				c-1.222-0.098-2.448-0.176-3.673-0.21c-1.4-0.04-2.801-0.019-4.202-0.031c-0.468-0.004-0.935-0.033-1.402-0.04
				c-0.543-0.009-1.087,0.004-1.63-0.01c-1.321-0.033-2.643-0.117-3.963-0.107c-1.919,0.014-3.836,0.093-5.755,0.142
				c-0.966,0.024-1.936,0.108-2.896,0.051c-1.51-0.09-3.013-0.071-4.521,0.001c-2.353,0.112-4.706,0.223-7.06,0.28
				c-1.121,0.027-2.244-0.084-3.367-0.102c-0.839-0.013-1.68,0.026-2.52,0.035c-0.17,0.002-0.34-0.034-0.511-0.044
				c-1.628-0.084-3.256-0.175-4.884-0.246c-0.996-0.044-1.993-0.073-2.99-0.078c-0.871-0.006-1.742,0.061-2.611,0.043
				c-0.996-0.021-1.99-0.106-2.985-0.148c-0.278-0.012-0.563,0.008-0.839,0.054c-1.465,0.242-2.928,0.022-4.392-0.001
				c-1.181-0.018-2.363-0.055-3.543-0.023c-1.762,0.045-3.522,0.142-5.283,0.22c-1.041,0.046-2.091,0.208-3.121,0.123
				c-1.442-0.12-2.864-0.032-4.295,0.063c-0.463,0.031-0.936-0.076-1.402-0.062c-1.461,0.048-2.921,0.116-4.381,0.188
				c-1.444,0.072-2.887,0.16-4.332,0.236c-1.179,0.062-2.368,0.046-3.536,0.199c-1.103,0.145-2.164,0.03-3.244-0.123
				c-0.334-0.049-0.694,0.138-1.045,0.15c-1.139,0.041-2.278,0.047-3.417,0.073c-1.011,0.022-2.022,0.058-3.033,0.081
				c-0.911,0.021-1.823,0.008-2.731,0.061c-1.35,0.076-2.696,0.221-4.046,0.286c-0.555,0.026-1.116-0.107-1.675-0.111
				c-1.289-0.008-2.578-0.01-3.865,0.043c-0.755,0.031-1.504,0.212-2.26,0.253c-0.651,0.034-1.307-0.039-1.96-0.059
				c-0.747-0.022-1.494-0.023-2.24-0.061c-0.537-0.025-1.073-0.144-1.608-0.133c-1.085,0.021-2.168,0.123-3.253,0.152
				c-0.65,0.018-1.303-0.037-1.954-0.059c-0.125-0.004-0.25-0.015-0.374-0.01c-0.991,0.039-1.982,0.09-2.975,0.121
				c-1.573,0.049-3.147,0.084-4.722,0.129c-0.966,0.028-1.932,0.075-2.897,0.09c-0.48,0.008-0.961-0.065-1.44-0.055
				c-1.12,0.025-2.238,0.094-3.358,0.113c-0.449,0.009-0.9-0.079-1.35-0.091c-1.307-0.034-2.614-0.046-3.921-0.076
				c-0.714-0.017-1.427-0.064-2.141-0.071c-0.383-0.004-0.768,0.075-1.151,0.07c-0.948-0.012-1.895-0.078-2.842-0.07
				c-0.667,0.005-1.333,0.092-2,0.146c-0.107,0.009-0.215,0.061-0.32,0.055c-1.611-0.077-3.222-0.201-4.835-0.229
				c-1.191-0.021-2.385,0.09-3.578,0.124c-0.621,0.018-1.246-0.033-1.866,0c-1.073,0.059-2.143,0.185-3.216,0.23
				c-1.32,0.056-2.642,0.075-3.963,0.076c-0.604,0-1.209-0.124-1.813-0.115c-0.98,0.014-1.96,0.129-2.94,0.131
				c-1.836,0.002-3.673-0.02-5.507-0.086c-1.073-0.039-2.142-0.257-3.213-0.262c-1.648-0.008-3.297,0.109-4.946,0.15
				c-1.014,0.025-2.029-0.002-3.043,0.012c-1.331,0.02-2.661,0.066-3.991,0.082c-0.945,0.012-1.891-0.021-2.836-0.011
				c-0.334,0.004-0.667,0.103-1.003,0.116c-1.193,0.049-2.388,0.08-3.582,0.115c-0.093,0.004-0.187-0.021-0.28-0.018
				c-1.936,0.08-3.87,0.174-5.805,0.238c-0.647,0.021-1.296-0.047-1.944-0.045c-1.211,0.004-2.423,0.016-3.634,0.052
				c-1.462,0.043-2.926,0.294-4.375-0.155c-0.267-0.083-0.584-0.006-0.878,0.001c-1.46,0.033-2.92,0.076-4.38,0.097
				c-0.48,0.008-0.962-0.06-1.443-0.062c-0.746-0.003-1.491,0.036-2.237,0.026c-0.324-0.003-0.648-0.123-0.97-0.115
				c-0.711,0.02-1.421,0.107-2.132,0.131c-0.98,0.033-1.962,0.022-2.943,0.051c-1.248,0.035-2.494,0.113-3.742,0.131
				c-0.635,0.008-1.271-0.106-1.908-0.111c-0.678-0.006-1.356,0.084-2.034,0.075c-0.742-0.009-1.485-0.132-2.226-0.113
				c-0.863,0.021-1.724,0.157-2.587,0.216c-0.683,0.045-1.37,0.035-2.054,0.076c-0.93,0.057-1.859,0.137-2.789,0.207
				c-0.062,0.004-0.125,0-0.187,0.001c-1.773,0.024-3.547,0.052-5.32,0.073c-0.217,0.002-0.436-0.049-0.652-0.043
				c-0.413,0.012-0.825,0.058-1.238,0.069c-0.276,0.009-0.554-0.022-0.83-0.028c-0.806-0.02-1.611-0.051-2.416-0.051
				c-2.116,0-4.232,0.011-6.349,0.025c-1.447,0.01-2.895,0.012-4.34,0.062c-0.571,0.02-1.136,0.205-1.709,0.238
				c-1.039,0.061-2.089,0-3.121,0.108c-1.424,0.151-2.843-0.153-4.277,0.106c-0.848,0.154-1.763-0.07-2.648-0.107
				c-1.509-0.062-3.029-0.021-4.526-0.192c-1.259-0.144-2.484,0.042-3.725,0.058c-0.977,0.012-1.956-0.119-2.933-0.107
				c-1.59,0.02-3.179,0.125-4.769,0.156c-1.212,0.023-2.426-0.021-3.64-0.012c-0.575,0.005-1.149,0.102-1.725,0.099
				c-1.498-0.009-2.996-0.05-4.494-0.077c-1.005-0.02-2.011-0.066-3.015-0.043c-0.669,0.016-1.333,0.173-2.002,0.197
				c-0.96,0.034-1.922,0.002-2.884,0.005c-1.152,0.003-2.304,0.003-3.456,0.027c-0.275,0.006-0.558,0.074-0.821,0.161
				c-1.146,0.375-2.312,0.176-3.473,0.149c-0.481-0.011-0.962-0.04-1.443-0.054C27.888,7.8,26.57,7.725,25.253,7.741
				c-1.304,0.017-2.606,0.157-3.91,0.188c-1.024,0.024-2.051-0.038-3.077-0.059c-1.322-0.027-2.645-0.062-3.967-0.075
				c-0.764-0.008-1.529,0.008-2.293,0.031c-0.623,0.018-1.244,0.08-1.867,0.09C9.521,7.925,8.903,7.881,8.285,7.879
				C7.708,7.876,7.131,7.912,6.554,7.905C5.949,7.898,5.36,7.891,4.768,7.637C4.361,7.464,3.833,7.604,3.386,7.494
				c-0.441-0.107-1.037-0.24-1.229-0.563C1.83,6.387,1.511,5.743,1.862,5.008C2.174,4.354,2.641,4.158,3.307,4.22z"/>
		</g>
	</g>
</g>
</svg>
