<?xml version="1.0" encoding="utf-8"?>
<!-- Generator: Adobe Illustrator 16.0.0, SVG Export Plug-In . SVG Version: 6.00 Build 0)  -->
<!DOCTYPE svg PUBLIC "-//W3C//DTD SVG 1.1//EN" "http://www.w3.org/Graphics/SVG/1.1/DTD/svg11.dtd">
<svg version="1.1" id="Layer_1" xmlns="http://www.w3.org/2000/svg" xmlns:xlink="http://www.w3.org/1999/xlink" x="0px" y="0px"
	 width="9px" height="214.667px" viewBox="0 0 9 214.667" enable-background="new 0 0 9 214.667" xml:space="preserve">
<g id="qYNpCp_1_">
	<g>
		<path fill="#A4FF62" d="M6.447,177.771c-0.021-0.142-0.086-0.344-0.074-0.541c0.039-0.631,0.123-1.26,0.159-1.892
			c0.028-0.508,0.058-1.023-0.209-1.494c-0.022-0.039-0.008-0.103-0.002-0.152c0.077-0.557,0.199-1.111,0.073-1.678
			c-0.011-0.047,0.009-0.102,0.015-0.153c0.095-0.824,0.268-1.646,0.266-2.469c-0.002-0.84-0.142-1.659,0.011-2.519
			c0.143-0.802,0.023-1.649,0.029-2.477c0.003-0.431,0.05-0.862,0.035-1.292c-0.021-0.556-0.1-1.109-0.126-1.665
			c-0.047-0.986-0.072-1.974-0.11-2.96c-0.006-0.175-0.034-0.349-0.043-0.524c-0.03-0.585-0.006-1.179-0.096-1.755
			c-0.14-0.888-0.367-1.757-0.34-2.67c0.012-0.403-0.074-0.812-0.128-1.219c-0.044-0.331-0.134-0.658-0.155-0.99
			c-0.046-0.699,0.158-1.433-0.315-2.075c-0.046-0.062,0.037-0.215,0.049-0.327c0.027-0.263,0.116-0.543,0.056-0.786
			c-0.134-0.545-0.455-1.062-0.142-1.646c0.019-0.035-0.023-0.1-0.025-0.151c-0.027-0.709-0.091-1.421-0.069-2.129
			c0.027-0.868,0.142-1.732,0.182-2.601c0.017-0.371,0.013-0.772-0.113-1.11c-0.115-0.31-0.161-0.566-0.033-0.862
			c0.034-0.078,0.061-0.171,0.053-0.255c-0.034-0.41-0.125-0.82-0.112-1.229c0.021-0.646,0.105-1.29,0.169-1.936
			c0.036-0.361,0.048-0.731,0.135-1.081c0.076-0.304,0.158-0.576,0.069-0.904c-0.081-0.294-0.046-0.623-0.05-0.937
			c-0.007-0.574,0.361-1.133,0.062-1.721c-0.037-0.072-0.022-0.188,0.006-0.271c0.232-0.684,0.028-1.356-0.025-2.037
			c-0.036-0.455-0.022-0.95,0.121-1.378c0.169-0.505,0.066-1.044-0.155-1.341c-0.271-0.363-0.158-0.62-0.063-0.883
			c0.268-0.743,0.046-1.413-0.191-2.099c-0.051-0.146-0.08-0.404,0.001-0.478c0.387-0.351,0.32-0.75,0.247-1.188
			c-0.048-0.294-0.022-0.606,0.015-0.905c0.045-0.356,0.179-0.704,0.196-1.059c0.015-0.336-0.236-0.677,0.011-1.019
			c0.018-0.024-0.032-0.094-0.041-0.144c-0.058-0.324-0.186-0.657-0.15-0.972c0.052-0.474,0.138-0.936,0.133-1.421
			c-0.012-1.226,0.036-2.45,0.051-3.676c0.003-0.22-0.043-0.44-0.05-0.66c-0.021-0.735-0.026-1.469-0.055-2.204
			c-0.018-0.449-0.082-0.897-0.102-1.347c-0.02-0.469-0.094-0.957,0.007-1.402c0.111-0.49,0.353-0.945,0.203-1.47
			c-0.021-0.072-0.023-0.172,0.012-0.232c0.218-0.386,0.222-0.747-0.062-1.106c-0.045-0.058-0.015-0.178-0.014-0.269
			c0.005-0.282,0.114-0.616,0.001-0.839c-0.336-0.665-0.005-1.323-0.038-1.979c-0.016-0.328,0.106-0.664,0.047-1.057
			c-0.081-0.526,0.092-1.092,0.15-1.641c0.016-0.141,0.04-0.288,0.009-0.421c-0.067-0.295-0.205-0.577-0.242-0.874
			c-0.038-0.299,0.089-0.63,0.006-0.906c-0.174-0.584,0.314-1.084,0.097-1.703c-0.125-0.357,0.16-0.845,0.193-1.279
			c0.028-0.365-0.041-0.738-0.065-1.107c-0.012-0.189-0.034-0.378-0.023-0.566c0.011-0.196,0.078-0.389,0.082-0.584
			c0.005-0.234-0.048-0.468-0.044-0.702c0.014-0.919,0.04-1.836,0.061-2.755c0.001-0.025,0.001-0.052,0.003-0.078
			c0.044-0.677,0.064-1.355,0.143-2.028c0.045-0.394,0.184-0.774,0.307-1.271c-0.267-0.461-0.025-1.068,0.017-1.671
			c0.023-0.334,0.056-0.672,0.021-1.003c-0.058-0.553-0.124-1.08,0.083-1.639c0.125-0.338,0.116-0.789,0-1.134
			c-0.154-0.459-0.092-0.869-0.001-1.305c0.023-0.112,0.039-0.233,0.021-0.345c-0.073-0.464-0.215-0.924-0.228-1.388
			c-0.017-0.604,0.071-1.212,0.098-1.818c0.006-0.144-0.047-0.293-0.089-0.433c-0.106-0.359-0.254-0.686-0.067-1.091
			c0.126-0.276,0.157-0.646,0.09-0.943c-0.068-0.31-0.313-0.574,0-0.883c0.039-0.038-0.021-0.171-0.027-0.261
			c-0.048-0.627-0.15-1.256-0.123-1.879c0.022-0.511,0.127-1.004-0.133-1.486c-0.057-0.104-0.052-0.265-0.025-0.389
			c0.288-1.334,0.211-2.666,0.05-4.008c-0.041-0.343,0.087-0.705,0.131-1.059c0.022-0.181,0.049-0.363,0.042-0.542
			c-0.01-0.282-0.049-0.564-0.071-0.847c-0.017-0.229-0.039-0.461-0.038-0.69c0.001-0.399,0.04-0.799,0.02-1.196
			c-0.012-0.266-0.04-0.56-0.165-0.782c-0.174-0.309-0.076-0.503,0.103-0.742c0.124-0.166,0.259-0.371,0.269-0.563
			c0.037-0.674,0.031-1.351,0.022-2.025c-0.005-0.454-0.033-0.909-0.071-1.361c-0.018-0.213-0.115-0.421-0.122-0.633
			c-0.012-0.423,0.094-0.862,0.009-1.266c-0.174-0.831-0.301-1.666-0.247-2.504c0.065-0.986,0.234-1.967,0.132-2.96
			c-0.024-0.229-0.09-0.454-0.151-0.679c-0.082-0.295-0.228-0.555-0.103-0.903c0.109-0.306,0.105-0.668,0.085-1.002
			c-0.066-1.104-0.176-2.202-0.241-3.305c-0.032-0.547,0-1.097,0-1.646c0-0.064-0.03-0.128-0.033-0.192
			c-0.013-0.272-0.048-0.545-0.026-0.814c0.056-0.687,0.297-1.401,0.172-2.049c-0.167-0.864,0.115-1.712-0.104-2.57
			c-0.119-0.464,0.063-1.001,0.083-1.507c0.01-0.232-0.044-0.468-0.069-0.702c-0.033-0.317-0.144-0.653-0.08-0.951
			c0.113-0.534,0.123-1.031,0.002-1.572c-0.086-0.386,0.023-0.817,0.046-1.229c0.036-0.624,0.082-1.247,0.103-1.871
			c0.012-0.358-0.008-0.721-0.031-1.079c-0.021-0.309-0.068-0.614-0.103-0.92c-0.015-0.134-0.049-0.271-0.04-0.402
			c0.02-0.28,0.089-0.559,0.091-0.837c0.004-0.437-0.039-0.873-0.048-1.311c-0.005-0.208,0.039-0.417,0.028-0.624
			c-0.018-0.348-0.112-0.698-0.085-1.04c0.052-0.665-0.1-1.318,0.013-1.996c0.1-0.602,0.192-1.223,0.052-1.864
			c-0.094-0.431,0.065-0.91,0.059-1.368c-0.007-0.612-0.058-1.224-0.104-1.835c-0.038-0.502-0.099-1.003-0.144-1.505
			c-0.004-0.046,0.031-0.1,0.057-0.146c0.306-0.535,0.333-1.134,0.103-1.655C5.37,7.087,5.973,6.497,5.819,5.833
			C5.817,5.824,5.836,5.812,5.84,5.801C5.885,5.63,5.962,5.46,5.969,5.286c0.025-0.645,0.086-1.271,0.476-1.822
			c0.074-0.104,0.119-0.283,0.087-0.401C6.361,2.427,5.806,1.655,4.89,1.635C4.221,1.62,3.276,2.195,3.227,2.989
			C3.184,3.717,3.032,4.438,2.924,5.161c-0.032,0.218-0.103,0.433-0.11,0.65C2.786,6.661,2.773,7.511,2.759,8.36
			C2.748,9.06,2.736,9.759,2.736,10.456c0.001,0.617,0.119,1.253,0.005,1.846c-0.217,1.12-0.188,2.236-0.158,3.36
			c0.004,0.185-0.102,0.37-0.105,0.558c-0.009,0.427,0.021,0.855,0.021,1.284c0,0.174-0.061,0.351-0.051,0.523
			c0.017,0.281,0.079,0.56,0.105,0.841c0.021,0.232-0.015,0.473,0.033,0.696c0.105,0.485-0.126,0.99,0.101,1.468
			c0.019,0.039-0.056,0.117-0.063,0.18c-0.041,0.397-0.094,0.797-0.105,1.195c-0.009,0.318,0.043,0.638,0.053,0.956
			c0.007,0.234,0.001,0.471-0.019,0.705c-0.061,0.721,0.227,1.461-0.12,2.169c-0.03,0.061,0.035,0.167,0.055,0.253
			c0.022,0.094,0.085,0.201,0.061,0.282c-0.154,0.512-0.098,0.995,0.131,1.475c0.043,0.09,0.027,0.241-0.019,0.336
			c-0.211,0.448-0.334,0.887-0.15,1.39c0.066,0.18-0.022,0.42-0.052,0.632c-0.029,0.207-0.108,0.412-0.101,0.615
			c0.014,0.389,0.093,0.774,0.112,1.162c0.046,0.947,0.052,1.896,0.115,2.842c0.042,0.632,0.087,1.248-0.189,1.848
			c-0.063,0.136-0.017,0.329,0,0.495c0.037,0.348,0.105,0.693,0.128,1.042c0.032,0.49,0.039,0.982,0.046,1.475
			c0.002,0.216-0.023,0.435-0.034,0.652c-0.011,0.226-0.045,0.453-0.025,0.677c0.023,0.257,0.178,0.527,0.13,0.762
			c-0.147,0.729,0.103,1.387,0.242,2.073c0.104,0.51,0.083,1.045,0.107,1.569c0.002,0.053-0.071,0.105-0.096,0.164
			c-0.03,0.065-0.072,0.142-0.061,0.205c0.142,0.801,0.042,1.589-0.096,2.378c-0.062,0.353-0.157,0.733,0.157,1.045
			c0.046,0.046,0.075,0.154,0.055,0.215c-0.12,0.364-0.035,0.691,0.125,1.02c0.04,0.083,0,0.204-0.005,0.308
			c-0.013,0.221-0.039,0.44-0.038,0.661c0.003,0.308,0.097,0.635,0.022,0.919c-0.111,0.424-0.057,0.788,0.101,1.178
			c0.062,0.156,0.028,0.36,0.013,0.54c-0.016,0.195-0.075,0.385-0.091,0.579c-0.047,0.583-0.088,1.167-0.118,1.752
			c-0.016,0.31-0.064,0.636,0.008,0.929c0.11,0.449,0.1,0.84-0.171,1.229c-0.079,0.112-0.144,0.34-0.085,0.427
			c0.355,0.528-0.249,1.167,0.211,1.673c0.022,0.024-0.051,0.119-0.051,0.181c0,0.263-0.002,0.526,0.024,0.786
			c0.018,0.169,0.12,0.335,0.121,0.501c0,0.379-0.02,0.761-0.067,1.137c-0.049,0.391-0.162,0.775-0.208,1.167
			c-0.053,0.448-0.176,0.936-0.057,1.343c0.101,0.346,0.179,0.628,0.056,0.968c-0.038,0.104-0.016,0.23-0.016,0.348
			c-0.002,0.235,0,0.471,0,0.816c0.5,0.357,0.36,1.057,0.274,1.607c-0.054,0.347-0.032,0.589,0.084,0.877
			c0.038,0.094,0.058,0.202,0.054,0.303c-0.023,0.677-0.06,1.353-0.081,2.03c-0.018,0.597-0.02,1.195-0.03,1.792
			c-0.007,0.369-0.035,0.738-0.022,1.106c0.013,0.35,0.094,0.697,0.096,1.047c0.001,0.506-0.064,1.012-0.059,1.519
			c0.003,0.276,0.105,0.55,0.138,0.828c0.021,0.174-0.026,0.357-0.001,0.531c0.062,0.44,0.148,0.861-0.095,1.297
			c-0.128,0.229-0.121,0.541-0.145,0.817c-0.053,0.62-0.07,1.241-0.132,1.86c-0.061,0.595-0.162,1.186-0.237,1.779
			c-0.01,0.085,0.019,0.18,0.045,0.265c0.19,0.594,0.124,1.191,0.099,1.802c-0.026,0.617-0.484,1.219-0.093,1.857
			c0.029,0.045,0.007,0.129-0.005,0.192c-0.033,0.176-0.106,0.353-0.104,0.526c0.005,0.425,0.086,0.852,0.058,1.273
			c-0.032,0.494,0.23,0.993-0.106,1.498c-0.122,0.184,0.059,0.546,0.044,0.824c-0.04,0.73-0.115,1.457-0.167,2.186
			c-0.026,0.359-0.138,0.757-0.023,1.068c0.157,0.424,0.151,0.797,0.059,1.211c-0.023,0.109,0.077,0.248,0.125,0.37
			c0.038,0.095,0.103,0.182,0.126,0.28c0.108,0.443-0.063,0.786-0.433,1.03c0.064,0.052,0.128,0.076,0.142,0.118
			c0.093,0.279,0.178,0.56,0.259,0.842c0.013,0.047-0.003,0.102-0.011,0.153c-0.038,0.238-0.092,0.476-0.113,0.716
			c-0.03,0.349,0.037,0.723-0.07,1.041c-0.122,0.364-0.164,0.69-0.094,1.066c0.067,0.354,0.069,0.727,0.061,1.089
			c-0.007,0.283-0.082,0.53,0.012,0.847c0.195,0.661-0.322,1.359,0.001,2.05c0.013,0.027-0.007,0.08-0.026,0.112
			c-0.155,0.259-0.135,0.511-0.022,0.785c0.057,0.14,0.044,0.31,0.046,0.466c0.012,0.771,0.022,1.543,0.025,2.314
			c0.002,0.627,0.016,1.256-0.021,1.881c-0.025,0.447-0.312,0.912,0.174,1.289c0.039,0.031,0.046,0.124,0.04,0.186
			c-0.057,0.682-0.132,1.362-0.174,2.046c-0.015,0.229,0.086,0.468,0.074,0.699c-0.021,0.383-0.108,0.762-0.137,1.144
			c-0.035,0.452-0.046,0.905-0.052,1.358c-0.004,0.4,0,0.802,0.024,1.203c0.02,0.332,0.199,0.713,0.088,0.982
			c-0.235,0.569-0.113,1.122-0.094,1.678c0.019,0.56,0.151,1.117,0.178,1.678c0.02,0.395-0.037,0.795-0.087,1.189
			c-0.09,0.718,0.389,1.439-0.023,2.151c-0.005,0.01,0,0.026,0.003,0.039c0.203,0.903,0.08,1.804-0.03,2.704
			c-0.028,0.231-0.027,0.466-0.046,0.699c-0.053,0.641-0.131,1.28-0.16,1.922c-0.03,0.671-0.013,1.343-0.021,2.014
			c-0.001,0.078-0.034,0.154-0.047,0.231c-0.085,0.511-0.159,1.025-0.255,1.536c-0.123,0.649,0.339,1.287,0.001,1.954
			c-0.085,0.168,0.065,0.448,0.086,0.68c0.073,0.777,0.176,1.556,0.195,2.335c0.026,1.071-0.014,2.145-0.026,3.218
			c-0.001,0.129-0.011,0.259-0.007,0.389c0.015,0.451,0.088,0.91,0.039,1.354c-0.065,0.584,0.065,1.105,0.287,1.631
			c0.068,0.158,0.095,0.355,0.075,0.527c-0.07,0.606,0.014,1.177,0.229,1.75c0.115,0.307,0.103,0.662,0.142,0.996
			c0.051,0.45-0.062,0.926,0.25,1.332c0.056,0.073,0.061,0.288,0.01,0.324c-0.31,0.219-0.221,0.494-0.163,0.779
			c0.088,0.432,0.183,0.864,0.235,1.301c0.053,0.449,0.062,0.904,0.082,1.357c0.039,0.876,0.08,1.752,0.105,2.627
			c0.016,0.548-0.022,1.098,0.01,1.643c0.033,0.555,0.196,1.106-0.055,1.651c-0.035,0.077-0.012,0.182-0.015,0.273
			c-0.022,0.619-0.039,1.239-0.068,1.857c-0.019,0.418-0.084,0.834-0.08,1.251c0.01,1.039,0.043,2.077,0.077,3.116
			c0.017,0.526,0.085,1.055,0.079,1.581c-0.009,1.021-0.062,2.04-0.083,3.061c-0.02,0.992,0.021,1.986-0.042,2.974
			c-0.074,1.147-0.331,2.274-0.163,3.445c0.097,0.673,0.02,1.375-0.019,2.062c-0.046,0.838-0.091,1.681-0.219,2.508
			c-0.085,0.547-0.063,1.088-0.075,1.631c-0.009,0.461,0.13,0.932-0.137,1.37c-0.034,0.056-0.037,0.159-0.009,0.22
			c0.174,0.375,0.065,0.705-0.064,1.072c-0.125,0.355-0.17,0.756-0.16,1.136c0.025,0.923,0.074,1.843-0.007,2.769
			c-0.081,0.924-0.165,1.857-0.114,2.78c0.034,0.615-0.207,1.107-0.34,1.658c-0.118,0.485-0.217,0.994-0.303,1.497
			c-0.014,0.083,0.052,0.177,0.057,0.268c0.023,0.401,0.031,0.803,0.055,1.205c0.037,0.616,0.083,1.232,0.125,1.849
			c0.032,0.458,0.017,0.925,0.107,1.37c0.1,0.484,0.044,0.967,0.088,1.436c0.073,0.77,0.017,1.5-0.145,2.238
			c-0.121,0.55-0.259,1.095-0.371,1.646c-0.02,0.097,0.018,0.262,0.089,0.312c0.371,0.267,0.292,0.701,0.428,1.053
			c0.058,0.151,0.103,0.382,0.213,0.426c0.283,0.107,0.619,0.223,0.893,0.16c0.209-0.049,0.341-0.165,0.543,0.019
			c0.072,0.064,0.307,0.072,0.366,0.011c0.438-0.46,1.037-0.758,1.082-1.566c0.036-0.633,0.309-1.249,0.023-1.89
			c-0.029-0.063-0.01-0.153-0.001-0.23c0.034-0.314,0.103-0.629,0.103-0.944c0-0.633-0.032-1.269-0.06-1.902
			c-0.005-0.115-0.061-0.228-0.078-0.346c-0.017-0.113-0.027-0.23-0.02-0.346c0.029-0.408,0.088-0.816,0.095-1.226
			c0.012-0.637-0.037-1.274-0.012-1.909c0.047-1.225,0.055-2.457,0.228-3.666c0.083-0.586,0.149-1.156,0.128-1.741
			c-0.019-0.518-0.035-1.035-0.046-1.553c-0.002-0.076,0.02-0.153,0.042-0.229c0.064-0.227,0.173-0.45,0.192-0.681
			c0.026-0.314-0.048-0.637-0.022-0.951c0.053-0.637,0.18-1.27,0.211-1.907c0.029-0.588,0.208-1.194-0.121-1.771
			c-0.048-0.086,0.032-0.305,0.119-0.398c0.333-0.354,0.384-0.786,0.29-1.208c-0.153-0.68-0.179-1.321,0.146-1.964
			c0.077-0.152,0.072-0.396,0.009-0.562c-0.216-0.57-0.216-1.13-0.104-1.725c0.093-0.493,0.074-1.007,0.101-1.512
			c0.002-0.035-0.014-0.087-0.04-0.107c-0.322-0.259-0.116-0.548-0.052-0.828c0.038-0.165,0.116-0.328,0.112-0.491
			c-0.016-0.739-0.068-1.479-0.077-2.218C6.291,178.291,6.384,178.063,6.447,177.771z"/>
		<path fill="#A4FF62" fill-rule="evenodd" clip-rule="evenodd" d="M6.447,177.771c-0.063,0.293-0.157,0.521-0.154,0.748
			c0.009,0.739,0.061,1.479,0.077,2.218c0.003,0.163-0.075,0.326-0.112,0.491c-0.064,0.28-0.271,0.569,0.052,0.828
			c0.026,0.021,0.042,0.072,0.04,0.107c-0.027,0.505-0.008,1.019-0.101,1.512c-0.112,0.595-0.112,1.154,0.104,1.725
			c0.063,0.165,0.068,0.409-0.009,0.562c-0.325,0.643-0.299,1.284-0.146,1.964c0.095,0.422,0.044,0.854-0.29,1.208
			c-0.087,0.094-0.167,0.312-0.119,0.398c0.329,0.576,0.15,1.183,0.121,1.771c-0.031,0.638-0.158,1.271-0.211,1.907
			c-0.026,0.314,0.048,0.637,0.022,0.951c-0.019,0.23-0.128,0.454-0.192,0.681c-0.021,0.076-0.044,0.153-0.042,0.229
			c0.011,0.518,0.027,1.035,0.046,1.553c0.021,0.585-0.045,1.155-0.128,1.741c-0.173,1.209-0.181,2.441-0.228,3.666
			c-0.025,0.635,0.023,1.272,0.012,1.909c-0.007,0.409-0.066,0.817-0.095,1.226c-0.008,0.115,0.002,0.232,0.02,0.346
			c0.017,0.118,0.072,0.23,0.078,0.346c0.027,0.634,0.06,1.27,0.06,1.902c0,0.315-0.068,0.63-0.103,0.944
			c-0.009,0.077-0.028,0.167,0.001,0.23c0.285,0.641,0.012,1.257-0.023,1.89c-0.045,0.809-0.643,1.106-1.082,1.566
			c-0.06,0.062-0.294,0.054-0.366-0.011c-0.202-0.184-0.334-0.067-0.543-0.019c-0.274,0.062-0.61-0.053-0.893-0.16
			c-0.11-0.044-0.156-0.274-0.213-0.426c-0.136-0.352-0.057-0.786-0.428-1.053c-0.071-0.05-0.109-0.215-0.089-0.312
			c0.112-0.551,0.25-1.096,0.371-1.646c0.162-0.738,0.218-1.469,0.145-2.238c-0.044-0.469,0.011-0.951-0.088-1.436
			c-0.091-0.445-0.076-0.912-0.107-1.37c-0.042-0.616-0.088-1.232-0.125-1.849c-0.024-0.402-0.032-0.804-0.055-1.205
			c-0.004-0.091-0.071-0.185-0.057-0.268c0.086-0.503,0.185-1.012,0.303-1.497c0.134-0.551,0.374-1.043,0.34-1.658
			c-0.051-0.923,0.033-1.856,0.114-2.78c0.081-0.926,0.032-1.846,0.007-2.769c-0.011-0.38,0.035-0.78,0.16-1.136
			c0.129-0.367,0.238-0.697,0.064-1.072c-0.028-0.061-0.025-0.164,0.009-0.22c0.267-0.438,0.128-0.909,0.137-1.37
			c0.011-0.543-0.011-1.084,0.075-1.631c0.128-0.827,0.173-1.67,0.219-2.508c0.039-0.687,0.116-1.389,0.019-2.062
			c-0.168-1.171,0.088-2.298,0.163-3.445c0.063-0.987,0.022-1.981,0.042-2.974c0.021-1.021,0.075-2.04,0.083-3.061
			c0.006-0.526-0.062-1.055-0.079-1.581c-0.034-1.039-0.067-2.077-0.077-3.116c-0.004-0.417,0.061-0.833,0.08-1.251
			c0.029-0.618,0.045-1.238,0.068-1.857c0.003-0.092-0.02-0.196,0.015-0.273c0.25-0.545,0.088-1.097,0.055-1.651
			c-0.032-0.545,0.006-1.095-0.01-1.643c-0.025-0.875-0.066-1.751-0.105-2.627c-0.021-0.453-0.029-0.908-0.082-1.357
			c-0.052-0.437-0.146-0.869-0.235-1.301c-0.058-0.285-0.146-0.561,0.163-0.779c0.051-0.036,0.046-0.251-0.01-0.324
			c-0.313-0.406-0.199-0.882-0.25-1.332c-0.039-0.334-0.027-0.689-0.142-0.996c-0.215-0.573-0.299-1.144-0.229-1.75
			c0.02-0.172-0.007-0.369-0.075-0.527c-0.222-0.525-0.353-1.047-0.287-1.631c0.049-0.444-0.024-0.903-0.039-1.354
			c-0.004-0.13,0.005-0.26,0.007-0.389c0.012-1.073,0.052-2.146,0.026-3.218c-0.019-0.779-0.122-1.558-0.195-2.335
			c-0.021-0.231-0.171-0.512-0.086-0.68c0.338-0.667-0.125-1.305-0.001-1.954c0.096-0.511,0.17-1.025,0.255-1.536
			c0.013-0.077,0.046-0.153,0.047-0.231c0.008-0.671-0.009-1.343,0.021-2.014c0.029-0.642,0.106-1.281,0.16-1.922
			c0.019-0.233,0.018-0.468,0.046-0.699c0.109-0.9,0.233-1.801,0.03-2.704c-0.003-0.013-0.008-0.029-0.003-0.039
			c0.413-0.712-0.067-1.434,0.023-2.151c0.05-0.395,0.106-0.795,0.087-1.189c-0.027-0.561-0.16-1.118-0.178-1.678
			c-0.019-0.556-0.141-1.108,0.094-1.678c0.11-0.27-0.068-0.65-0.088-0.982c-0.024-0.401-0.029-0.803-0.024-1.203
			c0.006-0.453,0.017-0.906,0.052-1.358c0.029-0.382,0.115-0.761,0.137-1.144c0.012-0.231-0.089-0.47-0.074-0.699
			c0.042-0.684,0.117-1.364,0.174-2.046c0.006-0.062-0.001-0.154-0.04-0.186c-0.485-0.377-0.199-0.842-0.174-1.289
			c0.036-0.625,0.023-1.254,0.021-1.881c-0.003-0.771-0.014-1.543-0.025-2.314c-0.002-0.156,0.011-0.326-0.046-0.466
			c-0.112-0.274-0.132-0.526,0.022-0.785c0.02-0.032,0.04-0.085,0.026-0.112c-0.323-0.69,0.194-1.389-0.001-2.05
			c-0.094-0.316-0.019-0.563-0.012-0.847c0.008-0.362,0.006-0.734-0.061-1.089c-0.07-0.376-0.028-0.702,0.094-1.066
			c0.107-0.318,0.04-0.692,0.07-1.041c0.021-0.24,0.075-0.478,0.113-0.716c0.008-0.052,0.024-0.106,0.011-0.153
			c-0.082-0.282-0.167-0.562-0.259-0.842c-0.014-0.042-0.077-0.066-0.142-0.118c0.37-0.244,0.541-0.587,0.433-1.03
			c-0.024-0.099-0.088-0.186-0.126-0.28c-0.049-0.122-0.149-0.261-0.125-0.37c0.092-0.414,0.099-0.787-0.059-1.211
			c-0.115-0.312-0.003-0.709,0.023-1.068c0.052-0.729,0.127-1.455,0.167-2.186c0.015-0.278-0.166-0.641-0.044-0.824
			c0.336-0.505,0.075-1.004,0.106-1.498c0.028-0.422-0.053-0.849-0.058-1.273c-0.002-0.174,0.071-0.351,0.104-0.526
			c0.012-0.063,0.034-0.147,0.005-0.192c-0.391-0.639,0.067-1.24,0.093-1.857c0.025-0.61,0.092-1.208-0.099-1.802
			c-0.027-0.085-0.056-0.18-0.045-0.265c0.075-0.594,0.176-1.185,0.237-1.779c0.062-0.619,0.08-1.24,0.132-1.86
			c0.024-0.276,0.017-0.589,0.145-0.817c0.243-0.436,0.157-0.856,0.095-1.297c-0.025-0.174,0.022-0.357,0.001-0.531
			c-0.033-0.278-0.135-0.552-0.138-0.828c-0.005-0.507,0.06-1.013,0.059-1.519c-0.001-0.35-0.083-0.697-0.096-1.047
			c-0.013-0.368,0.015-0.737,0.022-1.106c0.011-0.597,0.012-1.195,0.03-1.792c0.021-0.678,0.058-1.354,0.081-2.03
			c0.003-0.101-0.017-0.209-0.054-0.303c-0.117-0.288-0.138-0.53-0.084-0.877c0.085-0.551,0.226-1.25-0.274-1.607
			c0-0.346-0.001-0.581,0-0.816c0-0.117-0.022-0.244,0.016-0.348c0.124-0.34,0.045-0.622-0.056-0.968
			c-0.119-0.407,0.004-0.895,0.057-1.343c0.046-0.392,0.159-0.776,0.208-1.167c0.047-0.376,0.067-0.758,0.067-1.137
			c-0.001-0.166-0.104-0.332-0.121-0.501c-0.026-0.26-0.023-0.523-0.024-0.786c0-0.062,0.073-0.156,0.051-0.181
			c-0.46-0.506,0.145-1.145-0.211-1.673c-0.059-0.087,0.006-0.314,0.085-0.427c0.271-0.389,0.281-0.779,0.171-1.229
			c-0.072-0.293-0.024-0.619-0.008-0.929c0.03-0.585,0.071-1.169,0.118-1.752c0.016-0.194,0.075-0.384,0.091-0.579
			c0.016-0.18,0.05-0.384-0.013-0.54c-0.158-0.39-0.212-0.754-0.101-1.178c0.075-0.284-0.019-0.611-0.022-0.919
			c-0.001-0.221,0.025-0.44,0.038-0.661c0.006-0.104,0.045-0.225,0.005-0.308c-0.16-0.328-0.245-0.655-0.125-1.02
			c0.02-0.061-0.008-0.169-0.055-0.215c-0.314-0.312-0.219-0.692-0.157-1.045c0.138-0.789,0.238-1.577,0.096-2.378
			c-0.012-0.063,0.031-0.14,0.061-0.205c0.025-0.059,0.099-0.111,0.096-0.164c-0.025-0.524-0.004-1.06-0.107-1.569
			c-0.139-0.687-0.389-1.344-0.242-2.073c0.048-0.234-0.106-0.505-0.13-0.762c-0.02-0.224,0.014-0.451,0.025-0.677
			c0.011-0.218,0.036-0.437,0.034-0.652c-0.007-0.492-0.014-0.984-0.046-1.475c-0.023-0.349-0.092-0.694-0.128-1.042
			c-0.017-0.166-0.063-0.359,0-0.495c0.277-0.6,0.232-1.216,0.189-1.848c-0.063-0.945-0.069-1.895-0.115-2.842
			c-0.019-0.388-0.098-0.773-0.112-1.162c-0.007-0.203,0.072-0.408,0.101-0.615c0.029-0.212,0.118-0.452,0.052-0.632
			c-0.184-0.503-0.061-0.941,0.15-1.39c0.045-0.095,0.062-0.246,0.019-0.336c-0.229-0.479-0.285-0.963-0.131-1.475
			c0.024-0.081-0.039-0.188-0.061-0.282c-0.02-0.086-0.084-0.192-0.055-0.253c0.346-0.708,0.059-1.448,0.12-2.169
			c0.02-0.234,0.025-0.471,0.019-0.705c-0.01-0.318-0.062-0.638-0.053-0.956c0.011-0.398,0.064-0.798,0.105-1.195
			c0.007-0.062,0.082-0.141,0.063-0.18c-0.227-0.478,0.004-0.982-0.101-1.468c-0.048-0.224-0.012-0.464-0.033-0.696
			c-0.027-0.281-0.088-0.56-0.105-0.841c-0.01-0.173,0.051-0.35,0.051-0.523c0-0.429-0.03-0.857-0.021-1.284
			c0.003-0.188,0.109-0.373,0.105-0.558c-0.029-1.124-0.059-2.24,0.158-3.36c0.114-0.593-0.004-1.229-0.005-1.846
			c0-0.697,0.012-1.396,0.023-2.096c0.014-0.85,0.027-1.699,0.055-2.549c0.007-0.218,0.078-0.433,0.11-0.65
			c0.107-0.724,0.259-1.444,0.303-2.172C3.276,2.195,4.221,1.62,4.89,1.635c0.916,0.021,1.471,0.792,1.642,1.428
			c0.032,0.118-0.014,0.297-0.087,0.401c-0.389,0.551-0.45,1.178-0.476,1.822C5.962,5.46,5.885,5.63,5.84,5.801
			C5.836,5.812,5.817,5.824,5.819,5.833C5.973,6.497,5.37,7.087,5.684,7.802c0.23,0.521,0.203,1.12-0.103,1.655
			c-0.026,0.046-0.061,0.1-0.057,0.146c0.045,0.502,0.106,1.003,0.144,1.505c0.046,0.611,0.096,1.223,0.104,1.835
			c0.006,0.458-0.153,0.938-0.059,1.368c0.14,0.642,0.048,1.263-0.052,1.864c-0.113,0.678,0.039,1.331-0.013,1.996
			c-0.026,0.342,0.067,0.692,0.085,1.04c0.011,0.207-0.033,0.416-0.028,0.624c0.01,0.438,0.052,0.874,0.048,1.311
			c-0.002,0.278-0.071,0.557-0.091,0.837c-0.01,0.132,0.024,0.269,0.04,0.402c0.035,0.306,0.081,0.611,0.103,0.92
			c0.023,0.358,0.043,0.721,0.031,1.079c-0.021,0.624-0.067,1.247-0.103,1.871c-0.023,0.412-0.132,0.844-0.046,1.229
			c0.121,0.541,0.111,1.038-0.002,1.572c-0.063,0.298,0.047,0.634,0.08,0.951c0.024,0.234,0.079,0.47,0.069,0.702
			c-0.02,0.506-0.202,1.043-0.083,1.507c0.219,0.858-0.063,1.706,0.104,2.57c0.125,0.647-0.117,1.362-0.172,2.049
			c-0.022,0.27,0.013,0.542,0.026,0.814c0.003,0.064,0.033,0.128,0.033,0.192c0,0.549-0.032,1.099,0,1.646
			c0.064,1.103,0.175,2.201,0.241,3.305c0.02,0.334,0.024,0.696-0.085,1.002c-0.125,0.349,0.021,0.608,0.103,0.903
			c0.061,0.225,0.127,0.45,0.151,0.679c0.102,0.993-0.067,1.974-0.132,2.96c-0.055,0.838,0.073,1.673,0.247,2.504
			c0.085,0.403-0.021,0.843-0.009,1.266c0.006,0.212,0.104,0.42,0.122,0.633c0.038,0.452,0.065,0.907,0.071,1.361
			c0.009,0.675,0.015,1.352-0.022,2.025c-0.01,0.192-0.146,0.397-0.269,0.563c-0.179,0.239-0.277,0.434-0.103,0.742
			c0.125,0.223,0.153,0.517,0.165,0.782c0.02,0.397-0.019,0.797-0.02,1.196c0,0.229,0.021,0.461,0.038,0.69
			c0.022,0.282,0.061,0.564,0.071,0.847c0.007,0.179-0.02,0.361-0.042,0.542c-0.044,0.354-0.172,0.716-0.131,1.059
			c0.161,1.342,0.238,2.674-0.05,4.008c-0.027,0.124-0.032,0.284,0.025,0.389c0.26,0.482,0.155,0.976,0.133,1.486
			c-0.028,0.623,0.075,1.252,0.123,1.879c0.007,0.09,0.066,0.223,0.027,0.261c-0.313,0.309-0.068,0.573,0,0.883
			c0.066,0.297,0.036,0.667-0.09,0.943c-0.187,0.405-0.039,0.731,0.067,1.091c0.042,0.14,0.095,0.289,0.089,0.433
			c-0.026,0.606-0.115,1.214-0.098,1.818c0.013,0.464,0.155,0.924,0.228,1.388c0.018,0.111,0.002,0.232-0.021,0.345
			c-0.09,0.436-0.153,0.846,0.001,1.305c0.116,0.345,0.125,0.796,0,1.134c-0.206,0.559-0.14,1.086-0.083,1.639
			c0.035,0.331,0.002,0.669-0.021,1.003c-0.042,0.603-0.284,1.21-0.017,1.671c-0.124,0.496-0.262,0.877-0.307,1.271
			c-0.078,0.673-0.098,1.352-0.143,2.028c-0.002,0.026-0.002,0.053-0.003,0.078c-0.021,0.919-0.047,1.836-0.061,2.755
			c-0.003,0.234,0.05,0.468,0.044,0.702c-0.004,0.195-0.07,0.388-0.082,0.584c-0.011,0.188,0.012,0.377,0.023,0.566
			c0.024,0.369,0.093,0.742,0.065,1.107c-0.033,0.435-0.318,0.922-0.193,1.279c0.217,0.619-0.271,1.119-0.097,1.703
			c0.083,0.276-0.044,0.607-0.006,0.906c0.037,0.297,0.175,0.579,0.242,0.874c0.031,0.133,0.006,0.28-0.009,0.421
			c-0.059,0.549-0.231,1.114-0.15,1.641c0.06,0.393-0.062,0.729-0.047,1.057c0.032,0.655-0.298,1.313,0.038,1.979
			c0.113,0.223,0.003,0.557-0.001,0.839c-0.001,0.091-0.031,0.211,0.014,0.269c0.284,0.359,0.28,0.721,0.062,1.106
			c-0.035,0.061-0.032,0.16-0.012,0.232c0.15,0.524-0.091,0.979-0.203,1.47c-0.101,0.445-0.027,0.934-0.007,1.402
			c0.02,0.449,0.084,0.897,0.102,1.347c0.029,0.735,0.034,1.469,0.055,2.204c0.006,0.22,0.053,0.44,0.05,0.66
			c-0.015,1.226-0.063,2.45-0.051,3.676c0.005,0.485-0.081,0.947-0.133,1.421c-0.036,0.314,0.092,0.647,0.15,0.972
			c0.009,0.05,0.059,0.119,0.041,0.144c-0.247,0.342,0.004,0.683-0.011,1.019c-0.017,0.354-0.151,0.702-0.196,1.059
			c-0.037,0.299-0.062,0.611-0.015,0.905c0.073,0.438,0.14,0.838-0.247,1.188c-0.081,0.073-0.052,0.331-0.001,0.478
			c0.238,0.686,0.459,1.355,0.191,2.099c-0.095,0.263-0.208,0.52,0.063,0.883c0.222,0.297,0.324,0.836,0.155,1.341
			c-0.143,0.428-0.156,0.923-0.121,1.378c0.053,0.681,0.257,1.354,0.025,2.037c-0.028,0.083-0.043,0.198-0.006,0.271
			c0.299,0.588-0.07,1.146-0.062,1.721c0.004,0.313-0.03,0.643,0.05,0.937c0.088,0.328,0.006,0.601-0.069,0.904
			c-0.087,0.35-0.099,0.72-0.135,1.081c-0.063,0.646-0.148,1.289-0.169,1.936c-0.013,0.409,0.078,0.819,0.112,1.229
			c0.007,0.084-0.02,0.177-0.053,0.255c-0.128,0.296-0.082,0.553,0.033,0.862c0.126,0.338,0.13,0.739,0.113,1.11
			c-0.04,0.868-0.155,1.732-0.182,2.601c-0.021,0.708,0.042,1.42,0.069,2.129c0.001,0.052,0.044,0.116,0.025,0.151
			c-0.313,0.585,0.008,1.102,0.142,1.646c0.061,0.243-0.028,0.523-0.056,0.786c-0.012,0.112-0.095,0.266-0.049,0.327
			c0.473,0.643,0.269,1.376,0.315,2.075c0.021,0.332,0.111,0.659,0.155,0.99c0.054,0.406,0.141,0.815,0.128,1.219
			c-0.027,0.913,0.2,1.782,0.34,2.67c0.09,0.576,0.065,1.17,0.096,1.755c0.009,0.176,0.037,0.35,0.043,0.524
			c0.038,0.986,0.062,1.974,0.11,2.96c0.026,0.556,0.105,1.109,0.126,1.665c0.016,0.43-0.032,0.861-0.035,1.292
			c-0.006,0.827,0.113,1.675-0.029,2.477c-0.153,0.859-0.013,1.679-0.011,2.519c0.002,0.822-0.17,1.645-0.266,2.469
			c-0.006,0.052-0.026,0.106-0.015,0.153c0.126,0.566,0.004,1.121-0.073,1.678c-0.006,0.05-0.021,0.113,0.002,0.152
			c0.267,0.471,0.237,0.986,0.209,1.494c-0.036,0.632-0.12,1.261-0.159,1.892C6.361,177.427,6.426,177.629,6.447,177.771z"/>
	</g>
</g>
</svg>
