<?xml version="1.0" encoding="utf-8"?>
<!-- Generator: Adobe Illustrator 16.0.0, SVG Export Plug-In . SVG Version: 6.00 Build 0)  -->
<!DOCTYPE svg PUBLIC "-//W3C//DTD SVG 1.1//EN" "http://www.w3.org/Graphics/SVG/1.1/DTD/svg11.dtd">
<svg version="1.1" id="Layer_1" xmlns="http://www.w3.org/2000/svg" xmlns:xlink="http://www.w3.org/1999/xlink" x="0px" y="0px"
	 width="10.583px" height="208.667px" viewBox="0 0 10.583 208.667" enable-background="new 0 0 10.583 208.667"
	 xml:space="preserve">
<g id="qYNpCp_1_">
	<g>
		<path fill="#A4FF62" d="M38.874,172.414c-0.021-0.142-0.086-0.344-0.074-0.541c0.039-0.631,0.123-1.26,0.159-1.892
			c0.028-0.508,0.058-1.023-0.209-1.494c-0.022-0.039-0.008-0.103-0.002-0.152c0.077-0.557,0.199-1.111,0.073-1.678
			c-0.011-0.047,0.009-0.102,0.015-0.153c0.095-0.824,0.268-1.646,0.266-2.469c-0.002-0.84-0.142-1.659,0.011-2.519
			c0.143-0.802,0.023-1.649,0.029-2.477c0.003-0.431,0.05-0.862,0.035-1.292c-0.021-0.556-0.1-1.109-0.126-1.665
			c-0.047-0.986-0.072-1.974-0.11-2.96c-0.006-0.175-0.034-0.349-0.043-0.524c-0.03-0.585-0.006-1.179-0.096-1.755
			c-0.14-0.888-0.367-1.757-0.34-2.67c0.012-0.403-0.074-0.812-0.128-1.219c-0.044-0.331-0.134-0.658-0.155-0.99
			c-0.046-0.699,0.158-1.433-0.315-2.075c-0.046-0.062,0.037-0.215,0.049-0.327c0.027-0.263,0.116-0.543,0.056-0.786
			c-0.134-0.545-0.455-1.062-0.142-1.646c0.019-0.035-0.023-0.1-0.025-0.151c-0.027-0.709-0.091-1.421-0.069-2.129
			c0.027-0.868,0.142-1.732,0.182-2.601c0.017-0.371,0.013-0.772-0.113-1.11c-0.115-0.31-0.161-0.566-0.033-0.862
			c0.034-0.078,0.061-0.171,0.053-0.255c-0.034-0.41-0.125-0.82-0.112-1.229c0.021-0.646,0.105-1.29,0.169-1.936
			c0.036-0.361,0.048-0.731,0.135-1.081c0.076-0.304,0.158-0.576,0.069-0.904c-0.081-0.294-0.046-0.623-0.05-0.937
			c-0.007-0.574,0.361-1.133,0.062-1.721c-0.037-0.072-0.022-0.188,0.006-0.271c0.232-0.684,0.028-1.356-0.025-2.037
			c-0.036-0.455-0.022-0.95,0.121-1.378c0.169-0.505,0.066-1.044-0.155-1.341c-0.271-0.363-0.158-0.62-0.063-0.883
			c0.268-0.743,0.046-1.413-0.191-2.099c-0.051-0.146-0.08-0.404,0.001-0.478c0.387-0.351,0.32-0.75,0.247-1.188
			c-0.048-0.294-0.022-0.606,0.015-0.905c0.045-0.356,0.179-0.704,0.196-1.059c0.015-0.336-0.236-0.677,0.011-1.019
			c0.018-0.024-0.032-0.094-0.041-0.144c-0.058-0.324-0.186-0.657-0.15-0.972c0.052-0.474,0.138-0.936,0.133-1.421
			c-0.012-1.226,0.036-2.45,0.051-3.676c0.003-0.22-0.043-0.44-0.05-0.66c-0.021-0.735-0.026-1.469-0.055-2.204
			c-0.018-0.449-0.082-0.897-0.102-1.347c-0.02-0.469-0.094-0.957,0.007-1.402c0.111-0.49,0.353-0.945,0.203-1.47
			c-0.021-0.072-0.023-0.172,0.012-0.232c0.218-0.386,0.222-0.747-0.062-1.106c-0.045-0.058-0.015-0.178-0.014-0.269
			c0.005-0.282,0.114-0.616,0.001-0.839c-0.336-0.665-0.005-1.323-0.038-1.979c-0.016-0.328,0.106-0.664,0.047-1.057
			c-0.081-0.526,0.092-1.092,0.15-1.641c0.016-0.141,0.04-0.288,0.009-0.421c-0.067-0.295-0.205-0.577-0.242-0.874
			c-0.038-0.299,0.089-0.63,0.006-0.906c-0.174-0.584,0.314-1.084,0.097-1.703c-0.125-0.357,0.16-0.845,0.193-1.279
			c0.028-0.365-0.041-0.738-0.065-1.107c-0.012-0.189-0.034-0.378-0.023-0.566c0.011-0.196,0.078-0.389,0.082-0.584
			c0.005-0.234-0.048-0.468-0.044-0.702c0.014-0.919,0.04-1.836,0.061-2.755c0.001-0.025,0.001-0.052,0.003-0.078
			c0.044-0.677,0.064-1.355,0.143-2.028c0.045-0.394,0.184-0.774,0.307-1.271c-0.267-0.461-0.025-1.068,0.017-1.671
			c0.023-0.334,0.056-0.672,0.021-1.003c-0.058-0.553-0.124-1.08,0.083-1.639c0.125-0.338,0.116-0.789,0-1.134
			c-0.154-0.459-0.092-0.869-0.001-1.305c0.023-0.112,0.039-0.233,0.021-0.345c-0.073-0.464-0.215-0.924-0.228-1.388
			c-0.017-0.604,0.071-1.212,0.098-1.818c0.006-0.144-0.047-0.293-0.089-0.433c-0.106-0.359-0.254-0.686-0.067-1.091
			c0.126-0.276,0.157-0.646,0.09-0.943c-0.068-0.31-0.313-0.574,0-0.883c0.039-0.038-0.021-0.171-0.027-0.261
			c-0.048-0.627-0.15-1.256-0.123-1.879c0.022-0.511,0.127-1.004-0.133-1.486c-0.057-0.104-0.052-0.265-0.025-0.389
			c0.288-1.334,0.211-2.666,0.05-4.008c-0.041-0.343,0.087-0.705,0.131-1.059c0.022-0.181,0.049-0.363,0.042-0.542
			c-0.01-0.282-0.049-0.564-0.071-0.847c-0.017-0.229-0.039-0.461-0.038-0.69c0.001-0.399,0.04-0.799,0.02-1.196
			c-0.012-0.266-0.04-0.56-0.165-0.782c-0.174-0.309-0.076-0.503,0.103-0.742c0.124-0.166,0.259-0.371,0.269-0.563
			c0.037-0.674,0.031-1.351,0.022-2.025c-0.005-0.454-0.033-0.909-0.071-1.361c-0.018-0.213-0.115-0.421-0.122-0.633
			c-0.012-0.423,0.094-0.862,0.009-1.266c-0.174-0.831-0.301-1.666-0.247-2.504c0.065-0.986,0.234-1.967,0.132-2.96
			c-0.024-0.229-0.09-0.454-0.151-0.679c-0.082-0.295-0.228-0.555-0.103-0.903c0.109-0.306,0.105-0.668,0.085-1.002
			c-0.066-1.104-0.176-2.202-0.241-3.305c-0.032-0.547,0-1.097,0-1.646c0-0.064-0.03-0.128-0.033-0.192
			c-0.013-0.272-0.048-0.545-0.026-0.814c0.056-0.687,0.297-1.401,0.172-2.049c-0.167-0.864,0.115-1.712-0.104-2.57
			c-0.119-0.464,0.063-1.001,0.083-1.507c0.01-0.232-0.044-0.468-0.069-0.702c-0.033-0.317-0.144-0.653-0.08-0.951
			c0.113-0.534,0.123-1.031,0.002-1.572c-0.086-0.386,0.023-0.817,0.046-1.229c0.036-0.624,0.082-1.247,0.103-1.871
			c0.012-0.358-0.008-0.721-0.031-1.079c-0.021-0.309-0.068-0.614-0.103-0.92c-0.015-0.134-0.049-0.271-0.04-0.402
			c0.02-0.28,0.089-0.559,0.091-0.837c0.004-0.437-0.039-0.873-0.048-1.311c-0.005-0.208,0.039-0.417,0.028-0.624
			c-0.018-0.348-0.112-0.698-0.085-1.04c0.052-0.665-0.1-1.318,0.013-1.996c0.1-0.602,0.192-1.223,0.052-1.864
			c-0.094-0.431,0.065-0.91,0.059-1.368c-0.007-0.612-0.058-1.224-0.104-1.835c-0.038-0.502-0.099-1.003-0.144-1.505
			c-0.004-0.046,0.031-0.1,0.057-0.146c0.306-0.535,0.333-1.134,0.103-1.655c-0.314-0.715,0.289-1.305,0.135-1.969
			c-0.002-0.009,0.018-0.021,0.021-0.032c0.045-0.171,0.122-0.341,0.128-0.515c0.025-0.645,0.086-1.271,0.476-1.822
			c0.074-0.104,0.119-0.283,0.087-0.401c-0.171-0.636-0.726-1.407-1.642-1.428c-0.669-0.015-1.614,0.561-1.663,1.354
			c-0.043,0.728-0.195,1.448-0.303,2.172c-0.032,0.218-0.103,0.433-0.11,0.65c-0.028,0.85-0.042,1.699-0.055,2.549
			c-0.011,0.699-0.023,1.398-0.023,2.096c0.001,0.617,0.119,1.253,0.005,1.846c-0.217,1.12-0.188,2.236-0.158,3.36
			c0.004,0.185-0.102,0.37-0.105,0.558c-0.009,0.427,0.021,0.855,0.021,1.284c0,0.174-0.061,0.351-0.051,0.523
			c0.017,0.281,0.079,0.56,0.105,0.841c0.021,0.232-0.015,0.473,0.033,0.696c0.105,0.485-0.126,0.99,0.101,1.468
			c0.019,0.039-0.056,0.117-0.063,0.18c-0.041,0.397-0.094,0.797-0.105,1.195c-0.009,0.318,0.043,0.638,0.053,0.956
			c0.007,0.234,0.001,0.471-0.019,0.705c-0.061,0.721,0.227,1.461-0.12,2.169c-0.03,0.061,0.035,0.167,0.055,0.253
			c0.022,0.094,0.085,0.201,0.061,0.282c-0.154,0.512-0.098,0.995,0.131,1.475c0.043,0.09,0.027,0.241-0.019,0.336
			c-0.211,0.448-0.334,0.887-0.15,1.39c0.066,0.18-0.022,0.42-0.052,0.632c-0.029,0.207-0.108,0.412-0.101,0.615
			c0.014,0.389,0.093,0.774,0.112,1.162c0.046,0.947,0.052,1.896,0.115,2.842c0.042,0.632,0.087,1.248-0.189,1.848
			c-0.063,0.136-0.017,0.329,0,0.495c0.037,0.348,0.105,0.693,0.128,1.042c0.032,0.49,0.039,0.982,0.046,1.475
			c0.002,0.216-0.023,0.435-0.034,0.652c-0.011,0.226-0.045,0.453-0.025,0.677c0.023,0.257,0.178,0.527,0.13,0.762
			c-0.147,0.729,0.103,1.387,0.242,2.073c0.104,0.51,0.083,1.045,0.107,1.569c0.002,0.053-0.071,0.105-0.096,0.164
			c-0.03,0.065-0.072,0.142-0.061,0.205c0.142,0.801,0.042,1.589-0.096,2.378c-0.062,0.353-0.157,0.733,0.157,1.045
			c0.046,0.046,0.075,0.154,0.055,0.215c-0.12,0.364-0.035,0.691,0.125,1.02c0.04,0.083,0,0.204-0.005,0.308
			c-0.013,0.221-0.039,0.44-0.038,0.661c0.003,0.308,0.097,0.635,0.022,0.919c-0.111,0.424-0.057,0.788,0.101,1.178
			c0.062,0.156,0.028,0.36,0.013,0.54c-0.016,0.195-0.075,0.385-0.091,0.579c-0.047,0.583-0.088,1.167-0.118,1.752
			c-0.016,0.31-0.064,0.636,0.008,0.929c0.11,0.449,0.1,0.84-0.171,1.229c-0.079,0.112-0.144,0.34-0.085,0.427
			c0.355,0.528-0.249,1.167,0.211,1.673c0.022,0.024-0.051,0.119-0.051,0.181c0,0.263-0.002,0.526,0.024,0.786
			c0.018,0.169,0.12,0.335,0.121,0.501c0,0.379-0.02,0.761-0.067,1.137c-0.049,0.391-0.162,0.775-0.208,1.167
			c-0.053,0.448-0.176,0.936-0.057,1.343c0.101,0.346,0.179,0.628,0.056,0.968c-0.038,0.104-0.016,0.23-0.016,0.348
			c-0.002,0.235,0,0.471,0,0.816c0.5,0.357,0.36,1.057,0.274,1.607c-0.054,0.347-0.032,0.589,0.084,0.877
			c0.038,0.094,0.058,0.202,0.054,0.303c-0.023,0.677-0.06,1.353-0.081,2.03c-0.018,0.597-0.02,1.195-0.03,1.792
			c-0.007,0.369-0.035,0.738-0.022,1.106c0.013,0.35,0.094,0.697,0.096,1.047c0.001,0.506-0.064,1.012-0.059,1.519
			c0.003,0.276,0.105,0.55,0.138,0.828c0.021,0.174-0.026,0.357-0.001,0.531c0.062,0.44,0.148,0.861-0.095,1.297
			c-0.128,0.229-0.121,0.541-0.145,0.817c-0.053,0.62-0.07,1.241-0.132,1.86c-0.061,0.595-0.162,1.186-0.237,1.779
			c-0.01,0.085,0.019,0.18,0.045,0.265c0.19,0.594,0.124,1.191,0.099,1.802c-0.026,0.617-0.484,1.219-0.093,1.857
			c0.029,0.045,0.007,0.129-0.005,0.192c-0.033,0.176-0.106,0.353-0.104,0.526c0.005,0.425,0.086,0.852,0.058,1.273
			c-0.032,0.494,0.23,0.993-0.106,1.498c-0.122,0.184,0.059,0.546,0.044,0.824c-0.04,0.73-0.115,1.457-0.167,2.186
			c-0.026,0.359-0.138,0.757-0.023,1.068c0.157,0.424,0.151,0.797,0.059,1.211c-0.023,0.109,0.077,0.248,0.125,0.37
			c0.038,0.095,0.103,0.182,0.126,0.28c0.108,0.443-0.063,0.786-0.433,1.03c0.064,0.052,0.128,0.076,0.142,0.118
			c0.093,0.279,0.178,0.56,0.259,0.842c0.013,0.047-0.003,0.102-0.011,0.153c-0.038,0.238-0.092,0.476-0.113,0.716
			c-0.03,0.349,0.037,0.723-0.07,1.041c-0.122,0.364-0.164,0.69-0.094,1.066c0.067,0.354,0.069,0.727,0.061,1.089
			c-0.007,0.283-0.082,0.53,0.012,0.847c0.195,0.661-0.322,1.359,0.001,2.05c0.013,0.027-0.007,0.08-0.026,0.112
			c-0.155,0.259-0.135,0.511-0.022,0.785c0.057,0.14,0.044,0.31,0.046,0.466c0.012,0.771,0.022,1.543,0.025,2.314
			c0.002,0.627,0.016,1.256-0.021,1.881c-0.025,0.447-0.312,0.912,0.174,1.289c0.039,0.031,0.046,0.124,0.04,0.186
			c-0.057,0.682-0.132,1.362-0.174,2.046c-0.015,0.229,0.086,0.468,0.074,0.699c-0.021,0.383-0.108,0.762-0.137,1.144
			c-0.035,0.452-0.046,0.905-0.052,1.358c-0.004,0.4,0,0.802,0.024,1.203c0.02,0.332,0.199,0.713,0.088,0.982
			c-0.235,0.569-0.113,1.122-0.094,1.678c0.019,0.56,0.151,1.117,0.178,1.678c0.02,0.395-0.037,0.795-0.087,1.189
			c-0.09,0.718,0.389,1.439-0.023,2.151c-0.005,0.01,0,0.026,0.003,0.039c0.203,0.903,0.08,1.804-0.03,2.704
			c-0.028,0.231-0.027,0.466-0.046,0.699c-0.053,0.641-0.131,1.28-0.16,1.922c-0.03,0.671-0.013,1.343-0.021,2.014
			c-0.001,0.078-0.034,0.154-0.047,0.231c-0.085,0.511-0.159,1.025-0.255,1.536c-0.123,0.649,0.339,1.287,0.001,1.954
			c-0.085,0.168,0.065,0.448,0.086,0.68c0.073,0.777,0.176,1.556,0.195,2.335c0.026,1.071-0.014,2.145-0.026,3.218
			c-0.001,0.129-0.011,0.259-0.007,0.389c0.015,0.451,0.088,0.91,0.039,1.354c-0.065,0.584,0.065,1.105,0.287,1.631
			c0.068,0.158,0.095,0.355,0.075,0.527c-0.07,0.606,0.014,1.177,0.229,1.75c0.115,0.307,0.103,0.662,0.142,0.996
			c0.051,0.45-0.062,0.926,0.25,1.332c0.056,0.073,0.061,0.288,0.01,0.324c-0.31,0.219-0.221,0.494-0.163,0.779
			c0.088,0.432,0.183,0.864,0.235,1.301c0.053,0.449,0.062,0.904,0.082,1.357c0.039,0.876,0.08,1.752,0.105,2.627
			c0.016,0.548-0.022,1.098,0.01,1.643c0.033,0.555,0.196,1.106-0.055,1.651c-0.035,0.077-0.012,0.182-0.015,0.273
			c-0.022,0.619-0.039,1.239-0.068,1.857c-0.019,0.418-0.084,0.834-0.08,1.251c0.01,1.039,0.043,2.077,0.077,3.116
			c0.017,0.526,0.085,1.055,0.079,1.581c-0.009,1.021-0.062,2.04-0.083,3.061c-0.02,0.992,0.021,1.986-0.042,2.974
			c-0.074,1.147-0.331,2.274-0.163,3.445c0.097,0.673,0.02,1.375-0.019,2.062c-0.046,0.838-0.091,1.681-0.219,2.508
			c-0.085,0.547-0.063,1.088-0.075,1.631c-0.009,0.461,0.13,0.932-0.137,1.37c-0.034,0.056-0.037,0.159-0.009,0.22
			c0.174,0.375,0.065,0.705-0.064,1.072c-0.125,0.355-0.17,0.756-0.16,1.136c0.025,0.923,0.074,1.843-0.007,2.769
			c-0.081,0.924-0.165,1.857-0.114,2.78c0.034,0.615-0.207,1.107-0.34,1.658c-0.118,0.485-0.217,0.994-0.303,1.497
			c-0.014,0.083,0.052,0.177,0.057,0.268c0.023,0.401,0.031,0.803,0.055,1.205c0.037,0.616,0.083,1.232,0.125,1.849
			c0.032,0.458,0.017,0.925,0.107,1.37c0.1,0.484,0.044,0.967,0.088,1.436c0.073,0.77,0.017,1.5-0.145,2.238
			c-0.121,0.55-0.259,1.095-0.371,1.646c-0.02,0.097,0.018,0.262,0.089,0.312c0.371,0.267,0.292,0.701,0.428,1.053
			c0.058,0.151,0.103,0.382,0.213,0.426c0.283,0.107,0.619,0.223,0.893,0.16c0.209-0.049,0.341-0.165,0.543,0.019
			c0.072,0.064,0.307,0.072,0.366,0.011c0.438-0.46,1.037-0.758,1.082-1.566c0.036-0.633,0.309-1.249,0.023-1.89
			c-0.029-0.063-0.01-0.153-0.001-0.23c0.034-0.314,0.103-0.629,0.103-0.944c0-0.633-0.032-1.269-0.06-1.902
			c-0.005-0.115-0.061-0.228-0.078-0.346c-0.017-0.113-0.027-0.23-0.02-0.346c0.029-0.408,0.088-0.816,0.095-1.226
			c0.012-0.637-0.037-1.274-0.012-1.909c0.047-1.225,0.055-2.457,0.228-3.666c0.083-0.586,0.149-1.156,0.128-1.741
			c-0.019-0.518-0.035-1.035-0.046-1.553c-0.002-0.076,0.02-0.153,0.042-0.229c0.064-0.227,0.173-0.45,0.192-0.681
			c0.026-0.314-0.048-0.637-0.022-0.951c0.053-0.637,0.18-1.27,0.211-1.907c0.029-0.588,0.208-1.194-0.121-1.771
			c-0.048-0.086,0.032-0.305,0.119-0.398c0.333-0.354,0.384-0.786,0.29-1.208c-0.153-0.68-0.179-1.321,0.146-1.964
			c0.077-0.152,0.072-0.396,0.009-0.562c-0.216-0.57-0.216-1.13-0.104-1.725c0.093-0.493,0.074-1.007,0.101-1.512
			c0.002-0.035-0.014-0.087-0.04-0.107c-0.322-0.259-0.116-0.548-0.052-0.828c0.038-0.165,0.116-0.328,0.112-0.491
			c-0.016-0.739-0.068-1.479-0.077-2.218C38.717,172.935,38.811,172.707,38.874,172.414z"/>
		<path fill="#A4FF62" fill-rule="evenodd" clip-rule="evenodd" d="M38.874,172.414c-0.063,0.293-0.157,0.521-0.154,0.748
			c0.009,0.739,0.061,1.479,0.077,2.218c0.003,0.163-0.075,0.326-0.112,0.491c-0.064,0.28-0.271,0.569,0.052,0.828
			c0.026,0.021,0.042,0.072,0.04,0.107c-0.027,0.505-0.008,1.019-0.101,1.512c-0.112,0.595-0.112,1.154,0.104,1.725
			c0.063,0.165,0.068,0.409-0.009,0.562c-0.325,0.643-0.299,1.284-0.146,1.964c0.095,0.422,0.044,0.854-0.29,1.208
			c-0.087,0.094-0.167,0.312-0.119,0.398c0.329,0.576,0.15,1.183,0.121,1.771c-0.031,0.638-0.158,1.271-0.211,1.907
			c-0.026,0.314,0.048,0.637,0.022,0.951c-0.019,0.23-0.128,0.454-0.192,0.681c-0.021,0.076-0.044,0.153-0.042,0.229
			c0.011,0.518,0.027,1.035,0.046,1.553c0.021,0.585-0.045,1.155-0.128,1.741c-0.173,1.209-0.181,2.441-0.228,3.666
			c-0.025,0.635,0.023,1.272,0.012,1.909c-0.007,0.409-0.066,0.817-0.095,1.226c-0.008,0.115,0.002,0.232,0.02,0.346
			c0.017,0.118,0.072,0.23,0.078,0.346c0.027,0.634,0.06,1.27,0.06,1.902c0,0.315-0.068,0.63-0.103,0.944
			c-0.009,0.077-0.028,0.167,0.001,0.23c0.285,0.641,0.012,1.257-0.023,1.89c-0.045,0.809-0.643,1.106-1.082,1.566
			c-0.06,0.062-0.294,0.054-0.366-0.011c-0.202-0.184-0.334-0.067-0.543-0.019c-0.274,0.062-0.61-0.053-0.893-0.16
			c-0.11-0.044-0.156-0.274-0.213-0.426c-0.136-0.352-0.057-0.786-0.428-1.053c-0.071-0.05-0.109-0.215-0.089-0.312
			c0.112-0.551,0.25-1.096,0.371-1.646c0.162-0.738,0.218-1.469,0.145-2.238c-0.044-0.469,0.011-0.951-0.088-1.436
			c-0.091-0.445-0.076-0.912-0.107-1.37c-0.042-0.616-0.088-1.232-0.125-1.849c-0.024-0.402-0.032-0.804-0.055-1.205
			c-0.004-0.091-0.071-0.185-0.057-0.268c0.086-0.503,0.185-1.012,0.303-1.497c0.134-0.551,0.374-1.043,0.34-1.658
			c-0.051-0.923,0.033-1.856,0.114-2.78c0.081-0.926,0.032-1.846,0.007-2.769c-0.011-0.38,0.035-0.78,0.16-1.136
			c0.129-0.367,0.238-0.697,0.064-1.072c-0.028-0.061-0.025-0.164,0.009-0.22c0.267-0.438,0.128-0.909,0.137-1.37
			c0.011-0.543-0.011-1.084,0.075-1.631c0.128-0.827,0.173-1.67,0.219-2.508c0.039-0.687,0.116-1.389,0.019-2.062
			c-0.168-1.171,0.088-2.298,0.163-3.445c0.063-0.987,0.022-1.981,0.042-2.974c0.021-1.021,0.075-2.04,0.083-3.061
			c0.006-0.526-0.062-1.055-0.079-1.581c-0.034-1.039-0.067-2.077-0.077-3.116c-0.004-0.417,0.061-0.833,0.08-1.251
			c0.029-0.618,0.045-1.238,0.068-1.857c0.003-0.092-0.02-0.196,0.015-0.273c0.25-0.545,0.088-1.097,0.055-1.651
			c-0.032-0.545,0.006-1.095-0.01-1.643c-0.025-0.875-0.066-1.751-0.105-2.627c-0.021-0.453-0.029-0.908-0.082-1.357
			c-0.052-0.437-0.146-0.869-0.235-1.301c-0.058-0.285-0.146-0.561,0.163-0.779c0.051-0.036,0.046-0.251-0.01-0.324
			c-0.313-0.406-0.199-0.882-0.25-1.332c-0.039-0.334-0.027-0.689-0.142-0.996c-0.215-0.573-0.299-1.144-0.229-1.75
			c0.02-0.172-0.007-0.369-0.075-0.527c-0.222-0.525-0.353-1.047-0.287-1.631c0.049-0.444-0.024-0.903-0.039-1.354
			c-0.004-0.13,0.005-0.26,0.007-0.389c0.012-1.073,0.052-2.146,0.026-3.218c-0.019-0.779-0.122-1.558-0.195-2.335
			c-0.021-0.231-0.171-0.512-0.086-0.68c0.338-0.667-0.125-1.305-0.001-1.954c0.096-0.511,0.17-1.025,0.255-1.536
			c0.013-0.077,0.046-0.153,0.047-0.231c0.008-0.671-0.009-1.343,0.021-2.014c0.029-0.642,0.106-1.281,0.16-1.922
			c0.019-0.233,0.018-0.468,0.046-0.699c0.109-0.9,0.233-1.801,0.03-2.704c-0.003-0.013-0.008-0.029-0.003-0.039
			c0.413-0.712-0.067-1.434,0.023-2.151c0.05-0.395,0.106-0.795,0.087-1.189c-0.027-0.561-0.16-1.118-0.178-1.678
			c-0.019-0.556-0.141-1.108,0.094-1.678c0.11-0.27-0.068-0.65-0.088-0.982c-0.024-0.401-0.029-0.803-0.024-1.203
			c0.006-0.453,0.017-0.906,0.052-1.358c0.029-0.382,0.115-0.761,0.137-1.144c0.012-0.231-0.089-0.47-0.074-0.699
			c0.042-0.684,0.117-1.364,0.174-2.046c0.006-0.062-0.001-0.154-0.04-0.186c-0.485-0.377-0.199-0.842-0.174-1.289
			c0.036-0.625,0.023-1.254,0.021-1.881c-0.003-0.771-0.014-1.543-0.025-2.314c-0.002-0.156,0.011-0.326-0.046-0.466
			c-0.112-0.274-0.132-0.526,0.022-0.785c0.02-0.032,0.04-0.085,0.026-0.112c-0.323-0.69,0.194-1.389-0.001-2.05
			c-0.094-0.316-0.019-0.563-0.012-0.847c0.008-0.362,0.006-0.734-0.061-1.089c-0.07-0.376-0.028-0.702,0.094-1.066
			c0.107-0.318,0.04-0.692,0.07-1.041c0.021-0.24,0.075-0.478,0.113-0.716c0.008-0.052,0.024-0.106,0.011-0.153
			c-0.082-0.282-0.167-0.562-0.259-0.842c-0.014-0.042-0.077-0.066-0.142-0.118c0.37-0.244,0.541-0.587,0.433-1.03
			c-0.024-0.099-0.088-0.186-0.126-0.28c-0.049-0.122-0.149-0.261-0.125-0.37c0.092-0.414,0.099-0.787-0.059-1.211
			c-0.115-0.312-0.003-0.709,0.023-1.068c0.052-0.729,0.127-1.455,0.167-2.186c0.015-0.278-0.166-0.641-0.044-0.824
			c0.336-0.505,0.075-1.004,0.106-1.498c0.028-0.422-0.053-0.849-0.058-1.273c-0.002-0.174,0.071-0.351,0.104-0.526
			c0.012-0.063,0.034-0.147,0.005-0.192c-0.391-0.639,0.067-1.24,0.093-1.857c0.025-0.61,0.092-1.208-0.099-1.802
			c-0.027-0.085-0.056-0.18-0.045-0.265c0.075-0.594,0.176-1.185,0.237-1.779c0.062-0.619,0.08-1.24,0.132-1.86
			c0.024-0.276,0.017-0.589,0.145-0.817c0.243-0.436,0.157-0.856,0.095-1.297c-0.025-0.174,0.022-0.357,0.001-0.531
			c-0.033-0.278-0.135-0.552-0.138-0.828c-0.005-0.507,0.06-1.013,0.059-1.519c-0.001-0.35-0.083-0.697-0.096-1.047
			c-0.013-0.368,0.015-0.737,0.022-1.106c0.011-0.597,0.012-1.195,0.03-1.792c0.021-0.678,0.058-1.354,0.081-2.03
			c0.003-0.101-0.017-0.209-0.054-0.303c-0.117-0.288-0.138-0.53-0.084-0.877c0.085-0.551,0.226-1.25-0.274-1.607
			c0-0.346-0.001-0.581,0-0.816c0-0.117-0.022-0.244,0.016-0.348c0.124-0.34,0.045-0.622-0.056-0.968
			c-0.119-0.407,0.004-0.895,0.057-1.343c0.046-0.392,0.159-0.776,0.208-1.167c0.047-0.376,0.067-0.758,0.067-1.137
			c-0.001-0.166-0.104-0.332-0.121-0.501c-0.026-0.26-0.023-0.523-0.024-0.786c0-0.062,0.073-0.156,0.051-0.181
			c-0.46-0.506,0.145-1.145-0.211-1.673c-0.059-0.087,0.006-0.314,0.085-0.427c0.271-0.389,0.281-0.779,0.171-1.229
			c-0.072-0.293-0.024-0.619-0.008-0.929c0.03-0.585,0.071-1.169,0.118-1.752c0.016-0.194,0.075-0.384,0.091-0.579
			c0.016-0.18,0.05-0.384-0.013-0.54c-0.158-0.39-0.212-0.754-0.101-1.178c0.075-0.284-0.019-0.611-0.022-0.919
			c-0.001-0.221,0.025-0.44,0.038-0.661c0.006-0.104,0.045-0.225,0.005-0.308c-0.16-0.328-0.245-0.655-0.125-1.02
			c0.02-0.061-0.008-0.169-0.055-0.215c-0.314-0.312-0.219-0.692-0.157-1.045c0.138-0.789,0.238-1.577,0.096-2.378
			c-0.012-0.063,0.031-0.14,0.061-0.205c0.025-0.059,0.099-0.111,0.096-0.164c-0.025-0.524-0.004-1.06-0.107-1.569
			c-0.139-0.687-0.389-1.344-0.242-2.073c0.048-0.234-0.106-0.505-0.13-0.762c-0.02-0.224,0.014-0.451,0.025-0.677
			c0.011-0.218,0.036-0.437,0.034-0.652c-0.007-0.492-0.014-0.984-0.046-1.475c-0.023-0.349-0.092-0.694-0.128-1.042
			c-0.017-0.166-0.063-0.359,0-0.495c0.277-0.6,0.232-1.216,0.189-1.848c-0.063-0.945-0.069-1.895-0.115-2.842
			c-0.019-0.388-0.098-0.773-0.112-1.162c-0.007-0.203,0.072-0.408,0.101-0.615c0.029-0.212,0.118-0.452,0.052-0.632
			c-0.184-0.503-0.061-0.941,0.15-1.39c0.045-0.095,0.062-0.246,0.019-0.336c-0.229-0.479-0.285-0.963-0.131-1.475
			c0.024-0.081-0.039-0.188-0.061-0.282c-0.02-0.086-0.084-0.192-0.055-0.253c0.346-0.708,0.059-1.448,0.12-2.169
			c0.02-0.234,0.025-0.471,0.019-0.705c-0.01-0.318-0.062-0.638-0.053-0.956c0.011-0.398,0.064-0.798,0.105-1.195
			c0.007-0.062,0.082-0.141,0.063-0.18c-0.227-0.478,0.004-0.982-0.101-1.468c-0.048-0.224-0.012-0.464-0.033-0.696
			c-0.027-0.281-0.088-0.56-0.105-0.841c-0.01-0.173,0.051-0.35,0.051-0.523c0-0.429-0.03-0.857-0.021-1.284
			c0.003-0.188,0.109-0.373,0.105-0.558c-0.029-1.124-0.059-2.24,0.158-3.36c0.114-0.593-0.004-1.229-0.005-1.846
			c0-0.697,0.012-1.396,0.023-2.096c0.014-0.85,0.027-1.699,0.055-2.549c0.007-0.218,0.078-0.433,0.11-0.65
			c0.107-0.724,0.259-1.444,0.303-2.172c0.049-0.794,0.994-1.369,1.663-1.354c0.916,0.021,1.471,0.792,1.642,1.428
			c0.032,0.118-0.014,0.297-0.087,0.401c-0.389,0.551-0.45,1.178-0.476,1.822c-0.006,0.174-0.083,0.344-0.128,0.515
			c-0.004,0.011-0.023,0.023-0.021,0.032c0.154,0.664-0.449,1.254-0.135,1.969c0.23,0.521,0.203,1.12-0.103,1.655
			c-0.026,0.046-0.061,0.1-0.057,0.146c0.045,0.502,0.106,1.003,0.144,1.505c0.046,0.611,0.096,1.223,0.104,1.835
			c0.006,0.458-0.153,0.938-0.059,1.368c0.14,0.642,0.048,1.263-0.052,1.864c-0.113,0.678,0.039,1.331-0.013,1.996
			c-0.026,0.342,0.067,0.692,0.085,1.04c0.011,0.207-0.033,0.416-0.028,0.624c0.01,0.438,0.052,0.874,0.048,1.311
			c-0.002,0.278-0.071,0.557-0.091,0.837c-0.01,0.132,0.024,0.269,0.04,0.402c0.035,0.306,0.081,0.611,0.103,0.92
			c0.023,0.358,0.043,0.721,0.031,1.079c-0.021,0.624-0.067,1.247-0.103,1.871c-0.023,0.412-0.132,0.844-0.046,1.229
			c0.121,0.541,0.111,1.038-0.002,1.572c-0.063,0.298,0.047,0.634,0.08,0.951c0.024,0.234,0.079,0.47,0.069,0.702
			c-0.02,0.506-0.202,1.043-0.083,1.507c0.219,0.858-0.063,1.706,0.104,2.57c0.125,0.647-0.117,1.362-0.172,2.049
			c-0.022,0.27,0.013,0.542,0.026,0.814c0.003,0.064,0.033,0.128,0.033,0.192c0,0.549-0.032,1.099,0,1.646
			c0.064,1.103,0.175,2.201,0.241,3.305c0.02,0.334,0.024,0.696-0.085,1.002c-0.125,0.349,0.021,0.608,0.103,0.903
			c0.061,0.225,0.127,0.45,0.151,0.679c0.102,0.993-0.067,1.974-0.132,2.96c-0.055,0.838,0.073,1.673,0.247,2.504
			c0.085,0.403-0.021,0.843-0.009,1.266c0.006,0.212,0.104,0.42,0.122,0.633c0.038,0.452,0.065,0.907,0.071,1.361
			c0.009,0.675,0.015,1.352-0.022,2.025c-0.01,0.192-0.146,0.397-0.269,0.563c-0.179,0.239-0.277,0.434-0.103,0.742
			c0.125,0.223,0.153,0.517,0.165,0.782c0.02,0.397-0.019,0.797-0.02,1.196c0,0.229,0.021,0.461,0.038,0.69
			c0.022,0.282,0.061,0.564,0.071,0.847c0.007,0.179-0.02,0.361-0.042,0.542c-0.044,0.354-0.172,0.716-0.131,1.059
			c0.161,1.342,0.238,2.674-0.05,4.008c-0.027,0.124-0.032,0.284,0.025,0.389c0.26,0.482,0.155,0.976,0.133,1.486
			c-0.028,0.623,0.075,1.252,0.123,1.879c0.007,0.09,0.066,0.223,0.027,0.261c-0.313,0.309-0.068,0.573,0,0.883
			c0.066,0.297,0.036,0.667-0.09,0.943c-0.187,0.405-0.039,0.731,0.067,1.091c0.042,0.14,0.095,0.289,0.089,0.433
			c-0.026,0.606-0.115,1.214-0.098,1.818c0.013,0.464,0.155,0.924,0.228,1.388c0.018,0.111,0.002,0.232-0.021,0.345
			c-0.09,0.436-0.153,0.846,0.001,1.305c0.116,0.345,0.125,0.796,0,1.134c-0.206,0.559-0.14,1.086-0.083,1.639
			c0.035,0.331,0.002,0.669-0.021,1.003c-0.042,0.603-0.284,1.21-0.017,1.671c-0.124,0.496-0.262,0.877-0.307,1.271
			c-0.078,0.673-0.098,1.352-0.143,2.028c-0.002,0.026-0.002,0.053-0.003,0.078c-0.021,0.919-0.047,1.836-0.061,2.755
			c-0.003,0.234,0.05,0.468,0.044,0.702c-0.004,0.195-0.07,0.388-0.082,0.584c-0.011,0.188,0.012,0.377,0.023,0.566
			c0.024,0.369,0.093,0.742,0.065,1.107c-0.033,0.435-0.318,0.922-0.193,1.279c0.217,0.619-0.271,1.119-0.097,1.703
			c0.083,0.276-0.044,0.607-0.006,0.906c0.037,0.297,0.175,0.579,0.242,0.874c0.031,0.133,0.006,0.28-0.009,0.421
			c-0.059,0.549-0.231,1.114-0.15,1.641c0.06,0.393-0.062,0.729-0.047,1.057c0.032,0.655-0.298,1.313,0.038,1.979
			c0.113,0.223,0.003,0.557-0.001,0.839c-0.001,0.091-0.031,0.211,0.014,0.269c0.284,0.359,0.28,0.721,0.062,1.106
			c-0.035,0.061-0.032,0.16-0.012,0.232c0.15,0.524-0.091,0.979-0.203,1.47c-0.101,0.445-0.027,0.934-0.007,1.402
			c0.02,0.449,0.084,0.897,0.102,1.347c0.029,0.735,0.034,1.469,0.055,2.204c0.006,0.22,0.053,0.44,0.05,0.66
			c-0.015,1.226-0.063,2.45-0.051,3.676c0.005,0.485-0.081,0.947-0.133,1.421c-0.036,0.314,0.092,0.647,0.15,0.972
			c0.009,0.05,0.059,0.119,0.041,0.144c-0.247,0.342,0.004,0.683-0.011,1.019c-0.017,0.354-0.151,0.702-0.196,1.059
			c-0.037,0.299-0.062,0.611-0.015,0.905c0.073,0.438,0.14,0.838-0.247,1.188c-0.081,0.073-0.052,0.331-0.001,0.478
			c0.238,0.686,0.459,1.355,0.191,2.099c-0.095,0.263-0.208,0.52,0.063,0.883c0.222,0.297,0.324,0.836,0.155,1.341
			c-0.143,0.428-0.156,0.923-0.121,1.378c0.053,0.681,0.257,1.354,0.025,2.037c-0.028,0.083-0.043,0.198-0.006,0.271
			c0.299,0.588-0.07,1.146-0.062,1.721c0.004,0.313-0.03,0.643,0.05,0.937c0.088,0.328,0.006,0.601-0.069,0.904
			c-0.087,0.35-0.099,0.72-0.135,1.081c-0.063,0.646-0.148,1.289-0.169,1.936c-0.013,0.409,0.078,0.819,0.112,1.229
			c0.007,0.084-0.02,0.177-0.053,0.255c-0.128,0.296-0.082,0.553,0.033,0.862c0.126,0.338,0.13,0.739,0.113,1.11
			c-0.04,0.868-0.155,1.732-0.182,2.601c-0.021,0.708,0.042,1.42,0.069,2.129c0.001,0.052,0.044,0.116,0.025,0.151
			c-0.313,0.585,0.008,1.102,0.142,1.646c0.061,0.243-0.028,0.523-0.056,0.786c-0.012,0.112-0.095,0.266-0.049,0.327
			c0.473,0.643,0.269,1.376,0.315,2.075c0.021,0.332,0.111,0.659,0.155,0.99c0.054,0.406,0.141,0.815,0.128,1.219
			c-0.027,0.913,0.2,1.782,0.34,2.67c0.09,0.576,0.065,1.17,0.096,1.755c0.009,0.176,0.037,0.35,0.043,0.524
			c0.038,0.986,0.062,1.974,0.11,2.96c0.026,0.556,0.105,1.109,0.126,1.665c0.016,0.43-0.032,0.861-0.035,1.292
			c-0.006,0.827,0.113,1.675-0.029,2.477c-0.153,0.859-0.013,1.679-0.011,2.519c0.002,0.822-0.17,1.645-0.266,2.469
			c-0.006,0.052-0.026,0.106-0.015,0.153c0.126,0.566,0.004,1.121-0.073,1.678c-0.006,0.05-0.021,0.113,0.002,0.152
			c0.267,0.471,0.237,0.986,0.209,1.494c-0.036,0.632-0.12,1.261-0.159,1.892C38.788,172.07,38.853,172.272,38.874,172.414z"/>
	</g>
</g>
<g id="XdOvYX_1_">
	<g>
		<g>
			<path fill="#A4FF62" d="M6.712,149.585c0.058-0.248,0.112-0.397,0.125-0.552c0.019-0.249,0.021-0.501,0.01-0.751
				c-0.013-0.299,0.008-0.571,0.269-0.782c0.063-0.051,0.078-0.195,0.069-0.293c-0.023-0.245-0.112-0.488-0.104-0.729
				c0.016-0.506,0.077-1.01,0.12-1.514c0.012-0.138-0.027-0.329,0.047-0.4c0.314-0.298,0.142-0.62,0.122-0.95
				c-0.026-0.419-0.013-0.844,0.027-1.262c0.032-0.331,0.127-0.658,0.199-0.984c0.096-0.434,0.192-0.866,0.297-1.297
				c0.046-0.193,0.14-0.38,0.162-0.574c0.035-0.316,0.02-0.637,0.042-0.954c0.021-0.286,0.083-0.57,0.091-0.856
				c0.01-0.394-0.046-0.79-0.014-1.18c0.034-0.421,0.172-0.834,0.201-1.254c0.062-0.903,0.083-1.81,0.121-2.715
				c0.005-0.112,0.02-0.225,0.027-0.337c0.03-0.517,0.145-1.048,0.067-1.549c-0.123-0.788,0.048-1.538,0.114-2.302
				c0.048-0.555,0.141-1.105,0.195-1.659c0.042-0.428,0.043-0.86,0.083-1.288c0.016-0.17,0.14-0.341,0.123-0.502
				c-0.062-0.59-0.219-1.173,0.015-1.759c0.015-0.038-0.028-0.097-0.029-0.146c-0.017-0.69-0.038-1.381-0.043-2.071
				c-0.003-0.334,0.025-0.668,0.037-1.001c0.008-0.213,0.006-0.427,0.02-0.639c0.014-0.205,0.047-0.408,0.06-0.612
				c0.008-0.125-0.052-0.271-0.006-0.372c0.215-0.473,0.025-0.904-0.07-1.357c-0.067-0.324-0.062-0.665-0.072-0.999
				c-0.005-0.187,0.033-0.376,0.035-0.564c0.002-0.144-0.036-0.288-0.031-0.433c0.017-0.532,0.068-1.064,0.06-1.596
				c-0.007-0.458-0.057-0.918-0.129-1.371c-0.062-0.389-0.189-0.766-0.271-1.152c-0.024-0.115,0-0.241,0.009-0.362
				c0.038-0.508,0.081-1.015,0.114-1.521c0.003-0.056-0.055-0.113-0.067-0.173c-0.048-0.234-0.107-0.469-0.127-0.705
				c-0.038-0.444-0.042-0.894-0.083-1.337c-0.016-0.171-0.138-0.335-0.142-0.504c-0.013-0.615,0.162-1.237-0.097-1.84
				c-0.009-0.021,0-0.05,0.001-0.074c0.053-0.71-0.027-1.425,0.115-2.132c0.075-0.376,0.104-0.766,0.108-1.15
				c0.002-0.309-0.094-0.619-0.097-0.928c-0.006-0.657,0.012-1.313,0.039-1.968c0.007-0.182,0.112-0.358,0.121-0.54
				c0.015-0.33-0.021-0.662-0.01-0.993c0.025-0.863,0.073-1.727,0.091-2.59c0.004-0.218-0.089-0.436-0.104-0.655
				c-0.021-0.322,0.009-0.648-0.017-0.969c-0.042-0.532-0.382-1.076,0.102-1.573c0.01-0.01-0.008-0.046-0.008-0.069
				c0.002-0.252-0.005-0.504,0.011-0.754c0.037-0.577,0.19-1.152-0.107-1.718c-0.068-0.128,0.006-0.337,0.033-0.507
				c0.015-0.095,0.096-0.184,0.099-0.277c0.031-1.033,0.06-2.066,0.073-3.1c0.003-0.222-0.089-0.445-0.085-0.666
				c0.008-0.461,0.053-0.921,0.08-1.382c0.01-0.171,0.043-0.346,0.017-0.513c-0.049-0.311-0.162-0.611-0.196-0.922
				c-0.044-0.399-0.042-0.804-0.051-1.206c-0.012-0.542,0.07-1.106-0.051-1.623c-0.101-0.427-0.151-0.818-0.087-1.248
				c0.048-0.319,0.156-0.72,0.019-0.956c-0.236-0.409,0.034-0.664,0.097-0.986c0.037-0.189,0.015-0.393,0-0.588
				C8.462,74.1,8.416,73.903,8.4,73.704c-0.01-0.124,0.019-0.25,0.02-0.376c0.002-0.515-0.053-1.035,0.022-1.538
				c0.037-0.245,0.03-0.438-0.031-0.666c-0.043-0.159,0.015-0.344,0.024-0.518c0.027-0.538,0.053-1.075,0.077-1.613
				c0.001-0.036-0.007-0.078-0.025-0.109c-0.222-0.389-0.088-0.782-0.027-1.179c0.036-0.233,0.128-0.505,0.05-0.701
				c-0.256-0.633,0.002-1.265-0.05-1.896c-0.049-0.58,0.194-1.154,0.11-1.771c-0.056-0.41-0.14-0.891,0.146-1.301
				c0.032-0.045-0.032-0.161-0.058-0.242c-0.044-0.142-0.138-0.284-0.13-0.422c0.025-0.457,0.089-0.911,0.134-1.366
				c0.01-0.11,0.028-0.229,0.003-0.333c-0.093-0.386-0.203-0.768-0.302-1.152c-0.012-0.047-0.009-0.104,0.007-0.149
				c0.273-0.749,0.105-1.524,0.14-2.289c0.024-0.537,0.035-1.077,0.05-1.615c0.014-0.503,0.025-1.004,0.039-1.507
				c0.017-0.614,0.035-1.229,0.055-1.844c0-0.023,0.024-0.046,0.025-0.07c0.016-0.373,0.292-0.739-0.031-1.124
				c-0.123-0.147-0.228-0.45-0.158-0.595c0.238-0.492-0.134-1.068,0.249-1.529c0.052-0.062-0.002-0.216-0.017-0.327
				c-0.062-0.47-0.17-0.938-0.181-1.41c-0.017-0.712,0.046-1.426,0.045-2.138c0-0.229-0.141-0.456-0.138-0.684
				c0.005-0.344,0.108-0.686,0.118-1.029c0.021-0.698,0.014-1.397,0.005-2.095c-0.009-0.749-0.048-1.498-0.045-2.247
				c0.003-0.801,0.046-1.602,0.058-2.403c0.005-0.298-0.046-0.598-0.045-0.896c0.002-0.523,0.021-1.048,0.04-1.57
				c0.018-0.463,0.036-0.927,0.072-1.388c0.048-0.612,0.115-1.222,0.169-1.833c0.004-0.047-0.031-0.097-0.032-0.144
				c-0.003-0.319-0.002-0.638,0-0.958c0.002-0.255,0.013-0.511,0.012-0.765c-0.002-0.433-0.043-0.866-0.007-1.296
				c0.039-0.458,0.186-0.908,0.214-1.367c0.025-0.405-0.053-0.817-0.075-1.228c-0.005-0.084,0.033-0.171,0.056-0.255
				c0.052-0.188,0.15-0.378,0.151-0.567c0.001-0.346-0.07-0.691-0.083-1.038c-0.026-0.71-0.031-1.42-0.049-2.131
				c-0.014-0.573-0.051-1.148-0.044-1.722c0.008-0.613,0.09-1.228,0.078-1.84c-0.019-1.053-0.089-2.104-0.126-3.156
				c-0.006-0.146,0.056-0.293,0.078-0.44c0.04-0.279,0.084-0.558,0.103-0.838c0.011-0.161-0.047-0.325-0.038-0.486
				c0.037-0.648,0.176-1.304,0.114-1.94C9.07,8.615,9.438,7.668,9.304,6.673c-0.099-0.74-0.019-1.504-0.016-2.257
				c0-0.138-0.016-0.284,0.025-0.412c0.16-0.486,0.366-0.961,0.501-1.455C9.87,2.35,9.788,2.112,9.765,1.893
				C9.71,1.363,9.258,1.262,8.881,1.087c-0.453-0.21-1.407-0.02-1.62,0.36c-0.168,0.3-0.273,0.643-0.369,0.977
				c-0.088,0.309-0.14,0.631-0.186,0.95C6.655,3.727,6.619,4.081,6.594,4.436C6.573,4.733,6.583,5.033,6.569,5.332
				C6.556,5.62,6.495,5.91,6.515,6.195C6.596,7.373,6.593,8.544,6.34,9.704C6.324,9.776,6.333,9.854,6.333,9.93
				c0.002,0.436,0.016,0.87,0.004,1.306c-0.008,0.312-0.022,0.629-0.083,0.933c-0.114,0.567-0.241,1.128-0.084,1.709
				c0.025,0.092,0.004,0.198-0.003,0.298c-0.035,0.468-0.083,0.935-0.104,1.403c-0.014,0.3,0.056,0.608,0.007,0.9
				c-0.054,0.317-0.267,0.624,0.091,0.896c0.027,0.021,0.02,0.095,0.018,0.145c-0.021,0.575-0.052,1.15-0.066,1.727
				c-0.014,0.575-0.058,1.157-0.005,1.728c0.046,0.502,0.262,0.993-0.093,1.47c-0.04,0.054,0.007,0.171,0.011,0.258
				c0.038,0.794,0.039,1.584-0.093,2.374c-0.062,0.373-0.088,0.77-0.035,1.142c0.105,0.742,0.062,1.454-0.192,2.162
				c-0.051,0.141-0.041,0.339,0.017,0.478c0.226,0.547,0.104,1.076-0.018,1.612c-0.078,0.34-0.182,0.683-0.199,1.027
				c-0.03,0.596-0.002,1.194-0.001,1.792c0,0.05-0.007,0.103-0.025,0.148c-0.182,0.473-0.139,0.926,0.066,1.388
				c0.069,0.157,0.037,0.362,0.035,0.546c-0.006,0.396-0.029,0.791-0.03,1.188c0,0.186,0.041,0.372,0.052,0.559
				c0.018,0.299,0.032,0.598,0.038,0.896c0.003,0.146-0.012,0.29-0.025,0.435c-0.025,0.271-0.079,0.541-0.075,0.811
				c0.004,0.253,0.093,0.506,0.099,0.759c0.007,0.348-0.027,0.695-0.045,1.042c-0.014,0.262-0.035,0.523-0.046,0.784
				c-0.016,0.385-0.035,0.768-0.035,1.152c0,0.334,0.037,0.669,0.035,1.004c-0.002,0.393-0.167,0.854-0.012,1.159
				c0.229,0.45,0.101,0.751-0.098,1.105c-0.031,0.056-0.024,0.138-0.019,0.206c0.035,0.416,0.09,0.832,0.108,1.248
				c0.022,0.526,0.001,1.055,0.026,1.581c0.023,0.52,0.113,1.036,0.117,1.556c0.009,0.875-0.016,1.753-0.048,2.629
				c-0.011,0.3-0.086,0.597-0.134,0.895c-0.07,0.437-0.173,0.871-0.205,1.312c-0.037,0.534-0.001,1.074-0.021,1.609
				c-0.016,0.417-0.074,0.829,0.266,1.165c0.049,0.049,0.054,0.165,0.044,0.246c-0.081,0.666-0.16,1.329,0.024,1.994
				c0.036,0.129,0.026,0.274,0.019,0.412c-0.031,0.595-0.069,1.188-0.106,1.782c-0.006,0.1-0.021,0.198-0.034,0.297
				c-0.058,0.446-0.136,0.89-0.169,1.336c-0.035,0.46-0.039,0.923-0.034,1.385c0.003,0.298,0.068,0.595,0.067,0.892
				c-0.002,0.662-0.036,1.322-0.045,1.983c-0.01,0.743,0.013,1.486-0.014,2.229c-0.035,0.938-0.127,1.872-0.153,2.81
				c-0.016,0.561,0.061,1.124,0.07,1.687c0.016,0.933-0.107,1.886,0.052,2.79c0.131,0.74-0.154,1.541,0.312,2.229
				c0.038,0.056-0.02,0.169-0.019,0.256c0.007,0.304,0.024,0.608,0.031,0.912c0.005,0.235,0.001,0.473,0.002,0.708
				c0,0.409-0.014,0.82,0.005,1.229c0.021,0.479,0.138,0.934,0.059,1.441c-0.113,0.729-0.012,1.489-0.036,2.235
				c-0.014,0.456-0.087,0.909-0.136,1.363c-0.02,0.183-0.128,0.413-0.054,0.536c0.146,0.244,0.157,0.432,0.002,0.658
				c-0.035,0.051-0.018,0.146-0.006,0.217c0.092,0.53,0.191,1.055,0.067,1.6c-0.069,0.304-0.177,0.62,0.043,0.938
				c0.074,0.108,0.021,0.318,0,0.478c-0.042,0.312-0.121,0.617-0.15,0.93c-0.024,0.254,0.039,0.518-0.004,0.765
				c-0.042,0.239-0.07,0.442,0.132,0.62c0.041,0.036,0.075,0.112,0.068,0.163c-0.057,0.392-0.144,0.779-0.185,1.173
				c-0.03,0.297-0.021,0.6,0,0.898c0.011,0.166,0.125,0.33,0.115,0.492c-0.04,0.606-0.344,1.143-0.22,1.822
				c0.163,0.89,0.055,1.828,0.063,2.745c0.006,0.615,0.014,1.23,0.016,1.846c0,0.136,0.005,0.281-0.034,0.409
				c-0.137,0.452-0.087,0.908-0.058,1.365c0.013,0.206,0.019,0.414,0.045,0.619c0.035,0.271,0.1,0.538,0.128,0.81
				c0.043,0.407,0.073,0.815,0.096,1.225c0.018,0.327,0.019,0.654,0.021,0.982c0,0.118-0.076,0.27-0.026,0.35
				c0.322,0.516,0.09,1.084,0.18,1.62c0.104,0.616,0.212,1.236,0.248,1.859c0.031,0.549,0.128,1.087,0.182,1.618
				c0.081,0.798-0.191,1.628-0.142,2.461c0.028,0.468-0.011,0.939-0.013,1.41c-0.001,0.331,0.018,0.664,0.014,0.995
				c-0.004,0.306-0.039,0.611-0.04,0.918c0,0.235,0.052,0.473,0.046,0.709c-0.024,0.824-0.033,1.65-0.104,2.471
				c-0.108,1.259-0.256,2.513-0.4,3.768c-0.048,0.428-0.064,0.861-0.294,1.258c-0.068,0.117,0.027,0.327,0.042,0.496
				c0.038,0.41,0.276,0.779,0.156,1.23c-0.1,0.378-0.082,0.787-0.104,1.184c-0.032,0.571-0.032,1.146-0.083,1.716
				c-0.074,0.827-0.351,1.641-0.155,2.487c0.02,0.086-0.037,0.189-0.059,0.285c-0.024,0.105-0.091,0.221-0.067,0.313
				c0.135,0.529-0.027,0.979-0.322,1.407c-0.044,0.064-0.08,0.174-0.057,0.241c0.178,0.511,0.046,1.024,0.035,1.536
				c-0.006,0.286,0.021,0.577-0.019,0.858c-0.045,0.326-0.16,0.646-0.22,0.972c-0.049,0.268-0.133,0.562-0.07,0.81
				c0.057,0.223,0.022,0.369-0.053,0.562c-0.067,0.172-0.067,0.371-0.083,0.56c-0.012,0.133,0.005,0.27-0.006,0.403
				c-0.009,0.109-0.048,0.216-0.061,0.325c-0.055,0.489-0.103,0.979-0.158,1.468c-0.03,0.268-0.069,0.534-0.105,0.801
				c-0.074,0.543-0.177,1.082-0.217,1.627c-0.052,0.699,0.029,1.417-0.104,2.097c-0.109,0.56-0.127,1.094-0.099,1.651
				c0.013,0.268-0.074,0.541-0.117,0.812c-0.051,0.322-0.201,0.667-0.133,0.962c0.093,0.4,0.05,0.748-0.042,1.132
				c-0.116,0.482-0.148,0.987-0.241,1.478c-0.123,0.649-0.267,1.294-0.406,1.939c-0.034,0.155-0.159,0.328-0.119,0.452
				c0.121,0.366-0.054,0.656-0.17,0.966c-0.035,0.093-0.106,0.176-0.118,0.271c-0.069,0.516-0.148,1.03-0.175,1.549
				c-0.014,0.27,0.104,0.544,0.105,0.816c0.002,0.373-0.237,0.752,0.034,1.122c0.025,0.035-0.021,0.12-0.031,0.182
				c-0.062,0.377-0.167,0.753-0.178,1.131c-0.024,0.795,0.042,1.592-0.005,2.383c-0.051,0.847-0.196,1.685,0.03,2.53
				c0.078,0.294,0.176,0.666,0.063,0.908c-0.234,0.505,0.035,0.958-0.004,1.431c-0.039,0.474-0.106,0.946-0.134,1.421
				c-0.019,0.315-0.083,0.676,0.04,0.938c0.14,0.3,0.442,0.515,0.194,0.896c-0.031,0.046,0.02,0.143,0.026,0.216
				c0.013,0.169,0.033,0.337,0.032,0.506c-0.003,0.348-0.129,0.74-0.005,1.029c0.199,0.468,0.223,0.864,0.008,1.315
				c-0.061,0.128-0.03,0.329,0.019,0.476c0.164,0.495,0.348,0.98,0.233,1.52c-0.024,0.115,0.005,0.243,0.02,0.364
				c0.022,0.182,0.065,0.36,0.078,0.543c0.044,0.643-0.053,1.336,0.163,1.912c0.152,0.409,0.197,0.831,0.345,1.231
				c0.119,0.323,0.212,0.67,0.232,1.012c0.025,0.428-0.037,0.859-0.056,1.292c-0.005,0.122-0.024,0.26,0.021,0.366
				c0.191,0.451,0.088,0.885-0.04,1.323c-0.049,0.167-0.121,0.351-0.095,0.513c0.13,0.823,0.157,1.627-0.251,2.392
				c-0.021,0.039-0.012,0.099-0.006,0.148c0.105,0.828,0.201,1.646,0.113,2.495c-0.073,0.695,0.09,1.413,0.12,2.123
				c0.01,0.226-0.038,0.47-0.121,0.681c-0.126,0.32-0.267,0.617-0.132,0.979c0.062,0.166,0.119,0.398,0.05,0.538
				c-0.387,0.792-0.094,1.62-0.171,2.425c-0.047,0.491-0.086,0.982-0.135,1.474c-0.006,0.059-0.06,0.11-0.081,0.168
				c-0.1,0.282-0.318,0.566,0.021,0.842c0.03,0.024,0.043,0.093,0.036,0.138c-0.053,0.319-0.089,0.644-0.176,0.954
				c-0.171,0.607,0.255,0.994,0.539,1.408c0.093,0.136,0.283,0.22,0.357,0.423c0.035,0.094,0.216,0.2,0.322,0.192
				c0.762-0.059,1.458-0.279,1.805-1.041c0.211-0.464,0.505-0.902,0.332-1.489c-0.127-0.43-0.11-0.904-0.155-1.359
				c-0.005-0.05-0.001-0.101,0.006-0.149c0.089-0.604,0.174-1.208,0.27-1.811c0.107-0.676,0.24-1.348,0.329-2.025
				c0.053-0.402,0.104-0.822,0.046-1.219c-0.102-0.688-0.238-1.358,0.098-2.021c0.034-0.067-0.012-0.172-0.015-0.26
				c-0.013-0.306-0.051-0.613-0.029-0.917c0.038-0.514,0.124-1.024,0.171-1.538c0.042-0.454,0.004-0.924,0.111-1.358
				c0.062-0.254,0.092-0.445-0.036-0.663c-0.023-0.04-0.023-0.098-0.025-0.147c-0.019-0.543-0.04-1.089-0.051-1.635
				c-0.005-0.274,0.004-0.551,0.017-0.825c0.02-0.45,0.227-0.911-0.092-1.34c-0.027-0.036-0.03-0.097-0.031-0.146
				c-0.022-0.6-0.049-1.197-0.251-1.773c-0.038-0.107-0.013-0.246,0.009-0.366c0.055-0.306,0.161-0.604-0.12-0.877
				c-0.07-0.067-0.045-0.235-0.059-0.357c-0.052-0.464-0.039-0.947-0.171-1.388c-0.135-0.448-0.216-0.875-0.221-1.348
				c-0.005-0.605-0.138-1.195-0.06-1.822c0.041-0.33,0.292-0.78-0.1-1.114c-0.023-0.02,0.033-0.118,0.031-0.179
				c-0.01-0.463-0.019-0.924-0.041-1.385c-0.019-0.383-0.066-0.764-0.083-1.147c-0.016-0.371,0.006-0.745-0.016-1.116
				c-0.016-0.263-0.141-0.532-0.106-0.783c0.11-0.791,0.135-1.571-0.041-2.357c-0.04-0.177,0.002-0.373,0.018-0.561
				c0.045-0.538,0.126-1.077,0.136-1.617c0.012-0.641-0.037-1.281-0.058-1.922c-0.006-0.188-0.01-0.376-0.008-0.564
				c0.002-0.676-0.027-1.353,0.02-2.025c0.041-0.594,0.174-1.182,0.255-1.772c0.096-0.704,0.206-1.408,0.258-2.117
				c0.043-0.577-0.021-1.169,0.437-1.633c0.032-0.032,0.001-0.122,0.009-0.183c0.035-0.266,0.082-0.529,0.108-0.797
				c0.016-0.153,0-0.311,0.002-0.467c0.002-0.131-0.041-0.332,0.024-0.38c0.245-0.178,0.333-0.356,0.175-0.634
				c-0.023-0.039,0.034-0.116,0.039-0.178c0.022-0.306,0.045-0.613,0.056-0.92c0.004-0.137-0.049-0.278-0.028-0.409
				c0.062-0.38,0.144-0.756,0.229-1.132c0.183-0.807,0.026-1.623,0.062-2.434c0.007-0.159,0.021-0.327,0.077-0.475
				C6.921,150.197,7.027,149.835,6.712,149.585z"/>
			<path fill="#A4FF62" fill-rule="evenodd" clip-rule="evenodd" d="M6.712,149.585c0.315,0.25,0.208,0.612,0.065,0.989
				c-0.056,0.147-0.069,0.315-0.077,0.475c-0.036,0.811,0.122,1.627-0.062,2.434c-0.084,0.376-0.166,0.752-0.229,1.132
				c-0.021,0.131,0.032,0.272,0.028,0.409c-0.011,0.307-0.034,0.614-0.056,0.92c-0.004,0.062-0.062,0.139-0.039,0.178
				c0.159,0.277,0.07,0.456-0.175,0.634c-0.065,0.048-0.022,0.249-0.024,0.38c-0.002,0.156,0.014,0.313-0.002,0.467
				c-0.027,0.268-0.073,0.531-0.108,0.797c-0.008,0.061,0.022,0.15-0.009,0.183c-0.458,0.464-0.394,1.056-0.437,1.633
				c-0.052,0.709-0.162,1.413-0.258,2.117c-0.081,0.591-0.214,1.179-0.255,1.772c-0.046,0.673-0.018,1.35-0.02,2.025
				c-0.001,0.188,0.002,0.377,0.008,0.564c0.021,0.641,0.069,1.281,0.058,1.922c-0.01,0.54-0.091,1.079-0.136,1.617
				c-0.016,0.188-0.057,0.384-0.018,0.561c0.175,0.786,0.151,1.566,0.041,2.357c-0.035,0.251,0.091,0.521,0.106,0.783
				c0.022,0.371,0,0.745,0.016,1.116c0.017,0.384,0.064,0.765,0.083,1.147c0.022,0.461,0.031,0.922,0.041,1.385
				c0.002,0.061-0.055,0.159-0.031,0.179c0.392,0.334,0.141,0.784,0.1,1.114c-0.078,0.627,0.055,1.217,0.06,1.822
				c0.004,0.473,0.085,0.899,0.221,1.348c0.132,0.44,0.119,0.924,0.171,1.388c0.014,0.122-0.011,0.29,0.059,0.357
				c0.281,0.272,0.174,0.571,0.12,0.877c-0.021,0.12-0.047,0.259-0.009,0.366c0.202,0.576,0.229,1.174,0.251,1.773
				c0.001,0.049,0.004,0.109,0.031,0.146c0.318,0.429,0.112,0.89,0.092,1.34c-0.013,0.274-0.022,0.551-0.017,0.825
				c0.011,0.546,0.032,1.092,0.051,1.635c0.001,0.05,0.001,0.107,0.025,0.147c0.127,0.218,0.098,0.409,0.036,0.663
				c-0.107,0.435-0.069,0.904-0.111,1.358c-0.047,0.514-0.133,1.024-0.171,1.538c-0.022,0.304,0.016,0.611,0.029,0.917
				c0.003,0.088,0.049,0.192,0.015,0.26c-0.336,0.662-0.2,1.333-0.098,2.021c0.058,0.396,0.006,0.816-0.046,1.219
				c-0.089,0.678-0.222,1.35-0.329,2.025c-0.095,0.603-0.18,1.206-0.27,1.811c-0.007,0.049-0.011,0.1-0.006,0.149
				c0.045,0.455,0.028,0.93,0.155,1.359c0.173,0.587-0.121,1.025-0.332,1.489c-0.347,0.762-1.043,0.982-1.805,1.041
				c-0.106,0.008-0.288-0.099-0.322-0.192c-0.074-0.203-0.264-0.287-0.357-0.423c-0.284-0.414-0.71-0.801-0.539-1.408
				c0.087-0.311,0.123-0.635,0.176-0.954c0.007-0.045-0.005-0.113-0.036-0.138c-0.339-0.275-0.121-0.56-0.021-0.842
				c0.021-0.058,0.075-0.109,0.081-0.168c0.049-0.491,0.088-0.982,0.135-1.474c0.077-0.805-0.216-1.633,0.171-2.425
				c0.069-0.14,0.012-0.372-0.05-0.538c-0.134-0.361,0.006-0.658,0.132-0.979c0.083-0.211,0.131-0.455,0.121-0.681
				c-0.029-0.71-0.192-1.428-0.12-2.123c0.088-0.85-0.007-1.667-0.113-2.495c-0.006-0.05-0.015-0.109,0.006-0.148
				c0.408-0.765,0.381-1.568,0.251-2.392c-0.025-0.162,0.046-0.346,0.095-0.513c0.128-0.438,0.231-0.872,0.04-1.323
				c-0.045-0.106-0.026-0.244-0.021-0.366c0.019-0.433,0.082-0.864,0.056-1.292c-0.02-0.342-0.113-0.688-0.232-1.012
				c-0.148-0.4-0.192-0.822-0.345-1.231c-0.216-0.576-0.119-1.27-0.163-1.912c-0.013-0.183-0.056-0.361-0.078-0.543
				c-0.015-0.121-0.044-0.249-0.02-0.364c0.115-0.539-0.07-1.024-0.233-1.52c-0.049-0.146-0.079-0.348-0.019-0.476
				c0.215-0.451,0.191-0.848-0.008-1.315c-0.124-0.289,0.002-0.682,0.005-1.029c0.001-0.169-0.019-0.337-0.032-0.506
				c-0.006-0.073-0.057-0.17-0.026-0.216c0.249-0.381-0.054-0.596-0.194-0.896c-0.123-0.263-0.059-0.623-0.04-0.938
				c0.028-0.475,0.096-0.947,0.134-1.421c0.039-0.473-0.23-0.926,0.004-1.431c0.113-0.242,0.015-0.614-0.063-0.908
				c-0.226-0.846-0.081-1.684-0.03-2.53c0.048-0.791-0.019-1.588,0.005-2.383c0.011-0.378,0.116-0.754,0.178-1.131
				c0.01-0.062,0.056-0.146,0.031-0.182c-0.271-0.37-0.032-0.749-0.034-1.122c-0.001-0.272-0.119-0.547-0.105-0.816
				c0.027-0.519,0.106-1.033,0.175-1.549c0.012-0.095,0.083-0.178,0.118-0.271c0.117-0.31,0.292-0.6,0.17-0.966
				c-0.04-0.124,0.085-0.297,0.119-0.452c0.14-0.646,0.283-1.29,0.406-1.939c0.093-0.49,0.125-0.995,0.241-1.478
				c0.092-0.384,0.135-0.731,0.042-1.132c-0.067-0.295,0.083-0.64,0.133-0.962c0.043-0.271,0.13-0.544,0.117-0.812
				c-0.028-0.558-0.011-1.092,0.099-1.651c0.133-0.68,0.052-1.397,0.104-2.097c0.04-0.545,0.143-1.084,0.217-1.627
				c0.036-0.267,0.075-0.533,0.105-0.801c0.055-0.488,0.103-0.979,0.158-1.468c0.013-0.109,0.052-0.216,0.061-0.325
				c0.011-0.134-0.006-0.271,0.006-0.403c0.017-0.188,0.017-0.388,0.083-0.56c0.075-0.192,0.109-0.339,0.053-0.562
				c-0.063-0.248,0.021-0.542,0.07-0.81c0.06-0.326,0.174-0.646,0.22-0.972c0.04-0.281,0.013-0.572,0.019-0.858
				c0.012-0.512,0.144-1.025-0.035-1.536c-0.023-0.067,0.012-0.177,0.057-0.241c0.295-0.428,0.457-0.878,0.322-1.407
				c-0.023-0.093,0.043-0.208,0.067-0.313c0.021-0.096,0.079-0.199,0.059-0.285c-0.196-0.847,0.081-1.66,0.155-2.487
				c0.051-0.57,0.051-1.145,0.083-1.716c0.022-0.396,0.003-0.806,0.104-1.184c0.121-0.451-0.118-0.82-0.156-1.23
				c-0.016-0.169-0.111-0.379-0.042-0.496c0.23-0.396,0.246-0.83,0.294-1.258c0.145-1.255,0.292-2.509,0.4-3.768
				c0.07-0.82,0.08-1.646,0.104-2.471c0.006-0.236-0.046-0.474-0.046-0.709c0-0.307,0.035-0.612,0.04-0.918
				c0.004-0.331-0.015-0.664-0.014-0.995c0.001-0.471,0.041-0.942,0.013-1.41c-0.05-0.833,0.223-1.663,0.142-2.461
				c-0.054-0.531-0.151-1.069-0.182-1.618c-0.035-0.623-0.144-1.243-0.248-1.859c-0.09-0.536,0.143-1.104-0.18-1.62
				c-0.05-0.08,0.026-0.231,0.026-0.35c-0.001-0.328-0.003-0.655-0.021-0.982c-0.022-0.409-0.052-0.817-0.096-1.225
				c-0.028-0.271-0.093-0.539-0.128-0.81c-0.026-0.205-0.032-0.413-0.045-0.619c-0.03-0.457-0.08-0.913,0.058-1.365
				c0.039-0.128,0.034-0.273,0.034-0.409c-0.002-0.615-0.009-1.23-0.016-1.846c-0.008-0.917,0.1-1.855-0.063-2.745
				c-0.125-0.68,0.18-1.216,0.22-1.822c0.01-0.162-0.104-0.326-0.115-0.492c-0.02-0.299-0.03-0.602,0-0.898
				c0.041-0.394,0.127-0.781,0.185-1.173c0.007-0.051-0.027-0.127-0.068-0.163c-0.203-0.178-0.174-0.381-0.132-0.62
				c0.043-0.247-0.02-0.511,0.004-0.765c0.029-0.312,0.108-0.618,0.15-0.93c0.021-0.159,0.074-0.369,0-0.478
				c-0.22-0.318-0.112-0.635-0.043-0.938c0.124-0.545,0.025-1.069-0.067-1.6c-0.012-0.071-0.029-0.166,0.006-0.217
				c0.155-0.227,0.144-0.414-0.002-0.658c-0.074-0.123,0.034-0.354,0.054-0.536c0.049-0.454,0.123-0.907,0.136-1.363
				c0.023-0.746-0.078-1.507,0.036-2.235c0.079-0.508-0.038-0.963-0.059-1.441c-0.019-0.408-0.004-0.819-0.005-1.229
				c0-0.235,0.003-0.473-0.002-0.708c-0.007-0.304-0.023-0.608-0.031-0.912c-0.001-0.087,0.056-0.2,0.019-0.256
				c-0.467-0.688-0.182-1.489-0.312-2.229c-0.159-0.904-0.036-1.857-0.052-2.79c-0.009-0.562-0.086-1.126-0.07-1.687
				c0.026-0.938,0.119-1.872,0.153-2.81c0.027-0.742,0.004-1.485,0.014-2.229c0.009-0.661,0.042-1.321,0.045-1.983
				c0.001-0.297-0.064-0.594-0.067-0.892c-0.005-0.462,0-0.925,0.034-1.385c0.033-0.446,0.111-0.89,0.169-1.336
				c0.013-0.099,0.028-0.197,0.034-0.297c0.037-0.595,0.075-1.188,0.106-1.782c0.007-0.138,0.017-0.283-0.019-0.412
				c-0.184-0.665-0.104-1.328-0.024-1.994c0.01-0.081,0.005-0.197-0.044-0.246c-0.34-0.336-0.281-0.748-0.266-1.165
				c0.02-0.535-0.016-1.075,0.021-1.609c0.031-0.44,0.134-0.875,0.205-1.312c0.048-0.298,0.123-0.595,0.134-0.895
				c0.032-0.876,0.057-1.754,0.048-2.629c-0.004-0.52-0.094-1.036-0.117-1.556c-0.025-0.526-0.004-1.055-0.026-1.581
				c-0.018-0.416-0.073-0.832-0.108-1.248c-0.005-0.068-0.012-0.15,0.019-0.206c0.199-0.354,0.327-0.655,0.098-1.105
				c-0.155-0.305,0.01-0.767,0.012-1.159c0.002-0.335-0.035-0.67-0.035-1.004c0-0.385,0.019-0.768,0.035-1.152
				c0.011-0.261,0.032-0.522,0.046-0.784c0.018-0.347,0.053-0.694,0.045-1.042c-0.006-0.253-0.095-0.506-0.099-0.759
				c-0.004-0.27,0.05-0.54,0.075-0.811c0.013-0.145,0.028-0.289,0.025-0.435c-0.006-0.299-0.02-0.598-0.038-0.896
				c-0.011-0.187-0.052-0.373-0.052-0.559c0.001-0.396,0.024-0.792,0.03-1.188c0.002-0.184,0.034-0.389-0.035-0.546
				c-0.205-0.462-0.248-0.915-0.066-1.388c0.018-0.046,0.025-0.099,0.025-0.148c-0.001-0.598-0.029-1.196,0.001-1.792
				c0.018-0.345,0.122-0.688,0.199-1.027c0.122-0.536,0.244-1.065,0.018-1.612c-0.058-0.139-0.067-0.337-0.017-0.478
				c0.254-0.708,0.298-1.42,0.192-2.162c-0.053-0.372-0.027-0.769,0.035-1.142c0.131-0.79,0.131-1.58,0.093-2.374
				c-0.004-0.087-0.051-0.204-0.011-0.258c0.355-0.477,0.139-0.968,0.093-1.47c-0.053-0.57-0.009-1.152,0.005-1.728
				c0.015-0.576,0.045-1.151,0.066-1.727c0.001-0.05,0.009-0.124-0.018-0.145c-0.358-0.271-0.146-0.578-0.091-0.896
				c0.049-0.292-0.021-0.601-0.007-0.9c0.021-0.469,0.07-0.936,0.104-1.403c0.007-0.1,0.028-0.206,0.003-0.298
				c-0.157-0.581-0.03-1.142,0.084-1.709c0.061-0.304,0.075-0.62,0.083-0.933c0.012-0.436-0.002-0.87-0.004-1.306
				c0-0.075-0.009-0.153,0.007-0.226c0.253-1.16,0.256-2.331,0.175-3.509C6.495,5.91,6.556,5.62,6.569,5.332
				c0.014-0.299,0.004-0.599,0.025-0.896c0.025-0.354,0.062-0.709,0.112-1.062c0.046-0.319,0.098-0.642,0.186-0.95
				C6.988,2.09,7.093,1.747,7.261,1.447c0.213-0.38,1.167-0.57,1.62-0.36C9.258,1.262,9.71,1.363,9.765,1.893
				c0.023,0.22,0.104,0.457,0.05,0.656C9.68,3.043,9.474,3.518,9.314,4.004C9.272,4.132,9.289,4.278,9.289,4.416
				C9.286,5.169,9.205,5.933,9.304,6.673C9.438,7.668,9.07,8.615,9.166,9.606c0.062,0.637-0.077,1.292-0.114,1.94
				c-0.009,0.161,0.049,0.325,0.038,0.486c-0.019,0.28-0.063,0.559-0.103,0.838c-0.021,0.147-0.083,0.295-0.078,0.44
				c0.038,1.053,0.107,2.104,0.126,3.156c0.012,0.612-0.07,1.227-0.078,1.84c-0.006,0.573,0.031,1.148,0.044,1.722
				C9.019,20.74,9.024,21.45,9.05,22.16c0.013,0.347,0.084,0.692,0.083,1.038c-0.001,0.189-0.099,0.379-0.151,0.567
				c-0.022,0.084-0.061,0.171-0.056,0.255c0.022,0.41,0.1,0.822,0.075,1.228c-0.028,0.459-0.175,0.909-0.214,1.367
				c-0.036,0.43,0.005,0.863,0.007,1.296c0.001,0.254-0.01,0.51-0.012,0.765c-0.003,0.32-0.003,0.639,0,0.958
				c0,0.047,0.036,0.097,0.032,0.144c-0.055,0.611-0.122,1.221-0.169,1.833c-0.036,0.461-0.055,0.925-0.072,1.388
				c-0.02,0.522-0.038,1.047-0.04,1.57c-0.001,0.299,0.05,0.599,0.045,0.896c-0.011,0.802-0.055,1.603-0.058,2.403
				c-0.002,0.749,0.037,1.498,0.045,2.247c0.009,0.697,0.016,1.396-0.005,2.095c-0.01,0.344-0.113,0.686-0.118,1.029
				c-0.003,0.228,0.138,0.455,0.138,0.684c0.001,0.712-0.062,1.426-0.045,2.138c0.011,0.472,0.119,0.94,0.181,1.41
				c0.015,0.111,0.069,0.266,0.017,0.327c-0.382,0.461-0.011,1.037-0.249,1.529c-0.069,0.145,0.035,0.447,0.158,0.595
				c0.324,0.385,0.047,0.751,0.031,1.124c-0.001,0.024-0.024,0.047-0.025,0.07c-0.02,0.614-0.038,1.229-0.055,1.844
				c-0.014,0.503-0.025,1.004-0.039,1.507c-0.015,0.538-0.025,1.078-0.05,1.615c-0.034,0.765,0.133,1.54-0.14,2.289
				c-0.016,0.046-0.019,0.103-0.007,0.149c0.1,0.385,0.209,0.767,0.302,1.152c0.025,0.104,0.007,0.223-0.003,0.333
				c-0.044,0.455-0.108,0.909-0.134,1.366c-0.007,0.138,0.086,0.28,0.13,0.422c0.025,0.081,0.089,0.197,0.058,0.242
				c-0.286,0.41-0.202,0.891-0.146,1.301c0.084,0.616-0.159,1.19-0.11,1.771c0.053,0.632-0.206,1.264,0.05,1.896
				c0.079,0.196-0.014,0.468-0.05,0.701c-0.061,0.396-0.195,0.79,0.027,1.179c0.018,0.031,0.027,0.073,0.025,0.109
				c-0.024,0.538-0.05,1.075-0.077,1.613c-0.009,0.174-0.067,0.358-0.024,0.518c0.062,0.229,0.068,0.421,0.031,0.666
				c-0.075,0.503-0.02,1.023-0.022,1.538c0,0.126-0.029,0.252-0.02,0.376c0.016,0.199,0.062,0.396,0.077,0.595
				c0.015,0.195,0.036,0.398,0,0.588c-0.063,0.322-0.333,0.577-0.097,0.986c0.137,0.236,0.029,0.637-0.019,0.956
				c-0.064,0.43-0.014,0.821,0.087,1.248c0.121,0.517,0.039,1.081,0.051,1.623c0.01,0.402,0.007,0.807,0.051,1.206
				c0.034,0.311,0.147,0.611,0.196,0.922c0.026,0.167-0.006,0.342-0.017,0.513c-0.027,0.461-0.072,0.921-0.08,1.382
				c-0.004,0.221,0.088,0.444,0.085,0.666c-0.013,1.033-0.042,2.066-0.073,3.1c-0.003,0.094-0.084,0.183-0.099,0.277
				c-0.027,0.17-0.101,0.379-0.033,0.507c0.298,0.565,0.144,1.141,0.107,1.718c-0.016,0.25-0.009,0.502-0.011,0.754
				c0,0.023,0.018,0.06,0.008,0.069c-0.484,0.497-0.144,1.041-0.102,1.573c0.026,0.32-0.004,0.646,0.017,0.969
				c0.014,0.22,0.108,0.438,0.104,0.655c-0.018,0.863-0.066,1.727-0.091,2.59c-0.01,0.331,0.025,0.663,0.01,0.993
				c-0.009,0.182-0.113,0.358-0.121,0.54c-0.027,0.654-0.045,1.311-0.039,1.968c0.003,0.309,0.099,0.619,0.097,0.928
				c-0.003,0.385-0.033,0.774-0.108,1.15c-0.142,0.707-0.062,1.422-0.115,2.132c-0.001,0.024-0.01,0.054-0.001,0.074
				c0.258,0.603,0.084,1.225,0.097,1.84c0.004,0.169,0.126,0.333,0.142,0.504c0.042,0.443,0.045,0.893,0.083,1.337
				c0.021,0.236,0.08,0.471,0.127,0.705c0.012,0.06,0.071,0.117,0.067,0.173c-0.033,0.507-0.076,1.014-0.114,1.521
				c-0.009,0.121-0.034,0.247-0.009,0.362c0.082,0.387,0.209,0.764,0.271,1.152c0.072,0.453,0.123,0.913,0.129,1.371
				c0.008,0.531-0.043,1.063-0.06,1.596c-0.005,0.145,0.033,0.289,0.031,0.433c-0.002,0.188-0.04,0.378-0.035,0.564
				c0.01,0.334,0.005,0.675,0.072,0.999c0.095,0.453,0.285,0.885,0.07,1.357c-0.046,0.102,0.014,0.247,0.006,0.372
				c-0.012,0.204-0.046,0.407-0.06,0.612c-0.014,0.212-0.012,0.426-0.02,0.639c-0.012,0.333-0.04,0.667-0.037,1.001
				c0.005,0.69,0.026,1.381,0.043,2.071c0.001,0.049,0.044,0.107,0.029,0.146c-0.233,0.586-0.076,1.169-0.015,1.759
				c0.017,0.161-0.107,0.332-0.123,0.502c-0.039,0.428-0.041,0.86-0.083,1.288c-0.054,0.554-0.147,1.104-0.195,1.659
				c-0.066,0.764-0.237,1.514-0.114,2.302c0.078,0.501-0.037,1.032-0.067,1.549c-0.007,0.112-0.021,0.225-0.027,0.337
				c-0.039,0.905-0.059,1.812-0.121,2.715c-0.029,0.42-0.167,0.833-0.201,1.254c-0.032,0.39,0.024,0.786,0.014,1.18
				c-0.008,0.286-0.071,0.57-0.091,0.856c-0.023,0.317-0.007,0.638-0.042,0.954c-0.022,0.194-0.116,0.381-0.162,0.574
				c-0.104,0.431-0.201,0.863-0.297,1.297c-0.072,0.326-0.167,0.653-0.199,0.984c-0.04,0.418-0.053,0.843-0.027,1.262
				c0.02,0.33,0.192,0.652-0.122,0.95c-0.074,0.071-0.035,0.263-0.047,0.4c-0.043,0.504-0.104,1.008-0.12,1.514
				c-0.007,0.241,0.082,0.484,0.104,0.729c0.009,0.098-0.005,0.242-0.069,0.293c-0.261,0.211-0.282,0.483-0.269,0.782
				c0.011,0.25,0.009,0.502-0.01,0.751C6.825,149.188,6.77,149.337,6.712,149.585z"/>
		</g>
	</g>
</g>
</svg>
