<?xml version="1.0" encoding="utf-8"?>
<!-- Generator: Adobe Illustrator 16.0.0, SVG Export Plug-In . SVG Version: 6.00 Build 0)  -->
<!DOCTYPE svg PUBLIC "-//W3C//DTD SVG 1.1//EN" "http://www.w3.org/Graphics/SVG/1.1/DTD/svg11.dtd">
<svg version="1.1" id="Layer_1" xmlns="http://www.w3.org/2000/svg" xmlns:xlink="http://www.w3.org/1999/xlink" x="0px" y="0px"
	 width="385px" height="11.5px" viewBox="0 0 385 11.5" enable-background="new 0 0 385 11.5" xml:space="preserve">
<g id="TAV8RM_1_">
	<g>
		<path fill="#A4FF62" d="M382.829,4.791c-0.14-0.987-0.298-1.3-1.202-1.382c-0.287-0.026-0.568-0.112-0.854-0.165
			c-0.881-0.164-1.761-0.435-2.649-0.464c-1.859-0.06-3.723,0.02-5.584,0.018c-1.078,0-2.156-0.076-3.234-0.063
			c-1.429,0.018-2.856,0.132-4.285,0.13c-2.249-0.002-4.498-0.094-6.747-0.094c-1.767,0.001-3.535,0.083-5.301,0.136
			c-0.141,0.003-0.28,0.063-0.421,0.087c-0.409,0.07-0.816,0.18-1.228,0.192c-1.184,0.038-2.381-0.237-3.554,0.145
			c-0.131,0.043-0.288,0.008-0.433,0.005c-1.422-0.013-2.845-0.05-4.268-0.033c-1.657,0.02-3.312,0.09-4.969,0.132
			c-0.816,0.021-1.634,0.051-2.45,0.032c-0.723-0.016-1.443-0.111-2.167-0.14c-0.688-0.027-1.378,0.009-2.064-0.024
			c-0.448-0.022-0.889-0.147-1.337-0.175c-0.348-0.021-0.701,0.05-1.053,0.054c-0.561,0.006-1.123-0.031-1.683-0.01
			c-0.816,0.029-1.631,0.134-2.446,0.133c-1.075-0.002-2.15-0.077-3.225-0.121c-0.206-0.008-0.414-0.038-0.618-0.022
			c-0.571,0.044-1.141,0.125-1.712,0.159c-0.671,0.039-1.358-0.07-1.97,0.346c-0.112,0.075-0.324,0.063-0.469,0.021
			c-1.393-0.4-2.818-0.191-4.227-0.213c-1.897-0.029-3.797,0.037-5.696,0.062c-0.194,0.002-0.396-0.025-0.579,0.021
			c-0.986,0.256-1.977,0.338-3,0.28c-1.066-0.06-2.14,0.044-3.209,0.021c-0.912-0.02-1.822-0.152-2.733-0.169
			c-0.864-0.015-1.729,0.043-2.593,0.093c-0.815,0.046-1.63,0.188-2.444,0.171c-1.785-0.038-3.56-0.253-5.353,0.056
			c-1.14,0.197-2.319,0.163-3.48,0.24c-1.637,0.109-3.275,0.215-4.911,0.343c-1.325,0.104-2.672-0.196-3.98,0.217
			c-0.044,0.013-0.096,0.009-0.145,0.008c-1.237-0.027-2.478-0.127-3.71-0.065c-1.587,0.08-3.182-0.183-4.761,0.123
			c-0.107,0.021-0.224-0.016-0.336-0.019c-0.722-0.018-1.445-0.059-2.166-0.042c-0.846,0.02-1.691,0.131-2.536,0.127
			c-1.137-0.007-2.274-0.089-3.411-0.132c-0.158-0.006-0.317,0.039-0.477,0.048c-1.021,0.064-2.041,0.146-3.063,0.179
			c-0.64,0.021-1.283-0.04-1.925-0.056c-0.546-0.013-1.093-0.005-1.64-0.021c-1.19-0.032-2.381-0.129-3.569-0.096
			c-1.582,0.043-3.16,0.228-4.742,0.271c-1.765,0.047-3.532,0.004-5.298,0c-0.335,0-0.67-0.008-1.006-0.003
			c-1.383,0.017-2.768,0.034-4.151,0.061c-0.336,0.007-0.672,0.08-1.008,0.073c-1.363-0.027-2.726-0.113-4.087-0.103
			c-1.768,0.015-3.535,0.094-5.302,0.157c-0.429,0.015-0.859,0.112-1.286,0.097c-0.592-0.021-1.182-0.113-1.773-0.17
			c-0.283-0.027-0.568-0.068-0.851-0.056c-0.426,0.019-0.852,0.132-1.273,0.111c-0.559-0.027-1.112-0.186-1.671-0.215
			c-0.864-0.043-1.731-0.053-2.596-0.026c-1.543,0.048-3.085,0.14-4.628,0.201c-0.416,0.017-0.834-0.009-1.251-0.018
			s-0.833-0.019-1.25-0.033c-0.659-0.02-1.316-0.038-1.975-0.068c-0.431-0.02-0.862-0.079-1.294-0.085
			c-1.221-0.02-2.442-0.022-3.663-0.03c-0.675-0.004-1.349-0.009-2.023-0.011c-0.38,0-0.76,0.021-1.139,0.004
			c-0.482-0.022-0.96-0.088-1.442-0.105c-0.523-0.019-1.048-0.019-1.57,0.004c-0.571,0.023-1.14,0.08-1.708,0.127
			c-0.144,0.012-0.288,0.063-0.429,0.057c-0.848-0.044-1.722,0.009-2.536-0.185c-0.814-0.194-1.554-0.005-2.328,0.072
			c-1.04,0.105-2.104,0.347-3.119,0.219c-1.923-0.241-3.844-0.243-5.768-0.266c-1.94-0.021-3.882,0.068-5.822,0.073
			c-0.736,0.003-1.476-0.167-2.207-0.128c-0.998,0.053-1.96,0.309-3,0.161c-0.875-0.125-1.787-0.033-2.665-0.267
			c-0.152-0.041-0.318-0.047-0.478-0.042c-1.715,0.06-3.429,0.165-5.143,0.175c-1.121,0.007-2.241-0.144-3.363-0.181
			c-1.027-0.033-2.056-0.009-3.085-0.007c-0.87,0.001-1.74,0.019-2.61,0.011c-1.624-0.015-3.249-0.065-4.873-0.059
			c-1.379,0.005-2.758,0.082-4.138,0.102c-0.991,0.013-1.984-0.044-2.975-0.014c-1.558,0.048-3.112,0.162-4.669,0.21
			c-0.736,0.022-1.475-0.056-2.212-0.064c-0.476-0.005-0.952,0.055-1.426,0.047c-0.492-0.008-0.984-0.098-1.475-0.087
			c-1.43,0.034-2.858,0.098-4.287,0.156c-0.571,0.023-1.142,0.058-1.713,0.089c-0.289,0.016-0.581,0.068-0.867,0.043
			c-0.521-0.045-1.038-0.146-1.558-0.204c-0.384-0.043-0.771-0.075-1.157-0.076c-0.787-0.003-1.578-0.032-2.36,0.039
			c-1.198,0.107-2.377,0.365-3.599,0.128c-0.5-0.098-1.047,0.08-1.572,0.075c-1.326-0.012-2.652-0.073-3.979-0.08
			c-0.931-0.004-1.862,0.094-2.791,0.064c-1.009-0.033-2.013-0.157-3.01,0.137c-0.206,0.061-0.449-0.008-0.675-0.007
			c-0.692,0.002-1.384,0.009-2.077,0.016c-0.702,0.006-1.405,0.017-2.107,0.019c-0.447,0-0.919-0.106-1.338,0
			c-1.126,0.287-2.265,0.223-3.398,0.201c-1.253-0.025-2.504-0.145-3.756-0.195c-0.561-0.022-1.124,0.042-1.686,0.044
			c-1.305,0.006-2.609,0.012-3.914-0.01c-0.771-0.013-1.541-0.083-2.311-0.124c-0.461-0.025-0.93-0.117-1.38-0.06
			c-1.924,0.247-3.84,0.406-5.792,0.323c-1.548-0.067-3.127-0.209-4.672,0.187c-0.241,0.062-0.517,0.04-0.767,0
			c-1.259-0.2-2.508-0.387-3.798-0.23c-0.674,0.082-1.371-0.035-2.058-0.057c-0.832-0.026-1.664-0.047-2.496-0.069
			c-0.418-0.01-0.837-0.036-1.255-0.02c-1.327,0.05-2.652,0.119-3.979,0.173c-0.272,0.012-0.553,0.032-0.816-0.019
			c-1.212-0.235-2.422-0.287-3.645-0.096c-0.317,0.048-0.642,0.1-0.96,0.084c-1.281-0.06-2.56-0.188-3.841-0.208
			c-1.152-0.019-2.305,0.073-3.458,0.107c-0.482,0.015-0.969,0.048-1.448,0.002c-1.569-0.153-3.134-0.347-4.714-0.182
			c-0.08,0.009-0.162,0.009-0.242,0.004c-1.155-0.063-2.31-0.144-3.465-0.186c-0.959-0.034-1.93,0.06-2.879-0.052
			c-0.943-0.112-1.867-0.191-2.824-0.165c-1.521,0.042-3.048-0.147-4.572-0.146c-1.62,0-3.221-0.307-4.86-0.089
			c-1.17,0.154-2.382-0.043-3.572-0.001C8.787,4.532,7.573,4.577,6.361,4.362C4.851,4.095,3.755,4.78,2.902,5.943
			c-0.42,0.574-0.166,1.768,0.426,1.951c0.435,0.135,0.917,0.205,1.37,0.178c0.981-0.06,1.956-0.241,2.936-0.296
			c0.993-0.057,1.994,0.011,2.988-0.032c1.218-0.052,2.421-0.238,3.653-0.156c1.101,0.075,2.216-0.082,3.323-0.065
			c0.817,0.013,1.631,0.188,2.448,0.209c1.158,0.03,2.318-0.04,3.476-0.022c1.063,0.017,2.124,0.107,3.187,0.143
			c1.546,0.053,3.092,0.087,4.639,0.124c0.837,0.02,1.68-0.022,2.512,0.051c2.232,0.198,4.467,0.252,6.705,0.209
			c0.403-0.007,0.807-0.057,1.209-0.042c1.296,0.049,2.591,0.114,3.887,0.182c0.852,0.044,1.702,0.139,2.553,0.147
			c1.027,0.011,2.056-0.084,3.082-0.062c1.508,0.033,3.015,0.137,4.523,0.2c0.849,0.035,1.697,0.049,2.546,0.07
			c0.064,0.002,0.128-0.008,0.192-0.014c0.523-0.042,1.051-0.158,1.566-0.12c2.41,0.178,4.812,0.177,7.208-0.152
			c0.078-0.011,0.161-0.002,0.241,0.004c0.828,0.061,1.655,0.151,2.483,0.174c0.542,0.014,1.084-0.104,1.625-0.103
			c0.768,0.002,1.535,0.063,2.303,0.096c0.655,0.029,1.312,0.057,1.968,0.078c0.157,0.005,0.317-0.002,0.474-0.025
			c0.709-0.104,1.417-0.282,2.129-0.301c0.736-0.019,1.477,0.184,2.213,0.17c1.571-0.027,3.141-0.138,4.71-0.2
			c0.255-0.011,0.511,0.051,0.766,0.072c0.53,0.046,1.059,0.122,1.588,0.125c0.793,0.004,1.588-0.061,2.382-0.062
			c1.075-0.004,2.15,0.043,3.225,0.034c1.766-0.016,3.533-0.057,5.297-0.089c0.112-0.002,0.224-0.022,0.336-0.027
			c1.14-0.05,2.28-0.131,3.421-0.14c1.009-0.008,2.021,0.231,3.027-0.062c0.149-0.043,0.321-0.014,0.481-0.005
			c1.007,0.059,2.014,0.123,3.02,0.181c0.289,0.016,0.578,0.039,0.866,0.022c0.92-0.053,1.838-0.14,2.759-0.18
			c1.47-0.063,2.941-0.126,4.411-0.142c1.511-0.016,3.022,0.042,4.533,0.036c1.189-0.005,2.379-0.047,3.568-0.095
			c0.397-0.016,0.818-0.219,1.181-0.132c1.216,0.291,2.44,0.318,3.675,0.297c0.736-0.013,1.472-0.014,2.207-0.027
			c0.574-0.012,1.146-0.049,1.72-0.049c0.851,0,1.702,0.051,2.551,0.031c0.771-0.017,1.54-0.122,2.311-0.146
			c0.43-0.012,0.862,0.085,1.293,0.089c0.885,0.008,1.77-0.008,2.653-0.023c0.894-0.016,1.787-0.038,2.68-0.065
			c0.402-0.012,0.804-0.075,1.205-0.064c1.122,0.03,2.244,0.104,3.367,0.13c1.688,0.039,3.376,0.074,5.064,0.067
			c1.142-0.003,2.282-0.084,3.425-0.124c0.174-0.005,0.351,0.027,0.526,0.049c0.293,0.036,0.587,0.111,0.88,0.109
			c1.18-0.009,2.36-0.056,3.54-0.057c0.324,0,0.649,0.165,0.973,0.165c1.299-0.001,2.599-0.038,3.899-0.06
			c0.898-0.015,1.802-0.088,2.695-0.02c0.764,0.06,1.545-0.242,2.307,0.168c0.242,0.131,0.64-0.028,0.967-0.054
			c0.143-0.011,0.286-0.035,0.427-0.03c0.643,0.021,1.285,0.07,1.927,0.074c0.869,0.005,1.739-0.046,2.607-0.029
			c0.92,0.019,1.839,0.098,2.759,0.136c0.911,0.039,1.824,0.089,2.734,0.083c0.928-0.007,1.855-0.105,2.783-0.115
			c1.144-0.012,2.294,0.179,3.425-0.154c0.1-0.03,0.221,0.016,0.333,0.023c1.06,0.076,2.118,0.215,3.178,0.21
			c1.252-0.006,2.504-0.157,3.757-0.201c0.516-0.018,1.035,0.124,1.552,0.117c0.849-0.01,1.696-0.116,2.544-0.12
			c0.571-0.003,1.143,0.102,1.715,0.153c0.657,0.06,1.293,0.088,1.975,0.001c0.899-0.114,1.828,0.114,2.776-0.043
			c0.914-0.15,1.872-0.036,2.811-0.028c0.531,0.004,1.062,0.036,1.595,0.042c0.686,0.008,1.374-0.017,2.059,0.005
			c0.703,0.024,1.406,0.117,2.109,0.129c0.928,0.017,1.855-0.009,2.783-0.03c0.444-0.011,0.887-0.059,1.332-0.082
			c0.286-0.015,0.573-0.018,0.859-0.021c0.95-0.01,1.899-0.022,2.849-0.023c0.398,0,0.797,0.027,1.196,0.039
			c0.142,0.004,0.323-0.054,0.42,0.012c0.494,0.339,0.979,0.081,1.468,0.021c0.095-0.012,0.192-0.031,0.286-0.026
			c1.068,0.064,2.135,0.167,3.203,0.188c1.246,0.026,2.493-0.013,3.739-0.037c0.798-0.015,1.596-0.032,2.392-0.087
			c0.552-0.04,1.1-0.21,1.65-0.209c0.858,0,1.716,0.141,2.573,0.137c0.775-0.004,1.551-0.124,2.325-0.186
			c0.206-0.017,0.414-0.022,0.618-0.004c0.316,0.028,0.634,0.136,0.945,0.113c0.624-0.046,1.243-0.16,1.865-0.237
			c0.092-0.011,0.189,0.037,0.285,0.039c0.718,0.017,1.436,0.032,2.154,0.041c0.127,0.001,0.254-0.043,0.38-0.04
			c0.917,0.029,1.835,0.035,2.748,0.106c0.76,0.059,1.558-0.212,2.278,0.242c0.044,0.028,0.123,0.004,0.185-0.003
			c0.956-0.116,1.909-0.27,2.869-0.337c0.685-0.048,1.376,0.031,2.064,0.036c0.569,0.003,1.151-0.262,1.703,0.096
			c0.032,0.021,0.104,0.015,0.138-0.008c0.602-0.398,1.315,0.272,1.909-0.2c0.009-0.007,0.032,0.002,0.047,0.003
			c0.791,0.024,1.581,0.054,2.371,0.069c0.701,0.013,1.402,0.009,2.104,0.01c0.32,0.001,0.644,0.015,0.963-0.009
			c0.621-0.044,1.242-0.163,1.862-0.159c1.266,0.008,2.526,0.132,3.794-0.098c0.52-0.095,1.083-0.001,1.621,0.058
			c0.598,0.064,1.178,0.15,1.735-0.19c0.117-0.07,0.31-0.027,0.466-0.017c0.507,0.034,1.057,0.221,1.512,0.085
			c0.97-0.289,1.981,0.092,2.927-0.287c0.089-0.037,0.219,0.042,0.331,0.042c0.218,0,0.437-0.011,0.654-0.031
			c0.27-0.025,0.538-0.09,0.806-0.09c0.383,0,0.77,0.087,1.15,0.063c1.061-0.067,2.118-0.212,3.18-0.251
			c0.993-0.036,1.991,0.067,2.984,0.031c1.349-0.047,2.694-0.218,4.043-0.245c1.676-0.034,3.354,0.02,5.03,0.054
			c0.366,0.008,0.734,0.142,1.097,0.128c0.783-0.032,1.562-0.146,2.345-0.181c1.394-0.061,2.79-0.073,4.185-0.133
			c1.172-0.05,2.343-0.169,3.516-0.205c1.822-0.054,3.645-0.051,5.467-0.095c1.334-0.033,2.668-0.098,4.002-0.158
			c0.554-0.025,1.106-0.087,1.66-0.109c0.8-0.032,1.601-0.054,2.401-0.06c0.769-0.004,1.538,0.016,2.307,0.027
			c0.128,0.001,0.257,0.003,0.385,0.011c1.281,0.072,2.563,0.135,3.845,0.222c1.052,0.071,2.1,0.204,3.153,0.251
			c0.995,0.044,1.994,0.031,2.99,0.011c1.096-0.024,2.191-0.061,3.285-0.135c1.294-0.088,2.583-0.285,3.879-0.324
			c2.298-0.071,4.6-0.117,6.898-0.06c1.236,0.03,2.433-0.313,3.687-0.159c1.119,0.137,2.273,0,3.412-0.034
			c1.375-0.042,2.75-0.099,4.125-0.152c0.08-0.004,0.156-0.042,0.235-0.051c0.269-0.028,0.538-0.063,0.809-0.072
			c0.448-0.013,0.897-0.005,1.345-0.012c0.656-0.01,1.312-0.036,1.969-0.036c1.284,0,2.567,0.033,3.852,0.011
			c0.673-0.012,1.346-0.159,2.019-0.159c1.045,0,2.093,0.047,3.134,0.126c0.542,0.041,1.078,0.18,1.611,0.297
			c0.399,0.087,0.785,0.251,1.187,0.309C382.01,6.542,382.856,5.81,382.829,4.791z"/>
		<path fill="#A4FF62" fill-rule="evenodd" clip-rule="evenodd" d="M382.829,4.791c0.028,1.019-0.818,1.751-1.89,1.598
			c-0.402-0.058-0.788-0.222-1.187-0.309c-0.533-0.118-1.07-0.256-1.611-0.297c-1.041-0.079-2.089-0.126-3.134-0.126
			c-0.673,0-1.346,0.147-2.019,0.159c-1.284,0.022-2.568-0.011-3.852-0.011c-0.657,0-1.312,0.026-1.969,0.036
			c-0.448,0.007-0.896-0.001-1.345,0.012c-0.271,0.009-0.54,0.044-0.809,0.072c-0.079,0.008-0.155,0.047-0.235,0.051
			c-1.375,0.053-2.75,0.11-4.125,0.152c-1.139,0.034-2.292,0.171-3.412,0.034c-1.254-0.154-2.451,0.189-3.687,0.159
			c-2.298-0.057-4.6-0.011-6.898,0.06c-1.295,0.04-2.585,0.236-3.879,0.324c-1.093,0.074-2.189,0.111-3.285,0.135
			c-0.996,0.021-1.996,0.033-2.99-0.011c-1.053-0.047-2.101-0.18-3.153-0.251c-1.281-0.087-2.563-0.15-3.845-0.222
			c-0.128-0.007-0.256-0.009-0.385-0.011c-0.769-0.011-1.538-0.032-2.307-0.027c-0.8,0.005-1.602,0.028-2.401,0.06
			c-0.554,0.022-1.106,0.084-1.66,0.109c-1.334,0.06-2.668,0.125-4.002,0.158c-1.822,0.044-3.645,0.041-5.467,0.095
			c-1.173,0.035-2.344,0.154-3.516,0.205c-1.395,0.06-2.791,0.072-4.185,0.133c-0.783,0.035-1.562,0.149-2.345,0.181
			c-0.363,0.014-0.73-0.121-1.097-0.128c-1.677-0.034-3.354-0.088-5.03-0.054c-1.349,0.026-2.695,0.198-4.043,0.245
			c-0.993,0.036-1.991-0.067-2.984-0.031c-1.062,0.039-2.119,0.184-3.18,0.251c-0.38,0.023-0.767-0.063-1.15-0.063
			c-0.269,0-0.537,0.065-0.806,0.09c-0.217,0.02-0.436,0.03-0.654,0.031c-0.111,0-0.241-0.078-0.331-0.042
			c-0.946,0.379-1.957-0.002-2.927,0.287c-0.455,0.136-1.004-0.051-1.512-0.085c-0.157-0.01-0.35-0.053-0.466,0.017
			c-0.557,0.341-1.137,0.255-1.735,0.19c-0.538-0.06-1.101-0.153-1.621-0.058c-1.268,0.23-2.528,0.105-3.794,0.098
			c-0.621-0.003-1.241,0.115-1.862,0.159c-0.32,0.024-0.643,0.01-0.963,0.009c-0.702-0.001-1.403,0.003-2.104-0.01
			c-0.791-0.015-1.581-0.045-2.371-0.069c-0.016-0.001-0.038-0.011-0.047-0.003c-0.593,0.472-1.307-0.198-1.909,0.2
			c-0.034,0.022-0.106,0.029-0.138,0.008c-0.551-0.358-1.133-0.093-1.703-0.096c-0.688-0.004-1.38-0.083-2.064-0.036
			c-0.959,0.067-1.913,0.222-2.869,0.337c-0.062,0.007-0.141,0.031-0.185,0.003c-0.72-0.454-1.518-0.183-2.278-0.242
			c-0.913-0.071-1.831-0.078-2.748-0.106c-0.126-0.004-0.253,0.041-0.38,0.04c-0.718-0.009-1.436-0.024-2.154-0.041
			c-0.095-0.002-0.193-0.05-0.285-0.039c-0.623,0.077-1.241,0.191-1.865,0.237c-0.311,0.023-0.629-0.085-0.945-0.113
			c-0.205-0.018-0.413-0.012-0.618,0.004c-0.774,0.062-1.55,0.182-2.325,0.186c-0.857,0.004-1.715-0.137-2.573-0.137
			c-0.55,0-1.098,0.17-1.65,0.209c-0.795,0.056-1.594,0.073-2.392,0.087c-1.246,0.024-2.494,0.062-3.739,0.037
			c-1.068-0.021-2.135-0.124-3.203-0.188c-0.094-0.005-0.191,0.014-0.286,0.026c-0.489,0.06-0.974,0.318-1.468-0.021
			c-0.097-0.066-0.278-0.008-0.42-0.012c-0.398-0.012-0.797-0.04-1.196-0.039c-0.95,0.001-1.899,0.014-2.849,0.023
			c-0.287,0.002-0.574,0.006-0.859,0.021c-0.444,0.023-0.887,0.07-1.332,0.082c-0.928,0.021-1.855,0.046-2.783,0.03
			c-0.703-0.012-1.406-0.105-2.109-0.129c-0.686-0.022-1.373,0.002-2.059-0.005c-0.532-0.006-1.063-0.038-1.595-0.042
			c-0.938-0.008-1.897-0.122-2.811,0.028c-0.949,0.157-1.877-0.07-2.776,0.043c-0.682,0.086-1.318,0.058-1.975-0.001
			c-0.572-0.051-1.144-0.156-1.715-0.153c-0.848,0.004-1.695,0.109-2.544,0.12c-0.517,0.007-1.036-0.134-1.552-0.117
			c-1.253,0.044-2.505,0.195-3.757,0.201c-1.06,0.004-2.118-0.134-3.178-0.21c-0.112-0.008-0.233-0.053-0.333-0.023
			c-1.131,0.333-2.281,0.142-3.425,0.154c-0.928,0.01-1.855,0.107-2.783,0.115c-0.911,0.006-1.823-0.043-2.734-0.083
			c-0.919-0.039-1.839-0.117-2.759-0.136c-0.869-0.018-1.739,0.034-2.607,0.029c-0.643-0.003-1.284-0.052-1.927-0.074
			c-0.142-0.005-0.284,0.019-0.427,0.03c-0.327,0.026-0.725,0.185-0.967,0.054c-0.762-0.41-1.543-0.108-2.307-0.168
			c-0.893-0.068-1.796,0.005-2.695,0.02c-1.3,0.021-2.6,0.059-3.899,0.06c-0.324,0-0.649-0.165-0.973-0.165
			c-1.18,0.001-2.359,0.048-3.54,0.057c-0.293,0.002-0.587-0.073-0.88-0.109c-0.175-0.021-0.352-0.054-0.526-0.049
			c-1.143,0.039-2.283,0.12-3.425,0.124c-1.688,0.007-3.376-0.028-5.064-0.067c-1.123-0.026-2.245-0.1-3.367-0.13
			c-0.401-0.011-0.803,0.053-1.205,0.064c-0.893,0.028-1.786,0.049-2.68,0.065c-0.884,0.015-1.769,0.032-2.653,0.023
			c-0.431-0.004-0.863-0.102-1.293-0.089c-0.771,0.024-1.54,0.128-2.311,0.146c-0.849,0.02-1.7-0.031-2.551-0.031
			c-0.574,0-1.146,0.037-1.72,0.049c-0.735,0.013-1.471,0.014-2.207,0.027c-1.234,0.021-2.458-0.007-3.675-0.297
			c-0.362-0.087-0.784,0.116-1.181,0.132c-1.189,0.048-2.379,0.089-3.568,0.095c-1.511,0.006-3.022-0.052-4.533-0.036
			c-1.47,0.016-2.941,0.079-4.411,0.142c-0.92,0.04-1.838,0.127-2.759,0.18c-0.288,0.016-0.577-0.006-0.866-0.022
			c-1.006-0.058-2.013-0.122-3.02-0.181c-0.161-0.009-0.333-0.038-0.481,0.005c-1.006,0.292-2.018,0.053-3.027,0.062
			c-1.141,0.009-2.281,0.09-3.421,0.14c-0.112,0.005-0.224,0.025-0.336,0.027c-1.765,0.032-3.531,0.074-5.297,0.089
			c-1.075,0.009-2.149-0.038-3.225-0.034c-0.794,0.002-1.589,0.066-2.382,0.062c-0.53-0.003-1.059-0.078-1.588-0.125
			c-0.255-0.021-0.511-0.083-0.766-0.072c-1.569,0.062-3.139,0.173-4.71,0.2c-0.736,0.014-1.477-0.189-2.213-0.17
			c-0.712,0.019-1.42,0.197-2.129,0.301c-0.156,0.022-0.316,0.03-0.474,0.025c-0.656-0.021-1.312-0.049-1.968-0.078
			c-0.768-0.033-1.536-0.093-2.303-0.096c-0.542-0.001-1.084,0.117-1.625,0.103c-0.829-0.022-1.655-0.113-2.483-0.174
			c-0.08-0.006-0.163-0.015-0.241-0.004c-2.397,0.329-4.799,0.33-7.208,0.152c-0.516-0.038-1.043,0.077-1.566,0.12
			c-0.063,0.006-0.128,0.016-0.192,0.014c-0.849-0.021-1.698-0.035-2.546-0.07c-1.508-0.063-3.015-0.167-4.523-0.2
			c-1.026-0.023-2.055,0.073-3.082,0.062c-0.852-0.009-1.701-0.103-2.553-0.147c-1.295-0.068-2.591-0.133-3.887-0.182
			c-0.402-0.015-0.806,0.035-1.209,0.042c-2.238,0.043-4.473-0.012-6.705-0.209c-0.833-0.073-1.675-0.032-2.512-0.051
			c-1.547-0.037-3.093-0.071-4.639-0.124c-1.062-0.035-2.124-0.126-3.187-0.143c-1.158-0.018-2.318,0.052-3.476,0.022
			c-0.817-0.021-1.631-0.197-2.448-0.209c-1.107-0.017-2.222,0.14-3.323,0.065c-1.232-0.082-2.436,0.104-3.653,0.156
			C9.629,7.788,8.628,7.72,7.635,7.776C6.654,7.832,5.68,8.012,4.699,8.072c-0.454,0.027-0.935-0.043-1.37-0.178
			C2.737,7.711,2.482,6.517,2.902,5.943C3.755,4.78,4.851,4.095,6.361,4.362c1.212,0.215,2.426,0.169,3.648,0.127
			c1.189-0.042,2.402,0.155,3.572,0.001c1.639-0.218,3.24,0.089,4.86,0.089c1.524,0,3.051,0.188,4.572,0.146
			c0.958-0.026,1.881,0.053,2.824,0.165c0.949,0.112,1.919,0.018,2.879,0.052c1.155,0.042,2.31,0.123,3.465,0.186
			c0.08,0.005,0.163,0.005,0.242-0.004c1.581-0.165,3.146,0.028,4.714,0.182c0.479,0.046,0.965,0.013,1.448-0.002
			c1.153-0.035,2.306-0.126,3.458-0.107c1.281,0.021,2.56,0.149,3.841,0.208c0.318,0.015,0.643-0.036,0.96-0.084
			c1.222-0.19,2.433-0.139,3.645,0.096c0.263,0.051,0.544,0.031,0.816,0.019c1.327-0.054,2.652-0.123,3.979-0.173
			c0.417-0.016,0.837,0.009,1.255,0.02c0.832,0.021,1.664,0.043,2.496,0.069c0.687,0.022,1.384,0.139,2.058,0.057
			c1.29-0.156,2.539,0.03,3.798,0.23c0.25,0.04,0.525,0.062,0.767,0c1.545-0.396,3.124-0.254,4.672-0.187
			c1.953,0.083,3.869-0.076,5.792-0.323c0.45-0.058,0.919,0.034,1.38,0.06c0.771,0.041,1.541,0.11,2.311,0.124
			c1.304,0.022,2.609,0.016,3.914,0.01c0.562-0.002,1.125-0.066,1.686-0.044c1.252,0.05,2.503,0.17,3.756,0.195
			c1.134,0.022,2.272,0.086,3.398-0.201c0.419-0.106,0.891,0,1.338,0c0.703-0.001,1.405-0.013,2.107-0.019
			c0.692-0.006,1.384-0.013,2.077-0.016c0.226-0.001,0.469,0.068,0.675,0.007c0.997-0.294,2-0.17,3.01-0.137
			c0.929,0.03,1.86-0.068,2.791-0.064c1.327,0.007,2.653,0.068,3.979,0.08c0.525,0.005,1.072-0.173,1.572-0.075
			c1.222,0.236,2.4-0.021,3.599-0.128c0.782-0.071,1.573-0.042,2.36-0.039c0.386,0.001,0.772,0.033,1.157,0.076
			c0.52,0.058,1.037,0.159,1.558,0.204c0.286,0.025,0.578-0.027,0.867-0.043c0.571-0.031,1.142-0.066,1.713-0.089
			c1.429-0.058,2.857-0.123,4.287-0.156c0.49-0.011,0.982,0.079,1.475,0.087c0.474,0.008,0.95-0.052,1.426-0.047
			c0.737,0.008,1.476,0.086,2.212,0.064c1.557-0.048,3.111-0.162,4.669-0.21c0.991-0.03,1.984,0.027,2.975,0.014
			c1.379-0.02,2.758-0.097,4.138-0.102c1.624-0.006,3.249,0.044,4.873,0.059c0.87,0.008,1.74-0.009,2.61-0.011
			c1.029-0.002,2.058-0.026,3.085,0.007c1.122,0.037,2.242,0.188,3.363,0.181c1.714-0.01,3.428-0.115,5.143-0.175
			c0.159-0.005,0.326,0.001,0.478,0.042c0.878,0.233,1.791,0.142,2.665,0.267c1.039,0.148,2.002-0.108,3-0.161
			c0.731-0.039,1.47,0.131,2.207,0.128c1.94-0.005,3.882-0.095,5.822-0.073c1.923,0.023,3.845,0.024,5.768,0.266
			c1.016,0.128,2.08-0.114,3.119-0.219c0.774-0.077,1.514-0.266,2.328-0.072c0.813,0.194,1.688,0.141,2.536,0.185
			c0.142,0.007,0.285-0.044,0.429-0.057c0.569-0.047,1.138-0.104,1.708-0.127c0.522-0.022,1.047-0.022,1.57-0.004
			c0.481,0.017,0.96,0.083,1.442,0.105c0.379,0.017,0.759-0.004,1.139-0.004c0.674,0.002,1.348,0.006,2.023,0.011
			c1.221,0.008,2.442,0.011,3.663,0.03c0.432,0.006,0.863,0.065,1.294,0.085c0.659,0.03,1.316,0.048,1.975,0.068
			c0.416,0.014,0.833,0.024,1.25,0.033s0.835,0.035,1.251,0.018c1.543-0.061,3.085-0.153,4.628-0.201
			c0.865-0.027,1.732-0.017,2.596,0.026c0.559,0.029,1.112,0.188,1.671,0.215c0.421,0.021,0.847-0.093,1.273-0.111
			c0.283-0.013,0.567,0.028,0.851,0.056c0.591,0.057,1.181,0.149,1.773,0.17c0.427,0.015,0.857-0.083,1.286-0.097
			c1.767-0.062,3.534-0.142,5.302-0.157c1.361-0.01,2.724,0.076,4.087,0.103c0.335,0.006,0.671-0.066,1.008-0.073
			c1.383-0.027,2.768-0.044,4.151-0.061c0.335-0.004,0.67,0.003,1.006,0.003c1.767,0.004,3.534,0.047,5.298,0
			c1.582-0.043,3.16-0.229,4.742-0.271c1.188-0.033,2.379,0.064,3.569,0.096c0.547,0.015,1.094,0.008,1.64,0.021
			c0.643,0.016,1.285,0.076,1.925,0.056c1.022-0.033,2.042-0.115,3.063-0.179c0.159-0.01,0.319-0.055,0.477-0.048
			c1.137,0.042,2.274,0.125,3.411,0.132c0.845,0.004,1.69-0.107,2.536-0.127c0.721-0.017,1.444,0.024,2.166,0.042
			c0.112,0.002,0.229,0.039,0.336,0.019c1.58-0.306,3.174-0.043,4.761-0.123c1.233-0.062,2.473,0.038,3.71,0.065
			c0.049,0.001,0.101,0.005,0.145-0.008c1.308-0.413,2.655-0.112,3.98-0.217c1.636-0.128,3.274-0.233,4.911-0.343
			c1.162-0.077,2.34-0.043,3.48-0.24c1.793-0.309,3.568-0.094,5.353-0.056c0.813,0.017,1.628-0.125,2.444-0.171
			c0.863-0.049,1.729-0.108,2.593-0.093c0.911,0.017,1.821,0.149,2.733,0.169c1.069,0.023,2.143-0.08,3.209-0.021
			c1.023,0.058,2.014-0.024,3-0.28c0.183-0.046,0.385-0.019,0.579-0.021c1.898-0.025,3.799-0.091,5.696-0.062
			c1.409,0.021,2.834-0.187,4.227,0.213c0.146,0.042,0.357,0.055,0.469-0.021c0.612-0.416,1.299-0.307,1.97-0.346
			c0.571-0.034,1.141-0.115,1.712-0.159c0.204-0.016,0.412,0.014,0.618,0.022c1.075,0.044,2.15,0.119,3.225,0.121
			c0.815,0.001,1.629-0.104,2.446-0.133c0.56-0.021,1.122,0.017,1.683,0.01c0.352-0.004,0.705-0.075,1.053-0.054
			c0.448,0.028,0.889,0.152,1.337,0.175c0.687,0.033,1.376-0.003,2.064,0.024c0.723,0.029,1.444,0.124,2.167,0.14
			c0.816,0.019,1.634-0.012,2.45-0.032c1.656-0.042,3.312-0.112,4.969-0.132c1.422-0.017,2.845,0.021,4.268,0.033
			c0.145,0.002,0.302,0.038,0.433-0.005c1.173-0.382,2.37-0.107,3.554-0.145c0.411-0.013,0.819-0.123,1.228-0.192
			c0.142-0.024,0.28-0.084,0.421-0.087c1.767-0.053,3.535-0.135,5.301-0.136c2.249,0,4.498,0.092,6.747,0.094
			c1.428,0.001,2.856-0.112,4.285-0.13c1.078-0.013,2.156,0.063,3.234,0.063c1.861,0.001,3.725-0.078,5.584-0.018
			c0.888,0.029,1.768,0.3,2.649,0.464c0.286,0.053,0.567,0.139,0.854,0.165C382.53,3.49,382.689,3.804,382.829,4.791z"/>
	</g>
</g>
</svg>
