<?xml version="1.0" encoding="utf-8"?>
<!-- Generator: Adobe Illustrator 16.0.0, SVG Export Plug-In . SVG Version: 6.00 Build 0)  -->
<!DOCTYPE svg PUBLIC "-//W3C//DTD SVG 1.1//EN" "http://www.w3.org/Graphics/SVG/1.1/DTD/svg11.dtd">
<svg version="1.1" id="Layer_1" xmlns="http://www.w3.org/2000/svg" xmlns:xlink="http://www.w3.org/1999/xlink" x="0px" y="0px"
	 width="50px" height="66.601px" viewBox="0 0 50 66.601" enable-background="new 0 0 50 66.601" xml:space="preserve">
<g id="Z0gSRD_1_">
	<g>
		<g>
			<path fill="#A4FF62" stroke="green" stroke-miterlimit="10" d="M5.099,50.27c-0.214,0.361-0.273,0.748-0.469,1.094
				c-0.169,0.295-0.374,0.574-0.527,0.883c-0.079,0.158-0.13,0.293-0.081,0.475c0.028,0.107-0.003,0.23-0.01,0.348
				c-0.005,0.066-0.042,0.146-0.019,0.203c0.16,0.408,0.043,0.814,0.007,1.223C3.978,54.74,3.954,55.01,4.036,55.23
				c0.125,0.336,0.198,0.646,0.066,0.992c-0.039,0.104-0.059,0.217-0.07,0.328c-0.02,0.191-0.022,0.373,0.198,0.479
				c0.073,0.035,0.111,0.139,0.168,0.209c0.057,0.068,0.106,0.162,0.18,0.199c0.392,0.199,0.549,0.543,0.647,0.947
				C5.278,58.602,5.363,58.834,5.503,59c0.117,0.137,0.214,0.258,0.255,0.436c0.02,0.084,0.119,0.146,0.17,0.227
				c0.087,0.137,0.166,0.281,0.245,0.422c0.04,0.072,0.062,0.154,0.113,0.219c0.209,0.254,0.246,0.531,0.14,0.842
				c-0.035,0.104-0.075,0.225-0.049,0.322c0.057,0.219,0.13,0.443,0.242,0.639c0.088,0.154,0.236,0.277,0.372,0.395
				c0.114,0.104,0.26,0.17,0.376,0.27c0.119,0.104,0.199,0.275,0.333,0.332c0.194,0.082,0.42,0.109,0.635,0.121
				c0.206,0.01,0.308,0.111,0.405,0.273c0.082,0.137,0.201,0.258,0.321,0.365c0.113,0.102,0.255,0.17,0.374,0.266
				c0.101,0.082,0.19,0.096,0.307,0.039c0.326-0.158,0.622-0.357,0.898-0.592c0.259-0.219,0.515-0.443,0.782-0.654
				c0.311-0.246,0.639-0.469,0.946-0.719c0.29-0.236,0.557-0.5,0.843-0.74c0.121-0.102,0.271-0.174,0.396-0.27
				c0.267-0.211,0.515-0.445,0.79-0.645c0.443-0.318,0.909-0.605,1.352-0.926c0.4-0.285,0.788-0.59,1.172-0.898
				c0.303-0.246,0.592-0.506,0.885-0.762c0.313-0.275,0.62-0.557,0.938-0.824c0.104-0.09,0.243-0.139,0.347-0.227
				c0.193-0.166,0.37-0.352,0.559-0.521c0.23-0.207,0.469-0.402,0.699-0.609c0.138-0.123,0.262-0.26,0.401-0.383
				c0.164-0.143,0.346-0.271,0.504-0.422c0.338-0.328,0.668-0.664,0.997-1.004c0.085-0.088,0.151-0.197,0.228-0.293
				c0.054-0.07,0.105-0.148,0.171-0.207c0.251-0.229,0.514-0.447,0.763-0.682c0.137-0.127,0.243-0.285,0.377-0.414
				c0.292-0.281,0.6-0.543,0.889-0.824c0.427-0.422,0.839-0.857,1.266-1.277c0.282-0.277,0.577-0.543,0.872-0.807
				c0.271-0.248,0.554-0.482,0.828-0.729c0.559-0.498,1.106-1.01,1.679-1.496c0.276-0.234,0.61-0.385,0.856-0.678
				c0.338-0.404,0.887-0.559,1.251-0.945c0.123-0.131,0.249-0.258,0.383-0.373c0.212-0.184,0.34-0.467,0.644-0.543
				c0.022-0.006,0.025-0.064,0.048-0.09c0.212-0.23,0.412-0.473,0.639-0.686c0.162-0.15,0.38-0.242,0.533-0.4
				c0.22-0.229,0.402-0.492,0.602-0.74c0.035-0.043,0.075-0.08,0.117-0.117c0.136-0.113,0.284-0.215,0.407-0.342
				c0.288-0.301,0.546-0.633,0.85-0.918c0.233-0.219,0.513-0.389,0.778-0.572c0.115-0.08,0.292-0.105,0.366-0.209
				c0.163-0.229,0.35-0.41,0.595-0.545c0.125-0.07,0.251-0.154,0.351-0.26c0.234-0.242,0.286-0.254,0.546-0.049
				c0.114,0.092,0.218,0.125,0.301-0.041c0.082-0.17,0.159-0.342,0.26-0.498c0.04-0.059,0.14-0.107,0.214-0.107
				c0.295-0.002,0.586,0.016,0.88,0.023c0.026,0.002,0.063,0,0.08-0.016c0.114-0.113,0.264-0.215,0.329-0.355
				c0.043-0.096-0.009-0.248-0.043-0.367c-0.046-0.166,0.015-0.373,0.148-0.387c0.172-0.021,0.246,0.1,0.283,0.248
				c0.02,0.074,0.043,0.146,0.074,0.256c0.057-0.07,0.097-0.098,0.103-0.133c0.028-0.164,0.129-0.205,0.286-0.209
				c0.24-0.006,0.3-0.127,0.211-0.354c-0.043-0.102-0.083-0.209-0.085-0.316c-0.003-0.102,0.025-0.205,0.193-0.148
				c0.218,0.074,0.314-0.021,0.36-0.252c0.018-0.1,0.068-0.205,0.138-0.279c0.134-0.145,0.288-0.271,0.466-0.434
				c0.217,0.02,0.365-0.037,0.371-0.24c0.012-0.289,0.194-0.406,0.392-0.541c0.103-0.072,0.165-0.1,0.223,0.041
				c0.018,0.041,0.071,0.066,0.108,0.1c0.031-0.035,0.063-0.07,0.089-0.107c0.046-0.076,0.08-0.16,0.131-0.232
				c0.074-0.098,0.206-0.178,0.234-0.285c0.077-0.297,0.148-0.582,0.466-0.721c0.04-0.018,0.063-0.074,0.098-0.107
				c0.174-0.162,0.349-0.32,0.522-0.484c0.049-0.043,0.104-0.092,0.132-0.148c0.111-0.23,0.214-0.467,0.325-0.697
				c0.026-0.053,0.083-0.09,0.117-0.141c0.058-0.09,0.157-0.186,0.154-0.273c-0.022-0.508,0.246-0.992,0.12-1.508
				c-0.014-0.059,0.031-0.133,0.043-0.203c0.043-0.242,0.061-0.48-0.071-0.713c-0.132-0.23-0.246-0.473-0.352-0.715
				c-0.028-0.068-0.02-0.176,0.018-0.244c0.074-0.156,0.008-0.211-0.123-0.266c-0.206-0.088-0.4-0.432-0.392-0.652
				c0.006-0.119,0.006-0.223-0.126-0.305c-0.22-0.139-0.451-0.285-0.62-0.479c-0.603-0.703-1.28-1.338-1.862-2.06
				c-0.392-0.481-0.832-0.923-1.246-1.383c-0.028-0.03-0.052-0.066-0.077-0.101c-0.188-0.252-0.369-0.511-0.565-0.756
				c-0.149-0.182-0.323-0.34-0.472-0.52c-0.289-0.348-0.563-0.706-0.852-1.056c-0.466-0.57-0.938-1.137-1.412-1.702
				c-0.082-0.102-0.187-0.187-0.281-0.279c-0.108-0.106-0.21-0.224-0.327-0.317c-0.27-0.213-0.553-0.411-0.822-0.625
				c-0.075-0.06-0.182-0.16-0.172-0.227c0.025-0.194-0.068-0.286-0.209-0.367c-0.097-0.058-0.194-0.132-0.303-0.158
				c-0.117-0.028-0.168-0.076-0.17-0.193c-0.001-0.173-0.078-0.3-0.225-0.404c-0.291-0.209-0.611-0.391-0.8-0.722
				c-0.031-0.053-0.114-0.076-0.168-0.118c-0.12-0.09-0.269-0.162-0.352-0.279c-0.246-0.353-0.552-0.64-0.892-0.898
				c-0.157-0.121-0.337-0.218-0.486-0.349c-0.423-0.372-0.834-0.759-1.251-1.136c-0.286-0.256-0.58-0.502-0.863-0.761
				c-0.352-0.321-0.689-0.653-1.04-0.975c-0.214-0.196-0.442-0.378-0.657-0.573c-0.087-0.079-0.151-0.183-0.235-0.265
				c-0.182-0.177-0.373-0.345-0.559-0.521c-0.203-0.191-0.401-0.388-0.601-0.582c-0.199-0.193-0.399-0.384-0.597-0.577
				c-0.031-0.029-0.055-0.067-0.089-0.089c-0.623-0.416-1.084-1.001-1.614-1.515c-0.254-0.244-0.523-0.47-0.789-0.702
				c-0.148-0.132-0.363-0.233-0.44-0.398c-0.126-0.266-0.329-0.449-0.516-0.647c-0.282-0.3-0.587-0.579-0.889-0.86
				c-0.325-0.304-0.571-0.699-1.009-0.875c-0.037-0.015-0.054-0.079-0.083-0.117c-0.153-0.199-0.269-0.462-0.468-0.581
				c-0.307-0.18-0.435-0.584-0.833-0.629c-0.011-0.001-0.02-0.019-0.029-0.029c-0.241-0.277-0.473-0.563-0.724-0.831
				c-0.368-0.39-0.746-0.77-1.125-1.149c-0.24-0.239-0.423-0.207-0.567,0.1c-0.069,0.146-0.159,0.239-0.332,0.241
				c-0.133,0-0.281-0.013-0.395,0.039c-0.302,0.138-0.546-0.039-0.699-0.203c-0.342-0.362-0.667-0.366-1.052-0.059
				c-0.025,0.271,0.232,0.349,0.345,0.524c0.055,0.086,0.109,0.277,0.075,0.302c-0.256,0.191-0.402,0.453-0.536,0.729
				c-0.02,0.04-0.073,0.066-0.115,0.092c-0.268,0.168-0.406,0.434-0.567,0.693c-0.117,0.188-0.309,0.344-0.495,0.473
				c-0.231,0.16-0.497,0.269-0.735,0.418c-0.08,0.049-0.119,0.161-0.188,0.233c-0.083,0.087-0.168,0.182-0.271,0.238
				c-0.19,0.102-0.395,0.174-0.592,0.264c-0.03,0.014-0.054,0.044-0.076,0.071c-0.222,0.269-0.445,0.539-0.666,0.811
				c-0.03,0.037-0.041,0.09-0.072,0.126c-0.065,0.075-0.126,0.176-0.211,0.211c-0.328,0.136-0.59,0.356-0.832,0.605
				C10.056,7.28,9.949,7.595,9.627,7.697c-0.03,0.009-0.05,0.048-0.079,0.066C9.359,7.886,9.219,8.09,8.962,8.107
				c-0.051,0.004-0.1,0.085-0.143,0.136c-0.13,0.15-0.24,0.325-0.391,0.452C8.118,8.956,7.859,9.232,7.875,9.677
				c0.003,0.117-0.06,0.234-0.057,0.351c0.004,0.161-0.008,0.358,0.076,0.475c0.246,0.338,0.529,0.65,0.812,0.959
				c0.425,0.463,0.866,0.91,1.295,1.37c0.146,0.156,0.266,0.338,0.417,0.49c0.1,0.1,0.243,0.157,0.347,0.254
				c0.144,0.132,0.264,0.288,0.402,0.426c0.438,0.441,0.88,0.876,1.318,1.317c0.457,0.459,0.91,0.923,1.365,1.384
				c0.078,0.079,0.157,0.157,0.239,0.233c0.224,0.208,0.453,0.41,0.673,0.622c0.198,0.191,0.39,0.392,0.581,0.591
				c0.235,0.245,0.473,0.483,0.754,0.681c0.173,0.122,0.301,0.306,0.457,0.454c0.306,0.293,0.622,0.575,0.923,0.872
				c0.367,0.362,0.715,0.745,1.085,1.102c0.33,0.321,0.681,0.62,1.02,0.932c0.616,0.568,1.23,1.14,1.845,1.71
				c0.354,0.327,0.711,0.652,1.065,0.979c0.2,0.185,0.393,0.376,0.596,0.558c0.264,0.238,0.55,0.455,0.801,0.707
				c0.566,0.568,1.12,1.148,1.673,1.729c0.335,0.354,0.667,0.711,0.996,1.072c0.18,0.197,0.183,0.281,0.007,0.49
				c-0.327,0.391-0.667,0.77-0.993,1.162c-0.085,0.105-0.137,0.238-0.203,0.359c0.02,0.016,0.042,0.029,0.062,0.043
				c0.25-0.117,0.475-0.27,0.658-0.488c0.26-0.312,0.417-0.705,0.788-0.936c0.148-0.094,0.226-0.104,0.333,0.008
				c0.073,0.076,0.142,0.156,0.207,0.238c0.123,0.16,0.126,0.322-0.014,0.477c-0.12,0.135-0.231,0.281-0.369,0.398
				c-0.097,0.082-0.231,0.168-0.352,0.168c-0.207,0.006-0.341,0.105-0.466,0.242c-0.191,0.213-0.365,0.445-0.571,0.643
				c-0.289,0.275-0.454,0.596-0.471,0.994c-0.003,0.086-0.029,0.193-0.084,0.25c-0.273,0.27-0.564,0.52-0.841,0.783
				c-0.168,0.158-0.329,0.326-0.5,0.498c0.337,0.125,0.28-0.287,0.511-0.303c0.099,0.154,0.043,0.244-0.094,0.344
				c-0.113,0.078-0.276,0.195-0.28,0.301c-0.012,0.301-0.117,0.51-0.352,0.695c-0.512,0.402-0.926,0.92-1.485,1.27
				c-0.123,0.078-0.235,0.174-0.343,0.273c-0.581,0.539-1.16,1.08-1.738,1.623c-0.229,0.213-0.479,0.416-0.669,0.66
				c-0.121,0.156-0.202,0.342-0.369,0.461c-0.169,0.119-0.327,0.266-0.515,0.338c-0.341,0.131-0.631,0.316-0.839,0.613
				c-0.031,0.045,0.013,0.143,0.023,0.215c0.077-0.027,0.159-0.047,0.23-0.084c0.037-0.02,0.054-0.105,0.081-0.105
				c0.292,0,0.431-0.229,0.606-0.402c0.103-0.102,0.21-0.117,0.337-0.002c-0.108,0.123-0.212,0.236-0.306,0.355
				c-0.095,0.119-0.185,0.244-0.267,0.373c-0.248,0.383-0.532,0.488-0.982,0.355c-0.07-0.201,0.258-0.324,0.122-0.545
				c-0.227,0.104-0.436,0.227-0.66,0.291c-0.254,0.072-0.521,0.09-0.783,0.129c-0.145,0.021-0.212,0.07-0.161,0.238
				c0.079,0.256,0.027,0.33-0.217,0.436c-0.371,0.16-0.742,0.324-1.108,0.498c-0.059,0.029-0.098,0.109-0.135,0.172
				c-0.077,0.133-0.137,0.271-0.222,0.396c-0.082,0.121-0.195,0.221-0.279,0.338c-0.368,0.521-0.747,1.021-1.321,1.352
				c-0.396,0.23-0.752,0.535-1.116,0.816c-0.473,0.367-0.935,0.748-1.404,1.121c-0.355,0.283-0.708,0.566-1.07,0.838
				c-0.552,0.416-1.106,0.828-1.667,1.23c-0.465,0.332-0.895,0.705-1.221,1.17c-0.165,0.236-0.33,0.436-0.575,0.592
				C5.327,50.422,5.224,50.443,5.099,50.27z M5.981,48.748c0-0.172,0-0.338,0-0.543C5.828,48.447,5.838,48.611,5.981,48.748z
				 M6.755,47.277c-0.011-0.021-0.022-0.043-0.033-0.064c-0.193-0.02-0.336,0.064-0.386,0.264
				C6.494,47.402,6.624,47.34,6.755,47.277z"/>
			<path fill-rule="evenodd" clip-rule="evenodd" fill="#A4FF62" stroke="#A4FF62" stroke-miterlimit="10" d="M5.099,50.27
				c0.125,0.174,0.229,0.152,0.385,0.057c0.245-0.156,0.41-0.355,0.575-0.592c0.326-0.465,0.755-0.838,1.221-1.17
				c0.561-0.402,1.115-0.814,1.667-1.23c0.362-0.271,0.715-0.555,1.07-0.838c0.469-0.373,0.931-0.754,1.404-1.121
				c0.364-0.281,0.719-0.586,1.116-0.816c0.574-0.33,0.953-0.83,1.321-1.352c0.083-0.117,0.197-0.217,0.279-0.338
				c0.085-0.125,0.145-0.264,0.222-0.396c0.037-0.062,0.076-0.143,0.135-0.172c0.366-0.174,0.737-0.338,1.108-0.498
				c0.245-0.105,0.296-0.18,0.217-0.436c-0.051-0.168,0.016-0.217,0.161-0.238c0.262-0.039,0.529-0.057,0.783-0.129
				c0.224-0.064,0.433-0.188,0.66-0.291c0.136,0.221-0.192,0.344-0.122,0.545c0.451,0.133,0.734,0.027,0.982-0.355
				c0.083-0.129,0.172-0.254,0.267-0.373c0.094-0.119,0.198-0.232,0.306-0.355c-0.127-0.115-0.234-0.1-0.337,0.002
				c-0.176,0.174-0.314,0.402-0.606,0.402c-0.027,0-0.044,0.086-0.081,0.105c-0.071,0.037-0.153,0.057-0.23,0.084
				c-0.01-0.072-0.054-0.17-0.023-0.215c0.208-0.297,0.498-0.482,0.839-0.613c0.188-0.072,0.346-0.219,0.515-0.338
				c0.167-0.119,0.249-0.305,0.369-0.461c0.191-0.244,0.44-0.447,0.669-0.66c0.578-0.543,1.157-1.084,1.738-1.623
				c0.107-0.1,0.22-0.195,0.343-0.273c0.56-0.35,0.974-0.867,1.485-1.27c0.234-0.186,0.34-0.395,0.352-0.695
				c0.004-0.105,0.167-0.223,0.28-0.301c0.137-0.1,0.193-0.189,0.094-0.344c-0.231,0.016-0.174,0.428-0.511,0.303
				c0.171-0.172,0.332-0.34,0.5-0.498c0.277-0.264,0.568-0.514,0.841-0.783c0.056-0.057,0.082-0.164,0.084-0.25
				c0.017-0.398,0.183-0.719,0.471-0.994c0.206-0.197,0.38-0.43,0.571-0.643c0.125-0.137,0.259-0.236,0.466-0.242
				c0.12,0,0.255-0.086,0.352-0.168c0.138-0.117,0.249-0.264,0.369-0.398c0.14-0.154,0.137-0.316,0.014-0.477
				c-0.065-0.082-0.134-0.162-0.207-0.238c-0.107-0.111-0.185-0.102-0.333-0.008c-0.371,0.23-0.528,0.623-0.788,0.936
				c-0.183,0.219-0.408,0.371-0.658,0.488c-0.021-0.014-0.042-0.027-0.062-0.043c0.065-0.121,0.117-0.254,0.203-0.359
				c0.326-0.393,0.666-0.771,0.993-1.162c0.176-0.209,0.173-0.293-0.007-0.49c-0.329-0.361-0.661-0.719-0.996-1.072
				c-0.553-0.58-1.107-1.16-1.673-1.729c-0.251-0.251-0.537-0.468-0.801-0.707c-0.203-0.182-0.396-0.373-0.596-0.558
				c-0.354-0.327-0.711-0.652-1.065-0.979c-0.615-0.57-1.229-1.143-1.845-1.71c-0.339-0.312-0.689-0.611-1.02-0.932
				c-0.37-0.357-0.718-0.74-1.085-1.102c-0.301-0.296-0.617-0.579-0.923-0.872c-0.156-0.148-0.284-0.332-0.457-0.454
				c-0.281-0.198-0.519-0.436-0.754-0.681c-0.191-0.199-0.382-0.399-0.581-0.591c-0.22-0.212-0.449-0.415-0.673-0.622
				c-0.082-0.076-0.161-0.154-0.239-0.233c-0.456-0.461-0.909-0.924-1.365-1.384c-0.438-0.441-0.881-0.876-1.318-1.317
				c-0.138-0.139-0.259-0.294-0.402-0.426c-0.104-0.097-0.247-0.154-0.347-0.254c-0.151-0.152-0.271-0.333-0.417-0.49
				c-0.429-0.459-0.87-0.907-1.295-1.37c-0.284-0.309-0.566-0.621-0.812-0.959c-0.084-0.117-0.071-0.314-0.076-0.475
				c-0.003-0.117,0.06-0.234,0.057-0.351C7.859,9.232,8.118,8.956,8.429,8.695c0.151-0.126,0.26-0.301,0.391-0.452
				c0.043-0.051,0.092-0.132,0.143-0.136C9.219,8.09,9.359,7.886,9.548,7.763c0.029-0.019,0.049-0.057,0.079-0.066
				c0.321-0.102,0.429-0.417,0.637-0.631c0.242-0.249,0.504-0.469,0.832-0.605c0.085-0.035,0.146-0.136,0.211-0.211
				c0.031-0.036,0.042-0.089,0.072-0.126c0.221-0.271,0.443-0.542,0.666-0.811c0.022-0.026,0.046-0.057,0.076-0.071
				c0.197-0.089,0.402-0.162,0.592-0.264c0.104-0.056,0.188-0.151,0.271-0.238c0.069-0.072,0.108-0.184,0.188-0.233
				c0.238-0.149,0.504-0.258,0.735-0.418c0.187-0.129,0.378-0.285,0.495-0.473c0.161-0.259,0.299-0.525,0.567-0.693
				c0.042-0.026,0.095-0.052,0.115-0.092c0.134-0.275,0.28-0.537,0.536-0.729c0.034-0.025-0.02-0.216-0.075-0.302
				c-0.112-0.175-0.37-0.253-0.345-0.524c0.385-0.307,0.709-0.304,1.052,0.059c0.153,0.164,0.397,0.34,0.699,0.203
				c0.114-0.052,0.262-0.039,0.395-0.039c0.173-0.001,0.263-0.094,0.332-0.241c0.144-0.306,0.327-0.339,0.567-0.1
				c0.379,0.379,0.757,0.759,1.125,1.149c0.251,0.268,0.483,0.554,0.724,0.831c0.009,0.011,0.019,0.028,0.029,0.029
				c0.397,0.045,0.526,0.449,0.833,0.629c0.2,0.119,0.315,0.382,0.468,0.581c0.029,0.039,0.046,0.102,0.083,0.117
				c0.438,0.176,0.684,0.571,1.009,0.875c0.301,0.281,0.607,0.56,0.889,0.86c0.187,0.199,0.39,0.381,0.516,0.647
				c0.077,0.165,0.292,0.266,0.44,0.398c0.266,0.232,0.534,0.458,0.789,0.702c0.53,0.514,0.991,1.1,1.614,1.515
				c0.034,0.022,0.058,0.06,0.089,0.089c0.197,0.193,0.397,0.384,0.597,0.577c0.199,0.193,0.397,0.39,0.601,0.582
				c0.186,0.176,0.377,0.344,0.559,0.521c0.084,0.082,0.148,0.186,0.235,0.265c0.215,0.195,0.443,0.377,0.657,0.573
				c0.351,0.322,0.688,0.654,1.04,0.975c0.283,0.258,0.577,0.504,0.863,0.761c0.417,0.377,0.828,0.764,1.251,1.136
				c0.149,0.131,0.329,0.229,0.486,0.349c0.34,0.258,0.646,0.545,0.892,0.898c0.083,0.117,0.231,0.189,0.352,0.279
				c0.054,0.042,0.137,0.064,0.168,0.118c0.188,0.332,0.509,0.513,0.8,0.722c0.146,0.104,0.224,0.231,0.225,0.404
				c0.002,0.117,0.053,0.166,0.17,0.193c0.108,0.026,0.206,0.1,0.303,0.158c0.141,0.081,0.234,0.173,0.209,0.367
				c-0.01,0.067,0.097,0.167,0.172,0.227c0.27,0.214,0.553,0.412,0.822,0.625c0.117,0.094,0.219,0.211,0.327,0.317
				c0.095,0.093,0.199,0.178,0.281,0.279c0.475,0.565,0.946,1.132,1.412,1.702c0.288,0.35,0.562,0.708,0.852,1.056
				c0.148,0.18,0.322,0.337,0.472,0.52c0.196,0.245,0.377,0.504,0.565,0.756c0.025,0.034,0.049,0.07,0.077,0.101
				c0.414,0.46,0.854,0.901,1.246,1.383c0.582,0.722,1.26,1.357,1.862,2.06c0.169,0.193,0.4,0.34,0.62,0.479
				c0.132,0.082,0.132,0.186,0.126,0.305c-0.009,0.221,0.186,0.564,0.392,0.652c0.131,0.055,0.197,0.109,0.123,0.266
				c-0.037,0.068-0.046,0.176-0.018,0.244c0.105,0.242,0.22,0.484,0.352,0.715c0.132,0.232,0.114,0.471,0.071,0.713
				c-0.012,0.07-0.057,0.145-0.043,0.203c0.126,0.516-0.143,1-0.12,1.508c0.003,0.088-0.097,0.184-0.154,0.273
				c-0.034,0.051-0.091,0.088-0.117,0.141c-0.111,0.23-0.214,0.467-0.325,0.697c-0.028,0.057-0.083,0.105-0.132,0.148
				c-0.174,0.164-0.349,0.322-0.522,0.484c-0.034,0.033-0.058,0.09-0.098,0.107c-0.317,0.139-0.389,0.424-0.466,0.721
				c-0.028,0.107-0.16,0.188-0.234,0.285c-0.051,0.072-0.085,0.156-0.131,0.232c-0.025,0.037-0.058,0.072-0.089,0.107
				c-0.037-0.033-0.091-0.059-0.108-0.1c-0.058-0.141-0.12-0.113-0.223-0.041c-0.197,0.135-0.38,0.252-0.392,0.541
				c-0.006,0.203-0.154,0.26-0.371,0.24c-0.178,0.162-0.332,0.289-0.466,0.434c-0.069,0.074-0.12,0.18-0.138,0.279
				c-0.046,0.23-0.143,0.326-0.36,0.252c-0.168-0.057-0.196,0.047-0.193,0.148c0.002,0.107,0.042,0.215,0.085,0.316
				c0.089,0.227,0.029,0.348-0.211,0.354c-0.157,0.004-0.258,0.045-0.286,0.209c-0.006,0.035-0.046,0.062-0.103,0.133
				c-0.031-0.109-0.055-0.182-0.074-0.256c-0.037-0.148-0.111-0.27-0.283-0.248c-0.134,0.014-0.194,0.221-0.148,0.387
				c0.034,0.119,0.086,0.271,0.043,0.367c-0.065,0.141-0.215,0.242-0.329,0.355c-0.017,0.016-0.054,0.018-0.08,0.016
				c-0.294-0.008-0.585-0.025-0.88-0.023c-0.074,0-0.174,0.049-0.214,0.107c-0.101,0.156-0.178,0.328-0.26,0.498
				c-0.083,0.166-0.187,0.133-0.301,0.041c-0.26-0.205-0.312-0.193-0.546,0.049c-0.1,0.105-0.226,0.189-0.351,0.26
				c-0.245,0.135-0.432,0.316-0.595,0.545c-0.074,0.104-0.251,0.129-0.366,0.209c-0.266,0.184-0.545,0.354-0.778,0.572
				c-0.304,0.285-0.562,0.617-0.85,0.918c-0.123,0.127-0.271,0.229-0.407,0.342c-0.042,0.037-0.082,0.074-0.117,0.117
				c-0.199,0.248-0.382,0.512-0.602,0.74c-0.153,0.158-0.371,0.25-0.533,0.4c-0.227,0.213-0.427,0.455-0.639,0.686
				c-0.022,0.025-0.025,0.084-0.048,0.09c-0.304,0.076-0.432,0.359-0.644,0.543c-0.134,0.115-0.26,0.242-0.383,0.373
				c-0.364,0.387-0.913,0.541-1.251,0.945c-0.246,0.293-0.58,0.443-0.856,0.678c-0.572,0.486-1.12,0.998-1.679,1.496
				c-0.274,0.246-0.557,0.48-0.828,0.729c-0.295,0.264-0.59,0.529-0.872,0.807c-0.427,0.42-0.839,0.855-1.266,1.277
				c-0.289,0.281-0.597,0.543-0.889,0.824c-0.134,0.129-0.24,0.287-0.377,0.414c-0.249,0.234-0.511,0.453-0.763,0.682
				c-0.066,0.059-0.117,0.137-0.171,0.207c-0.077,0.096-0.143,0.205-0.228,0.293c-0.329,0.34-0.659,0.676-0.997,1.004
				c-0.158,0.15-0.34,0.279-0.504,0.422c-0.139,0.123-0.263,0.26-0.401,0.383c-0.23,0.207-0.469,0.402-0.699,0.609
				c-0.189,0.17-0.366,0.355-0.559,0.521c-0.104,0.088-0.243,0.137-0.347,0.227c-0.317,0.268-0.625,0.549-0.938,0.824
				c-0.293,0.256-0.582,0.516-0.885,0.762c-0.384,0.309-0.771,0.613-1.172,0.898c-0.443,0.32-0.909,0.607-1.352,0.926
				c-0.275,0.199-0.523,0.434-0.79,0.645c-0.125,0.096-0.274,0.168-0.396,0.27c-0.286,0.24-0.553,0.504-0.843,0.74
				c-0.307,0.25-0.636,0.473-0.946,0.719c-0.267,0.211-0.523,0.436-0.782,0.654c-0.276,0.234-0.572,0.434-0.898,0.592
				c-0.117,0.057-0.207,0.043-0.307-0.039c-0.119-0.096-0.261-0.164-0.374-0.266c-0.12-0.107-0.239-0.229-0.321-0.365
				c-0.097-0.162-0.199-0.264-0.405-0.273c-0.215-0.012-0.44-0.039-0.635-0.121c-0.134-0.057-0.214-0.229-0.333-0.332
				c-0.116-0.1-0.262-0.166-0.376-0.27c-0.136-0.117-0.284-0.24-0.372-0.395c-0.112-0.195-0.185-0.42-0.242-0.639
				c-0.026-0.098,0.014-0.219,0.049-0.322c0.105-0.311,0.069-0.588-0.14-0.842c-0.051-0.064-0.073-0.146-0.113-0.219
				c-0.08-0.141-0.158-0.285-0.245-0.422c-0.051-0.08-0.15-0.143-0.17-0.227C5.717,59.258,5.62,59.137,5.503,59
				c-0.141-0.166-0.226-0.398-0.278-0.615c-0.098-0.404-0.255-0.748-0.647-0.947c-0.074-0.037-0.123-0.131-0.18-0.199
				c-0.057-0.07-0.096-0.174-0.168-0.209c-0.22-0.105-0.218-0.287-0.198-0.479c0.011-0.111,0.031-0.225,0.07-0.328
				c0.131-0.346,0.059-0.656-0.066-0.992c-0.082-0.221-0.058-0.49-0.037-0.736c0.037-0.408,0.153-0.814-0.007-1.223
				c-0.022-0.057,0.014-0.137,0.019-0.203c0.007-0.117,0.039-0.24,0.01-0.348c-0.049-0.182,0.002-0.316,0.081-0.475
				c0.154-0.309,0.358-0.588,0.527-0.883C4.826,51.018,4.885,50.631,5.099,50.27z"/>
			<path fill-rule="evenodd" clip-rule="evenodd" fill="#A4FF62" stroke="#A4FF62" stroke-miterlimit="10" d="M5.981,48.748
				c-0.144-0.137-0.153-0.301,0-0.543C5.981,48.41,5.981,48.576,5.981,48.748z"/>
			<path fill-rule="evenodd" clip-rule="evenodd" fill="#A4FF62" stroke="#A4FF62" stroke-miterlimit="10" d="M6.755,47.277
				c-0.131,0.062-0.261,0.125-0.418,0.199c0.049-0.199,0.193-0.283,0.386-0.264C6.733,47.234,6.744,47.256,6.755,47.277z"/>
		</g>
	</g>
</g>
</svg>
