<?xml version="1.0" encoding="utf-8"?>
<!-- Generator: Adobe Illustrator 16.0.0, SVG Export Plug-In . SVG Version: 6.00 Build 0)  -->
<!DOCTYPE svg PUBLIC "-//W3C//DTD SVG 1.1//EN" "http://www.w3.org/Graphics/SVG/1.1/DTD/svg11.dtd">
<svg version="1.1" id="Layer_1" xmlns="http://www.w3.org/2000/svg" xmlns:xlink="http://www.w3.org/1999/xlink" x="0px" y="0px"
	 width="50px" height="70.5px" viewBox="0 0 50 70.5" enable-background="new 0 0 50 70.5" xml:space="preserve">
<g id="BfhBZe_1_">
	<g>
		<g>
			<path fill="#A4FF62" stroke="#A4FF62" stroke-miterlimit="10" d="M7.275,45.909c-0.11,0.119-0.188,0.248-0.105,0.41
				c0.085,0.165,0.23,0.253,0.417,0.264c0.064,0.004,0.132,0.007,0.194-0.008c0.415-0.104,0.707,0.094,0.965,0.38
				c0.1,0.115,0.191,0.235,0.299,0.341c0.155,0.151,0.252,0.162,0.423,0.028c0.151-0.121,0.281-0.116,0.442-0.022
				c0.878,0.506,1.76,1.006,2.643,1.505c0.112,0.063,0.24,0.103,0.35,0.169c0.136,0.083,0.26,0.185,0.392,0.273
				c0.15,0.102,0.297,0.212,0.457,0.299c0.254,0.142,0.514,0.273,0.776,0.396c0.213,0.102,0.465,0.147,0.644,0.289
				c0.177,0.144,0.269,0.387,0.426,0.561c0.105,0.116,0.257,0.19,0.392,0.278c0.315,0.206,0.636,0.405,0.949,0.613
				c0.176,0.12,0.353,0.239,0.511,0.381c0.325,0.291,0.711,0.517,0.921,0.932c0.072,0.145,0.233,0.256,0.377,0.346
				c0.141,0.087,0.224,0.188,0.256,0.35c0.015,0.078,0.057,0.162,0.113,0.218c0.258,0.258,0.524,0.504,0.787,0.754
				c0.039,0.038,0.089,0.106,0.12,0.101c0.259-0.061,0.383,0.138,0.541,0.269c0.107,0.089,0.215,0.132,0.336,0.011
				c0.027,0.144,0.031,0.263,0.075,0.366c0.043,0.104,0.109,0.21,0.195,0.276c0.238,0.188,0.478,0.364,0.553,0.683
				c0.006,0.028,0.034,0.056,0.054,0.08c0.433,0.506,0.837,1.038,1.415,1.399c0.133,0.083,0.238,0.212,0.375,0.286
				c0.121,0.066,0.268,0.086,0.417,0.127c-0.096,0.334,0.217,0.501,0.409,0.711c0.251,0.278,0.566,0.498,0.822,0.771
				c0.432,0.462,0.955,0.794,1.469,1.146c0.3,0.205,0.551,0.48,0.834,0.711c0.425,0.346,0.862,0.676,1.287,1.021
				c0.35,0.283,0.689,0.577,1.032,0.871c0.488,0.419,0.978,0.836,1.461,1.26c0.136,0.12,0.255,0.072,0.42-0.031
				c-0.014,0.109-0.021,0.172-0.032,0.259c0.146,0.085,0.252,0.215,0.322,0.39c0.04,0.099,0.154,0.177,0.25,0.245
				c0.482,0.346,0.938,0.716,1.351,1.147c0.213,0.221,0.5,0.367,0.738,0.567c0.32,0.269,0.633,0.549,0.935,0.838
				c0.34,0.326,0.739,0.518,1.202,0.574c0.385,0.048,0.779-0.019,1.155,0.115c0.037,0.014,0.089,0.005,0.128-0.008
				c0.322-0.113,0.583,0.031,0.844,0.188c0.11,0.068,0.225,0.139,0.347,0.174c0.121,0.035,0.285,0.083,0.375,0.03
				c0.197-0.116,0.387-0.084,0.591-0.081c0.104,0.001,0.22-0.062,0.316-0.119c0.207-0.12,0.231-0.128,0.393,0.068
				c0.098,0.117,0.217,0.145,0.346,0.104c0.165-0.055,0.309-0.009,0.471,0.017c0.4,0.065,0.81,0.083,1.215,0.118
				c0.018,0.002,0.038-0.02,0.076-0.041c0.042-0.384,0.268-0.665,0.586-0.893c0.068-0.05,0.127-0.154,0.133-0.237
				c0.017-0.243,0.061-0.496-0.112-0.714c-0.03-0.037-0.027-0.099-0.043-0.161c0.124-0.081,0.235-0.165,0.356-0.23
				c0.181-0.097,0.34-0.195,0.418-0.415c0.035-0.099,0.189-0.175,0.304-0.218c0.2-0.073,0.324-0.205,0.405-0.393
				c0.026-0.06,0.047-0.124,0.088-0.172c0.134-0.162,0.134-0.329,0.058-0.516c-0.205-0.493-0.042-0.581,0.377-0.567
				c0.021,0,0.043-0.002,0.065-0.004c0.458-0.019,0.464-0.022,0.388-0.456c-0.054-0.304,0.045-0.574,0.152-0.864
				c0.061-0.019,0.131-0.046,0.202-0.062c0.463-0.11,0.647-0.328,0.7-0.789c0.014-0.119,0.071-0.251,0.151-0.339
				c0.119-0.131,0.173-0.255,0.149-0.436c-0.058-0.453,0.149-0.65,0.512-0.711c0.124-0.021,0.183-0.067,0.188-0.171
				c0.012-0.219,0.121-0.386,0.248-0.552c0.025-0.033,0.07-0.069,0.068-0.106c-0.004-0.302,0.072-0.63-0.049-0.903
				c-0.105-0.242-0.162-0.452-0.108-0.708c0.022-0.104-0.018-0.235-0.065-0.337c-0.154-0.328-0.142-0.479,0.12-0.711
				c0.125-0.111,0.155-0.212,0.077-0.366c-0.106-0.203-0.157-0.421-0.342-0.602c-0.245-0.235-0.537-0.388-0.795-0.595
				c-0.126-0.1-0.271-0.175-0.392-0.281c-0.524-0.463-1.037-0.938-1.632-1.315c-0.144-0.092-0.273-0.21-0.393-0.332
				c-0.333-0.343-0.721-0.612-1.105-0.891c-0.525-0.376-1.012-0.801-1.517-1.204c-0.074-0.061-0.147-0.128-0.23-0.179
				c-0.4-0.248-0.729-0.585-1.08-0.894c-0.42-0.369-0.89-0.681-1.338-1.019c-0.19-0.14-0.378-0.284-0.573-0.416
				c-0.106-0.073-0.228-0.123-0.378-0.201c0.03-0.175-0.146-0.283-0.296-0.395c-0.458-0.342-0.928-0.668-1.383-1.013
				c-0.42-0.318-0.828-0.654-1.24-0.981c-0.403-0.321-0.808-0.641-1.206-0.969c-0.141-0.116-0.271-0.246-0.397-0.379
				c-0.456-0.479-0.985-0.866-1.513-1.261c-0.181-0.134-0.333-0.306-0.509-0.449c-0.527-0.424-1.039-0.866-1.517-1.349
				c-0.174-0.173-0.395-0.299-0.59-0.451c-0.159-0.128-0.312-0.261-0.468-0.392c-0.519-0.44-1.019-0.905-1.56-1.313
				c-0.704-0.531-1.439-1.021-2.167-1.521c-0.204-0.14-0.429-0.251-0.64-0.38c-0.211-0.129-0.425-0.256-0.621-0.404
				c-0.262-0.198-0.304-0.405-0.187-0.714c0.072-0.191,0.125-0.392,0.209-0.577c0.076-0.164,0.159-0.335,0.279-0.466
				c0.192-0.209,0.335-0.439,0.471-0.689c0.287-0.53,0.591-1.057,0.942-1.545c0.322-0.447,0.5-0.953,0.735-1.437
				c0.331-0.678,0.677-1.351,1.132-1.96c0.226-0.303,0.427-0.623,0.641-0.934c0.416-0.604,0.838-1.205,1.25-1.812
				c0.31-0.454,0.604-0.92,0.91-1.377c0.521-0.781,1.049-1.558,1.569-2.338c0.646-0.969,1.366-1.887,1.974-2.885
				c0.381-0.625,0.841-1.203,1.262-1.804c0.285-0.407,0.58-0.808,0.843-1.229c0.198-0.319,0.351-0.669,0.529-1
				c0.371-0.69,0.897-1.267,1.375-1.88c0.516-0.666,1.02-1.339,1.532-2.007c0.433-0.565,0.851-1.145,1.311-1.688
				c0.408-0.481,0.648-1.041,0.87-1.615c0.157-0.408,0.026-0.786-0.159-1.15c-0.085-0.164-0.158-0.334-0.263-0.482
				c-0.315-0.446-0.655-0.871-1.265-0.902c-0.305-0.017-0.521-0.156-0.709-0.39c-0.14-0.172-0.322-0.314-0.497-0.456
				c-0.409-0.336-0.847-0.639-1.23-1c-0.427-0.403-0.918-0.69-1.454-0.89c-0.498-0.186-0.896-0.471-1.181-0.911
				c-0.266-0.41-0.604-0.727-1.058-0.922c-0.308-0.132-0.473-0.366-0.438-0.716c0.005-0.053,0-0.11-0.013-0.162
				c-0.039-0.15-0.151-0.206-0.262-0.103c-0.338,0.319-0.729,0.329-1.151,0.247c-0.438-0.085-0.819,0.066-1.142,0.339
				c-0.691,0.585-1.377,1.179-2.039,1.797c-0.354,0.329-0.659,0.713-0.98,1.076c-0.552,0.622-1.11,1.238-1.646,1.874
				c-0.536,0.635-1.04,1.295-1.569,1.934c-1.035,1.248-1.941,2.591-2.904,3.892c-0.205,0.278-0.437,0.538-0.621,0.827
				c-0.481,0.759-1.127,1.39-1.623,2.136c-0.287,0.43-0.594,0.848-0.901,1.264c-0.18,0.242-0.401,0.456-0.565,0.707
				c-0.248,0.381-0.494,0.76-0.811,1.088c-0.021,0.023-0.042,0.05-0.056,0.079c-0.401,0.835-1.041,1.507-1.544,2.273
				c-0.29,0.44-0.621,0.853-0.933,1.279c-0.045,0.061-0.098,0.119-0.125,0.188c-0.168,0.434-0.493,0.756-0.764,1.118
				c-0.556,0.742-1.113,1.484-1.662,2.231c-0.472,0.645-0.937,1.294-1.402,1.942c-0.571,0.797-1.142,1.595-1.708,2.396
				c-0.192,0.272-0.369,0.558-0.55,0.839c-0.422,0.651-0.839,1.307-1.267,1.955c-0.148,0.224-0.332,0.425-0.479,0.65
				c-0.267,0.403-0.51,0.824-0.782,1.227c-0.734,1.079-1.477,2.152-2.219,3.228c-0.478,0.692-0.964,1.371-1.292,2.16
				c-0.156,0.377-0.215,0.735-0.219,1.126c-0.002,0.229,0.088,0.384,0.305,0.436c0.228,0.056,0.36,0.177,0.39,0.414
				c0.02,0.16,0.131,0.225,0.279,0.271c0.463,0.15,0.592,0.343,0.585,0.832c0,0.055-0.003,0.11-0.005,0.162
				c-0.02,0.459-0.015,0.449,0.401,0.651c0.116,0.057,0.234,0.172,0.286,0.287c0.131,0.296,0.355,0.42,0.649,0.358
				c0.311-0.065,0.463,0.083,0.584,0.323c0.02,0.038,0.039,0.077,0.063,0.114c0.119,0.18,0.221,0.2,0.402,0.071
				c0.07-0.049,0.129-0.114,0.194-0.172c0.259-0.232,0.42-0.233,0.673-0.001c0.046,0.041,0.084,0.095,0.126,0.143
				C7.303,45.854,7.295,45.887,7.275,45.909z"/>
			<path fill-rule="evenodd" clip-rule="evenodd" fill="#A4FF62" stroke="#A4FF62" stroke-miterlimit="10" d="M7.195,45.674
				c-0.253-0.232-0.414-0.231-0.673,0.001c-0.064,0.058-0.124,0.123-0.194,0.172c-0.182,0.129-0.283,0.108-0.402-0.071
				c-0.024-0.037-0.043-0.076-0.063-0.114c-0.121-0.24-0.273-0.389-0.584-0.323c-0.294,0.062-0.518-0.062-0.649-0.358
				c-0.052-0.115-0.17-0.23-0.286-0.287C3.928,44.49,3.923,44.5,3.943,44.041c0.002-0.052,0.005-0.107,0.005-0.162
				c0.007-0.489-0.122-0.682-0.585-0.832C3.215,43,3.104,42.936,3.084,42.775c-0.029-0.237-0.162-0.358-0.39-0.414
				c-0.216-0.052-0.307-0.206-0.305-0.436c0.004-0.391,0.063-0.749,0.219-1.126c0.329-0.789,0.814-1.468,1.292-2.16
				c0.742-1.075,1.485-2.148,2.219-3.228c0.272-0.402,0.515-0.823,0.782-1.227c0.148-0.226,0.332-0.427,0.479-0.65
				c0.428-0.648,0.845-1.304,1.267-1.955c0.181-0.281,0.358-0.566,0.55-0.839c0.566-0.802,1.137-1.6,1.708-2.396
				c0.465-0.648,0.93-1.298,1.402-1.942c0.549-0.747,1.105-1.489,1.662-2.231c0.271-0.362,0.596-0.685,0.764-1.118
				c0.027-0.069,0.08-0.128,0.125-0.188c0.312-0.426,0.643-0.838,0.933-1.279c0.503-0.766,1.143-1.438,1.544-2.273
				c0.013-0.029,0.034-0.056,0.056-0.079c0.317-0.328,0.563-0.708,0.811-1.088c0.164-0.251,0.386-0.465,0.565-0.707
				c0.308-0.416,0.614-0.833,0.901-1.264c0.496-0.746,1.142-1.377,1.623-2.136c0.185-0.29,0.416-0.549,0.621-0.827
				c0.962-1.301,1.869-2.644,2.904-3.892c0.529-0.639,1.034-1.299,1.569-1.934c0.535-0.635,1.094-1.252,1.646-1.874
				c0.321-0.363,0.626-0.747,0.98-1.076c0.662-0.618,1.348-1.212,2.039-1.797c0.322-0.273,0.704-0.424,1.142-0.339
				c0.422,0.083,0.813,0.072,1.151-0.247c0.11-0.104,0.223-0.048,0.262,0.103c0.013,0.052,0.018,0.108,0.013,0.162
				c-0.035,0.35,0.13,0.583,0.438,0.716c0.454,0.195,0.792,0.512,1.058,0.922c0.285,0.44,0.683,0.725,1.181,0.911
				c0.536,0.2,1.027,0.487,1.454,0.89c0.384,0.362,0.821,0.665,1.23,1c0.175,0.142,0.357,0.284,0.497,0.456
				c0.188,0.234,0.404,0.373,0.709,0.39c0.609,0.031,0.949,0.456,1.265,0.902c0.104,0.148,0.178,0.319,0.263,0.482
				c0.186,0.364,0.316,0.742,0.159,1.15c-0.222,0.575-0.462,1.134-0.87,1.615c-0.46,0.543-0.878,1.122-1.311,1.688
				c-0.513,0.668-1.017,1.342-1.532,2.007c-0.478,0.613-1.004,1.19-1.375,1.88c-0.179,0.332-0.331,0.681-0.529,1
				c-0.263,0.421-0.558,0.822-0.843,1.229c-0.421,0.601-0.881,1.179-1.262,1.804c-0.607,0.999-1.327,1.916-1.974,2.885
				c-0.521,0.78-1.048,1.557-1.569,2.338c-0.306,0.457-0.601,0.923-0.91,1.377c-0.412,0.606-0.834,1.207-1.25,1.812
				c-0.214,0.311-0.415,0.631-0.641,0.934c-0.455,0.609-0.801,1.282-1.132,1.96c-0.235,0.483-0.413,0.989-0.735,1.437
				c-0.351,0.488-0.655,1.015-0.942,1.545c-0.136,0.25-0.278,0.48-0.471,0.689c-0.12,0.131-0.204,0.302-0.279,0.466
				c-0.084,0.186-0.137,0.386-0.209,0.577c-0.117,0.309-0.075,0.516,0.187,0.714c0.196,0.148,0.41,0.275,0.621,0.404
				c0.211,0.129,0.437,0.24,0.64,0.38c0.728,0.5,1.463,0.99,2.167,1.521c0.541,0.408,1.041,0.873,1.56,1.313
				c0.155,0.131,0.309,0.264,0.468,0.392c0.195,0.152,0.416,0.278,0.59,0.451c0.478,0.482,0.989,0.925,1.517,1.349
				c0.176,0.144,0.328,0.315,0.509,0.449c0.527,0.395,1.057,0.782,1.513,1.261c0.127,0.133,0.257,0.263,0.397,0.379
				c0.398,0.328,0.803,0.647,1.206,0.969c0.412,0.327,0.82,0.663,1.24,0.981c0.455,0.345,0.925,0.671,1.383,1.013
				c0.15,0.111,0.326,0.22,0.296,0.395c0.15,0.078,0.271,0.128,0.378,0.201c0.195,0.132,0.383,0.276,0.573,0.416
				c0.448,0.338,0.918,0.649,1.338,1.019c0.352,0.309,0.68,0.646,1.08,0.894c0.083,0.051,0.156,0.118,0.23,0.179
				c0.505,0.403,0.991,0.828,1.517,1.204c0.385,0.278,0.772,0.548,1.105,0.891c0.119,0.122,0.249,0.24,0.393,0.332
				c0.595,0.377,1.107,0.853,1.632,1.315c0.121,0.106,0.266,0.182,0.392,0.281c0.258,0.207,0.55,0.359,0.795,0.595
				c0.185,0.181,0.235,0.398,0.342,0.602c0.078,0.154,0.048,0.255-0.077,0.366c-0.262,0.232-0.274,0.383-0.12,0.711
				c0.048,0.102,0.088,0.233,0.065,0.337c-0.054,0.256,0.003,0.466,0.108,0.708c0.121,0.273,0.045,0.602,0.049,0.903
				c0.002,0.037-0.043,0.073-0.068,0.106c-0.127,0.166-0.236,0.333-0.248,0.552c-0.005,0.104-0.063,0.15-0.188,0.171
				c-0.362,0.061-0.569,0.258-0.512,0.711c0.023,0.181-0.03,0.305-0.149,0.436c-0.08,0.088-0.138,0.22-0.151,0.339
				c-0.053,0.461-0.237,0.679-0.7,0.789c-0.071,0.016-0.142,0.043-0.202,0.062c-0.107,0.29-0.206,0.561-0.152,0.864
				c0.076,0.434,0.07,0.438-0.388,0.456c-0.022,0.002-0.045,0.004-0.065,0.004c-0.419-0.014-0.582,0.074-0.377,0.567
				c0.076,0.187,0.076,0.354-0.058,0.516c-0.041,0.048-0.062,0.112-0.088,0.172c-0.081,0.188-0.205,0.319-0.405,0.393
				c-0.114,0.043-0.269,0.119-0.304,0.218c-0.078,0.22-0.237,0.318-0.418,0.415c-0.121,0.065-0.232,0.149-0.356,0.23
				c0.016,0.062,0.013,0.124,0.043,0.161c0.173,0.218,0.129,0.471,0.112,0.714c-0.006,0.083-0.064,0.188-0.133,0.237
				c-0.318,0.228-0.544,0.509-0.586,0.893c-0.038,0.021-0.059,0.043-0.076,0.041c-0.405-0.035-0.814-0.053-1.215-0.118
				c-0.162-0.025-0.306-0.071-0.471-0.017c-0.129,0.041-0.248,0.014-0.346-0.104c-0.161-0.196-0.186-0.188-0.393-0.068
				c-0.097,0.057-0.212,0.12-0.316,0.119c-0.204-0.003-0.394-0.035-0.591,0.081c-0.09,0.053-0.254,0.005-0.375-0.03
				c-0.122-0.035-0.236-0.105-0.347-0.174c-0.261-0.157-0.521-0.302-0.844-0.188c-0.039,0.013-0.091,0.021-0.128,0.008
				c-0.376-0.134-0.771-0.067-1.155-0.115c-0.463-0.057-0.862-0.248-1.202-0.574c-0.302-0.289-0.614-0.569-0.935-0.838
				c-0.238-0.2-0.525-0.347-0.738-0.567c-0.412-0.432-0.868-0.802-1.351-1.147c-0.096-0.068-0.21-0.146-0.25-0.245
				c-0.07-0.175-0.177-0.305-0.322-0.39c0.011-0.087,0.019-0.149,0.032-0.259c-0.165,0.104-0.284,0.151-0.42,0.031
				c-0.483-0.424-0.973-0.841-1.461-1.26c-0.343-0.294-0.683-0.588-1.032-0.871c-0.425-0.346-0.862-0.676-1.287-1.021
				c-0.283-0.23-0.534-0.506-0.834-0.711c-0.515-0.352-1.038-0.684-1.469-1.146c-0.256-0.273-0.571-0.493-0.822-0.771
				c-0.192-0.21-0.505-0.377-0.409-0.711c-0.148-0.041-0.296-0.061-0.417-0.127c-0.136-0.074-0.242-0.203-0.375-0.286
				c-0.578-0.361-0.982-0.894-1.415-1.399c-0.021-0.024-0.048-0.052-0.054-0.08c-0.075-0.318-0.315-0.494-0.553-0.683
				c-0.086-0.066-0.152-0.173-0.195-0.276c-0.044-0.104-0.048-0.223-0.075-0.366c-0.121,0.121-0.229,0.078-0.336-0.011
				c-0.157-0.131-0.281-0.329-0.541-0.269c-0.03,0.006-0.081-0.062-0.12-0.101c-0.263-0.25-0.529-0.496-0.787-0.754
				c-0.056-0.056-0.098-0.14-0.113-0.218c-0.033-0.161-0.116-0.263-0.256-0.35c-0.144-0.09-0.305-0.201-0.377-0.346
				c-0.21-0.415-0.596-0.641-0.921-0.932c-0.158-0.142-0.335-0.261-0.511-0.381c-0.313-0.208-0.634-0.407-0.949-0.613
				c-0.135-0.088-0.287-0.162-0.392-0.278c-0.157-0.174-0.249-0.417-0.426-0.561c-0.178-0.142-0.43-0.188-0.644-0.289
				c-0.262-0.123-0.521-0.255-0.776-0.396c-0.159-0.087-0.306-0.197-0.457-0.299c-0.131-0.089-0.255-0.19-0.392-0.273
				c-0.109-0.066-0.238-0.105-0.35-0.169c-0.883-0.499-1.765-0.999-2.643-1.505c-0.161-0.094-0.291-0.099-0.442,0.022
				c-0.171,0.134-0.268,0.123-0.423-0.028c-0.108-0.105-0.199-0.226-0.299-0.341c-0.258-0.286-0.55-0.484-0.965-0.38
				c-0.062,0.015-0.129,0.012-0.194,0.008c-0.187-0.011-0.333-0.099-0.417-0.264c-0.083-0.162-0.005-0.291,0.105-0.41
				c0.02-0.022,0.028-0.055,0.046-0.093C7.279,45.769,7.241,45.715,7.195,45.674z M14.032,49.1c0.083,0.226,0.083,0.226,0.312,0.242
				c0.01-0.021,0.021-0.042,0.032-0.061C14.272,49.227,14.17,49.173,14.032,49.1z M14.785,49.727
				c0.008-0.214-0.095-0.225-0.189-0.243c-0.019,0.021-0.037,0.044-0.056,0.066C14.609,49.599,14.676,49.646,14.785,49.727z
				 M23.432,57.681c-0.09-0.145-0.09-0.145-0.285-0.213C23.203,57.579,23.251,57.71,23.432,57.681z M15.234,49.955
				c-0.029-0.17-0.109-0.173-0.192-0.172c-0.01,0.024-0.021,0.048-0.032,0.072C15.072,49.884,15.134,49.911,15.234,49.955z
				 M16.166,50.602c-0.005,0-0.031,0.041-0.028,0.044c0.041,0.04,0.086,0.076,0.13,0.114c0.019-0.031,0.038-0.063,0.057-0.095
				C16.272,50.643,16.22,50.62,16.166,50.602z M16.983,51.189c-0.01,0.018-0.021,0.035-0.03,0.055
				c0.047,0.03,0.094,0.059,0.141,0.089c0.011-0.029,0.022-0.056,0.033-0.085C17.079,51.229,17.031,51.209,16.983,51.189z
				 M23.765,58.064c0.005,0.001,0.037-0.05,0.032-0.068c-0.007-0.024-0.042-0.048-0.065-0.051c-0.019-0.002-0.041,0.028-0.086,0.063
				C23.7,58.035,23.731,58.055,23.765,58.064z"/>
			<path fill-rule="evenodd" clip-rule="evenodd" fill="#A4FF62" stroke="#A4FF62" stroke-miterlimit="10" d="M14.375,49.281
				c-0.103-0.055-0.206-0.108-0.343-0.182c0.083,0.226,0.083,0.226,0.312,0.242C14.354,49.32,14.365,49.3,14.375,49.281z"/>
			<path fill-rule="evenodd" clip-rule="evenodd" fill="#A4FF62" stroke="#A4FF62" stroke-miterlimit="10" d="M14.541,49.55
				c0.068,0.049,0.136,0.097,0.245,0.177c0.008-0.214-0.095-0.225-0.189-0.243C14.578,49.505,14.56,49.527,14.541,49.55z"/>
			<path fill-rule="evenodd" clip-rule="evenodd" fill="#A4FF62" stroke="#A4FF62" stroke-miterlimit="10" d="M23.146,57.468
				c0.056,0.111,0.105,0.242,0.285,0.213C23.341,57.536,23.341,57.536,23.146,57.468z"/>
			<path fill-rule="evenodd" clip-rule="evenodd" fill="#A4FF62" stroke="#A4FF62" stroke-miterlimit="10" d="M15.01,49.855
				c0.062,0.028,0.125,0.056,0.224,0.1c-0.029-0.17-0.109-0.173-0.192-0.172C15.032,49.808,15.021,49.831,15.01,49.855z"/>
			<path fill-rule="evenodd" clip-rule="evenodd" fill="#A4FF62" stroke="#A4FF62" stroke-miterlimit="10" d="M16.326,50.665
				c-0.053-0.022-0.105-0.045-0.16-0.063c-0.005,0-0.031,0.041-0.028,0.044c0.041,0.04,0.086,0.076,0.13,0.114
				C16.288,50.729,16.307,50.696,16.326,50.665z"/>
			<path fill-rule="evenodd" clip-rule="evenodd" fill="#A4FF62" stroke="#A4FF62" stroke-miterlimit="10" d="M17.127,51.248
				c-0.048-0.019-0.096-0.039-0.144-0.059c-0.01,0.018-0.021,0.035-0.03,0.055c0.047,0.03,0.094,0.059,0.141,0.089
				C17.105,51.304,17.116,51.277,17.127,51.248z"/>
			<path fill-rule="evenodd" clip-rule="evenodd" fill="#A4FF62" stroke="#A4FF62" stroke-miterlimit="10" d="M23.646,58.009
				c0.054,0.026,0.085,0.046,0.12,0.056c0.005,0.001,0.037-0.05,0.032-0.068c-0.007-0.024-0.042-0.048-0.065-0.051
				C23.712,57.943,23.69,57.974,23.646,58.009z"/>
		</g>
	</g>
</g>
</svg>
