<?xml version="1.0" encoding="utf-8"?>
<!-- Generator: Adobe Illustrator 16.0.0, SVG Export Plug-In . SVG Version: 6.00 Build 0)  -->
<!DOCTYPE svg PUBLIC "-//W3C//DTD SVG 1.1//EN" "http://www.w3.org/Graphics/SVG/1.1/DTD/svg11.dtd">
<svg version="1.1" id="Layer_1" xmlns="http://www.w3.org/2000/svg" xmlns:xlink="http://www.w3.org/1999/xlink" x="0px" y="0px"
	 width="40px" height="auto" viewBox="0 0 51.657 44.429" enable-background="new 0 0 51.657 44.429" xml:space="preserve">
<g id="shWP9L_1_">
	<g>
		<path fill="#A4FF62" d="M1.098,18.079c0.059,0.106,0.169,0.284,0.256,0.472c0.119,0.254,0.223,0.515,0.326,0.776
			c0.035,0.087,0.027,0.195,0.071,0.275c0.264,0.481,0.515,0.971,0.813,1.431c0.247,0.381,0.245,0.952,0.81,1.106
			c0.038,0.01,0.051,0.103,0.082,0.154c0.091,0.153,0.162,0.328,0.282,0.453c0.542,0.565,1.072,1.148,1.661,1.661
			c0.418,0.364,0.897,0.686,1.399,0.918c0.693,0.321,1.433,0.544,2.155,0.802c0.431,0.153,0.84,0.407,1.331,0.31
			c0.034-0.006,0.074,0.005,0.108,0.016c0.729,0.226,1.47,0.19,2.211,0.095c0.435-0.056,0.866-0.143,1.297-0.229
			c0.199-0.04,0.394-0.103,0.587-0.168c0.195-0.066,0.379-0.167,0.577-0.218c0.564-0.142,1.097-0.326,1.527-0.752
			c0.21-0.208,0.473-0.366,0.717-0.539c0.088-0.063,0.197-0.098,0.29-0.155c0.613-0.378,1.237-0.473,1.901-0.123
			c0.2,0.105,0.424,0.169,0.644,0.231c0.277,0.078,0.577,0.095,0.837,0.208c0.338,0.148,0.642,0.373,0.97,0.549
			c0.235,0.126,0.522,0.181,0.721,0.346c0.353,0.293,0.806,0.389,1.153,0.728c0.297,0.289,0.774,0.401,1.024,0.797
			c0.034,0.054,0.124,0.073,0.187,0.11c0.684,0.394,1.38,0.769,2.047,1.19c0.427,0.27,0.811,0.607,1.211,0.916
			c0.191,0.146,0.356,0.379,0.569,0.433c0.736,0.187,1.334,0.555,1.802,1.148c0.042,0.053,0.125,0.072,0.185,0.114
			c0.169,0.117,0.33,0.248,0.505,0.353c0.245,0.147,0.503,0.271,0.75,0.415c0.132,0.078,0.262,0.164,0.377,0.264
			c0.302,0.263,0.592,0.54,0.895,0.802c0.229,0.199,0.47,0.383,0.704,0.576c0.093,0.077,0.181,0.159,0.27,0.24
			c0.526,0.475,1.225,0.691,1.708,1.271c0.314,0.378,0.853,0.588,1.254,0.932c0.264,0.226,0.57,0.4,0.857,0.598
			c0.091,0.062,0.173,0.145,0.272,0.187c0.467,0.198,0.83,0.492,1.062,0.962c0.083,0.17,0.268,0.311,0.437,0.414
			c0.353,0.215,0.743,0.371,1.087,0.599c0.35,0.231,0.522,0.71,1.025,0.738c0.021,0.001,0.041,0.026,0.06,0.041
			c0.44,0.34,0.875,0.687,1.321,1.02c0.667,0.499,1.465,0.791,1.958,1.567c0.284,0.447,0.872,0.702,1.329,1.037
			c0.106,0.078,0.227,0.149,0.351,0.189c0.437,0.142,0.927,0.458,1.309,0.361c0.691-0.174,1.359-0.539,1.813-1.158
			c0.149-0.204,0.352-0.399,0.416-0.63c0.214-0.774-0.038-1.537-0.347-2.201c-0.353-0.758-0.939-1.409-1.426-2.104
			c-0.02-0.028-0.053-0.05-0.083-0.069c-0.354-0.208-0.701-0.428-1.065-0.615c-0.284-0.146-0.593-0.244-0.887-0.371
			c-0.153-0.066-0.314-0.13-0.445-0.23c-0.374-0.287-0.715-0.622-1.105-0.883c-0.578-0.388-1.302-0.556-1.735-1.165
			c-0.04-0.055-0.125-0.075-0.183-0.119c-0.347-0.263-0.701-0.518-1.035-0.795c-0.395-0.327-0.587-0.9-1.196-0.97
			c-0.045-0.005-0.11-0.102-0.114-0.159c-0.015-0.219-0.122-0.294-0.334-0.299c-0.095-0.001-0.217-0.062-0.277-0.137
			c-0.425-0.523-1.024-0.803-1.578-1.142c-0.322-0.197-0.684-0.331-0.997-0.541c-0.392-0.264-0.741-0.592-1.131-0.86
			c-0.181-0.125-0.44-0.137-0.618-0.265c-0.445-0.317-0.862-0.673-1.293-1.009c-0.448-0.349-0.883-0.717-1.354-1.033
			c-0.686-0.46-1.402-0.875-2.099-1.32c-0.911-0.583-1.819-1.169-2.72-1.767c-0.697-0.463-1.38-0.947-2.071-1.418
			c-0.11-0.075-0.231-0.132-0.346-0.2c-0.315-0.187-0.636-0.365-0.941-0.566c-0.443-0.293-0.852-0.647-1.317-0.896
			c-0.921-0.493-1.068-0.831-0.235-1.571c0.019-0.016,0.04-0.029,0.056-0.047c0.319-0.368,0.606-0.771,0.965-1.095
			c0.334-0.301,0.355-0.725,0.531-1.081c0.164-0.333,0.235-0.757,0.203-1.128c-0.045-0.531-0.18-1.052-0.029-1.586
			c0.022-0.079,0.01-0.169,0.005-0.253c-0.035-0.646-0.141-1.293,0.081-1.928c0.021-0.06,0.013-0.157-0.023-0.206
			c-0.259-0.351-0.222-0.756-0.254-1.159c-0.029-0.369,0.123-0.773-0.2-1.106c-0.139-0.144-0.247-0.346-0.298-0.54
			c-0.122-0.453-0.278-0.87-0.544-1.272c-0.166-0.25-0.318-0.525-0.47-0.79c-0.287-0.501-0.402-1.102-0.694-1.599
			c-0.396-0.674-0.857-1.316-1.356-1.918c-0.32-0.386-0.753-0.68-1.144-1.005c-0.212-0.176-0.423-0.367-0.667-0.486
			c-0.35-0.171-0.727-0.291-1.097-0.418c-0.205-0.071-0.416-0.139-0.629-0.164c-0.837-0.097-1.674-0.215-2.514-0.253
			c-1.026-0.047-2.062-0.099-3.082-0.008c-1.336,0.12-2.659,0.396-3.991,0.568C7.933,1.809,7.519,2.214,7.011,2.439
			C6.667,2.592,6.345,2.844,6.079,3.116C5.683,3.52,5.319,3.962,4.994,4.425C4.837,4.647,4.81,4.958,4.708,5.222
			C4.67,5.319,4.601,5.415,4.521,5.483C3.935,5.99,3.475,6.598,3.091,7.266c-0.106,0.183-0.172,0.39-0.277,0.573
			C2.585,8.238,2.292,8.609,2.116,9.029c-0.283,0.674-0.525,1.37-0.723,2.074c-0.13,0.465-0.414,0.882-0.354,1.421
			c0.046,0.418-0.078,0.855-0.124,1.285c-0.031,0.287-0.065,0.573-0.085,0.861c-0.025,0.358-0.039,0.717-0.052,1.076
			c-0.006,0.138-0.036,0.29,0.008,0.412C1,16.742,1.216,17.323,1.098,18.079z"/>
		<path fill="#A4FF62" fill-rule="evenodd" clip-rule="evenodd" d="M1.098,18.079C1.216,17.323,1,16.742,0.787,16.157
			c-0.044-0.122-0.014-0.274-0.008-0.412c0.014-0.359,0.027-0.718,0.052-1.076c0.02-0.288,0.054-0.574,0.085-0.861
			c0.046-0.429,0.169-0.866,0.124-1.285c-0.06-0.539,0.224-0.956,0.354-1.421c0.198-0.704,0.44-1.399,0.723-2.074
			c0.176-0.42,0.469-0.792,0.698-1.191c0.105-0.183,0.171-0.39,0.277-0.573C3.475,6.598,3.935,5.99,4.521,5.483
			C4.601,5.415,4.67,5.319,4.708,5.222c0.102-0.264,0.13-0.574,0.287-0.796C5.319,3.962,5.683,3.52,6.079,3.116
			c0.266-0.272,0.587-0.524,0.932-0.677c0.508-0.226,0.922-0.631,1.513-0.708c1.333-0.172,2.655-0.448,3.991-0.568
			c1.019-0.091,2.055-0.039,3.082,0.008c0.84,0.038,1.677,0.156,2.514,0.253c0.213,0.025,0.424,0.093,0.629,0.164
			c0.37,0.127,0.747,0.247,1.097,0.418c0.244,0.119,0.455,0.31,0.667,0.486c0.391,0.325,0.824,0.619,1.144,1.005
			c0.499,0.602,0.96,1.244,1.356,1.918c0.292,0.497,0.407,1.098,0.694,1.599c0.151,0.265,0.304,0.539,0.47,0.79
			c0.266,0.402,0.422,0.819,0.544,1.272c0.052,0.194,0.159,0.396,0.298,0.54c0.323,0.333,0.171,0.737,0.2,1.106
			c0.032,0.402-0.005,0.808,0.254,1.159c0.036,0.049,0.044,0.146,0.023,0.206c-0.222,0.635-0.116,1.283-0.081,1.928
			c0.005,0.084,0.018,0.175-0.005,0.253c-0.15,0.534-0.016,1.055,0.029,1.586c0.032,0.372-0.039,0.796-0.203,1.128
			c-0.175,0.356-0.197,0.78-0.531,1.081c-0.359,0.323-0.646,0.727-0.965,1.095c-0.016,0.018-0.038,0.031-0.056,0.047
			c-0.833,0.741-0.687,1.079,0.235,1.571c0.465,0.249,0.874,0.603,1.317,0.896c0.305,0.201,0.626,0.379,0.941,0.566
			c0.114,0.068,0.236,0.125,0.346,0.2c0.691,0.472,1.374,0.956,2.071,1.418c0.901,0.598,1.81,1.185,2.72,1.767
			c0.696,0.445,1.413,0.86,2.099,1.32c0.471,0.315,0.906,0.684,1.354,1.033c0.431,0.335,0.848,0.692,1.293,1.009
			c0.178,0.127,0.438,0.14,0.618,0.265c0.39,0.268,0.739,0.597,1.131,0.86c0.312,0.21,0.674,0.344,0.997,0.541
			c0.554,0.339,1.153,0.619,1.578,1.142c0.06,0.074,0.182,0.135,0.277,0.137c0.212,0.005,0.319,0.08,0.334,0.299
			c0.003,0.058,0.069,0.154,0.114,0.159c0.609,0.07,0.802,0.643,1.196,0.97c0.334,0.278,0.688,0.532,1.035,0.795
			c0.058,0.044,0.144,0.064,0.183,0.119c0.433,0.609,1.157,0.776,1.735,1.165c0.39,0.262,0.731,0.596,1.105,0.883
			c0.131,0.1,0.292,0.164,0.445,0.23c0.294,0.127,0.603,0.226,0.887,0.371c0.365,0.187,0.711,0.407,1.065,0.615
			c0.031,0.019,0.063,0.041,0.083,0.069c0.486,0.696,1.073,1.346,1.426,2.104c0.309,0.664,0.561,1.427,0.347,2.201
			c-0.064,0.231-0.267,0.426-0.416,0.63c-0.454,0.62-1.122,0.984-1.813,1.158c-0.382,0.097-0.872-0.219-1.309-0.361
			c-0.124-0.041-0.244-0.111-0.351-0.189c-0.457-0.335-1.044-0.59-1.329-1.037c-0.492-0.776-1.291-1.068-1.958-1.567
			c-0.446-0.333-0.881-0.68-1.321-1.02c-0.02-0.015-0.04-0.04-0.06-0.041c-0.502-0.027-0.675-0.507-1.025-0.738
			c-0.344-0.228-0.734-0.384-1.087-0.599c-0.169-0.103-0.354-0.244-0.437-0.414c-0.231-0.47-0.594-0.765-1.062-0.962
			c-0.099-0.042-0.181-0.124-0.272-0.187c-0.287-0.198-0.594-0.373-0.857-0.598c-0.401-0.343-0.939-0.554-1.254-0.932
			c-0.483-0.58-1.182-0.796-1.708-1.271c-0.089-0.081-0.177-0.163-0.27-0.24c-0.234-0.193-0.476-0.377-0.704-0.576
			c-0.303-0.262-0.593-0.539-0.895-0.802c-0.115-0.1-0.245-0.187-0.377-0.264c-0.247-0.144-0.505-0.268-0.75-0.415
			c-0.175-0.105-0.336-0.236-0.505-0.353c-0.059-0.042-0.143-0.061-0.185-0.114c-0.468-0.593-1.066-0.962-1.802-1.148
			c-0.213-0.054-0.378-0.287-0.569-0.433c-0.401-0.309-0.785-0.646-1.211-0.916c-0.667-0.421-1.363-0.796-2.047-1.19
			c-0.063-0.037-0.153-0.056-0.187-0.11c-0.25-0.396-0.727-0.508-1.024-0.797c-0.347-0.338-0.8-0.435-1.153-0.728
			c-0.198-0.165-0.485-0.22-0.721-0.346c-0.328-0.176-0.631-0.401-0.97-0.549c-0.26-0.113-0.56-0.131-0.837-0.208
			c-0.219-0.062-0.444-0.125-0.644-0.231c-0.664-0.35-1.288-0.256-1.901,0.123c-0.093,0.058-0.201,0.092-0.29,0.155
			c-0.244,0.173-0.506,0.331-0.717,0.539c-0.43,0.426-0.963,0.61-1.527,0.752c-0.198,0.05-0.382,0.152-0.577,0.218
			c-0.193,0.065-0.388,0.128-0.587,0.168c-0.431,0.086-0.862,0.173-1.297,0.229c-0.741,0.095-1.482,0.13-2.211-0.095
			c-0.035-0.011-0.074-0.022-0.108-0.016c-0.491,0.098-0.9-0.156-1.331-0.31c-0.722-0.258-1.461-0.48-2.155-0.802
			c-0.501-0.232-0.98-0.554-1.399-0.918c-0.589-0.513-1.119-1.096-1.661-1.661c-0.121-0.125-0.191-0.3-0.282-0.453
			c-0.031-0.051-0.044-0.144-0.082-0.154c-0.564-0.154-0.562-0.725-0.81-1.106c-0.298-0.459-0.55-0.949-0.813-1.431
			c-0.044-0.081-0.036-0.188-0.071-0.275c-0.103-0.261-0.207-0.521-0.326-0.776C1.267,18.363,1.157,18.186,1.098,18.079z
			 M18.725,16.674c0.399-0.143,0.7-0.321,0.821-0.691c0.213-0.651,0.637-1.2,0.741-1.922c0.135-0.938,0.527-1.84,0.508-2.809
			c-0.006-0.315-0.099-0.634-0.185-0.941c-0.105-0.378-0.254-0.743-0.369-1.118c-0.201-0.656-0.368-1.333-0.812-1.872
			c-0.19-0.231-0.481-0.385-0.738-0.556c-0.611-0.407-1.281-0.653-2.018-0.693C16,6.034,15.327,5.998,14.654,5.974
			c-0.478-0.018-0.958-0.049-1.432-0.014c-0.542,0.041-1.162,0.023-1.236,0.808c-0.009,0.097-0.025,0.194-0.053,0.287
			c-0.078,0.267-0.089,0.605-0.263,0.78c-0.322,0.321-0.72,0.586-1.126,0.799c-0.418,0.219-0.891,0.332-1.327,0.521
			C8.579,9.431,7.93,9.696,7.329,10.042c-0.321,0.185-0.571,0.511-0.812,0.807c-0.136,0.166-0.19,0.399-0.277,0.604
			c-0.078,0.184-0.167,0.365-0.222,0.556c-0.104,0.356-0.147,0.735-0.287,1.074c-0.245,0.592-0.339,1.185-0.219,1.815
			c0.019,0.1-0.03,0.211-0.029,0.317c0.003,0.411-0.032,0.829,0.033,1.23c0.086,0.534,0.249,1.057,0.385,1.582
			c0.063,0.245,0.072,0.557,0.229,0.716c0.463,0.469,0.696,1.108,1.257,1.512c0.825,0.596,1.712,1.013,2.7,1.23
			c0.154,0.034,0.349-0.014,0.468,0.063c0.413,0.267,0.858,0.139,1.241,0.044c0.85-0.21,1.696-0.479,2.498-0.829
			c0.559-0.244,1.07-0.625,1.547-1.012c0.423-0.345,0.751-0.806,1.156-1.177c0.423-0.387,0.895-0.723,1.335-1.092
			C18.579,17.277,18.822,17.055,18.725,16.674z"/>
		<path fill-rule="evenodd" clip-rule="evenodd" fill="#BD62FF" d="M18.725,16.674c0.098,0.381-0.146,0.603-0.393,0.81
			c-0.44,0.369-0.912,0.705-1.335,1.092c-0.405,0.371-0.733,0.832-1.156,1.177c-0.477,0.388-0.988,0.769-1.547,1.012
			c-0.802,0.35-1.647,0.619-2.498,0.829c-0.383,0.094-0.828,0.222-1.241-0.044c-0.12-0.077-0.314-0.029-0.468-0.063
			c-0.987-0.217-1.875-0.634-2.7-1.23c-0.561-0.404-0.794-1.043-1.257-1.512c-0.157-0.159-0.166-0.471-0.229-0.716
			c-0.137-0.525-0.299-1.048-0.385-1.582c-0.065-0.401-0.03-0.819-0.033-1.23c-0.001-0.106,0.048-0.217,0.029-0.317
			c-0.12-0.63-0.026-1.224,0.219-1.815c0.14-0.339,0.184-0.718,0.287-1.074c0.056-0.191,0.144-0.372,0.222-0.556
			c0.087-0.205,0.141-0.438,0.277-0.604c0.242-0.296,0.492-0.623,0.812-0.807c0.601-0.346,1.25-0.61,1.888-0.887
			c0.436-0.189,0.909-0.301,1.327-0.521c0.406-0.213,0.804-0.478,1.126-0.799c0.174-0.174,0.185-0.513,0.263-0.78
			c0.027-0.093,0.043-0.19,0.053-0.287c0.074-0.785,0.694-0.767,1.236-0.808c0.474-0.036,0.955-0.004,1.432,0.014
			C15.327,5.998,16,6.034,16.672,6.071c0.737,0.04,1.407,0.287,2.018,0.693c0.257,0.171,0.547,0.325,0.738,0.556
			c0.444,0.539,0.612,1.216,0.812,1.872c0.115,0.375,0.264,0.74,0.369,1.118c0.086,0.308,0.178,0.626,0.185,0.941
			c0.019,0.969-0.373,1.871-0.508,2.809c-0.104,0.723-0.527,1.271-0.741,1.922C19.425,16.353,19.124,16.531,18.725,16.674z"/>
	</g>
</g>
</svg>
