<?xml version="1.0" encoding="utf-8"?>
<!-- Generator: Adobe Illustrator 16.0.0, SVG Export Plug-In . SVG Version: 6.00 Build 0)  -->
<!DOCTYPE svg PUBLIC "-//W3C//DTD SVG 1.1//EN" "http://www.w3.org/Graphics/SVG/1.1/DTD/svg11.dtd">
<svg version="1.1" id="Layer_1" xmlns="http://www.w3.org/2000/svg" xmlns:xlink="http://www.w3.org/1999/xlink" x="0px" y="0px"
	 width="59.875px" height="11.5px" viewBox="0 0 59.875 11.5" enable-background="new 0 0 59.875 11.5" xml:space="preserve">
<g id="ycwIc5_1_">
	<g>
		<path fill="#A4FF62" d="M44.561,9.443c0.092-0.135,0.188-0.242,0.244-0.367c0.088-0.193,0.229-0.32,0.405-0.428
			c0.053-0.031,0.108-0.086,0.128-0.143c0.057-0.178,0.145-0.324,0.294-0.441c0.087-0.068,0.181-0.16,0.211-0.258
			c0.097-0.322,0.374-0.492,0.573-0.727c0.141-0.163,0.263-0.338,0.3-0.538c0.062-0.333,0.085-0.675,0.107-1.015
			c0.005-0.076-0.044-0.217-0.086-0.225c-0.13-0.023-0.153-0.108-0.187-0.203c-0.011-0.029-0.029-0.062-0.055-0.077
			c-0.102-0.063-0.112-0.167-0.137-0.269C46.31,4.553,46.266,4.35,46.2,4.154c-0.083-0.246-0.181-0.487-0.278-0.728
			c-0.089-0.219-0.187-0.435-0.406-0.56c-0.086-0.049-0.181-0.087-0.258-0.147c-0.164-0.127-0.318-0.268-0.479-0.398
			c-0.068-0.055-0.141-0.107-0.217-0.147c-0.236-0.12-0.473-0.236-0.712-0.349c-0.207-0.098-0.417-0.163-0.646-0.061
			c-0.058,0.026-0.135,0.022-0.2,0.014c-0.138-0.019-0.273-0.067-0.41-0.069c-0.16-0.002-0.321,0.036-0.482,0.052
			c-0.236,0.023-0.465,0.055-0.682,0.172c-0.178,0.097-0.376,0.156-0.564,0.232c-0.139,0.055-0.285,0.093-0.414,0.165
			c-0.162,0.09-0.309,0.209-0.465,0.31c-0.104,0.067-0.221,0.117-0.318,0.19c-0.23,0.173-0.406,0.408-0.672,0.548
			c-0.219,0.114-0.413,0.281-0.603,0.443c-0.228,0.195-0.437,0.412-0.659,0.613c-0.071,0.064-0.123,0.128-0.141,0.228
			c-0.008,0.048-0.055,0.099-0.097,0.131c-0.109,0.085-0.233,0.152-0.339,0.242c-0.098,0.085-0.193,0.181-0.263,0.29
			c-0.073,0.116-0.117,0.251-0.168,0.38c-0.013,0.031-0.015,0.086,0.003,0.106c0.095,0.102,0.109,0.236,0.002,0.308
			c-0.104,0.07-0.181,0.138-0.199,0.271c-0.01,0.063-0.092,0.113-0.112,0.178c-0.05,0.164-0.106,0.332-0.116,0.5
			c-0.013,0.234,0.007,0.471,0.026,0.707c0.031,0.387,0.193,0.721,0.438,1.021c0.059,0.07,0.081,0.168,0.128,0.248
			c0.036,0.062,0.081,0.123,0.13,0.176c0.027,0.031,0.072,0.049,0.108,0.074c0.105,0.07,0.209,0.145,0.316,0.213
			c0.124,0.078,0.257,0.143,0.378,0.227c0.181,0.123,0.37,0.219,0.591,0.238c0.106,0.008,0.218,0.035,0.306-0.061
			c0.008-0.008,0.055,0.014,0.078,0.029c0.076,0.051,0.146,0.111,0.226,0.156c0.079,0.043,0.169,0.062,0.249,0.105
			c0.07,0.035,0.131,0.092,0.199,0.133c0.08,0.049,0.161,0.102,0.249,0.133c0.087,0.029,0.182,0.041,0.272,0.043
			c0.077,0.002,0.156-0.039,0.23-0.027c0.391,0.057,0.781,0.084,1.173,0.039c0.226-0.027,0.448-0.076,0.673-0.107
			c0.146-0.021,0.308-0.072,0.438-0.031c0.15,0.047,0.266,0.02,0.398-0.023c0.266-0.086,0.51-0.213,0.735-0.375
			c0.188-0.137,0.373-0.275,0.556-0.416c0.104-0.08,0.199-0.168,0.309-0.26C44.529,9.357,44.54,9.387,44.561,9.443z M28.615,1.696
			c0.003,0.007,0.007,0.014,0.01,0.021c-0.044,0.052-0.085,0.142-0.135,0.148C28.377,1.879,28.296,1.916,28.217,2
			C28.163,2.057,28.065,2.071,28,2.122c-0.188,0.145-0.362,0.312-0.558,0.445c-0.229,0.154-0.366,0.406-0.624,0.535
			c-0.186,0.093-0.34,0.251-0.504,0.385c-0.051,0.041-0.081,0.112-0.135,0.143c-0.37,0.208-0.718,0.443-0.981,0.784
			c-0.057,0.074-0.104,0.157-0.15,0.239c-0.081,0.14-0.145,0.293-0.241,0.422c-0.189,0.252-0.301,0.539-0.411,0.828
			c-0.041,0.107-0.066,0.231-0.218,0.249c-0.025,0.003-0.05,0.054-0.063,0.088c-0.015,0.036-0.008,0.083-0.026,0.116
			c-0.117,0.214-0.169,0.448-0.201,0.686c-0.05,0.381-0.061,0.762,0.073,1.127c0.03,0.082,0.101,0.148,0.154,0.223
			c0.051,0.07,0.114,0.135,0.152,0.213c0.043,0.086,0.078,0.16,0.189,0.178c0.043,0.008,0.079,0.07,0.114,0.113
			c0.054,0.064,0.102,0.133,0.156,0.197c0.043,0.051,0.103,0.092,0.138,0.146c0.128,0.207,0.284,0.365,0.545,0.375
			c0.022,0.002,0.043,0.02,0.064,0.029c0.134,0.061,0.236,0.221,0.417,0.131c0.006-0.004,0.017,0,0.023,0.004
			c0.152,0.08,0.31,0.15,0.452,0.246c0.06,0.041,0.106,0.064,0.179,0.066c0.091,0.006,0.195,0.021,0.269,0.068
			c0.093,0.062,0.162,0.162,0.26,0.266c-0.012-0.08-0.019-0.123-0.025-0.164c0.046-0.002,0.094-0.012,0.139-0.004
			c0.042,0.006,0.08,0.035,0.122,0.049c0.148,0.045,0.297,0.09,0.447,0.133c0.118,0.033,0.236,0.068,0.356,0.092
			c0.097,0.02,0.205,0.051,0.294,0.025c0.27-0.074,0.537-0.164,0.798-0.264c0.243-0.092,0.473-0.217,0.717-0.305
			c0.271-0.1,0.454-0.27,0.597-0.523c0.145-0.256,0.269-0.539,0.536-0.707c0.012-0.008,0.025-0.025,0.025-0.039
			c-0.008-0.139,0.104-0.193,0.185-0.275c0.122-0.125,0.235-0.262,0.339-0.402c0.105-0.145,0.19-0.305,0.293-0.451
			c0.064-0.09,0.153-0.162,0.217-0.254c0.137-0.191,0.268-0.389,0.395-0.588c0.167-0.263,0.343-0.522,0.487-0.798
			c0.085-0.161,0.105-0.353,0.173-0.524c0.133-0.342,0.246-0.687,0.252-1.057c0.002-0.11,0.023-0.263-0.036-0.32
			c-0.082-0.079-0.111-0.169-0.169-0.252C33.041,3.54,32.94,3.228,32.68,3.028c-0.056-0.043-0.107-0.11-0.13-0.176
			c-0.097-0.279-0.093-0.28-0.314-0.488c0,0.103-0.056,0.155-0.151,0.12c-0.1-0.035-0.209-0.075-0.283-0.146
			c-0.268-0.257-0.583-0.433-0.918-0.576c-0.175-0.074-0.361-0.131-0.548-0.165c-0.247-0.043-0.499-0.062-0.749-0.079
			c-0.121-0.008-0.247,0.003-0.367,0.027C29.016,1.586,28.816,1.645,28.615,1.696z M9.191,4.183C9.201,4.176,9.21,4.169,9.22,4.162
			C9.187,4.105,9.161,4.006,9.121,4C8.968,3.978,8.96,3.856,8.929,3.756C8.871,3.57,8.83,3.378,8.771,3.192
			C8.742,3.097,8.688,3.01,8.651,2.917C8.542,2.64,8.472,2.349,8.286,2.101C8.067,1.81,7.847,1.526,7.513,1.366
			C7.405,1.315,7.275,1.308,7.154,1.293C7.128,1.29,7.089,1.335,7.067,1.366C7.035,1.409,7.023,1.483,6.984,1.501
			c-0.079,0.035-0.163,0.021-0.23-0.052C6.617,1.3,6.439,1.271,6.264,1.361C6.239,1.374,6.21,1.387,6.184,1.386
			C5.934,1.376,5.707,1.48,5.469,1.531C5.05,1.621,4.626,1.692,4.241,1.898C4.134,1.956,4.006,1.973,3.896,2.025
			C3.78,2.082,3.644,2.134,3.569,2.23C3.445,2.389,3.35,2.576,3.265,2.761C3.129,3.061,2.921,3.31,2.729,3.57
			c-0.11,0.15-0.25,0.278-0.374,0.419C2.217,4.146,2.137,4.339,1.989,4.498C1.753,4.751,1.583,5.051,1.531,5.419
			C1.491,5.701,1.358,5.969,1.27,6.245C1.239,6.34,1.234,6.449,1.121,6.494C1.114,6.497,1.11,6.507,1.108,6.514
			C1.062,6.695,0.922,6.842,0.93,7.043c0.003,0.062,0.005,0.131-0.013,0.191C0.843,7.48,0.881,7.725,0.922,7.971
			C0.966,8.24,1.048,8.5,1.132,8.764c0.113,0.352,0.356,0.625,0.482,0.961C1.621,9.744,1.667,9.766,1.68,9.76
			c0.118-0.059,0.184,0.027,0.25,0.092c0.26,0.25,0.568,0.43,0.877,0.605c0.184,0.104,0.381,0.186,0.577,0.266
			c0.05,0.02,0.12-0.008,0.179-0.018c0.069-0.014,0.137-0.053,0.204-0.047c0.139,0.01,0.275,0.053,0.414,0.059
			c0.224,0.01,0.449,0.002,0.673-0.002c0.123-0.002,0.25,0.002,0.367-0.025c0.104-0.023,0.2-0.08,0.313-0.045
			c0.018,0.004,0.049-0.008,0.064-0.021c0.156-0.145,0.416-0.133,0.526-0.348c0.007-0.014,0.035-0.018,0.052-0.027
			c0.115-0.062,0.229-0.123,0.343-0.186c0.016-0.01,0.021-0.033,0.034-0.047c0.039-0.045,0.074-0.094,0.119-0.131
			C6.87,9.73,7.084,9.594,7.265,9.424c0.23-0.217,0.465-0.438,0.62-0.723c0.042-0.076,0.072-0.158,0.105-0.24
			c0.072-0.172,0.136-0.35,0.216-0.518c0.112-0.234,0.251-0.455,0.264-0.729c0.003-0.074,0.06-0.158,0.112-0.219
			c0.149-0.175,0.206-0.38,0.25-0.6C8.87,6.209,8.927,6.021,9.015,5.853c0.091-0.174,0.23-0.323,0.344-0.486
			C9.439,5.25,9.464,5.127,9.393,4.993C9.369,4.949,9.374,4.89,9.355,4.843C9.314,4.74,9.284,4.627,9.217,4.543
			C9.114,4.415,9.084,4.28,9.095,4.115C9.135,4.143,9.163,4.163,9.191,4.183z M19.84,1.066c-0.027,0.056-0.046,0.094-0.064,0.132
			c-0.043-0.025-0.086-0.051-0.13-0.075c-0.031-0.017-0.063-0.04-0.098-0.044c-0.121-0.014-0.244-0.009-0.363-0.032
			c-0.232-0.045-0.442-0.17-0.696-0.149c-0.138,0.011-0.26,0.043-0.391,0.075c-0.321,0.078-0.652,0.116-0.956,0.259
			c-0.075,0.035-0.146,0.083-0.225,0.107c-0.354,0.109-0.7,0.231-1,0.455c-0.144,0.106-0.309,0.192-0.431,0.319
			c-0.101,0.106-0.166,0.253-0.226,0.392c-0.13,0.299-0.312,0.553-0.59,0.732c-0.09,0.059-0.187,0.115-0.259,0.191
			C14.23,3.621,14.08,3.847,13.88,4.015c-0.215,0.181-0.295,0.429-0.353,0.665c-0.082,0.335-0.26,0.617-0.395,0.922
			c-0.079,0.179-0.156,0.359-0.25,0.53c-0.076,0.139-0.106,0.283-0.108,0.437c0,0.02-0.003,0.041-0.009,0.06
			c-0.157,0.512-0.126,1.032-0.057,1.551c0.019,0.143,0.066,0.283,0.095,0.404c0.067-0.006,0.13-0.033,0.165-0.012
			c0.123,0.076,0.238,0.166,0.354,0.248c0.153,0.109,0.285,0.279,0.313,0.494c0.011,0.08,0.054,0.125,0.145,0.131
			c0.039,0.002,0.09,0.039,0.109,0.074c0.104,0.189,0.319,0.248,0.459,0.395c0.063,0.068,0.146,0.115,0.216,0.176
			c0.078,0.066,0.14,0.164,0.267,0.086c0.025-0.016,0.074-0.01,0.104,0.004c0.171,0.074,0.393,0.031,0.517,0.221
			c0.006,0.01,0.029,0.01,0.044,0.014c0.097,0.023,0.193,0.051,0.291,0.066c0.09,0.014,0.185,0.029,0.271,0.014
			c0.039-0.008,0.058-0.098,0.096-0.143c0.035-0.039,0.079-0.08,0.127-0.102c0.029-0.012,0.101,0,0.107,0.02
			c0.038,0.1,0.098,0.053,0.155,0.033c0.237-0.078,0.432-0.264,0.695-0.281c0.022-0.002,0.044-0.018,0.065-0.029
			c0.235-0.127,0.468-0.258,0.705-0.381c0.295-0.152,0.533-0.381,0.736-0.629c0.18-0.221,0.308-0.486,0.433-0.746
			c0.087-0.18,0.153-0.367,0.312-0.504C19.565,7.668,19.64,7.6,19.7,7.521c0.178-0.232,0.353-0.469,0.521-0.707
			c0.091-0.128,0.188-0.251,0.192-0.427c0.003-0.088,0.042-0.2,0.174-0.215c0.011-0.001,0.03-0.065,0.02-0.084
			c-0.036-0.06-0.034-0.089,0.042-0.099c0.016-0.002,0.038-0.027,0.041-0.044c0.031-0.163,0.064-0.326,0.084-0.49
			c0.014-0.114,0.004-0.23,0.015-0.345c0.021-0.239,0.062-0.478,0.072-0.717c0.009-0.24-0.003-0.481-0.019-0.721
			c-0.017-0.263-0.03-0.528-0.08-0.786c-0.071-0.365-0.173-0.724-0.266-1.084c-0.014-0.054-0.036-0.137-0.071-0.146
			c-0.117-0.033-0.13-0.146-0.197-0.213C20.104,1.316,19.973,1.195,19.84,1.066z M50.679,5.777c-0.215,0.197-0.256,0.48-0.297,0.755
			c-0.069,0.458-0.099,0.921,0.048,1.37c0.061,0.186,0.155,0.367,0.268,0.527c0.087,0.125,0.23,0.207,0.34,0.316
			c0.172,0.172,0.273,0.387,0.365,0.609c0.016,0.035,0.053,0.102,0.062,0.098c0.086-0.027,0.121,0.037,0.174,0.078
			c0.08,0.064,0.172,0.115,0.258,0.174c0.15,0.1,0.304,0.199,0.452,0.303c0.129,0.092,0.253,0.189,0.378,0.285
			c0.055,0.041,0.105,0.088,0.162,0.123c0.031,0.018,0.084,0.035,0.11,0.021c0.085-0.043,0.151-0.027,0.222,0.027
			c0.137,0.104,0.277,0.203,0.415,0.305c0.054,0.039,0.116,0.053,0.143-0.012c0.077-0.197,0.237-0.168,0.374-0.127
			c0.331,0.1,0.664,0.064,0.996,0.041c0.301-0.021,0.604-0.049,0.896-0.156c0.157-0.059,0.313-0.123,0.485-0.156
			c0.281-0.055,0.533-0.227,0.822-0.279c0.025-0.004,0.046-0.029,0.068-0.045c0.041-0.031,0.08-0.066,0.125-0.092
			c0.117-0.068,0.241-0.127,0.26-0.289c0.004-0.037,0.044-0.072,0.069-0.109c0.116-0.168,0.243-0.328,0.349-0.502
			c0.127-0.213,0.244-0.432,0.35-0.654c0.062-0.129,0.103-0.268,0.136-0.406c0.035-0.146,0.052-0.299,0.075-0.447
			c0.016-0.102,0.033-0.203,0.044-0.303c0.016-0.15,0.026-0.299,0.04-0.45c0.016-0.167,0.04-0.334,0.047-0.501
			c0.008-0.22,0.009-0.44,0.003-0.66c-0.005-0.168,0.055-0.333-0.026-0.506c-0.104-0.222-0.173-0.46-0.259-0.69
			c-0.092-0.248-0.106-0.53-0.327-0.72c-0.021-0.019-0.034-0.054-0.043-0.084c-0.062-0.22-0.159-0.413-0.367-0.539
			c-0.111-0.067-0.204-0.165-0.307-0.245c-0.078-0.06-0.156-0.121-0.24-0.171c-0.076-0.046-0.18-0.057-0.176-0.183
			c0-0.019-0.041-0.047-0.068-0.057c-0.088-0.032-0.178-0.064-0.271-0.084c-0.222-0.048-0.444-0.101-0.669-0.13
			c-0.238-0.03-0.482-0.07-0.717-0.042c-0.369,0.042-0.733,0.135-1.055,0.341c-0.163,0.105-0.33,0.207-0.484,0.324
			c-0.156,0.119-0.283,0.28-0.45,0.377c-0.216,0.125-0.419,0.306-0.7,0.282c-0.023-0.002-0.054,0.015-0.076,0.03
			c-0.332,0.21-0.668,0.417-0.853,0.784c-0.081,0.164-0.163,0.332-0.208,0.507c-0.024,0.093-0.049,0.155-0.129,0.208
			c-0.219,0.143-0.411,0.328-0.477,0.58c-0.066,0.253-0.277,0.353-0.421,0.522c-0.013-0.005-0.025-0.011-0.038-0.017
			C50.598,5.997,50.639,5.885,50.679,5.777z"/>
		<path fill="#A4FF62" fill-rule="evenodd" clip-rule="evenodd" d="M44.561,9.443c-0.021-0.057-0.031-0.086-0.049-0.135
			c-0.109,0.092-0.205,0.18-0.309,0.26c-0.183,0.141-0.368,0.279-0.556,0.416c-0.226,0.162-0.47,0.289-0.735,0.375
			c-0.133,0.043-0.248,0.07-0.398,0.023c-0.13-0.041-0.291,0.01-0.438,0.031c-0.225,0.031-0.447,0.08-0.673,0.107
			c-0.392,0.045-0.782,0.018-1.173-0.039c-0.074-0.012-0.153,0.029-0.23,0.027c-0.091-0.002-0.186-0.014-0.272-0.043
			c-0.088-0.031-0.169-0.084-0.249-0.133c-0.068-0.041-0.129-0.098-0.199-0.133c-0.08-0.043-0.17-0.062-0.249-0.105
			c-0.079-0.045-0.149-0.105-0.226-0.156c-0.023-0.016-0.07-0.037-0.078-0.029c-0.088,0.096-0.199,0.068-0.306,0.061
			c-0.221-0.02-0.41-0.115-0.591-0.238c-0.121-0.084-0.254-0.148-0.378-0.227c-0.107-0.068-0.211-0.143-0.316-0.213
			C37.1,9.268,37.055,9.25,37.027,9.219c-0.049-0.053-0.094-0.113-0.13-0.176c-0.047-0.08-0.069-0.178-0.128-0.248
			c-0.245-0.301-0.407-0.635-0.438-1.021c-0.02-0.236-0.039-0.473-0.026-0.707c0.01-0.168,0.066-0.336,0.116-0.5
			c0.021-0.065,0.103-0.115,0.112-0.178c0.019-0.134,0.096-0.201,0.199-0.271c0.107-0.072,0.093-0.207-0.002-0.308
			c-0.018-0.02-0.016-0.075-0.003-0.106c0.051-0.129,0.095-0.265,0.168-0.38c0.069-0.109,0.165-0.205,0.263-0.29
			c0.105-0.09,0.229-0.157,0.339-0.242c0.042-0.033,0.089-0.083,0.097-0.131c0.018-0.099,0.069-0.163,0.141-0.228
			c0.223-0.201,0.432-0.418,0.659-0.613c0.189-0.162,0.384-0.329,0.603-0.443c0.266-0.14,0.441-0.375,0.672-0.548
			c0.098-0.074,0.215-0.123,0.318-0.19c0.156-0.101,0.303-0.22,0.465-0.31c0.129-0.071,0.275-0.11,0.414-0.165
			c0.188-0.076,0.387-0.135,0.564-0.232c0.217-0.117,0.445-0.148,0.682-0.172c0.161-0.016,0.322-0.054,0.482-0.052
			c0.137,0.002,0.272,0.051,0.41,0.069c0.065,0.009,0.143,0.012,0.2-0.014c0.229-0.102,0.439-0.037,0.646,0.061
			c0.239,0.113,0.476,0.229,0.712,0.349c0.076,0.04,0.148,0.092,0.217,0.147c0.16,0.131,0.314,0.271,0.479,0.398
			c0.077,0.061,0.172,0.098,0.258,0.147c0.22,0.125,0.317,0.341,0.406,0.56c0.098,0.241,0.195,0.481,0.278,0.728
			c0.065,0.196,0.109,0.399,0.159,0.601c0.024,0.102,0.035,0.206,0.137,0.269c0.025,0.015,0.044,0.048,0.055,0.077
			c0.033,0.095,0.057,0.18,0.187,0.203c0.042,0.007,0.091,0.148,0.086,0.225c-0.022,0.339-0.045,0.681-0.107,1.015
			c-0.037,0.2-0.159,0.375-0.3,0.538c-0.199,0.234-0.477,0.404-0.573,0.727c-0.03,0.098-0.124,0.189-0.211,0.258
			c-0.149,0.117-0.237,0.264-0.294,0.441c-0.02,0.057-0.075,0.111-0.128,0.143c-0.176,0.107-0.317,0.234-0.405,0.428
			C44.748,9.201,44.652,9.309,44.561,9.443z"/>
		<path fill="#A4FF62" fill-rule="evenodd" clip-rule="evenodd" d="M28.615,1.696c0.201-0.051,0.401-0.11,0.604-0.151
			c0.12-0.024,0.246-0.035,0.367-0.027c0.25,0.016,0.502,0.035,0.749,0.079c0.187,0.033,0.373,0.09,0.548,0.165
			c0.335,0.143,0.65,0.319,0.918,0.576c0.074,0.071,0.184,0.112,0.283,0.146c0.096,0.035,0.151-0.017,0.151-0.12
			c0.222,0.208,0.218,0.209,0.314,0.488c0.022,0.066,0.074,0.133,0.13,0.176c0.261,0.2,0.361,0.511,0.537,0.767
			c0.058,0.083,0.087,0.173,0.169,0.252c0.06,0.057,0.038,0.21,0.036,0.32c-0.006,0.371-0.119,0.715-0.252,1.057
			c-0.067,0.171-0.088,0.363-0.173,0.524c-0.145,0.275-0.32,0.535-0.487,0.798c-0.127,0.199-0.258,0.396-0.395,0.588
			c-0.063,0.092-0.152,0.164-0.217,0.254c-0.103,0.146-0.188,0.307-0.293,0.451c-0.104,0.141-0.217,0.277-0.339,0.402
			c-0.08,0.082-0.192,0.137-0.185,0.275c0,0.014-0.014,0.031-0.025,0.039c-0.268,0.168-0.392,0.451-0.536,0.707
			c-0.144,0.254-0.326,0.424-0.597,0.523c-0.244,0.088-0.474,0.213-0.717,0.305c-0.262,0.1-0.528,0.189-0.798,0.264
			c-0.089,0.025-0.197-0.006-0.294-0.025c-0.12-0.023-0.238-0.059-0.356-0.092c-0.15-0.043-0.299-0.088-0.447-0.133
			c-0.042-0.014-0.08-0.043-0.122-0.049c-0.044-0.008-0.092,0.002-0.139,0.004c0.006,0.041,0.013,0.084,0.025,0.164
			c-0.098-0.104-0.167-0.203-0.26-0.266c-0.074-0.047-0.178-0.062-0.269-0.068c-0.073-0.002-0.119-0.025-0.179-0.066
			c-0.142-0.096-0.3-0.166-0.452-0.246c-0.007-0.004-0.018-0.008-0.023-0.004c-0.18,0.09-0.283-0.07-0.417-0.131
			c-0.021-0.01-0.042-0.027-0.064-0.029c-0.262-0.01-0.417-0.168-0.545-0.375c-0.035-0.055-0.094-0.096-0.138-0.146
			c-0.054-0.064-0.103-0.133-0.156-0.197c-0.035-0.043-0.071-0.105-0.114-0.113c-0.112-0.018-0.146-0.092-0.189-0.178
			c-0.038-0.078-0.101-0.143-0.152-0.213c-0.053-0.074-0.124-0.141-0.154-0.223c-0.134-0.365-0.123-0.746-0.073-1.127
			c0.031-0.238,0.083-0.472,0.201-0.686c0.018-0.033,0.011-0.08,0.026-0.116c0.014-0.034,0.039-0.085,0.063-0.088
			c0.152-0.018,0.177-0.142,0.218-0.249c0.11-0.29,0.222-0.576,0.411-0.828c0.097-0.128,0.16-0.282,0.241-0.422
			c0.047-0.082,0.093-0.165,0.15-0.239c0.263-0.34,0.611-0.575,0.981-0.784c0.054-0.031,0.084-0.102,0.135-0.143
			c0.165-0.134,0.318-0.292,0.504-0.385c0.258-0.128,0.395-0.38,0.624-0.535c0.196-0.133,0.37-0.3,0.558-0.445
			c0.065-0.05,0.163-0.064,0.217-0.122c0.079-0.084,0.16-0.121,0.273-0.134c0.05-0.006,0.09-0.096,0.135-0.148
			C28.622,1.71,28.619,1.704,28.615,1.696z"/>
		<path fill="#A4FF62" fill-rule="evenodd" clip-rule="evenodd" d="M9.191,4.183c-0.028-0.02-0.056-0.04-0.096-0.068
			c-0.011,0.165,0.019,0.3,0.122,0.429C9.284,4.627,9.314,4.74,9.355,4.843c0.019,0.047,0.014,0.106,0.038,0.15
			C9.464,5.127,9.439,5.25,9.358,5.367C9.245,5.53,9.105,5.678,9.015,5.853C8.927,6.021,8.87,6.209,8.833,6.396
			c-0.044,0.22-0.101,0.424-0.25,0.6C8.53,7.057,8.474,7.141,8.471,7.215C8.458,7.488,8.318,7.709,8.207,7.943
			C8.126,8.111,8.062,8.289,7.99,8.461c-0.033,0.082-0.064,0.164-0.105,0.24C7.73,8.986,7.496,9.207,7.265,9.424
			C7.084,9.594,6.87,9.73,6.673,9.885c-0.045,0.037-0.081,0.086-0.119,0.131c-0.013,0.014-0.019,0.037-0.034,0.047
			c-0.113,0.062-0.228,0.123-0.343,0.186c-0.018,0.01-0.045,0.014-0.052,0.027c-0.11,0.215-0.37,0.203-0.526,0.348
			c-0.015,0.014-0.046,0.025-0.064,0.021c-0.113-0.035-0.208,0.021-0.313,0.045c-0.118,0.027-0.244,0.023-0.367,0.025
			c-0.224,0.004-0.449,0.012-0.673,0.002c-0.139-0.006-0.275-0.049-0.414-0.059c-0.066-0.006-0.135,0.033-0.204,0.047
			c-0.059,0.01-0.129,0.037-0.179,0.018c-0.196-0.08-0.394-0.162-0.577-0.266c-0.31-0.176-0.618-0.355-0.877-0.605
			C1.864,9.787,1.798,9.701,1.68,9.76C1.667,9.766,1.621,9.744,1.614,9.725c-0.126-0.336-0.37-0.609-0.482-0.961
			C1.048,8.5,0.966,8.24,0.922,7.971C0.881,7.725,0.843,7.48,0.917,7.234C0.936,7.174,0.933,7.105,0.93,7.043
			C0.922,6.842,1.062,6.695,1.108,6.514c0.001-0.007,0.006-0.018,0.012-0.02C1.234,6.449,1.239,6.34,1.27,6.245
			c0.089-0.275,0.221-0.544,0.262-0.826c0.052-0.368,0.222-0.667,0.458-0.921c0.147-0.158,0.228-0.352,0.365-0.509
			C2.478,3.848,2.618,3.72,2.729,3.57c0.192-0.26,0.4-0.509,0.537-0.809C3.35,2.576,3.445,2.389,3.569,2.23
			C3.644,2.134,3.78,2.082,3.896,2.025c0.11-0.052,0.238-0.07,0.345-0.127C4.626,1.692,5.05,1.621,5.469,1.531
			C5.707,1.48,5.934,1.376,6.184,1.386c0.026,0.001,0.055-0.012,0.08-0.025c0.175-0.09,0.353-0.061,0.49,0.088
			c0.067,0.073,0.151,0.087,0.23,0.052c0.04-0.018,0.051-0.092,0.083-0.135C7.089,1.335,7.128,1.29,7.154,1.293
			c0.121,0.015,0.251,0.022,0.358,0.073c0.334,0.16,0.555,0.444,0.773,0.735C8.472,2.349,8.542,2.64,8.651,2.917
			c0.037,0.093,0.091,0.18,0.121,0.274C8.83,3.378,8.871,3.57,8.929,3.756C8.96,3.856,8.968,3.978,9.121,4
			c0.04,0.006,0.066,0.105,0.099,0.162C9.21,4.169,9.201,4.176,9.191,4.183z"/>
		<path fill="#A4FF62" fill-rule="evenodd" clip-rule="evenodd" d="M19.84,1.066c0.133,0.128,0.263,0.25,0.389,0.377
			c0.067,0.068,0.081,0.18,0.197,0.213c0.035,0.01,0.058,0.093,0.071,0.146c0.092,0.36,0.194,0.72,0.266,1.084
			c0.05,0.257,0.063,0.523,0.08,0.786c0.016,0.24,0.028,0.481,0.019,0.721c-0.009,0.239-0.05,0.478-0.072,0.717
			c-0.011,0.114,0,0.231-0.015,0.345c-0.021,0.164-0.054,0.327-0.084,0.49c-0.003,0.018-0.025,0.042-0.041,0.044
			c-0.076,0.009-0.079,0.039-0.042,0.099c0.011,0.019-0.009,0.083-0.02,0.084c-0.131,0.015-0.171,0.127-0.174,0.215
			c-0.005,0.176-0.102,0.299-0.192,0.427c-0.169,0.238-0.343,0.475-0.521,0.707C19.64,7.6,19.565,7.668,19.489,7.732
			c-0.159,0.137-0.225,0.324-0.312,0.504c-0.125,0.26-0.253,0.525-0.433,0.746c-0.203,0.248-0.44,0.477-0.736,0.629
			c-0.237,0.123-0.47,0.254-0.705,0.381c-0.021,0.012-0.043,0.027-0.065,0.029c-0.263,0.018-0.458,0.203-0.695,0.281
			c-0.057,0.02-0.118,0.066-0.155-0.033c-0.007-0.02-0.079-0.031-0.107-0.02c-0.048,0.021-0.092,0.062-0.127,0.102
			c-0.038,0.045-0.057,0.135-0.096,0.143c-0.086,0.016-0.182,0-0.271-0.014c-0.098-0.016-0.194-0.043-0.291-0.066
			c-0.015-0.004-0.038-0.004-0.044-0.014c-0.124-0.189-0.345-0.146-0.517-0.221c-0.03-0.014-0.079-0.02-0.104-0.004
			c-0.126,0.078-0.189-0.02-0.267-0.086c-0.071-0.061-0.153-0.107-0.216-0.176c-0.14-0.146-0.354-0.205-0.459-0.395
			c-0.02-0.035-0.071-0.072-0.109-0.074c-0.091-0.006-0.134-0.051-0.145-0.131C13.606,9.1,13.475,8.93,13.321,8.82
			c-0.116-0.082-0.232-0.172-0.354-0.248c-0.034-0.021-0.098,0.006-0.165,0.012c-0.029-0.121-0.076-0.262-0.095-0.404
			c-0.069-0.52-0.1-1.039,0.057-1.551c0.006-0.019,0.009-0.04,0.009-0.06c0.002-0.154,0.032-0.298,0.108-0.437
			c0.094-0.171,0.172-0.352,0.25-0.53c0.134-0.306,0.312-0.587,0.395-0.922c0.058-0.235,0.138-0.483,0.353-0.665
			c0.2-0.168,0.351-0.395,0.533-0.586c0.073-0.076,0.169-0.132,0.259-0.191c0.277-0.179,0.459-0.433,0.59-0.732
			c0.06-0.139,0.125-0.286,0.226-0.392c0.122-0.127,0.287-0.213,0.431-0.319c0.301-0.224,0.647-0.346,1-0.455
			c0.079-0.024,0.15-0.072,0.225-0.107c0.304-0.143,0.635-0.182,0.956-0.259c0.13-0.032,0.253-0.064,0.391-0.075
			c0.254-0.021,0.464,0.104,0.696,0.149c0.119,0.023,0.242,0.019,0.363,0.032c0.034,0.004,0.066,0.027,0.098,0.044
			c0.044,0.024,0.087,0.05,0.13,0.075C19.794,1.161,19.813,1.123,19.84,1.066z"/>
		<path fill="#A4FF62" fill-rule="evenodd" clip-rule="evenodd" d="M50.679,5.777c-0.04,0.107-0.081,0.219-0.122,0.332
			c0.013,0.006,0.025,0.012,0.038,0.017c0.144-0.169,0.354-0.269,0.421-0.522c0.065-0.252,0.258-0.438,0.477-0.58
			c0.08-0.053,0.104-0.115,0.129-0.208c0.045-0.176,0.127-0.344,0.208-0.507c0.185-0.367,0.521-0.574,0.853-0.784
			c0.022-0.015,0.053-0.032,0.076-0.03c0.281,0.023,0.484-0.158,0.7-0.282c0.167-0.097,0.294-0.258,0.45-0.377
			c0.154-0.118,0.321-0.219,0.484-0.324c0.321-0.206,0.686-0.298,1.055-0.341c0.234-0.027,0.479,0.012,0.717,0.042
			c0.225,0.029,0.447,0.082,0.669,0.13c0.093,0.02,0.183,0.052,0.271,0.084c0.027,0.01,0.068,0.038,0.068,0.057
			c-0.004,0.126,0.1,0.137,0.176,0.183c0.084,0.051,0.162,0.111,0.24,0.171c0.103,0.081,0.195,0.178,0.307,0.245
			c0.208,0.125,0.305,0.318,0.367,0.539c0.009,0.03,0.021,0.065,0.043,0.084c0.221,0.19,0.235,0.473,0.327,0.72
			c0.086,0.23,0.155,0.468,0.259,0.69c0.081,0.173,0.021,0.338,0.026,0.506c0.006,0.22,0.005,0.44-0.003,0.66
			c-0.007,0.167-0.031,0.334-0.047,0.501c-0.014,0.15-0.024,0.299-0.04,0.45c-0.011,0.1-0.028,0.201-0.044,0.303
			c-0.023,0.148-0.04,0.301-0.075,0.447c-0.033,0.139-0.074,0.277-0.136,0.406c-0.105,0.223-0.223,0.441-0.35,0.654
			c-0.105,0.174-0.232,0.334-0.349,0.502c-0.025,0.037-0.065,0.072-0.069,0.109c-0.019,0.162-0.143,0.221-0.26,0.289
			c-0.045,0.025-0.084,0.061-0.125,0.092c-0.022,0.016-0.043,0.041-0.068,0.045c-0.289,0.053-0.541,0.225-0.822,0.279
			c-0.172,0.033-0.328,0.098-0.485,0.156c-0.292,0.107-0.595,0.135-0.896,0.156c-0.332,0.023-0.665,0.059-0.996-0.041
			c-0.137-0.041-0.297-0.07-0.374,0.127c-0.026,0.064-0.089,0.051-0.143,0.012c-0.138-0.102-0.278-0.201-0.415-0.305
			c-0.07-0.055-0.137-0.07-0.222-0.027c-0.026,0.014-0.079-0.004-0.11-0.021c-0.057-0.035-0.107-0.082-0.162-0.123
			c-0.125-0.096-0.249-0.193-0.378-0.285c-0.148-0.104-0.302-0.203-0.452-0.303c-0.086-0.059-0.178-0.109-0.258-0.174
			c-0.053-0.041-0.088-0.105-0.174-0.078c-0.01,0.004-0.047-0.062-0.062-0.098c-0.092-0.223-0.193-0.438-0.365-0.609
			c-0.109-0.109-0.253-0.191-0.34-0.316c-0.112-0.16-0.207-0.342-0.268-0.527c-0.146-0.449-0.117-0.913-0.048-1.37
			C50.423,6.257,50.464,5.975,50.679,5.777z"/>
		<path fill-rule="evenodd" clip-rule="evenodd" fill="#FFFFFF" d="M24.398,8.312"/>
	</g>
</g>
</svg>
