<?xml version="1.0" encoding="utf-8"?>
<!-- Generator: Adobe Illustrator 16.0.0, SVG Export Plug-In . SVG Version: 6.00 Build 0)  -->
<!DOCTYPE svg PUBLIC "-//W3C//DTD SVG 1.1//EN" "http://www.w3.org/Graphics/SVG/1.1/DTD/svg11.dtd">
<svg version="1.1" id="Layer_1" xmlns="http://www.w3.org/2000/svg" xmlns:xlink="http://www.w3.org/1999/xlink" x="0px" y="0px"
	 width="150px" height="auto" viewBox="6.341 134.985 115.035 106.134"
	 enable-background="new 6.341 134.985 115.035 106.134" xml:space="preserve">
<g>
	<path d="M40.512,138.839c0.58-0.645,1.336-1.091,2.039-1.589c4.042,0.869,8.194,0.258,12.284,0.634
		c2.506,0.148,4.902,1.042,7.417,1.165c2.605,0.197,5.221,0.044,7.832,0.171c3.963,0.227,7.897-0.725,11.86-0.411
		c4.017,0.209,8.443-1.344,12.102,0.943c-1.35,4.78,0.122,9.635,0.664,14.406c0.091,0.619,0.506,1.122,0.799,1.663
		c-0.432,5.461,1.44,10.705,3.256,15.76c0.917,2.357,1.004,4.998,2.23,7.238c0.005,0.24,0.013,0.725,0.018,0.965
		c0.231,0.147,0.694,0.448,0.925,0.598c-0.162,0.166-0.484,0.498-0.646,0.659c0.655,1.397,0.969,2.902,1.34,4.388
		c1.012,2.444,1.253,5.146,2.458,7.525c1.672,3.113,2.72,6.509,4.266,9.687c3.274,7.295,7.303,14.258,10.054,21.788
		c0.446,0.777,0.148,1.878-0.668,2.284c-2.187,1.227-4.775,1.047-7.181,1.37c-3.432,0.511-6.444,2.832-10.006,2.554
		c-0.314,0.005-0.947,0.005-1.266,0.01c-0.161,0.559-0.328,1.1-0.48,1.676c-7.583,1.916-15.515,1.532-23.12,3.279
		c-2.509,0.301-5.007-1.17-7.486-0.375c-3.156,1.229-6.618,1.06-9.94,1.243c-4.229,0.004-8.468-0.205-12.695,0.035
		c-6.168,0.899-12.528,0.205-18.492-1.541c0.288-1.418,0.986-2.685,1.746-3.889c-5.042-0.511-9.315-3.532-14.205-4.597
		c-1.991-0.429-3.92-1.192-5.439-2.581c0.253-0.606,0.515-1.199,0.781-1.798c0.799-2.987,2.729-5.488,4.265-8.125
		c1.624-2.589,3.313-5.138,4.803-7.805c0.786-1.41,1.174-3.029,2.209-4.296c2.139-2.79,3.663-5.973,5.234-9.103
		c1.257-0.847,1.423-2.471,2.078-3.723c1.157-2.965,3.44-5.466,3.667-8.753c0.877-2.375,1.406-4.986,2.881-7.067
		c0.288-1.384,0.323-2.873,1.056-4.117c2.201-3.562,2.646-7.968,5.295-11.289c-0.38-2.261-1.061-4.514-0.917-6.823
		c0.17-1.785-0.624-3.466-0.781-5.221C40.543,143.472,40.346,141.145,40.512,138.839 M44.048,140.247
		c-0.144,4.858,1,9.625,1.297,14.462c8.547-0.838,17.156-0.682,25.708,0.021c5.396,0.441,10.744-1.117,16.135-0.463
		c1.34,0.206,2.681-0.086,3.924-0.597c-0.581-4.048-1.388-8.107-1.157-12.215c-5.308-0.477-10.582,0.594-15.881,0.741
		C64.033,142.159,54.089,140.355,44.048,140.247 M50.584,157.198c0.415,0.741,1.179,1.575,0.629,2.466
		c-1.122,2.847-4.597,4.086-7.4,3.068c-3.379,7.443-6.435,15.034-9.054,22.779c-0.401,1.126-0.711,2.287-0.881,3.479
		c1.249-0.231,2.672-0.703,3.724,0.31c2.506,1.472,1.951,5.217-0.201,6.758c-2.17,1.974-5.614,1.769-7.723-0.192
		c-2.217,3.943-4.706,7.723-7.128,11.538c0.035,0.171,0.1,0.507,0.135,0.678c1.257,0.498,2.475,1.296,2.624,2.78
		c0.506,1.183-0.833,2.147-1.904,2.187c-1.179-0.087-1.96-1.078-2.807-1.772c-1.895,3.812-4.239,7.378-6.457,11.01
		c-0.384,0.058-0.769,0.128-1.153,0.197c6.138,1.467,11.621,5.5,18.104,5.435c0.201-1.642,0.637-3.23,1.244-4.763
		c-2.13-0.1-4.466-1.104-5.134-3.301c-0.996-2.584,0.855-5.797,3.671-5.989c1.689-0.59,2.488,1.336,3.907,1.756
		c0.616,0.283,1.576,0.558,1.615,1.379c0.062,4.344-2.187,8.29-2.462,12.595c-0.742,1.048-1.327,2.195-1.851,3.374
		c4.06,0.677,8.15,1.497,12.289,1.227c7.976-0.52,16.086,0.288,23.944-1.487c0.145-1.32,0.458-2.607,0.559-3.925
		c-0.07-1.314-0.271-2.615-0.223-3.93c0.271-1.804-1.764-3.021-1.332-4.841c0.119-1.432,2.672-1.93,3.047-0.438
		c1.123,4.183,1.965,8.587,1.071,12.9c2.382,0.45,4.814,0.908,7.246,0.541c6.046-0.942,12.197-1.044,18.208-2.218
		c-0.628-2.867-1.576-5.657-2.61-8.403c-1.209,0.189-2.562,0.62-3.693-0.083c-1.934-1.165-2.248-3.937-1.174-5.788
		c0.86-1.62,2.833-2.379,4.593-2.004c1.619,0.938,2.09,2.912,2.178,4.654c2.462,2.243,3.029,5.613,3.693,8.708
		c2.506,0.219,5.125,0.302,7.474-0.75c2.82-1.162,5.889-1.416,8.771-2.336c-0.031-0.267-0.087-0.79-0.118-1.052
		c-1.603-0.21-3.37,0.716-4.841-0.258c-1.083-0.585-0.864-2.018-1.222-3.021c0.829-1.432,1.746-2.803,2.907-3.981
		c-1.418-4.461-4.593-8.159-5.894-12.673c-1.959-4.562-4.339-8.996-5.5-13.86c-1.013-2.427-1.476-5.024-2.393-7.478
		c-1.907,1.34-4.536,1.681-6.54,0.341c-1.741-0.952-2.981-3.235-1.955-5.126c1.196-2.004,3.71-2.676,5.916-2.592
		c-1.506-4.153-2.079-8.579-3.746-12.674c-0.764-1.742-0.847-3.654-0.729-5.519c-7.208-0.361-14.406,0.805-21.605,0.345
		c0.249,0.655,0.842,0.982,1.463,1.228c0.676,1.018,1.2,2.247,0.786,3.483c-0.776,2.248-3.317,3.449-5.578,3.401
		c-1.86,0.003-3.698-1.507-3.816-3.393c0.165-2.244,2.03-3.785,3.894-4.732C61.658,156.543,56.093,156.835,50.584,157.198
		 M46.524,157.542c-0.638,1.477-1.991,2.624-2.148,4.296c2.462,0.899,5.155-0.551,6.111-2.903c-0.423-0.597-0.842-1.199-1.249-1.798
		C48.331,157.263,47.427,157.403,46.524,157.542 M64.125,162.016c0.406,2.109,2.912,3.013,4.758,2.188
		c2.021-0.52,3.873-2.755,2.58-4.807c-0.702-0.301-1.344-0.725-1.912-1.222C67.12,157.398,64.5,159.664,64.125,162.016
		 M91.397,178.959c0.013,1.886,1.873,3.208,3.592,3.479c1.266,0.263,2.423-0.458,3.436-1.105c-0.127-1.863-0.751-4.011-2.501-4.954
		C94.164,176.204,91.916,177.122,91.397,178.959 M32.86,190.03c-0.83,1.588-1.694,3.16-2.502,4.762
		c0.629,0.52,1.24,1.119,2.03,1.402c2.379,0.745,5.103-0.921,5.758-3.266c0.389-1.506-0.859-2.58-2.021-3.229
		C35.078,190.1,33.96,190.074,32.86,190.03 M21.535,209.403c0.075,1.192,1.323,3.049,2.637,2.104
		C24.22,210.001,22.88,209.337,21.535,209.403 M28.555,220.142c0.711,1.386,2.354,1.694,3.75,1.908
		c1.153-1.79,0.82-3.92,1.009-5.915c-0.707-0.568-1.401-1.59-2.445-1.153C28.516,215.223,27.302,218.208,28.555,220.142
		 M90.82,221.121c0.838,0.782,2,0.419,2.982,0.201c0.109-1.174,1.515-1.852,1.201-3.082c-0.157-1.259-1.009-3.156-2.58-2.633
		C90.003,216.036,89.056,219.466,90.82,221.121 M113.071,218c-1.052,1.218-2.079,2.685-1.559,4.378
		c1.288,0.611,2.672,0.249,3.994-0.018c-0.493-1.536-1.139-3.021-1.873-4.452C113.494,217.929,113.211,217.978,113.071,218z"/>
	<path fill="#FEC0EF" d="M44.048,140.247c10.041,0.108,19.985,1.912,30.026,1.95c5.299-0.147,10.573-1.218,15.881-0.741
		c-0.231,4.107,0.576,8.168,1.157,12.215c-1.244,0.511-2.584,0.803-3.924,0.597c-5.392-0.654-10.74,0.903-16.135,0.463
		c-8.552-0.702-17.161-0.859-25.708-0.021C45.048,149.872,43.904,145.105,44.048,140.247z"/>
	<path fill="#13EB5A" d="M50.584,157.198c5.509-0.362,11.075-0.654,16.567,0.039c-1.864,0.946-3.729,2.487-3.894,4.731
		c0.118,1.886,1.955,3.396,3.816,3.393c2.261,0.048,4.802-1.152,5.578-3.401c0.415-1.235-0.109-2.466-0.786-3.482
		c-0.621-0.245-1.214-0.573-1.463-1.228c7.199,0.459,14.397-0.706,21.605-0.345c-0.118,1.864-0.035,3.775,0.729,5.518
		c1.667,4.096,2.239,8.521,3.746,12.674c-2.205-0.083-4.719,0.589-5.916,2.592c-1.026,1.891,0.214,4.174,1.955,5.126
		c2.004,1.34,4.633,1,6.54-0.341c0.917,2.453,1.38,5.051,2.393,7.479c1.161,4.863,3.541,9.298,5.5,13.86
		c1.3,4.515,4.475,8.212,5.893,12.673c-1.161,1.178-2.078,2.55-2.907,3.98c0.358,1.005,0.14,2.437,1.223,3.021
		c1.471,0.974,3.239,0.048,4.841,0.258c0.03,0.262,0.087,0.785,0.118,1.052c-2.881,0.92-5.95,1.174-8.771,2.336
		c-2.348,1.052-4.968,0.97-7.474,0.751c-0.664-3.096-1.23-6.466-3.693-8.709c-0.088-1.742-0.559-3.715-2.179-4.654
		c-1.759-0.375-3.732,0.385-4.592,2.005c-1.074,1.851-0.76,4.623,1.174,5.788c1.131,0.703,2.484,0.271,3.693,0.084
		c1.034,2.744,1.982,5.534,2.61,8.402c-6.012,1.174-12.163,1.275-18.208,2.218c-2.432,0.367-4.864-0.092-7.247-0.541
		c0.894-4.314,0.051-8.719-1.07-12.901c-0.375-1.492-2.929-0.994-3.047,0.438c-0.432,1.82,1.603,3.039,1.332,4.841
		c-0.048,1.315,0.153,2.615,0.223,3.93c-0.1,1.318-0.414,2.605-0.559,3.925c-7.857,1.775-15.969,0.969-23.944,1.488
		c-4.139,0.271-8.229-0.551-12.289-1.228c0.524-1.178,1.109-2.326,1.851-3.373c0.275-4.306,2.524-8.251,2.462-12.596
		c-0.039-0.82-1-1.095-1.615-1.379c-1.418-0.419-2.218-2.345-3.907-1.755c-2.815,0.191-4.667,3.405-3.671,5.989
		c0.668,2.195,3.003,3.2,5.134,3.301c-0.606,1.532-1.043,3.12-1.244,4.763c-6.483,0.064-11.966-3.969-18.104-5.436
		c0.384-0.069,0.769-0.14,1.153-0.196c2.218-3.632,4.562-7.198,6.457-11.01c0.847,0.693,1.628,1.685,2.807,1.772
		c1.07-0.039,2.41-1.005,1.904-2.187c-0.149-1.485-1.367-2.283-2.624-2.781c-0.035-0.17-0.1-0.506-0.135-0.677
		c2.422-3.815,4.911-7.596,7.129-11.539c2.108,1.961,5.553,2.167,7.722,0.192c2.152-1.541,2.707-5.286,0.201-6.757
		c-1.052-1.014-2.475-0.542-3.724-0.311c0.17-1.191,0.48-2.353,0.882-3.479c2.619-7.744,5.675-15.336,9.054-22.779
		c2.803,1.019,6.278-0.222,7.4-3.068C51.762,158.773,50.998,157.939,50.584,157.198 M83.844,159.572
		c-1.28,0.41-2.567,1.166-3.188,2.409c-0.284,1.938,0.782,4.017,2.598,4.815c2.327,1.166,5.466,0.306,6.723-2.013
		c0.986-1.487,0.292-3.557-1.044-4.574C87.485,159.135,85.521,159.052,83.844,159.572 M48.964,168.792
		c-2.257,0.702-4.331,3.195-3.466,5.63c1.274,2.655,4.871,3.092,7.408,2.249c2.605-0.804,4.295-4.518,2.261-6.684
		C53.7,168.159,51.024,168.006,48.964,168.792 M76.004,171.803c-2.847,0.489-5.811,3.2-4.898,6.313
		c1.476,2.895,5.544,3.309,8.093,1.632c1.917-1.112,3.541-3.749,2.196-5.863C80.396,171.974,77.995,171.336,76.004,171.803
		 M43.555,180.819c-1.296,0.476-0.873,2.279-0.323,3.209c1.485,1.467,3.728-0.777,3.283-2.441
		C45.973,180.526,44.546,180.409,43.555,180.819 M55.865,180.902c-1.973,0.516-2.152,2.724-3.427,3.985
		c-0.838,0.877-0.314,2.278,0.288,3.156c1.629,2.008,4.492,2.619,6.959,2.31c1.99-0.136,3.413-2.087,3.566-3.969
		C63.475,182.731,59.341,179.443,55.865,180.902 M73.738,184.809c-0.842,0.681-0.838,2.104,0.114,2.693
		c1.602,1.388,4.527-1.585,2.811-2.96C75.694,184.324,74.65,184.412,73.738,184.809 M81.067,191.235
		c-0.208,1.432,0.079,2.899,0.057,4.352c0.839,1.052,1.938,2.034,3.354,2.126c2.501,0.197,5.081-1.095,6.521-3.13
		c0.541-1.379,0.145-3.095-0.869-4.173C87.747,187.838,82.923,188.222,81.067,191.235 M97.726,192.182
		c-0.869,0.725-2.143,1.994-1.109,3.112c1.069,1.484,3.318,0.419,3.881-0.999C100.647,192.873,99.036,191.557,97.726,192.182
		 M69.028,194.063c-2.624,1.55-4.775,5.519-2.51,8.22c3.021,2.488,7.649-0.099,8.225-3.675c0.432-1.069-0.497-1.864-1.13-2.572
		C72.454,194.806,70.808,193.63,69.028,194.063 M45.777,200.52c-1.904,0.523-3.523,2.244-3.532,4.283
		c0.35,1.104,0.869,2.187,1.628,3.073c1.855,1.816,5.248,1.847,7.046-0.065c0.768-1.069,1.393-2.253,1.881-3.471
		c-0.162-1.108-0.31-2.488-1.406-3.073C49.759,200.184,47.641,200.014,45.777,200.52 M99.15,203.231
		c-1.135,0.236-2.278,0.955-2.598,2.139c-0.354,1.659,0.35,3.475,1.467,4.71c2.545,2.065,6.518,0.114,7.583-2.68
		C105.837,204.129,101.882,202.524,99.15,203.231 M81.19,208.37c-0.917,0.99-1.397,2.3-2.205,3.383
		c0.698,0.441,1.235,1.228,2.068,1.419c2.043,0.03,3.929-1.96,3.466-4.03C83.599,208.517,82.264,207.744,81.19,208.37 M63.82,211.12
		c-2.995,0.685-5.47,4.008-4.597,7.072c2.436,3.213,7.487,1.419,8.994-1.816C70.123,213.712,66.661,210.177,63.82,211.12
		 M47.209,221.579c-1.501,0.328-2.502,1.555-3.414,2.694c-1.384,1.126-1.301,3.482,0.013,4.645c2.667,2.659,7.954,1.314,8.953-2.34
		c0.088-1.274-0.039-2.637-0.589-3.798C51.007,221.366,48.889,221.108,47.209,221.579 M81.648,222.849
		c-2.029,1.23-3.482,4.807-1.161,6.453c2.632,1.623,7.382,0.265,7.644-3.161C88.153,222.984,84.154,221.57,81.648,222.849
		 M60.738,227.687c-0.773,0.755-1.231,2.082-0.288,2.911c1.318,1.428,3.252-0.795,2.916-2.257
		C62.728,227.585,61.641,227.481,60.738,227.687z"/>
	<path fill="#FEC0EF" d="M46.524,157.542c0.903-0.139,1.807-0.279,2.715-0.406c0.406,0.598,0.825,1.201,1.249,1.799
		c-0.956,2.353-3.649,3.803-6.111,2.903C44.533,160.166,45.886,159.018,46.524,157.542z"/>
	<path fill="#FEC0EF" d="M64.125,162.016c0.375-2.353,2.995-4.618,5.426-3.841c0.568,0.497,1.209,0.92,1.912,1.222
		c1.293,2.052-0.558,4.287-2.58,4.807C67.037,165.029,64.531,164.125,64.125,162.016z"/>
	<path d="M83.844,159.572c1.676-0.519,3.641-0.437,5.09,0.638c1.336,1.017,2.03,3.086,1.043,4.574
		c-1.257,2.318-4.396,3.178-6.723,2.013c-1.816-0.799-2.882-2.877-2.598-4.815C81.277,160.738,82.565,159.982,83.844,159.572
		 M84.752,160.485c-1.441,0.34-3.75,1.361-2.855,3.217c1,3.297,6.291,3.273,7.334,0.013
		C89.825,161.296,86.778,159.83,84.752,160.485z"/>
	<path fill="#FEC0EF" d="M84.752,160.485c2.025-0.655,5.073,0.812,4.479,3.229c-1.044,3.261-6.334,3.284-7.334-0.013
		C81.002,161.846,83.311,160.825,84.752,160.485z"/>
	<path d="M48.964,168.792c2.061-0.786,4.737-0.634,6.203,1.195c2.035,2.166,0.345,5.88-2.261,6.684
		c-2.537,0.843-6.134,0.406-7.408-2.248C44.633,171.988,46.707,169.495,48.964,168.792 M49.859,169.687
		c-1.838,0.428-3.658,2.056-3.436,4.077c1.65,3.457,8.286,2.803,8.539-1.35C54.896,170,51.897,168.852,49.859,169.687z"/>
	<path fill="#FEC0EF" d="M49.859,169.687c2.039-0.834,5.038,0.314,5.104,2.728c-0.253,4.152-6.889,4.807-8.539,1.35
		C46.2,171.743,48.021,170.115,49.859,169.687z"/>
	<path d="M76.004,171.803c1.991-0.467,4.392,0.171,5.391,2.083c1.345,2.113-0.279,4.75-2.196,5.863
		c-2.549,1.677-6.618,1.262-8.093-1.633C70.193,175.003,73.157,172.292,76.004,171.803 M75.895,172.965
		c-1.925,0.511-3.917,2.073-3.864,4.243c0.366,1.454,1.956,2.282,3.361,2.432c2.436,0.144,5.16-1.581,5.431-4.135
		C80.482,173.257,77.872,172.267,75.895,172.965z"/>
	<path fill="#FEC0EF" d="M75.895,172.965c1.977-0.699,4.587,0.292,4.929,2.54c-0.271,2.554-2.995,4.278-5.431,4.135
		c-1.405-0.149-2.994-0.978-3.361-2.432C71.978,175.039,73.969,173.476,75.895,172.965z"/>
	<path fill="#FEC0EF" d="M91.397,178.959c0.519-1.838,2.768-2.756,4.526-2.58c1.751,0.942,2.375,3.091,2.501,4.954
		c-1.013,0.647-2.169,1.368-3.436,1.105C93.269,182.167,91.409,180.845,91.397,178.959z"/>
	<path d="M43.555,180.819c0.991-0.409,2.418-0.293,2.96,0.768c0.445,1.664-1.798,3.908-3.283,2.441
		C42.682,183.097,42.259,181.294,43.555,180.819 M44,181.749c-0.318,0.507-0.021,1.073,0.083,1.607
		c0.873,0.184,1.109-0.838,1.567-1.357C45.114,181.84,44.564,181.678,44,181.749z"/>
	<path d="M55.865,180.902c3.475-1.459,7.609,1.828,7.387,5.483c-0.153,1.882-1.576,3.832-3.566,3.968
		c-2.467,0.31-5.33-0.301-6.959-2.31c-0.603-0.878-1.126-2.279-0.288-3.155C53.714,183.625,53.892,181.417,55.865,180.902
		 M55.032,182.687c-0.572,1.191-1.083,2.437-2.192,3.261c0.874,3.061,4.719,4.021,7.465,3.23c1.637-0.751,2.479-2.994,1.606-4.609
		C60.881,182.002,57.115,180.347,55.032,182.687z"/>
	<path fill="#FEC0EF" d="M44,181.749c0.563-0.07,1.114,0.092,1.651,0.249c-0.458,0.519-0.694,1.541-1.567,1.358
		C43.978,182.822,43.681,182.255,44,181.749z"/>
	<path fill="#FEC0EF" d="M55.032,182.687c2.082-2.34,5.849-0.685,6.88,1.882c0.873,1.615,0.03,3.859-1.606,4.61
		c-2.746,0.79-6.592-0.171-7.465-3.23C53.949,185.124,54.46,183.878,55.032,182.687z"/>
	<path fill="#020905" d="M73.738,184.809c0.913-0.397,1.956-0.485,2.925-0.267c1.716,1.375-1.21,4.348-2.811,2.96
		C72.9,186.913,72.896,185.49,73.738,184.809 M73.978,185.969c0.319,0.288,0.65,0.572,0.992,0.852
		c0.476-0.375,0.873-0.829,1.271-1.274C75.467,185.555,74.698,185.677,73.978,185.969z"/>
	<path fill="#FEC0EF" d="M73.978,185.969c0.72-0.292,1.489-0.414,2.262-0.423c-0.397,0.445-0.795,0.899-1.271,1.274
		C74.628,186.542,74.297,186.258,73.978,185.969z"/>
	<path d="M81.067,191.235c1.855-3.013,6.68-3.396,9.063-0.825c1.014,1.078,1.41,2.793,0.869,4.173
		c-1.44,2.035-4.021,3.327-6.521,3.13c-1.415-0.092-2.515-1.074-3.354-2.126C81.146,194.134,80.858,192.667,81.067,191.235
		 M81.94,191.658c0.284,1.488-0.414,3.567,1.162,4.492c1.563,1.102,3.628,0.515,5.129-0.401c1.079-0.703,2.498-1.706,1.925-3.196
		C89.165,189,83.897,188.869,81.94,191.658z"/>
	<path fill="#FEC0EF" d="M32.86,190.03c1.1,0.044,2.218,0.07,3.265-0.332c1.162,0.65,2.41,1.725,2.021,3.23
		c-0.655,2.344-3.378,4.011-5.758,3.265c-0.79-0.282-1.401-0.882-2.03-1.401C31.166,193.19,32.031,191.618,32.86,190.03z"/>
	<path fill="#FEC0EF" d="M81.94,191.658c1.957-2.789,7.226-2.658,8.216,0.895c0.572,1.49-0.847,2.493-1.925,3.196
		c-1.501,0.916-3.566,1.502-5.129,0.401C81.526,195.225,82.224,193.146,81.94,191.658z"/>
	<path d="M97.726,192.182c1.31-0.625,2.92,0.69,2.772,2.113c-0.563,1.418-2.812,2.483-3.881,0.999
		C95.583,194.176,96.858,192.907,97.726,192.182 M97.438,194.928c0.664-0.228,1.319-0.485,1.943-0.794
		c-0.302-0.363-0.603-0.717-0.913-1.062C98.031,193.63,97.665,194.238,97.438,194.928z"/>
	<path fill="#FEC0EF" d="M97.438,194.928c0.228-0.69,0.593-1.298,1.03-1.856c0.31,0.346,0.611,0.699,0.913,1.062
		C98.757,194.443,98.102,194.701,97.438,194.928z"/>
	<path d="M69.028,194.063c1.781-0.433,3.427,0.743,4.584,1.974c0.633,0.707,1.562,1.502,1.13,2.572
		c-0.575,3.575-5.204,6.163-8.225,3.675C64.252,199.582,66.404,195.613,69.028,194.063 M66.74,200.389
		c0.393,1.737,2.629,2.122,4.052,1.488c1.606-0.664,2.501-2.266,3.042-3.824c-1.179-1.305-2.558-3.331-4.554-2.864
		C67.775,196.408,66.348,198.35,66.74,200.389z"/>
	<path fill="#FEC0EF" d="M66.74,200.389c-0.392-2.039,1.035-3.981,2.541-5.199c1.995-0.468,3.375,1.559,4.554,2.864
		c-0.541,1.558-1.437,3.159-3.042,3.824C69.368,202.511,67.133,202.126,66.74,200.389z"/>
	<path d="M45.777,200.52c1.864-0.506,3.981-0.336,5.618,0.747c1.096,0.585,1.244,1.965,1.406,3.072
		c-0.489,1.219-1.113,2.401-1.881,3.471c-1.799,1.913-5.191,1.883-7.046,0.065c-0.759-0.886-1.278-1.969-1.628-3.072
		C42.254,202.763,43.873,201.043,45.777,200.52 M43.493,203.445c-0.711,1.022-0.004,2.122,0.516,3.047
		c0.947,1.852,3.519,2.314,5.282,1.423c0.667-0.388,1.554-0.917,1.284-1.828c-0.375-0.986,0.598-1.114,1.271-1.357
		c-0.088-0.77-0.197-1.524-0.302-2.279C49.213,200.542,45.027,200.555,43.493,203.445z"/>
	<path fill="#FEC0EF" d="M43.493,203.445c1.533-2.89,5.719-2.902,8.05-0.995c0.105,0.755,0.214,1.51,0.302,2.279
		c-0.673,0.244-1.646,0.371-1.271,1.357c0.27,0.911-0.616,1.44-1.284,1.828c-1.764,0.892-4.335,0.429-5.282-1.423
		C43.49,205.567,42.782,204.467,43.493,203.445z"/>
	<path d="M99.15,203.231c2.732-0.707,6.688,0.898,6.452,4.169c-1.065,2.794-5.038,4.745-7.583,2.681
		c-1.118-1.235-1.82-3.052-1.467-4.711C96.871,204.187,98.014,203.467,99.15,203.231 M98.677,204.558
		c-0.698,0.358-1.292,1.097-1.135,1.93c0.284,1.305,0.816,2.978,2.31,3.301c1.903,0.341,3.698-1.013,4.649-2.562
		C104.397,204.549,100.782,203.572,98.677,204.558z"/>
	<path fill="#FEC0EF" d="M98.677,204.558c2.104-0.986,5.719-0.009,5.824,2.667c-0.952,1.55-2.746,2.903-4.649,2.563
		c-1.493-0.323-2.026-1.996-2.31-3.301C97.386,205.654,97.979,204.917,98.677,204.558z"/>
	<path d="M81.19,208.37c1.074-0.626,2.41,0.147,3.33,0.771c0.463,2.07-1.423,4.061-3.466,4.03c-0.833-0.191-1.371-0.978-2.068-1.419
		C79.793,210.669,80.273,209.36,81.19,208.37 M80.448,211.141c0.149,0.354,0.446,1.053,0.594,1.402
		c1.082-0.372,2.283-0.939,2.659-2.121c0.598-1.084-1.091-1.311-1.791-1.563C81.094,209.326,80.91,210.377,80.448,211.141z"/>
	<path fill="#FEC0EF" d="M80.448,211.141c0.464-0.764,0.646-1.815,1.463-2.282c0.699,0.253,2.388,0.479,1.79,1.563
		c-0.375,1.182-1.576,1.75-2.658,2.121C80.893,212.194,80.596,211.495,80.448,211.141z"/>
	<path fill="#FEC0EF" d="M21.535,209.403c1.345-0.065,2.685,0.599,2.637,2.104C22.858,212.452,21.61,210.595,21.535,209.403z"/>
	<path d="M63.82,211.12c2.841-0.942,6.303,2.593,4.396,5.256c-1.506,3.235-6.558,5.029-8.994,1.816
		C58.35,215.126,60.825,211.804,63.82,211.12 M60.113,217.458c0.733,1.091,2.271,1.61,3.527,1.23c2-0.453,3.353-2.19,4.169-3.968
		c-0.528-1.231-1.401-2.61-2.917-2.618C62.231,212.206,59.961,214.817,60.113,217.458z"/>
	<path fill="#FEC0EF" d="M60.113,217.458c-0.153-2.641,2.118-5.252,4.78-5.355c1.515,0.008,2.388,1.387,2.917,2.618
		c-0.816,1.777-2.17,3.515-4.169,3.968C62.384,219.069,60.846,218.548,60.113,217.458z"/>
	<path fill="#FEC0EF" d="M28.555,220.142c-1.253-1.934-0.039-4.919,2.314-5.159c1.043-0.437,1.738,0.585,2.445,1.153
		c-0.188,1.994,0.144,4.125-1.009,5.914C30.908,221.836,29.267,221.528,28.555,220.142z"/>
	<path fill="#FEC0EF" d="M90.82,221.121c-1.764-1.654-0.816-5.085,1.603-5.514c1.571-0.523,2.423,1.374,2.58,2.633
		c0.314,1.23-1.092,1.907-1.201,3.082C92.82,221.54,91.658,221.903,90.82,221.121z"/>
	<path fill="#FEC0EF" d="M113.071,218c0.139-0.021,0.423-0.069,0.563-0.092c0.733,1.431,1.379,2.917,1.873,4.452
		c-1.322,0.267-2.707,0.629-3.994,0.018C110.992,220.684,112.019,219.217,113.071,218z"/>
	<path d="M47.209,221.579c1.681-0.471,3.798-0.213,4.964,1.201c0.55,1.161,0.677,2.522,0.589,3.797c-1,3.655-6.286,4.999-8.953,2.34
		c-1.314-1.161-1.397-3.519-0.013-4.645C44.707,223.132,45.707,221.907,47.209,221.579 M47.069,222.745
		c-1.545,0.556-2.222,2.179-3.173,3.384c0.096,0.555,0.188,1.122,0.27,1.693c1.72,1.947,4.973,1.877,6.706-0.01
		c1.332-1.169,0.891-3.169,0.336-4.614C50.042,222.312,48.401,222.147,47.069,222.745z"/>
	<path fill="#FEC0EF" d="M47.069,222.745c1.332-0.598,2.973-0.433,4.139,0.453c0.554,1.446,0.995,3.445-0.336,4.614
		c-1.733,1.887-4.985,1.957-6.706,0.01c-0.083-0.571-0.174-1.139-0.27-1.693C44.847,224.923,45.524,223.299,47.069,222.745z"/>
	<path d="M81.648,222.849c2.506-1.279,6.505,0.136,6.483,3.292c-0.262,3.427-5.011,4.784-7.644,3.161
		C78.165,227.656,79.618,224.08,81.648,222.849 M80.322,226.608c0.148,0.686,0.188,1.584,0.956,1.902
		c1.873,0.865,4.396,0.176,5.562-1.536c0.943-2.331-2.074-4.021-4.05-3.361C81.317,223.893,80.997,225.512,80.322,226.608z"/>
	<path fill="#FEC0EF" d="M80.322,226.608c0.676-1.096,0.995-2.716,2.467-2.995c1.977-0.659,4.993,1.03,4.05,3.361
		c-1.166,1.712-3.688,2.401-5.562,1.537C80.509,228.192,80.469,227.293,80.322,226.608z"/>
	<path d="M60.738,227.687c0.903-0.206,1.991-0.102,2.628,0.654c0.336,1.462-1.598,3.685-2.916,2.257
		C59.507,229.769,59.965,228.442,60.738,227.687 M61.139,229.598c0.306,0.829,1.1-0.589,1.305-0.902
		C61.894,228.857,60.658,228.638,61.139,229.598z"/>
	<path fill="#FEC0EF" d="M61.139,229.598c-0.48-0.96,0.755-0.741,1.305-0.902C62.239,229.009,61.445,230.427,61.139,229.598z"/>
</g>
</svg>
