<?xml version="1.0" encoding="utf-8"?>
<!-- Generator: Adobe Illustrator 16.0.0, SVG Export Plug-In . SVG Version: 6.00 Build 0)  -->
<!DOCTYPE svg PUBLIC "-//W3C//DTD SVG 1.1//EN" "http://www.w3.org/Graphics/SVG/1.1/DTD/svg11.dtd">
<svg version="1.1" id="Layer_1" xmlns="http://www.w3.org/2000/svg" xmlns:xlink="http://www.w3.org/1999/xlink" x="0px" y="0px"
	 width="100px" height="auto" viewBox="0 0 109.5 147.5" enable-background="new 0 0 109.5 147.5" xml:space="preserve">
<g>
	<path d="M76.569,2.814c2.3-0.716,4.449,1.218,5.679,2.978c2.819,4.533,2.813,10.065,4.133,15.095
		c0.423,0.383,0.829,0.789,1.224,1.212c-0.13,0.987-0.976,1.636-1.512,2.402c3.26,11.982,5.51,24.23,6.875,36.568
		c0.377,3.671,0.434,7.539,2.188,10.889c1.646,3.09,4.234,5.52,6.338,8.295c2.848,3.654,4.433,8.063,6.35,12.236
		c1.139,2.03,0.187,4.37,0.53,6.547c-2.516,4.708-7.687,6.766-12.073,9.281c-5.718,3.75-12.688,4.681-18.654,7.94
		c-9.152,5.113-17.396,11.733-26.711,16.583c-4.489,2.324-8.881,4.844-13.522,6.856c-4.511,2.054-9.642,1.534-14.306,3.045
		c-4.798,1.343-9.637,3.971-14.75,2.804c-2.871-0.632-4.224-3.575-5.075-6.103c-1.54-4.944-2.126-10.466-0.08-15.359
		c3.018-7.449,8.357-13.849,14.662-18.76c0.057-0.351,0.164-1.055,0.22-1.411c8.323-4.708,14.266-12.423,21.856-18.095
		c3.801-3.321,8.554-5.881,10.962-10.493c1.297-5.341,4.387-10.612,2.854-16.269c-1.117-3.372-2.842-6.53-3.446-10.071
		c-2.926-4.415-3.58-10.551-8.526-13.403c0.096-1.145-0.073-2.346,0.276-3.446c0.519-0.349,1.06-0.67,1.618-0.97
		c-1.302-4.285-3.31-8.322-5.582-12.163c-0.666-1.584-2.594-1.506-3.959-2.07c1.32-2.436,3.603-4.15,6.09-5.278
		c5.656-2.588,11.943-3.135,17.825-5.025C64.085,4.72,70.513,4.641,76.569,2.814 M73.44,7.658c0.119,4.472,2.221,8.6,2.887,12.998
		c0.434,0.479,0.856,0.976,1.28,1.478c1.246-0.282,2.594-0.338,3.71-1.032c-0.304-4.866-1.833-9.608-3.795-14.046
		C76.135,6.975,74.788,7.466,73.44,7.658 M65.625,9.045c1.567,4.895,2.881,9.857,4.438,14.751c1.844-0.377,5.284,0.023,5.233-2.701
		c-0.841-4.562-1.986-9.129-3.902-13.369C69.391,7.703,67.378,8.047,65.625,9.045 M58.716,10.133
		c1.342,4.833,3.142,9.535,4.145,14.463c0.276,0.242,0.829,0.722,1.105,0.965c1.714-0.396,3.428-0.824,5.064-1.489
		c-1.19-4.049-2.363-8.098-3.558-12.146c-0.311-1.139-0.818-2.205-1.449-3.197C62.246,9.181,60.481,9.654,58.716,10.133
		 M51.888,11.718c1.545,4.252,2.803,8.6,4.127,12.925c0.316,1.201,0.97,2.256,1.652,3.275c1.427-0.524,2.842-1.077,4.281-1.567
		c-0.327-3.801-1.619-7.421-2.696-11.052c-0.462-1.663-1.139-3.254-2.092-4.691C55.395,10.957,53.63,11.283,51.888,11.718
		 M45.905,13.477c-0.563,1.275,0.519,2.425,0.942,3.564c1.505,3.123,2.109,6.647,4.032,9.574c0.445,0.768,1.06,1.488,1.105,2.426
		c-1.208,0.027-1.692-1.111-2.25-1.957c-2.245-3.671-2.751-8.137-5.125-11.741c-0.525-1.032-1.855-0.688-2.679-0.298
		c-0.491,0.31-1.534,0.383-1.195,1.189c3.016,4.652,5.503,9.625,7.753,14.694c2.34-0.828,4.72-1.539,7.077-2.317
		c0.05-0.654,0.113-1.303,0.186-1.95c-1.342-4.111-2.487-8.29-3.902-12.377c-0.237-0.931-0.964-1.573-1.567-2.267
		C48.826,12.519,47.315,12.862,45.905,13.477 M48.352,34.218C51.86,42.01,55.3,49.836,58.49,57.765
		c0.74,1.731,0.339,3.665,0.209,5.481c-0.682,5.746-1.866,11.645-4.951,16.629C50.168,85.249,43.655,87.363,39.2,91.83
		c-5.052,4.95-10.556,9.428-15.642,14.333c2.566,2.143,5.131,4.354,7.06,7.122c2.554,3.355,4.139,7.291,5.706,11.165
		c1.088,2.983,0.846,6.23,1.686,9.271c0.203,0.084,0.609,0.26,0.812,0.351c12.457-5.087,23.971-12.305,34.837-20.194
		c2.746-1.726,6.378-1.726,8.695-4.206c-0.778-1.849-1.478-3.756-1.732-5.752c-0.23-2.12-1.285-4.026-1.607-6.124
		c-1.263-7.042,0.863-14.525,5.295-20.091c1.54-1.996,3.598-3.485,5.437-5.188c-2.166-7.573-2.188-15.512-3.322-23.26
		c-1.15-6.936-2.875-13.759-4.24-20.655c-0.231-1.173-0.615-2.307-1.094-3.401C69.904,27.128,59.179,30.929,48.352,34.218
		 M88.62,75.251c-6.208,5.08-9.547,13.494-8.481,21.439c0.22,2.306,1.41,4.369,1.692,6.665c0.231,2.024,0.958,3.931,1.691,5.825
		c7.172-1.771,13.697-5.453,19.686-9.692c0.214-9.018-5.712-16.422-10.568-23.454C91.953,74.603,89.742,74.066,88.62,75.251
		 M7.667,126.188c-1.449,5.058-0.874,11.216,2.921,15.141c8.555-0.739,16.759-3.424,25.031-5.549c0.203-0.66,0.44-1.297,0.722-1.917
		c-0.671-3.655-0.581-7.533-2.357-10.9c-1.748-4.636-4.326-8.999-7.895-12.468c-1.365-1.292-2.752-2.707-4.63-3.203
		C16.019,112.857,10.036,118.535,7.667,126.188z"/>
	<path fill="#9BFFE9" d="M73.44,7.658c1.348-0.192,2.695-0.683,4.082-0.604c1.962,4.438,3.491,9.18,3.795,14.046
		c-1.116,0.694-2.464,0.75-3.71,1.032c-0.423-0.502-0.846-0.998-1.28-1.478C75.661,16.257,73.559,12.129,73.44,7.658z"/>
	<path fill="#9BFFE9" d="M65.625,9.045c1.753-0.998,3.767-1.342,5.769-1.319c1.917,4.24,3.062,8.808,3.902,13.369
		c0.05,2.725-3.39,2.324-5.233,2.701C68.506,18.902,67.192,13.939,65.625,9.045z"/>
	<path fill="#9BFFE9" d="M58.716,10.133c1.765-0.479,3.53-0.953,5.307-1.404c0.631,0.992,1.139,2.058,1.449,3.197
		c1.195,4.048,2.368,8.097,3.558,12.146c-1.636,0.665-3.35,1.094-5.064,1.489c-0.276-0.243-0.829-0.723-1.105-0.965
		C61.858,19.668,60.059,14.966,58.716,10.133z"/>
	<path fill="#9BFFE9" d="M51.888,11.718c1.743-0.435,3.507-0.761,5.272-1.111c0.953,1.438,1.629,3.028,2.092,4.691
		c1.078,3.631,2.369,7.251,2.696,11.052c-1.439,0.49-2.854,1.043-4.281,1.567c-0.682-1.02-1.336-2.074-1.652-3.275
		C54.69,20.317,53.433,15.97,51.888,11.718z"/>
	<path fill="#9BFFE9" d="M45.905,13.477c1.41-0.614,2.921-0.958,4.376-1.46c0.603,0.694,1.331,1.336,1.567,2.267
		c1.416,4.088,2.561,8.266,3.902,12.377c-0.073,0.647-0.136,1.296-0.186,1.95c-2.357,0.778-4.737,1.489-7.077,2.317
		c-2.25-5.069-4.737-10.042-7.753-14.694c-0.339-0.806,0.705-0.879,1.195-1.189c0.823-0.389,2.154-0.733,2.679,0.298
		c2.374,3.604,2.881,8.07,5.125,11.741c0.558,0.846,1.042,1.984,2.25,1.957c-0.045-0.938-0.66-1.658-1.105-2.426
		c-1.923-2.927-2.526-6.451-4.032-9.574C46.424,15.901,45.341,14.751,45.905,13.477z"/>
	<path fill="#9BFFE9" d="M48.352,34.218c10.827-3.289,21.552-7.09,32.74-9.019c0.479,1.095,0.863,2.229,1.094,3.401
		c1.365,6.896,3.09,13.72,4.24,20.655c1.134,7.748,1.156,15.687,3.322,23.26c-1.838,1.703-3.896,3.192-5.437,5.188
		c-4.432,5.565-6.558,13.049-5.295,20.091c0.322,2.098,1.376,4.004,1.607,6.124c0.254,1.996,0.954,3.903,1.732,5.752
		c-2.317,2.48-5.949,2.48-8.695,4.206c-10.866,7.89-22.38,15.107-34.837,20.194c-0.203-0.091-0.609-0.267-0.812-0.351
		c-0.84-3.04-0.598-6.287-1.686-9.271c-1.567-3.874-3.152-7.81-5.706-11.165c-1.929-2.769-4.494-4.979-7.06-7.122
		c5.086-4.905,10.59-9.383,15.642-14.333c4.455-4.467,10.968-6.581,14.548-11.955c3.084-4.984,4.269-10.883,4.951-16.629
		c0.13-1.816,0.531-3.75-0.209-5.481C55.3,49.836,51.86,42.01,48.352,34.218z"/>
	<path fill="#9BFFE9" d="M88.62,75.251c1.122-1.185,3.333-0.648,4.021,0.783c4.855,7.032,10.782,14.437,10.568,23.454
		c-5.989,4.239-12.514,7.921-19.686,9.692c-0.733-1.895-1.46-3.801-1.691-5.825c-0.282-2.296-1.472-4.359-1.692-6.665
		C79.073,88.745,82.412,80.331,88.62,75.251z"/>
	<path fill="#9BFFE9" d="M7.667,126.188c2.368-7.652,8.352-13.33,13.792-18.896c1.877,0.496,3.265,1.911,4.63,3.203
		c3.569,3.469,6.146,7.832,7.895,12.468c1.776,3.367,1.686,7.245,2.357,10.9c-0.282,0.62-0.519,1.257-0.722,1.917
		c-8.272,2.125-16.477,4.81-25.031,5.549C6.793,137.403,6.219,131.245,7.667,126.188z"/>
</g>
</svg>
