<?xml version="1.0" encoding="utf-8"?>
<!-- Generator: Adobe Illustrator 16.0.0, SVG Export Plug-In . SVG Version: 6.00 Build 0)  -->
<!DOCTYPE svg PUBLIC "-//W3C//DTD SVG 1.1//EN" "http://www.w3.org/Graphics/SVG/1.1/DTD/svg11.dtd">
<svg version="1.1" id="Layer_1" xmlns="http://www.w3.org/2000/svg" xmlns:xlink="http://www.w3.org/1999/xlink" x="0px" y="0px"
	 width="150px" height="auto" viewBox="0 0 111.687 150.332" enable-background="new 0 0 111.687 150.332"
	 xml:space="preserve">
<g>
	<path d="M102.578,2.26c1.646-0.078,3.111-0.87,4.692-1.228c1.189-0.252,1.74,1.043,2.417,1.764c-1.37,0.797-2.992,0.856-4.46,1.366
		C99.822,5.764,94.342,8.3,90.831,12.875c-1.163,1.347-1.526,3.148-2.593,4.552c-1.292,2.794-3.009,5.521-5.623,7.256
		c-2.396,1.635-5.453,2.738-6.795,5.509c-0.748,1.17,0.322,2.706-0.707,3.76c1.73,2.217,3.929,3.99,5.908,5.97
		c2.577,2.566,4.089,5.921,6.024,8.95c2.978,4.904,3.056,10.901,2.56,16.45c-0.493,5.788-1.533,11.54-1.465,17.365
		c0.027,1.515-0.435,2.965-0.645,4.45c-0.691,4.345-0.867,8.743-1.136,13.125c1.499,1.259,0.693,3.271,1.114,4.919
		c0.521,2.033,1.31,4.001,2.336,5.836c0.856,1.5,1.081,3.236,1.662,4.844c0.86,2.455,1.938,4.825,2.866,7.256
		c0.422,0.877,0.064,1.849-0.024,2.76c-1.774,0.388-3.613,0.064-5.384,0.479c-3.074,0.642-5.847,2.229-8.403,3.997
		c-1.306,1.014-2.016,2.57-2.876,3.94c-2.257,4.034-3.793,8.449-4.772,12.962c-2.06,1.699-5.32,2.335-7.679,0.951
		c-0.622-1.886-1.509-3.665-2.461-5.401c-0.904-1.449-2.478-2.369-3.196-3.946c-0.656-1.625-2.199-2.584-3.61-3.482
		c-1.652-1.016-3.433-1.791-5.177-2.623c-1.299-0.604-2.39-1.687-3.855-1.891c-3.283-0.525-6.822,0.102-9.875-1.516
		c0.109-1.418-0.115-3.033,0.826-4.22c0.136-1.131,0.119-2.334,0.741-3.333c0.571-1.336,1.7-2.363,2.104-3.777
		c0.235-0.792,0.734-1.51,0.765-2.355c0.157-2.403-0.152-4.901,0.769-7.189c-0.136-0.722-0.792-1.197-1.22-1.748
		c-0.241-2.355-0.129-4.772-0.803-7.061c-0.554-1.923-0.241-4.045-1.158-5.863c-1.021-2.24-1.782-4.606-2.139-7.04
		c-0.156-1.632-1.129-3.015-1.476-4.596c-0.537-1.648-0.391-3.511-1.37-5.004c-0.731-2.057-1.037-4.245-1.567-6.359
		c-0.551-2.604-1.489-5.151-1.54-7.836c0.01-2.37-0.146-4.766,0.38-7.099c0.408-1.811,0.303-3.956,1.768-5.322
		c0.728-2.502,2.162-4.698,3.434-6.948c0.907-1.595,2.359-2.944,2.627-4.834c0.245-1.534,1.061-2.88,2.016-4.072
		c-0.507-1.149-1.132-2.373-2.332-2.931c-2.298-1.155-4.898-1.536-7.424-1.856c-2.253-0.238-4.321,0.854-6.034,2.203
		c-1.312,1.026-2.811,2.114-3.229,3.824c-0.5,2.077,0.241,4.15,0.962,6.074c0.7,1.374-0.51,2.894-1.778,3.379
		c-2.552,0.891-5.296,0.374-7.93,0.572c-1.741,0.053-3.443,0.475-5.048,1.122c-1.157,0.475-2.421,0.825-3.315,1.746
		c-0.72,0.762-1.879,0.592-2.824,0.625c-0.836,0.123-0.884-0.859-1.153-1.391c3.332-2.063,7.047-3.667,10.987-3.983
		c2.495-0.23,5.079,0.118,7.502-0.649c0.805-0.159,0.904-1.22,0.652-1.863c-0.441-1.623-1.537-3.422-0.557-5.061
		c-0.059-0.996-0.351-2.145,0.394-2.967c1.462-1.84,3.376-3.285,5.382-4.484c1.496-0.915,3.284-1.275,5.024-1.067
		c3.586,0.472,7.21,1.125,10.511,2.668c1.587,0.925,2.332,2.72,2.853,4.399c1.353,0.607,2.702,1.247,4.16,1.573
		c2.733,1.009,4.504,3.532,5.857,5.99c1.149,2.308,2.59,4.452,3.752,6.75c1.237,2.383,1.856,5.062,3.349,7.316
		c0.86-2.502,1.42-5.09,2.077-7.645c0.251-1.116,0.938-2.099,0.961-3.269c0.208-0.192,0.425-0.387,0.646-0.577
		c0.895-3.375,2.312-6.693,4.626-9.348c1.051-1.234,2.441-2.125,3.951-2.699c-0.188-1.026-0.776-2.088-0.354-3.125
		c0.846-2.685,3.31-4.341,5.523-5.846c2.499-1.595,4.881-3.532,6.387-6.13c1.238-2.179,2.08-4.595,3.706-6.54
		C92.061,7.025,97.364,4.378,102.578,2.26 M69.088,41.431c-2.77,5.448-3.671,11.57-5.544,17.332c-0.683,0.582-1.696,0.7-2.536,0.992
		c-0.856,0.18-2.192,0.442-2.58-0.602c-0.718-2.471-1.744-4.834-2.683-7.224c-1.948-4.738-4.195-9.511-7.839-13.198
		c-1.18-1.354-3.022-1.704-4.576-2.441c-1.978,5.449-5.479,10.154-7.73,15.478c-1.397,3.301-2.1,6.92-1.777,10.508
		c0.064,4.837,2.186,9.279,3.263,13.92c0.557,2.32,0.686,4.765,1.679,6.964c0.955,2.251,1.143,4.729,2.046,6.997
		c0.992,2.79,2.566,5.595,1.975,8.66c2.21-0.21,3.512,2.078,5.64,2.156c1.38,0.663,2.964,0.571,4.457,0.743
		c10.225,0.592,19.995-3.021,29.897-4.956c0.928-0.094,1.016-1.151,1.122-1.879c0.136-1.81,0.225-3.627,0.564-5.412
		c0.157-4.089,1.224-8.111,1.043-12.224c-0.074-1.383,0.347-2.727,0.395-4.1c0.034-0.589-0.044-1.236,0.418-1.687
		c-0.19-2.96,0.041-5.925,0.397-8.866c0.84-2.188-0.116-4.495-0.091-6.749c-1.455-5.32-4.392-10.142-7.883-14.37
		c-1.683-1.92-3.369-3.919-5.469-5.381C71.455,37.479,70.163,39.438,69.088,41.431 M71.268,100.405
		c-7.067,1.683-14.41,3.015-21.674,1.93c-0.271,0.27-0.547,0.523-0.835,0.765c-0.545-0.017-0.762-0.598-1.089-0.928
		c-1.642-0.533-2.902-1.802-4.548-2.314c0.578,2.145,0.266,4.392,0.771,6.529c0.51-0.133,1.023-0.271,1.543-0.407
		c1.193,0.649,2.57,0.724,3.892,0.921c11.119,1.34,22.055-1.812,32.974-3.351c0.666-0.467,1.346-0.923,2.009-1.4
		c-0.499-0.688-0.89-1.438-1.25-2.196c0.323-0.766,0.465-1.585,0.608-2.396C79.501,98.352,75.397,99.439,71.268,100.405
		 M48.492,101.921c-0.135,0.5,0.031,0.628,0.5,0.391C49.111,101.812,48.944,101.683,48.492,101.921 M82.094,104.783
		c-4.708,0.449-9.325,1.492-13.988,2.22c-7.417,1.213-15.072,1.899-22.489,0.332c-1.673,3.728-0.154,8.137-2.196,11.752
		c-1.53,2.771-3.216,5.671-3.073,8.958c5.102,0.489,10.3,1.471,14.784,4.083c5.65,3.215,10.028,8.488,12.466,14.486
		c0.754-0.077,1.519-0.189,2.281-0.305c1.013-1.837,1.628-3.849,1.978-5.908c1.081-2.744,2.329-5.442,3.886-7.95
		c1.635-2.633,3.913-4.937,6.768-6.215c2.753-1.204,5.643-2.374,8.706-2.302c-0.007-0.197-0.021-0.588-0.024-0.785
		c-1.176-2.284-1.54-4.874-2.54-7.233c-1.302-3.151-2.334-6.411-3.82-9.477c-0.398-0.867-0.432-1.837-0.469-2.769
		C83.665,104.15,82.992,104.79,82.094,104.783z"/>
	<path fill="#CE62E9" d="M69.088,41.431c1.075-1.993,2.367-3.951,4.189-5.338c2.101,1.462,3.786,3.461,5.469,5.381
		c3.491,4.229,6.428,9.05,7.883,14.37c-0.024,2.254,0.931,4.561,0.091,6.749c-0.357,2.941-0.588,5.906-0.397,8.866
		c-0.462,0.45-0.384,1.098-0.418,1.687c-0.048,1.373-0.469,2.717-0.395,4.1c0.181,4.112-0.887,8.135-1.043,12.224
		c-0.339,1.785-0.428,3.603-0.564,5.412c-0.105,0.728-0.194,1.785-1.122,1.879c-9.902,1.935-19.672,5.548-29.897,4.956
		c-1.492-0.172-3.076-0.08-4.457-0.743c-2.128-0.078-3.429-2.366-5.64-2.156c0.592-3.065-0.982-5.87-1.975-8.66
		c-0.904-2.268-1.091-4.746-2.046-6.997c-0.993-2.199-1.122-4.644-1.679-6.964c-1.078-4.641-3.199-9.083-3.263-13.92
		c-0.323-3.588,0.38-7.207,1.777-10.508c2.251-5.323,5.752-10.028,7.73-15.478c1.553,0.737,3.396,1.088,4.576,2.441
		c3.644,3.688,5.891,8.46,7.839,13.198c0.938,2.39,1.965,4.753,2.683,7.224c0.387,1.044,1.723,0.781,2.58,0.602
		c0.839-0.292,1.853-0.41,2.536-0.992C65.417,53.001,66.318,46.879,69.088,41.431 M75.728,66.737
		c1.217,1.238,2.832,0.289,4.116-0.282c-1.125,1.714-3.313,2.288-5.255,2.271c-1.622,0.021-3.089-0.713-4.609-1.146
		c0.164,0.477,0.466,0.919,0.983,1.062c2.39,0.992,5.231,1.084,7.58-0.085c1.187-0.596,2.111-1.658,2.499-2.934
		c-1.601-0.181-2.815,1.073-4.364,1.125c0.448-0.612,1.036-1.125,1.777-1.346c0.769-0.382,1.85-0.323,2.25-1.225
		C78.78,64.267,76.774,65.041,75.728,66.737 M39.372,67.315c0.092,0.149,0.275,0.447,0.368,0.599c2.141,0.476,4.3,0.896,6.455,1.346
		c-2.333,1.299-5.042,0.367-7.244-0.724c-0.054,0.118-0.164,0.363-0.217,0.485c2.464,1.503,6.03,2.295,8.434,0.263
		c1.428,0.085,2.883,0.391,4.307,0.071c0.833-0.204,1.833-0.656,1.833-1.663c-0.83,0.371-1.584,0.969-2.505,1.085
		c-1.245,0.129-2.485-0.116-3.719-0.187C44.464,68.451,41.993,67.411,39.372,67.315z"/>
	<path d="M75.728,66.737c1.047-1.696,3.053-2.471,4.976-2.56c-0.401,0.901-1.481,0.843-2.25,1.225
		c-0.741,0.221-1.329,0.733-1.777,1.346c1.549-0.052,2.763-1.306,4.364-1.125c-0.388,1.275-1.312,2.338-2.499,2.934
		c-2.349,1.169-5.19,1.077-7.58,0.085c-0.517-0.143-0.819-0.585-0.983-1.062c1.52,0.433,2.988,1.167,4.609,1.146
		c1.942,0.018,4.131-0.557,5.255-2.271C78.559,67.026,76.944,67.976,75.728,66.737z"/>
	<path d="M39.372,67.315c2.621,0.096,5.092,1.136,7.71,1.275c1.234,0.07,2.474,0.315,3.719,0.187
		c0.921-0.116,1.676-0.714,2.505-1.085c0,1.007-1,1.459-1.833,1.663c-1.424,0.319-2.879,0.014-4.307-0.071
		c-2.403,2.032-5.969,1.24-8.434-0.263c0.054-0.122,0.163-0.367,0.217-0.485c2.203,1.091,4.912,2.022,7.244,0.724
		c-2.155-0.449-4.314-0.87-6.455-1.346C39.647,67.763,39.463,67.465,39.372,67.315z"/>
	<path fill="#FEFC42" d="M71.268,100.405c4.13-0.966,8.233-2.054,12.4-2.849c-0.143,0.812-0.285,1.631-0.608,2.396
		c0.36,0.758,0.751,1.509,1.25,2.196c-0.663,0.478-1.343,0.934-2.009,1.4c-10.919,1.539-21.854,4.69-32.974,3.351
		c-1.322-0.197-2.699-0.271-3.892-0.921c-0.52,0.136-1.034,0.274-1.543,0.407c-0.506-2.138-0.193-4.385-0.771-6.529
		c1.646,0.513,2.906,1.781,4.548,2.314c0.327,0.33,0.544,0.911,1.089,0.928c0.288-0.241,0.564-0.495,0.835-0.765
		C56.858,103.42,64.2,102.088,71.268,100.405z"/>
	<path fill="#CE62E9" d="M82.094,104.783c0.898,0.007,1.57-0.633,2.268-1.112c0.038,0.932,0.071,1.901,0.469,2.769
		c1.486,3.065,2.518,6.325,3.82,9.477c1,2.359,1.364,4.949,2.54,7.233c0.003,0.197,0.017,0.588,0.024,0.785
		c-3.063-0.072-5.953,1.098-8.706,2.302c-2.855,1.278-5.133,3.582-6.768,6.215c-1.557,2.508-2.805,5.206-3.886,7.95
		c-0.35,2.06-0.965,4.071-1.978,5.908c-0.762,0.115-1.526,0.228-2.281,0.305c-2.438-5.998-6.816-11.271-12.466-14.486
		c-4.484-2.612-9.682-3.594-14.784-4.083c-0.143-3.287,1.543-6.188,3.073-8.958c2.042-3.615,0.523-8.024,2.196-11.752
		c7.417,1.567,15.072,0.881,22.489-0.332C72.77,106.275,77.387,105.232,82.094,104.783 M48.57,114.063
		c-1.241,0.574-1.951,1.846-2.156,3.153c4.246,2.87,10.287,1.891,14.043-1.365c-0.486-1.034-1.21-1.996-2.288-2.455
		c-1.948-1.017-4.181-0.435-6.265-0.584C50.776,113.18,49.655,113.584,48.57,114.063z"/>
	<path d="M48.57,114.063c1.084-0.479,2.206-0.884,3.334-1.251c2.084,0.149,4.317-0.433,6.265,0.584
		c1.078,0.459,1.802,1.421,2.288,2.455c-3.756,3.256-9.797,4.235-14.043,1.365C46.619,115.909,47.33,114.638,48.57,114.063
		 M53.404,113.828c-0.734,0.823-2.077,0.979-2.423,2.135c1.39,0.358,2.825,0.212,4.229-0.014c-0.476-0.438-1.53-0.608-1.401-1.434
		c0.69-0.303,1.411,0.166,1.981,0.544c0.408,0.52,0.336,1.51-0.397,1.71c-1.482,0.397-3.179,0.608-4.626,0
		c-1.003-0.5-0.439-1.659-0.354-2.488c-1.302,0.316-2.597,1.084-3.032,2.42c1.143,0.932,2.675,1.23,4.114,1.325
		c2.776,0.109,5.689-0.648,7.852-2.444C58.119,113.639,55.468,113.314,53.404,113.828z"/>
	<path fill="#FEFC42" d="M53.404,113.828c2.064-0.514,4.715-0.189,5.942,1.754c-2.162,1.796-5.075,2.554-7.852,2.444
		c-1.438-0.095-2.971-0.394-4.114-1.325c0.435-1.336,1.73-2.104,3.032-2.42c-0.085,0.829-0.649,1.988,0.354,2.488
		c1.447,0.608,3.144,0.397,4.626,0c0.734-0.2,0.806-1.19,0.397-1.71c-0.571-0.378-1.291-0.847-1.981-0.544
		c-0.129,0.825,0.925,0.995,1.401,1.434c-1.404,0.226-2.839,0.372-4.229,0.014C51.327,114.808,52.669,114.651,53.404,113.828z"/>
</g>
</svg>
