<?xml version="1.0" encoding="utf-8"?>
<!-- Generator: Adobe Illustrator 16.0.0, SVG Export Plug-In . SVG Version: 6.00 Build 0)  -->
<!DOCTYPE svg PUBLIC "-//W3C//DTD SVG 1.1//EN" "http://www.w3.org/Graphics/SVG/1.1/DTD/svg11.dtd">
<svg version="1.1" id="Layer_1" xmlns="http://www.w3.org/2000/svg" xmlns:xlink="http://www.w3.org/1999/xlink" x="0px" y="0px"
	 width="150px" height="auto" viewBox="0 0 110.173 94.852" enable-background="new 0 0 110.173 94.852"
	 xml:space="preserve">
<g>
	<g>
		<path d="M66.559,2.941c0.322-0.62,0.577-1.65,1.448-1.609c0.997,0.476,1.867,1.254,3.013,1.397
			c2.626,0.441,4.663,2.686,7.416,2.641c1.051-0.098,1.562,0.938,2.346,1.422c1.631,0.754,3.462,0.739,5.206,1.021
			C87.22,7.99,88.179,8.86,89.34,9.25c1.877,0.652,3.881,0.981,5.652,1.924c0.905,0.471,1.662,1.222,2.652,1.529
			c0.924,0.209,1.906,0.127,2.819,0.438c2.371,0.779,4.511,2.109,6.858,2.954c-0.015,1.482,0.059,2.969-0.021,4.449
			c-0.243,0.93-0.816,1.73-1.21,2.599c-1.384,2.869-2.74,5.773-3.621,8.844c-0.717,2.472-1.456,4.94-2.185,7.408
			c-0.176,0.501-0.424,1.15-1.017,1.238c-0.97-0.041-1.885-0.41-2.825-0.608c-1.775-0.415-3.554-0.905-5.128-1.848
			c-0.972-0.619-2.232-0.612-3.1-1.394c-1.548-1.272-3.646-1.369-5.463-2.031c-1.005-0.491-2.15-0.916-2.815-1.855
			c-0.359-0.396-0.067-0.885,0.27-1.173c0.806-0.179,1.419,0.485,2.019,0.915c1.23,1.062,2.894,1.271,4.394,1.756
			c1.464,0.406,2.732,1.271,4.132,1.845c2.522,1.069,5.133,1.936,7.797,2.587c0.925-2.916,1.724-5.867,2.557-8.811
			c0.265-1.097,0.853-2.071,1.232-3.13c1.081-3.165,3.08-5.933,4.022-9.156c-2.145-1.061-4.228-2.35-6.591-2.857
			c-1.352-0.334-2.761-0.56-3.988-1.252c-1.436-0.781-2.679-1.967-4.305-2.349c-1.27-0.278-2.595-0.388-3.755-1.007
			c-2.321-1.304-5.211-0.601-7.535-1.905c-0.863-0.493-1.46-1.518-2.541-1.541c-2.674-0.026-4.794-1.828-7.17-2.781
			c0,0.813,0.037,1.631,0.23,2.426c-1.226,2.831-3.809,4.826-6.596,5.984c-4.911,1.999-10.434,3.052-15.649,1.666
			c-1.406-0.308-2.408-1.395-3.539-2.19c-1.24-0.928-2.686-1.581-3.764-2.711c-0.93-0.939-1.3-2.278-2.269-3.186
			c-3.145,1.299-6.26,2.728-9.561,3.581C28.32,9.9,27.17,9.905,26.366,10.659c-2.031,1.684-4.377,2.978-6.875,3.831
			c-2.063,0.725-4.171,1.329-6.182,2.192c-1.887,0.845-3.663,1.932-5.622,2.61c-1.396,0.494-2.81,1.06-3.867,2.134
			c4.194,5.977,6.2,13.087,8.675,19.867c1.228-0.544,2.398-1.253,3.717-1.573c2.225-0.54,4.565-0.515,6.753-1.242
			c1.173-0.372,1.984-1.387,3.123-1.845c0.437-0.25,1.091-0.387,1.2-0.97c0.293-0.82,0.174-1.823,0.787-2.505
			c0.975-0.364,1.317,0.648,1.419,1.401c0.508-0.231,1.014-0.503,1.577-0.6c0.531-0.134,0.851,0.411,1.23,0.677
			c-1.017,1.075-2.527,1.341-3.717,2.149c0.91,1.571,0.771,3.543,0.064,5.161c-0.348,0.714-0.464,1.513-0.246,2.284
			c0.439,1.836,0.157,3.724,0.117,5.588c-0.126,2.045-0.236,4.104,0.02,6.146c0.168,1.236-0.077,2.524,0.347,3.723
			c0.729,2.088,0.38,4.339,0.382,6.504c-0.132,2.49,0.635,4.927,0.496,7.418c-0.171,3.718,0.052,7.438-0.002,11.157
			c-0.052,1.833,0.379,3.636,0.332,5.469c2.026,0.097,4.117-0.286,6.081,0.367c1.255,0.263,2.547,0.086,3.824,0.129
			c3.209,0.076,6.416-0.295,9.627-0.065c1.828,0.164,3.68-0.087,5.503,0.237c1.917,0.147,3.862,0.805,5.766,0.164
			c1.044-1.18,2.701-1.17,4.149-1.085c1.317,0.009,2.363,1.101,3.702,1.003c2.5,0.16,4.968-0.326,7.465-0.249
			c1.607-0.936,3.501-0.211,5.225-0.665c0.739-0.199,1.51-0.223,2.277-0.184c0.568-1.378,2.207-1.074,3.397-1.371
			c-0.292-4.396-0.664-8.787-0.843-13.186c-0.06-1.829-0.687-3.582-0.719-5.414c-0.111-3.229-0.434-6.45-0.434-9.685
			c-0.107-1.679-0.977-3.245-0.814-4.953c0.188-1.765-0.168-3.517-0.394-5.26c-0.193-1.286-0.268-2.591-0.6-3.852
			c-0.504-1.899-0.226-3.898-0.739-5.795c-0.4-1.444-0.492-2.971-0.962-4.386c-0.96-0.532-2.068-0.713-3.022-1.246
			c-0.229-0.38-0.06-0.722,0.317-0.915c1.217,0.161,2.266,0.962,3.521,0.97c0.303,0.129,0.613,0.267,0.925,0.413
			c0.488,1.736,0.528,3.557,0.965,5.305c0.206,0.873,0.685,1.69,0.637,2.611c-0.004,2.231,0.298,4.449,0.603,6.656
			c0.528,3.539,0.814,7.107,1.171,10.667c0.312,2.979,0.317,5.979,0.568,8.965c0.23,2.969,0.555,5.932,0.714,8.908
			c0.171,3.238,0.209,6.492,0.695,9.706c0.109,0.491-0.017,1.042-0.38,1.395c-0.87,0.572-1.914,0.815-2.938,0.857
			c-0.231,0.392-0.315,0.923-0.736,1.159c-0.9,0.146-1.815-0.256-2.696,0.027c-0.654,0.196-1.336,0.271-2.006,0.289
			c-0.199,0.214-0.374,0.441-0.575,0.636c-2.039,0.406-4.08-0.493-6.111-0.062c-1.232,0.248-2.495,0.104-3.735,0.142
			c-0.885-0.018-1.825,0.134-2.623-0.32c-1.25-0.643-2.674-0.84-4.052-0.626c-0.71,0.292-1.195,1.016-2.001,1.088
			c-1.905,0.59-3.83-0.085-5.741-0.194c-1.552-0.324-3.135-0.152-4.7-0.205c-2.391-0.177-4.793-0.174-7.182,0
			c-2.071,0.021-4.142,0-6.212,0.012c-0.942,0.058-1.771-0.516-2.701-0.503c-1.416,0.007-2.833-0.036-4.243,0.031
			c-0.555,0.009-1.156,0.209-1.659-0.097c-0.439-0.766,0.449-1.564,0.186-2.396c-1.396-3.405-0.28-7.116-0.654-10.658
			c-0.23-2.822,0.049-5.658-0.196-8.48c-0.179-2.461-0.625-4.916-0.489-7.39c0.171-1.754-0.382-3.46-0.531-5.194
			c-0.573-4.044,0.04-8.124-0.124-12.185c-0.027-1.214-0.732-2.47-0.131-3.645c0.493-1.055,1.361-2.115,0.883-3.348
			c-1.33,0.081-2.202,1.223-3.432,1.571c-2.267,0.685-4.658,0.747-6.959,1.271c-0.989,0.172-1.882,0.647-2.626,1.31
			c-0.816,0.596-1.743,1.495-2.836,1.155c-0.643-0.614-0.871-1.51-1.223-2.296c-0.447-1.218-1.125-2.383-1.215-3.7
			c-0.004-0.92-0.658-1.633-0.915-2.478c-0.652-1.927-1.233-3.889-2.146-5.712c-0.885-1.761-1.577-3.62-2.591-5.314
			c-0.769-1.139-1.627-2.218-2.299-3.417c1.627-1.553,3.817-2.23,5.88-2.986c1.327-0.466,2.453-1.343,3.755-1.87
			c4.162-1.719,8.697-2.647,12.494-5.168c1.002-0.612,1.645-1.683,2.693-2.229c1.131-0.171,2.322-0.088,3.396-0.564
			c3.216-1.273,6.587-2.169,9.687-3.73c0.846-0.38,1.893-0.907,2.783-0.345c0.967,0.67,1.83,1.485,2.737,2.237
			c2.222,2.179,5.392,3,8.397,3.357C56.651,9.928,60.592,9,63.553,6.648C64.785,5.634,65.988,4.468,66.559,2.941 M65.4,7.728
			c-2.931,2.214-6.629,3.335-10.282,3.396c-3.189-0.084-6.381-0.78-9.285-2.103c-1.917-0.825-3.063-2.684-4.812-3.747
			c-0.528,0.191-1.054,0.383-1.572,0.573c0.717,0.971,1.31,2.037,2.111,2.946c1.079,1.123,2.534,1.769,3.765,2.702
			c0.927,0.638,1.723,1.498,2.794,1.91c4.695,1.466,9.751,0.688,14.303-0.922c2.653-0.933,5.287-2.368,6.912-4.739
			c0.842-1.066,0.93-2.547,0.716-3.837c-0.337-0.156-0.694-0.266-1.027-0.391C67.737,4.857,66.926,6.618,65.4,7.728z"/>
		<path fill="#F4B073" d="M65.4,7.728c1.526-1.109,2.336-2.87,3.624-4.21c0.333,0.125,0.69,0.234,1.027,0.391
			c0.213,1.29,0.126,2.771-0.716,3.837c-1.625,2.371-4.259,3.807-6.912,4.739c-4.551,1.609-9.608,2.388-14.303,0.922
			c-1.071-0.412-1.867-1.272-2.794-1.91c-1.23-0.934-2.686-1.579-3.765-2.702c-0.801-0.909-1.394-1.976-2.111-2.946
			c0.518-0.19,1.044-0.382,1.572-0.573c1.749,1.063,2.895,2.922,4.812,3.747c2.904,1.322,6.095,2.019,9.285,2.103
			C58.771,11.062,62.469,9.941,65.4,7.728z"/>
		<path fill="#F7931E" d="M70.475,4.037c2.375,0.953,4.496,2.755,7.17,2.781c1.081,0.023,1.678,1.048,2.541,1.541
			c2.324,1.305,5.213,0.602,7.535,1.905c1.16,0.619,2.485,0.729,3.755,1.007c1.626,0.382,2.869,1.567,4.305,2.349
			c1.228,0.692,2.636,0.918,3.988,1.252c2.363,0.508,4.446,1.797,6.591,2.857c-0.943,3.224-2.941,5.991-4.022,9.156
			c-0.379,1.059-0.968,2.033-1.232,3.13c-0.833,2.943-1.632,5.895-2.557,8.811c-2.664-0.651-5.274-1.518-7.797-2.587
			c-1.399-0.573-2.668-1.438-4.132-1.845c-1.5-0.485-3.164-0.694-4.394-1.756c-0.6-0.43-1.213-1.094-2.019-0.915
			c-0.337,0.288-0.629,0.776-0.27,1.173c0.665,0.939,1.81,1.364,2.815,1.855l-0.33,0.045c-1.255-0.008-2.304-0.809-3.521-0.97
			c-0.377,0.193-0.546,0.535-0.317,0.915c0.954,0.533,2.062,0.714,3.022,1.246c0.471,1.415,0.562,2.941,0.962,4.386
			c0.513,1.896,0.235,3.896,0.739,5.795c0.332,1.261,0.406,2.565,0.6,3.852c0.226,1.743,0.583,3.495,0.394,5.26
			c-0.163,1.708,0.707,3.274,0.814,4.953c0,3.234,0.322,6.455,0.434,9.685c0.033,1.832,0.66,3.585,0.719,5.414
			c0.179,4.398,0.551,8.79,0.843,13.186c-1.19,0.297-2.83-0.007-3.397,1.371c-0.767-0.039-1.538-0.016-2.277,0.184
			c-1.724,0.454-3.618-0.271-5.225,0.665c-2.497-0.077-4.965,0.409-7.465,0.249c-1.339,0.098-2.385-0.994-3.702-1.003
			c-1.448-0.085-3.105-0.095-4.149,1.085c-1.904,0.641-3.849-0.017-5.766-0.164c-1.823-0.324-3.675-0.073-5.503-0.237
			c-3.211-0.229-6.418,0.142-9.627,0.065c-1.277-0.043-2.569,0.134-3.824-0.129c-1.964-0.653-4.055-0.271-6.081-0.367
			c0.047-1.833-0.384-3.636-0.332-5.469c0.055-3.72-0.169-7.439,0.002-11.157c0.139-2.491-0.628-4.928-0.496-7.418
			c-0.002-2.165,0.347-4.416-0.382-6.504c-0.424-1.198-0.179-2.486-0.347-3.723c-0.256-2.041-0.146-4.101-0.02-6.146
			c0.04-1.864,0.322-3.752-0.117-5.588c-0.218-0.771-0.102-1.57,0.246-2.284c0.706-1.618,0.846-3.59-0.064-5.161
			c1.19-0.809,2.7-1.074,3.717-2.149c-0.38-0.266-0.699-0.811-1.23-0.677c-0.563,0.097-1.068,0.368-1.577,0.6
			c-0.102-0.753-0.444-1.766-1.419-1.401c-0.612,0.682-0.494,1.685-0.787,2.505c-0.108,0.583-0.763,0.72-1.2,0.97
			c-1.138,0.458-1.949,1.473-3.123,1.845c-2.188,0.728-4.528,0.702-6.753,1.242c-1.319,0.32-2.49,1.029-3.717,1.573
			c-2.475-6.78-4.481-13.891-8.675-19.867c1.057-1.074,2.47-1.64,3.867-2.134c1.959-0.679,3.735-1.766,5.622-2.61
			c2.011-0.863,4.119-1.468,6.182-2.192c2.498-0.854,4.844-2.147,6.875-3.831C27.17,9.905,28.32,9.9,29.327,9.607
			c3.301-0.854,6.416-2.282,9.561-3.581c0.969,0.907,1.339,2.246,2.269,3.186c1.079,1.13,2.524,1.783,3.764,2.711
			c1.131,0.796,2.133,1.883,3.539,2.19c5.215,1.386,10.739,0.333,15.649-1.666c2.787-1.158,5.371-3.153,6.596-5.984
			C70.512,5.668,70.475,4.851,70.475,4.037 M82.674,12.658c-0.742,2.68-0.035,5.424,0.28,8.107c0.117,1.581-0.129,3.188,0.177,4.751
			c0.144,0.681-0.233,1.669,0.471,2.102c0.099-1.785-0.253-3.555-0.204-5.344c0.131-3.14-1.19-6.27-0.315-9.387
			C82.981,12.828,82.775,12.716,82.674,12.658 M25.773,16.167c0.414,0.935,1.007,1.81,1.143,2.845
			c0.357,2.246,0.112,4.543,0.503,6.784c0.362,2.329,0.367,4.689,0.516,7.034c0.221-0.235,0.302-0.536,0.288-0.853
			c0.022-2.457-0.238-4.903-0.565-7.334c-0.288-2.247,0.069-4.58-0.643-6.769C26.763,17.216,26.493,16.445,25.773,16.167
			 M70.968,47.938c0.062,1.136,0.28,2.254,0.417,3.386c0.089,0.478,0.047,1.096,0.578,1.336c-0.039-1.11-0.257-2.202-0.389-3.303
			C71.474,48.842,71.491,48.222,70.968,47.938 M71.75,53.775c0.449,2.621,0.679,5.275,0.97,7.916
			c0.362,3.552,0.826,7.099,0.94,10.67c0,2.087,0.178,4.339-0.93,6.21c-0.675,1.29-2.108,1.839-3.365,2.376
			c-2.966,0.729-5.784,1.95-8.746,2.672c-0.66,0.176-1.39,0.202-1.91,0.686c3.402-0.303,6.529-1.856,9.803-2.736
			c0.674-0.129,1.446-0.615,2.096-0.132c1.222,0.758,2.313,1.743,3.666,2.292c1.108,0.5,2.455,0.576,3.323,1.527
			c0.092-0.035,0.275-0.106,0.367-0.142c-0.67-0.892-1.763-1.157-2.768-1.455c-1.79-0.528-3.156-1.848-4.734-2.768
			c0.715-0.368,1.494-0.688,2.034-1.314c0.989-1.147,1.411-2.681,1.518-4.169c0.199-1.35,0.213-2.738-0.007-4.085
			c-0.209-3.723-0.695-7.42-1.062-11.125c-0.3-2.47-0.444-4.975-1.017-7.397C71.579,53.023,71.701,53.443,71.75,53.775
			 M60.163,78.919c-0.712,0.973-1.904,1.455-3.058,1.635c-3.231,0.541-6.609,0.478-9.685,1.729
			c-1.678,0.666-3.127,1.929-3.901,3.573c1.226,0.004,2.73,0.173,3.713-0.707c-1.049,0.074-2.068,0.375-3.117,0.402
			c0.93-1.63,2.584-2.689,4.345-3.234c3.045-0.992,6.301-0.881,9.417-1.537c1.59-0.334,3.15-1.591,3.192-3.326
			C60.545,77.784,60.505,78.457,60.163,78.919 M49.894,84.241c-0.849,0.293-1.789,0.407-2.505,0.977
			c0.424-0.081,0.84-0.189,1.27-0.313c5.819-1.781,11.587-3.725,17.362-5.645c0.635-0.235,1.381-0.317,1.88-0.833
			C61.872,80.275,55.93,82.408,49.894,84.241 M72.726,88.713c0.675,0.029,1.354,0.032,2.039,0.018
			c-0.044-0.635-0.233-1.505-1.039-1.484C72.92,87.251,72.776,88.086,72.726,88.713z"/>
		<path d="M82.674,12.658c0.102,0.058,0.307,0.17,0.409,0.229c-0.875,3.117,0.446,6.247,0.315,9.387
			c-0.05,1.789,0.303,3.559,0.204,5.344c-0.705-0.433-0.328-1.421-0.471-2.102c-0.099-1.582-0.072-3.17-0.177-4.751
			C82.639,18.082,81.932,15.338,82.674,12.658z"/>
		<path d="M25.773,16.167c0.719,0.278,0.989,1.049,1.242,1.708c0.712,2.188,0.355,4.521,0.643,6.769
			c0.327,2.431,0.588,4.877,0.565,7.334c0.014,0.316-0.067,0.617-0.288,0.853c-0.149-2.345-0.154-4.705-0.516-7.034
			c-0.392-2.241-0.146-4.538-0.503-6.784C26.78,17.977,26.188,17.102,25.773,16.167z"/>
		<path d="M70.968,47.938c0.523,0.284,0.506,0.904,0.605,1.419c0.132,1.101,0.35,2.192,0.389,3.303
			c-0.53-0.24-0.488-0.858-0.578-1.336C71.248,50.191,71.03,49.073,70.968,47.938z"/>
		<path d="M71.75,53.775c-0.049-0.332-0.171-0.752,0.176-0.975c0.573,2.423,0.717,4.928,1.017,7.397
			c0.367,3.705,0.853,7.402,1.062,11.125c-0.008,1.363,0,2.724,0.007,4.085c-0.107,1.488-0.528,3.021-1.518,4.169
			c-0.541,0.627-1.319,0.946-2.034,1.314c1.578,0.92,2.944,2.239,4.734,2.768c1.005,0.298,2.098,0.563,2.768,1.455
			c-0.092,0.035-0.275,0.106-0.367,0.142c-0.868-0.951-2.215-1.027-3.323-1.527c-1.352-0.549-2.443-1.534-3.666-2.292
			c-0.649-0.483-1.421,0.003-2.096,0.132c-3.274,0.88-6.401,2.434-9.803,2.736c0.52-0.483,1.25-0.51,1.91-0.686
			c2.962-0.722,5.78-1.942,8.746-2.672c1.257-0.537,2.69-1.086,3.365-2.376c1.108-1.871,0.93-4.123,0.93-6.21
			c-0.114-3.571-0.578-7.118-0.94-10.67C72.429,59.051,72.198,56.396,71.75,53.775z"/>
		<path opacity="0.88" enable-background="new    " d="M74.004,71.323c0.22,1.347,0.206,2.735,0.007,4.085
			C74.004,74.047,73.996,72.687,74.004,71.323z"/>
		<path d="M60.163,78.919c0.342-0.462,0.382-1.135,0.905-1.465c-0.042,1.735-1.602,2.992-3.192,3.326
			c-3.115,0.656-6.371,0.545-9.417,1.537c-1.76,0.545-3.415,1.604-4.345,3.234c1.049-0.027,2.068-0.328,3.117-0.402
			c-0.982,0.88-2.487,0.711-3.713,0.707c0.774-1.645,2.223-2.907,3.901-3.573c3.075-1.252,6.453-1.188,9.685-1.729
			C58.259,80.374,59.451,79.892,60.163,78.919z"/>
		<path d="M49.894,84.241c6.036-1.833,11.978-3.966,18.006-5.814c-0.499,0.516-1.245,0.598-1.88,0.833
			c-5.775,1.92-11.543,3.863-17.362,5.645c-0.429,0.124-0.846,0.232-1.27,0.313C48.105,84.648,49.045,84.534,49.894,84.241z"/>
		<path d="M72.726,88.713c0.05-0.627,0.194-1.462,1-1.467c0.806-0.021,0.995,0.85,1.039,1.484
			C74.08,88.745,73.401,88.742,72.726,88.713z"/>
	</g>
	<path d="M107.219,16.055c0.062,0.064,0.128,0.055,0.211,0.075c0.215,0.054,0.468,0.154,0.658,0.279
		c0.108,0.07,0.18,0.174,0.275,0.257c0.098,0.087,0.298,0.126,0.377,0.214c0.068,0.077,0.044,0.213,0.046,0.311
		c0.004,0.319-0.057,0.627-0.138,0.935c-0.146,0.554-0.546,0.93-0.801,1.427c-0.058,0.112-0.066,0.235-0.113,0.354
		c-0.113,0.283-0.4,0.429-0.488,0.729c-0.243,0.012-0.355-0.291-0.387-0.48c-0.119-0.729-0.155-1.509-0.075-2.244
		c0.041-0.374,0.036-0.766,0.087-1.137c0.022-0.16,0.095-0.351,0.182-0.491c0.07-0.111,0.109-0.116,0.226-0.168"/>
</g>
</svg>
