<?xml version="1.0" encoding="utf-8"?>
<!-- Generator: Adobe Illustrator 16.0.0, SVG Export Plug-In . SVG Version: 6.00 Build 0)  -->
<!DOCTYPE svg PUBLIC "-//W3C//DTD SVG 1.1//EN" "http://www.w3.org/Graphics/SVG/1.1/DTD/svg11.dtd">
<svg version="1.1" id="Layer_1" xmlns="http://www.w3.org/2000/svg" xmlns:xlink="http://www.w3.org/1999/xlink" x="0px" y="0px"
	 width="150px" height="auto" viewBox="0 0 113.25 98.5" enable-background="new 0 0 113.25 98.5" xml:space="preserve">
<path d="M46.113,1.855c1.401-0.814,2.792,0.407,3.592,1.492c0.977,0.407,1.604,1.293,2.479,1.859
	c2.187,1.188,4.839,1.214,7.188,0.515c2.45-0.688,4.54-2.216,6.468-3.826C67.4,2.09,68.694,3.109,69.94,4
	c3.005,2.18,5.322,5.119,8.114,7.537c2.738-0.721,5.668-0.768,8.367,0.159c4.37,1.43,7.876,4.521,11.483,7.249
	c1.398,1.049,2.602,2.382,3.329,3.988c1.427,0.202,2.89,0.288,4.262,0.789c1.751-0.356,3.837-0.883,5.405,0.277
	c0.411,1.29,0.63,2.645,1.084,3.932c-0.882,2.046-0.76,4.492-2.284,6.247c0.238,1.294-0.205,2.512-0.919,3.571
	c0.436,1.372-0.295,2.648-1.336,3.51c-0.007,1.632,0.05,3.596-1.373,4.716c-1.896-0.062-3.797-0.224-5.675-0.468
	c-1.488-0.202-2.079-2.087-3.643-2.091c-1.052-0.09-2.119-0.327-2.807-1.199c-2.259,0.749-4.58,1.322-6.947,1.567
	c0.245,4.154,2.313,7.905,2.933,11.983c0.003,2.962,0.504,5.909,1.229,8.781c0.288,1.257,0.029,2.565,0.27,3.834
	c0.533,2.997,1.708,5.93,1.43,9.029c1.131,3.743,0.252,7.768,1.358,11.529c0.152,0.789,0.696,1.604,0.299,2.411
	c-0.252,0.677-0.76,1.21-1.228,1.747c-1.485-0.252-2.944,0.224-4.425,0.177c-1.748-0.032-3.376,0.659-5.03,1.109
	c-2.058,0.569-4.23,0.277-6.295,0.807c-4.637,1.262-9.501,1.582-14.279,1.183c-1.726-0.224-3.372,0.389-5.037,0.634
	c-1.341-0.133-0.598-1.683-0.569-2.519c-0.544,0.22-1.016,0.674-1.611,0.721c-1.066-0.09-2.133-0.446-3.196-0.173
	c-1.809,0.469-3.625-0.267-5.444-0.201c-1.758-0.065-3.264,1.155-5.023,1.055c-1.866-0.107-3.621-0.8-5.418-1.235
	c-3.917-1.027-8.183-0.134-11.941-1.845c-0.184-1.16,0.44-2.27,0.994-3.25c0.17-2.079,0.083-4.209,0.674-6.223
	c1.827-4.248,1.856-9.022,1.384-13.548c-0.133-1.488,0.479-2.879,1.027-4.223c-0.115-0.983-0.047-1.989,0.551-2.811
	c0.068-1.932-0.35-4.046,0.707-5.79c-0.029-2.648,0.814-5.182,1.268-7.765c0.472-2.536,1.11-5.033,1.83-7.509
	c-2.547,0.271-4.976,1.74-7.584,0.966c-0.573,2.429-1.578,4.799-3.178,6.737c-0.731,0.844-1.841,1.676-3.023,1.333
	c-1.031-0.302-1.546-1.318-2.129-2.122c-1.027,0.177-2.194,0.407-3.088-0.288c-0.811-0.414-0.991-1.344-1.171-2.141
	c-1.784-0.619-3.236-2.19-3.048-4.183c-1.275-0.058-2.709,0.058-3.766-0.789c-0.979-0.847-0.399-2.248-0.59-3.348
	c-0.958-0.486-1.953-0.908-2.839-1.513c-1.622-1.002-1.492-3.77,0.177-4.659c1.509-0.923,3.296-1.192,4.915-1.87
	c1.653-0.695,3.307-1.409,5.026-1.935c-0.494-3.29,0.497-6.579,1.917-9.513c1.077-2.162,2.425-4.287,4.436-5.696
	c2.454-1.783,5.185-3.225,8.082-4.14c1.942-0.725,4.198,0.418,5.985-0.89C37.387,4.958,42.1,4.151,46.113,1.855 M67.242,4.774
	c0.199,5.134-1.506,10.586-5.379,14.106c2.324,1.689,4.882,3.289,6.338,5.861c1.928-4.193,5.858-7.044,7.7-11.284
	c-1.221-0.793-1.819-2.158-2.904-3.088C71.065,8.515,69.162,6.634,67.242,4.774 M49.738,4.983c0.382,2.753,1.672,5.278,2.998,7.686
	c1.059,1.726,2.133,3.538,3.7,4.856c2.198-0.051,4.288-1.293,5.43-3.163c1.618-2.642,1.917-5.805,2.165-8.82
	c-0.468-0.015-0.93-0.022-1.387-0.029c-2.825,1.6-6.295,2.292-9.44,1.315C51.929,6.457,50.891,5.596,49.738,4.983 M37.837,8.903
	c4.035,4.673,7.466,9.916,12.153,13.995c0.962-1.409,2.064-2.746,3.477-3.723c-2.349-2.817-4.511-5.916-5.444-9.512
	c-0.67-1.128-1.333-2.273-1.553-3.589C43.371,6.007,40.349,7.135,37.837,8.903 M19.652,16.849
	c-2.663,3.423-3.581,8.031-2.731,12.257c0.317,0.566,0.829,0.999,1.25,1.496c2.205,2.389,4.151,5.008,6.334,7.415
	c1.297,0.648,2.389,1.783,3.855,2.043c1.798,0.028,3.549-0.652,5.087-1.539c1.142-0.638,1.957-1.747,3.204-2.208
	c0.5-0.695,0.976-1.64,2.018-1.229c-0.429,0.895-1.096,1.629-1.672,2.426c0.202,0.5,0.497,0.962,0.756,1.444
	c-0.67,0.469-1.326,0.951-1.978,1.441c0.281,0.299,0.562,0.602,0.851,0.911c-1.121,2.774-1.269,5.794-1.758,8.716
	c-0.267,2.09-1.265,4-1.441,6.111c-1.149,3.866-0.541,8.063-2.205,11.804c1.023,7.841-1.69,15.446-2.609,23.15
	c6.039,1.39,12.269,1.253,18.426,1.231c3.758-0.064,7.646,0.725,11.285-0.58c0.097-3.902-0.998-7.674-1.802-11.454
	c-0.847-4.05,0.04-8.168-0.029-12.247c-0.267-3.012-0.576-6.021-0.717-9.04c-0.165-1.823,0.022-3.729-0.782-5.426
	c1.167-3.341-0.417-6.716-0.281-10.104c0.007-4.813,0.267-9.624,0.501-14.431c0.447-2.133,0.447-4.319,0.811-6.464
	c0.115-0.616-0.184-1.174-0.4-1.718c-1.693,0.907-3.347,2.316-3.7,4.309c-0.271,1.081,0.594,2.072,0.367,3.156
	c-0.108,1.139-0.403,2.642-1.697,2.973c-0.332-0.418-0.498-0.93-0.652-1.423c-1.596-1.697-1.538-4.54-3.679-5.743
	c-3.754-2.486-5.527-6.951-9.094-9.639c-1.275-0.9-2.025-2.328-3.207-3.322c-0.609-0.71-1.636-0.41-2.439-0.414
	C26.945,10.982,22.444,13.173,19.652,16.849 M79.28,13.678c-1.496,3.996-4.803,6.85-7.051,10.377
	c-1.196,1.83-1.831,3.941-2.212,6.074c-0.742,0.872-2.028,1.132-3.052,1.611c-0.566-2.612-1.052-5.38-2.846-7.477
	c-0.955-1.405-2.638-1.91-3.971-2.851c-0.396,0.396-0.793,0.793-1.225,1.149c-0.829-0.497-0.271-0.983,0.252-1.419
	c-0.289-0.036-0.858-0.104-1.146-0.138c-0.417,0.566-0.89,1.092-1.401,1.578c-0.486,2.134-0.385,4.346-0.857,6.486
	c-0.263,4.81-0.5,9.631-0.515,14.452c-0.09,3.361,1.463,6.744,0.292,10.063c0.22,0.461,0.552,0.911,0.53,1.462
	c0.256,3.665,0.386,7.344,0.793,11.001c0.627,4.579-0.753,9.213,0.133,13.781c0.804,3.932,1.975,7.852,1.866,11.905
	c0.746,0.007,1.502,0.093,2.205,0.389c-0.191,0.648-0.385,1.294-0.562,1.956c3.783-0.568,7.613-0.101,11.404-0.493
	c2.23-0.216,4.331-1.066,6.543-1.391c2.739-0.403,5.531-0.497,8.226-1.167c1.531-0.396,3.131-0.202,4.684-0.479
	c-0.958-1.409-0.739-3.153-0.854-4.764c-0.565-1.026-0.627-2.208-0.483-3.347c-0.267-0.354-0.393-0.743-0.378-1.172
	c-0.137-1.762-0.4-3.513-0.35-5.281c-0.465-1.146-0.555-2.403-0.504-3.621c-1.567-4.793-0.393-10.035-2.043-14.812
	c-0.18-1.889-0.966-3.676-1.088-5.557l0.292-0.493c-0.389-1.189-0.879-2.339-1.283-3.517c-0.472-1.377-0.566-2.836-0.937-4.23
	c-1.628-0.248-3.333-0.785-4.41-2.104c0.108-0.782,0.738-1.557,1.603-1.467c0.833,0.09,1.589,0.482,2.349,0.825
	c0.343-0.609,0.757-1.463,1.611-1.308c0.947-0.105,1.448,0.731,1.708,1.51c2.58,0.021,4.896-1.168,7.246-2.068
	c0.108-0.609,0.432-1.092,1.005-1.334c1.254-3.974,3.297-7.631,5.152-11.342c-0.046-0.195-0.136-0.584-0.184-0.778
	c-1.247-0.458-1.12-1.935-1.855-2.832c-1.567-2.068-3.963-3.232-5.898-4.896c-2.188-1.867-4.461-3.888-7.361-4.472
	C82.905,13.008,81.078,13.516,79.28,13.678 M101.241,26.04c-1.43,2.425-2.583,5.019-3.833,7.545
	c-0.79,2.014-2.072,4.014-1.809,6.266c1.149,0.584,2.299,1.182,3.506,1.657c0.868-1.348,1.142-2.962,1.614-4.468
	c0.951-3.574,1.902-7.188,3.657-10.471C103.395,26.133,102.314,25.802,101.241,26.04 M105.398,26.821
	c-1.632,2.544-2.407,5.527-3.228,8.406c-0.519,2.184-1.315,4.291-1.849,6.464c0.916,1.431,2.904,0.483,4.273,1.1
	c-0.573-1.464-0.119-3.229,1.247-4.068c-0.368-0.742-0.955-1.629-0.371-2.425c0.433-0.241,0.901-0.411,1.369-0.591
	c-0.043-0.775-0.44-1.518-0.357-2.288c0.523-1.207,2.115-2,1.575-3.491c-0.335-0.439-0.602-0.919-0.742-1.441
	c0.616-0.346,1.236-0.703,1.769-1.175C108.212,26.133,106.584,26.26,105.398,26.821 M10.371,31.74
	c4.198,3.368,8.215,6.964,11.934,10.859c0.249-1.146,1.041-2.011,1.805-2.851c-0.224-0.579-0.476-1.152-0.894-1.613
	c-2.332-2.757-4.573-5.589-7.048-8.215C14.244,30.565,12.23,30.911,10.371,31.74 M6.541,32.9c-0.67,0.259-1.438,1.167-0.728,1.809
	c1.009,0.681,2.385,0.804,3.189,1.787c0.648,0.804,0.065,1.841,0,2.749c1.29-0.166,2.857-0.446,3.895,0.565
	c0.875,0.714,0.854,1.914,0.85,2.947c0.857,0.4,1.787,0.659,2.612,1.149c0.623,0.303,0.454,1.085,0.508,1.658
	c1.542-0.098,2.872,0.709,4.053,1.6c0.425-1.085,0.912-2.181,0.998-3.354c-3.61-3.853-7.556-7.408-11.674-10.713
	C9.247,32.172,7.69,32.414,6.541,32.9z"/>
<path fill="#FFFFFF" d="M67.242,4.774c1.92,1.859,3.823,3.74,5.754,5.596c1.084,0.93,1.683,2.295,2.904,3.088
	c-1.841,4.24-5.772,7.091-7.7,11.284c-1.456-2.572-4.014-4.172-6.338-5.861C65.736,15.36,67.44,9.908,67.242,4.774z"/>
<path fill="#D8EFF1" d="M49.738,4.983c1.153,0.612,2.191,1.474,3.466,1.845c3.146,0.977,6.615,0.284,9.44-1.315
	c0.457,0.007,0.918,0.015,1.387,0.029c-0.249,3.016-0.547,6.179-2.165,8.82c-1.143,1.87-3.232,3.112-5.43,3.163
	c-1.567-1.318-2.641-3.131-3.7-4.856C51.41,10.262,50.12,7.736,49.738,4.983z"/>
<path fill="#FFFFFF" d="M37.837,8.903c2.512-1.769,5.534-2.896,8.633-2.828c0.219,1.315,0.883,2.461,1.553,3.589
	c0.933,3.596,3.095,6.694,5.444,9.512c-1.413,0.977-2.515,2.313-3.477,3.723C45.303,18.819,41.872,13.576,37.837,8.903z"/>
<path fill="#EBF9FA" d="M19.652,16.849c2.792-3.676,7.293-5.866,11.873-6.097c0.804,0.004,1.83-0.296,2.439,0.414
	c1.182,0.994,1.931,2.422,3.207,3.322c3.567,2.688,5.34,7.152,9.094,9.639c2.141,1.203,2.083,4.046,3.679,5.743
	c0.155,0.493,0.321,1.005,0.652,1.423c1.293-0.331,1.589-1.834,1.697-2.973c0.227-1.084-0.638-2.075-0.367-3.156
	c0.353-1.992,2.007-3.401,3.7-4.309c0.216,0.544,0.515,1.102,0.4,1.718c-0.364,2.145-0.364,4.331-0.811,6.464
	c-0.234,4.807-0.494,9.617-0.501,14.431c-0.137,3.388,1.448,6.763,0.281,10.104c0.804,1.696,0.617,3.603,0.782,5.426
	c0.141,3.02,0.451,6.028,0.717,9.04c0.069,4.079-0.818,8.197,0.029,12.247c0.804,3.78,1.899,7.552,1.802,11.454
	c-3.639,1.305-7.527,0.516-11.285,0.58c-6.158,0.021-12.387,0.158-18.426-1.231c0.919-7.704,3.632-15.31,2.609-23.15
	c1.665-3.74,1.056-7.938,2.205-11.804c0.177-2.111,1.175-4.021,1.441-6.111c0.49-2.922,0.638-5.941,1.758-8.716
	c-0.288-0.31-0.569-0.612-0.851-0.911c0.652-0.49,1.308-0.973,1.978-1.441c-0.259-0.482-0.555-0.944-0.756-1.444
	c0.576-0.797,1.243-1.531,1.672-2.426c-1.042-0.41-1.517,0.534-2.018,1.229c-1.247,0.461-2.062,1.57-3.204,2.208
	c-1.538,0.887-3.29,1.567-5.087,1.539c-1.466-0.26-2.558-1.395-3.855-2.043c-2.184-2.407-4.13-5.026-6.334-7.415
	c-0.421-0.497-0.933-0.93-1.25-1.496C16.071,24.88,16.989,20.271,19.652,16.849z"/>
<path fill="#EBF9FA" d="M79.28,13.678c1.798-0.162,3.625-0.67,5.426-0.188c2.9,0.584,5.174,2.604,7.361,4.472
	c1.935,1.664,4.331,2.828,5.898,4.896c0.735,0.897,0.609,2.374,1.855,2.832c0.047,0.194,0.137,0.583,0.184,0.778
	c-1.855,3.711-3.898,7.368-5.152,11.342c-0.573,0.242-0.897,0.725-1.005,1.334c-2.349,0.9-4.666,2.09-7.246,2.068
	c-0.26-0.778-0.761-1.615-1.708-1.51c-0.854-0.155-1.268,0.698-1.611,1.308c-0.76-0.343-1.517-0.735-2.349-0.825
	c-0.865-0.09-1.495,0.685-1.603,1.467c1.077,1.318,2.781,1.855,4.41,2.104c0.371,1.395,0.465,2.854,0.937,4.23
	c0.403,1.178,0.894,2.327,1.283,3.517l-0.292,0.493c0.123,1.881,0.908,3.668,1.088,5.557c1.65,4.777,0.476,10.02,2.043,14.812
	c-0.05,1.218,0.04,2.475,0.504,3.621c-0.051,1.769,0.212,3.52,0.35,5.281c-0.015,0.429,0.111,0.818,0.378,1.172
	c-0.144,1.139-0.083,2.32,0.483,3.347c0.115,1.61-0.104,3.354,0.854,4.764c-1.553,0.277-3.153,0.083-4.684,0.479
	c-2.695,0.67-5.487,0.764-8.226,1.167c-2.212,0.324-4.312,1.175-6.543,1.391c-3.791,0.393-7.621-0.075-11.404,0.493
	c0.177-0.662,0.371-1.308,0.562-1.956c-0.703-0.296-1.459-0.382-2.205-0.389c0.108-4.054-1.062-7.974-1.866-11.905
	c-0.887-4.568,0.494-9.202-0.133-13.781c-0.407-3.657-0.537-7.336-0.793-11.001c0.022-0.551-0.31-1.001-0.53-1.462
	c1.171-3.319-0.381-6.702-0.292-10.063c0.015-4.821,0.252-9.643,0.515-14.452c0.472-2.141,0.371-4.353,0.857-6.486
	c0.512-0.486,0.984-1.012,1.401-1.578c0.289,0.033,0.858,0.102,1.146,0.138c-0.523,0.436-1.081,0.922-0.252,1.419
	c0.432-0.356,0.829-0.753,1.225-1.149c1.333,0.94,3.016,1.445,3.971,2.851c1.794,2.097,2.28,4.864,2.846,7.477
	c1.023-0.479,2.31-0.739,3.052-1.611c0.382-2.133,1.016-4.244,2.212-6.074C74.477,20.527,77.784,17.674,79.28,13.678 M60.043,27.625
	c-0.843,0.411-1.867,0.897-2.141,1.873c-0.086,1.01,0.743,1.835,1.416,2.494c1.423,0.746,3.225-0.386,3.665-1.812
	C63.001,28.691,61.7,26.814,60.043,27.625 M58.378,40.365c-0.692,0.455-1.409,1.121-1.283,2.04c0.151,1.278,1.438,1.971,2.598,2.147
	c1.989,0.353,3.848-3.297,1.459-3.985C60.259,40.352,59.175,39.616,58.378,40.365 M59.758,51.831
	c-1.081,0.933-2.425,2.914-0.937,4.074c1.748,1.452,4.237-0.684,3.924-2.677C62.724,51.77,60.857,51.401,59.758,51.831
	 M59.686,65.465c0.151,0.987,0.317,1.989,0.699,2.922c1.175,0.75,2.472-0.335,3.365-1.077c-0.112-0.71,0.227-1.733-0.583-2.107
	C62.068,64.543,60.669,64.633,59.686,65.465 M61.567,76.313c-1.279,0.678-2.464,2.753-1.113,3.902
	c2.025,1.391,4.817-1.597,3.488-3.596C63.207,76.36,62.298,75.91,61.567,76.313 M62.428,87.264
	c-0.508,0.612-1.124,1.128-1.643,1.729c-0.519,0.58-0.133,1.495,0.465,1.87c1.462,0.951,3.776,0.133,4.23-1.578
	C66.042,87.699,63.624,86.082,62.428,87.264z"/>
<path fill="#FFFFFF" d="M101.241,26.04c1.074-0.238,2.154,0.093,3.135,0.529c-1.755,3.282-2.706,6.896-3.657,10.471
	c-0.472,1.506-0.746,3.12-1.614,4.468c-1.207-0.476-2.356-1.073-3.506-1.657c-0.263-2.252,1.02-4.252,1.809-6.266
	C98.657,31.059,99.811,28.465,101.241,26.04z"/>
<path fill="#EBF9FA" d="M105.398,26.821c1.186-0.562,2.814-0.688,3.686,0.49c-0.533,0.472-1.153,0.829-1.769,1.175
	c0.141,0.522,0.407,1.002,0.742,1.441c0.541,1.491-1.052,2.284-1.575,3.491c-0.083,0.771,0.314,1.513,0.357,2.288
	c-0.468,0.18-0.937,0.35-1.369,0.591c-0.583,0.796,0.003,1.683,0.371,2.425c-1.366,0.84-1.82,2.604-1.247,4.068
	c-1.369-0.616-3.358,0.331-4.273-1.1c0.533-2.173,1.33-4.28,1.849-6.464C102.992,32.349,103.767,29.365,105.398,26.821z"/>
<path d="M60.043,27.625c1.657-0.811,2.958,1.066,2.94,2.555c-0.439,1.427-2.241,2.559-3.665,1.812
	c-0.673-0.659-1.502-1.484-1.416-2.494C58.176,28.522,59.2,28.036,60.043,27.625 M58.883,29.593c0.321,0.489,0.623,0.994,1.02,1.441
	c0.533,0.335,1.16-0.151,1.567-0.498c0.869-0.544,0.151-1.963-0.71-2.014C60.093,28.807,59.492,29.207,58.883,29.593z"/>
<path fill="#B9D3D5" d="M58.883,29.593c0.609-0.386,1.21-0.786,1.877-1.07c0.861,0.051,1.579,1.47,0.71,2.014
	c-0.407,0.347-1.034,0.833-1.567,0.498C59.506,30.587,59.204,30.082,58.883,29.593z"/>
<path fill="#FFFFFF" d="M10.371,31.74c1.859-0.829,3.874-1.175,5.797-1.819c2.475,2.626,4.716,5.458,7.048,8.215
	c0.418,0.461,0.67,1.034,0.894,1.613c-0.764,0.84-1.557,1.705-1.805,2.851C18.585,38.704,14.568,35.108,10.371,31.74z"/>
<path fill="#EBF9FA" d="M6.541,32.9c1.149-0.486,2.706-0.729,3.704,0.197c4.118,3.305,8.063,6.86,11.674,10.713
	c-0.086,1.174-0.573,2.27-0.998,3.354c-1.182-0.891-2.511-1.697-4.053-1.6c-0.054-0.573,0.115-1.355-0.508-1.658
	c-0.825-0.49-1.755-0.749-2.612-1.149c0.003-1.033,0.025-2.233-0.85-2.947c-1.038-1.012-2.605-0.731-3.895-0.565
	c0.065-0.908,0.648-1.945,0-2.749c-0.804-0.983-2.18-1.106-3.189-1.787C5.103,34.067,5.87,33.159,6.541,32.9z"/>
<path d="M58.378,40.365c0.796-0.749,1.88-0.014,2.774,0.202c2.389,0.688,0.529,4.338-1.459,3.985
	c-1.16-0.177-2.447-0.869-2.598-2.147C56.969,41.486,57.687,40.82,58.378,40.365 M58.465,41.58
	c-0.955,0.681,0.126,1.621,0.872,1.866c1.095,0.572,1.704-0.804,2.122-1.557C60.551,41.508,59.286,40.571,58.465,41.58z"/>
<path fill="#B9D3D5" d="M58.465,41.58c0.821-1.009,2.086-0.072,2.994,0.31c-0.418,0.753-1.027,2.129-2.122,1.557
	C58.591,43.201,57.51,42.261,58.465,41.58z"/>
<path d="M59.758,51.831c1.099-0.43,2.965-0.062,2.987,1.397c0.313,1.993-2.176,4.129-3.924,2.677
	C57.333,54.745,58.677,52.764,59.758,51.831 M60.108,52.832c-0.436,0.577-0.735,1.239-1.067,1.881
	c0.429,0.173,0.796,0.916,1.33,0.631c1.067-0.288,1.405-1.456,1.427-2.436C61.243,52.854,60.619,52.49,60.108,52.832z"/>
<path fill="#B9D3D5" d="M60.108,52.832c0.511-0.342,1.135,0.021,1.69,0.076c-0.022,0.979-0.36,2.147-1.427,2.436
	c-0.533,0.285-0.901-0.458-1.33-0.631C59.373,54.071,59.672,53.409,60.108,52.832z"/>
<path d="M59.686,65.465c0.983-0.832,2.382-0.922,3.481-0.263c0.811,0.374,0.472,1.397,0.583,2.107
	c-0.894,0.742-2.19,1.827-3.365,1.077C60.003,67.454,59.837,66.452,59.686,65.465 M60.709,65.714
	c-0.086,0.749,0.22,1.477,0.342,2.216c0.659-0.271,1.293-0.599,1.898-0.98c-0.025-0.271-0.079-0.814-0.108-1.084
	C62.136,65.71,61.412,65.407,60.709,65.714z"/>
<path fill="#B9D3D5" d="M60.709,65.714c0.703-0.307,1.427-0.004,2.133,0.151c0.029,0.27,0.083,0.813,0.108,1.084
	c-0.605,0.382-1.239,0.71-1.898,0.98C60.929,67.19,60.623,66.463,60.709,65.714z"/>
<path d="M61.567,76.313c0.731-0.403,1.64,0.047,2.375,0.307c1.33,1.999-1.463,4.986-3.488,3.596
	C59.103,79.066,60.288,76.991,61.567,76.313 M61.502,77.392c-0.547,0.551-1.351,1.769-0.342,2.276
	c1.376,0.422,2.49-1.225,2.313-2.485C62.821,77.189,61.988,76.771,61.502,77.392z"/>
<path fill="#B9D3D5" d="M61.502,77.392c0.486-0.62,1.319-0.202,1.971-0.209c0.176,1.261-0.937,2.907-2.313,2.485
	C60.151,79.16,60.955,77.942,61.502,77.392z"/>
<path d="M62.428,87.264c1.196-1.182,3.614,0.436,3.052,2.021c-0.454,1.711-2.768,2.529-4.23,1.578
	c-0.598-0.375-0.983-1.29-0.465-1.87C61.304,88.392,61.92,87.876,62.428,87.264 M63.145,87.995c-0.569,0.562-1.178,1.081-1.74,1.653
	c0.807,1.402,3.214,0.526,3.261-0.983C64.288,88.283,63.671,87.317,63.145,87.995z"/>
<path fill="#B9D3D5" d="M63.145,87.995c0.526-0.678,1.143,0.288,1.521,0.67c-0.047,1.51-2.454,2.386-3.261,0.983
	C61.967,89.076,62.576,88.557,63.145,87.995z"/>
</svg>
