<?xml version="1.0" encoding="utf-8"?>
<!-- Generator: Adobe Illustrator 16.0.0, SVG Export Plug-In . SVG Version: 6.00 Build 0)  -->
<!DOCTYPE svg PUBLIC "-//W3C//DTD SVG 1.1//EN" "http://www.w3.org/Graphics/SVG/1.1/DTD/svg11.dtd">
<svg version="1.1" id="Layer_1" xmlns="http://www.w3.org/2000/svg" xmlns:xlink="http://www.w3.org/1999/xlink" x="0px" y="0px"
	 width="150px" height="auto" viewBox="0 0 115.5 212.5" enable-background="new 0 0 115.5 212.5" xml:space="preserve">
<g>
	<path d="M75.996,4.749c4.117-0.072,8.387-1.775,12.391-0.11c-0.594,3.569,0.033,7.173,0.055,10.764
		c0.025,1.008-0.813,1.943-0.341,2.95c1.976,6.406,1.508,13.199,2.549,19.767c0.228,1.711,0.928,3.354,0.852,5.111
		c-0.165,5.391,1.518,10.633,1.509,16.023c0.101,2.457-0.346,4.889-0.969,7.262c0.472,0.354,1.315,0.45,1.471,1.129
		c1.909,7.005,1.142,14.381,2.604,21.457c0.405,4.133,1.589,8.137,2.158,12.25c0.669,4.417,1.866,8.737,2.512,13.154
		c0.218,0.969,0.687,1.876,0.813,2.875c-0.501,3.518-0.118,7.131-1.176,10.577c0.708,0.262,2.086,0.067,1.977,1.21
		c0.957,7.299,2.348,14.565,2.63,21.936c-0.291,2.711,0.434,5.361,0.582,8.054c0.185,5.188,1.609,10.204,3.072,15.152
		c0.906,3.266,0.932,6.688,1.606,10.004c1.104,4.22,0.165,8.771,1.761,12.901c0.637,1.946,1.72,4.143,0.742,6.165
		c-0.287,0.936-1.353,0.822-2.12,0.999c-0.08,0.253-0.231,0.767-0.312,1.02c-1.888,0.447-3.667-0.375-5.487-0.669
		c-4.838,0.354-9.698,0.454-14.536,0.816c-2.107,0.122-4.202,0.569-6.318,0.418c-2.709-0.169-5.331-1.033-8.049-1.121
		c-3.958-0.005-7.843,1.64-11.809,0.952c-1.795-0.22-3.228-2.288-2.369-3.995c0.586-1.37,0.544-2.874,0.721-4.319
		c0.206-1.767,1.243-3.317,1.37-5.096c0.118-1.69-0.228-3.359-0.464-5.015c-0.464-3.077-0.27-6.196-0.442-9.285
		c-0.038-1.538-0.885-3.018-0.409-4.556c-0.489-2.373,0.034-4.805-0.291-7.186c-0.506-3.929-0.7-7.906-0.286-11.842
		c-0.22-3.794,0.198-7.612-0.363-11.38c-0.287-2.28-0.789-4.641-0.101-6.895c0.404-1.399,1.403-2.5,2.352-3.554
		c-0.868-2.65-0.544-5.466-0.889-8.185c-0.282-2.334-0.712-4.648-1.13-6.953c-1.032-2.428-0.889-5.175-2.136-7.523
		c-0.894-1.808-1.049-3.855-1.837-5.688c-4.126-7.578-2.921-16.787-6.857-24.44c0.122,8.011-0.936,15.994-0.705,24.006
		c0.312,3.245-0.641,6.431-0.556,9.681c-0.085,1.782,0.304,3.569,0.029,5.352c-0.754,5.492-0.177,11.055-0.725,16.563
		c0.561,0.45,1.21,0.78,1.766,1.247c1.399,2.942-0.995,5.884-0.459,8.914c0.48,2.246-0.38,4.458-0.388,6.709
		c-0.033,6.078,1.336,12.054,1.374,18.127c-0.008,2.006,0.855,3.89,0.868,5.896c0.282,6.268,0.135,12.694,2.09,18.733
		c1.046,2.794,0.299,6.338,2.803,8.488c-0.282,0.645-0.573,1.29-0.873,1.938c0.19,0.595,0.363,1.176,0.544,1.796
		c-3.014-0.486-6.002,0.337-9.015,0.256c-3.785,0.06-7.569-0.492-11.345-0.109c-3.064,0.312-5.706,2.466-8.846,2.284
		c-1.977-0.067-3.081-2.309-5.083-2.191c-3.915-0.105-7.948-0.657-11.75,0.59c-0.759-0.205-1.509-0.388-2.259-0.576
		c-0.026-1.53-0.51-3.124,0.134-4.582c0.595-1.694,0.78-3.514,1.535-5.153c0.565-1.422,1.45-2.697,1.943-4.144
		c-0.245-1.585-0.797-3.098-1.012-4.678c-0.341-1.809,0.135-3.643-0.186-5.445c-0.568-3.843-1.525-7.616-2.082-11.455
		c-0.304-2.381-1.497-4.628-1.281-7.067c0.261-2.41,1.581-4.51,2.331-6.773c-0.093-2.86-0.628-5.655-1.071-8.471
		c-0.518-2.899,2.191-5.149,1.821-8.02c-0.088-2.799-0.446-5.58-0.384-8.379c0.123-1.42-0.99-2.479-1.247-3.797
		c-0.253-2.555,1.984-4.648,1.546-7.219c-0.32-4.051,0.388-8.121-0.202-12.154c-0.599-3.777,0.371-7.57-0.068-11.351
		c-0.413-1.433-1.336-2.748-1.293-4.278c0.08-2.245-0.658-4.425-0.531-6.67c-0.578-1.501-0.506-3.106-0.582-4.675
		c-0.097-2.04-1.016-3.902-1.323-5.896c-0.59-3.898-0.404-7.864-0.789-11.771c-0.552-2.372-0.4-4.809-0.484-7.215
		c-1.104-3.7-1.458-7.553-2.019-11.354c-0.063-2.399-0.366-4.825,0.101-7.194c0.363-2.373,0-4.779,0.266-7.151
		c0.097-1.885,0.755-3.667,1.087-5.51c-0.855-4.678,1.096-9.402,0.194-14.092C4.144,10.792,3.444,8.475,2.9,6.114
		c3.755-1.281,7.7-0.097,11.547-0.358c2.972-0.207,5.896,0.683,8.863,0.442c1.117-0.051,2.251-0.308,3.368-0.084
		c0.691,0.273,0.957,1.079,1.395,1.635c1.812,1.062,3.852,0.291,5.803,0.564c2.356,0.202,4.725,0.586,7.097,0.4
		c3.161-0.231,6.196-1.482,9.395-1.276c2.857,0.173,5.778,0.27,8.542-0.6c3.157-0.977,6.474-1.984,9.791-1.153
		c0.459-0.49,0.834-1.104,1.458-1.392C72.123,3.989,74.027,4.888,75.996,4.749 M70.727,7.584c1.446,3.414,1.682,7.157,1.985,10.807
		c0.43,1.092,0.527,2.217,0.152,3.355c1.265,0.404,2.571,0.69,3.907,0.753c0.122-0.816,0.261-1.644,0.127-2.456
		c-0.46-2.945-0.57-5.926-0.848-8.889c-0.144-1.694-0.733-3.637-2.533-4.172c-0.918-0.215-1.72-0.712-2.559-1.108
		C70.133,5.975,70.534,7.087,70.727,7.584 M76.569,7.238c0.033,3.133,0.666,6.23,0.809,9.369c2.226-0.223,4.548-0.346,6.634-1.18
		c1.707-2.52,1.079-5.782,1.05-8.648C82.22,6.67,79.379,6.843,76.569,7.238 M24.714,7.307c-0.147,0.788-0.552,1.471-1.125,2.031
		c-0.556,3.233-0.459,6.537-0.536,9.808c0.637,1.02,0.78,2.187,0.733,3.38c1.307,1.192,2.921,2.031,4.695,2.242
		c-0.768-2.107-0.506-4.346-1.049-6.49c-0.607-3.119-0.708-6.326-0.371-9.479c-0.278-0.514-0.553-1.023-0.822-1.521
		C25.726,7.277,25.219,7.285,24.714,7.307 M68.86,8.284c-3.317-0.729-6.583,0.422-9.735,1.323c-4.897,1.568-10.132,0-15.084,1.281
		c-0.034,6.883,1.399,13.668,1.728,20.533c0.333,3.937-0.249,7.906,0.358,11.825c0.228,3.195-0.897,7.119,1.724,9.622
		c1.681,0.262,3.414-0.215,5.121,0.017c-0.009,0.334-0.018,0.995-0.025,1.324c-1.674-0.527-3.422-0.396-5.146-0.409
		c-0.982-0.375-1.526-1.416-1.947-2.317c-1.21-2.922-0.194-6.12-0.687-9.142c-0.371-2.091-0.11-4.211-0.127-6.31
		c0.059-4.939-0.577-9.846-1.075-14.747c-0.674,0.237-1.34,0.523-2.052,0.629c-4.37,0.561-8.757-0.135-13.12-0.431
		c0.383,1.361,0.687,2.761,0.615,4.189c-2.452,0.266-5.007-0.754-6.558-2.672c-0.24-0.936-0.232-1.909-0.346-2.857
		c-4.45-0.99-9.006-1.416-13.562-1.471c-0.826,2.98-1.581,6.148-0.573,9.191c3.953,0.712,7.957,1.101,11.939,1.636
		c1.875,0.315,3.743-0.071,5.597-0.341c1.053-0.156,1.643,0.969,1.884,1.825c0.809,3.732,1.576,7.514,1.61,11.345
		c-0.316,1.976-0.86,3.923-1.433,5.841l-0.476-0.304c-0.421-2.001,0.995-3.907,0.961-5.926c-0.16-3.699-0.75-7.383-1.703-10.956
		c-0.055-0.679-0.717-1.004-1.328-0.785c-5.829,1.257-11.619-1.458-17.46-0.854c-1.269,6.225-1.896,12.646-0.897,18.96
		c1.623,9.348,1.757,18.86,2.954,28.258c-0.139,2.562,0.94,4.965,1.02,7.511c0.105,1.977,0.7,3.878,1.066,5.815
		c0.287,1.319-0.328,2.643-0.071,3.97c0.388,1.985,1.42,3.798,1.665,5.82c0.219,1.834-0.35,3.642-0.333,5.475
		c0.017,1.104,0.055,2.217-0.067,3.326c-0.262,2.006,0.552,3.965,0.295,5.979c-0.422,4.484,1.1,9.42-1.438,13.503
		c0.362,1.833,0.86,3.643,1.218,5.483c0.519,2.608,0.379,5.285,0.342,7.937c-0.105,1.449-0.017,3.038-0.831,4.323
		c-0.379,0.78-1.129,1.479-0.99,2.428c0.093,1.842,0.771,3.629,0.585,5.496c-0.117,1.689,0.084,3.38,0.4,5.044
		c-1.003,1.859-2.237,3.742-2.309,5.926c0.468,3.898,0.868,7.83,2.048,11.599c1.61,4.665,0.447,9.739,1.977,14.434
		c0.725,1.69-0.139,3.381-0.548,5.028c2.541-0.211,5.142,0.396,7.62-0.413c4.615-0.982,9.731-1.602,14.11,0.59
		c-0.708,0.948-1.526,1.905-2.718,2.234c-2.63,0.821-5.314-0.257-7.885-0.797c-3.254-0.801-6.621-0.568-9.934-0.746
		c0.202,0.488,0.409,0.99,0.62,1.496c-0.834-0.366-1.652-0.801-2.562-0.902c-1.45,2.449-1.989,5.323-2.301,8.117
		c3.805-0.83,7.653,0.014,11.488-0.075c1.02,0.034,2.149,0.012,3.005,0.674c0.809,0.477,1.479,1.294,2.449,1.438
		c1.635-0.017,3.127-0.784,4.632-1.336c4.139-1.829,8.753-0.868,13.119-0.979c2.646,0.178,5.209-0.712,7.852-0.61
		c-0.712-1.716-0.721-3.612-1.404-5.327c-1.041-2.681-1.146-5.575-1.719-8.357c-0.564-2.621-0.21-5.318-0.426-7.966
		c-0.088-1.833-0.653-3.59-0.788-5.41c-0.266-2.887-0.287-5.792-0.523-8.675c-0.177-2.19-0.729-4.332-0.809-6.527
		c-0.055-2.55-0.59-5.078-0.379-7.632c0.228-2.373-0.27-4.775,0.228-7.118c-0.452-2.973,0.78-5.88,0.531-8.855
		c-0.725-0.619-1.985-0.911-2.065-2.026c-0.261-2.71,0.839-5.362,0.514-8.084c-0.375-3.371,0.093-6.747,0.354-10.098
		c-0.409-3.549,0.367-7.051,0.662-10.566c-0.274-6.044-0.219-12.107,0.249-18.139c0.152-1.972-0.156-3.944-0.081-5.913
		c0.084-2.933,0.447-5.862,0.223-8.791c0.232-0.121,0.691-0.366,0.924-0.489c-0.666-4.622-0.616-9.301-1.168-13.928
		c-0.042-0.877-0.456-1.627-1.003-2.272c0.375-0.594,0.91-1.521,1.761-1.07c1.901,0.675,2.567,2.854,2.744,4.679
		c0.48,4.64-0.013,9.428,1.458,13.928c0.784,2.227,1.968,4.291,2.782,6.508c0.839,2.237,1.096,4.623,1.492,6.967
		c0.758,4.665,1.399,9.402,3.081,13.853c1.749,4.725,3.683,9.411,4.775,14.347c0.569,3.354,1.248,6.709,1.568,10.105
		c-0.189,2.115,0.409,4.168,0.573,6.255c-1.011,1.129-2.461,2.166-2.444,3.852c0.042,2.562,0.923,5.028,0.928,7.6
		c0.054,5.617-0.864,11.223-0.38,16.839c0.321,3.929,0.291,7.874,0.455,11.811c0.084,2.532,0.582,5.035,0.586,7.581
		c0.038,2.832,0.678,5.632,0.615,8.472c-0.047,2.461-0.944,4.788-1.441,7.178c-0.472,2.056-0.042,4.176-0.299,6.258
		c2.807-0.219,5.513-1.18,8.344-1.142c3.701-0.034,7.237,1.646,10.962,1.217c6.158-0.699,12.37-0.83,18.527-1.58
		c0.897-0.101,1.842-0.273,2.719,0.08c1.551,0.577,3.199,0.78,4.842,0.91c-0.667-2.761-1.34-5.524-1.732-8.336
		c-1.269-8.142-1.29-16.555-4.034-24.401c-1.588-5.546-2.098-11.329-2.532-17.056c-0.358-3.798-0.324-7.633-1.041-11.389
		c-0.54-3.409-0.859-6.848-1.382-10.258c-0.763-0.071-1.526-0.126-2.28-0.177c-0.122-1.074-0.405-2.188-0.025-3.228
		c1.551-3.916,1.074-8.243,0.678-12.328c-0.615-4.403-1.378-8.82-2.899-13.01c-0.505-1.374,0.219-2.845-0.252-4.223
		c-0.902-3.523-1.455-7.114-1.88-10.713c-1.117-5.239-0.662-10.676-1.909-15.889c-0.435,0.59-0.817,1.238-1.366,1.74
		c-0.649,0.206-1.344,0.105-2.006,0.136c-0.632,2.966-1.488,5.874-2.377,8.773c0.299-0.004,0.894-0.008,1.188-0.013
		c-0.396,2.513-1.453,4.881-2.676,7.093c-0.329,0.717-1.121,0.713-1.787,0.645c1.218-4.036,2.925-7.914,3.975-12.011
		c1.138-3.275,1.116-6.764,1.786-10.131c0.274-1.918-1.032-4.553,1.097-5.754c-0.043,1.164-0.207,2.313-0.426,3.461
		c-0.485,0.994,1.243,0.308,0.291-0.177c0.763-1.561,1.323-3.305,1.155-5.058c-0.409-5.487-0.923-10.966-1.648-16.42
		c-0.367-2.983-0.257-6.022-0.931-8.964c-0.557-2.394-0.924-4.826-0.952-7.282c-0.662-0.308-1.383-0.511-2.096-0.249
		c-3.59,0.81-7.265,1.227-10.949,1.172c-3.215-0.047-6.469,0.117-9.646-0.459c0.034-0.684,0.51-1.033,1.18-0.831
		c6.343,0.371,12.804,0.577,19.037-0.881c0.897-0.206,1.689-0.691,2.461-1.185c-0.599-2.903-0.86-5.908-2.12-8.631
		c-2.204,0.338-4.392,0.813-6.621,0.948c0.337,1.913,0.459,3.886-0.059,5.781c-2.065,0.287-4.101-0.23-6.014-0.964
		c0.051-0.901,0.114-1.8,0.182-2.689c-5.732,0.427-11.4,2.175-17.183,1.61c-0.105-0.249-0.312-0.742-0.413-0.99
		c5.972,0.408,11.804-1.188,17.712-1.724c-0.16-3.932-0.476-8.008-2.237-11.59C69.467,7.538,69.16,7.905,68.86,8.284 M6.887,8.027
		c0.881,3.081,1.471,6.242,1.795,9.428c4.488,0.147,8.972,0.451,13.372,1.386c0.102-3.304,0.262-6.604,0.384-9.903
		C17.246,8.773,12.079,8.141,6.887,8.027 M27.967,9.068c-0.354,3.78-0.055,7.606,0.877,11.29c4.939,0.308,10.216,1.729,14.915-0.459
		c-0.244-2.343-0.354-4.694-0.62-7.029c-0.16-0.667-0.274-1.872-1.231-1.635C37.18,11.458,32.33,11.045,27.967,9.068 M86.034,82.72
		c-0.67,0.473-1.783,1.282-1.192,2.213C86.148,85.531,85.988,83.517,86.034,82.72 M83.24,89.725c0.7-1.374,1.889-2.769,1.64-4.396
		C83.704,86.332,83.118,88.166,83.24,89.725 M22.821,195.921c2.719,0.417,5.332,1.424,8.088,1.601c1.344,0.11,2.57-0.497,3.565-1.34
		C30.766,194.731,26.631,195.111,22.821,195.921z"/>
	<path fill="#29ABE2" d="M70.727,7.584c-0.193-0.497-0.594-1.609,0.231-1.71c0.839,0.396,1.64,0.894,2.559,1.108
		c1.8,0.535,2.39,2.478,2.533,4.172c0.278,2.963,0.387,5.943,0.848,8.889c0.134,0.812-0.005,1.64-0.127,2.456
		c-1.336-0.062-2.643-0.349-3.907-0.753c0.375-1.139,0.278-2.264-0.152-3.355C72.409,14.741,72.173,10.998,70.727,7.584z"/>
	<path fill="#29ABE2" d="M76.569,7.238c2.811-0.396,5.651-0.568,8.492-0.459c0.029,2.866,0.657,6.129-1.05,8.648
		c-2.086,0.834-4.408,0.957-6.634,1.18C77.235,13.469,76.602,10.371,76.569,7.238z"/>
	<path fill="#29ABE2" d="M24.714,7.307c0.505-0.021,1.012-0.029,1.526-0.029c0.269,0.497,0.544,1.007,0.822,1.521
		c-0.337,3.153-0.236,6.36,0.371,9.479c0.543,2.145,0.282,4.383,1.049,6.49c-1.774-0.211-3.389-1.05-4.695-2.242
		c0.046-1.193-0.097-2.36-0.733-3.38c0.076-3.271-0.021-6.574,0.536-9.808C24.162,8.777,24.567,8.095,24.714,7.307z"/>
	<path fill="#29ABE2" d="M68.86,8.284c0.299-0.379,0.607-0.746,0.915-1.112c1.761,3.582,2.078,7.658,2.237,11.59
		c-5.908,0.535-11.741,2.132-17.712,1.724c0.101,0.248,0.307,0.741,0.413,0.99c5.782,0.564,11.451-1.184,17.183-1.61
		c-0.067,0.89-0.131,1.788-0.182,2.689c1.913,0.733,3.949,1.251,6.014,0.964c0.518-1.896,0.396-3.868,0.059-5.781
		c2.229-0.135,4.417-0.61,6.621-0.948c1.26,2.723,1.521,5.728,2.12,8.631c-0.771,0.493-1.563,0.979-2.461,1.185
		c-6.233,1.458-12.694,1.252-19.037,0.881c-0.67-0.202-1.146,0.147-1.18,0.831c3.178,0.576,6.431,0.412,9.646,0.459
		c3.684,0.055,7.358-0.362,10.949-1.172c0.713-0.262,1.434-0.059,2.096,0.249c0.028,2.456,0.396,4.889,0.952,7.282
		c0.674,2.941,0.564,5.98,0.931,8.964c0.725,5.454,1.239,10.933,1.648,16.42c0.168,1.753-0.392,3.497-1.155,5.058l-0.291,0.177
		c0.219-1.147,0.383-2.297,0.426-3.461c-2.128,1.201-0.822,3.836-1.097,5.754c-0.67,3.367-0.648,6.855-1.786,10.131
		c-1.05,4.097-2.756,7.975-3.975,12.011c0.666,0.068,1.458,0.072,1.787-0.645c1.223-2.212,2.28-4.58,2.676-7.093
		c-0.294,0.005-0.889,0.009-1.188,0.013c0.889-2.899,1.745-5.808,2.377-8.773c0.662-0.03,1.357,0.07,2.006-0.136
		c0.548-0.502,0.931-1.15,1.366-1.74c1.247,5.213,0.792,10.649,1.909,15.889c0.425,3.599,0.978,7.189,1.88,10.713
		c0.472,1.378-0.253,2.849,0.252,4.223c1.521,4.189,2.284,8.606,2.899,13.01c0.396,4.085,0.873,8.412-0.678,12.328
		c-0.38,1.04-0.097,2.153,0.025,3.228c0.754,0.051,1.517,0.105,2.28,0.177c0.523,3.41,0.843,6.849,1.382,10.258
		c0.717,3.756,0.683,7.591,1.041,11.389c0.434,5.727,0.944,11.51,2.532,17.056c2.744,7.847,2.765,16.26,4.034,24.401
		c0.392,2.812,1.066,5.575,1.732,8.336c-1.644-0.13-3.292-0.333-4.842-0.91c-0.877-0.354-1.821-0.181-2.719-0.08
		c-6.157,0.75-12.369,0.881-18.527,1.58c-3.725,0.43-7.261-1.251-10.962-1.217c-2.832-0.038-5.538,0.923-8.344,1.142
		c0.257-2.082-0.173-4.202,0.299-6.258c0.497-2.39,1.395-4.717,1.441-7.178c0.063-2.84-0.578-5.64-0.615-8.472
		c-0.005-2.546-0.502-5.049-0.586-7.581c-0.164-3.937-0.134-7.882-0.455-11.811c-0.484-5.616,0.434-11.222,0.38-16.839
		c-0.004-2.571-0.886-5.037-0.928-7.6c-0.017-1.686,1.433-2.723,2.444-3.852c-0.164-2.087-0.762-4.14-0.573-6.255
		c-0.32-3.396-0.999-6.752-1.568-10.105c-1.092-4.936-3.026-9.622-4.775-14.347c-1.682-4.45-2.323-9.188-3.081-13.853
		c-0.396-2.344-0.653-4.729-1.492-6.967c-0.813-2.217-1.998-4.281-2.782-6.508c-1.471-4.5-0.978-9.288-1.458-13.928
		c-0.177-1.825-0.843-4.004-2.744-4.679c-0.851-0.451-1.386,0.477-1.761,1.07c0.547,0.646,0.961,1.396,1.003,2.272
		c0.552,4.627,0.502,9.306,1.168,13.928c-0.232,0.123-0.692,0.368-0.924,0.489c0.224,2.929-0.139,5.858-0.223,8.791
		c-0.076,1.969,0.232,3.941,0.081,5.913c-0.468,6.031-0.523,12.095-0.249,18.139c-0.295,3.516-1.07,7.018-0.662,10.566
		c-0.261,3.351-0.729,6.727-0.354,10.098c0.325,2.722-0.775,5.374-0.514,8.084c0.08,1.115,1.34,1.407,2.065,2.026
		c0.249,2.976-0.982,5.883-0.531,8.855c-0.498,2.343,0,4.745-0.228,7.118c-0.21,2.554,0.325,5.082,0.379,7.632
		c0.08,2.195,0.632,4.337,0.809,6.527c0.236,2.883,0.257,5.788,0.523,8.675c0.134,1.82,0.699,3.577,0.788,5.41
		c0.215,2.647-0.139,5.345,0.426,7.966c0.573,2.782,0.678,5.677,1.719,8.357c0.683,1.715,0.691,3.611,1.404,5.327
		c-2.643-0.102-5.206,0.788-7.852,0.61c-4.366,0.11-8.98-0.851-13.119,0.979c-1.505,0.552-2.997,1.319-4.632,1.336
		c-0.969-0.144-1.64-0.961-2.449-1.438c-0.856-0.662-1.985-0.64-3.005-0.674c-3.835,0.089-7.683-0.755-11.488,0.075
		c0.312-2.794,0.851-5.668,2.301-8.117c0.91,0.102,1.728,0.536,2.562,0.902c-0.21-0.506-0.417-1.008-0.62-1.496
		c3.312,0.178,6.68-0.055,9.934,0.746c2.571,0.54,5.255,1.618,7.885,0.797c1.192-0.329,2.01-1.286,2.718-2.234
		c-4.379-2.191-9.495-1.572-14.11-0.59c-2.478,0.809-5.079,0.202-7.62,0.413c0.409-1.647,1.272-3.338,0.548-5.028
		c-1.53-4.694-0.367-9.769-1.977-14.434c-1.18-3.769-1.58-7.7-2.048-11.599c0.072-2.184,1.306-4.066,2.309-5.926
		c-0.316-1.664-0.518-3.354-0.4-5.044c0.186-1.867-0.493-3.654-0.585-5.496c-0.139-0.948,0.611-1.647,0.99-2.428
		c0.814-1.285,0.725-2.874,0.831-4.323c0.038-2.651,0.177-5.328-0.342-7.937c-0.358-1.841-0.855-3.65-1.218-5.483
		c2.537-4.083,1.016-9.019,1.438-13.503c0.257-2.015-0.557-3.974-0.295-5.979c0.122-1.109,0.084-2.222,0.067-3.326
		c-0.017-1.833,0.552-3.641,0.333-5.475c-0.245-2.022-1.277-3.835-1.665-5.82c-0.257-1.327,0.358-2.65,0.071-3.97
		c-0.366-1.938-0.961-3.839-1.066-5.815c-0.08-2.546-1.159-4.948-1.02-7.511c-1.197-9.397-1.332-18.91-2.954-28.258
		c-0.999-6.313-0.371-12.735,0.897-18.96c5.841-0.604,11.631,2.111,17.46,0.854c0.611-0.219,1.273,0.106,1.328,0.785
		c0.952,3.573,1.542,7.257,1.703,10.956c0.034,2.019-1.382,3.925-0.961,5.926l0.476,0.304c0.573-1.918,1.117-3.865,1.433-5.841
		c-0.034-3.831-0.801-7.612-1.61-11.345c-0.241-0.856-0.831-1.981-1.884-1.825c-1.854,0.27-3.722,0.656-5.597,0.341
		c-3.983-0.535-7.986-0.924-11.939-1.636c-1.007-3.043-0.252-6.211,0.573-9.191c4.556,0.055,9.112,0.48,13.562,1.471
		c0.114,0.948,0.105,1.922,0.346,2.857c1.551,1.918,4.105,2.938,6.558,2.672c0.072-1.429-0.232-2.828-0.615-4.189
		c4.362,0.296,8.75,0.991,13.12,0.431c0.712-0.105,1.378-0.392,2.052-0.629c0.498,4.901,1.134,9.808,1.075,14.747
		c0.017,2.099-0.244,4.219,0.127,6.31c0.493,3.021-0.523,6.22,0.687,9.142c0.421,0.901,0.965,1.942,1.947,2.317
		c1.724,0.013,3.472-0.118,5.146,0.409c0.008-0.329,0.017-0.99,0.025-1.324c-1.707-0.231-3.439,0.245-5.121-0.017
		c-2.622-2.503-1.497-6.427-1.724-9.622c-0.607-3.919-0.025-7.889-0.358-11.825c-0.329-6.865-1.762-13.65-1.728-20.533
		c4.952-1.281,10.187,0.287,15.084-1.281C62.277,8.706,65.543,7.555,68.86,8.284 M49.242,13.51
		c-1.294,0.316-3.127,0.633-3.215,2.306c-0.156,2.02,0.783,4.716,3.017,5.159c2.44,0.08,4.383-2.39,4.294-4.721
		C53.2,14.328,51.034,13.076,49.242,13.51 M63.285,29.812c0.535,4.37,1.614,8.652,2.339,12.993
		c0.443,3.371,1.404,6.663,1.307,10.089c-0.076,2.191,3.523,3.165,4.413,1.185c-1.079-0.169-2.702,0.514-3.304-0.755
		c-0.484-1.34-0.109-2.807-0.32-4.185c-1.193-6.317-2.175-12.687-3.574-18.956C63.929,30.091,63.5,29.905,63.285,29.812
		 M55.88,58.255c-0.122,1.851,0.771,3.536,1.416,5.218c1.007,2.276,2.057,4.619,3.776,6.457c0.527,0.653,1.605,0.821,2.209,0.172
		c0.287-0.88-0.607-1.336-1.079-1.892c-0.337,0.076-1.012,0.228-1.349,0.299c-0.784-1.227-1.551-2.47-2.166-3.784
		C57.565,62.643,57.224,60.215,55.88,58.255 M46.587,68.893c-0.236,9.685-2.183,19.556-7.105,28.001
		c-0.463,0.623-0.253,1.391-0.186,2.106c3.878-1.837,5.003-6.354,6.6-9.958c-0.139-0.063-0.421-0.187-0.564-0.249
		c-1.677,2.942-2.364,6.592-5.159,8.783c0.999-2.327,2.314-4.509,3.156-6.903c2.787-7.409,4.08-15.378,3.958-23.284
		C46.671,67.671,46.562,68.277,46.587,68.893 M17.545,116.782c0.24,2.03,0.134,4.087,0.472,6.115
		c0.375,3.615,1.922,6.966,3.561,10.16c1.349,2.63,3.499,4.771,4.662,7.506c-3.941-1.888-5.117-6.481-7.362-9.874
		c-0.574-0.725-1.214-1.981-2.323-1.514c1.505,1.809,2.744,3.803,3.764,5.921c1.551,2.896,3.566,6.306,7.207,6.634
		c-0.384-1.841-1.361-3.455-2.461-4.947c-3.869-5.218-6.706-11.539-6.44-18.151C18.822,117.756,18.333,117.085,17.545,116.782
		 M92.643,119.074c-2.385,3.549-5.761,7.14-5.116,11.783c0.7-0.146,1.517-0.168,1.985-0.805c2.672-2.887,3.713-6.785,5.34-10.275
		C94.138,119.461,93.396,119.234,92.643,119.074 M70.622,129.008c-0.683,2.601,2.238,3.806,3.056,5.904
		c0.995,2.229,2.466,4.544,4.843,5.466c1.437,0.586,3.089-0.446,3.46-1.883c-1.23-1.492-2.887-2.56-4.48-3.617
		c-1.449-0.965-3.278-1.353-4.476-2.675C72.097,131.225,71.667,129.876,70.622,129.008 M95.799,192.874
		c-3.666,0.228-7.299,0.805-10.961,1.058c-1.842,0.126-3.603,0.729-5.239,1.562c1.568,1.661,3.843,2.458,6.099,2.5
		c3.152,0.072,6.258-0.628,9.36-1.092c0.042-0.197,0.126-0.602,0.168-0.801c-4.572,0.067-9.587,2.317-13.832-0.35
		c1.239-0.468,2.529-0.81,3.86-0.897c3.658-0.29,7.295-0.805,10.958-1.059c2.777-0.192,5.487-0.884,8.243-1.238
		c0.03-0.231,0.093-0.691,0.126-0.923C101.624,191.854,98.758,192.713,95.799,192.874z"/>
	<path fill="#29ABE2" d="M6.887,8.027c5.192,0.113,10.359,0.746,15.551,0.91c-0.122,3.3-0.282,6.6-0.384,9.903
		c-4.4-0.935-8.884-1.238-13.372-1.386C8.358,14.27,7.768,11.108,6.887,8.027z"/>
	<path fill="#29ABE2" d="M27.967,9.068c4.362,1.977,9.213,2.39,13.941,2.167c0.957-0.237,1.071,0.968,1.231,1.635
		c0.265,2.335,0.375,4.687,0.62,7.029c-4.699,2.188-9.976,0.767-14.915,0.459C27.913,16.675,27.613,12.849,27.967,9.068z"/>
	<path d="M49.242,13.51c1.792-0.434,3.958,0.818,4.096,2.744c0.088,2.331-1.854,4.801-4.294,4.721
		c-2.234-0.443-3.173-3.14-3.017-5.159C46.115,14.143,47.948,13.826,49.242,13.51 M47.265,15.339
		c-0.299,1.669,0.287,4.144,2.208,4.497c1.728-0.421,3.296-2.609,2.394-4.307C50.7,14.032,48.728,14.854,47.265,15.339z"/>
	<path fill="#998675" d="M47.265,15.339c1.462-0.484,3.435-1.307,4.603,0.19c0.902,1.697-0.666,3.886-2.394,4.307
		C47.552,19.482,46.966,17.008,47.265,15.339z"/>
	<path d="M63.285,29.812c0.215,0.093,0.645,0.278,0.859,0.371c1.399,6.27,2.381,12.639,3.574,18.956
		c0.211,1.378-0.164,2.845,0.32,4.185c0.603,1.269,2.225,0.586,3.304,0.755c-0.889,1.98-4.488,1.007-4.413-1.185
		c0.097-3.426-0.864-6.718-1.307-10.089C64.898,38.465,63.82,34.183,63.285,29.812z"/>
	<path d="M55.88,58.255c1.344,1.96,1.686,4.388,2.807,6.47c0.615,1.314,1.382,2.558,2.166,3.784
		c0.337-0.071,1.011-0.223,1.349-0.299c0.472,0.556,1.366,1.012,1.079,1.892c-0.604,0.649-1.682,0.481-2.209-0.172
		c-1.719-1.838-2.769-4.181-3.776-6.457C56.651,61.791,55.758,60.105,55.88,58.255 M61.726,69.091
		c-0.165,0.581,0.051,0.792,0.644,0.632C62.522,69.129,62.307,68.918,61.726,69.091z"/>
	<path enable-background="new    " d="M88.626,65.753l0.291-0.177C89.869,66.061,88.142,66.747,88.626,65.753z"/>
	<path d="M46.587,68.893c-0.025-0.615,0.084-1.222,0.699-1.504c0.122,7.906-1.171,15.875-3.958,23.284
		c-0.842,2.395-2.157,4.576-3.156,6.903c2.794-2.191,3.481-5.841,5.159-8.783c0.143,0.062,0.425,0.186,0.564,0.249
		c-1.597,3.604-2.722,8.121-6.6,9.958c-0.067-0.716-0.277-1.483,0.186-2.106C44.404,88.448,46.351,78.577,46.587,68.893z"/>
	<path opacity="0.95" fill="#383883" enable-background="new    " d="M61.726,69.091c0.582-0.173,0.796,0.038,0.644,0.632
		C61.776,69.883,61.561,69.672,61.726,69.091z"/>
	<path opacity="0.96" fill="#29ABE2" enable-background="new    " d="M86.034,82.72c-0.046,0.797,0.114,2.812-1.192,2.213
		C84.251,84.002,85.364,83.192,86.034,82.72z"/>
	<path opacity="0.96" fill="#29ABE2" enable-background="new    " d="M83.24,89.725c-0.122-1.559,0.464-3.393,1.64-4.396
		C85.128,86.956,83.939,88.351,83.24,89.725z"/>
	<path d="M17.545,116.782c0.788,0.303,1.276,0.974,1.079,1.85c-0.266,6.612,2.571,12.934,6.44,18.151
		c1.1,1.492,2.077,3.106,2.461,4.947c-3.641-0.328-5.656-3.737-7.207-6.634c-1.02-2.118-2.259-4.112-3.764-5.921
		c1.109-0.468,1.749,0.789,2.323,1.514c2.246,3.393,3.421,7.986,7.362,9.874c-1.163-2.735-3.313-4.876-4.662-7.506
		c-1.639-3.194-3.186-6.545-3.561-10.16C17.68,120.869,17.785,118.812,17.545,116.782z"/>
	<path d="M92.643,119.074c0.754,0.16,1.496,0.387,2.208,0.703c-1.627,3.49-2.668,7.389-5.34,10.275
		c-0.468,0.637-1.285,0.658-1.985,0.805C86.881,126.214,90.257,122.623,92.643,119.074 M90.94,123.064
		c-1.42,1.994-2.646,4.253-2.651,6.765c1.707-1.264,2.638-3.232,3.502-5.112c0.7-1.613,1.483-3.207,1.863-4.931
		C92.482,120.629,91.741,121.894,90.94,123.064z"/>
	<path fill="#29ABE2" d="M90.94,123.064c0.801-1.171,1.542-2.436,2.714-3.278c-0.38,1.724-1.163,3.317-1.863,4.931
		c-0.864,1.88-1.796,3.849-3.502,5.112C88.293,127.317,89.52,125.059,90.94,123.064z"/>
	<path d="M70.622,129.008c1.046,0.868,1.475,2.217,2.402,3.195c1.197,1.322,3.026,1.71,4.476,2.675
		c1.594,1.058,3.25,2.125,4.48,3.617c-0.371,1.437-2.023,2.469-3.46,1.883c-2.377-0.922-3.848-3.236-4.843-5.466
		C72.86,132.813,69.939,131.608,70.622,129.008 M74.167,134.12c0.901,2.183,2.28,4.37,4.434,5.491
		c1.015,0.59,1.913-0.277,2.601-0.94C79.093,136.826,76.834,135.067,74.167,134.12z"/>
	<path fill="#29ABE2" d="M74.167,134.12c2.668,0.947,4.927,2.706,7.034,4.551c-0.688,0.663-1.585,1.53-2.601,0.94
		C76.447,138.49,75.068,136.303,74.167,134.12z"/>
	<path d="M95.799,192.874c2.959-0.161,5.825-1.021,8.783-1.239c-0.034,0.231-0.097,0.691-0.126,0.923
		c-2.756,0.354-5.466,1.046-8.243,1.238c-3.663,0.254-7.3,0.769-10.958,1.059c-1.332,0.088-2.621,0.43-3.86,0.897
		c4.244,2.667,9.259,0.417,13.832,0.35c-0.042,0.199-0.126,0.604-0.168,0.801c-3.102,0.464-6.208,1.164-9.36,1.092
		c-2.255-0.042-4.531-0.839-6.099-2.5c1.636-0.834,3.397-1.437,5.239-1.562C88.5,193.679,92.133,193.102,95.799,192.874z"/>
	<path fill="#29ABE2" d="M22.821,195.921c3.81-0.81,7.945-1.189,11.654,0.261c-0.995,0.843-2.222,1.45-3.565,1.34
		C28.153,197.345,25.54,196.338,22.821,195.921z"/>
</g>
</svg>
