<?xml version="1.0" encoding="utf-8"?>
<!-- Generator: Adobe Illustrator 16.0.0, SVG Export Plug-In . SVG Version: 6.00 Build 0)  -->
<!DOCTYPE svg PUBLIC "-//W3C//DTD SVG 1.1//EN" "http://www.w3.org/Graphics/SVG/1.1/DTD/svg11.dtd">
<svg version="1.1" id="Layer_1" xmlns="http://www.w3.org/2000/svg" xmlns:xlink="http://www.w3.org/1999/xlink" x="0px" y="0px"
	 width="150px" height="auto" viewBox="0 0 111.75 110.25" enable-background="new 0 0 111.75 110.25" xml:space="preserve">
<g>
	<path d="M23.32,4.805c2.086-0.881,4.023-2.455,6.438-2.042c0.297,0.823,0.598,1.646,0.876,2.478
		c11.109,3.493,23.207,2.63,34.247-0.688c0.193-0.421,0.396-0.844,0.611-1.267c4.676-0.028,9.108,2.266,13.815,1.623
		c2.185-0.149,4.877-0.643,6.577,1.119c0.167,2.221-0.508,4.437-0.494,6.671c-0.171,2.248,0.045,4.5,0.251,6.744
		c-0.198,0.589-0.365,1.182-0.517,1.779c0.197-0.279,0.598-0.837,0.8-1.11c0.202,2.328,0.192,4.662,0.045,6.995
		c1.137,3.43,0.868,7.157,1.861,10.633c0.539,2.723,1.969,5.173,3.214,7.624c1.096,1.834,2.311,3.708,4.095,4.945
		c1.223,0.125,2.755-0.354,3.628,0.817c1.762,2.293,1.807,5.341,2.355,8.069c0.391,2.271,2.446,4.01,2.109,6.438
		c0.499,2.269,1.929,4.364,1.636,6.786c1.843,3.036,2.14,6.628,3.223,9.945c0.63,2.177,1.402,4.312,2.302,6.393
		c-3.718,3.258-8.838,3.825-13.284,5.602c-9.496,3.727-18.104,9.437-27.77,12.758c-1.398,0.514-2.805-0.193-4.145-0.531
		c-0.351-1.182-0.485-2.408-0.396-3.631c-0.732-3.516-0.697-7.19-1.983-10.582c-5.3,0.906-10.861,0.184-15.963,2.162
		c-0.661,3.879-0.072,7.809-0.036,11.705c-0.971,0.41-1.942,1.286-3.047,0.847c-1.354-0.36-2.671,0.328-4.001,0.444
		c-2.882,0.535-5.818,0.525-8.699,0.027c-7.436-1.097-14.866-2.321-22.37-2.868c-2.5-0.199-5.229,0.273-7.431-1.219
		c0.356-3.241,1.115-6.434,1.426-9.685c1.402-6.107,1.168-12.434,1.029-18.655C3.72,70.631,2.115,66.208,2.947,61.7
		c0.225-0.379,0.476-0.737,0.755-1.089c-0.153-0.373-0.296-0.746-0.426-1.119c3.434-1.573,3.982-5.638,5.938-8.484
		c3.359-6.251,2.486-13.562,3.278-20.364c0.206-1.68-0.581-3.259-0.585-4.922c-0.188-4.033,0.117-8.128-0.818-12.088
		c-0.359-1.345-0.279-2.738-0.112-4.101C15.143,8.113,19.315,6.652,23.32,4.805 M14.873,12.19c0.229,4.5,0.679,8.991,0.774,13.505
		c-0.036,1.497,0.462,2.936,0.525,4.423c-0.395,3.924-0.008,7.89-0.517,11.811c-0.643,7.367-3.39,14.884-9.144,19.794
		c0.207,3.572,0.603,7.138,0.804,10.718c0.693,9.705,0.373,19.541-1.717,29.07c8.623,1.376,17.353,1.889,26.016,2.937
		c1.749,0.225,3.435,0.81,5.219,0.85c-0.576-0.898-1.618-1.28-2.32-2.032c-0.786-1.087-0.966-2.535-0.674-3.816
		c1.021-1.673,2.545-2.953,3.956-4.292c1.668-0.249,3.349-0.06,4.91,0.601c0.688-2.917,0.162-5.933,0.494-8.886
		c0.341-2.389-0.607-4.965,0.652-7.182c-0.265-2.197-0.414-4.409-0.292-6.62c-0.733,1.357-1.349,2.84-2.553,3.861
		c-1.408,1.29-3.471,2.036-5.332,1.394c-1.749-0.684-2.567-2.77-2.361-4.532c0.37-3.155,4.038-5.399,7.014-4.261
		c1.424,0.513,2.202,1.883,3.039,3.052c0.193-5.957-0.162-11.966,0.8-17.878C37.399,51.814,31.322,46.4,29.12,39.213
		c-1.169-2.234-1.439-4.73-1.529-7.206c-1.249-8.321-1.168-16.8-0.386-25.167C23.37,9.236,18.735,9.938,14.873,12.19 M68.635,6.486
		c0.22,2.801,0.684,5.623,0.284,8.434c-0.243,1.5,0.382,2.952,0.315,4.45c-0.252,9.31,0.422,18.952-2.77,27.867
		c-1.254,3.368-3.43,6.527-6.662,8.244c0.422,2.406,1.052,4.766,1.609,7.144c0.949,3.574,1.241,7.279,2.301,10.82
		c1.938-2.189,4.784-4.661,7.908-3.281c-1.092,1.669-2.527,3.281-4.514,3.836c-1.223,0.386-2.445-0.114-3.596-0.445
		c0.494,1.428,0.926,2.948,0.543,4.459c1.26,2.531,0.953,5.521,1.574,8.24c3.52-0.328,6.212-2.976,9.634-3.619
		c0.863,0.193,1.231,1.511,0.305,1.865c-3.272,1.201-6.163,3.48-9.741,3.728c0.341,1.492,0.764,2.962,1.006,4.478
		c0.616,3.875,2.117,7.724,1.317,11.693c9.832-3.565,18.863-8.965,28.619-12.715c3.161-1.303,6.653-1.914,9.427-4.041
		c-1.61-3.232-2.455-6.742-3.304-10.227c-0.679-3.377-2.046-6.55-2.85-9.89c-0.558-2.447-1.624-4.743-2.267-7.166
		c-0.633-2.001-0.917-4.095-1.586-6.088c-1.03-0.284-2.158-0.427-2.904-1.259c-2.486-2.329-4.94-4.846-6.325-8.006
		c-1.056-2.832-2.54-5.513-3.125-8.506c-1.564-6.343-0.782-12.961-2.086-19.339c0.081-2.576-0.067-5.202,0.432-7.737
		c-0.225-0.54-0.436-1.079-0.638-1.614C77.19,8.036,72.87,7.421,68.635,6.486 M30.463,8.122c0.108,4.501-0.363,9.019,0.243,13.5
		c0.441,2.554-0.117,5.125,0.077,7.688c0.152,3.061,0.71,6.118,1.775,8.999c1.982,5.508,6.061,10.391,11.504,12.709
		c1.479,0.62,3.781-0.107,4.594,1.673c-0.292,1.784-1.061,3.494-1.02,5.341c0.023,3.029-0.53,6.041-0.269,9.072
		c0.202,2.384-0.284,4.77-0.059,7.153c0.176,1.523-0.314,3.024-0.135,4.547c-0.036,0.189-0.108,0.563-0.144,0.751
		c0.76,1.953-0.104,3.976,0.045,5.988c0.287,2.238-0.239,4.47-0.225,6.708c5.036-1.802,10.457-1.074,15.64-2.028
		c-1.447-9.084-2.737-18.205-4.756-27.193c-0.71-3.29-1.856-6.544-1.893-9.938c0.931-0.656,2.261-0.503,3.196-1.232
		c1.992-1.515,3.044-3.902,3.821-6.212c1.191-3.443,1.263-7.14,2.293-10.619c-0.319-5.017,0.805-10.025,0.41-15.038
		c-0.684-3.965,0.391-7.97-0.194-11.944C53.943,10.688,41.832,11.427,30.463,8.122 M85.268,22.237
		C85.471,22.48,85.471,22.48,85.268,22.237 M36.708,70.906c-2.473,1.061-3.25,5.039-0.607,6.344c2.593,0.742,5.125-1.547,5.929-3.88
		C41.914,70.96,38.699,69.526,36.708,70.906 M37.18,98.185c0.405,0.688,1.484,1.411,0.881,2.303
		c-1.101,0.019-1.331-1.704-2.41-1.575c-1.228,0.904-0.885,2.716-0.099,3.795c0.958,1.048,2.59,0.675,3.826,0.437
		c1.78-0.431,2.473-2.229,3.259-3.678c-0.138-0.809-0.247-1.622-0.314-2.437c-1.043-0.272-2.633-1.335-3.438-0.418
		C38.128,96.27,36.901,97.438,37.18,98.185 M39.94,104.28c-0.463-0.386-1.501,0.226-0.724,0.644
		c0.531,0.166,1.861,0.355,1.978-0.355c0.603-0.207,1.205-0.418,1.816-0.646c-0.104-0.328-0.305-0.985-0.409-1.313
		C41.63,103.021,40.812,103.715,39.94,104.28z"/>
	<path fill="#21F94A" d="M14.873,12.19c3.862-2.252,8.497-2.954,12.332-5.351c-0.782,8.367-0.863,16.846,0.386,25.167
		c0.09,2.476,0.36,4.972,1.529,7.206c2.203,7.188,8.28,12.602,15.046,15.492c-0.962,5.912-0.606,11.921-0.8,17.878
		c-0.836-1.169-1.614-2.539-3.039-3.052c-2.976-1.139-6.645,1.105-7.014,4.261c-0.206,1.763,0.612,3.849,2.361,4.532
		c1.861,0.643,3.924-0.104,5.332-1.394c1.205-1.021,1.82-2.504,2.553-3.861c-0.122,2.211,0.027,4.423,0.292,6.62
		c-1.259,2.217-0.311,4.793-0.652,7.182c-0.333,2.953,0.193,5.969-0.494,8.886c-1.561-0.66-3.241-0.85-4.91-0.601
		c-1.411,1.339-2.935,2.619-3.956,4.292c-0.292,1.281-0.112,2.729,0.674,3.816c0.702,0.752,1.744,1.134,2.32,2.032
		c-1.784-0.04-3.471-0.625-5.219-0.85c-8.663-1.048-17.393-1.561-26.016-2.937c2.09-9.529,2.41-19.365,1.717-29.07
		c-0.202-3.58-0.598-7.146-0.804-10.718c5.754-4.91,8.501-12.427,9.144-19.794c0.508-3.921,0.122-7.887,0.517-11.811
		c-0.062-1.487-0.561-2.926-0.525-4.423C15.552,21.182,15.103,16.69,14.873,12.19 M36.716,54.218
		c-3.138,1.022-3.623,6.057-0.58,7.464c2.963,1.056,6.699-1.317,7.026-4.45C42.507,54.528,39.212,53.031,36.716,54.218
		 M33.107,89.949c0.899,1.137,1.259,2.841,2.71,3.443c1.969,0.746,4.222-0.181,5.638-1.613c0.98-0.923,1.173-2.308,1.538-3.537
		c-0.54-1.115-0.926-2.496-2.185-2.995C37.585,83.849,33.044,86.209,33.107,89.949z"/>
	<path fill="#21F94A" d="M68.635,6.486c4.235,0.935,8.555,1.55,12.907,1.325c0.202,0.535,0.414,1.074,0.638,1.614
		c-0.499,2.535-0.351,5.161-0.432,7.737c1.304,6.378,0.522,12.996,2.086,19.339c0.584,2.993,2.068,5.674,3.125,8.506
		c1.385,3.16,3.839,5.677,6.325,8.006c0.747,0.832,1.875,0.975,2.904,1.259c0.67,1.993,0.953,4.087,1.586,6.088
		c0.643,2.423,1.709,4.719,2.267,7.166c0.804,3.34,2.171,6.513,2.85,9.89c0.849,3.484,1.694,6.994,3.304,10.227
		c-2.774,2.127-6.267,2.738-9.427,4.041c-9.755,3.75-18.787,9.149-28.619,12.715c0.8-3.97-0.701-7.818-1.317-11.693
		c-0.242-1.516-0.665-2.985-1.006-4.478c3.578-0.247,6.469-2.526,9.741-3.728c0.926-0.354,0.558-1.672-0.305-1.865
		c-3.422,0.644-6.114,3.291-9.634,3.619c-0.621-2.719-0.314-5.709-1.574-8.24c0.383-1.511-0.049-3.031-0.543-4.459
		c1.151,0.331,2.374,0.831,3.596,0.445c1.987-0.555,3.421-2.167,4.514-3.836c-3.124-1.38-5.97,1.092-7.908,3.281
		c-1.061-3.541-1.352-7.246-2.301-10.82c-0.558-2.378-1.187-4.737-1.609-7.144c3.232-1.717,5.408-4.876,6.662-8.244
		c3.192-8.915,2.518-18.558,2.77-27.867c0.067-1.498-0.558-2.95-0.315-4.45C69.318,12.109,68.854,9.287,68.635,6.486 M66.877,57.475
		c-1.542,0.651-3.093,1.307-4.553,2.121c-0.976,0.737,0.175,2.261,1.182,1.609c1.911-0.886,4.02-1.528,5.75-2.702
		C69.588,56.992,67.826,56.812,66.877,57.475 M89.323,60.086c-3.372,1.938-6.977,3.397-10.42,5.178
		c0.184,0.469,0.382,0.936,0.593,1.407c-0.328,0.94-0.292,1.925-0.153,2.896c1.821,1.965,2.752,4.88,5.4,5.971
		c3.178,1.438,6.882,0.034,9.229-2.312c1.654-1.683,3.516-3.61,3.592-6.119c0.355-3.713-1.335-7.403-3.929-9.988
		C92.155,58.055,90.848,59.231,89.323,60.086 M73.135,95.582c-1.268,0.85-2.77,1.2-4.141,1.812c-0.764,0.63-0.31,2.063,0.779,1.87
		c1.896-0.346,3.641-1.271,5.254-2.312c1.164-0.799,2.836-1.757,2.059-3.424C75.445,93.438,74.421,94.831,73.135,95.582z"/>
	<path fill="#1AD93E" d="M30.463,8.122c11.369,3.305,23.48,2.566,34.903-0.077c0.585,3.975-0.49,7.979,0.194,11.944
		c0.396,5.013-0.729,10.021-0.41,15.038c-1.03,3.479-1.102,7.176-2.293,10.619c-0.777,2.31-1.83,4.697-3.821,6.212
		c-0.935,0.729-2.265,0.576-3.196,1.232c0.036,3.395,1.182,6.648,1.893,9.938c2.019,8.988,3.309,18.109,4.756,27.193
		c-5.184,0.954-10.604,0.227-15.64,2.028c-0.014-2.238,0.512-4.47,0.225-6.708c-0.148-2.013,0.715-4.035-0.045-5.988
		c0.036-0.188,0.108-0.562,0.144-0.751c-0.18-1.522,0.311-3.023,0.135-4.547c-0.225-2.384,0.261-4.77,0.059-7.153
		c-0.261-3.031,0.292-6.043,0.269-9.072c-0.041-1.847,0.729-3.557,1.02-5.341c-0.813-1.78-3.115-1.053-4.594-1.673
		c-5.444-2.318-9.522-7.201-11.504-12.709c-1.065-2.881-1.623-5.938-1.775-8.999c-0.194-2.562,0.364-5.134-0.077-7.688
		C30.1,17.141,30.572,12.623,30.463,8.122z"/>
	<path opacity="0.56" enable-background="new    " d="M85.268,22.237C85.471,22.48,85.471,22.48,85.268,22.237z"/>
	<path d="M36.716,54.218c2.496-1.187,5.791,0.311,6.447,3.014c-0.328,3.133-4.063,5.506-7.026,4.45
		C33.093,60.274,33.579,55.24,36.716,54.218 M37.261,55.235c-2.324,0.692-2.809,4.229-0.656,5.412
		c2.194,0.657,4.617-0.983,5.381-3.043C41.711,55.526,39.095,54.399,37.261,55.235z"/>
	<path fill="#FCFF26" d="M37.261,55.235c1.834-0.836,4.451,0.291,4.725,2.369c-0.764,2.06-3.187,3.7-5.381,3.043
		C34.452,59.465,34.937,55.928,37.261,55.235 M35.93,58.156c0.185,0.814,1.165,1.07,1.897,0.886c0.036-0.373,0.104-1.12,0.135-1.492
		C37.301,57.766,36.235,57.36,35.93,58.156 M38.498,57.803c0.089,0.598,0.337,1.159,0.589,1.713
		c0.507-0.303,1.021-0.607,1.546-0.909C40.111,57.999,39.324,57.263,38.498,57.803z"/>
	<path d="M66.877,57.475c0.949-0.662,2.711-0.482,2.378,1.028c-1.73,1.174-3.839,1.816-5.75,2.702
		c-1.007,0.651-2.157-0.872-1.182-1.609C63.784,58.781,65.335,58.126,66.877,57.475z"/>
	<path d="M89.323,60.086c1.524-0.854,2.832-2.031,4.311-2.967c2.594,2.585,4.285,6.275,3.929,9.988
		c-0.076,2.509-1.938,4.437-3.592,6.119c-2.347,2.346-6.051,3.749-9.229,2.312c-2.648-1.091-3.579-4.006-5.4-5.971
		c-0.139-0.972-0.175-1.956,0.153-2.896c-0.211-0.472-0.41-0.938-0.593-1.407C82.346,63.483,85.951,62.023,89.323,60.086
		 M80.499,65.609c0.023,0.847-0.013,1.7-0.292,2.505c0.513,1.762,1.744,3.174,2.769,4.657c1.511,2.203,4.631,2.905,7.031,1.844
		c2.648-1.143,4.747-3.367,6.131-5.858c1.327-3.597-0.377-7.427-2.571-10.289C89.638,61.568,84.971,63.457,80.499,65.609z"/>
	<path d="M35.93,58.156c0.305-0.796,1.371-0.391,2.032-0.606c-0.031,0.372-0.099,1.119-0.135,1.492
		C37.095,59.227,36.115,58.971,35.93,58.156z"/>
	<path d="M38.498,57.803c0.826-0.54,1.613,0.196,2.135,0.804c-0.526,0.302-1.039,0.606-1.546,0.909
		C38.834,58.962,38.587,58.4,38.498,57.803z"/>
	<path fill="#1AD93E" d="M80.499,65.609c4.473-2.152,9.139-4.041,13.068-7.142c2.193,2.862,3.897,6.692,2.571,10.289
		c-1.384,2.491-3.483,4.716-6.131,5.858c-2.4,1.062-5.52,0.359-7.031-1.844c-1.025-1.483-2.256-2.896-2.769-4.657
		C80.485,67.31,80.521,66.456,80.499,65.609 M88.811,69.872c-0.796,0.396-2.051,0.252-2.298,1.312
		c2.19-0.115,4.393-1.011,5.773-2.773c0.661-0.917,1.55-2.022,1.038-3.224C92.222,67.059,91.054,69.221,88.811,69.872z"/>
	<path d="M88.811,69.872c2.243-0.651,3.411-2.813,4.513-4.685c0.512,1.201-0.377,2.307-1.038,3.224
		c-1.38,1.763-3.583,2.658-5.773,2.773C86.76,70.124,88.015,70.268,88.811,69.872z"/>
	<path fill="#FCFF26" d="M36.708,70.906c1.991-1.38,5.206,0.054,5.322,2.464c-0.804,2.333-3.336,4.622-5.929,3.88
		C33.458,75.945,34.235,71.967,36.708,70.906 M35.193,74.187c0.548,0.149,1.088,0.406,1.689,0.394
		c0.751-0.469,0.522-1.574-0.341-1.746C35.602,72.524,35.444,73.584,35.193,74.187 M38.092,73.584
		c0.167,0.312,0.495,0.936,0.661,1.247c0.994-0.018,1.578-0.54,1.596-1.565C39.581,73.36,38.839,73.468,38.092,73.584z"/>
	<path d="M35.193,74.187c0.251-0.603,0.409-1.662,1.349-1.353c0.863,0.172,1.092,1.277,0.341,1.746
		C36.281,74.593,35.741,74.336,35.193,74.187z"/>
	<path d="M38.092,73.584c0.747-0.116,1.488-0.224,2.257-0.318c-0.018,1.025-0.602,1.548-1.596,1.565
		C38.587,74.52,38.259,73.896,38.092,73.584z"/>
	<path d="M33.107,89.949c-0.062-3.74,4.478-6.101,7.701-4.702c1.259,0.499,1.646,1.88,2.185,2.995
		c-0.365,1.229-0.558,2.614-1.538,3.537c-1.416,1.433-3.669,2.359-5.638,1.613C34.366,92.79,34.006,91.086,33.107,89.949
		 M36.73,86.604c-1.084,0.48-2.022,1.361-2.283,2.549c0.651,1.206,0.858,3.156,2.575,3.26c1.762,0,3.569-1.048,4.28-2.697
		c0.445-1.098,0.193-2.567-0.845-3.242C39.293,85.84,37.867,86.056,36.73,86.604z"/>
	<path fill="#FCFF26" d="M36.73,86.604c1.137-0.549,2.562-0.765,3.727-0.131c1.038,0.675,1.291,2.145,0.845,3.242
		c-0.71,1.649-2.518,2.697-4.28,2.697c-1.717-0.104-1.924-2.054-2.575-3.26C34.708,87.966,35.646,87.085,36.73,86.604
		 M37.791,88.839c-0.66-0.067-1.312-0.127-1.951-0.175c-0.023,0.327-0.063,0.983-0.085,1.308c1.393,0.549,2.311-1.074,3.704-0.58
		c0.014-0.279,0.05-0.845,0.067-1.124c-0.306-0.03-0.926-0.09-1.232-0.116C38.168,88.321,37.917,88.668,37.791,88.839z"/>
	<path d="M37.791,88.839c0.126-0.171,0.377-0.518,0.503-0.688c0.306,0.026,0.926,0.086,1.232,0.116
		c-0.018,0.279-0.054,0.845-0.067,1.124c-1.393-0.494-2.311,1.129-3.704,0.58c0.022-0.324,0.062-0.98,0.085-1.308
		C36.479,88.712,37.131,88.771,37.791,88.839z"/>
	<path d="M73.135,95.582c1.286-0.751,2.31-2.144,3.951-2.054c0.777,1.667-0.895,2.625-2.059,3.424
		c-1.613,1.04-3.358,1.966-5.254,2.312c-1.089,0.193-1.542-1.24-0.779-1.87C70.366,96.782,71.868,96.432,73.135,95.582z"/>
	<path fill="#EAEAEA" d="M37.18,98.185c-0.279-0.746,0.948-1.915,1.704-1.573C38.551,97.354,38.021,98.046,37.18,98.185z"/>
	<path fill="#FCFF26" d="M38.884,96.611c0.805-0.917,2.396,0.146,3.438,0.418c0.068,0.814,0.176,1.628,0.314,2.437
		c-0.786,1.448-1.479,3.247-3.259,3.678c-1.236,0.238-2.868,0.611-3.826-0.437c-0.786-1.079-1.128-2.891,0.099-3.795
		c1.079-0.129,1.309,1.594,2.41,1.575c0.603-0.892-0.476-1.614-0.881-2.303C38.021,98.046,38.551,97.354,38.884,96.611
		 M39.015,99.525c0.476,0.544,1.227,0.574,1.883,0.804c0.162-0.485,0.329-0.972,0.5-1.451
		C40.529,98.751,39.544,98.661,39.015,99.525z"/>
	<path d="M39.015,99.525c0.53-0.864,1.515-0.774,2.382-0.647c-0.17,0.479-0.337,0.966-0.5,1.451
		C40.241,100.1,39.49,100.069,39.015,99.525z"/>
	<path fill="#21F94A" d="M39.94,104.28c0.872-0.565,1.689-1.259,2.661-1.672c0.104,0.328,0.306,0.985,0.409,1.313
		c-0.611,0.229-1.213,0.439-1.816,0.646C40.763,104.487,40.344,104.393,39.94,104.28z"/>
	<path opacity="0.46" enable-background="new    " d="M31.07,107.559c2.881,0.498,5.817,0.508,8.699-0.027
		C37.032,108.658,33.809,108.682,31.07,107.559z"/>
</g>
</svg>
