<svg width="74" height="53" viewBox="0 0 74 53" fill="none" xmlns="http://www.w3.org/2000/svg">
<path d="M71.86 34.14H71.87L57.38 6.37C55.62 2.61 51.81 0 47.39 0C42.48 0 38.32 3.21 36.89 7.64C36.72 8.17 36.59 8.71 36.5 9.27C36.41 8.71 36.29 8.16 36.11 7.64C34.67 3.21 30.52 0 25.61 0C21.2 0 17.4 2.59 15.63 6.33L1.35 34.14H1.37C0.5 35.83 0 37.74 0 39.77C0 46.6 5.54 52.14 12.37 52.14C18.36 52.14 23.35 47.88 24.49 42.23C25.63 47.88 30.62 52.14 36.61 52.14C42.6 52.14 47.59 47.88 48.73 42.23C49.87 47.89 54.86 52.14 60.85 52.14C67.68 52.14 73.22 46.6 73.22 39.77C73.23 37.74 72.73 35.83 71.86 34.14Z" fill="#111111"/>
</svg>
