<svg width="71" height="35" viewBox="0 0 71 35" fill="none" xmlns="http://www.w3.org/2000/svg">
<path d="M26.7559 12.963C25.9774 12.963 25.3286 13.2222 24.8095 13.6111C24.8095 11.7963 23.3821 10.3704 21.5655 10.3704C20.7869 10.3704 20.0083 10.6296 19.3594 11.1481C18.8405 9.85185 17.6726 9.07407 16.375 9.07407C15.5964 9.07407 14.9476 9.33333 14.4286 9.72219L14.4286 3.24071C14.4286 1.42589 13.0011 0 11.1846 0C9.36797 0 7.94056 1.42596 7.94056 3.24071L7.94056 14.7778C5.34533 12.4444 2.49058 10.6296 0.673917 12.4444C-1.92131 15.037 3.52867 20.0926 7.68103 27.7407C10.6656 33.0555 14.8179 35 18.9703 35C25.0691 35 30 30.0741 30 23.9815V16.2037C30 14.3889 28.5726 12.963 26.7559 12.963ZM28.7024 19.0556V23.9815C28.7024 29.0371 24.2905 33.7038 18.9702 33.7038C14.0393 33.7038 11.1846 30.9816 8.84885 27.2223C3.78812 18.6667 0.154803 14.7778 1.58221 13.3519C3.00962 11.926 6.51315 15.037 9.2381 17.889L9.2381 3.24071C9.2381 2.20367 10.1465 1.29623 11.1846 1.29623C12.2226 1.29623 13.131 2.20367 13.131 3.24071L13.131 16.8518H14.4286V12.3147C14.4286 11.2777 15.3369 10.3702 16.3751 10.3702C17.4131 10.3702 18.3215 11.2777 18.3215 12.3147L18.3215 15.5556H19.6192L19.6192 13.6111C19.6192 12.574 20.5274 11.6666 21.5656 11.6666C22.6036 11.6666 23.5121 12.574 23.5121 13.6111L23.5121 16.8518H24.8097V16.2037C24.8097 15.1666 25.718 14.2592 26.7561 14.2592C27.7942 14.2592 28.7026 15.1666 28.7026 16.2037V19.0556H28.7024Z" fill=" #857AFF"/>
<path d="M57 9L68.1842 15.7904C69.467 16.5692 69.467 18.4308 68.1842 19.2096L57 26" stroke=" #857AFF" stroke-width="2"/>
<path d="M69 17.5H40.5" stroke="#857AFF" stroke-width="2"/>
</svg>
