<svg width="280" height="228" viewBox="0 0 280 228" fill="none" xmlns="http://www.w3.org/2000/svg">
<circle cx="141.839" cy="115.657" r="30.1297" fill="#857AFF"/>
<path fill-rule="evenodd" clip-rule="evenodd" d="M141.011 100.592L142.973 126.703H138.061L137.377 116.951L130.367 129.752L126.463 116.874L123.386 126.703H118.167L126.4 101.216L131.582 117.941L141.011 100.592ZM163.659 105.081L162.099 117.817C161.771 120.421 161.144 122.499 160.104 123.898L160.095 123.911C158.469 126.033 156.19 127.081 153.389 127.081C151.153 127.081 149.218 126.397 147.661 124.987L147.653 124.98C146.103 123.548 145.315 121.739 145.315 119.624C145.315 119.214 145.328 118.786 145.355 118.338L145.356 118.317C145.391 117.871 145.439 117.401 145.499 116.908L146.952 105.081H151.995L150.472 117.538C150.433 117.858 150.401 118.15 150.377 118.417C150.362 118.679 150.355 118.917 150.355 119.133C150.355 120.218 150.652 120.946 151.135 121.447C151.624 121.947 152.316 122.243 153.339 122.243C154.551 122.243 155.319 121.867 155.828 121.235C156.398 120.517 156.878 119.214 157.139 117.147L157.139 117.144L158.616 105.081H163.659Z" fill="#25FF21"/>
<path d="M77.1636 227.635C87.9681 227.635 96.7269 218.877 96.7269 208.072C96.7269 197.268 87.9681 188.509 77.1636 188.509C66.3591 188.509 57.6003 197.268 57.6003 208.072C57.6003 218.877 66.3591 227.635 77.1636 227.635Z" fill="#3C3434"/>
<path fill-rule="evenodd" clip-rule="evenodd" d="M71.635 204.498C71.4764 204.498 71.3478 204.583 71.3426 204.693L71.1277 209.345L71.3426 211.567C71.3478 211.675 71.4764 211.76 71.635 211.76C71.7928 211.76 71.9217 211.675 71.9282 211.566L72.1703 209.345L71.9282 204.693C71.9217 204.585 71.7928 204.498 71.635 204.498Z" fill="white"/>
<path fill-rule="evenodd" clip-rule="evenodd" d="M74.3211 204.498C74.1377 204.498 73.9921 204.601 73.9866 204.73L73.8101 209.415L73.9872 211.602C73.9908 211.73 74.1377 211.832 74.3211 211.832C74.5034 211.832 74.6495 211.732 74.6547 211.602L74.8526 209.415L74.6547 204.73C74.6495 204.601 74.5034 204.498 74.3211 204.498Z" fill="white"/>
<path fill-rule="evenodd" clip-rule="evenodd" d="M76.3359 203.828C76.1332 203.828 75.9665 203.948 75.9629 204.096L75.8223 209.467C75.8223 209.469 75.9629 211.625 75.9629 211.625C75.9665 211.772 76.1332 211.892 76.3359 211.892C76.5378 211.893 76.7052 211.774 76.7084 211.627L76.8649 209.469L76.7084 204.096C76.7052 203.948 76.5378 203.828 76.3359 203.828Z" fill="white"/>
<path fill-rule="evenodd" clip-rule="evenodd" d="M85.5732 206.467C85.2041 206.467 84.8538 206.54 84.5337 206.67C84.3201 204.326 82.2881 202.487 79.8114 202.487C79.2054 202.487 78.6144 202.602 78.0932 202.798C77.8913 202.875 77.836 202.952 77.8347 203.103V211.359C77.8371 211.518 77.9636 211.652 78.1245 211.666C78.131 211.666 85.5246 211.671 85.5732 211.671C87.0571 211.671 88.2596 210.506 88.2596 209.069C88.2596 207.632 87.0571 206.467 85.5732 206.467Z" fill="white"/>
<path fill-rule="evenodd" clip-rule="evenodd" d="M69.62 205.84C69.4875 205.84 69.3792 205.909 69.3724 205.998L69.1152 209.492L69.3724 211.75C69.3792 211.839 69.4875 211.908 69.62 211.908C69.7512 211.909 69.8592 211.839 69.868 211.75L70.1578 209.492L69.868 205.999C69.8592 205.909 69.7512 205.84 69.62 205.84Z" fill="white"/>
<path fill-rule="evenodd" clip-rule="evenodd" d="M67.6028 207.853C67.4969 207.853 67.4111 207.887 67.403 207.932L67.1025 209.442L67.4043 210.903C67.4119 210.949 67.4982 210.983 67.6039 210.983C67.7085 210.983 67.7938 210.949 67.8029 210.903L68.1449 209.442L67.8029 207.932C67.7938 207.887 67.7085 207.853 67.6028 207.853Z" fill="white"/>
<path d="M77.1636 39.1265C87.9681 39.1265 96.7269 30.3677 96.7269 19.5633C96.7269 8.75877 87.9681 0 77.1636 0C66.3591 0 57.6003 8.75877 57.6003 19.5633C57.6003 30.3677 66.3591 39.1265 77.1636 39.1265Z" fill="#3C3434"/>
<path fill-rule="evenodd" clip-rule="evenodd" d="M71.5737 10.6191V29.0645L86.7812 19.8418L71.5737 10.6191Z" fill="white"/>
<path d="M206.328 39.1265C217.132 39.1265 225.891 30.3677 225.891 19.5633C225.891 8.75877 217.132 0 206.328 0C195.523 0 186.764 8.75877 186.764 19.5633C186.764 30.3677 195.523 39.1265 206.328 39.1265Z" fill="#3C3434"/>
<path fill-rule="evenodd" clip-rule="evenodd" d="M196.266 25.7454H199.731V24.5928H196.266V25.7454Z" fill="white"/>
<path fill-rule="evenodd" clip-rule="evenodd" d="M196.266 24.0679H199.731V22.915H196.266V24.0679Z" fill="white"/>
<path fill-rule="evenodd" clip-rule="evenodd" d="M196.266 22.3901H199.731V21.2373H196.266V22.3901Z" fill="white"/>
<path fill-rule="evenodd" clip-rule="evenodd" d="M196.266 20.7141H199.731V19.5615H196.266V20.7141Z" fill="white"/>
<path fill-rule="evenodd" clip-rule="evenodd" d="M196.266 19.0386H199.731V17.8857H196.266V19.0386Z" fill="white"/>
<path fill-rule="evenodd" clip-rule="evenodd" d="M200.179 25.7454H203.644V24.5928H200.179V25.7454Z" fill="white"/>
<path fill-rule="evenodd" clip-rule="evenodd" d="M200.179 24.0679H203.644V22.915H200.179V24.0679Z" fill="white"/>
<path fill-rule="evenodd" clip-rule="evenodd" d="M200.179 22.3901H203.644V21.2373H200.179V22.3901Z" fill="white"/>
<path fill-rule="evenodd" clip-rule="evenodd" d="M204.651 25.7454H208.115V24.5928H204.651V25.7454Z" fill="white"/>
<path fill-rule="evenodd" clip-rule="evenodd" d="M204.651 24.0679H208.115V22.915H204.651V24.0679Z" fill="white"/>
<path fill-rule="evenodd" clip-rule="evenodd" d="M204.651 22.3901H208.115V21.2373H204.651V22.3901Z" fill="white"/>
<path fill-rule="evenodd" clip-rule="evenodd" d="M204.651 20.7141H208.115V19.5615H204.651V20.7141Z" fill="white"/>
<path fill-rule="evenodd" clip-rule="evenodd" d="M204.651 19.0386H208.115V17.8857H204.651V19.0386Z" fill="white"/>
<path fill-rule="evenodd" clip-rule="evenodd" d="M204.651 17.3638H208.115V16.2109H204.651V17.3638Z" fill="white"/>
<path fill-rule="evenodd" clip-rule="evenodd" d="M204.651 15.6858H208.115V14.5332H204.651V15.6858Z" fill="white"/>
<path fill-rule="evenodd" clip-rule="evenodd" d="M208.563 25.7454H212.028V24.5928H208.563V25.7454Z" fill="white"/>
<path fill-rule="evenodd" clip-rule="evenodd" d="M208.563 24.0679H212.028V22.915H208.563V24.0679Z" fill="white"/>
<path fill-rule="evenodd" clip-rule="evenodd" d="M208.563 22.3901H212.028V21.2373H208.563V22.3901Z" fill="white"/>
<path fill-rule="evenodd" clip-rule="evenodd" d="M208.563 20.7141H212.028V19.5615H208.563V20.7141Z" fill="white"/>
<path fill-rule="evenodd" clip-rule="evenodd" d="M208.563 19.0386H212.028V17.8857H208.563V19.0386Z" fill="white"/>
<path fill-rule="evenodd" clip-rule="evenodd" d="M212.476 25.7454H215.941V24.5928H212.476V25.7454Z" fill="white"/>
<path fill-rule="evenodd" clip-rule="evenodd" d="M212.476 24.0679H215.941V22.915H212.476V24.0679Z" fill="white"/>
<path fill-rule="evenodd" clip-rule="evenodd" d="M212.476 22.3901H215.941V21.2373H212.476V22.3901Z" fill="white"/>
<path fill-rule="evenodd" clip-rule="evenodd" d="M212.476 20.7141H215.941V19.5615H212.476V20.7141Z" fill="white"/>
<path fill-rule="evenodd" clip-rule="evenodd" d="M212.476 19.0386H215.941V17.8857H212.476V19.0386Z" fill="white"/>
<path fill-rule="evenodd" clip-rule="evenodd" d="M212.476 17.3638H215.941V16.2109H212.476V17.3638Z" fill="white"/>
<path fill-rule="evenodd" clip-rule="evenodd" d="M212.476 15.6858H215.941V14.5332H212.476V15.6858Z" fill="white"/>
<path fill-rule="evenodd" clip-rule="evenodd" d="M212.476 14.0081H215.941V12.8555H212.476V14.0081Z" fill="white"/>
<path d="M260.437 133.38C271.241 133.38 280 124.622 280 113.817C280 103.013 271.241 94.2539 260.437 94.2539C249.632 94.2539 240.874 103.013 240.874 113.817C240.874 124.622 249.632 133.38 260.437 133.38Z" fill="#3C3434"/>
<path fill-rule="evenodd" clip-rule="evenodd" d="M268.532 116.98C268.422 117.297 268.308 117.598 268.187 117.888C267.89 118.572 267.54 119.201 267.134 119.779C266.582 120.568 266.129 121.113 265.78 121.416C265.239 121.914 264.659 122.169 264.038 122.183C263.592 122.183 263.056 122.056 262.429 121.799C261.802 121.543 261.225 121.416 260.698 121.416C260.145 121.416 259.552 121.543 258.917 121.799C258.282 122.056 257.77 122.191 257.379 122.203C256.783 122.229 256.19 121.967 255.598 121.416C255.22 121.087 254.747 120.521 254.181 119.721C253.573 118.866 253.073 117.874 252.682 116.743C252.263 115.523 252.053 114.341 252.053 113.196C252.053 111.885 252.336 110.754 252.903 109.807C253.349 109.046 253.943 108.445 254.685 108.004C255.428 107.564 256.23 107.339 257.094 107.325C257.567 107.325 258.187 107.471 258.957 107.758C259.726 108.047 260.219 108.193 260.435 108.193C260.597 108.193 261.145 108.022 262.074 107.681C262.953 107.365 263.694 107.234 264.302 107.286C265.948 107.418 267.183 108.067 268.006 109.236C266.535 110.128 265.806 111.377 265.821 112.98C265.834 114.228 266.286 115.268 267.176 116.093C267.58 116.475 268.031 116.77 268.532 116.98ZM264.391 102.642C264.405 102.772 264.411 102.903 264.411 103.033C264.411 104.011 264.054 104.925 263.342 105.771C262.482 106.776 261.442 107.357 260.314 107.265C260.299 107.148 260.291 107.024 260.291 106.894C260.291 105.955 260.7 104.95 261.426 104.128C261.789 103.712 262.25 103.366 262.808 103.09C263.367 102.818 263.895 102.667 264.391 102.642Z" fill="white"/>
<path d="M19.5633 133.38C30.3677 133.38 39.1265 124.622 39.1265 113.817C39.1265 103.013 30.3677 94.2539 19.5633 94.2539C8.75877 94.2539 0 103.013 0 113.817C0 124.622 8.75877 133.38 19.5633 133.38Z" fill="#3C3434"/>
<path fill-rule="evenodd" clip-rule="evenodd" d="M26.58 111.988C26.325 112.417 25.774 112.557 25.3436 112.304C22.2365 110.455 17.1094 110.287 14.1427 111.187C13.6669 111.333 13.1637 111.063 13.0163 110.586C12.8735 110.109 13.1422 109.603 13.6191 109.46C17.0259 108.424 22.6873 108.625 26.2641 110.751C26.6934 111.006 26.8343 111.56 26.58 111.988ZM25.2414 115.182C25.0247 115.536 24.5619 115.646 24.2087 115.428C21.6187 113.834 17.6665 113.372 14.6007 114.304C14.2025 114.424 13.7817 114.2 13.6628 113.803C13.5422 113.405 13.7665 112.984 14.1625 112.864C17.6652 111.799 22.0187 112.315 24.9954 114.145C25.3488 114.365 25.4612 114.826 25.2414 115.182ZM24.0628 117.958C23.8909 118.245 23.522 118.333 23.2384 118.16C20.9727 116.775 18.123 116.462 14.7662 117.229C14.4432 117.303 14.1201 117.101 14.0484 116.777C13.9732 116.453 14.1751 116.131 14.4999 116.057C18.1721 115.217 21.3231 115.58 23.8642 117.132C24.1465 117.306 24.2367 117.675 24.0628 117.958ZM19.8422 103.759C14.4401 103.759 10.0605 108.143 10.0605 113.551C10.0605 118.958 14.4401 123.342 19.8422 123.342C25.2445 123.342 29.6238 118.958 29.6238 113.551C29.6238 108.143 25.2445 103.759 19.8422 103.759Z" fill="white"/>
<path d="M215.055 227.635C225.859 227.635 234.618 218.877 234.618 208.072C234.618 197.268 225.859 188.509 215.055 188.509C204.25 188.509 195.492 197.268 195.492 208.072C195.492 218.877 204.25 227.635 215.055 227.635Z" fill="#3C3434"/>
<path fill-rule="evenodd" clip-rule="evenodd" d="M217.61 218.134C217.178 218.134 216.748 217.964 216.427 217.628C215.802 216.974 215.826 215.94 216.478 215.315C216.502 215.291 218.905 212.994 220.169 211.597C220.767 210.938 221.068 210.091 221.014 209.217C220.958 208.291 220.511 207.422 219.755 206.77C218.763 205.913 216.802 205.722 215.577 206.821C214.847 207.475 213.962 208.436 213.953 208.447C213.34 209.111 212.306 209.154 211.641 208.544C210.976 207.933 210.931 206.897 211.543 206.232C211.584 206.187 212.543 205.144 213.393 204.384C215.72 202.296 219.535 202.255 221.895 204.293C223.324 205.527 224.171 207.206 224.282 209.019C224.389 210.78 223.788 212.477 222.594 213.797C221.251 215.278 218.841 217.582 218.74 217.681C218.423 217.982 218.016 218.134 217.61 218.134ZM212.7 213.914C211.185 213.914 209.673 213.413 208.511 212.41C207.083 211.177 206.235 209.498 206.124 207.684C206.018 205.924 206.616 204.226 207.813 202.907C209.155 201.425 211.564 199.121 211.666 199.024C212.319 198.398 213.353 198.424 213.979 199.076C214.603 199.73 214.581 200.765 213.927 201.39C213.903 201.413 211.502 203.71 210.236 205.105C209.639 205.767 209.337 206.612 209.39 207.485C209.447 208.412 209.894 209.281 210.649 209.934C211.643 210.793 213.603 210.981 214.83 209.884C215.559 209.228 216.445 208.267 216.454 208.258C217.064 207.592 218.101 207.549 218.765 208.161C219.43 208.772 219.475 209.808 218.863 210.474C218.822 210.516 217.861 211.558 217.013 212.32C215.831 213.38 214.264 213.914 212.7 213.914Z" fill="white"/>
<path d="M191.128 46.2549L161.455 85.5278" stroke="#3C3434" stroke-width="2" stroke-miterlimit="16" stroke-linecap="square" stroke-dasharray="1 5.9"/>
<path d="M118.226 85.9537L87.9711 47.1274" stroke="#3C3434" stroke-width="2" stroke-miterlimit="16" stroke-linecap="square" stroke-dasharray="1 5.9"/>
<path d="M89.0186 184.146L118.691 144.873" stroke="#3C3434" stroke-width="2" stroke-miterlimit="11.4737" stroke-linecap="square" stroke-dasharray="1 5.9"/>
<path d="M166.517 146.619L196.772 185.445" stroke="#3C3434" stroke-width="2" stroke-miterlimit="11.4737" stroke-linecap="square" stroke-dasharray="1 5.9"/>
<path d="M52.3635 115.2H99.491" stroke="#3C3434" stroke-width="2" stroke-linecap="square" stroke-dasharray="1 6"/>
<path d="M181.528 115.2H228.655" stroke="#3C3434" stroke-width="2" stroke-linecap="square" stroke-dasharray="1 6"/>
</svg>
