<svg width="240" height="487" viewBox="0 0 240 487" fill="none" xmlns="http://www.w3.org/2000/svg">
<path fill-rule="evenodd" clip-rule="evenodd" d="M3.66968 35.5942V450.644C3.66968 469.289 18.7854 484.404 37.4317 484.404H202.568C221.215 484.404 236.33 469.289 236.33 450.644V35.5942C236.33 16.9494 221.214 1.83487 202.568 1.83487H37.4317C18.785 1.83487 3.66968 16.9493 3.66968 35.5942Z" fill="#F2F2F2"/>
<path fill-rule="evenodd" clip-rule="evenodd" d="M1.83484 35.5942C1.83484 15.9358 17.7718 0 37.4317 0H202.568C222.228 0 238.165 15.9359 238.165 35.5942V450.644C238.165 470.303 222.228 486.238 202.568 486.238H37.4317C17.7722 486.238 1.83484 470.303 1.83484 450.644V35.5942ZM37.4317 3.66972C19.7983 3.66972 5.50456 17.9628 5.50456 35.5942V450.644C5.50456 468.276 19.7986 482.569 37.4317 482.569H202.568C220.202 482.569 234.495 468.276 234.495 450.644V35.5942C234.495 17.9629 220.201 3.66972 202.568 3.66972H37.4317Z" fill="#D7D7D7"/>
<path fill-rule="evenodd" clip-rule="evenodd" d="M0.366943 63.1217C0.366943 62.715 0.692716 62.3853 1.10089 62.3853H1.83483V81.4679H1.10089C0.695541 81.4679 0.366943 81.1367 0.366943 80.7315V63.1217Z" fill="#F1F1F1"/>
<path fill-rule="evenodd" clip-rule="evenodd" d="M0 148.806C0 148.3 0.407215 147.89 0.917431 147.89H1.83486V183.853H0.917431C0.410749 183.853 0 183.443 0 182.937V148.806Z" fill="#F1F1F1"/>
<path fill-rule="evenodd" clip-rule="evenodd" d="M0 104.402C0 103.896 0.407215 103.486 0.917431 103.486H1.83486V139.45H0.917431C0.410749 139.45 0 139.039 0 138.534V104.402Z" fill="#F1F1F1"/>
<path fill-rule="evenodd" clip-rule="evenodd" d="M238.165 103.486H239.083C239.589 103.486 240 103.896 240 104.402V138.534C240 139.039 239.593 139.45 239.083 139.45H238.165V103.486Z" fill="#F2F2F2"/>
<path d="M148.807 28.9908H111.743C110.223 28.9908 108.991 30.2231 108.991 31.7431C108.991 33.2632 110.223 34.4954 111.743 34.4954H148.807C150.327 34.4954 151.56 33.2632 151.56 31.7431C151.56 30.2231 150.327 28.9908 148.807 28.9908Z" fill="#D7D7D7"/>
<path d="M92.477 35.5963C94.7064 35.5963 96.5137 33.7891 96.5137 31.5596C96.5137 29.3302 94.7064 27.5229 92.477 27.5229C90.2476 27.5229 88.4403 29.3302 88.4403 31.5596C88.4403 33.7891 90.2476 35.5963 92.477 35.5963Z" fill="#D7D7D7"/>
<path d="M120 470.092C128.918 470.092 136.147 462.863 136.147 453.945C136.147 445.027 128.918 437.798 120 437.798C111.082 437.798 103.853 445.027 103.853 453.945C103.853 462.863 111.082 470.092 120 470.092ZM120 472.661C109.664 472.661 101.284 464.281 101.284 453.945C101.284 443.609 109.664 435.229 120 435.229C130.336 435.229 138.715 443.609 138.715 453.945C138.715 464.281 130.336 472.661 120 472.661Z" fill="#D7D7D7"/>
</svg>
