<svg width="278" height="165" viewBox="0 0 278 165" fill="none" xmlns="http://www.w3.org/2000/svg">
<path fill-rule="evenodd" clip-rule="evenodd" d="M138.556 83.0247L273.095 160.73L273.595 159.864L139.556 82.4473L273.596 5.03049L273.095 4.16455L138.556 81.8699L4.01748 4.16455L3.51733 5.03049L137.557 82.4473L3.51753 159.864L4.01765 160.73L138.556 83.0247Z" fill="black"/>
<path d="M273.095 160.73L271.845 162.895L274.01 164.145L275.26 161.98L273.095 160.73ZM138.556 83.0247L139.807 80.8598L138.556 80.1377L137.306 80.8598L138.556 83.0247ZM273.595 159.864L275.76 161.114L277.011 158.949L274.846 157.699L273.595 159.864ZM139.556 82.4473L138.306 80.2824L134.558 82.4473L138.306 84.6121L139.556 82.4473ZM273.596 5.03049L274.846 7.19535L277.011 5.94502L275.76 3.78018L273.596 5.03049ZM273.095 4.16455L275.26 2.91423L274.01 0.749318L271.845 1.99969L273.095 4.16455ZM138.556 81.8699L137.306 84.0347L138.556 84.7569L139.807 84.0347L138.556 81.8699ZM4.01748 4.16455L5.26783 1.99969L3.10297 0.749338L1.85262 2.9142L4.01748 4.16455ZM3.51733 5.03049L1.35247 3.78014L0.102121 5.945L2.26698 7.19535L3.51733 5.03049ZM137.557 82.4473L138.807 84.6121L142.555 82.4473L138.807 80.2824L137.557 82.4473ZM3.51753 159.864L2.26718 157.699L0.102361 158.949L1.35264 161.114L3.51753 159.864ZM4.01765 160.73L1.85277 161.98L3.1031 164.145L5.268 162.895L4.01765 160.73ZM274.346 158.565L139.807 80.8598L137.306 85.1895L271.845 162.895L274.346 158.565ZM271.43 158.614L270.93 159.48L275.26 161.98L275.76 161.114L271.43 158.614ZM138.306 84.6121L272.345 162.029L274.846 157.699L140.807 80.2824L138.306 84.6121ZM140.807 84.6121L274.846 7.19535L272.345 2.86563L138.306 80.2824L140.807 84.6121ZM275.76 3.78018L275.26 2.91423L270.931 5.41487L271.431 6.28081L275.76 3.78018ZM271.845 1.99969L137.306 79.705L139.807 84.0347L274.346 6.32941L271.845 1.99969ZM2.76712 6.32941L137.306 84.0347L139.807 79.705L5.26783 1.99969L2.76712 6.32941ZM5.68219 6.28085L6.18233 5.4149L1.85262 2.9142L1.35247 3.78014L5.68219 6.28085ZM138.807 80.2824L4.76769 2.86563L2.26698 7.19535L136.306 84.6121L138.807 80.2824ZM136.306 80.2824L2.26718 157.699L4.76788 162.029L138.807 84.6121L136.306 80.2824ZM1.35264 161.114L1.85277 161.98L6.18254 159.48L5.68241 158.614L1.35264 161.114ZM5.268 162.895L139.807 85.1895L137.306 80.8598L2.7673 158.565L5.268 162.895Z" fill="#857AFF"/>
</svg>
