<?xml version="1.0" encoding="utf-8"?>
<!-- Generator: Adobe Illustrator 16.0.0, SVG Export Plug-In . SVG Version: 6.00 Build 0)  -->
<!DOCTYPE svg PUBLIC "-//W3C//DTD SVG 1.1//EN" "http://www.w3.org/Graphics/SVG/1.1/DTD/svg11.dtd">
<svg version="1.1"
	 id="svg2" xmlns:inkscape="http://www.inkscape.org/namespaces/inkscape" xmlns:rdf="http://www.w3.org/1999/02/22-rdf-syntax-ns#" xmlns:sodipodi="http://sodipodi.sourceforge.net/DTD/sodipodi-0.dtd" xmlns:dc="http://purl.org/dc/elements/1.1/" xmlns:svg="http://www.w3.org/2000/svg" xmlns:cc="http://creativecommons.org/ns#" sodipodi:docname="medexb5.svg" inkscape:version="0.91 r13725"
	 xmlns="http://www.w3.org/2000/svg" xmlns:xlink="http://www.w3.org/1999/xlink" x="0px" y="0px" width="500px" height="87.229px"
	 viewBox="135.075 0 500 87.229" enable-background="new 135.075 0 500 87.229" xml:space="preserve">
<sodipodi:namedview  id="namedview242" borderopacity="1" gridtolerance="10" inkscape:zoom="0.40364583" bordercolor="#666666" guidetolerance="10" inkscape:cy="440.00159" showgrid="false" pagecolor="#ffffff" inkscape:cx="-12.387097" objecttolerance="10" inkscape:current-layer="Layer_2" inkscape:window-maximized="0" inkscape:window-y="0" inkscape:window-x="0" inkscape:pageopacity="0" inkscape:pageshadow="2" inkscape:window-height="480" inkscape:window-width="640">
	</sodipodi:namedview>
<g id="Layer_1" display="none">
	<rect id="rect5" x="239.458" y="-415.629" display="inline" fill="none" width="279.067" height="58.139"/>
	
		<text id="text7" transform="matrix(1 0 0 1 244.2908 -365.6414)" display="inline" fill="#EC1C24" font-family="'UnifrakturMaguntia'" font-size="72">Medieval</text>
	<rect id="rect9" x="239.458" y="-307.877" display="inline" fill="none" width="279.066" height="58.139"/>
	
		<text id="text11" transform="matrix(1 0 0 1 325.5017 -257.8894)" display="inline" fill="#EC1C24" font-family="'UnifrakturMaguntia'" font-size="72">Art</text>
	<rect id="rect13" x="216.783" y="-200.125" display="inline" fill="none" width="324.416" height="58.139"/>
	
		<text id="text15" transform="matrix(1 0 0 1 222.1594 -150.1375)" display="inline" fill="#EC1C24" font-family="'UnifrakturMaguntia'" font-size="72">EXhibition</text>
	<rect id="rect17" x="206.318" y="-92.373" display="inline" fill="none" width="345.345" height="58.139"/>
	
		<text id="text19" transform="matrix(1 0 0 1 239.3328 -42.3855)" display="inline" fill="#EC1C24" font-family="'UnifrakturMaguntia'" font-size="72">now on at</text>
	<rect id="rect21" x="239.458" y="15.38" display="inline" fill="none" width="279.066" height="58.139"/>
	
		<text id="text23" transform="matrix(1 0 0 1 323.0588 65.3665)" display="inline" fill="#EC1C24" font-family="'UnifrakturMaguntia'" font-size="72">The</text>
	<rect id="rect25" x="239.457" y="123.132" display="inline" fill="none" width="279.066" height="58.139"/>
	
		<text id="text27" transform="matrix(1 0 0 1 271.9934 173.1184)" display="inline" fill="#EC1C24" font-family="'UnifrakturMaguntia'" font-size="72">British</text>
	<rect id="rect29" x="239.457" y="230.884" display="inline" fill="none" width="279.067" height="58.139"/>
	
		<text id="text31" transform="matrix(1 0 0 1 272.7664 280.8704)" display="inline" fill="#EC1C24" font-family="'UnifrakturMaguntia'" font-size="72">Gallery</text>
</g>
<g id="Layer_2">
	<rect id="rect34" x="1.075" y="-588.443" display="none" fill="#00ADEE" width="768.001" height="1024"/>
	<g id="g204">
		<path id="path206" fill="#EC1C24" d="M338.812,36.394c-1.556,1.086-3.813,1.629-6.773,1.629
			c-4.163-0.088-7.668-1.467-10.512-4.135c-2.845-2.668-4.267-5.967-4.267-9.896c0-5.688,2.242-10.541,6.729-14.56
			c4.486-4.016,10.146-6.039,16.978-6.07c5.808-0.028,11.282,1.336,16.43,4.093c5.146,2.756,9.654,5.526,13.523,8.313
			c2.696,2.023,5.189,2.023,7.478,0c0.646-0.586,1.203-0.651,1.672-0.197c0.469,0.455,0.426,0.943-0.131,1.474l-7.566,6.334
			c-3.372,2.463-7.228,2.258-11.566-0.617c-4.193-2.902-8.6-5.584-13.218-8.047c-4.617-2.463-8.849-3.695-12.688-3.695
			c-4.517,0-8.115,1.275-10.798,3.826c-2.684,2.551-4.04,5.453-4.068,8.709c-0.146,7.713,3.738,11.963,11.655,12.756
			c2.258,0.264,4.281-0.25,6.068-1.539c0.676-0.412,1.174-0.354,1.496,0.174C339.573,35.472,339.428,35.954,338.812,36.394z
			 M319.635,50.427c3.52-2.846,6.523-4.779,9.017-5.807c3.578-1.525,6.349-1.263,8.313,0.791c5.454,5.629,10.014,9.729,13.68,12.293
			c3.665,2.565,6.84,4.127,9.522,4.686c2.683,0.557,5.05,0.365,7.104-0.572c2.052-0.938,4.207-2.098,6.465-3.475
			c0.879-0.586,1.51-0.623,1.891-0.109c0.381,0.513,0.236,1.047-0.438,1.605c-2.814,2.315-5.776,4.315-8.883,6.002
			c-3.108,1.688-6.52,2.553-10.229,2.596s-7.807-0.975-12.293-3.059c-4.486-2.08-9.516-5.76-15.087-11.039
			c-1.847-1.787-3.665-2.668-5.454-2.637c-0.967,0-1.994,0.264-3.078,0.789c-0.704,0.323-1.182,0.223-1.43-0.308
			C318.485,51.656,318.783,51.069,319.635,50.427z M349.587,18.714c-2.141,1.672-2.712,3.438-1.715,5.301
			c0.996,1.861,3.138,4.053,6.421,6.574c5.688,4.397,8.307,8.576,7.853,12.535c-0.455,3.959-4.465,7.346-12.03,10.16
			c-0.615,0.264-1.063,0.176-1.341-0.265c-0.279-0.438-0.141-0.836,0.418-1.188c2.874-1.847,3.921-3.843,3.145-5.982
			c-0.776-2.141-2.983-4.604-6.618-7.389c-4.282-3.195-6.62-6.59-7.017-10.183c-0.396-3.592,2.853-7.235,9.743-10.93
			c0.703-0.383,1.23-0.375,1.583,0.021C350.379,17.769,350.233,18.216,349.587,18.714z"/>
		<path id="path208" fill="#EC1C24" d="M384.948,9.827c-0.379-0.558-0.35-0.988,0.09-1.298c0.44-0.309,0.877-0.196,1.318,0.33
			c1.291,1.613,2.33,3.345,3.123,5.189c0.088,0.295,0.293,0.44,0.617,0.44c0.264,0.06,0.496-0.059,0.702-0.352
			c1.699-3.049,4.378-5.402,8.025-7.061c3.65-1.656,7.354-2.324,11.106-2c0.762,0.028,1.145,0.338,1.145,0.924
			s-0.369,0.85-1.102,0.791c-3.078-0.205-5.762,0.498-8.049,2.11c-2.286,1.613-3.418,4.722-3.387,9.326l0.088,9.853
			c0,0.293,0.117,0.504,0.353,0.637c0.235,0.131,0.469,0.123,0.703-0.023c1.612-0.879,3.233-1.846,4.86-2.901s3.13-2.242,4.51-3.563
			c1.084-1.086,1.698-0.895,1.846,0.572c0.117,1.086,0.572,2.053,1.365,2.902c0.791,0.852,1.522,1.686,2.198,2.508
			c3.957,5.043,5.994,10.496,6.111,16.36c0.207,8.621-2.828,16.238-9.104,22.851c-6.273,6.613-11.978,11.664-17.107,15.152
			c-0.705,0.5-1.228,0.579-1.563,0.241c-0.338-0.336-0.239-0.727,0.287-1.166c4.136-3.664,8.306-7.668,12.515-12.008
			c4.208-4.34,6.117-11.217,5.738-20.629c-0.178-3.693-0.741-7.174-1.692-10.445c-0.955-3.268-2.691-5.987-5.212-8.157
			c-1.291-1.086-3.08-1.07-5.365,0.043c-0.266,0.09-0.398,0.309-0.398,0.661l0.177,26.564c0,2.375,0.954,3.357,2.858,2.947
			c0.412-0.117,0.777-0.338,1.101-0.66s0.682-0.607,1.077-0.857c0.396-0.25,0.755-0.229,1.078,0.064
			c0.322,0.295,0.322,0.602,0,0.926c-1.438,1.582-2.889,3.049-4.354,4.396c-1.465,1.35-2.594,2.83-3.385,4.442
			c-0.354,0.703-0.88,0.703-1.584,0c-2.611-2.815-5.455-4.926-8.533-6.334c-0.998-0.526-1.072-1.012-0.22-1.451
			c1.875-0.645,2.8-2.58,2.771-5.807l-0.088-29.381c-0.029-3.959-0.478-7.197-1.34-9.719
			C387.363,13.729,386.27,11.587,384.948,9.827z"/>
		<path id="path210" fill="#EC1C24" d="M437.42,68.897c-0.057-0.703-0.432-1.229-1.12-1.582c-0.688-0.354-1.269-0.705-1.736-1.057
			c-3.373-2.287-5.754-5.08-7.148-8.379c-1.391-3.299-2.176-6.795-2.352-10.488c-0.353-8.356,1.904-14.721,6.772-19.09
			c1.73-1.553,3.724-2.822,5.982-3.805c2.256-0.982,4.572-1.781,6.949-2.396c0.731-0.146,1.274,0.219,1.627,1.101l6.334,14.866
			c0.293,0.789,0.19,1.289-0.31,1.496h-0.088l-18.032,6.99c-0.354,0.178-0.5,0.455-0.439,0.838c1.436,6.508,3.84,10.68,7.213,12.512
			c3.371,1.832,6.73,2.105,10.072,0.814c0.586-0.266,0.959-0.221,1.121,0.133c0.162,0.351,0.053,0.613-0.33,0.791
			c-2.375,1.201-4.642,2.432-6.795,3.695c-2.156,1.26-4.084,2.58-5.783,3.957c-0.264,0.176-0.652,0.233-1.166,0.176
			C437.681,69.413,437.42,69.222,437.42,68.897z M433.332,44.048c0.027,0.233,0.131,0.418,0.308,0.551
			c0.176,0.131,0.396,0.139,0.66,0.021l9.366-3.521c0.439-0.176,0.572-0.484,0.398-0.924l-5.367-13.15
			c-0.266-0.646-0.793-0.731-1.582-0.264c-1.703,0.996-2.861,3.27-3.477,6.818C433.025,37.128,432.92,40.616,433.332,44.048z"/>
	</g>
</g>
</svg>
