<?xml version="1.0" encoding="utf-8"?>
<!-- Generator: Adobe Illustrator 16.0.0, SVG Export Plug-In . SVG Version: 6.00 Build 0)  -->
<!DOCTYPE svg PUBLIC "-//W3C//DTD SVG 1.1//EN" "http://www.w3.org/Graphics/SVG/1.1/DTD/svg11.dtd">
<svg version="1.1"
	 id="svg2" xmlns:inkscape="http://www.inkscape.org/namespaces/inkscape" xmlns:rdf="http://www.w3.org/1999/02/22-rdf-syntax-ns#" xmlns:sodipodi="http://sodipodi.sourceforge.net/DTD/sodipodi-0.dtd" xmlns:dc="http://purl.org/dc/elements/1.1/" xmlns:svg="http://www.w3.org/2000/svg" xmlns:cc="http://creativecommons.org/ns#" sodipodi:docname="medexb4.svg" inkscape:version="0.91 r13725"
	 xmlns="http://www.w3.org/2000/svg" xmlns:xlink="http://www.w3.org/1999/xlink" x="0px" y="0px" width="500px" height="68.398px"
	 viewBox="135.075 0 500 68.398" enable-background="new 135.075 0 500 68.398" xml:space="preserve">
<sodipodi:namedview  id="namedview242" borderopacity="1" gridtolerance="10" inkscape:zoom="0.40364583" bordercolor="#666666" guidetolerance="10" inkscape:cy="-64.897273" showgrid="false" pagecolor="#ffffff" inkscape:cx="86.709677" objecttolerance="10" inkscape:current-layer="Layer_2" inkscape:window-maximized="0" inkscape:window-y="0" inkscape:window-x="0" inkscape:pageopacity="0" inkscape:pageshadow="2" inkscape:window-height="480" inkscape:window-width="640">
	</sodipodi:namedview>
<g id="Layer_1" display="none">
	<rect id="rect5" x="239.458" y="-297.791" display="inline" fill="none" width="279.067" height="58.139"/>
	
		<text id="text7" transform="matrix(1 0 0 1 244.2908 -247.8035)" display="inline" fill="#EC1C24" font-family="'UnifrakturMaguntia'" font-size="72">Medieval</text>
	<rect id="rect9" x="239.458" y="-190.039" display="inline" fill="none" width="279.066" height="58.139"/>
	
		<text id="text11" transform="matrix(1 0 0 1 325.5017 -140.0515)" display="inline" fill="#EC1C24" font-family="'UnifrakturMaguntia'" font-size="72">Art</text>
	<rect id="rect13" x="216.783" y="-82.287" display="inline" fill="none" width="324.416" height="58.139"/>
	
		<text id="text15" transform="matrix(1 0 0 1 222.1594 -32.2996)" display="inline" fill="#EC1C24" font-family="'UnifrakturMaguntia'" font-size="72">EXhibition</text>
	<rect id="rect17" x="206.318" y="25.465" display="inline" fill="none" width="345.345" height="58.139"/>
	
		<text id="text19" transform="matrix(1 0 0 1 239.3328 75.4524)" display="inline" fill="#EC1C24" font-family="'UnifrakturMaguntia'" font-size="72">now on at</text>
	<rect id="rect21" x="239.458" y="133.218" display="inline" fill="none" width="279.066" height="58.139"/>
	
		<text id="text23" transform="matrix(1 0 0 1 323.0588 183.2043)" display="inline" fill="#EC1C24" font-family="'UnifrakturMaguntia'" font-size="72">The</text>
	<rect id="rect25" x="239.457" y="240.97" display="inline" fill="none" width="279.066" height="58.139"/>
	
		<text id="text27" transform="matrix(1 0 0 1 271.9934 290.9563)" display="inline" fill="#EC1C24" font-family="'UnifrakturMaguntia'" font-size="72">British</text>
	<rect id="rect29" x="239.457" y="348.722" display="inline" fill="none" width="279.067" height="58.139"/>
	
		<text id="text31" transform="matrix(1 0 0 1 272.7664 398.7092)" display="inline" fill="#EC1C24" font-family="'UnifrakturMaguntia'" font-size="72">Gallery</text>
</g>
<g id="Layer_2">
	<rect id="rect34" x="1.075" y="-470.605" display="none" fill="#00ADEE" width="768.001" height="1024"/>
	<g id="g188">
		<path id="path190" fill="#EC1C24" d="M227.611,44.465c-0.028,4.719,0.852,7.447,2.64,8.182c0.204,0.146,0.309,0.345,0.309,0.592
			c0,0.25-0.104,0.433-0.309,0.552c-2.64,1.994-4.779,4.647-6.422,7.961c-0.176,0.233-0.396,0.352-0.658,0.352
			c-0.266,0-0.484-0.117-0.66-0.352c-1.644-3.313-3.871-5.953-6.687-7.918c-0.176-0.117-0.265-0.308-0.265-0.572
			c0-0.264,0.103-0.467,0.309-0.613c1.905-0.733,2.858-3.463,2.858-8.182V29.861c0-2.989-0.557-4.821-1.671-5.498
			c-1.291-0.85-2.347-0.543-3.167,0.925c-0.323,0.614-0.689,0.764-1.101,0.438c-0.41-0.322-0.396-0.836,0.045-1.539
			c0.851-1.348,1.663-2.727,2.44-4.135c0.776-1.406,1.576-2.814,2.396-4.223c0.469-0.851,1.129-1.025,1.979-0.527l0.044,0.045
			c4.312,2.17,6.892,4.822,7.741,7.961c0.059,0.32,0.205,0.512,0.438,0.57c0.233,0.058,0.47,0,0.703-0.176
			c1.608-1.349,3.262-2.771,4.958-4.267s2.854-2.873,3.468-4.135c0.32-0.762,0.849-0.748,1.579,0.045
			c1.757,1.848,3.255,3.313,4.499,4.396c1.243,1.086,3.358,1.893,6.348,2.42c0.526,0.118,0.799,0.346,0.813,0.682
			c0.016,0.338-0.169,0.566-0.55,0.682c-0.763,0.293-1.437,0.8-2.023,1.519c-0.586,0.719-0.879,1.912-0.879,3.586v18.605
			c0,2.99,0.557,4.822,1.672,5.496c1.289,0.793,2.33,0.472,3.122-0.967c0.322-0.559,0.696-0.682,1.121-0.375
			c0.426,0.309,0.418,0.816-0.021,1.521c-0.88,1.377-1.709,2.764-2.485,4.153c-0.776,1.396-1.562,2.779-2.353,4.156
			c-0.528,0.822-1.188,1.014-1.976,0.574c-5.312-2.582-7.966-6.408-7.966-11.48l0.043-22.521c0-0.879-0.22-1.451-0.659-1.715h-0.044
			V25.99l-3.737-3.077c-0.323-0.234-0.66-0.248-1.013-0.045l-4.573,3.563c-0.206,0.148-0.31,0.324-0.31,0.527v17.508H227.611z"/>
		<path id="path192" fill="#EC1C24" d="M272.519,61.135c-0.44,0.732-0.983,0.732-1.628,0c-3.228-4.018-8.122-7.037-14.69-9.062
			c-0.527-0.146-0.783-0.383-0.77-0.704c0.016-0.32,0.183-0.558,0.506-0.703c1.876-0.646,2.814-2.597,2.814-5.853l-0.133-22.43
			c0-0.324-0.028-0.58-0.088-0.771c-0.06-0.188-0.037-0.364,0.065-0.524c0.104-0.162,0.301-0.258,0.595-0.287
			c7.8-0.646,14.734-2.771,20.804-6.377c0.266-0.146,0.507-0.191,0.727-0.133c0.221,0.061,0.345,0.264,0.374,0.614
			c0.499,3.168,2.053,6.275,4.662,9.324c1.437,1.76,2.632,4.164,3.585,7.213c0.952,3.054,1.326,5.588,1.121,7.611
			c-0.293,2.375-1.07,4.508-2.33,6.398c-1.263,1.893-2.698,3.629-4.313,5.213c-1.904,1.877-3.958,3.459-6.157,4.75
			C275.465,56.706,273.75,58.611,272.519,61.135z M267.724,21.812l0.176,25.334c0,0.439,0.176,0.748,0.528,0.924l7.785,4.841
			c0.762,0.495,1.466,0.35,2.11-0.441c2.785-2.99,4.046-6.582,3.782-10.775c-0.06-2.608-0.563-4.938-1.518-6.991
			c-0.952-2.054-2.134-3.874-3.54-5.458c-2.287-2.314-4.032-5.189-5.234-8.619c-0.06-0.146-0.191-0.271-0.396-0.373
			c-0.205-0.104-0.396-0.111-0.571-0.023c-0.88,0.324-1.76,0.603-2.639,0.836C267.885,21.181,267.724,21.431,267.724,21.812z"/>
		<path id="path194" fill="#EC1C24" d="M331.017,23c1.788-0.967,3.761-2.111,5.916-3.431c2.154-1.319,3.937-2.653,5.344-4.004
			c1.026-1.084,1.643-0.895,1.848,0.572c0.116,1.084,0.578,2.053,1.386,2.902c0.807,0.852,1.531,1.688,2.178,2.508
			c3.46,4.483,5.026,9.164,4.705,14.032c-0.322,5.102-1.993,9.192-5.015,12.271c-1.261,1.318-2.652,2.588-4.178,3.803
			c-1.525,1.22-2.977,2.679-4.354,4.377c-1.379,1.703-2.566,3.535-3.563,5.498c-0.382,0.793-0.924,0.793-1.628,0
			c-3.166-3.985-8.078-7.006-14.734-9.061c-0.439-0.205-0.659-0.461-0.659-0.771c0-0.309,0.146-0.52,0.439-0.639
			c1.876-0.645,2.8-2.594,2.771-5.848c0-2.904-0.037-5.814-0.109-8.73c-0.073-2.918-0.066-5.831,0.021-8.732v-0.045
			c-0.059-0.906-0.526-1.906-1.406-2.99c-1.379-1.816-2.771-2.17-4.18-1.055l-4.75,3.604c-0.176,0.176-0.264,0.381-0.264,0.617
			c0,2.813,0.015,5.637,0.044,8.467c0.028,2.828,0.044,5.652,0.044,8.465c0,4.635,0.908,7.361,2.728,8.183
			c0.176,0.146,0.265,0.346,0.265,0.594c0,0.25-0.089,0.434-0.265,0.551c-2.874,2.082-5.043,4.736-6.511,7.961
			c-0.205,0.293-0.425,0.424-0.658,0.396c-0.235-0.029-0.439-0.162-0.616-0.396c-1.612-3.254-3.826-5.895-6.643-7.916
			c-0.233-0.117-0.352-0.309-0.352-0.572c0-0.263,0.117-0.471,0.352-0.616c1.906-0.879,2.859-3.605,2.859-8.183v-8.178
			c0-2.729-0.044-5.458-0.132-8.184c-0.029-1.318-0.359-2.33-0.989-3.033c-0.632-0.705-1.254-1.32-1.87-1.851
			c-2.639-2.196-3.73-4.623-3.275-7.276c0.454-2.654,2.177-5.359,5.168-8.115c0.557-0.527,1.025-0.646,1.406-0.353
			c0.382,0.294,0.366,0.646-0.044,1.056c-1.29,1.35-1.868,2.662-1.736,3.938c0.132,1.276,1.193,2.207,3.188,2.793
			c2.729,0.851,4.531,1.994,5.41,3.431c0.88,1.438,1.393,3.094,1.54,4.969c0,0.326,0.116,0.551,0.352,0.684
			c0.234,0.131,0.514,0.08,0.836-0.153c1.495-1.261,3.151-2.683,4.971-4.267c1.818-1.584,3.063-2.946,3.738-4.09
			c0.469-0.852,1.129-1.027,1.979-0.529c0,0.029,0.029,0.045,0.088,0.045c3.871,1.937,6.318,4.236,7.346,6.904
			c0.089,0.265,0.221,0.426,0.396,0.484C330.577,23.145,330.781,23.117,331.017,23z M330.575,32.236
			c0.029,6.804,0.061,11.904,0.089,15.308c0,0.44,0.176,0.748,0.527,0.924l6.772,4.045c0.732,0.383,1.334,0.324,1.805-0.174
			l0.791-0.838c2.435-3.547,3.649-7.855,3.649-12.931c0-2.901-0.601-5.547-1.803-7.939c-1.203-2.392-2.786-4.687-4.75-6.885
			c-1.056-1.144-2.712-1.201-4.971-0.177c-0.439,0.207-1.012,0.5-1.715,0.879c-0.294,0.119-0.411,0.354-0.353,0.707
			C330.62,25.976,330.606,28.335,330.575,32.236z"/>
		<path id="path196" fill="#EC1C24" d="M398.222,61.135c-0.439,0.732-0.982,0.732-1.627,0c-3.228-4.018-8.123-7.037-14.689-9.062
			c-0.527-0.146-0.783-0.383-0.77-0.704c0.016-0.32,0.184-0.558,0.506-0.703c1.877-0.646,2.815-2.597,2.815-5.853l-0.135-22.43
			c0-0.324-0.027-0.58-0.086-0.771c-0.061-0.188-0.037-0.364,0.066-0.524c0.102-0.162,0.301-0.258,0.593-0.287
			c7.798-0.646,14.732-2.771,20.802-6.377c0.264-0.146,0.507-0.191,0.726-0.133c0.222,0.061,0.347,0.264,0.375,0.614
			c0.498,3.168,2.052,6.275,4.662,9.324c1.437,1.76,2.632,4.164,3.584,7.213c0.953,3.054,1.326,5.588,1.121,7.611
			c-0.293,2.375-1.069,4.508-2.33,6.398c-1.26,1.893-2.698,3.629-4.311,5.213c-1.908,1.877-3.958,3.459-6.157,4.75
			C401.166,56.707,399.451,58.611,398.222,61.135z M393.429,21.812l0.176,25.334c0,0.439,0.174,0.748,0.526,0.924l7.783,4.841
			c0.765,0.495,1.467,0.35,2.113-0.441c2.786-2.99,4.046-6.582,3.782-10.775c-0.062-2.608-0.566-4.938-1.519-6.991
			c-0.952-2.054-2.134-3.874-3.542-5.458c-2.287-2.314-4.03-5.189-5.231-8.619c-0.062-0.146-0.193-0.271-0.396-0.373
			c-0.205-0.104-0.396-0.111-0.571-0.023c-0.88,0.324-1.761,0.603-2.64,0.836C393.586,21.181,393.429,21.431,393.429,21.812z"/>
		<path id="path198" fill="#EC1C24" d="M435.96,44.465c-0.03,4.719,0.851,7.447,2.64,8.182c0.205,0.146,0.307,0.345,0.307,0.592
			c0,0.25-0.102,0.433-0.307,0.552c-2.64,1.994-4.779,4.647-6.422,7.961c-0.177,0.233-0.396,0.352-0.66,0.352
			c-0.265,0-0.482-0.117-0.66-0.352c-1.644-3.313-3.869-5.953-6.687-7.918c-0.176-0.117-0.264-0.308-0.264-0.572
			c0-0.264,0.104-0.467,0.309-0.613c1.906-0.733,2.857-3.463,2.857-8.182V29.861c0-2.989-0.557-4.821-1.672-5.498
			c-1.289-0.85-2.346-0.543-3.166,0.925c-0.322,0.614-0.689,0.764-1.1,0.438c-0.412-0.322-0.396-0.836,0.045-1.539
			c0.85-1.348,1.664-2.727,2.44-4.135c0.775-1.406,1.576-2.814,2.396-4.223c0.467-0.851,1.129-1.025,1.979-0.527l0.043,0.045
			c4.312,2.17,6.89,4.822,7.74,7.961c0.062,0.32,0.205,0.512,0.439,0.57c0.231,0.059,0.467,0,0.702-0.176
			c1.609-1.349,3.263-2.771,4.957-4.267c1.697-1.496,2.854-2.873,3.468-4.135c0.321-0.762,0.852-0.748,1.58,0.045
			c1.756,1.848,3.256,3.313,4.5,4.396c1.241,1.086,3.356,1.893,6.346,2.42c0.529,0.118,0.797,0.346,0.813,0.682
			c0.017,0.338-0.172,0.566-0.549,0.682c-0.766,0.293-1.438,0.8-2.022,1.519c-0.588,0.719-0.881,1.912-0.881,3.586v18.605
			c0,2.99,0.555,4.822,1.672,5.496c1.289,0.793,2.33,0.472,3.123-0.967c0.319-0.559,0.694-0.682,1.12-0.375
			c0.425,0.309,0.419,0.816-0.021,1.521c-0.881,1.377-1.711,2.764-2.486,4.153c-0.774,1.396-1.561,2.779-2.354,4.156
			c-0.527,0.822-1.187,1.014-1.974,0.574c-5.313-2.582-7.967-6.408-7.967-11.48l0.045-22.521c0-0.879-0.221-1.451-0.659-1.715
			h-0.046V25.99l-3.737-3.077c-0.322-0.234-0.658-0.248-1.013-0.045l-4.573,3.563c-0.205,0.148-0.308,0.324-0.308,0.527v17.508
			H435.96z"/>
		<path id="path200" fill="#EC1C24" d="M513.678,54.141c-1.496,1.144-3.14,2.398-4.927,3.76c-1.789,1.365-3.444,2.617-4.971,3.761
			c-0.527,0.411-0.943,0.588-1.252,0.528c-0.309-0.059-0.434-0.321-0.375-0.793c0-0.612-0.91-1.787-2.727-3.516
			c-4.779-4.488-7.082-10.322-6.904-17.508c0.174-6.156,3.033-11.364,8.576-15.616c1.7-1.289,3.291-2.652,4.771-4.088
			c1.48-1.438,2.793-3.183,3.938-5.234c0.467-0.908,1.112-0.938,1.934-0.088c4.445,5.043,8.887,8.021,13.328,8.928
			c1.408,0.265,1.555,0.82,0.439,1.67c-1.378,0.998-2.125,2.23-2.242,3.697v0.086l0.131,20.103c0,1.35,0.492,2.271,1.475,2.771
			c0.98,0.498,2.045,0.117,3.188-1.143c0.44-0.5,0.856-0.625,1.254-0.375c0.396,0.25,0.401,0.696,0.021,1.342
			c-1.057,1.582-2.073,3.137-3.057,4.662c-0.982,1.522-1.811,3.108-2.484,4.75l-0.043,0.045c-0.412,0.672-0.908,0.672-1.49,0
			c-0.321-0.354-0.7-0.588-1.139-0.705c-3.328-0.732-5.428-2.947-6.301-6.641c-0.063-0.177-0.207-0.353-0.441-0.529
			C514.118,53.979,513.882,54.023,513.678,54.141z M514.161,28.232c-1.817-0.496-3.942-1.905-6.379-4.223
			c-1.172-1.406-2.109-1.537-2.813-0.396c-3.107,4.636-4.324,9.75-3.65,15.353c0.938,8.006,3.754,12.945,8.445,14.822
			c0.028,0,0.059,0.016,0.088,0.043c1.203,0.383,2.653-0.336,4.354-2.154c0.117-0.178,0.177-0.336,0.177-0.482
			c-0.029-0.44-0.044-1.131-0.044-2.067l0.396-20.192C514.735,28.585,514.542,28.351,514.161,28.232z"/>
		<path id="path202" fill="#EC1C24" d="M548.514,24.494l-0.045,24.633c0,0.91,0.221,1.51,0.659,1.803l3.168,1.803
			c0.615,0.527,1.644-0.176,3.078-2.11c0.265-0.381,0.623-0.438,1.076-0.175c0.455,0.265,0.479,0.613,0.068,1.054
			c-3.14,3.434-5.498,6.805-7.082,10.119c-0.5,0.614-1.041,0.614-1.627,0c-1.644-1.938-3.168-3.39-4.576-4.355
			c-1.406-0.969-3.502-1.789-6.289-2.463c-0.469-0.09-0.717-0.309-0.746-0.66c-0.031-0.352,0.146-0.602,0.525-0.748
			c1.967-0.469,2.934-2.156,2.903-5.059l-0.043-23.795c0.027-0.529-0.19-0.793-0.659-0.793h-5.191c-0.41,0-0.674-0.158-0.791-0.482
			c-0.117-0.322,0.014-0.6,0.396-0.836c3.518-2.492,7.104-5.498,10.752-9.016c3.649-3.521,6.973-6.861,9.965-10.029
			c0.379-0.41,0.754-0.49,1.119-0.242c0.369,0.25,0.375,0.609,0.022,1.078c-1.35,1.672-2.705,3.842-4.067,6.51
			c-1.365,2.668-2.193,5.103-2.486,7.301c-0.057,0.293-0.043,0.515,0.045,0.66c0.176,0.177,0.381,0.267,0.617,0.267h7.606
			c0.205,0,0.384,0.071,0.529,0.219c0.146,0.205,0.219,0.396,0.219,0.57l-0.176,3.301c-0.059,0.469-0.309,0.701-0.748,0.701h-7.609
			C548.719,23.746,548.514,23.998,548.514,24.494z"/>
	</g>
</g>
</svg>
