<?xml version="1.0" encoding="utf-8"?>
<!-- Generator: Adobe Illustrator 16.0.0, SVG Export Plug-In . SVG Version: 6.00 Build 0)  -->
<!DOCTYPE svg PUBLIC "-//W3C//DTD SVG 1.1//EN" "http://www.w3.org/Graphics/SVG/1.1/DTD/svg11.dtd">
<svg version="1.1"
	 id="svg2" xmlns:inkscape="http://www.inkscape.org/namespaces/inkscape" xmlns:rdf="http://www.w3.org/1999/02/22-rdf-syntax-ns#" xmlns:sodipodi="http://sodipodi.sourceforge.net/DTD/sodipodi-0.dtd" xmlns:dc="http://purl.org/dc/elements/1.1/" xmlns:svg="http://www.w3.org/2000/svg" xmlns:cc="http://creativecommons.org/ns#" sodipodi:docname="medexb6.svg" inkscape:version="0.91 r13725"
	 xmlns="http://www.w3.org/2000/svg" xmlns:xlink="http://www.w3.org/1999/xlink" x="0px" y="0px" width="500px" height="87.229px"
	 viewBox="135.075 0 500 87.229" enable-background="new 135.075 0 500 87.229" xml:space="preserve">
<sodipodi:namedview  id="namedview242" borderopacity="1" gridtolerance="10" inkscape:zoom="0.40364583" bordercolor="#666666" guidetolerance="10" inkscape:cy="43.614498" showgrid="false" pagecolor="#ffffff" inkscape:cx="86.709677" objecttolerance="10" inkscape:current-layer="Layer_2" inkscape:window-maximized="0" inkscape:window-y="0" inkscape:window-x="0" inkscape:pageopacity="0" inkscape:pageshadow="2" inkscape:window-height="480" inkscape:window-width="640">
	</sodipodi:namedview>
<g id="Layer_1" display="none">
	<rect id="rect5" x="239.458" y="-543.61" display="inline" fill="none" width="279.067" height="58.139"/>
	
		<text id="text7" transform="matrix(1 0 0 1 244.2908 -493.6228)" display="inline" fill="#EC1C24" font-family="'UnifrakturMaguntia'" font-size="72">Medieval</text>
	<rect id="rect9" x="239.458" y="-435.858" display="inline" fill="none" width="279.066" height="58.139"/>
	
		<text id="text11" transform="matrix(1 0 0 1 325.5017 -385.8708)" display="inline" fill="#EC1C24" font-family="'UnifrakturMaguntia'" font-size="72">Art</text>
	<rect id="rect13" x="216.783" y="-328.106" display="inline" fill="none" width="324.416" height="58.14"/>
	
		<text id="text15" transform="matrix(1 0 0 1 222.1594 -278.1189)" display="inline" fill="#EC1C24" font-family="'UnifrakturMaguntia'" font-size="72">EXhibition</text>
	<rect id="rect17" x="206.318" y="-220.354" display="inline" fill="none" width="345.345" height="58.14"/>
	
		<text id="text19" transform="matrix(1 0 0 1 239.3328 -170.366)" display="inline" fill="#EC1C24" font-family="'UnifrakturMaguntia'" font-size="72">now on at</text>
	<rect id="rect21" x="239.458" y="-112.602" display="inline" fill="none" width="279.066" height="58.14"/>
	
		<text id="text23" transform="matrix(1 0 0 1 323.0588 -62.615)" display="inline" fill="#EC1C24" font-family="'UnifrakturMaguntia'" font-size="72">The</text>
	<rect id="rect25" x="239.457" y="-4.85" display="inline" fill="none" width="279.066" height="58.14"/>
	
		<text id="text27" transform="matrix(1 0 0 1 271.9934 45.1379)" display="inline" fill="#EC1C24" font-family="'UnifrakturMaguntia'" font-size="72">British</text>
	<rect id="rect29" x="239.457" y="102.902" display="inline" fill="none" width="279.067" height="58.14"/>
	
		<text id="text31" transform="matrix(1 0 0 1 272.7664 152.8889)" display="inline" fill="#EC1C24" font-family="'UnifrakturMaguntia'" font-size="72">Gallery</text>
</g>
<g id="Layer_2">
	<rect id="rect34" x="1.075" y="-716.425" display="none" fill="#00ADEE" width="768.001" height="1024.001"/>
	<g id="g212">
		<path id="path214" fill="#EC1C24" d="M268.554,55.835c-0.265,0.147-0.535,0.287-0.813,0.42s-0.521,0.242-0.726,0.328
			c-0.177,0.09-0.323,0.133-0.44,0.133c-0.646,0-0.968-0.336-0.968-1.012c0-0.353,0.161-0.629,0.484-0.836
			c4.633-2.55,9.331-5.646,14.097-9.279c4.765-3.637,7.132-8.592,7.104-14.867c-0.029-3.93-1.35-7.977-3.959-12.139
			c-2.609-4.164-6.568-6.246-11.875-6.246c-3.606,0-6.949,1.268-10.029,3.805c-3.078,2.535-4.617,5.373-4.617,8.51
			c0,3.257,0.938,6.101,2.814,8.533c1.876,2.437,4.883,3.959,9.017,4.574c3.313,0.088,5.982-0.603,8.005-2.066
			c0.265-0.205,0.579-0.52,0.946-0.944c0.366-0.427,0.726-0.64,1.077-0.64c0.438,0,0.719,0.191,0.836,0.572
			c0.115,0.381,0.044,0.703-0.222,0.967c-0.674,0.732-1.627,1.48-2.857,2.244c-1.936,1.232-4.149,1.846-6.643,1.846
			c-6.656,0.091-11.26-1.545-13.811-4.901c-2.552-3.357-3.578-7.676-3.079-12.955c0.499-5.275,2.909-9.762,7.235-13.457
			c4.324-3.695,9.316-5.426,14.977-5.189c4.838,0.203,8.709,1.244,11.611,3.121s5.117,4.238,6.642,7.08
			c0.147,0.324,0.381,0.455,0.704,0.398c0.353,0,0.557-0.176,0.615-0.529c0.82-2.961,2.368-5.352,4.641-7.168
			c2.272-1.818,5.168-2.727,8.687-2.727c3.372,0,6.319,1.075,8.842,3.229c2.521,2.156,4.354,5.652,5.498,10.492
			c0.851,3.195,2.037,4.764,3.563,4.707c0.616,0,0.975,0.24,1.078,0.725c0.103,0.482-0.14,0.873-0.726,1.166l-9.94,4.617
			c-0.323,0.178-0.455,0.426-0.396,0.748c0.029,0.322,0.222,0.527,0.572,0.615c3.489,0.793,6.562,2.69,9.215,5.694
			c2.653,3.007,3.98,6.664,3.98,10.978c-0.117,6.771-4.574,12.754-13.371,17.943c-4.839,2.815-9.501,4.473-13.987,4.971
			c-4.485,0.498-8.709,0.059-12.666-1.318c-4.517-1.584-8.38-4.246-11.591-7.983C274.866,56.256,271.692,54.868,268.554,55.835z
			 M297.67,35.075l17.153-8.093c0.265-0.205,0.396-0.41,0.396-0.616c0-0.294-0.117-0.513-0.354-0.658
			c-1.994-1.174-3.489-3.711-4.485-7.609c-0.792-2.873-1.788-5.205-2.99-6.992c-1.203-1.789-2.963-2.565-5.278-2.332
			c-3.108,0.703-4.934,2.375-5.477,5.015c-0.542,2.639-0.622,5.645-0.241,9.018c0.645,5.424-0.88,10.328-4.574,14.713
			c-3.693,4.383-7.608,8.101-11.743,11.148c2.64-0.029,5.381,1.319,8.226,4.047c1.993,1.963,4.067,3.783,6.224,5.453
			c2.155,1.672,4.435,3.063,6.839,4.18c3.021,1.438,6.041,1.986,9.062,1.648c3.021-0.336,5.614-1.914,7.785-4.728
			c1.583-2.053,2.396-4.451,2.44-7.192c0.044-2.74-0.983-5.507-3.078-8.291c-2.098-2.783-4.707-4.689-7.83-5.718
			c-3.123-1.024-7.015-1.395-11.678-1.1c-0.645,0.029-1.019-0.213-1.121-0.728C296.842,35.729,297.084,35.341,297.67,35.075z"/>
		<path id="path216" fill="#EC1C24" d="M349.308,35.429l-0.044,21.332c0,0.939,0.234,1.539,0.704,1.803l3.166,1.849
			c0.674,0.409,1.7-0.31,3.079-2.154c0.292-0.383,0.658-0.463,1.1-0.244c0.439,0.221,0.439,0.594,0,1.123
			c-3.079,3.43-5.439,6.803-7.081,10.115c-0.499,0.674-1.043,0.674-1.631,0c-1.65-1.906-3.19-3.357-4.619-4.354
			c-1.43-0.996-3.523-1.817-6.285-2.463c-0.527-0.146-0.792-0.381-0.792-0.703c0-0.323,0.191-0.557,0.572-0.703
			c1.964-0.323,2.932-2.012,2.901-5.061V37.364c0-2.991-0.557-4.823-1.671-5.498c-1.291-0.852-2.347-0.543-3.167,0.923
			c-0.322,0.616-0.688,0.764-1.1,0.44c-0.411-0.324-0.396-0.836,0.044-1.539c0.851-1.35,1.664-2.729,2.441-4.135
			c0.775-1.408,1.575-2.813,2.396-4.223c0.499-0.881,1.16-1.043,1.984-0.484c4.331,2.082,6.925,4.721,7.779,7.918
			c0.088,0.293,0.265,0.478,0.527,0.549c0.264,0.074,0.5-0.022,0.704-0.287l6.772-7.782c0.177-0.177,0.382-0.257,0.615-0.242
			c0.235,0.014,0.425,0.141,0.572,0.373l4.619,8.842c0.115,0.264,0.087,0.514-0.09,0.748l-5.276,6.332
			c-0.206,0.207-0.435,0.293-0.683,0.264c-0.249-0.026-0.418-0.16-0.507-0.395l-3.563-6.599c-0.117-0.176-0.301-0.284-0.55-0.33
			c-0.249-0.045-0.478,0.037-0.682,0.242l-2.067,2.508C349.366,35.104,349.308,35.251,349.308,35.429z"/>
		<path id="path218" fill="#EC1C24" d="M371.958,58.079l-0.308-24.103c0-0.557-0.088-1.012-0.264-1.365
			c-0.704-1.143-1.306-1.422-1.804-0.836l-1.76,1.806c-0.469,0.526-0.917,0.586-1.342,0.176c-0.426-0.412-0.359-0.982,0.197-1.717
			c1.291-1.611,2.448-3.224,3.477-4.836c1.025-1.613,2.08-3.211,3.166-4.795c0.468-0.56,1.012-0.544,1.627,0.043
			c1.232,1.495,2.434,2.809,3.607,3.938c1.172,1.127,2.844,2.324,5.014,3.586c0.615,0.232,0.887,0.512,0.813,0.834
			c-0.073,0.324-0.272,0.498-0.594,0.527c-0.764,0.293-1.438,0.801-2.022,1.52c-0.588,0.717-0.879,1.912-0.879,3.584v18.605
			c0,2.99,0.555,4.824,1.67,5.496c1.289,0.764,2.346,0.44,3.165-0.967c0.293-0.56,0.653-0.683,1.077-0.375
			c0.427,0.309,0.418,0.815-0.021,1.52c-0.881,1.377-1.701,2.764-2.462,4.156c-0.764,1.393-1.539,2.776-2.332,4.153
			c-0.557,0.822-1.248,1-2.068,0.529c-2.639-1.26-4.625-2.801-5.959-4.617C372.624,63.122,371.958,60.837,371.958,58.079z
			 M378.336,5.872c3.257,0,4.734,1.567,4.443,4.705c-0.176,1.584-1.166,3.174-2.971,4.771c-1.804,1.598-3.232,2.383-4.287,2.354
			c-1.058,0-1.863-0.834-2.42-2.509c-0.558-1.67-0.776-3.211-0.659-4.616c0.087-1.351,0.741-2.472,1.956-3.365
			C375.617,6.317,376.929,5.872,378.336,5.872z"/>
		<path id="path220" fill="#EC1C24" d="M406.135,32.569L406.089,57.2c0,0.909,0.222,1.512,0.661,1.805l3.166,1.801
			c0.617,0.529,1.644-0.176,3.08-2.109c0.265-0.383,0.621-0.438,1.076-0.176c0.455,0.264,0.477,0.615,0.066,1.056
			c-3.14,3.432-5.498,6.803-7.08,10.116c-0.501,0.615-1.042,0.615-1.628,0c-1.644-1.938-3.168-3.389-4.576-4.354
			c-1.406-0.967-3.504-1.789-6.289-2.463c-0.469-0.088-0.719-0.31-0.748-0.66c-0.029-0.352,0.148-0.601,0.527-0.746
			c1.965-0.471,2.932-2.158,2.903-5.061l-0.045-23.796c0.029-0.526-0.19-0.791-0.66-0.791h-5.188c-0.412,0-0.676-0.159-0.791-0.483
			c-0.117-0.322,0.014-0.603,0.395-0.834c3.521-2.494,7.105-5.498,10.756-9.019c3.648-3.52,6.971-6.86,9.963-10.028
			c0.381-0.41,0.754-0.49,1.121-0.24c0.366,0.248,0.375,0.609,0.021,1.076c-1.348,1.672-2.703,3.842-4.068,6.51
			c-1.362,2.668-2.191,5.102-2.484,7.301c-0.06,0.295-0.045,0.517,0.045,0.662c0.176,0.174,0.38,0.264,0.616,0.264h7.606
			c0.205,0,0.381,0.072,0.529,0.22c0.146,0.205,0.219,0.396,0.219,0.569l-0.176,3.302c-0.06,0.469-0.31,0.702-0.748,0.702h-7.607
			C406.337,31.821,406.135,32.071,406.135,32.569z"/>
		<path id="path222" fill="#EC1C24" d="M424.388,58.079l-0.31-24.103c0-0.557-0.088-1.012-0.264-1.365
			c-0.703-1.143-1.305-1.422-1.803-0.836l-1.761,1.806c-0.469,0.526-0.918,0.586-1.342,0.176c-0.424-0.412-0.356-0.982,0.199-1.717
			c1.289-1.611,2.447-3.224,3.475-4.836c1.028-1.613,2.08-3.211,3.166-4.795c0.47-0.56,1.013-0.544,1.629,0.043
			c1.23,1.495,2.435,2.809,3.605,3.938c1.172,1.127,2.844,2.324,5.014,3.586c0.615,0.232,0.888,0.512,0.814,0.834
			c-0.074,0.324-0.271,0.498-0.594,0.527c-0.765,0.293-1.438,0.801-2.023,1.52c-0.588,0.717-0.879,1.912-0.879,3.584v18.605
			c0,2.99,0.555,4.824,1.67,5.496c1.289,0.764,2.346,0.44,3.168-0.967c0.291-0.56,0.652-0.683,1.076-0.375
			c0.426,0.309,0.418,0.815-0.021,1.52c-0.879,1.377-1.698,2.764-2.463,4.156c-0.764,1.392-1.539,2.776-2.332,4.153
			c-0.557,0.822-1.246,1-2.063,0.529c-2.642-1.26-4.629-2.801-5.961-4.617C425.054,63.122,424.388,60.837,424.388,58.079z
			 M430.765,5.872c3.256,0,4.733,1.567,4.442,4.705c-0.176,1.584-1.166,3.174-2.969,4.771s-3.232,2.383-4.289,2.354
			c-1.055,0-1.863-0.834-2.42-2.509c-0.557-1.67-0.775-3.211-0.658-4.616c0.086-1.351,0.74-2.472,1.957-3.365
			C428.043,6.317,429.359,5.872,430.765,5.872z"/>
		<path id="path224" fill="#EC1C24" d="M458.781,13.919c4.105-1.084,7.873-0.834,11.305,0.748c2.316,1.114,4.117,2.653,5.412,4.619
			c1.289,1.965,1.801,4.161,1.537,6.598c-0.262,2.434-1.063,4.238-2.395,5.408c-1.341,1.174-2.429,2.084-3.279,2.729
			c-0.851,0.646-1.654,1.32-2.418,2.023c-1.496,1.408-1.613,2.668-0.353,3.783c3.96,3.43,6.238,6.317,6.839,8.663
			c0.6,2.347,0.184,4.414-1.252,6.201c-1.998,2.463-4.113,4.804-6.357,7.017c-2.242,2.215-4.463,4.448-6.664,6.709
			c-1.082,1.055-1.744,0.996-1.979-0.179c-0.382-1.61-2.104-3.026-5.168-4.243c-3.064-1.216-6.298-2.382-9.699-3.496
			c-0.615-0.234-0.658-0.674-0.131-1.32c0.793-0.82,1.61-1.641,2.463-2.463c0.85-0.82,1.701-1.627,2.551-2.418
			c1.318-1.232,1.766-2.324,1.342-3.277c-0.426-0.953-1.209-2.028-2.354-3.231c-2.873-2.992-4.261-5.791-4.156-8.4
			c0.102-2.609,1.049-4.912,2.838-6.906c1.67-1.848,3.555-3.541,5.652-5.08c2.094-1.539,4.082-3.262,5.959-5.168
			c0.233-0.207,0.543-0.133,0.924,0.22c3.928,3.489,7.207,5.25,9.83,5.278c2.621,0.029,4.332-0.748,5.125-2.332
			c0.791-1.612,0.719-3.291-0.222-5.034c-0.94-1.744-2.463-3.189-4.571-4.332c-3.199-1.587-6.703-1.732-10.515-0.439
			c-0.766,0.293-1.217,0.131-1.364-0.484C457.533,14.491,457.904,14.097,458.781,13.919z M457.816,44.269
			c0.354,0.265,0.674,0.248,0.967-0.045l8.182-8.002c0.265-0.295,0.347-0.566,0.242-0.816c-0.104-0.247-0.33-0.387-0.682-0.416
			c-1.67-0.178-3.521-0.821-5.543-1.938c-3.254-1.846-5.381-3.092-6.377-3.738c-0.996-0.643-2.271-0.059-3.826,1.761
			c-1.965,2.315-1.975,4.53-0.021,6.643C452.705,39.827,455.06,42.013,457.816,44.269z M451.744,53.417
			c-0.293,0.5-0.205,0.881,0.265,1.145c2.084,0.969,4.163,1.92,6.245,2.857c2.082,0.938,4.179,1.85,6.291,2.729
			c1.468,0.646,2.931-0.19,4.398-2.508c1.816-2.902-0.59-6.715-7.215-11.436c-1.025-0.615-2.287-0.322-3.783,0.881L451.744,53.417z"
			/>
		<path id="path226" fill="#EC1C24" d="M481.742,10.577c-0.381-0.558-0.352-0.99,0.088-1.298c0.439-0.309,0.881-0.198,1.32,0.33
			c1.289,1.613,2.33,3.343,3.121,5.189c0.09,0.293,0.291,0.438,0.617,0.438c0.264,0.062,0.496-0.059,0.703-0.352
			c1.696-3.051,4.377-5.402,8.026-7.059c3.65-1.658,7.351-2.324,11.105-2.002c0.762,0.028,1.143,0.338,1.143,0.922
			c0,0.588-0.367,0.854-1.098,0.793c-3.08-0.205-5.762,0.5-8.051,2.11c-2.287,1.613-3.416,4.722-3.386,9.324l0.086,9.853
			c0,0.295,0.115,0.508,0.354,0.639c0.234,0.133,0.465,0.125,0.703-0.021c1.608-0.881,3.233-1.848,4.858-2.901
			c1.627-1.058,3.13-2.242,4.509-3.563c1.084-1.086,1.698-0.895,1.85,0.572c0.113,1.084,0.572,2.053,1.361,2.902
			c0.793,0.85,1.522,1.686,2.198,2.506c3.962,5.045,5.998,10.498,6.115,16.362c0.201,8.619-2.832,16.236-9.104,22.849
			c-6.275,6.613-11.982,11.664-17.109,15.154c-0.707,0.497-1.229,0.577-1.563,0.239c-0.337-0.336-0.24-0.725,0.286-1.166
			c4.136-3.664,8.306-7.666,12.515-12.006c4.205-4.34,6.119-11.217,5.74-20.629c-0.177-3.693-0.744-7.176-1.695-10.445
			c-0.951-3.269-2.689-5.989-5.211-8.159c-1.291-1.084-3.08-1.068-5.365,0.045c-0.264,0.086-0.396,0.309-0.396,0.659l0.177,26.566
			c0,2.373,0.951,3.355,2.858,2.945c0.41-0.117,0.773-0.336,1.101-0.658c0.321-0.324,0.682-0.609,1.078-0.857
			c0.395-0.252,0.752-0.229,1.077,0.064c0.32,0.293,0.32,0.602,0,0.924c-1.438,1.584-2.891,3.051-4.354,4.398
			c-1.469,1.348-2.596,2.83-3.387,4.442c-0.354,0.703-0.879,0.703-1.584,0c-2.613-2.815-5.455-4.928-8.531-6.334
			c-0.998-0.528-1.074-1.012-0.221-1.451c1.875-0.646,2.797-2.582,2.771-5.807l-0.088-29.381c-0.029-3.959-0.479-7.197-1.342-9.721
			C484.155,14.478,483.062,12.337,481.742,10.577z"/>
	</g>
</g>
</svg>
