<?xml version="1.0" encoding="utf-8"?>
<!-- Generator: Adobe Illustrator 16.0.0, SVG Export Plug-In . SVG Version: 6.00 Build 0)  -->
<!DOCTYPE svg PUBLIC "-//W3C//DTD SVG 1.1//EN" "http://www.w3.org/Graphics/SVG/1.1/DTD/svg11.dtd">
<svg version="1.1"
	 id="svg2" xmlns:inkscape="http://www.inkscape.org/namespaces/inkscape" xmlns:rdf="http://www.w3.org/1999/02/22-rdf-syntax-ns#" xmlns:sodipodi="http://sodipodi.sourceforge.net/DTD/sodipodi-0.dtd" xmlns:dc="http://purl.org/dc/elements/1.1/" xmlns:svg="http://www.w3.org/2000/svg" xmlns:cc="http://creativecommons.org/ns#" sodipodi:docname="medexb1.svg" inkscape:version="0.91 r13725"
	 xmlns="http://www.w3.org/2000/svg" xmlns:xlink="http://www.w3.org/1999/xlink" x="0px" y="0px" width="500px" height="78.523px"
	 viewBox="135 0 500 78.523" enable-background="new 135 0 500 78.523" xml:space="preserve">
<sodipodi:namedview  id="namedview242" borderopacity="1" gridtolerance="10" inkscape:zoom="0.57084141" bordercolor="#666666" guidetolerance="10" inkscape:cy="-637.4131" showgrid="false" pagecolor="#ffffff" inkscape:cx="325.95045" objecttolerance="10" inkscape:current-layer="Layer_2" inkscape:window-maximized="0" inkscape:window-y="0" inkscape:window-x="0" inkscape:pageopacity="0" inkscape:pageshadow="2" inkscape:window-height="480" inkscape:window-width="640">
	</sodipodi:namedview>
<g id="Layer_1" display="none">
	<rect id="rect5" x="239.458" y="93.003" display="inline" fill="none" width="279.067" height="58.139"/>
	
		<text id="text7" transform="matrix(1 0 0 1 244.2908 142.9905)" display="inline" fill="#EC1C24" font-family="'UnifrakturMaguntia'" font-size="72">Medieval</text>
	<rect id="rect9" x="239.458" y="200.755" display="inline" fill="none" width="279.066" height="58.139"/>
	
		<text id="text11" transform="matrix(1 0 0 1 325.5017 250.7424)" display="inline" fill="#EC1C24" font-family="'UnifrakturMaguntia'" font-size="72">Art</text>
	<rect id="rect13" x="216.783" y="308.507" display="inline" fill="none" width="324.416" height="58.139"/>
	
		<text id="text15" transform="matrix(1 0 0 1 222.1594 358.4944)" display="inline" fill="#EC1C24" font-family="'UnifrakturMaguntia'" font-size="72">EXhibition</text>
	<rect id="rect17" x="206.318" y="416.259" display="inline" fill="none" width="345.345" height="58.139"/>
	
		<text id="text19" transform="matrix(1 0 0 1 239.3328 466.2473)" display="inline" fill="#EC1C24" font-family="'UnifrakturMaguntia'" font-size="72">now on at</text>
	<rect id="rect21" x="239.458" y="524.012" display="inline" fill="none" width="279.066" height="58.139"/>
	
		<text id="text23" transform="matrix(1 0 0 1 323.0588 573.9993)" display="inline" fill="#EC1C24" font-family="'UnifrakturMaguntia'" font-size="72">The</text>
	<rect id="rect25" x="239.457" y="631.764" display="inline" fill="none" width="279.066" height="58.139"/>
	
		<text id="text27" transform="matrix(1 0 0 1 271.9934 681.7512)" display="inline" fill="#EC1C24" font-family="'UnifrakturMaguntia'" font-size="72">British</text>
	<rect id="rect29" x="239.457" y="739.516" display="inline" fill="none" width="279.067" height="58.139"/>
	
		<text id="text31" transform="matrix(1 0 0 1 272.7664 789.5032)" display="inline" fill="#EC1C24" font-family="'UnifrakturMaguntia'" font-size="72">Gallery</text>
</g>
<g id="Layer_2">
	<rect id="rect34" x="1.151" y="-79.811" display="none" fill="#00ADEE" width="768.001" height="1024"/>
	<g id="g36">
	</g>
	<g id="g140">
		<path id="path142" fill="#EC1C24" d="M239.081,44.938c0.058-1.642-0.33-2.661-1.166-3.057c-0.836-0.396-2.604-0.286-5.301,0.33
			c-4.163,0.998-7.889,0.073-11.172-2.771c-3.283-2.844-4.926-7.081-4.926-12.711c0.028-5.601,2.066-10.438,6.113-14.515
			S231.515,6.1,237.145,6.1c2.551,0,5.322,0.631,8.313,1.892s5.542,3.138,7.652,5.63c0.177,0.234,0.366,0.337,0.572,0.308
			c0.204-0.028,0.38-0.16,0.527-0.396c1.291-2.111,2.954-3.886,4.992-5.322c2.037-1.438,4.742-2.111,8.114-2.023
			c4.369,0.205,8.283,2.903,11.743,8.093c0.177,0.265,0.396,0.396,0.66,0.396s0.469-0.146,0.615-0.44
			c1.231-2.286,2.786-4.163,4.663-5.63c1.876-1.466,4.222-2.198,7.037-2.198c3.605,0.059,6.581,1.158,8.929,3.299
			c2.346,2.14,4.046,5.732,5.102,10.775c0.646,3.49,1.994,5.337,4.047,5.542c0.587,0.029,0.902,0.279,0.946,0.748
			c0.044,0.47-0.315,0.821-1.078,1.057c-5.689,1.936-9.604,5.037-11.743,9.303c-2.141,4.266-2.053,9.699,0.265,16.296
			c1.025,2.991,2.5,5.096,4.42,6.312c1.921,1.218,4.023,1.121,6.312-0.285c0.852-0.498,1.488-0.49,1.913,0.021
			c0.425,0.513,0.346,1.02-0.241,1.519c-1.994,1.583-3.966,3.159-5.916,4.728c-1.95,1.569-3.908,3.13-5.872,4.685
			c-0.322,0.234-0.631,0.234-0.924,0c-6.245-5.015-10.006-10.585-11.28-16.714c-1.275-6.128,2.764-13.386,12.116-21.771
			c0.205-0.205,0.301-0.411,0.286-0.616c-0.016-0.205-0.153-0.381-0.418-0.528c-2.053-1.378-3.563-4.91-4.529-10.6
			c-1.026-5.63-3.313-8.474-6.861-8.533c-2.522-0.058-4.662,1.789-6.422,5.542c-0.117,0.205-0.117,0.411,0,0.616
			c1.144,2.434,1.972,5.146,2.484,8.137c0.514,2.991,0.534,6.158,0.065,9.501c-1.172,8.094-2.91,14.2-5.212,18.319
			c-2.302,4.12-5.036,8.231-8.202,12.337c-4.194,5.249-8.153,5.821-11.876,1.715c-1.056-1.172-2.162-1.935-3.32-2.287
			c-1.159-0.352-2.484,0.06-3.98,1.231c-0.558,0.469-1.033,0.521-1.43,0.154c-0.396-0.367-0.374-0.829,0.065-1.387
			c3.753-5.219,6.736-8.194,8.95-8.929c2.214-0.732,4.377-0.117,6.488,1.847c1.729,1.613,3.319,2.479,4.771,2.596
			c1.451,0.116,2.588-0.969,3.408-3.256c1.583-4.397,2.147-10.548,1.692-18.45c-0.454-7.902-2.053-13.966-4.794-18.188
			c-2.741-4.223-5.352-6.708-7.828-7.456c-2.479-0.748-4.729-0.095-6.753,1.958c-0.293,0.293-0.308,0.602-0.044,0.924
			c3.489,4.838,5.366,10.439,5.631,16.803c0.177,5.219-0.837,10.226-3.034,15.021c-2.199,4.794-5.03,9.39-8.489,13.789
			c-3.782,4.81-7.367,7.565-10.754,8.269c-3.387,0.704-6.487-1.012-9.303-5.146c-2.463-3.695-4.972-4.149-7.521-1.364
			c-0.616,0.528-1.166,0.543-1.649,0.044c-0.483-0.498-0.417-1.069,0.197-1.715c8.005-8.15,14.295-9.221,18.869-3.21
			c0.732,0.997,1.43,1.92,2.089,2.771c0.66,0.851,1.649,1.247,2.97,1.188c1.699-0.059,3.488-1.92,5.366-5.586
			c1.876-3.666,2.814-8.284,2.814-13.854c-0.061-7.302-1.965-13.701-5.718-19.199c-3.754-5.498-8.051-8.511-12.889-9.038
			c-4.838-0.499-8.649,0.411-11.436,2.727c-2.786,2.317-4.135,5.059-4.047,8.226c0.088,3.226,0.945,5.806,2.572,7.74
			c1.628,1.937,4.642,2.332,9.039,1.188c8.475-2.17,12.153,0.953,11.04,9.369c-0.117,0.879-0.521,1.327-1.21,1.341
			C239.425,45.943,239.081,45.613,239.081,44.938z"/>
		<path id="path144" fill="#EC1C24" d="M328.852,70.493c-0.061-0.704-0.434-1.231-1.122-1.583c-0.688-0.353-1.269-0.704-1.737-1.056
			c-3.372-2.287-5.755-5.08-7.146-8.379c-1.394-3.299-2.177-6.795-2.354-10.49c-0.352-8.355,1.906-14.719,6.773-19.089
			c1.729-1.554,3.723-2.821,5.981-3.805c2.258-0.982,4.574-1.781,6.948-2.397c0.733-0.146,1.276,0.221,1.628,1.101l6.334,14.866
			c0.292,0.792,0.19,1.291-0.309,1.495h-0.088l-18.033,6.994c-0.352,0.177-0.499,0.455-0.439,0.835
			c1.438,6.511,3.842,10.682,7.214,12.515c3.371,1.833,6.729,2.104,10.071,0.813c0.587-0.264,0.961-0.22,1.122,0.132
			c0.16,0.353,0.051,0.616-0.33,0.792c-2.375,1.203-4.641,2.436-6.796,3.695c-2.155,1.261-4.083,2.58-5.783,3.958
			c-0.265,0.176-0.652,0.234-1.166,0.176C329.107,71.005,328.852,70.815,328.852,70.493z M324.761,45.642
			c0.028,0.235,0.133,0.417,0.309,0.549s0.396,0.141,0.659,0.022l9.368-3.52c0.439-0.176,0.572-0.483,0.396-0.924l-5.365-13.15
			c-0.265-0.646-0.792-0.732-1.583-0.265c-1.701,0.997-2.859,3.271-3.476,6.817C324.452,38.722,324.35,42.211,324.761,45.642z"/>
		<path id="path146" fill="#EC1C24" d="M357.837,7.992c-2.316,0.645-3.446,2.009-3.389,4.09c0.03,1.319,0.785,2.544,2.268,3.673
			c1.479,1.129,3.217,1.884,5.211,2.265c0.027,0,0.059,0.016,0.088,0.044c6.158,2.287,11.518,5.278,16.076,8.974
			c4.561,3.693,7.146,9.061,7.763,16.098v0.132c-0.615,5.278-1.89,9.676-3.827,13.195c-1.934,3.519-4.223,6.202-6.86,8.05
			l-0.044,0.087c-1.231,1.056-2.684,1.995-4.354,2.815c-1.672,0.82-3.153,1.671-4.443,2.551c-0.82,0.557-1.348,0.557-1.583,0
			c-1.643-3.899-6.173-6.876-13.591-8.929c-0.439-0.089-0.676-0.309-0.703-0.66c-0.029-0.353,0.131-0.602,0.482-0.748
			c1.848-0.703,2.771-2.653,2.771-5.851l-0.088-18.297c0-1.025,0.469-1.51,1.406-1.452c2.934,0.382,5.865-0.615,8.799-2.99
			c0.175-0.117,0.264-0.336,0.264-0.66c-0.061-0.234-0.206-0.411-0.439-0.527c-1.116-0.469-2.229-0.931-3.343-1.386
			c-1.115-0.455-2.199-0.946-3.255-1.474c-2.729-1.231-4.743-2.83-6.049-4.795c-1.305-1.964-2.073-3.915-2.309-5.85v-0.22
			c0.732-5.602,3.547-8.725,8.445-9.369c0.762-0.117,1.18,0.029,1.252,0.439C358.457,7.611,358.276,7.875,357.837,7.992z
			 M366.412,31.083c-0.264-0.117-0.513-0.088-0.748,0.087l-2.065,1.627c-0.588,0.439-0.881,0.968-0.881,1.584l0.177,21.728
			c0,0.44,0.177,0.748,0.528,0.925l9.5,5.586c0.764,0.469,1.467,0.293,2.11-0.528c2.64-3.724,3.658-8.671,3.058-14.845
			c-0.603-6.173-3.146-10.843-7.631-14.01C369.64,32.682,368.289,31.963,366.412,31.083z"/>
		<path id="path148" fill="#EC1C24" d="M394.65,58.925l-0.309-24.104c0-0.557-0.088-1.011-0.265-1.363
			c-0.703-1.144-1.305-1.422-1.803-0.835l-1.76,1.804c-0.469,0.527-0.916,0.587-1.342,0.176c-0.425-0.411-0.359-0.981,0.198-1.715
			c1.289-1.612,2.445-3.226,3.476-4.838c1.024-1.612,2.08-3.211,3.166-4.794c0.471-0.557,1.012-0.542,1.629,0.044
			c1.229,1.496,2.432,2.809,3.604,3.937c1.175,1.129,2.844,2.324,5.014,3.584c0.616,0.235,0.889,0.514,0.815,0.836
			c-0.074,0.323-0.271,0.499-0.596,0.527c-0.762,0.293-1.436,0.799-2.021,1.519c-0.587,0.719-0.88,1.912-0.88,3.584V55.89
			c0,2.991,0.557,4.823,1.669,5.498c1.291,0.763,2.349,0.44,3.168-0.968c0.293-0.558,0.652-0.683,1.078-0.374
			c0.424,0.308,0.418,0.813-0.022,1.517c-0.879,1.379-1.699,2.765-2.463,4.156c-0.763,1.393-1.537,2.779-2.33,4.157
			c-0.558,0.819-1.245,0.996-2.067,0.527c-2.639-1.26-4.627-2.8-5.961-4.618C395.316,63.969,394.65,61.682,394.65,58.925z
			 M401.027,6.716c3.255,0,4.737,1.569,4.444,4.706c-0.178,1.583-1.166,3.174-2.97,4.771c-1.804,1.6-3.234,2.383-4.289,2.354
			c-1.056,0-1.861-0.836-2.421-2.507c-0.557-1.671-0.774-3.21-0.657-4.618c0.086-1.349,0.739-2.47,1.955-3.365
			C398.309,7.164,399.62,6.716,401.027,6.716z"/>
		<path id="path150" fill="#EC1C24" d="M426.935,70.493c-0.059-0.704-0.432-1.231-1.121-1.583c-0.691-0.353-1.27-0.704-1.736-1.056
			c-3.373-2.287-5.756-5.08-7.147-8.379c-1.396-3.299-2.178-6.795-2.354-10.49c-0.354-8.355,1.906-14.719,6.773-19.089
			c1.729-1.554,3.725-2.821,5.979-3.805c2.261-0.982,4.576-1.781,6.949-2.397c0.734-0.146,1.277,0.221,1.629,1.101l6.332,14.866
			c0.293,0.792,0.191,1.291-0.305,1.495h-0.09l-18.033,6.994c-0.352,0.177-0.498,0.455-0.441,0.835
			c1.439,6.511,3.845,10.682,7.216,12.515c3.372,1.833,6.729,2.104,10.071,0.813c0.586-0.264,0.961-0.22,1.123,0.132
			c0.16,0.353,0.049,0.616-0.332,0.792c-2.375,1.203-4.639,2.436-6.795,3.695c-2.154,1.261-4.082,2.58-5.783,3.958
			c-0.266,0.176-0.651,0.234-1.166,0.176C427.19,71.005,426.935,70.815,426.935,70.493z M422.843,45.642
			c0.03,0.235,0.133,0.417,0.309,0.549c0.178,0.132,0.396,0.141,0.66,0.022l9.369-3.52c0.438-0.176,0.572-0.483,0.395-0.924
			L428.21,28.62c-0.265-0.646-0.791-0.732-1.585-0.265c-1.698,0.997-2.856,3.271-3.475,6.817
			C422.535,38.722,422.433,42.211,422.843,45.642z"/>
		<path id="path152" fill="#EC1C24" d="M450.026,64.687c-0.557,0.205-0.865,0.11-0.924-0.286c-0.059-0.396,0.16-0.828,0.66-1.298
			c3.371-4.485,5.063-8.708,5.08-12.667c0.016-3.959-1.388-7.374-4.201-10.248c-4.721-4.838-6.744-8.643-6.07-11.414
			c0.676-2.771,2.947-6.092,6.816-9.962c0.383-0.411,0.727-0.483,1.035-0.22c0.307,0.264,0.284,0.601-0.066,1.012
			c-2.053,2.463-2.199,4.589-0.439,6.377c2.142,2.171,3.813,4.105,5.015,5.807c0.235,0.353,0.557,0.426,0.969,0.22
			c2.58-1.407,5.035-2.91,7.367-4.508c2.332-1.599,4.641-3.292,6.928-5.08c0.234-0.205,0.484-0.265,0.746-0.176
			c0.266,0.088,0.412,0.293,0.441,0.615c0.264,1.613,0.85,2.991,1.76,4.136c0.908,1.144,1.846,2.258,2.813,3.343
			c3.548,4.223,5.146,8.914,4.796,14.075c-0.472,6.422-2.64,11.274-6.513,14.559c-1.934,1.671-3.912,3.541-5.938,5.608
			c-2.023,2.066-3.693,4.023-5.015,5.872c-0.321,0.352-0.645,0.41-0.969,0.176c-1.641-1.057-3.84-2.507-6.596-4.354
			C454.966,64.426,452.399,63.896,450.026,64.687z M457.987,57.43c1.582,0.587,3.299,1.438,5.146,2.551
			c2.022,1.203,3.828,2.272,5.41,3.211c0.381,0.235,0.702,0.147,0.967-0.264c0.852-1.436,1.832-3.371,2.946-5.806
			c1.115-2.435,1.718-5.205,1.804-8.313c0.028-3.195-0.586-6.069-1.847-8.621c-1.262-2.551-2.653-4.984-4.18-7.301
			c-1.701-2.463-4.867-2.36-9.5,0.308c-0.41,0.206-0.5,0.528-0.264,0.969c2.492,4.37,3.399,8.43,2.727,12.184
			c-0.617,3.578-1.817,6.905-3.606,9.984c-0.088,0.146-0.104,0.352-0.043,0.615C457.606,57.209,457.753,57.371,457.987,57.43z"/>
		<path id="path154" fill="#EC1C24" d="M508.742,63.06c-1.494,1.145-3.137,2.397-4.926,3.76c-1.787,1.363-3.445,2.617-4.969,3.762
			c-0.529,0.411-0.947,0.586-1.254,0.527c-0.31-0.059-0.435-0.322-0.373-0.792c0-0.615-0.91-1.789-2.728-3.519
			c-4.778-4.487-7.084-10.321-6.907-17.506c0.178-6.158,3.034-11.362,8.578-15.614c1.698-1.29,3.29-2.654,4.771-4.09
			c1.48-1.437,2.793-3.182,3.938-5.234c0.469-0.908,1.112-0.938,1.936-0.087c4.441,5.043,8.885,8.021,13.326,8.928
			c1.408,0.265,1.555,0.821,0.438,1.672c-1.377,0.996-2.125,2.229-2.241,3.694v0.088l0.133,20.102c0,1.349,0.49,2.271,1.473,2.771
			s2.045,0.117,3.189-1.144c0.438-0.499,0.856-0.623,1.254-0.374c0.395,0.25,0.401,0.697,0.021,1.342
			c-1.057,1.583-2.073,3.138-3.057,4.662c-0.982,1.523-1.813,3.107-2.486,4.75l-0.043,0.043c-0.41,0.675-0.906,0.675-1.492,0
			c-0.321-0.353-0.7-0.587-1.137-0.703c-3.326-0.733-5.428-2.947-6.303-6.642c-0.06-0.177-0.205-0.354-0.438-0.528
			C509.183,62.898,508.949,62.943,508.742,63.06z M509.228,37.153c-1.816-0.499-3.943-1.905-6.377-4.222
			c-1.174-1.407-2.111-1.54-2.816-0.396c-3.106,4.633-4.323,9.75-3.647,15.351c0.938,8.005,3.752,12.946,8.442,14.822
			c0.029,0,0.06,0.015,0.091,0.044c1.2,0.381,2.653-0.336,4.354-2.155c0.117-0.176,0.176-0.337,0.176-0.484
			c-0.028-0.439-0.045-1.129-0.045-2.066l0.396-20.188C509.8,37.505,509.61,37.27,509.228,37.153z"/>
		<path id="path156" fill="#EC1C24" d="M529.021,11.466c-0.379-0.411-0.387-0.807-0.021-1.188c0.366-0.38,0.827-0.308,1.387,0.221
			c0.674,0.82,1.369,1.7,2.088,2.639c0.719,0.939,1.326,1.907,1.826,2.903c0.143,0.293,0.356,0.439,0.633,0.439
			c0.279,0,0.488-0.116,0.635-0.352c1.724-2.933,4.117-5.3,7.189-7.104c3.069-1.803,6.395-2.646,9.973-2.528
			c0.674,0.028,1.025,0.314,1.055,0.857s-0.321,0.813-1.055,0.813c-2.904,0-5.227,0.836-6.973,2.507
			c-1.744,1.671-2.617,4.721-2.617,9.147l-0.043,38.091c0,0.938,0.219,1.54,0.658,1.804l3.168,1.803
			c0.733,0.264,1.744-0.439,3.035-2.111c0.319-0.439,0.719-0.534,1.188-0.285s0.453,0.638-0.045,1.166
			c-3.078,3.43-5.439,6.803-7.08,10.115c-0.354,0.616-0.881,0.616-1.582,0c-1.43-1.848-2.902-3.306-4.42-4.376
			c-1.518-1.069-3.652-1.884-6.402-2.44c-0.471-0.06-0.711-0.271-0.727-0.639c-0.014-0.366,0.141-0.622,0.463-0.77
			c0.732-0.264,1.4-0.754,2-1.474c0.603-0.719,0.902-1.913,0.902-3.584l-0.045-29.558c0-4.223-0.453-7.55-1.361-9.983
			C531.938,15.146,530.662,13.109,529.021,11.466z"/>
	</g>
</g>
</svg>
