<?xml version="1.0" encoding="utf-8"?>
<!-- Generator: Adobe Illustrator 16.0.0, SVG Export Plug-In . SVG Version: 6.00 Build 0)  -->
<!DOCTYPE svg PUBLIC "-//W3C//DTD SVG 1.1//EN" "http://www.w3.org/Graphics/SVG/1.1/DTD/svg11.dtd">
<svg version="1.1"
	 id="svg2" xmlns:inkscape="http://www.inkscape.org/namespaces/inkscape" xmlns:rdf="http://www.w3.org/1999/02/22-rdf-syntax-ns#" xmlns:sodipodi="http://sodipodi.sourceforge.net/DTD/sodipodi-0.dtd" xmlns:dc="http://purl.org/dc/elements/1.1/" xmlns:svg="http://www.w3.org/2000/svg" xmlns:cc="http://creativecommons.org/ns#" sodipodi:docname="medexb7.svg" inkscape:version="0.91 r13725"
	 xmlns="http://www.w3.org/2000/svg" xmlns:xlink="http://www.w3.org/1999/xlink" x="0px" y="0px" width="500px" height="87.229px"
	 viewBox="142.325 0 500 87.229" enable-background="new 142.325 0 500 87.229" xml:space="preserve">
<sodipodi:namedview  id="namedview242" borderopacity="1" gridtolerance="10" inkscape:zoom="0.40364583" bordercolor="#666666" guidetolerance="10" inkscape:cy="241.80805" showgrid="false" pagecolor="#ffffff" inkscape:cx="185.80645" objecttolerance="10" inkscape:current-layer="Layer_2" inkscape:window-maximized="0" inkscape:window-y="0" inkscape:window-x="0" inkscape:pageopacity="0" inkscape:pageshadow="2" inkscape:window-height="480" inkscape:window-width="640">
	</sodipodi:namedview>
<g id="Layer_1" display="none">
	<rect id="rect5" x="239.458" y="-671.737" display="inline" fill="none" width="279.067" height="58.139"/>
	
		<text id="text7" transform="matrix(1 0 0 1 244.2908 -621.7498)" display="inline" fill="#EC1C24" font-family="'UnifrakturMaguntia'" font-size="72">Medieval</text>
	<rect id="rect9" x="239.458" y="-563.985" display="inline" fill="none" width="279.066" height="58.139"/>
	
		<text id="text11" transform="matrix(1 0 0 1 325.5017 -513.9978)" display="inline" fill="#EC1C24" font-family="'UnifrakturMaguntia'" font-size="72">Art</text>
	<rect id="rect13" x="216.783" y="-456.233" display="inline" fill="none" width="324.416" height="58.139"/>
	
		<text id="text15" transform="matrix(1 0 0 1 222.1594 -406.2458)" display="inline" fill="#EC1C24" font-family="'UnifrakturMaguntia'" font-size="72">EXhibition</text>
	<rect id="rect17" x="206.318" y="-348.481" display="inline" fill="none" width="345.345" height="58.14"/>
	
		<text id="text19" transform="matrix(1 0 0 1 239.3328 -298.4929)" display="inline" fill="#EC1C24" font-family="'UnifrakturMaguntia'" font-size="72">now on at</text>
	<rect id="rect21" x="239.458" y="-240.729" display="inline" fill="none" width="279.066" height="58.14"/>
	
		<text id="text23" transform="matrix(1 0 0 1 323.0588 -190.741)" display="inline" fill="#EC1C24" font-family="'UnifrakturMaguntia'" font-size="72">The</text>
	<rect id="rect25" x="239.457" y="-132.977" display="inline" fill="none" width="279.066" height="58.14"/>
	
		<text id="text27" transform="matrix(1 0 0 1 271.9934 -82.99)" display="inline" fill="#EC1C24" font-family="'UnifrakturMaguntia'" font-size="72">British</text>
	<rect id="rect29" x="239.457" y="-25.225" display="inline" fill="none" width="279.067" height="58.14"/>
	
		<text id="text31" transform="matrix(1 0 0 1 272.7664 24.7629)" display="inline" fill="#EC1C24" font-family="'UnifrakturMaguntia'" font-size="72">Gallery</text>
</g>
<g id="Layer_2">
	<rect id="rect34" x="8.325" y="-844.552" display="none" fill="#00ADEE" width="768.001" height="1024"/>
	<g id="g228">
		<path id="path230" fill="#EC1C24" d="M309.445,4.284c1.76,2.463,3.753,4.713,5.982,6.752c2.228,2.036,4.573,3.979,7.036,5.827
			c0.234,0.117,0.41,0.234,0.527,0.353c0.293,0.557,0.205,0.996-0.264,1.318l-10.558,7.346c-0.907,0.731-0.775,1.16,0.396,1.274
			c4.135,0.146,7.434,2.464,9.896,6.949c2.462,4.486,3.577,8.504,3.344,12.053c-0.471,6.332-3.482,11.804-9.039,16.406
			c-5.558,4.603-12.029,7.097-19.419,7.478c-9.5,0.526-17.74-2.384-24.719-8.732c-6.979-6.348-10.601-14.094-10.864-23.244
			c-0.235-9.793,2.178-17.932,7.234-24.41c5.06-6.481,10.901-9.721,17.528-9.721c5.248,0,8.929,2.258,11.04,6.773
			c0.234,0.498,0.6,0.586,1.099,0.264l9.457-6.949C308.622,3.696,309.064,3.786,309.445,4.284z M302.715,33.181
			c-0.792,0.029-1.656,0.146-2.596,0.354c-0.675,0.116-1.1-0.054-1.274-0.509c-0.177-0.455,0.028-0.856,0.615-1.207l12.667-8.799
			c0.498-0.352,0.513-0.731,0.043-1.143c-4.457-3.431-8.049-6.849-10.774-10.248c-0.264-0.354-0.587-0.396-0.968-0.131l-5.016,3.647
			c-3.166,2.347-4.64,4.955-4.42,7.828c0.221,2.875,2.223,6.365,6.004,10.469c6.334,6.979,8.291,12.273,5.872,15.879
			c-2.42,3.607-6.354,6.861-11.81,9.767c-0.676,0.322-1.166,0.27-1.474-0.154c-0.31-0.426-0.185-0.887,0.373-1.387
			c1.29-1.23,2.669-2.697,4.136-4.396c1.466-1.703-0.426-5.764-5.675-12.184c-3.725-4.547-5.968-8.189-6.729-10.932
			c-0.763-2.74-0.623-5.027,0.418-6.861c1.041-1.832,2.705-3.422,4.992-4.771c2.287-1.349,4.633-2.903,7.037-4.661l1.716-1.275
			c0.293-0.207,0.381-0.484,0.264-0.836c-1.291-3.813-4.28-5.674-8.973-5.586c-4.193,0.115-7.616,2.586-10.271,7.41
			c-2.652,4.823-3.893,10.313-3.717,16.473c0.354,11.553,3.021,20.621,8.006,27.203c4.984,6.584,11.23,9.875,18.737,9.875
			c5.102,0,9.022-1.914,11.765-5.74s4.084-7.953,4.025-12.381c-0.061-3.666-1.226-7.199-3.497-10.6
			C309.92,34.882,306.762,33.181,302.715,33.181z"/>
		<path id="path232" fill="#EC1C24" d="M351.933,62.167c-1.495,1.145-3.139,2.396-4.927,3.762c-1.788,1.361-3.445,2.617-4.971,3.76
			c-0.526,0.41-0.945,0.586-1.253,0.527c-0.308-0.06-0.434-0.324-0.374-0.791c0-0.617-0.909-1.789-2.727-3.521
			c-4.78-4.485-7.082-10.321-6.906-17.506c0.176-6.155,3.035-11.36,8.577-15.612c1.7-1.291,3.291-2.654,4.771-4.093
			c1.479-1.436,2.793-3.182,3.938-5.233c0.468-0.908,1.114-0.938,1.935-0.086c4.443,5.043,8.888,8.02,13.328,8.928
			c1.406,0.264,1.553,0.822,0.439,1.672c-1.379,0.996-2.127,2.228-2.244,3.693v0.09l0.132,20.1c0,1.351,0.491,2.273,1.474,2.771
			c0.982,0.5,2.045,0.117,3.189-1.144c0.438-0.5,0.856-0.623,1.254-0.373c0.396,0.248,0.402,0.695,0.021,1.341
			c-1.055,1.584-2.073,3.139-3.057,4.661c-0.981,1.527-1.811,3.109-2.485,4.752l-0.044,0.044c-0.409,0.676-0.906,0.676-1.489,0
			c-0.321-0.353-0.701-0.587-1.14-0.703c-3.326-0.732-5.426-2.947-6.302-6.642c-0.059-0.178-0.205-0.354-0.438-0.528
			C352.372,62.007,352.138,62.048,351.933,62.167z M352.416,36.261c-1.818-0.5-3.943-1.906-6.378-4.223
			c-1.173-1.408-2.11-1.539-2.814-0.396c-3.107,4.633-4.325,9.75-3.65,15.351c0.938,8.006,3.753,12.946,8.445,14.823
			c0.027,0,0.059,0.015,0.088,0.043c1.202,0.381,2.653-0.336,4.354-2.153c0.117-0.177,0.178-0.338,0.178-0.484
			c-0.029-0.439-0.044-1.129-0.044-2.068l0.396-20.188C352.988,36.612,352.796,36.378,352.416,36.261z"/>
		<path id="path234" fill="#EC1C24" d="M372.208,9.298c-0.382-0.41-0.39-0.807-0.021-1.188c0.366-0.381,0.827-0.309,1.385,0.22
			c0.675,0.821,1.37,1.702,2.09,2.641c0.718,0.939,1.325,1.906,1.825,2.902c0.145,0.293,0.357,0.438,0.635,0.438
			c0.275,0,0.488-0.117,0.636-0.35c1.721-2.935,4.116-5.303,7.186-7.104c3.072-1.805,6.394-2.646,9.974-2.53
			c0.672,0.03,1.025,0.315,1.056,0.858c0.026,0.541-0.322,0.813-1.056,0.813c-1.877,0.119-2.084,0.998-0.616,2.639
			c0.731,0.617,1.459,1.395,2.178,2.332c0.717,0.939,1.326,1.906,1.826,2.902c0.146,0.293,0.356,0.438,0.637,0.438
			s0.492-0.117,0.639-0.35c1.73-2.935,4.136-5.304,7.213-7.104c3.078-1.805,6.407-2.646,9.985-2.53
			c0.674,0.03,1.025,0.315,1.055,0.858c0.027,0.541-0.323,0.813-1.055,0.813c-2.902,0-5.229,0.836-6.972,2.508
			c-1.744,1.672-2.617,4.721-2.617,9.147l-0.045,38.091c0,0.938,0.219,1.538,0.66,1.803l3.168,1.805
			c0.729,0.264,1.743-0.44,3.033-2.113c0.322-0.438,0.72-0.534,1.187-0.284c0.471,0.25,0.455,0.639-0.041,1.166
			c-3.081,3.432-5.44,6.803-7.081,10.116c-0.354,0.615-0.881,0.615-1.586,0c-1.438-1.85-2.918-3.307-4.441-4.377
			c-1.522-1.069-3.666-1.885-6.422-2.44c-0.469-0.06-0.711-0.271-0.727-0.64c-0.017-0.364,0.139-0.623,0.463-0.77
			c0.731-0.264,1.397-0.754,2-1.473c0.602-0.72,0.902-1.912,0.902-3.586l-0.046-29.556c0-4.223-0.452-7.551-1.36-9.983
			c-0.91-2.437-2.508-4.769-4.795-6.994c-1.173-0.91-2.302-1.086-3.386-0.529c-0.265,0.207-0.515,0.412-0.748,0.617
			c-1.73,1.672-2.597,4.721-2.597,9.147l-0.045,38.091c0,0.938,0.221,1.538,0.662,1.803l3.166,1.805
			c0.732,0.264,1.744-0.44,3.034-2.113c0.322-0.438,0.717-0.534,1.188-0.284c0.468,0.25,0.455,0.639-0.045,1.166
			c-3.077,3.432-5.437,6.803-7.079,10.116c-0.352,0.615-0.879,0.615-1.58,0c-1.432-1.85-2.903-3.307-4.422-4.377
			c-1.518-1.069-3.649-1.885-6.4-2.44c-0.471-0.06-0.712-0.271-0.727-0.64c-0.016-0.364,0.14-0.623,0.461-0.77
			c0.732-0.264,1.4-0.754,2.002-1.473c0.601-0.72,0.9-1.912,0.9-3.586l-0.043-29.556c0-4.223-0.455-7.551-1.364-9.983
			C375.125,12.978,373.851,10.938,372.208,9.298z"/>
		<path id="path236" fill="#EC1C24" d="M432.377,69.599c-0.059-0.703-0.434-1.229-1.121-1.582c-0.688-0.352-1.27-0.703-1.735-1.055
			c-3.373-2.289-5.756-5.08-7.148-8.381c-1.393-3.297-2.178-6.795-2.354-10.488c-0.353-8.357,1.906-14.721,6.772-19.09
			c1.73-1.553,3.724-2.822,5.982-3.806c2.258-0.981,4.574-1.78,6.949-2.396c0.731-0.146,1.274,0.219,1.627,1.1l6.334,14.867
			c0.293,0.789,0.188,1.289-0.308,1.494h-0.09l-18.033,6.992c-0.352,0.178-0.5,0.455-0.438,0.838
			c1.436,6.51,3.842,10.68,7.213,12.512c3.371,1.834,6.729,2.105,10.072,0.814c0.586-0.265,0.961-0.222,1.123,0.133
			c0.157,0.35,0.049,0.615-0.33,0.791c-2.377,1.201-4.642,2.434-6.797,3.695c-2.154,1.26-4.084,2.58-5.783,3.959
			c-0.267,0.174-0.654,0.231-1.166,0.174C432.634,70.114,432.377,69.923,432.377,69.599z M428.287,44.749
			c0.027,0.233,0.131,0.418,0.308,0.551c0.178,0.131,0.396,0.139,0.659,0.021l9.369-3.52c0.439-0.176,0.572-0.484,0.396-0.924
			l-5.365-13.15c-0.264-0.646-0.791-0.731-1.584-0.264c-1.699,0.996-2.857,3.27-3.475,6.817
			C427.98,37.829,427.875,41.317,428.287,44.749z"/>
		<path id="path238" fill="#EC1C24" d="M467.3,35.38l-0.044,21.332c0,0.938,0.234,1.541,0.705,1.805l3.166,1.848
			c0.675,0.41,1.699-0.309,3.078-2.155c0.295-0.383,0.66-0.461,1.101-0.242c0.438,0.221,0.438,0.594,0,1.123
			c-3.078,3.43-5.438,6.803-7.08,10.115c-0.5,0.674-1.043,0.674-1.633,0c-1.65-1.906-3.188-3.357-4.617-4.355
			c-1.431-0.996-3.525-1.815-6.287-2.463c-0.527-0.146-0.791-0.379-0.791-0.703c0-0.322,0.19-0.557,0.572-0.703
			c1.963-0.321,2.932-2.008,2.901-5.059V37.315c0-2.989-0.557-4.821-1.672-5.496c-1.289-0.854-2.346-0.545-3.166,0.922
			c-0.324,0.615-0.688,0.763-1.1,0.439c-0.412-0.322-0.396-0.836,0.045-1.539c0.85-1.35,1.664-2.727,2.44-4.135
			c0.775-1.406,1.576-2.814,2.396-4.223c0.498-0.88,1.16-1.039,1.982-0.482c4.331,2.08,6.926,4.721,7.778,7.916
			c0.09,0.293,0.267,0.477,0.529,0.549c0.264,0.074,0.5-0.02,0.703-0.285l6.772-7.785c0.177-0.176,0.383-0.256,0.615-0.239
			c0.236,0.014,0.426,0.139,0.572,0.373l4.619,8.84c0.116,0.264,0.088,0.514-0.088,0.748l-5.279,6.334
			c-0.203,0.205-0.433,0.293-0.683,0.266c-0.247-0.031-0.416-0.162-0.504-0.397l-3.563-6.597c-0.117-0.178-0.301-0.287-0.549-0.33
			c-0.248-0.045-0.478,0.037-0.683,0.24l-2.065,2.508C467.361,35.058,467.3,35.204,467.3,35.38z"/>
		<path id="path240" fill="#EC1C24" d="M500.99,29.751c1.76-0.967,3.541-2.017,5.344-3.146c1.806-1.131,3.47-2.428,4.994-3.895
			c1.025-1.084,1.642-0.896,1.847,0.572c0.088,1.086,0.543,2.053,1.362,2.901c0.822,0.854,1.57,1.688,2.244,2.508
			c3.93,4.986,5.967,10.439,6.113,16.361c0.176,8.621-2.865,16.24-9.127,22.852c-6.261,6.611-11.972,11.662-17.131,15.152
			c-0.703,0.467-1.212,0.527-1.519,0.174c-0.309-0.35-0.227-0.717,0.242-1.098c4.135-3.666,8.313-7.668,12.535-12.008
			c4.222-4.34,6.129-11.217,5.719-20.629c-0.178-3.695-0.748-7.179-1.717-10.445c-0.969-3.271-2.697-5.99-5.191-8.16
			c-1.406-1.143-3.442-0.951-6.11,0.572c-0.205,0.146-0.31,0.365-0.31,0.658c0.029,5.659,0.066,10.434,0.109,14.317
			c0.045,3.886,0.08,7.793,0.108,11.722c0.091,2.698,1.058,3.682,2.904,2.946l1.98-1.539c0.495-0.381,0.938-0.409,1.315-0.088
			c0.383,0.322,0.354,0.689-0.086,1.101c-1.496,1.496-2.94,2.955-4.332,4.377c-1.395,1.422-2.516,2.91-3.365,4.465
			c-0.323,0.674-0.864,0.674-1.629,0c-1.405-1.613-2.469-2.744-3.188-3.387c-0.719-0.646-2.486-1.63-5.299-2.947
			c-0.588-0.205-0.873-0.471-0.857-0.791c0.014-0.324,0.211-0.545,0.594-0.662c1.875-0.643,2.799-2.58,2.771-5.805
			c0-3.345,0.037-6.724,0.11-10.14c0.072-3.414,0.064-6.75-0.022-10.006c-0.06-1.35-0.402-2.375-1.033-3.08
			c-0.631-0.703-1.24-1.317-1.824-1.846c-2.641-2.199-3.688-4.633-3.146-7.303c0.541-2.666,2.309-5.381,5.301-8.138
			c0.527-0.586,0.988-0.719,1.385-0.395c0.396,0.322,0.402,0.688,0.021,1.098c-1.318,1.351-1.906,2.662-1.76,3.938
			c0.146,1.275,1.202,2.207,3.168,2.793c2.286,0.703,3.87,1.598,4.75,2.684c0.881,1.084,1.438,2.33,1.672,3.738
			c0.028,0.234,0.153,0.418,0.373,0.551C500.53,29.86,500.756,29.868,500.99,29.751z"/>
	</g>
</g>
</svg>
