<?xml version="1.0" encoding="utf-8"?>
<!-- Generator: Adobe Illustrator 16.0.0, SVG Export Plug-In . SVG Version: 6.00 Build 0)  -->
<!DOCTYPE svg PUBLIC "-//W3C//DTD SVG 1.1//EN" "http://www.w3.org/Graphics/SVG/1.1/DTD/svg11.dtd">
<svg version="1.1"
	 id="svg2" xmlns:inkscape="http://www.inkscape.org/namespaces/inkscape" xmlns:rdf="http://www.w3.org/1999/02/22-rdf-syntax-ns#" xmlns:sodipodi="http://sodipodi.sourceforge.net/DTD/sodipodi-0.dtd" xmlns:dc="http://purl.org/dc/elements/1.1/" xmlns:svg="http://www.w3.org/2000/svg" xmlns:cc="http://creativecommons.org/ns#" sodipodi:docname="medexb3.svg" inkscape:version="0.91 r13725"
	 xmlns="http://www.w3.org/2000/svg" xmlns:xlink="http://www.w3.org/1999/xlink" x="0px" y="0px" width="500px" height="90.667px"
	 viewBox="135.075 0 500 90.667" enable-background="new 135.075 0 500 90.667" xml:space="preserve">
<sodipodi:namedview  id="namedview242" borderopacity="1" gridtolerance="10" inkscape:zoom="0.40364583" bordercolor="#666666" guidetolerance="10" inkscape:cy="-53.763274" showgrid="false" pagecolor="#ffffff" inkscape:cx="86.709677" objecttolerance="10" inkscape:current-layer="Layer_2" inkscape:window-maximized="0" inkscape:window-y="0" inkscape:window-x="0" inkscape:pageopacity="0" inkscape:pageshadow="2" inkscape:window-height="480" inkscape:window-width="640">
	</sodipodi:namedview>
<g id="Layer_1" display="none">
	<rect id="rect5" x="239.458" y="-156.856" display="inline" fill="none" width="279.067" height="58.139"/>
	
		<text id="text7" transform="matrix(1 0 0 1 244.2908 -106.8687)" display="inline" fill="#EC1C24" font-family="'UnifrakturMaguntia'" font-size="72">Medieval</text>
	<rect id="rect9" x="239.458" y="-49.104" display="inline" fill="none" width="279.066" height="58.139"/>
	
		<text id="text11" transform="matrix(1 0 0 1 325.5017 0.8833)" display="inline" fill="#EC1C24" font-family="'UnifrakturMaguntia'" font-size="72">Art</text>
	<rect id="rect13" x="216.783" y="58.647" display="inline" fill="none" width="324.416" height="58.14"/>
	
		<text id="text15" transform="matrix(1 0 0 1 222.1594 108.6353)" display="inline" fill="#EC1C24" font-family="'UnifrakturMaguntia'" font-size="72">EXhibition</text>
	<rect id="rect17" x="206.318" y="166.4" display="inline" fill="none" width="345.345" height="58.139"/>
	
		<text id="text19" transform="matrix(1 0 0 1 239.3328 216.3882)" display="inline" fill="#EC1C24" font-family="'UnifrakturMaguntia'" font-size="72">now on at</text>
	<rect id="rect21" x="239.458" y="274.152" display="inline" fill="none" width="279.066" height="58.139"/>
	
		<text id="text23" transform="matrix(1 0 0 1 323.0588 324.1392)" display="inline" fill="#EC1C24" font-family="'UnifrakturMaguntia'" font-size="72">The</text>
	<rect id="rect25" x="239.457" y="381.904" display="inline" fill="none" width="279.066" height="58.14"/>
	
		<text id="text27" transform="matrix(1 0 0 1 271.9934 431.8921)" display="inline" fill="#EC1C24" font-family="'UnifrakturMaguntia'" font-size="72">British</text>
	<rect id="rect29" x="239.457" y="489.656" display="inline" fill="none" width="279.067" height="58.14"/>
	
		<text id="text31" transform="matrix(1 0 0 1 272.7664 539.644)" display="inline" fill="#EC1C24" font-family="'UnifrakturMaguntia'" font-size="72">Gallery</text>
</g>
<g id="Layer_2">
	<rect id="rect34" x="1.075" y="-329.67" display="none" fill="#00ADEE" width="768.001" height="1024"/>
	<g id="g166">
		<path id="path168" fill="#EC1C24" d="M224.47,15.185c-0.559,0.294-1.115,0.659-1.672,1.1c-2.404,1.877-3.622,3.725-3.65,5.542
			c-0.088,2.287,1.715,5.029,5.41,8.225c1.522,1.35,2.755,2.464,3.694,3.343c0.205,0.176,0.396,0.25,0.571,0.221
			c0.177-0.029,0.336-0.132,0.483-0.309c0.704-0.879,1.642-2.008,2.813-3.387c1.644-1.935,3.24-2.8,4.796-2.595
			c1.554,0.205,3.094,0.88,4.617,2.023c2.64,2.082,4.678,2.668,6.113,1.759c0.763-0.498,1.37-0.534,1.826-0.109
			c0.454,0.425,0.417,1.033-0.11,1.825c-0.732,0.997-1.474,1.994-2.222,2.99c-0.747,0.998-1.62,1.921-2.617,2.771
			c-2.052,1.789-4.295,1.627-6.729-0.484c-2.641-2.139-4.663-3.063-6.07-2.771c-0.264,0.06-0.439,0.221-0.528,0.483
			c-0.087,0.265-0.027,0.5,0.178,0.704c3.282,3.606,5.058,6.759,5.321,9.456c0.292,3.755-4.546,8.357-14.515,13.813
			c-0.704,0.381-1.227,0.352-1.563-0.089c-0.338-0.44-0.214-0.924,0.374-1.45c3.401-2.521,5.146-4.679,5.233-6.467
			c0.088-1.201-0.462-2.624-1.649-4.267c-1.187-1.644-3.275-3.827-6.268-6.554c-6.069-5.513-9.076-10.087-9.017-13.723
			c0-3.343,2.521-6.583,7.564-9.721c0.176-0.088,0.896-0.506,2.155-1.253c1.26-0.748,2.17-1.326,2.727-1.737
			c0.266-0.235,0.367-0.499,0.31-0.792c-0.853-4.018-3.373-6.025-7.565-6.025c-4.194,0-7.434,2.609-9.721,7.828
			c-2.287,5.22-2.91,12.045-1.869,20.475c1.04,8.431,4.493,15.336,10.358,20.717c5.863,5.381,12.563,8.071,20.101,8.071
			c4.163,0,8.532-1.115,13.106-3.344c0.731-0.322,1.254-0.248,1.562,0.221s0.139,0.981-0.506,1.539
			c-7.008,5.541-15.014,8.313-24.015,8.313c-9.003,0-16.437-3.54-22.301-10.621c-5.864-7.082-9.017-14.009-9.457-20.783
			c-0.614-9.793,1.246-18.092,5.587-24.895c4.34-6.802,9.822-10.204,16.449-10.204c2.697,0,4.86,0.682,6.488,2.045
			c1.627,1.364,2.748,2.999,3.364,4.904c0.088,0.265,0.233,0.411,0.438,0.44c0.147,0.059,0.309,0.073,0.484,0.044l0.176-0.089
			c2.579-1.905,4.97-4.002,7.169-6.289c0.968-0.732,2.074-0.77,3.321-0.109c1.246,0.659,2.396,1.253,3.452,1.78
			c0.968,0.558,2.185,1.218,3.65,1.979c1.466,0.763,2.933,0.808,4.398,0.132c0.674-0.439,1.188-0.477,1.539-0.109
			c0.352,0.366,0.308,0.799-0.132,1.298c-1.496,1.466-2.89,2.777-4.18,3.936c-1.291,1.159-2.551,2.295-3.781,3.409
			c-0.295,0.235-0.639,0.345-1.034,0.33c-0.396-0.016-0.917-0.198-1.563-0.55c-5.073-2.464-8.576-3.695-10.512-3.695
			C226.214,14.51,225.35,14.745,224.47,15.185z"/>
		<path id="path170" fill="#EC1C24" d="M273.688,36.121c0.968-0.353,1.583-0.227,1.847,0.373c0.266,0.602-0.028,1.034-0.879,1.298
			c-4.927,1.672-9.164,1.577-12.712-0.285c-3.548-1.862-5.855-5.329-6.928-10.402c-1.07-5.073,0.11-9.786,3.541-14.141
			s7.976-6.532,13.635-6.532c5.718,0,10.035,1.357,12.953,4.069s4.978,6.296,6.181,10.753c0.087,0.353,0.309,0.528,0.659,0.528
			c0.352,0,0.586-0.176,0.704-0.528c1.407-5.718,3.115-9.911,5.124-12.579c2.008-2.667,4.625-2.844,7.851-0.527
			c2.991,2.199,5.322,2.302,6.994,0.308c0.353-0.439,0.776-0.55,1.275-0.33c0.498,0.22,0.614,0.726,0.352,1.518
			c-1.672,5.015-3.578,8.101-5.718,9.259c-2.141,1.159-4.296,0.887-6.466-0.813c-1.818-1.349-3.321-1.664-4.508-0.946
			c-1.188,0.719-2.142,1.892-2.859,3.52c-0.719,1.627-1.225,3.424-1.518,5.388c-0.293,1.964-0.439,3.504-0.439,4.618
			c0,0.205,0.06,0.381,0.176,0.527c0.146,0.147,0.309,0.22,0.484,0.22h13.635c0.791,0,0.967,0.411,0.527,1.231l-3.52,5.982
			c-0.438,0.821-1.085,1.231-1.936,1.231h-8.356c-0.176,0-0.352,0.073-0.527,0.22c-0.176,0.177-0.234,0.353-0.176,0.528
			c0.703,9.236,2.962,15.24,6.772,18.012c3.812,2.771,7.478,3.146,10.996,1.121c0.557-0.352,1.025-0.389,1.407-0.109
			c0.381,0.279,0.425,0.623,0.132,1.033c-1.524,2.023-3.196,3.987-5.015,5.895c-1.407,1.467-2.713,2.814-3.915,4.047
			c-0.41,0.41-0.944,0.639-1.604,0.682c-0.66,0.045-1.283-0.037-1.87-0.242c-7.976-2.198-13.019-7.887-15.13-17.064
			c-0.089-0.469-0.314-0.704-0.682-0.704s-0.609,0.235-0.727,0.704c-2.552,10-5.499,15.46-8.842,16.384
			c-3.343,0.925-6.069,0.595-8.181-0.989c-3.666-2.697-6.144-3.021-7.434-0.967c-0.265,0.438-0.615,0.533-1.056,0.284
			c-0.44-0.248-0.484-0.771-0.133-1.562c2.932-6.305,5.563-9.67,7.896-10.094c2.332-0.426,4.51,0.285,6.532,2.133
			c2.403,2.259,4.339,2.765,5.806,1.518c1.467-1.246,2.609-3.167,3.432-5.762c0.819-2.596,1.378-5.344,1.671-8.247
			c0.293-2.902,0.469-4.926,0.528-6.069c0.027-0.205-0.03-0.381-0.177-0.528c-0.146-0.146-0.309-0.22-0.483-0.22h-5.321
			c-1.115,0-1.291-0.41-0.528-1.231l5.41-5.982c0.234-0.263,0.571-0.556,1.012-0.879c0.204-0.117,0.309-0.337,0.309-0.66
			c-0.354-4.809-1.613-8.657-3.782-11.546c-2.171-2.887-5.059-4.332-8.665-4.332c-4.282,0.029-7.609,1.181-9.984,3.453
			s-3.513,5.043-3.408,8.313c0.103,3.271,1.634,6.02,4.597,8.247C265.609,37.47,269.288,37.764,273.688,36.121z"/>
		<path id="path172" fill="#EC1C24" d="M319.166,12.59c-0.382-0.557-0.353-0.99,0.087-1.298c0.44-0.308,0.881-0.198,1.32,0.33
			c1.29,1.612,2.331,3.343,3.123,5.19c0.087,0.293,0.292,0.439,0.615,0.439c0.264,0.059,0.498-0.059,0.704-0.353
			c1.698-3.049,4.376-5.402,8.025-7.059c3.651-1.656,7.354-2.324,11.106-2.002c0.762,0.029,1.144,0.338,1.144,0.925
			c0,0.587-0.366,0.85-1.1,0.791c-3.079-0.204-5.762,0.499-8.049,2.111s-3.416,4.722-3.389,9.324l0.09,9.853
			c0,0.293,0.115,0.506,0.352,0.638c0.234,0.132,0.469,0.125,0.704-0.021c1.611-0.88,3.231-1.848,4.859-2.903
			c1.628-1.056,3.13-2.243,4.509-3.563c1.084-1.084,1.7-0.895,1.848,0.572c0.116,1.084,0.571,2.052,1.363,2.902
			c0.792,0.852,1.523,1.687,2.199,2.507c3.958,5.044,5.996,10.497,6.112,16.362c0.204,8.619-2.83,16.236-9.104,22.85
			c-6.274,6.613-11.979,11.662-17.109,15.152c-0.704,0.498-1.225,0.578-1.562,0.242c-0.337-0.339-0.242-0.728,0.286-1.166
			c4.135-3.666,8.306-7.668,12.514-12.009c4.207-4.339,6.12-11.216,5.739-20.628c-0.177-3.695-0.741-7.177-1.693-10.446
			c-0.953-3.27-2.69-5.988-5.212-8.159c-1.291-1.084-3.079-1.07-5.366,0.044c-0.264,0.088-0.396,0.308-0.396,0.66l0.176,26.566
			c0,2.375,0.952,3.356,2.857,2.946c0.411-0.116,0.776-0.336,1.102-0.659c0.322-0.323,0.682-0.608,1.077-0.858
			c0.396-0.248,0.754-0.227,1.077,0.066c0.321,0.293,0.321,0.602,0,0.924c-1.438,1.583-2.889,3.051-4.354,4.398
			s-2.595,2.83-3.386,4.441c-0.354,0.703-0.88,0.703-1.584,0c-2.61-2.814-5.454-4.927-8.533-6.334
			c-0.996-0.527-1.07-1.012-0.22-1.451c1.876-0.645,2.8-2.58,2.771-5.806l-0.089-29.382c-0.029-3.959-0.477-7.198-1.341-9.721
			C321.577,16.489,320.486,14.349,319.166,12.59z"/>
		<path id="path174" fill="#EC1C24" d="M363.942,60.091l-0.308-24.104c0-0.556-0.089-1.011-0.265-1.363
			c-0.703-1.143-1.305-1.422-1.803-0.835l-1.76,1.803c-0.47,0.528-0.918,0.587-1.343,0.176c-0.425-0.41-0.358-0.981,0.198-1.715
			c1.29-1.612,2.446-3.226,3.475-4.838c1.025-1.612,2.081-3.211,3.168-4.795c0.468-0.556,1.012-0.542,1.627,0.044
			c1.23,1.496,2.435,2.809,3.605,3.937c1.173,1.129,2.845,2.325,5.016,3.585c0.614,0.235,0.885,0.514,0.813,0.836
			c-0.072,0.323-0.271,0.499-0.594,0.527c-0.765,0.294-1.437,0.799-2.023,1.518c-0.586,0.72-0.879,1.914-0.879,3.585v18.605
			c0,2.99,0.558,4.822,1.672,5.497c1.289,0.764,2.347,0.44,3.166-0.968c0.293-0.557,0.654-0.682,1.078-0.373
			c0.424,0.308,0.418,0.813-0.021,1.518c-0.879,1.379-1.701,2.764-2.464,4.156c-0.764,1.393-1.54,2.777-2.331,4.156
			c-0.558,0.819-1.247,0.996-2.067,0.527c-2.64-1.261-4.626-2.801-5.96-4.619C364.609,65.136,363.942,62.849,363.942,60.091z
			 M370.32,7.884c3.256,0,4.734,1.568,4.441,4.706c-0.175,1.583-1.164,3.174-2.969,4.772c-1.804,1.598-3.232,2.382-4.288,2.353
			c-1.056,0-1.862-0.836-2.42-2.507c-0.557-1.672-0.776-3.211-0.657-4.618c0.086-1.349,0.737-2.471,1.954-3.365
			C367.599,8.331,368.911,7.884,370.32,7.884z"/>
		<path id="path176" fill="#EC1C24" d="M383.736,12.854c-0.354-0.587-0.316-1.026,0.109-1.319c0.425-0.293,0.856-0.191,1.296,0.308
			c1.377,1.788,2.448,3.578,3.211,5.366c0.117,0.323,0.309,0.513,0.571,0.571c0.265,0.06,0.498-0.087,0.703-0.439
			c3.197-5.219,8.461-8.21,15.793-8.973c0.643-0.028,0.993,0.235,1.055,0.792c0.059,0.557-0.279,0.865-1.014,0.923
			c-2.989,0.147-5.102,0.953-6.332,2.42c-1.231,1.466-1.834,4.369-1.805,8.709l0.133,11.392c0,0.352,0.104,0.579,0.308,0.682
			c0.205,0.103,0.455,0.081,0.748-0.066c1.819-0.968,3.657-2.038,5.521-3.211c1.861-1.172,3.583-2.507,5.167-4.002
			c1.057-1.114,1.688-0.924,1.891,0.571c0.091,1.085,0.546,2.053,1.365,2.903c0.82,0.85,1.553,1.687,2.199,2.507
			c3.371,4.37,4.941,9.046,4.705,14.031c-0.291,5.072-1.965,9.164-5.014,12.271c-1.261,1.318-2.662,2.588-4.199,3.804
			c-1.539,1.218-2.854,2.485-3.938,3.805l-0.045-0.088c-1.759,2.288-3.077,4.34-3.956,6.158c-0.412,0.851-0.94,0.851-1.584,0
			c-3.229-3.987-8.139-7.009-14.735-9.062c-0.646-0.205-0.953-0.462-0.925-0.77c0.029-0.309,0.265-0.521,0.703-0.639
			c1.877-0.645,2.801-2.596,2.771-5.851l-0.088-26.654c-0.029-3.987-0.478-7.235-1.343-9.742
			C386.143,16.746,385.053,14.612,383.736,12.854z M397.456,35.593l0.176,22.388c0,0.411,0.16,0.72,0.484,0.924l6.773,4.048
			c0.729,0.381,1.347,0.322,1.847-0.178l0.748-0.835c0.059,0,0.088-0.028,0.088-0.088c2.375-3.431,3.563-7.712,3.563-12.845
			c-0.029-2.901-0.638-5.547-1.824-7.938c-1.188-2.39-2.75-4.685-4.686-6.884c-1.26-1.378-3.535-1.114-6.817,0.792
			C397.573,35.125,397.456,35.329,397.456,35.593z"/>
		<path id="path178" fill="#EC1C24" d="M428.554,60.091l-0.31-24.104c0-0.556-0.088-1.011-0.264-1.363
			c-0.703-1.143-1.305-1.422-1.803-0.835l-1.761,1.803c-0.469,0.528-0.918,0.587-1.342,0.176c-0.424-0.41-0.359-0.981,0.199-1.715
			c1.291-1.612,2.447-3.226,3.475-4.838c1.028-1.612,2.08-3.211,3.166-4.795c0.469-0.556,1.013-0.542,1.629,0.044
			c1.23,1.496,2.435,2.809,3.605,3.937c1.172,1.129,2.842,2.325,5.014,3.585c0.617,0.235,0.885,0.514,0.814,0.836
			c-0.074,0.323-0.271,0.499-0.594,0.527c-0.765,0.294-1.437,0.799-2.023,1.518c-0.588,0.72-0.879,1.914-0.879,3.585v18.605
			c0,2.99,0.555,4.822,1.67,5.497c1.291,0.764,2.346,0.44,3.166-0.968c0.293-0.557,0.654-0.682,1.078-0.373
			c0.424,0.308,0.418,0.813-0.021,1.518c-0.879,1.379-1.699,2.764-2.463,4.156c-0.764,1.392-1.539,2.777-2.332,4.156
			c-0.557,0.819-1.246,0.996-2.065,0.527c-2.64-1.261-4.625-2.801-5.961-4.619C429.22,65.136,428.554,62.849,428.554,60.091z
			 M434.931,7.884c3.256,0,4.733,1.568,4.442,4.706c-0.176,1.583-1.166,3.174-2.969,4.772c-1.803,1.598-3.234,2.382-4.289,2.353
			c-1.055,0-1.863-0.836-2.42-2.507c-0.557-1.672-0.775-3.211-0.658-4.618c0.088-1.349,0.74-2.471,1.957-3.365
			C432.209,8.33,433.525,7.884,434.931,7.884z"/>
		<path id="path180" fill="#EC1C24" d="M462.73,34.581l-0.045,24.631c0,0.91,0.221,1.511,0.662,1.804l3.166,1.804
			c0.612,0.527,1.643-0.176,3.077-2.111c0.265-0.381,0.621-0.439,1.078-0.176c0.453,0.264,0.478,0.615,0.066,1.057
			c-3.141,3.431-5.5,6.803-7.084,10.115c-0.498,0.615-1.039,0.615-1.625,0c-1.646-1.936-3.168-3.387-4.576-4.354
			c-1.406-0.968-3.504-1.788-6.289-2.464c-0.469-0.088-0.719-0.309-0.746-0.659c-0.031-0.353,0.146-0.601,0.527-0.748
			c1.963-0.469,2.93-2.155,2.902-5.058l-0.046-23.796c0.027-0.527-0.19-0.791-0.657-0.791h-5.189c-0.412,0-0.676-0.161-0.793-0.484
			c-0.117-0.322,0.014-0.601,0.396-0.835c3.52-2.492,7.104-5.498,10.754-9.017c3.651-3.519,6.973-6.861,9.965-10.028
			c0.379-0.411,0.752-0.491,1.121-0.242c0.367,0.249,0.375,0.608,0.021,1.077c-1.35,1.672-2.707,3.842-4.067,6.51
			c-1.365,2.668-2.193,5.103-2.486,7.301c-0.059,0.294-0.043,0.514,0.045,0.66c0.176,0.176,0.379,0.265,0.615,0.265h7.608
			c0.203,0,0.38,0.073,0.529,0.22c0.146,0.205,0.219,0.396,0.219,0.571l-0.176,3.299c-0.063,0.469-0.309,0.704-0.748,0.704h-7.606
			C462.935,33.834,462.73,34.083,462.73,34.581z"/>
		<path id="path182" fill="#EC1C24" d="M480.982,60.091l-0.307-24.104c0-0.556-0.089-1.011-0.265-1.363
			c-0.703-1.143-1.305-1.422-1.805-0.835l-1.758,1.803c-0.47,0.528-0.918,0.587-1.343,0.176c-0.426-0.41-0.356-0.981,0.199-1.715
			c1.289-1.612,2.443-3.226,3.476-4.838c1.022-1.612,2.08-3.211,3.166-4.795c0.465-0.556,1.012-0.542,1.627,0.044
			c1.229,1.496,2.434,2.809,3.606,3.937c1.17,1.129,2.842,2.325,5.015,3.585c0.614,0.235,0.885,0.514,0.813,0.836
			c-0.074,0.323-0.272,0.499-0.594,0.527c-0.767,0.294-1.438,0.799-2.023,1.518c-0.59,0.72-0.881,1.914-0.881,3.585v18.605
			c0,2.99,0.555,4.822,1.672,5.497c1.289,0.764,2.347,0.44,3.166-0.968c0.291-0.557,0.652-0.682,1.078-0.373
			c0.424,0.308,0.418,0.813-0.021,1.518c-0.882,1.379-1.701,2.764-2.464,4.156c-0.766,1.393-1.538,2.777-2.332,4.156
			c-0.557,0.819-1.25,0.996-2.067,0.527c-2.639-1.261-4.625-2.801-5.959-4.619C481.648,65.136,480.982,62.849,480.982,60.091z
			 M487.361,7.884c3.256,0,4.732,1.568,4.443,4.706c-0.177,1.583-1.166,3.174-2.972,4.772c-1.803,1.599-3.231,2.382-4.287,2.353
			c-1.057,0-1.864-0.836-2.42-2.507c-0.557-1.672-0.774-3.211-0.66-4.618c0.089-1.349,0.742-2.471,1.957-3.365
			C484.64,8.33,485.951,7.884,487.361,7.884z"/>
		<path id="path184" fill="#EC1C24" d="M515.377,71.22c-0.438,0.732-0.983,0.732-1.629,0c-3.227-4.018-8.121-7.037-14.688-9.061
			c-0.529-0.146-0.785-0.382-0.771-0.703c0.017-0.324,0.181-0.559,0.506-0.705c1.873-0.645,2.814-2.595,2.814-5.851l-0.131-22.432
			c0-0.322-0.029-0.578-0.088-0.769c-0.062-0.191-0.041-0.367,0.063-0.528c0.104-0.161,0.301-0.257,0.594-0.286
			c7.802-0.645,14.736-2.771,20.808-6.377c0.264-0.147,0.504-0.191,0.725-0.133c0.219,0.06,0.344,0.264,0.373,0.616
			c0.5,3.167,2.051,6.274,4.662,9.324c1.436,1.76,2.633,4.164,3.584,7.214c0.953,3.05,1.326,5.587,1.123,7.608
			c-0.293,2.376-1.072,4.509-2.33,6.4c-1.262,1.892-2.701,3.629-4.313,5.211c-1.907,1.877-3.956,3.461-6.155,4.75
			C518.324,66.792,516.611,68.698,515.377,71.22z M510.582,31.898l0.177,25.335c0,0.438,0.178,0.747,0.526,0.924l7.787,4.839
			c0.762,0.498,1.467,0.352,2.109-0.44c2.787-2.99,4.047-6.582,3.782-10.775c-0.061-2.61-0.565-4.94-1.516-6.993
			c-0.955-2.053-2.135-3.871-3.543-5.454c-2.285-2.316-4.031-5.19-5.232-8.621c-0.063-0.146-0.192-0.271-0.396-0.374
			c-0.205-0.103-0.396-0.11-0.572-0.021c-0.879,0.322-1.758,0.601-2.639,0.835C510.742,31.268,510.582,31.518,510.582,31.898z"/>
		<path id="path186" fill="#EC1C24" d="M553.115,54.55c-0.029,4.722,0.853,7.449,2.639,8.182c0.203,0.146,0.31,0.346,0.31,0.594
			c0,0.25-0.105,0.434-0.31,0.551c-2.639,1.994-4.778,4.646-6.422,7.961c-0.174,0.233-0.396,0.352-0.66,0.352
			c-0.262,0-0.483-0.117-0.657-0.352c-1.646-3.313-3.871-5.952-6.687-7.918c-0.176-0.116-0.266-0.309-0.266-0.571
			s0.104-0.47,0.309-0.615c1.906-0.731,2.859-3.46,2.859-8.182V39.947c0-2.99-0.56-4.822-1.672-5.498
			c-1.291-0.851-2.349-0.542-3.166,0.924c-0.324,0.615-0.689,0.764-1.103,0.439c-0.412-0.322-0.395-0.835,0.045-1.539
			c0.851-1.349,1.666-2.727,2.441-4.134c0.775-1.408,1.578-2.815,2.398-4.223c0.465-0.851,1.125-1.026,1.979-0.528l0.045,0.044
			c4.309,2.171,6.887,4.823,7.74,7.961c0.059,0.323,0.203,0.514,0.438,0.572c0.234,0.06,0.47,0,0.703-0.176
			c1.609-1.349,3.26-2.771,4.959-4.267c1.695-1.495,2.853-2.874,3.467-4.135c0.32-0.762,0.851-0.748,1.578,0.044
			c1.758,1.848,3.256,3.314,4.5,4.398c1.242,1.085,3.359,1.892,6.349,2.419c0.526,0.117,0.795,0.346,0.813,0.683
			c0.014,0.337-0.172,0.564-0.549,0.682c-0.766,0.293-1.438,0.799-2.023,1.517c-0.59,0.72-0.881,1.913-0.881,3.585V57.32
			c0,2.99,0.556,4.823,1.674,5.498c1.289,0.791,2.33,0.469,3.121-0.968c0.322-0.558,0.695-0.683,1.123-0.374
			c0.422,0.309,0.418,0.813-0.022,1.518c-0.879,1.379-1.711,2.766-2.484,4.156c-0.777,1.393-1.561,2.778-2.354,4.156
			c-0.527,0.82-1.188,1.012-1.976,0.572c-5.313-2.58-7.967-6.406-7.967-11.479l0.045-22.521c0-0.879-0.219-1.451-0.658-1.715h-0.045
			v-0.088l-3.737-3.079c-0.324-0.234-0.662-0.249-1.013-0.044l-4.576,3.563c-0.202,0.147-0.307,0.323-0.307,0.527V54.55
			L553.115,54.55z"/>
	</g>
	<g id="g228">
		<path id="path230" fill="#EC1C24" d="M302.195,519.165c1.76,2.464,3.753,4.714,5.982,6.753c2.228,2.036,4.573,3.979,7.036,5.827
			c0.234,0.117,0.41,0.234,0.527,0.353c0.293,0.557,0.205,0.996-0.264,1.317l-10.558,7.347c-0.907,0.731-0.775,1.16,0.396,1.274
			c4.135,0.146,7.434,2.464,9.896,6.949c2.462,4.486,3.577,8.504,3.344,12.053c-0.471,6.332-3.482,11.804-9.039,16.406
			c-5.558,4.603-12.029,7.096-19.419,7.478c-9.5,0.526-17.74-2.384-24.719-8.732c-6.979-6.348-10.601-14.094-10.864-23.244
			c-0.235-9.793,2.178-17.932,7.234-24.41c5.06-6.481,10.901-9.721,17.528-9.721c5.248,0,8.929,2.258,11.04,6.773
			c0.234,0.498,0.6,0.586,1.099,0.264l9.457-6.949C301.372,518.577,301.814,518.667,302.195,519.165z M295.465,548.062
			c-0.792,0.029-1.656,0.146-2.596,0.354c-0.675,0.117-1.1-0.053-1.274-0.508c-0.177-0.455,0.028-0.856,0.615-1.207l12.667-8.799
			c0.498-0.352,0.513-0.731,0.043-1.143c-4.457-3.431-8.049-6.849-10.774-10.248c-0.264-0.354-0.587-0.396-0.968-0.131l-5.016,3.647
			c-3.166,2.347-4.64,4.955-4.42,7.828c0.221,2.875,2.223,6.365,6.004,10.469c6.334,6.979,8.291,12.273,5.872,15.88
			c-2.42,3.606-6.354,6.86-11.81,9.766c-0.676,0.322-1.166,0.27-1.474-0.154c-0.31-0.426-0.185-0.887,0.373-1.387
			c1.29-1.23,2.669-2.697,4.136-4.396c1.466-1.703-0.426-5.764-5.675-12.184c-3.725-4.547-5.968-8.189-6.729-10.932
			c-0.763-2.74-0.623-5.027,0.418-6.861c1.041-1.832,2.705-3.422,4.992-4.771c2.287-1.349,4.633-2.903,7.037-4.662l1.716-1.274
			c0.293-0.207,0.381-0.484,0.264-0.836c-1.291-3.813-4.28-5.674-8.973-5.586c-4.193,0.114-7.616,2.586-10.271,7.41
			c-2.652,4.823-3.893,10.313-3.717,16.473c0.354,11.553,3.021,20.621,8.006,27.203c4.984,6.584,11.23,9.875,18.737,9.875
			c5.102,0,9.022-1.914,11.765-5.74s4.084-7.953,4.025-12.381c-0.061-3.666-1.226-7.199-3.497-10.6
			C302.67,549.763,299.512,548.062,295.465,548.062z"/>
		<path id="path232" fill="#EC1C24" d="M344.683,577.048c-1.495,1.145-3.139,2.396-4.927,3.762c-1.788,1.361-3.445,2.617-4.971,3.76
			c-0.526,0.41-0.945,0.586-1.253,0.527c-0.308-0.06-0.434-0.324-0.374-0.791c0-0.617-0.909-1.789-2.727-3.521
			c-4.78-4.485-7.082-10.321-6.906-17.506c0.176-6.156,3.035-11.36,8.577-15.612c1.7-1.291,3.291-2.654,4.771-4.093
			c1.479-1.436,2.793-3.182,3.938-5.233c0.468-0.908,1.114-0.938,1.935-0.086c4.443,5.043,8.888,8.02,13.328,8.928
			c1.406,0.264,1.553,0.822,0.439,1.672c-1.379,0.996-2.127,2.227-2.244,3.693v0.09l0.132,20.1c0,1.351,0.491,2.273,1.474,2.771
			c0.982,0.5,2.045,0.116,3.189-1.144c0.438-0.5,0.856-0.623,1.254-0.373c0.396,0.248,0.402,0.695,0.021,1.34
			c-1.055,1.584-2.073,3.14-3.057,4.662c-0.981,1.527-1.811,3.109-2.485,4.752l-0.044,0.043c-0.409,0.677-0.906,0.677-1.489,0
			c-0.321-0.352-0.701-0.586-1.14-0.702c-3.326-0.732-5.426-2.947-6.302-6.642c-0.059-0.178-0.205-0.354-0.438-0.528
			C345.122,576.888,344.888,576.929,344.683,577.048z M345.166,551.142c-1.818-0.5-3.943-1.906-6.378-4.223
			c-1.173-1.408-2.11-1.539-2.814-0.396c-3.107,4.633-4.325,9.75-3.65,15.35c0.938,8.007,3.753,12.947,8.445,14.824
			c0.027,0,0.059,0.014,0.088,0.043c1.202,0.381,2.653-0.336,4.354-2.153c0.117-0.177,0.178-0.339,0.178-0.484
			c-0.029-0.439-0.044-1.129-0.044-2.068l0.396-20.188C345.738,551.493,345.546,551.259,345.166,551.142z"/>
		<path id="path234" fill="#EC1C24" d="M364.958,524.179c-0.382-0.41-0.39-0.808-0.021-1.188c0.366-0.381,0.827-0.309,1.385,0.22
			c0.675,0.821,1.37,1.702,2.09,2.641c0.718,0.939,1.325,1.906,1.825,2.902c0.145,0.293,0.357,0.438,0.635,0.438
			c0.275,0,0.488-0.117,0.636-0.35c1.721-2.935,4.116-5.304,7.186-7.104c3.072-1.805,6.394-2.646,9.974-2.531
			c0.672,0.031,1.025,0.316,1.056,0.859c0.026,0.541-0.322,0.813-1.056,0.813c-1.877,0.118-2.084,0.998-0.616,2.639
			c0.731,0.617,1.459,1.395,2.178,2.332c0.717,0.938,1.326,1.906,1.826,2.901c0.146,0.294,0.356,0.439,0.637,0.439
			s0.492-0.117,0.639-0.35c1.73-2.935,4.136-5.304,7.213-7.104c3.078-1.805,6.407-2.646,9.985-2.531
			c0.674,0.031,1.025,0.316,1.055,0.859c0.027,0.541-0.323,0.813-1.055,0.813c-2.902,0-5.229,0.836-6.972,2.508
			c-1.744,1.672-2.617,4.721-2.617,9.147l-0.045,38.091c0,0.938,0.219,1.538,0.66,1.803l3.168,1.805
			c0.729,0.264,1.743-0.441,3.033-2.113c0.322-0.438,0.72-0.534,1.187-0.284c0.471,0.25,0.455,0.639-0.041,1.166
			c-3.081,3.432-5.44,6.803-7.081,10.116c-0.354,0.615-0.881,0.615-1.586,0c-1.438-1.85-2.918-3.307-4.441-4.377
			c-1.522-1.069-3.666-1.885-6.422-2.44c-0.469-0.06-0.711-0.271-0.727-0.64c-0.017-0.364,0.139-0.623,0.463-0.77
			c0.731-0.264,1.397-0.754,2-1.473c0.602-0.72,0.902-1.912,0.902-3.586l-0.046-29.556c0-4.223-0.452-7.551-1.36-9.983
			c-0.91-2.437-2.508-4.769-4.795-6.994c-1.173-0.91-2.302-1.086-3.386-0.529c-0.265,0.207-0.515,0.412-0.748,0.617
			c-1.73,1.672-2.597,4.721-2.597,9.147l-0.045,38.091c0,0.938,0.221,1.539,0.662,1.803l3.166,1.805
			c0.732,0.264,1.744-0.44,3.034-2.113c0.322-0.438,0.717-0.534,1.188-0.284c0.468,0.25,0.455,0.639-0.045,1.166
			c-3.077,3.432-5.437,6.803-7.079,10.116c-0.352,0.615-0.879,0.615-1.58,0c-1.432-1.85-2.903-3.307-4.422-4.377
			c-1.518-1.069-3.649-1.885-6.4-2.44c-0.471-0.06-0.712-0.271-0.727-0.64c-0.016-0.364,0.14-0.622,0.461-0.77
			c0.732-0.264,1.4-0.754,2.002-1.473c0.601-0.72,0.9-1.912,0.9-3.586l-0.043-29.556c0-4.223-0.455-7.551-1.364-9.983
			C367.875,527.858,366.601,525.819,364.958,524.179z"/>
		<path id="path236" fill="#EC1C24" d="M425.127,584.479c-0.059-0.703-0.434-1.229-1.121-1.582c-0.688-0.352-1.27-0.703-1.735-1.055
			c-3.373-2.289-5.756-5.08-7.148-8.381c-1.393-3.298-2.178-6.795-2.354-10.488c-0.353-8.357,1.906-14.721,6.772-19.09
			c1.73-1.554,3.724-2.822,5.982-3.806c2.258-0.981,4.574-1.78,6.949-2.396c0.731-0.146,1.274,0.219,1.627,1.1l6.334,14.867
			c0.293,0.789,0.188,1.289-0.308,1.494h-0.09l-18.033,6.992c-0.352,0.178-0.5,0.455-0.438,0.838
			c1.436,6.51,3.842,10.68,7.213,12.512c3.371,1.834,6.729,2.105,10.072,0.814c0.586-0.265,0.961-0.222,1.123,0.133
			c0.157,0.35,0.049,0.615-0.33,0.791c-2.377,1.201-4.642,2.434-6.797,3.695c-2.154,1.26-4.084,2.58-5.783,3.959
			c-0.267,0.174-0.654,0.231-1.166,0.174C425.384,584.995,425.127,584.804,425.127,584.479z M421.037,559.63
			c0.027,0.233,0.131,0.418,0.308,0.551c0.178,0.131,0.396,0.139,0.659,0.021l9.369-3.52c0.439-0.176,0.572-0.484,0.396-0.924
			l-5.365-13.15c-0.264-0.646-0.791-0.731-1.584-0.264c-1.699,0.996-2.857,3.27-3.475,6.817
			C420.73,552.71,420.625,556.198,421.037,559.63z"/>
		<path id="path238" fill="#EC1C24" d="M460.05,550.261l-0.044,21.332c0,0.938,0.234,1.541,0.705,1.805l3.166,1.848
			c0.675,0.41,1.699-0.309,3.078-2.155c0.295-0.384,0.66-0.461,1.101-0.242c0.438,0.221,0.438,0.594,0,1.123
			c-3.078,3.43-5.438,6.803-7.08,10.115c-0.5,0.674-1.043,0.674-1.633,0c-1.65-1.906-3.188-3.357-4.617-4.355
			c-1.431-0.996-3.525-1.815-6.287-2.463c-0.527-0.146-0.791-0.379-0.791-0.703c0-0.322,0.19-0.557,0.572-0.703
			c1.963-0.322,2.932-2.008,2.901-5.059v-18.605c0-2.989-0.557-4.821-1.672-5.496c-1.289-0.854-2.346-0.545-3.166,0.923
			c-0.324,0.614-0.688,0.762-1.1,0.438c-0.412-0.322-0.396-0.836,0.045-1.539c0.85-1.35,1.664-2.727,2.44-4.135
			c0.775-1.406,1.576-2.814,2.396-4.224c0.498-0.879,1.16-1.038,1.982-0.481c4.331,2.08,6.926,4.721,7.778,7.916
			c0.09,0.293,0.267,0.477,0.529,0.549c0.264,0.074,0.5-0.02,0.703-0.285l6.772-7.784c0.177-0.177,0.383-0.257,0.615-0.24
			c0.236,0.014,0.426,0.139,0.572,0.373l4.619,8.84c0.116,0.264,0.088,0.514-0.088,0.748l-5.279,6.334
			c-0.203,0.205-0.433,0.293-0.683,0.266c-0.247-0.031-0.416-0.162-0.504-0.397l-3.563-6.597c-0.117-0.178-0.301-0.287-0.549-0.33
			c-0.248-0.045-0.478,0.037-0.683,0.24l-2.065,2.508C460.111,549.938,460.05,550.085,460.05,550.261z"/>
		<path id="path240" fill="#EC1C24" d="M493.74,544.632c1.76-0.967,3.541-2.017,5.344-3.146c1.806-1.131,3.47-2.428,4.994-3.895
			c1.025-1.084,1.642-0.896,1.847,0.571c0.088,1.086,0.543,2.054,1.362,2.902c0.822,0.854,1.57,1.688,2.244,2.508
			c3.93,4.986,5.967,10.439,6.113,16.361c0.176,8.621-2.865,16.24-9.127,22.852c-6.261,6.611-11.972,11.662-17.131,15.152
			c-0.703,0.467-1.212,0.527-1.519,0.174c-0.309-0.35-0.227-0.717,0.242-1.098c4.135-3.666,8.313-7.668,12.535-12.008
			c4.222-4.34,6.129-11.218,5.719-20.629c-0.178-3.695-0.748-7.179-1.717-10.445c-0.969-3.271-2.697-5.99-5.191-8.16
			c-1.406-1.143-3.442-0.951-6.11,0.572c-0.205,0.146-0.31,0.365-0.31,0.658c0.029,5.659,0.066,10.434,0.109,14.317
			c0.045,3.885,0.08,7.793,0.108,11.722c0.091,2.698,1.058,3.682,2.904,2.946l1.98-1.539c0.495-0.381,0.938-0.409,1.315-0.088
			c0.383,0.322,0.354,0.689-0.086,1.101c-1.496,1.495-2.94,2.955-4.332,4.377c-1.395,1.422-2.516,2.909-3.365,4.465
			c-0.323,0.674-0.864,0.674-1.629,0c-1.405-1.613-2.469-2.744-3.188-3.387c-0.719-0.646-2.486-1.63-5.299-2.947
			c-0.588-0.205-0.873-0.472-0.857-0.791c0.014-0.324,0.211-0.545,0.594-0.662c1.875-0.644,2.799-2.58,2.771-5.805
			c0-3.345,0.037-6.724,0.11-10.14c0.072-3.414,0.064-6.75-0.022-10.006c-0.06-1.35-0.402-2.375-1.033-3.08
			c-0.631-0.703-1.24-1.317-1.824-1.846c-2.641-2.199-3.688-4.633-3.146-7.303c0.541-2.666,2.309-5.382,5.301-8.138
			c0.527-0.586,0.988-0.719,1.385-0.395c0.396,0.322,0.402,0.688,0.021,1.098c-1.318,1.351-1.906,2.662-1.76,3.938
			c0.146,1.275,1.202,2.207,3.168,2.793c2.286,0.703,3.87,1.598,4.75,2.684c0.881,1.084,1.438,2.33,1.672,3.738
			c0.028,0.233,0.153,0.418,0.373,0.551C493.28,544.741,493.506,544.75,493.74,544.632z"/>
	</g>
</g>
</svg>
