<?xml version="1.0" encoding="utf-8"?>
<!-- Generator: Adobe Illustrator 16.0.0, SVG Export Plug-In . SVG Version: 6.00 Build 0)  -->
<!DOCTYPE svg PUBLIC "-//W3C//DTD SVG 1.1//EN" "http://www.w3.org/Graphics/SVG/1.1/DTD/svg11.dtd">
<svg version="1.1"
	 id="svg2" xmlns:inkscape="http://www.inkscape.org/namespaces/inkscape" xmlns:rdf="http://www.w3.org/1999/02/22-rdf-syntax-ns#" xmlns:sodipodi="http://sodipodi.sourceforge.net/DTD/sodipodi-0.dtd" xmlns:dc="http://purl.org/dc/elements/1.1/" xmlns:svg="http://www.w3.org/2000/svg" xmlns:cc="http://creativecommons.org/ns#" sodipodi:docname="medexb2.svg" inkscape:version="0.91 r13725"
	 xmlns="http://www.w3.org/2000/svg" xmlns:xlink="http://www.w3.org/1999/xlink" x="0px" y="0px" width="500px" height="78.516px"
	 viewBox="135.075 0 500 78.516" enable-background="new 135.075 0 500 78.516" xml:space="preserve">
<sodipodi:namedview  id="namedview242" borderopacity="1" gridtolerance="10" inkscape:zoom="0.40364583" bordercolor="#666666" guidetolerance="10" inkscape:cy="138.35477" showgrid="false" pagecolor="#ffffff" inkscape:cx="384" objecttolerance="10" inkscape:current-layer="Layer_2" inkscape:window-maximized="0" inkscape:window-y="0" inkscape:window-x="0" inkscape:pageopacity="0" inkscape:pageshadow="2" inkscape:window-height="480" inkscape:window-width="640">
	</sodipodi:namedview>
<g id="Layer_1" display="none">
	<rect id="rect5" x="239.458" y="-35.005" display="inline" fill="none" width="279.067" height="58.139"/>
	
		<text id="text7" transform="matrix(1 0 0 1 244.2908 14.9827)" display="inline" fill="#EC1C24" font-family="'UnifrakturMaguntia'" font-size="72">Medieval</text>
	<rect id="rect9" x="239.458" y="72.747" display="inline" fill="none" width="279.066" height="58.139"/>
	
		<text id="text11" transform="matrix(1 0 0 1 325.5017 122.7346)" display="inline" fill="#EC1C24" font-family="'UnifrakturMaguntia'" font-size="72">Art</text>
	<rect id="rect13" x="216.783" y="180.499" display="inline" fill="none" width="324.416" height="58.139"/>
	
		<text id="text15" transform="matrix(1 0 0 1 222.1594 230.4866)" display="inline" fill="#EC1C24" font-family="'UnifrakturMaguntia'" font-size="72">EXhibition</text>
	<rect id="rect17" x="206.318" y="288.251" display="inline" fill="none" width="345.345" height="58.139"/>
	
		<text id="text19" transform="matrix(1 0 0 1 239.3328 338.2395)" display="inline" fill="#EC1C24" font-family="'UnifrakturMaguntia'" font-size="72">now on at</text>
	<rect id="rect21" x="239.458" y="396.004" display="inline" fill="none" width="279.066" height="58.139"/>
	
		<text id="text23" transform="matrix(1 0 0 1 323.0588 445.9915)" display="inline" fill="#EC1C24" font-family="'UnifrakturMaguntia'" font-size="72">The</text>
	<rect id="rect25" x="239.457" y="503.756" display="inline" fill="none" width="279.066" height="58.139"/>
	
		<text id="text27" transform="matrix(1 0 0 1 271.9934 553.7434)" display="inline" fill="#EC1C24" font-family="'UnifrakturMaguntia'" font-size="72">British</text>
	<rect id="rect29" x="239.457" y="611.508" display="inline" fill="none" width="279.067" height="58.139"/>
	
		<text id="text31" transform="matrix(1 0 0 1 272.7664 661.4954)" display="inline" fill="#EC1C24" font-family="'UnifrakturMaguntia'" font-size="72">Gallery</text>
</g>
<g id="Layer_2">
	<rect id="rect34" x="1.075" y="-207.819" display="none" fill="#00ADEE" width="768.001" height="1024"/>
	<g id="g158">
		<path id="path160" fill="#EC1C24" d="M366.491,17.369c-0.674,0-1.012-0.322-1.012-0.969c0-0.381,0.221-0.688,0.66-0.924
			l18.385-8.841c0.763-0.292,1.253-0.176,1.474,0.352c0.22,0.528,0.008,1.013-0.639,1.452c-2.022,1.583-3.327,3.725-3.913,6.421
			c-0.588,2.699-0.881,5.879-0.881,9.544v30.438c0,6.187,2.332,8.166,6.993,5.938c0.793-0.439,1.319-0.389,1.584,0.153
			c0.264,0.543,0.146,1.005-0.353,1.386l-9.191,8.357c-0.586,0.411-1.261,0.512-2.023,0.308c-4.397-1.26-6.979-4.529-7.74-9.808
			c-0.06-0.264-0.221-0.455-0.483-0.572c-0.265-0.088-0.499-0.028-0.704,0.176c-0.703,0.703-1.444,1.495-2.221,2.375
			c-0.778,0.88-2.713,2.596-5.807,5.146s-5.879,3.541-8.355,2.969c-2.479-0.572-4.465-1.474-5.96-2.705
			c-2.348-1.905-4.502-3.767-6.467-5.586c-1.965-1.817-4.397-2.359-7.302-1.627c-0.293,0.087-0.763,0.249-1.407,0.483
			s-1.1,0.073-1.362-0.483c-0.265-0.557,0.176-1.173,1.318-1.848c2.287-1.524,4.53-3.115,6.729-4.772
			c2.199-1.655,4.251-3.497,6.157-5.52c2.58-2.728,4.641-5.966,6.181-9.72c1.539-3.754,1.928-7.813,1.165-12.184
			c-0.733-4.192-2.815-7.8-6.245-10.82c-3.432-3.02-7.521-4.178-12.271-3.475c-3.079,0.469-5.339,1.737-6.773,3.805
			c-1.438,2.067-2.259,4.04-2.463,5.916c-0.324,2.64,0.278,4.7,1.803,6.181s3.299,2.369,5.322,2.661
			c4.721,0.851,7.888,2.865,9.5,6.048c1.612,3.182,0.425,6.561-3.563,10.138c-0.527,0.44-0.997,0.506-1.406,0.198
			c-0.411-0.309-0.455-0.755-0.133-1.342c1.261-2.609,0.292-4.369-2.902-5.278c-3.432-0.967-6.306-2.639-8.62-5.014
			c-2.317-2.375-3.477-5.587-3.477-9.633c0-5.63,2.215-10.475,6.643-14.537c4.427-4.061,9.484-6.105,15.175-6.136
			c6.626,0,11.676,1.979,15.152,5.938c3.475,3.958,5.239,8.444,5.3,13.459c0.059,5.835-1.929,10.967-5.96,15.395
			c-4.031,4.429-7.938,8.138-11.722,11.127c-0.235,0.147-0.323,0.367-0.265,0.66c0.028,0.264,0.176,0.44,0.439,0.527
			c2.022,0.851,3.842,1.87,5.454,3.057c1.611,1.188,2.976,2.354,4.091,3.497c1.816,1.906,3.54,2.998,5.167,3.277
			c1.629,0.278,3.717-0.506,6.269-2.354c0.645-0.468,1.246-1.004,1.805-1.604c0.557-0.602,1.112-1.254,1.671-1.958
			c0.115-0.146,0.177-0.309,0.177-0.484c-0.117-5.63-0.162-11.282-0.133-16.956c0.027-5.674,0.044-11.354,0.044-17.043
			c0-1.114-0.132-2.258-0.396-3.431C368.737,17.956,367.901,17.369,366.491,17.369z"/>
		<path id="path162" fill="#EC1C24" d="M408.671,37.206l-0.043,21.332c0,0.938,0.232,1.54,0.703,1.804l3.166,1.847
			c0.676,0.411,1.701-0.308,3.08-2.154c0.293-0.381,0.66-0.463,1.101-0.242c0.438,0.22,0.438,0.593,0,1.122
			c-3.078,3.43-5.439,6.802-7.082,10.115c-0.498,0.675-1.043,0.675-1.632,0c-1.649-1.905-3.189-3.356-4.617-4.354
			c-1.431-0.997-3.525-1.818-6.285-2.463c-0.529-0.147-0.793-0.381-0.793-0.704s0.19-0.557,0.571-0.704
			c1.966-0.322,2.933-2.008,2.902-5.058V39.141c0-2.991-0.557-4.823-1.67-5.499c-1.293-0.85-2.348-0.542-3.168,0.924
			c-0.324,0.616-0.689,0.764-1.1,0.44c-0.411-0.323-0.396-0.836,0.045-1.54c0.85-1.348,1.662-2.728,2.438-4.134
			c0.777-1.407,1.576-2.815,2.398-4.224c0.498-0.879,1.158-1.04,1.983-0.482c4.33,2.083,6.926,4.721,7.778,7.917
			c0.09,0.293,0.264,0.477,0.529,0.549c0.264,0.074,0.498-0.021,0.703-0.286l6.772-7.785c0.176-0.176,0.383-0.257,0.617-0.242
			c0.232,0.016,0.424,0.141,0.57,0.374l4.619,8.842c0.116,0.264,0.088,0.513-0.089,0.748l-5.278,6.333
			c-0.203,0.205-0.433,0.293-0.681,0.264c-0.25-0.028-0.418-0.16-0.508-0.396l-3.563-6.598c-0.115-0.176-0.301-0.286-0.549-0.33
			c-0.25-0.044-0.478,0.037-0.685,0.242l-2.063,2.507C408.731,36.883,408.671,37.03,408.671,37.206z"/>
		<path id="path164" fill="#EC1C24" d="M440.911,34.347l-0.043,24.631c0,0.909,0.219,1.511,0.658,1.804l3.168,1.804
			c0.615,0.526,1.641-0.176,3.078-2.111c0.266-0.38,0.623-0.439,1.078-0.176s0.477,0.616,0.065,1.056
			c-3.139,3.431-5.5,6.802-7.082,10.116c-0.498,0.616-1.039,0.616-1.627,0c-1.643-1.935-3.168-3.387-4.573-4.354
			c-1.408-0.968-3.505-1.787-6.291-2.463c-0.468-0.088-0.72-0.308-0.746-0.659c-0.029-0.353,0.146-0.602,0.526-0.748
			c1.963-0.47,2.933-2.155,2.902-5.059l-0.045-23.795c0.031-0.528-0.188-0.792-0.658-0.792h-5.191c-0.409,0-0.674-0.161-0.79-0.482
			c-0.117-0.322,0.016-0.602,0.396-0.837c3.518-2.491,7.104-5.497,10.754-9.017c3.65-3.519,6.971-6.861,9.963-10.028
			c0.381-0.41,0.754-0.49,1.121-0.241c0.365,0.249,0.373,0.608,0.021,1.077c-1.349,1.672-2.705,3.843-4.068,6.51
			c-1.363,2.668-2.191,5.103-2.484,7.301c-0.059,0.293-0.045,0.514,0.043,0.66c0.177,0.176,0.384,0.264,0.615,0.264h7.611
			c0.203,0,0.379,0.074,0.524,0.22c0.148,0.206,0.224,0.396,0.224,0.572l-0.179,3.299c-0.059,0.47-0.307,0.703-0.747,0.703h-7.609
			C441.116,33.599,440.911,33.849,440.911,34.347z"/>
	</g>
</g>
</svg>
