<?xml version="1.0" encoding="UTF-8"?>
<svg width="197px" height="23px" viewBox="0 0 197 23" version="1.1" xmlns="http://www.w3.org/2000/svg" xmlns:xlink="http://www.w3.org/1999/xlink">
    <!-- Generator: Sketch 52.6 (67491) - http://www.bohemiancoding.com/sketch -->
    <title>ZEZE HOUSE</title>
    <desc>Created with Sketch.</desc>
    <g id="Page-1" stroke="none" stroke-width="1" fill="none" fill-rule="evenodd">
        <path d="M9.632,17.3957551 L18.48,17.3957551 L18.48,22.0437551 L0.42,22.0437551 L10.416,5.5797551 L2.1,5.5797551 L2.1,0.931755102 L19.572,0.931755102 L9.632,17.3957551 Z M35.3639999,5.5797551 L28.8399999,5.5797551 L28.8399999,9.1077551 L34.9999999,9.1077551 L34.9999999,13.7557551 L28.8399999,13.7557551 L28.8399999,17.3957551 L35.3639999,17.3957551 L35.3639999,22.0437551 L23.3519999,22.0437551 L23.3519999,0.931755102 L35.3639999,0.931755102 L35.3639999,5.5797551 Z M47.8799998,17.3957551 L56.7279998,17.3957551 L56.7279998,22.0437551 L38.6679998,22.0437551 L48.6639998,5.5797551 L40.3479998,5.5797551 L40.3479998,0.931755102 L57.8199998,0.931755102 L47.8799998,17.3957551 Z M73.6119996,5.5797551 L67.0879996,5.5797551 L67.0879996,9.1077551 L73.2479996,9.1077551 L73.2479996,13.7557551 L67.0879996,13.7557551 L67.0879996,17.3957551 L73.6119996,17.3957551 L73.6119996,22.0437551 L61.5999996,22.0437551 L61.5999996,0.931755102 L73.6119996,0.931755102 L73.6119996,5.5797551 Z M94.8639994,9.0797551 L102.787999,9.0797551 L102.787999,0.931755102 L108.275999,0.931755102 L108.275999,22.0437551 L102.787999,22.0437551 L102.787999,13.3357551 L94.8639994,13.3357551 L94.8639994,22.0437551 L89.3759994,22.0437551 L89.3759994,0.931755102 L94.8639994,0.931755102 L94.8639994,9.0797551 Z M118.635999,11.4877551 C118.635999,12.3277593 118.794664,13.1024182 119.111999,13.8117551 C119.429334,14.521092 119.858663,15.1370858 120.399999,15.6597551 C120.941335,16.1824244 121.571329,16.5884203 122.289999,16.8777551 C123.00867,17.1670899 123.769329,17.3117551 124.571999,17.3117551 C125.37467,17.3117551 126.135329,17.1670899 126.853999,16.8777551 C127.57267,16.5884203 128.20733,16.1824244 128.757999,15.6597551 C129.308669,15.1370858 129.742664,14.521092 130.059999,13.8117551 C130.377334,13.1024182 130.535999,12.3277593 130.535999,11.4877551 C130.535999,10.6477509 130.377334,9.87309198 130.059999,9.1637551 C129.742664,8.45441822 129.308669,7.83842438 128.757999,7.3157551 C128.20733,6.79308582 127.57267,6.38708988 126.853999,6.0977551 C126.135329,5.80842032 125.37467,5.6637551 124.571999,5.6637551 C123.769329,5.6637551 123.00867,5.80842032 122.289999,6.0977551 C121.571329,6.38708988 120.941335,6.79308582 120.399999,7.3157551 C119.858663,7.83842438 119.429334,8.45441822 119.111999,9.1637551 C118.794664,9.87309198 118.635999,10.6477509 118.635999,11.4877551 Z M112.895999,11.4877551 C112.895999,9.91974726 113.18533,8.4590952 113.763999,7.1057551 C114.342669,5.752415 115.145327,4.57176014 116.171999,3.5637551 C117.198671,2.55575006 118.425992,1.76709128 119.853999,1.1977551 C121.282006,0.628418922 122.854657,0.343755102 124.571999,0.343755102 C126.270674,0.343755102 127.838659,0.628418922 129.275999,1.1977551 C130.71334,1.76709128 131.949994,2.55575006 132.985999,3.5637551 C134.022004,4.57176014 134.82933,5.752415 135.407999,7.1057551 C135.986669,8.4590952 136.275999,9.91974726 136.275999,11.4877551 C136.275999,13.0557629 135.986669,14.516415 135.407999,15.8697551 C134.82933,17.2230952 134.022004,18.4037501 132.985999,19.4117551 C131.949994,20.4197601 130.71334,21.2084189 129.275999,21.7777551 C127.838659,22.3470913 126.270674,22.6317551 124.571999,22.6317551 C122.854657,22.6317551 121.282006,22.3470913 119.853999,21.7777551 C118.425992,21.2084189 117.198671,20.4197601 116.171999,19.4117551 C115.145327,18.4037501 114.342669,17.2230952 113.763999,15.8697551 C113.18533,14.516415 112.895999,13.0557629 112.895999,11.4877551 Z M146.383999,0.931755102 L146.383999,12.4117551 C146.383999,13.0277582 146.407332,13.6577519 146.453999,14.3017551 C146.500666,14.9457583 146.640665,15.5290858 146.873999,16.0517551 C147.107334,16.5744244 147.475997,16.9990868 147.979999,17.3257551 C148.484002,17.6524234 149.193328,17.8157551 150.107999,17.8157551 C151.02267,17.8157551 151.72733,17.6524234 152.221999,17.3257551 C152.716668,16.9990868 153.085331,16.5744244 153.327999,16.0517551 C153.570667,15.5290858 153.715332,14.9457583 153.761999,14.3017551 C153.808666,13.6577519 153.831999,13.0277582 153.831999,12.4117551 L153.831999,0.931755102 L159.291999,0.931755102 L159.291999,13.1677551 C159.291999,16.4531049 158.540673,18.8517475 157.037999,20.3637551 C155.535325,21.8757627 153.225348,22.6317551 150.107999,22.6317551 C146.99065,22.6317551 144.676007,21.8757627 143.163999,20.3637551 C141.651992,18.8517475 140.895999,16.4531049 140.895999,13.1677551 L140.895999,0.931755102 L146.383999,0.931755102 Z M176.455999,6.3357551 C175.858663,5.85041934 175.261335,5.4910896 174.663999,5.2577551 C174.066663,5.0244206 173.488002,4.9077551 172.927999,4.9077551 C172.218662,4.9077551 171.640001,5.07575342 171.191999,5.4117551 C170.743997,5.74775678 170.519999,6.18641906 170.519999,6.7277551 C170.519999,7.1010903 170.631998,7.40908722 170.855999,7.6517551 C171.08,7.89442298 171.373997,8.10442088 171.737999,8.2817551 C172.102001,8.45908932 172.512663,8.61308778 172.969999,8.7437551 C173.427335,8.87442242 173.879997,9.01442102 174.327999,9.1637551 C176.120008,9.76109142 177.431328,10.5590834 178.261999,11.5577551 C179.09267,12.5564268 179.507999,13.8584137 179.507999,15.4637551 C179.507999,16.5464272 179.326001,17.5264174 178.961999,18.4037551 C178.597997,19.2810928 178.066003,20.0324186 177.365999,20.6577551 C176.665996,21.2830916 175.807337,21.76842 174.789999,22.1137551 C173.772661,22.4590902 172.620006,22.6317551 171.331999,22.6317551 C168.662652,22.6317551 166.189344,21.8384297 163.911999,20.2517551 L166.263999,15.8277551 C167.085337,16.5557587 167.897328,17.0970867 168.699999,17.4517551 C169.50267,17.8064235 170.295995,17.9837551 171.079999,17.9837551 C171.976004,17.9837551 172.64333,17.7784238 173.081999,17.3677551 C173.520668,16.9570864 173.739999,16.4904244 173.739999,15.9677551 C173.739999,15.6504202 173.684,15.3750896 173.571999,15.1417551 C173.459999,14.9084206 173.273334,14.6937561 173.011999,14.4977551 C172.750664,14.3017541 172.410001,14.1197559 171.989999,13.9517551 C171.569997,13.7837543 171.061335,13.5970895 170.463999,13.3917551 C169.754662,13.167754 169.059336,12.9204231 168.377999,12.6497551 C167.696662,12.3790871 167.090002,12.0197573 166.557999,11.5717551 C166.025996,11.1237529 165.596667,10.5590918 165.269999,9.8777551 C164.943331,9.19641836 164.779999,8.33309366 164.779999,7.2877551 C164.779999,6.24241654 164.952664,5.29509268 165.297999,4.4457551 C165.643334,3.59641752 166.128663,2.8684248 166.753999,2.2617551 C167.379336,1.6550854 168.144661,1.18375678 169.049999,0.847755102 C169.955337,0.511753422 170.967993,0.343755102 172.087999,0.343755102 C173.133338,0.343755102 174.225327,0.488420322 175.363999,0.777755102 C176.502671,1.06708988 177.594661,1.4917523 178.639999,2.0517551 L176.455999,6.3357551 Z M196.111999,5.5797551 L189.587999,5.5797551 L189.587999,9.1077551 L195.747999,9.1077551 L195.747999,13.7557551 L189.587999,13.7557551 L189.587999,17.3957551 L196.111999,17.3957551 L196.111999,22.0437551 L184.099999,22.0437551 L184.099999,0.931755102 L196.111999,0.931755102 L196.111999,5.5797551 Z" id="ZEZE-HOUSE" fill="#000000"></path>
    </g>
</svg>