<svg id="adobe-xd" xmlns="http://www.w3.org/2000/svg" width="76.901" height="74.978" viewBox="0 0 76.901 74.978">
  <path id="Path_3" data-name="Path 3" d="M10,10H80.492V78.57H10Z" transform="translate(-6.796 -6.796)" fill="#2e001e"/>
  <path id="Path_4" data-name="Path 4" d="M0,0V74.978H76.9V0ZM3.2,3.2H73.7v68.57H3.2Z" fill="#ff2bc2"/>
  <path id="Path_5" data-name="Path 5" d="M86.57,69.214a4.4,4.4,0,0,0-1.858-.32c-4.037,0-6.729,3.108-6.729,8.267,0,5.9,2.756,8.267,6.344,8.267a6.045,6.045,0,0,0,2.211-.352V69.214Zm-14.355,8.2c0-7.466,4.806-13.3,12.689-13.3a14.208,14.208,0,0,1,1.666.064V55.852a.321.321,0,0,1,.32-.32H92.05c.256,0,.32.1.32.256V85.075a22.823,22.823,0,0,0,.16,3.14c0,.224,0,.256-.192.352a19.086,19.086,0,0,1-8.2,1.858c-6.953,0-11.92-4.294-11.92-13.009ZM61.289,72.226l8.972,17.4c.16.256.064.513-.192.513H64.494a.629.629,0,0,1-.673-.417q-3.076-6.344-6.28-13.169h-.064c-1.923,4.294-4.037,8.972-6.088,13.2a.615.615,0,0,1-.577.352H45.493c-.32,0-.352-.256-.192-.449L54.08,72.771l-8.491-16.79a.284.284,0,0,1,.224-.481h5.511c.32,0,.481.064.577.352,2.019,4.262,4.069,8.459,5.992,12.753h.064c1.858-4.23,3.909-8.491,5.864-12.689.16-.256.256-.417.577-.417h5.159c.256,0,.352.192.192.481Z" transform="translate(-30.721 -37.717)" fill="#ff2bc2"/>
</svg>
