<svg id="figma-1" xmlns="http://www.w3.org/2000/svg" width="49.986" height="74.978" viewBox="0 0 49.986 74.978">
  <path id="path0_fill" d="M12.5,224.993a12.5,12.5,0,0,0,12.5-12.5V200H12.5a12.5,12.5,0,1,0,0,24.993Z" transform="translate(0 -150.015)" fill="#0acf83"/>
  <path id="path1_fill" d="M0,112.5A12.5,12.5,0,0,1,12.5,100h12.5v24.993H12.5A12.5,12.5,0,0,1,0,112.5Z" transform="translate(0 -75.007)" fill="#a259ff"/>
  <path id="path1_fill_1_" d="M0,12.5A12.5,12.5,0,0,1,12.5,0h12.5V24.993H12.5A12.5,12.5,0,0,1,0,12.5Z" fill="#f24e1e"/>
  <path id="path2_fill" d="M100,0h12.5a12.5,12.5,0,1,1,0,24.993H100Z" transform="translate(-75.007)" fill="#ff7262"/>
  <path id="path3_fill" d="M124.993,112.5A12.5,12.5,0,1,1,112.5,100,12.5,12.5,0,0,1,124.993,112.5Z" transform="translate(-75.007 -75.007)" fill="#1abcfe"/>
</svg>
