<?xml version="1.0" encoding="utf-8"?>
<!-- Generator: Adobe Illustrator 16.0.0, SVG Export Plug-In . SVG Version: 6.00 Build 0)  -->
<!DOCTYPE svg PUBLIC "-//W3C//DTD SVG 1.1//EN" "http://www.w3.org/Graphics/SVG/1.1/DTD/svg11.dtd">
<svg version="1.1" id="Layer_1" xmlns="http://www.w3.org/2000/svg" xmlns:xlink="http://www.w3.org/1999/xlink" x="0px" y="0px"
	 width="200px" height="200px" viewBox="0 0 200 200" enable-background="new 0 0 200 200" xml:space="preserve">
<polygon fill="#00B0F9" points="100.574,49.114 121.314,1.417 120.861,53.425 159.208,18.289 137.641,65.615 186.963,49.114 
	148.012,83.577 199.781,88.563 150.178,104.204 195.445,129.814 143.77,123.928 174.706,165.736 129.893,139.342 141.148,190.118 
	110.945,147.775 100.574,198.742 90.206,147.775 60.002,190.118 71.259,139.342 26.445,165.736 57.381,123.928 5.705,129.814 
	50.973,104.204 1.369,88.563 53.141,83.577 14.187,49.114 63.51,65.615 41.942,18.289 80.289,53.425 79.836,1.417 "/>
<g>
	<path fill="#FFCEED" d="M80.07,74.104c0.076,0.63,0.238,1.079,0.488,1.344c0.441,0.473,1.26,0.709,2.451,0.709
		c0.699,0,1.258-0.104,1.67-0.312c0.412-0.207,0.619-0.519,0.619-0.933c0-0.398-0.168-0.701-0.5-0.909s-1.568-0.564-3.711-1.07
		c-1.541-0.382-2.627-0.859-3.258-1.431c-0.631-0.564-0.945-1.377-0.945-2.439c0-1.253,0.492-2.33,1.479-3.23
		c0.984-0.9,2.371-1.35,4.158-1.35c1.697,0,3.08,0.338,4.146,1.014c1.07,0.676,1.684,1.844,1.842,3.503h-3.547
		c-0.051-0.456-0.18-0.817-0.389-1.083c-0.391-0.481-1.055-0.722-1.996-0.722c-0.773,0-1.324,0.121-1.654,0.361
		c-0.328,0.24-0.492,0.522-0.492,0.846c0,0.406,0.174,0.701,0.525,0.884c0.348,0.19,1.582,0.519,3.703,0.983
		c1.412,0.332,2.473,0.834,3.178,1.506c0.697,0.681,1.045,1.531,1.045,2.552c0,1.344-0.502,2.441-1.504,3.292
		c-1.002,0.85-2.549,1.275-4.645,1.275c-2.137,0-3.715-0.45-4.732-1.35c-1.02-0.9-1.527-2.047-1.527-3.441L80.07,74.104
		L80.07,74.104z"/>
	<path fill="#FFCEED" d="M96.869,70.184c0.66-0.083,1.133-0.187,1.418-0.311c0.51-0.216,0.764-0.552,0.764-1.008
		c0-0.556-0.195-0.94-0.586-1.151c-0.391-0.211-0.967-0.317-1.723-0.317c-0.85,0-1.451,0.208-1.805,0.623
		c-0.252,0.307-0.42,0.722-0.504,1.245h-3.422c0.074-1.187,0.408-2.162,1-2.925c0.941-1.195,2.557-1.792,4.85-1.792
		c1.492,0,2.816,0.294,3.975,0.884c1.158,0.589,1.738,1.701,1.738,3.335v6.223c0,0.431,0.008,0.954,0.023,1.568
		c0.024,0.465,0.096,0.78,0.213,0.946c0.114,0.166,0.289,0.303,0.521,0.411v0.522h-3.857c-0.107-0.274-0.184-0.531-0.225-0.771
		s-0.074-0.515-0.1-0.821c-0.492,0.531-1.061,0.983-1.703,1.356c-0.768,0.44-1.635,0.66-2.604,0.66
		c-1.236,0-2.254-0.351-3.061-1.052c-0.805-0.701-1.207-1.695-1.207-2.981c0-1.667,0.646-2.875,1.941-3.622
		c0.711-0.407,1.756-0.697,3.137-0.871L96.869,70.184z M99.037,71.839c-0.227,0.141-0.455,0.255-0.688,0.342
		c-0.23,0.087-0.549,0.168-0.951,0.243l-0.807,0.149c-0.758,0.133-1.303,0.294-1.631,0.485c-0.559,0.324-0.838,0.826-0.838,1.506
		c0,0.606,0.17,1.043,0.512,1.313c0.34,0.27,0.756,0.405,1.244,0.405c0.775,0,1.488-0.224,2.143-0.672
		c0.652-0.448,0.99-1.265,1.016-2.452V71.839z"/>
	<path fill="#FFCEED" d="M109.295,78.435h-3.549V60.09h3.549V78.435z"/>
	<path fill="#FFCEED" d="M121.594,65.144c0.947,0.424,1.729,1.093,2.344,2.007c0.558,0.806,0.916,1.741,1.082,2.805
		c0.097,0.623,0.133,1.521,0.117,2.692h-9.881c0.055,1.36,0.527,2.315,1.418,2.862c0.543,0.34,1.193,0.51,1.957,0.51
		c0.807,0,1.463-0.208,1.969-0.622c0.275-0.224,0.519-0.535,0.73-0.934h3.621c-0.096,0.805-0.533,1.622-1.314,2.452
		c-1.217,1.319-2.918,1.979-5.104,1.979c-1.806,0-3.396-0.556-4.777-1.669c-1.381-1.113-2.069-2.923-2.069-5.431
		c0-2.35,0.623-4.152,1.869-5.406c1.245-1.254,2.862-1.881,4.85-1.881C119.584,64.508,120.648,64.72,121.594,65.144z
		 M116.287,68.208c-0.502,0.517-0.816,1.217-0.943,2.1h6.109c-0.064-0.942-0.379-1.656-0.945-2.144
		c-0.564-0.488-1.266-0.731-2.104-0.731C117.494,67.433,116.789,67.691,116.287,68.208z"/>
	<path fill="#FFCEED" d="M87.582,96.234c0.887,0.734,1.332,1.952,1.332,3.653v9.134h-3.635v-8.25c0-0.714-0.094-1.262-0.283-1.644
		c-0.348-0.697-1.006-1.045-1.979-1.045c-1.193,0-2.014,0.51-2.457,1.531c-0.23,0.54-0.348,1.228-0.348,2.065v7.344h-3.547V95.481
		h3.436v1.979c0.455-0.697,0.885-1.199,1.289-1.506c0.727-0.547,1.648-0.821,2.764-0.821C85.551,95.133,86.693,95.5,87.582,96.234z"
		/>
	<path fill="#FFCEED" d="M103.525,107.363c-1.146,1.412-2.885,2.119-5.215,2.119c-2.332,0-4.07-0.707-5.215-2.119
		c-1.146-1.414-1.719-3.115-1.719-5.105c0-1.956,0.572-3.651,1.719-5.085c1.145-1.435,2.883-2.151,5.215-2.151
		c2.331,0,4.068,0.717,5.215,2.151c1.145,1.434,1.717,3.129,1.717,5.085C105.242,104.248,104.67,105.949,103.525,107.363z
		 M100.688,105.402c0.556-0.737,0.834-1.785,0.834-3.146c0-1.358-0.278-2.405-0.834-3.138c-0.557-0.733-1.354-1.1-2.391-1.1
		s-1.834,0.367-2.395,1.1c-0.561,0.733-0.842,1.779-0.842,3.138c0,1.359,0.281,2.407,0.842,3.146s1.357,1.104,2.395,1.104
		S100.131,106.141,100.688,105.402z"/>
	<path fill="#FFCEED" d="M114.178,95.457h3.598l2.066,9.77l2.115-9.77h3.697l-3.934,13.566h-3.646l-2.129-9.882l-2.152,9.882h-3.684
		l-3.81-13.566h3.81l2.115,9.732L114.178,95.457z"/>
	<path fill="#FFCEED" d="M97.869,137.949c-1.145,1.414-2.883,2.121-5.215,2.121s-4.07-0.707-5.215-2.121
		c-1.145-1.413-1.719-3.114-1.719-5.104c0-1.957,0.574-3.652,1.719-5.087c1.145-1.436,2.883-2.151,5.215-2.151
		s4.07,0.717,5.215,2.151s1.717,3.13,1.717,5.087C99.586,134.835,99.014,136.536,97.869,137.949z M95.031,135.989
		c0.557-0.737,0.834-1.785,0.834-3.144c0-1.359-0.277-2.406-0.834-3.14c-0.557-0.733-1.354-1.101-2.391-1.101
		c-1.037,0-1.836,0.367-2.396,1.101c-0.559,0.731-0.838,1.778-0.838,3.14c0,1.357,0.279,2.405,0.838,3.144
		c0.561,0.737,1.359,1.106,2.396,1.106C93.677,137.096,94.475,136.727,95.031,135.989z"/>
	<path fill="#FFCEED" d="M113.064,126.82c0.889,0.734,1.332,1.953,1.332,3.654v9.135h-3.633v-8.252c0-0.713-0.097-1.262-0.285-1.644
		c-0.347-0.696-1.006-1.045-1.978-1.045c-1.194,0-2.015,0.511-2.459,1.53c-0.229,0.539-0.347,1.228-0.347,2.064v7.344h-3.547
		v-13.541h3.437v1.979c0.453-0.696,0.883-1.198,1.289-1.506c0.728-0.547,1.647-0.821,2.763-0.821
		C111.033,125.721,112.176,126.087,113.064,126.82z"/>
</g>
</svg>
