<?xml version="1.0" encoding="utf-8"?>
<!-- Generator: Adobe Illustrator 16.0.0, SVG Export Plug-In . SVG Version: 6.00 Build 0)  -->
<!DOCTYPE svg PUBLIC "-//W3C//DTD SVG 1.1//EN" "http://www.w3.org/Graphics/SVG/1.1/DTD/svg11.dtd">
<svg version="1.1" id="Layer_1" xmlns="http://www.w3.org/2000/svg" xmlns:xlink="http://www.w3.org/1999/xlink" x="0px" y="0px"
	 width="200px" height="200px" viewBox="0 0 200 200" enable-background="new 0 0 200 200" xml:space="preserve">
<g>
	<polygon fill="#00B0F9" points="100.287,1.619 114.656,27.585 137.869,9.095 141.207,38.583 169.729,30.384 161.527,58.904 
		191.016,62.242 172.525,85.455 198.492,99.824 172.525,114.191 191.016,137.404 161.527,140.744 169.729,169.266 141.207,161.064 
		137.869,190.555 114.656,172.062 100.287,198.029 85.918,172.062 62.706,190.555 59.368,161.064 30.846,169.266 39.046,140.744 
		9.558,137.404 28.048,114.191 2.083,99.824 28.048,85.455 9.558,62.242 39.046,58.904 30.846,30.384 59.368,38.583 62.706,9.095 
		85.918,27.585 	"/>
	<path fill="#00B0F9" d="M100.287,199.038L85.77,172.805l-23.451,18.682l-3.372-29.793l-28.814,8.287l8.284-28.814l-29.792-3.373
		l18.68-23.451L1.073,99.824l26.233-14.518L8.625,61.855l29.792-3.372l-8.284-28.814l28.814,8.285l3.372-29.792L85.77,26.843
		L100.287,0.61l14.518,26.232l23.45-18.681l3.372,29.792l28.814-8.285l-8.284,28.814l29.792,3.372l-18.682,23.451l26.233,14.518
		l-26.233,14.517l18.682,23.451l-29.792,3.373l8.284,28.814l-28.814-8.287l-3.372,29.793l-23.45-18.682L100.287,199.038z
		 M86.065,171.318l14.222,25.701l14.222-25.701l22.974,18.303l3.305-29.186l28.229,8.114L160.9,140.32l29.186-3.303l-18.301-22.975
		l25.699-14.221L171.785,85.6l18.301-22.974L160.9,59.323l8.115-28.229l-28.229,8.114l-3.305-29.185l-22.974,18.301L100.287,2.629
		L86.065,28.328L63.092,10.027l-3.304,29.185L31.56,31.098l8.116,28.229L10.49,62.63l18.3,22.974L3.092,99.824l25.699,14.221
		l-18.3,22.975l29.186,3.304l-8.116,28.229l28.228-8.114l3.304,29.186L86.065,171.318z"/>
</g>
<g>
	<path fill="#FFCEED" d="M89.119,64.224c0.81,0.669,1.214,1.778,1.214,3.327v8.321h-3.311v-7.516c0-0.651-0.086-1.149-0.259-1.497
		c-0.315-0.635-0.915-0.952-1.801-0.952c-1.088,0-1.834,0.465-2.239,1.395c-0.21,0.491-0.315,1.118-0.315,1.882v6.688h-3.231V63.538
		h3.13v1.803c0.414-0.636,0.805-1.093,1.174-1.373c0.662-0.498,1.502-0.747,2.518-0.747C87.27,63.221,88.311,63.556,89.119,64.224z"
		/>
	<path fill="#FFCEED" d="M101.391,63.766c0.861,0.386,1.573,0.995,2.135,1.827c0.507,0.735,0.834,1.587,0.984,2.556
		c0.088,0.568,0.123,1.386,0.106,2.452h-9c0.05,1.239,0.48,2.108,1.292,2.607c0.494,0.311,1.088,0.465,1.781,0.465
		c0.737,0,1.335-0.188,1.795-0.566c0.25-0.205,0.473-0.488,0.665-0.851h3.3c-0.089,0.733-0.486,1.478-1.198,2.233
		c-1.105,1.202-2.656,1.803-4.649,1.803c-1.645,0-3.096-0.507-4.353-1.521s-1.886-2.662-1.886-4.946
		c0-2.142,0.567-3.783,1.703-4.925c1.134-1.143,2.607-1.714,4.418-1.714C99.56,63.187,100.527,63.379,101.391,63.766z
		 M96.557,66.558c-0.457,0.47-0.744,1.107-0.861,1.911h5.566c-0.059-0.857-0.345-1.508-0.86-1.952
		c-0.515-0.444-1.153-0.666-1.916-0.666C97.655,65.851,97.013,66.086,96.557,66.558z"/>
	<path fill="#FFCEED" d="M112.078,63.516h3.275l1.883,8.899l1.928-8.899h3.365l-3.581,12.356h-3.322l-1.938-9.001l-1.961,9.001
		h-3.354l-3.47-12.356h3.47l1.927,8.865L112.078,63.516z"/>
	<path fill="#FFCEED" d="M52.802,89.904h-3.276v-2.982h3.276V89.904z M49.525,91.378h3.276v12.356h-3.276V91.378z"/>
	<path fill="#FFCEED" d="M71.35,91.423c0.528,0.212,1.009,0.582,1.439,1.111c0.348,0.431,0.582,0.96,0.703,1.587
		c0.075,0.416,0.113,1.024,0.113,1.826l-0.022,7.788h-3.311v-7.867c0-0.469-0.076-0.854-0.227-1.156
		c-0.288-0.574-0.816-0.861-1.588-0.861c-0.892,0-1.508,0.37-1.848,1.11c-0.174,0.394-0.261,0.866-0.261,1.417v7.357h-3.254v-7.357
		c0-0.732-0.076-1.266-0.227-1.598c-0.272-0.598-0.805-0.896-1.599-0.896c-0.922,0-1.542,0.298-1.859,0.896
		c-0.174,0.34-0.261,0.847-0.261,1.52v7.438h-3.276V91.4h3.141v1.803c0.4-0.643,0.778-1.1,1.134-1.371
		c0.627-0.484,1.439-0.727,2.438-0.727c0.944,0,1.708,0.208,2.29,0.624c0.469,0.386,0.823,0.881,1.065,1.485
		c0.423-0.727,0.948-1.259,1.576-1.6c0.664-0.34,1.405-0.51,2.222-0.51C70.283,91.105,70.82,91.212,71.35,91.423z"/>
	<path fill="#FFCEED" d="M86.968,92.704c1.008,1.065,1.512,2.631,1.512,4.693c0,2.178-0.492,3.835-1.478,4.978
		c-0.985,1.141-2.254,1.712-3.806,1.712c-0.988,0-1.811-0.245-2.465-0.737c-0.357-0.271-0.707-0.668-1.05-1.189v6.439h-3.197V91.378
		h3.096v1.825c0.35-0.537,0.723-0.959,1.118-1.271c0.723-0.551,1.582-0.827,2.579-0.827C84.729,91.105,85.96,91.639,86.968,92.704z
		 M84.488,95.028c-0.439-0.732-1.151-1.1-2.137-1.1c-1.184,0-1.996,0.556-2.439,1.666c-0.229,0.59-0.344,1.339-0.344,2.245
		c0,1.436,0.385,2.445,1.156,3.026c0.458,0.341,1,0.512,1.626,0.512c0.909,0,1.603-0.35,2.08-1.044
		c0.477-0.695,0.716-1.621,0.716-2.777C85.146,96.604,84.927,95.762,84.488,95.028z"/>
	<path fill="#FFCEED" d="M97.623,91.088c0.042,0.004,0.134,0.01,0.277,0.018v3.311c-0.204-0.022-0.385-0.037-0.544-0.045
		c-0.158-0.008-0.287-0.012-0.386-0.012c-1.3,0-2.173,0.423-2.618,1.27c-0.25,0.477-0.375,1.21-0.375,2.2v5.906h-3.253V91.378h3.083
		v2.154c0.499-0.824,0.934-1.388,1.305-1.689c0.604-0.506,1.391-0.76,2.357-0.76C97.53,91.083,97.581,91.084,97.623,91.088z"/>
	<path fill="#FFCEED" d="M110.1,102.225c-1.043,1.286-2.627,1.93-4.75,1.93s-3.707-0.644-4.75-1.93
		c-1.043-1.289-1.564-2.839-1.564-4.65c0-1.782,0.521-3.327,1.564-4.633c1.043-1.307,2.627-1.96,4.75-1.96s3.707,0.653,4.75,1.96
		c1.043,1.306,1.564,2.851,1.564,4.633C111.664,99.386,111.143,100.936,110.1,102.225z M107.516,100.438
		c0.506-0.672,0.76-1.626,0.76-2.864c0-1.237-0.254-2.191-0.76-2.858c-0.507-0.668-1.232-1.002-2.178-1.002
		s-1.673,0.334-2.184,1.002c-0.51,0.667-0.764,1.621-0.764,2.858c0,1.238,0.254,2.192,0.764,2.864
		c0.511,0.671,1.238,1.007,2.184,1.007S107.009,101.109,107.516,100.438z"/>
	<path fill="#FFCEED" d="M121.59,91.378h3.469l-4.461,12.356h-3.408l-4.432-12.356h3.629l2.573,9.115L121.59,91.378z"/>
	<path fill="#FFCEED" d="M134.941,91.628c0.863,0.387,1.574,0.995,2.137,1.829c0.506,0.733,0.834,1.585,0.984,2.554
		c0.086,0.567,0.121,1.385,0.105,2.452h-9c0.05,1.24,0.48,2.109,1.292,2.607c0.493,0.311,1.087,0.466,1.781,0.466
		c0.735,0,1.334-0.188,1.794-0.567c0.251-0.203,0.473-0.487,0.665-0.85h3.3c-0.087,0.732-0.486,1.477-1.198,2.232
		c-1.106,1.201-2.655,1.803-4.647,1.803c-1.646,0-3.096-0.508-4.354-1.521c-1.258-1.015-1.886-2.664-1.886-4.948
		c0-2.141,0.567-3.781,1.702-4.925c1.135-1.142,2.607-1.713,4.419-1.713C133.111,91.049,134.08,91.242,134.941,91.628z
		 M130.107,94.419c-0.455,0.471-0.742,1.108-0.859,1.913h5.566c-0.06-0.857-0.347-1.509-0.86-1.952
		c-0.517-0.445-1.154-0.667-1.917-0.667C131.208,93.713,130.564,93.949,130.107,94.419z"/>
	<path fill="#FFCEED" d="M146.355,91.576c0.582,0.328,1.055,0.784,1.416,1.366v-5.895h3.276v16.688h-3.14v-1.711
		c-0.461,0.732-0.986,1.266-1.576,1.599c-0.59,0.332-1.322,0.499-2.199,0.499c-1.443,0-2.658-0.584-3.645-1.753
		c-0.987-1.168-1.479-2.665-1.479-4.494c0-2.108,0.485-3.768,1.456-4.978c0.973-1.209,2.27-1.813,3.895-1.813
		C145.107,91.083,145.773,91.247,146.355,91.576z M147.148,100.38c0.477-0.681,0.715-1.561,0.715-2.642
		c0-1.512-0.381-2.593-1.146-3.242c-0.469-0.394-1.013-0.59-1.633-0.59c-0.944,0-1.64,0.356-2.08,1.07
		c-0.442,0.715-0.664,1.601-0.664,2.659c0,1.142,0.226,2.054,0.675,2.737c0.45,0.685,1.133,1.026,2.047,1.026
		C145.979,101.4,146.673,101.061,147.148,100.38z"/>
	<path fill="#FFCEED" d="M67.937,118.95c0.042,0.004,0.134,0.01,0.278,0.018v3.312c-0.204-0.022-0.386-0.039-0.545-0.047
		c-0.158-0.008-0.287-0.01-0.385-0.01c-1.301,0-2.174,0.422-2.619,1.27c-0.25,0.476-0.374,1.209-0.374,2.199v5.906h-3.254V119.24
		h3.084v2.154c0.498-0.824,0.934-1.388,1.304-1.689c0.604-0.508,1.391-0.76,2.358-0.76C67.844,118.945,67.896,118.945,67.937,118.95
		z"/>
	<path fill="#FFCEED" d="M78.16,119.49c0.862,0.385,1.574,0.994,2.136,1.826c0.506,0.735,0.834,1.588,0.984,2.557
		c0.087,0.568,0.122,1.386,0.106,2.452h-9c0.05,1.239,0.48,2.108,1.292,2.606c0.494,0.312,1.087,0.465,1.781,0.465
		c0.736,0,1.334-0.188,1.795-0.565c0.251-0.205,0.472-0.488,0.665-0.851h3.299c-0.088,0.732-0.486,1.478-1.199,2.232
		c-1.106,1.202-2.656,1.803-4.648,1.803c-1.645,0-3.096-0.507-4.353-1.521c-1.257-1.015-1.886-2.663-1.886-4.947
		c0-2.142,0.567-3.782,1.702-4.925c1.135-1.143,2.608-1.713,4.419-1.713C76.329,118.911,77.298,119.104,78.16,119.49z
		 M73.326,122.281c-0.456,0.47-0.743,1.107-0.86,1.912h5.566c-0.059-0.857-0.346-1.51-0.86-1.952
		c-0.516-0.444-1.154-0.666-1.917-0.666C74.426,121.575,73.783,121.811,73.326,122.281z"/>
	<path fill="#FFCEED" d="M90.412,123.673c-0.06-0.461-0.216-0.878-0.465-1.248c-0.364-0.498-0.929-0.747-1.694-0.747
		c-1.091,0-1.837,0.539-2.238,1.62c-0.212,0.573-0.318,1.334-0.318,2.284c0,0.906,0.106,1.633,0.318,2.184
		c0.386,1.027,1.113,1.541,2.182,1.541c0.758,0,1.296-0.203,1.614-0.611c0.317-0.408,0.511-0.938,0.579-1.588h3.299
		c-0.075,0.982-0.431,1.914-1.066,2.789c-1.014,1.414-2.516,2.121-4.505,2.121c-1.99,0-3.454-0.591-4.393-1.77
		c-0.938-1.18-1.407-2.707-1.407-4.587c0-2.119,0.519-3.769,1.555-4.947c1.037-1.18,2.467-1.769,4.29-1.769
		c1.551,0,2.82,0.347,3.808,1.041c0.988,0.695,1.571,1.925,1.753,3.687H90.412L90.412,123.673z"/>
	<path fill="#FFCEED" d="M99.256,117.766H95.98v-2.98h3.276V117.766z M95.979,119.239h3.276v12.356h-3.276V119.239z"/>
	<path fill="#FFCEED" d="M112.775,120.564c1.009,1.066,1.513,2.631,1.513,4.694c0,2.177-0.492,3.835-1.478,4.978
		c-0.984,1.142-2.254,1.712-3.806,1.712c-0.989,0-1.812-0.246-2.465-0.736c-0.358-0.272-0.708-0.669-1.05-1.19v6.439h-3.197v-17.222
		h3.096v1.825c0.35-0.537,0.723-0.961,1.117-1.271c0.723-0.552,1.582-0.827,2.579-0.827
		C110.538,118.968,111.77,119.5,112.775,120.564z M110.297,122.891c-0.439-0.733-1.15-1.101-2.136-1.101
		c-1.185,0-1.997,0.556-2.44,1.667c-0.229,0.59-0.343,1.338-0.343,2.244c0,1.438,0.386,2.445,1.155,3.027
		c0.459,0.34,1.001,0.51,1.627,0.51c0.908,0,1.602-0.348,2.078-1.043c0.478-0.694,0.717-1.621,0.717-2.777
		C110.955,124.466,110.734,123.623,110.297,122.891z"/>
	<path fill="#FFCEED" d="M124.62,119.49c0.86,0.385,1.573,0.994,2.135,1.826c0.507,0.735,0.835,1.588,0.983,2.557
		c0.089,0.568,0.123,1.386,0.107,2.452h-9c0.051,1.239,0.48,2.108,1.291,2.606c0.494,0.312,1.088,0.465,1.782,0.465
		c0.735,0,1.334-0.188,1.794-0.565c0.251-0.205,0.473-0.488,0.665-0.851h3.3c-0.088,0.732-0.486,1.478-1.199,2.232
		c-1.105,1.202-2.655,1.803-4.647,1.803c-1.646,0-3.097-0.507-4.353-1.521c-1.258-1.015-1.888-2.663-1.888-4.947
		c0-2.142,0.567-3.782,1.703-4.925s2.606-1.713,4.419-1.713C122.789,118.911,123.758,119.104,124.62,119.49z M119.786,122.281
		c-0.457,0.47-0.743,1.107-0.86,1.912h5.566c-0.061-0.857-0.346-1.51-0.861-1.952c-0.515-0.444-1.152-0.666-1.916-0.666
		C120.887,121.575,120.243,121.811,119.786,122.281z"/>
	<path fill="#FFCEED" d="M131.986,127.652c0.066,0.572,0.216,0.981,0.443,1.224c0.402,0.431,1.146,0.646,2.231,0.646
		c0.639,0,1.146-0.095,1.521-0.283c0.377-0.188,0.563-0.473,0.563-0.85c0-0.363-0.151-0.64-0.454-0.828s-1.43-0.515-3.38-0.976
		c-1.404-0.349-2.394-0.782-2.968-1.304c-0.574-0.514-0.862-1.256-0.862-2.223c0-1.142,0.448-2.123,1.347-2.941
		c0.897-0.82,2.161-1.23,3.789-1.23c1.545,0,2.805,0.309,3.777,0.926c0.974,0.614,1.531,1.68,1.676,3.189h-3.23
		c-0.045-0.415-0.162-0.744-0.353-0.986c-0.356-0.438-0.963-0.656-1.819-0.656c-0.703,0-1.205,0.108-1.506,0.328
		c-0.299,0.22-0.449,0.477-0.449,0.771c0,0.37,0.16,0.639,0.479,0.805c0.318,0.176,1.443,0.473,3.374,0.896
		c1.287,0.303,2.252,0.761,2.896,1.373c0.635,0.619,0.951,1.394,0.951,2.322c0,1.226-0.455,2.226-1.369,3
		c-0.912,0.773-2.322,1.162-4.23,1.162c-1.946,0-3.383-0.41-4.312-1.23c-0.927-0.82-1.391-1.865-1.391-3.135H131.986
		L131.986,127.652z"/>
</g>
</svg>
