<?xml version="1.0" encoding="utf-8"?>
<!-- Generator: Adobe Illustrator 16.0.0, SVG Export Plug-In . SVG Version: 6.00 Build 0)  -->
<!DOCTYPE svg PUBLIC "-//W3C//DTD SVG 1.1//EN" "http://www.w3.org/Graphics/SVG/1.1/DTD/svg11.dtd">
<svg version="1.1" id="Layer_1" xmlns="http://www.w3.org/2000/svg" xmlns:xlink="http://www.w3.org/1999/xlink" x="0px" y="0px"
	 width="200px" height="200px" viewBox="0 0 200 200" enable-background="new 0 0 200 200" xml:space="preserve">
<g>
	<polygon fill="#00B0F9" points="100.022,2.236 109.564,39.586 130.182,7.014 127.715,45.483 157.387,20.876 143.152,56.701 
		178.979,42.467 154.37,72.14 192.84,69.674 160.268,90.29 197.617,99.832 160.268,109.374 192.84,129.99 154.37,127.523 
		178.979,157.197 143.152,142.963 157.387,178.786 127.715,154.18 130.182,192.648 109.564,160.078 100.022,197.427 90.48,160.078 
		69.864,192.648 72.331,154.18 42.657,178.786 56.891,142.963 21.066,157.197 45.674,127.523 7.204,129.99 39.776,109.374 
		2.427,99.832 39.776,90.29 7.204,69.674 45.674,72.14 21.066,42.467 56.891,56.701 42.657,20.876 72.331,45.483 69.864,7.014 
		90.48,39.586 	"/>
	<path fill="#00B0F9" d="M100.022,199.404l-9.736-38.105l-21.034,33.23l2.517-39.248l-30.274,25.104l14.522-36.549l-36.551,14.521
		l25.106-30.273l-39.249,2.518l33.232-21.035L0.45,99.832l38.106-9.735L5.324,69.062l39.249,2.516L19.466,41.304l36.551,14.523
		L41.495,19.275l30.274,25.106L69.252,5.133l21.034,33.231l9.736-38.105l9.735,38.105L130.79,5.133l-2.517,39.249l30.273-25.106
		l-14.521,36.552l36.552-14.523l-25.106,30.274l39.249-2.516l-33.231,21.034l38.106,9.735l-38.106,9.734l33.231,21.035
		l-39.249-2.518l25.106,30.273l-36.552-14.521l14.521,36.549l-30.273-25.104l2.517,39.248l-21.033-33.23L100.022,199.404z
		 M90.673,158.857l9.349,36.593l9.349-36.593l20.197,31.91l-2.416-37.689l29.072,24.107l-13.945-35.097l35.099,13.944
		l-24.108-29.071l37.689,2.416l-31.912-20.198l36.594-9.349l-36.594-9.35l31.912-20.198L153.27,72.7l24.108-29.072l-35.099,13.945
		l13.945-35.099l-29.072,24.109l2.416-37.69l-20.197,31.912l-9.349-36.592l-9.349,36.592L70.475,8.895l2.417,37.69L43.82,22.476
		l13.945,35.099L22.666,43.629l24.109,29.072l-37.69-2.417l31.912,20.198l-36.592,9.35l36.592,9.35L9.085,129.379l37.69-2.416
		l-24.109,29.071l35.099-13.944L43.82,177.188l29.072-24.108l-2.417,37.69L90.673,158.857z"/>
</g>
<g>
	<path fill="#FFCEED" d="M64.378,69.763c0.545,0.232,0.993,0.588,1.344,1.066c0.297,0.405,0.479,0.822,0.544,1.251
		c0.066,0.428,0.1,1.128,0.1,2.097v6.378h-2.897v-6.607c0-0.585-0.099-1.057-0.297-1.416c-0.257-0.505-0.745-0.757-1.463-0.757
		c-0.745,0-1.31,0.25-1.695,0.752c-0.386,0.502-0.579,1.218-0.579,2.148v5.88h-2.837V65.93h2.837v5.177
		c0.41-0.631,0.884-1.07,1.423-1.319s1.105-0.373,1.7-0.373C63.227,69.414,63.833,69.53,64.378,69.763z"/>
	<path fill="#FFCEED" d="M73.333,73.954c0.528-0.066,0.906-0.149,1.133-0.249c0.408-0.173,0.612-0.441,0.612-0.806
		c0-0.445-0.157-0.753-0.47-0.922c-0.312-0.169-0.772-0.254-1.377-0.254c-0.679,0-1.161,0.166-1.443,0.498
		c-0.202,0.245-0.336,0.578-0.404,0.995h-2.738c0.06-0.948,0.327-1.729,0.8-2.339c0.754-0.956,2.047-1.434,3.88-1.434
		c1.193,0,2.253,0.235,3.18,0.707c0.927,0.471,1.39,1.36,1.39,2.668v4.979c0,0.345,0.006,0.763,0.02,1.254
		c0.02,0.372,0.076,0.624,0.169,0.757c0.092,0.133,0.232,0.242,0.418,0.328v0.418h-3.086c-0.086-0.219-0.146-0.424-0.179-0.616
		c-0.033-0.193-0.06-0.412-0.08-0.657c-0.393,0.424-0.847,0.786-1.362,1.085c-0.614,0.352-1.309,0.527-2.083,0.527
		c-0.988,0-1.804-0.28-2.449-0.841c-0.644-0.562-0.966-1.356-0.966-2.385c0-1.334,0.519-2.3,1.555-2.897
		c0.568-0.325,1.404-0.558,2.507-0.696L73.333,73.954z M75.068,75.278c-0.182,0.113-0.365,0.204-0.55,0.273
		c-0.185,0.07-0.439,0.135-0.762,0.194l-0.646,0.12c-0.605,0.106-1.041,0.235-1.304,0.388c-0.447,0.259-0.67,0.661-0.67,1.205
		c0,0.484,0.136,0.834,0.409,1.05c0.273,0.217,0.605,0.324,0.997,0.324c0.619,0,1.19-0.18,1.713-0.538s0.793-1.012,0.814-1.961
		L75.068,75.278L75.068,75.278z"/>
	<path fill="#FFCEED" d="M83.272,80.555h-2.837V65.88h2.837V80.555z"/>
	<path fill="#FFCEED" d="M90.53,65.745c0.146,0.01,0.345,0.024,0.597,0.045v2.31c-0.159-0.02-0.426-0.034-0.801-0.045
		c-0.375-0.01-0.634,0.073-0.777,0.249c-0.143,0.176-0.214,0.37-0.214,0.583c0,0.212,0,0.518,0,0.916h1.862v2.001h-1.862v8.751
		h-2.817v-8.751h-1.593v-2.001h1.553v-0.697c0-1.162,0.196-1.962,0.587-2.399c0.412-0.65,1.404-0.976,2.978-0.976
		C90.222,65.73,90.384,65.735,90.53,65.745z"/>
	<path fill="#FFCEED" d="M107.621,70.867c0.886,0.937,1.328,2.311,1.328,4.122c0,1.912-0.432,3.369-1.297,4.371
		c-0.865,1.003-1.979,1.504-3.344,1.504c-0.867,0-1.59-0.216-2.164-0.647c-0.313-0.239-0.621-0.588-0.922-1.046v5.656h-2.808V69.703
		h2.718v1.603c0.309-0.471,0.635-0.843,0.981-1.115c0.635-0.484,1.39-0.727,2.266-0.727
		C105.656,69.464,106.736,69.932,107.621,70.867z M105.443,72.908c-0.385-0.644-1.01-0.965-1.875-0.965
		c-1.041,0-1.754,0.487-2.144,1.463c-0.2,0.519-0.302,1.175-0.302,1.972c0,1.262,0.338,2.147,1.016,2.658
		c0.401,0.299,0.879,0.448,1.428,0.448c0.799,0,1.408-0.306,1.826-0.916c0.42-0.61,0.629-1.424,0.629-2.439
		C106.021,74.293,105.83,73.553,105.443,72.908z"/>
	<path fill="#FFCEED" d="M116.979,69.449c0.037,0.003,0.119,0.008,0.244,0.015v2.907c-0.179-0.02-0.338-0.033-0.478-0.04
		c-0.14-0.006-0.253-0.01-0.338-0.01c-1.144,0-1.909,0.372-2.3,1.115c-0.221,0.418-0.33,1.062-0.33,1.932v5.187h-2.856V69.703h2.708
		v1.892c0.438-0.724,0.82-1.219,1.145-1.483c0.531-0.445,1.224-0.667,2.072-0.667C116.898,69.444,116.943,69.445,116.979,69.449z"/>
	<path fill="#FFCEED" d="M121.803,68.408h-2.877V65.79h2.877V68.408z M118.926,69.703h2.877v10.852h-2.877V69.703z"/>
	<path fill="#FFCEED" d="M131.043,73.596c-0.055-0.404-0.189-0.77-0.409-1.095c-0.319-0.438-0.815-0.657-1.487-0.657
		c-0.957,0-1.612,0.475-1.967,1.424c-0.186,0.503-0.279,1.171-0.279,2.006c0,0.795,0.095,1.434,0.279,1.917
		c0.34,0.902,0.979,1.354,1.918,1.354c0.664,0,1.137-0.179,1.416-0.537c0.279-0.358,0.449-0.823,0.51-1.395h2.896
		c-0.066,0.863-0.379,1.68-0.938,2.449c-0.89,1.241-2.209,1.862-3.957,1.862c-1.746,0-3.031-0.518-3.855-1.554
		c-0.824-1.035-1.236-2.378-1.236-4.027c0-1.861,0.455-3.311,1.365-4.346s2.166-1.553,3.768-1.553c1.363,0,2.478,0.305,3.345,0.916
		c0.866,0.61,1.38,1.689,1.54,3.235L131.043,73.596L131.043,73.596z"/>
	<path fill="#FFCEED" d="M142.963,69.923c0.758,0.339,1.383,0.874,1.875,1.605c0.445,0.645,0.732,1.393,0.865,2.243
		c0.076,0.499,0.107,1.217,0.094,2.154h-7.904c0.045,1.089,0.422,1.852,1.135,2.29c0.435,0.271,0.955,0.407,1.564,0.407
		c0.646,0,1.172-0.165,1.576-0.497c0.221-0.18,0.414-0.428,0.584-0.747h2.896c-0.076,0.644-0.428,1.298-1.053,1.962
		c-0.973,1.055-2.332,1.583-4.082,1.583c-1.445,0-2.72-0.445-3.822-1.335c-1.104-0.891-1.656-2.339-1.656-4.346
		c0-1.88,0.498-3.321,1.494-4.324c0.998-1.003,2.291-1.505,3.882-1.505C141.355,69.414,142.207,69.584,142.963,69.923z
		 M138.718,72.374c-0.399,0.413-0.653,0.974-0.755,1.68h4.889c-0.053-0.753-0.305-1.325-0.756-1.715
		c-0.453-0.39-1.014-0.585-1.684-0.585C139.684,71.754,139.119,71.961,138.718,72.374z"/>
	<path fill="#FFCEED" d="M87.165,103.695c-0.916,1.132-2.306,1.697-4.171,1.697c-1.865,0-3.255-0.565-4.171-1.697
		c-0.917-1.131-1.374-2.49-1.374-4.083c0-1.565,0.458-2.922,1.374-4.069c0.916-1.146,2.306-1.721,4.171-1.721
		c1.865,0,3.256,0.574,4.171,1.721c0.917,1.147,1.375,2.504,1.375,4.069C88.539,101.205,88.081,102.564,87.165,103.695z
		 M84.895,102.128c0.445-0.59,0.667-1.428,0.667-2.515c0-1.088-0.223-1.924-0.667-2.511c-0.444-0.586-1.082-0.88-1.911-0.88
		c-0.83,0-1.469,0.294-1.917,0.88c-0.448,0.587-0.672,1.423-0.672,2.511c0,1.087,0.224,1.925,0.672,2.515
		c0.448,0.59,1.087,0.886,1.917,0.886C83.813,103.014,84.45,102.718,84.895,102.128z"/>
	<path fill="#FFCEED" d="M99.321,94.794c0.711,0.588,1.066,1.562,1.066,2.922v7.31H97.48v-6.603c0-0.571-0.075-1.009-0.227-1.314
		c-0.277-0.558-0.804-0.836-1.582-0.836c-0.955,0-1.611,0.408-1.967,1.225c-0.184,0.432-0.277,0.982-0.277,1.653v5.875H90.59V94.191
		h2.748v1.583c0.363-0.558,0.707-0.959,1.031-1.204c0.582-0.438,1.318-0.657,2.21-0.657C97.697,93.913,98.611,94.207,99.321,94.794z
		"/>
	<path fill="#FFCEED" d="M112.988,98.423c0.529-0.066,0.906-0.149,1.134-0.249c0.407-0.172,0.612-0.441,0.612-0.806
		c0-0.445-0.156-0.752-0.469-0.922c-0.313-0.169-0.773-0.253-1.379-0.253c-0.681,0-1.16,0.165-1.443,0.497
		c-0.201,0.246-0.336,0.578-0.402,0.996h-2.738c0.061-0.949,0.326-1.729,0.799-2.34c0.754-0.956,2.047-1.434,3.881-1.434
		c1.193,0,2.254,0.235,3.181,0.707c0.927,0.471,1.39,1.36,1.39,2.668v4.979c0,0.346,0.008,0.764,0.021,1.254
		c0.02,0.373,0.076,0.625,0.168,0.758c0.094,0.133,0.232,0.242,0.419,0.328v0.418h-3.087c-0.086-0.219-0.146-0.424-0.18-0.617
		c-0.033-0.192-0.06-0.411-0.08-0.656c-0.394,0.425-0.848,0.786-1.361,1.085c-0.613,0.353-1.309,0.526-2.082,0.526
		c-0.988,0-1.805-0.279-2.449-0.84c-0.645-0.562-0.967-1.356-0.967-2.385c0-1.335,0.52-2.301,1.557-2.897
		c0.567-0.325,1.403-0.558,2.506-0.697L112.988,98.423z M114.725,99.747c-0.183,0.113-0.365,0.204-0.551,0.274
		c-0.186,0.069-0.439,0.134-0.762,0.193l-0.646,0.12c-0.604,0.105-1.039,0.234-1.304,0.389c-0.446,0.26-0.671,0.66-0.671,1.204
		c0,0.484,0.137,0.835,0.41,1.05c0.271,0.217,0.604,0.324,0.996,0.324c0.619,0,1.189-0.18,1.713-0.537
		c0.523-0.359,0.793-1.013,0.812-1.962v-1.055H114.725z"/>
	<path fill="#FFCEED" d="M122.928,105.023h-2.837V90.349h2.837V105.023z"/>
	<path fill="#FFCEED" d="M128.594,105.023h-2.838V90.349h2.838V105.023z"/>
	<path fill="#FFCEED" d="M55.001,118.814c0.511,0.289,0.926,0.688,1.245,1.199v-5.178h2.877v14.656h-2.758v-1.504
		c-0.405,0.644-0.866,1.111-1.384,1.404c-0.518,0.291-1.161,0.438-1.931,0.438c-1.268,0-2.335-0.514-3.201-1.538
		c-0.866-1.024-1.299-2.342-1.299-3.948c0-1.852,0.426-3.309,1.279-4.369c0.853-1.062,1.993-1.594,3.42-1.594
		C53.905,118.382,54.49,118.525,55.001,118.814z M55.698,126.546c0.418-0.598,0.627-1.371,0.627-2.319
		c0-1.328-0.335-2.276-1.005-2.848c-0.412-0.346-0.89-0.52-1.434-0.52c-0.83,0-1.438,0.313-1.827,0.941
		c-0.389,0.627-0.583,1.405-0.583,2.334c0,1.004,0.197,1.805,0.592,2.404c0.395,0.602,0.994,0.9,1.797,0.9
		C54.669,127.441,55.28,127.143,55.698,126.546z"/>
	<path fill="#FFCEED" d="M70.752,128.165c-0.916,1.131-2.307,1.696-4.172,1.696c-1.865,0-3.255-0.565-4.171-1.696
		s-1.374-2.492-1.374-4.084c0-1.563,0.458-2.921,1.374-4.067c0.916-1.147,2.306-1.723,4.171-1.723c1.865,0,3.256,0.574,4.172,1.723
		c0.917,1.146,1.374,2.504,1.374,4.067C72.125,125.673,71.668,127.034,70.752,128.165z M68.481,126.598
		c0.445-0.591,0.668-1.429,0.668-2.517c0-1.086-0.223-1.924-0.668-2.511c-0.444-0.586-1.082-0.879-1.911-0.879
		c-0.83,0-1.469,0.293-1.917,0.879c-0.448,0.587-0.672,1.425-0.672,2.511c0,1.088,0.224,1.926,0.672,2.517
		c0.448,0.59,1.086,0.885,1.917,0.885C67.4,127.48,68.037,127.188,68.481,126.598z"/>
	<path fill="#FFCEED" d="M76.985,118.641v6.541c0,0.617,0.073,1.082,0.217,1.395c0.258,0.551,0.763,0.826,1.516,0.826
		c0.964,0,1.625-0.393,1.981-1.176c0.185-0.425,0.278-0.984,0.278-1.683v-5.903h2.877v10.854h-2.758v-1.534
		c-0.026,0.033-0.093,0.133-0.199,0.299c-0.105,0.166-0.231,0.312-0.377,0.438c-0.443,0.397-0.872,0.671-1.286,0.816
		s-0.898,0.219-1.454,0.219c-1.602,0-2.681-0.578-3.237-1.732c-0.311-0.637-0.466-1.576-0.466-2.816v-6.543H76.985L76.985,118.641z"
		/>
	<path fill="#FFCEED" d="M91.981,118.63c0.689,0.286,1.247,0.81,1.671,1.573v-1.562h2.768v10.295c0,1.4-0.236,2.455-0.707,3.166
		c-0.809,1.222-2.363,1.832-4.659,1.832c-1.387,0-2.519-0.271-3.396-0.816c-0.876-0.544-1.361-1.356-1.454-2.438h3.087
		c0.079,0.331,0.209,0.569,0.388,0.717c0.306,0.258,0.82,0.388,1.543,0.388c1.022,0,1.706-0.343,2.051-1.025
		c0.226-0.438,0.338-1.175,0.338-2.21v-0.697c-0.272,0.465-0.564,0.813-0.876,1.047c-0.564,0.432-1.297,0.646-2.2,0.646
		c-1.394,0-2.507-0.49-3.34-1.469s-1.249-2.305-1.249-3.979c0-1.613,0.401-2.969,1.203-4.066c0.802-1.1,1.939-1.647,3.411-1.647
		C91.103,118.382,91.576,118.464,91.981,118.63z M92.947,126.411c0.456-0.501,0.685-1.3,0.685-2.396c0-1.029-0.217-1.812-0.65-2.35
		s-1.013-0.807-1.74-0.807c-0.992,0-1.676,0.468-2.052,1.404c-0.199,0.496-0.298,1.11-0.298,1.842c0,0.629,0.105,1.19,0.317,1.683
		c0.383,0.916,1.071,1.374,2.062,1.374C91.933,127.163,92.491,126.912,92.947,126.411z"/>
	<path fill="#FFCEED" d="M106.867,118.7c0.545,0.231,0.992,0.588,1.344,1.065c0.297,0.405,0.479,0.822,0.545,1.252
		c0.066,0.428,0.1,1.127,0.1,2.097v6.379h-2.897v-6.608c0-0.586-0.099-1.058-0.296-1.416c-0.258-0.505-0.745-0.758-1.463-0.758
		c-0.744,0-1.311,0.251-1.694,0.753c-0.386,0.501-0.579,1.218-0.579,2.147v5.882h-2.837v-14.626h2.837v5.177
		c0.41-0.631,0.885-1.069,1.424-1.319c0.539-0.248,1.104-0.373,1.699-0.373C105.715,118.352,106.322,118.468,106.867,118.7z"/>
	<path fill="#FFCEED" d="M120.273,119.264c0.711,0.586,1.065,1.562,1.065,2.922v7.309h-2.907v-6.602c0-0.57-0.074-1.01-0.228-1.313
		c-0.276-0.56-0.804-0.837-1.581-0.837c-0.955,0-1.609,0.408-1.967,1.225c-0.186,0.432-0.276,0.982-0.276,1.652v5.875h-2.838V118.66
		h2.748v1.583c0.362-0.558,0.707-0.959,1.03-1.205c0.582-0.438,1.318-0.656,2.212-0.656
		C118.65,118.382,119.564,118.675,120.273,119.264z"/>
	<path fill="#FFCEED" d="M126.807,118.641v6.541c0,0.617,0.072,1.082,0.217,1.395c0.259,0.551,0.765,0.826,1.517,0.826
		c0.965,0,1.626-0.393,1.981-1.176c0.186-0.425,0.277-0.984,0.277-1.683v-5.903h2.877v10.854h-2.758v-1.534
		c-0.025,0.033-0.092,0.133-0.199,0.299c-0.105,0.166-0.23,0.312-0.377,0.438c-0.443,0.397-0.871,0.671-1.285,0.816
		s-0.897,0.219-1.453,0.219c-1.604,0-2.682-0.578-3.237-1.732c-0.312-0.637-0.468-1.576-0.468-2.816v-6.543H126.807L126.807,118.641
		z"/>
	<path fill="#FFCEED" d="M135.318,120.761v-2.021h1.514v-3.026h2.809v3.026h1.762v2.021h-1.762v5.735
		c0,0.443,0.057,0.722,0.168,0.831c0.113,0.108,0.459,0.164,1.037,0.164c0.086,0,0.176-0.002,0.272-0.005
		c0.096-0.004,0.19-0.01,0.284-0.016v2.121l-1.344,0.051c-1.343,0.045-2.259-0.188-2.748-0.697
		c-0.319-0.325-0.479-0.826-0.479-1.504v-6.682L135.318,120.761L135.318,120.761z"/>
	<path fill="#FFCEED" d="M145.424,126.027c0.061,0.505,0.191,0.863,0.391,1.074c0.354,0.379,1.009,0.568,1.961,0.568
		c0.562,0,1.007-0.083,1.336-0.249c0.33-0.166,0.496-0.415,0.496-0.747c0-0.318-0.135-0.561-0.399-0.727s-1.255-0.451-2.97-0.856
		c-1.231-0.306-2.102-0.688-2.604-1.146c-0.505-0.451-0.757-1.103-0.757-1.951c0-1.002,0.395-1.863,1.184-2.583
		c0.787-0.722,1.896-1.08,3.326-1.08c1.356,0,2.463,0.271,3.317,0.812s1.346,1.476,1.472,2.803h-2.837
		c-0.041-0.364-0.144-0.653-0.312-0.865c-0.312-0.387-0.844-0.578-1.596-0.578c-0.619,0-1.061,0.098-1.324,0.288
		c-0.262,0.192-0.395,0.419-0.395,0.678c0,0.325,0.141,0.562,0.42,0.707c0.279,0.152,1.268,0.415,2.963,0.786
		c1.131,0.266,1.977,0.668,2.541,1.205c0.559,0.544,0.838,1.225,0.838,2.041c0,1.075-0.402,1.953-1.203,2.634
		s-2.039,1.021-3.715,1.021c-1.711,0-2.973-0.359-3.787-1.079c-0.813-0.722-1.223-1.64-1.223-2.755H145.424L145.424,126.027z"/>
</g>
</svg>
