<?xml version="1.0" encoding="utf-8"?>
<!-- Generator: Adobe Illustrator 16.0.0, SVG Export Plug-In . SVG Version: 6.00 Build 0)  -->
<!DOCTYPE svg PUBLIC "-//W3C//DTD SVG 1.1//EN" "http://www.w3.org/Graphics/SVG/1.1/DTD/svg11.dtd">
<svg version="1.1" id="Layer_1" xmlns="http://www.w3.org/2000/svg" xmlns:xlink="http://www.w3.org/1999/xlink" x="0px" y="0px"
	 width="200px" height="200px" viewBox="0 0 200 200" enable-background="new 0 0 200 200" xml:space="preserve">
<g>
	<polygon fill="#00B0F9" points="99.841,3.441 109.209,52.386 136.594,10.753 126.52,59.556 167.753,31.572 139.77,72.805 
		188.573,62.73 146.939,90.116 195.883,99.484 146.939,108.854 188.573,136.238 139.77,126.163 167.753,167.396 126.52,139.412 
		136.594,188.216 109.209,146.584 99.841,195.525 90.472,146.584 63.087,188.216 73.162,139.412 31.928,167.396 59.912,126.163 
		11.109,136.236 52.742,108.854 3.798,99.484 52.742,90.116 11.109,62.73 59.912,72.805 31.928,31.572 73.162,59.556 63.087,10.753 
		90.472,52.386 	"/>
	<path fill="#00B0F9" d="M99.841,198.073l-9.617-50.24l-28.111,42.735l10.342-50.098l-42.327,28.727l28.726-42.325L8.756,137.211
		l42.737-28.109L1.251,99.484l50.242-9.617L8.756,61.755l50.097,10.342L30.127,29.771l42.327,28.726L62.113,8.4l28.111,42.737
		l9.617-50.242l9.617,50.242L137.566,8.4l-10.34,50.097l42.326-28.726l-28.727,42.327l50.099-10.342l-42.735,28.111l50.24,9.617
		l-50.24,9.618l42.735,28.11l-50.099-10.34l28.727,42.325l-42.326-28.727l10.34,50.098l-28.108-42.735L99.841,198.073z
		 M90.72,145.334l9.121,47.646l9.121-47.646l26.657,40.529l-9.809-47.51l40.144,27.244l-27.243-40.143l47.51,9.809l-40.529-26.66
		l47.646-9.121l-47.646-9.12l40.529-26.659l-47.51,9.808l27.243-40.14l-40.144,27.242l9.809-47.51l-26.657,40.529L99.841,5.988
		L90.72,53.634L64.062,13.105l9.808,47.51L33.73,33.373l27.242,40.14l-47.51-9.808l40.529,26.66l-47.646,9.12l47.646,9.121
		l-40.529,26.658l47.51-9.807L33.73,165.6l40.14-27.244l-9.808,47.51L90.72,145.334z"/>
</g>
<g>
	<path fill="#FFCEED" d="M87.124,62.15c0.91,0.752,1.366,2.001,1.366,3.745v9.367h-3.727v-8.46c0-0.732-0.097-1.293-0.291-1.684
		c-0.356-0.715-1.031-1.072-2.027-1.072c-1.225,0-2.065,0.523-2.521,1.569c-0.236,0.553-0.355,1.259-0.355,2.119v7.528h-3.636
		V61.377h3.521v2.029c0.466-0.714,0.906-1.229,1.321-1.543c0.747-0.562,1.691-0.843,2.834-0.843
		C85.042,61.02,86.212,61.397,87.124,62.15z"/>
	<path fill="#FFCEED" d="M100.936,61.633c0.972,0.435,1.772,1.122,2.403,2.059c0.57,0.826,0.938,1.785,1.108,2.875
		c0.098,0.64,0.138,1.56,0.119,2.76H94.437c0.056,1.396,0.542,2.375,1.454,2.936c0.557,0.349,1.224,0.523,2.005,0.523
		c0.829,0,1.502-0.213,2.02-0.639c0.282-0.229,0.532-0.547,0.748-0.956h3.714c-0.099,0.824-0.548,1.664-1.351,2.513
		c-1.243,1.353-2.988,2.029-5.231,2.029c-1.852,0-3.484-0.57-4.9-1.711c-1.415-1.141-2.123-2.997-2.123-5.568
		c0-2.41,0.639-4.257,1.917-5.543c1.276-1.286,2.936-1.929,4.974-1.929C98.875,60.982,99.965,61.2,100.936,61.633z M95.495,64.776
		c-0.515,0.53-0.837,1.247-0.97,2.153h6.266c-0.066-0.965-0.389-1.698-0.969-2.198c-0.579-0.5-1.299-0.75-2.157-0.75
		C96.732,63.98,96.008,64.247,95.495,64.776z"/>
	<path fill="#FFCEED" d="M112.967,61.353h3.688l2.117,10.017l2.17-10.017h3.791L120.7,75.262h-3.739l-2.182-10.131l-2.207,10.131
		h-3.779l-3.902-13.909h3.902l2.171,9.979L112.967,61.353z"/>
	<path fill="#FFCEED" d="M75.837,102.184c0.077,0.646,0.244,1.104,0.5,1.379c0.453,0.484,1.29,0.727,2.512,0.727
		c0.718,0,1.29-0.105,1.712-0.318c0.424-0.212,0.635-0.531,0.635-0.957c0-0.408-0.17-0.719-0.511-0.932
		c-0.34-0.213-1.61-0.578-3.805-1.098c-1.581-0.392-2.694-0.88-3.34-1.467c-0.647-0.578-0.971-1.412-0.971-2.5
		c0-1.285,0.506-2.389,1.516-3.312c1.01-0.923,2.432-1.385,4.265-1.385c1.739,0,3.156,0.346,4.251,1.04
		c1.096,0.693,1.726,1.892,1.887,3.592h-3.636c-0.051-0.467-0.184-0.838-0.397-1.11c-0.401-0.494-1.084-0.741-2.047-0.741
		c-0.793,0-1.359,0.124-1.695,0.371c-0.337,0.247-0.506,0.536-0.506,0.868c0,0.417,0.179,0.718,0.538,0.905
		c0.358,0.196,1.624,0.533,3.797,1.009c1.448,0.34,2.535,0.855,3.258,1.545c0.714,0.697,1.071,1.569,1.071,2.615
		c0,1.379-0.514,2.503-1.541,3.376c-1.026,0.872-2.615,1.308-4.763,1.308c-2.191,0-3.809-0.462-4.853-1.385
		c-1.043-0.923-1.566-2.1-1.566-3.527h3.689V102.184z"/>
	<path fill="#FFCEED" d="M86.123,95.432v-2.591h1.939v-3.879h3.599v3.879h2.258v2.591h-2.258v7.35c0,0.569,0.072,0.926,0.217,1.065
		c0.144,0.142,0.586,0.211,1.327,0.211c0.11,0,0.227-0.002,0.351-0.007s0.245-0.01,0.364-0.019v2.718l-1.722,0.063
		c-1.719,0.06-2.893-0.237-3.522-0.895c-0.408-0.416-0.613-1.059-0.613-1.927V95.43h-1.94V95.432z"/>
	<path fill="#FFCEED" d="M99.879,92.714v8.386c0,0.789,0.094,1.387,0.279,1.785c0.331,0.706,0.979,1.061,1.941,1.061
		c1.236,0,2.084-0.504,2.541-1.506c0.236-0.545,0.355-1.264,0.355-2.157v-7.568h3.688v13.91h-3.533v-1.965
		c-0.035,0.042-0.119,0.169-0.256,0.383c-0.137,0.213-0.297,0.399-0.482,0.562c-0.57,0.512-1.118,0.858-1.648,1.047
		c-0.529,0.187-1.152,0.281-1.863,0.281c-2.053,0-3.437-0.74-4.148-2.222c-0.398-0.817-0.598-2.021-0.598-3.61v-8.386H99.879z"/>
	<path fill="#FFCEED" d="M117.975,87.642c0.188,0.012,0.441,0.032,0.767,0.057v2.96c-0.203-0.025-0.546-0.044-1.028-0.057
		c-0.48-0.013-0.812,0.094-0.994,0.319c-0.184,0.225-0.273,0.474-0.273,0.746c0,0.273,0,0.664,0,1.174h2.387v2.565h-2.387v11.218
		h-3.611V95.406h-2.041v-2.565h1.989v-0.893c0-1.489,0.252-2.514,0.753-3.075c0.527-0.834,1.8-1.251,3.816-1.251
		C117.578,87.622,117.788,87.629,117.975,87.642z"/>
	<path fill="#FFCEED" d="M126.68,87.642c0.187,0.012,0.441,0.032,0.764,0.057v2.96c-0.203-0.025-0.545-0.044-1.025-0.057
		s-0.812,0.094-0.997,0.319c-0.183,0.225-0.272,0.474-0.272,0.746c0,0.273,0,0.664,0,1.174h2.386v2.565h-2.386v11.218h-3.611V95.406
		h-2.042v-2.565h1.991v-0.893c0-1.489,0.25-2.514,0.752-3.075c0.527-0.834,1.801-1.251,3.816-1.251
		C126.283,87.622,126.49,87.629,126.68,87.642z"/>
	<path fill="#FFCEED" d="M89.096,122.416h-3.688v-3.355h3.688V122.416z M85.408,124.077h3.688v13.907h-3.688V124.077z"/>
	<path fill="#FFCEED" d="M103.834,124.874c0.911,0.753,1.366,2.001,1.366,3.745v9.365h-3.728v-8.459
		c0-0.731-0.097-1.295-0.291-1.685c-0.354-0.716-1.03-1.073-2.026-1.073c-1.224,0-2.065,0.524-2.521,1.57
		c-0.236,0.553-0.354,1.258-0.354,2.117v7.529h-3.637V124.1h3.521v2.029c0.465-0.715,0.906-1.229,1.321-1.545
		c0.746-0.562,1.691-0.841,2.834-0.841C101.753,123.745,102.924,124.121,103.834,124.874z"/>
	<path fill="#FFCEED" d="M109.756,119.239h3.994v4.768l-1.033,8.772h-1.9l-1.061-8.772V119.239z M109.846,134.298h3.814v3.688
		h-3.814V134.298z"/>
</g>
</svg>
