<?xml version="1.0" encoding="utf-8"?>
<!-- Generator: Adobe Illustrator 16.0.0, SVG Export Plug-In . SVG Version: 6.00 Build 0)  -->
<!DOCTYPE svg PUBLIC "-//W3C//DTD SVG 1.1//EN" "http://www.w3.org/Graphics/SVG/1.1/DTD/svg11.dtd">
<svg version="1.1" id="Layer_1" xmlns="http://www.w3.org/2000/svg" xmlns:xlink="http://www.w3.org/1999/xlink" x="0px" y="0px"
	 width="200px" height="200px" viewBox="0 0 200 200" enable-background="new 0 0 200 200" xml:space="preserve">
<g>
	<polygon fill="#00B0F9" points="99.777,2.354 114.975,23.326 137.041,9.766 143.059,34.958 168.635,30.875 164.549,56.451 
		189.741,62.466 176.182,84.533 197.154,99.731 176.182,114.93 189.741,136.996 164.549,143.011 168.635,168.587 143.059,164.504 
		137.041,189.693 114.975,176.135 99.777,197.107 84.577,176.135 62.513,189.693 56.498,164.504 30.921,168.587 35.003,143.011 
		9.812,136.996 23.371,114.93 2.4,99.731 23.371,84.533 9.812,62.466 35.003,56.451 30.921,30.875 56.498,34.958 62.513,9.766 
		84.577,23.326 	"/>
	<path fill="#00B0F9" d="M99.777,197.938l-15.329-21.15l-22.253,13.675l-6.066-25.405l-25.794,4.118l4.116-25.794l-25.405-6.066
		l13.674-22.254L1.571,99.731L22.72,84.403L9.046,62.148l25.405-6.066l-4.116-25.794l25.794,4.119L62.195,9l22.253,13.675
		L99.777,1.524l15.327,21.151L137.357,9l6.068,25.406l25.795-4.119L165.1,56.081l25.407,6.066l-13.675,22.255l21.152,15.328
		l-21.152,15.329l13.675,22.254l-25.407,6.066l4.121,25.794l-25.795-4.118l-6.068,25.405l-22.254-13.675L99.777,197.938z
		 M84.707,175.482l15.07,20.795l15.067-20.795l21.879,13.444l5.965-24.977l25.36,4.05l-4.051-25.357l24.979-5.965l-13.447-21.877
		l20.797-15.07l-20.797-15.069l13.447-21.878l-24.979-5.964l4.051-25.359l-25.358,4.049l-5.965-24.978l-21.879,13.444L99.777,3.183
		l-15.07,20.794L62.83,10.533L56.867,35.51l-25.359-4.049l4.047,25.359l-24.976,5.964l13.443,21.878L3.229,99.731l20.793,15.07
		l-13.443,21.877l24.976,5.965L31.508,168l25.359-4.049l5.963,24.977L84.707,175.482z"/>
</g>
<g>
	<path fill="#FFCEED" d="M74.468,72.812c0.488-1.164,1.645-2.395,3.467-3.694c1.578-1.131,2.602-1.941,3.066-2.43
		c0.715-0.763,1.072-1.597,1.072-2.503c0-0.738-0.205-1.352-0.615-1.841c-0.408-0.489-0.994-0.734-1.756-0.734
		c-1.043,0-1.754,0.389-2.131,1.167c-0.215,0.449-0.344,1.163-0.385,2.142h-3.332c0.055-1.484,0.324-2.684,0.807-3.598
		c0.916-1.741,2.543-2.611,4.877-2.611c1.85,0,3.318,0.512,4.41,1.534c1.092,1.023,1.639,2.376,1.639,4.061
		c0,1.292-0.387,2.438-1.158,3.441c-0.506,0.666-1.338,1.408-2.496,2.226l-1.373,0.975c-0.861,0.609-1.449,1.051-1.766,1.324
		c-0.316,0.272-0.584,0.589-0.801,0.95h7.617v3.021H73.661C73.694,74.99,73.962,73.847,74.468,72.812z"/>
	<path fill="#FFCEED" d="M106.331,72.487h-1.976v3.754h-3.356v-3.754h-6.906v-2.996l6.414-10.589h3.851v10.902h1.975L106.331,72.487
		L106.331,72.487z M100.999,69.804v-7.515l-4.354,7.515H100.999z"/>
	<path fill="#FFCEED" d="M115.704,64.209v-2.334c1.08-0.048,1.836-0.121,2.271-0.216c0.688-0.153,1.248-0.458,1.68-0.915
		c0.297-0.313,0.52-0.73,0.672-1.251c0.088-0.313,0.131-0.545,0.131-0.698h2.865v17.447h-3.514V64.209H115.704z"/>
	<path fill="#FFCEED" d="M97.782,104.209c-1.107,1.366-2.789,2.049-5.043,2.049c-2.254,0-3.934-0.683-5.041-2.049
		c-1.107-1.367-1.66-3.012-1.66-4.936c0-1.892,0.553-3.53,1.66-4.917c1.107-1.387,2.787-2.08,5.041-2.08
		c2.254,0,3.936,0.693,5.043,2.08c1.105,1.387,1.66,3.025,1.66,4.917C99.442,101.197,98.888,102.842,97.782,104.209z
		 M95.038,102.312c0.537-0.713,0.807-1.726,0.807-3.04c0-1.313-0.27-2.325-0.807-3.033c-0.537-0.709-1.309-1.064-2.311-1.064
		s-1.775,0.354-2.316,1.064c-0.541,0.708-0.812,1.72-0.812,3.033c0,1.314,0.271,2.327,0.812,3.04s1.314,1.069,2.316,1.069
		S94.501,103.025,95.038,102.312z"/>
	<path fill="#FFCEED" d="M112.473,93.45c0.858,0.71,1.289,1.887,1.289,3.532v8.833h-3.515v-7.979c0-0.69-0.093-1.219-0.274-1.588
		c-0.334-0.674-0.972-1.011-1.91-1.011c-1.154,0-1.947,0.494-2.377,1.48c-0.224,0.521-0.334,1.188-0.334,1.998v7.1h-3.431V92.722
		h3.32v1.913c0.438-0.674,0.854-1.159,1.245-1.456c0.703-0.53,1.595-0.794,2.673-0.794C110.512,92.385,111.613,92.74,112.473,93.45z
		"/>
	<path fill="#FFCEED" d="M48.132,122.535c0.914,0.41,1.67,1.057,2.266,1.939c0.537,0.778,0.887,1.684,1.045,2.711
		c0.094,0.604,0.131,1.471,0.113,2.604h-9.553c0.055,1.316,0.512,2.238,1.373,2.768c0.523,0.33,1.152,0.494,1.891,0.494
		c0.781,0,1.416-0.201,1.904-0.602c0.266-0.217,0.502-0.518,0.705-0.902h3.5c-0.092,0.777-0.516,1.568-1.27,2.37
		c-1.176,1.274-2.82,1.913-4.936,1.913c-1.744,0-3.285-0.537-4.619-1.613s-2.002-2.826-2.002-5.252c0-2.271,0.604-4.014,1.807-5.227
		c1.205-1.213,2.77-1.818,4.691-1.818C46.188,121.92,47.216,122.125,48.132,122.535z M43.001,125.497
		c-0.484,0.5-0.789,1.177-0.914,2.03h5.908c-0.062-0.91-0.365-1.603-0.912-2.072c-0.547-0.473-1.225-0.707-2.033-0.707
		C44.169,124.748,43.487,124.998,43.001,125.497z"/>
	<path fill="#FFCEED" d="M61.37,122.27h3.684l-4.738,13.115H56.7l-4.703-13.115h3.852l2.73,9.674L61.37,122.27z"/>
	<path fill="#FFCEED" d="M75.542,122.535c0.916,0.41,1.672,1.057,2.268,1.939c0.537,0.778,0.885,1.684,1.043,2.711
		c0.094,0.604,0.131,1.471,0.115,2.604h-9.553c0.053,1.316,0.51,2.238,1.371,2.768c0.523,0.33,1.154,0.494,1.891,0.494
		c0.781,0,1.416-0.201,1.904-0.602c0.266-0.217,0.502-0.518,0.705-0.902h3.502c-0.092,0.777-0.518,1.568-1.271,2.37
		c-1.176,1.274-2.82,1.913-4.934,1.913c-1.746,0-3.285-0.537-4.621-1.613c-1.334-1.076-2-2.826-2-5.252
		c0-2.271,0.602-4.014,1.805-5.227c1.205-1.213,2.77-1.818,4.691-1.818C73.599,121.92,74.626,122.125,75.542,122.535z
		 M70.411,125.497c-0.482,0.5-0.787,1.177-0.912,2.03h5.908c-0.064-0.91-0.367-1.603-0.914-2.072
		c-0.547-0.473-1.225-0.707-2.035-0.707C71.579,124.748,70.897,124.998,70.411,125.497z"/>
	<path fill="#FFCEED" d="M87.987,121.963c0.043,0.004,0.143,0.01,0.295,0.018v3.515c-0.217-0.024-0.41-0.04-0.578-0.05
		c-0.168-0.008-0.305-0.012-0.408-0.012c-1.381,0-2.307,0.449-2.781,1.349c-0.264,0.506-0.396,1.282-0.396,2.334v6.27h-3.453V122.27
		h3.273v2.285c0.529-0.873,0.99-1.471,1.383-1.791c0.643-0.539,1.477-0.808,2.502-0.808
		C87.888,121.956,87.942,121.959,87.987,121.963z"/>
	<path fill="#FFCEED" d="M90.808,137.898l0.434,0.024c0.338,0.017,0.658,0.004,0.963-0.036c0.305-0.039,0.562-0.132,0.77-0.275
		c0.201-0.137,0.387-0.422,0.561-0.855c0.172-0.433,0.246-0.697,0.223-0.793l-4.82-13.693h3.814l2.865,9.674l2.707-9.674h3.646
		l-4.497,12.898c-0.869,2.486-1.557,4.029-2.061,4.627c-0.508,0.598-1.52,0.896-3.037,0.896c-0.305,0-0.549-0.002-0.734-0.006
		s-0.463-0.02-0.832-0.043v-2.744H90.808z"/>
	<path fill="#FFCEED" d="M102.648,124.832v-2.441h1.828v-3.658h3.394v3.658h2.131v2.441h-2.131v6.932
		c0,0.537,0.067,0.871,0.205,1.004c0.137,0.133,0.555,0.199,1.252,0.199c0.104,0,0.215-0.002,0.33-0.007
		c0.116-0.004,0.229-0.01,0.344-0.019v2.563l-1.625,0.06c-1.621,0.057-2.728-0.225-3.319-0.842
		c-0.388-0.394-0.578-0.998-0.578-1.816v-8.074H102.648z"/>
	<path fill="#FFCEED" d="M121.628,122.342c0.66,0.281,1.201,0.711,1.625,1.289c0.356,0.489,0.578,0.993,0.656,1.512
		c0.082,0.519,0.12,1.362,0.12,2.534v7.708h-3.502v-7.986c0-0.707-0.118-1.276-0.356-1.711c-0.312-0.608-0.899-0.916-1.769-0.916
		c-0.897,0-1.584,0.305-2.049,0.91c-0.465,0.606-0.699,1.471-0.699,2.596v7.107h-3.428v-17.676h3.428v6.257
		c0.496-0.763,1.068-1.294,1.722-1.595c0.649-0.301,1.334-0.451,2.056-0.451C120.236,121.92,120.971,122.061,121.628,122.342z"/>
	<path fill="#FFCEED" d="M130.779,120.705h-3.477v-3.164h3.477V120.705z M127.305,122.27h3.477v13.115h-3.477V122.27z"/>
	<path fill="#FFCEED" d="M144.68,123.021c0.858,0.709,1.286,1.887,1.286,3.53v8.832h-3.514v-7.978c0-0.69-0.091-1.221-0.275-1.59
		c-0.334-0.674-0.971-1.01-1.909-1.01c-1.154,0-1.947,0.493-2.377,1.479c-0.224,0.521-0.334,1.187-0.334,1.997v7.1h-3.431v-13.092
		h3.322v1.914c0.438-0.674,0.854-1.16,1.243-1.457c0.703-0.529,1.595-0.794,2.673-0.794
		C142.714,121.956,143.818,122.311,144.68,123.021z"/>
	<path fill="#FFCEED" d="M155.645,122.257c0.832,0.345,1.506,0.979,2.02,1.901v-1.889h3.344v12.44c0,1.692-0.285,2.97-0.854,3.826
		c-0.979,1.478-2.855,2.215-5.631,2.215c-1.678,0-3.045-0.33-4.104-0.987c-1.06-0.656-1.646-1.64-1.758-2.947h3.729
		c0.096,0.4,0.254,0.689,0.469,0.867c0.369,0.312,0.992,0.469,1.865,0.469c1.236,0,2.062-0.413,2.48-1.24
		c0.271-0.528,0.408-1.419,0.408-2.67v-0.844c-0.33,0.562-0.682,0.983-1.059,1.264c-0.683,0.521-1.568,0.783-2.66,0.783
		c-1.685,0-3.029-0.592-4.037-1.775c-1.006-1.184-1.51-2.785-1.51-4.807c0-1.949,0.483-3.588,1.454-4.916
		c0.97-1.327,2.343-1.991,4.121-1.991C154.581,121.956,155.152,122.057,155.645,122.257z M156.812,131.66
		c0.551-0.605,0.826-1.57,0.826-2.895c0-1.242-0.263-2.188-0.785-2.839c-0.523-0.649-1.226-0.976-2.103-0.976
		c-1.199,0-2.024,0.564-2.479,1.695c-0.24,0.603-0.359,1.345-0.359,2.228c0,0.762,0.127,1.438,0.383,2.033
		c0.463,1.106,1.295,1.661,2.492,1.661C155.585,132.568,156.259,132.266,156.812,131.66z"/>
</g>
</svg>
