<?xml version="1.0" encoding="utf-8"?>
<!-- Generator: Adobe Illustrator 16.0.0, SVG Export Plug-In . SVG Version: 6.00 Build 0)  -->
<!DOCTYPE svg PUBLIC "-//W3C//DTD SVG 1.1//EN" "http://www.w3.org/Graphics/SVG/1.1/DTD/svg11.dtd">
<svg version="1.1" id="Layer_1" xmlns="http://www.w3.org/2000/svg" xmlns:xlink="http://www.w3.org/1999/xlink" x="0px" y="0px"
	 width="200px" height="200px" viewBox="0 0 200 200" enable-background="new 0 0 200 200" xml:space="preserve">
<g>
	<polygon fill="#00B0F9" points="100.264,1.347 111.785,26.804 130.609,6.152 133.701,33.926 157.986,20.102 152.344,47.47 
		179.713,41.828 165.889,66.113 193.662,69.204 173.01,88.03 198.468,99.551 173.01,111.072 193.662,129.898 165.889,132.989 
		179.713,157.274 152.344,151.633 157.986,179.001 133.701,165.177 130.609,192.95 111.785,172.299 100.264,197.756 88.741,172.299 
		69.917,192.95 66.826,165.177 42.54,179.001 48.183,151.633 20.814,157.274 34.637,132.989 6.865,129.898 27.516,111.072 
		2.059,99.551 27.516,88.03 6.865,69.204 34.637,66.113 20.814,41.828 48.183,47.47 42.54,20.102 66.826,33.926 69.917,6.152 
		88.741,26.804 	"/>
	<path fill="#00B0F9" d="M100.264,198.946l-11.662-25.766l-19.053,20.901l-3.129-28.11l-24.58,13.992l5.712-27.699l-27.701,5.709
		l13.991-24.579l-28.109-3.128l20.902-19.054L0.868,99.551L26.635,87.89L5.733,68.836l28.109-3.128L19.851,41.129l27.701,5.709
		L41.84,19.139l24.58,13.992l3.129-28.11l19.053,20.901l11.662-25.766l11.661,25.766l19.053-20.901l3.129,28.11l24.58-13.992
		l-5.712,27.699l27.701-5.709l-13.992,24.579l28.109,3.128L173.892,87.89l25.767,11.661l-25.767,11.662l20.901,19.054l-28.109,3.128
		l13.992,24.579l-27.701-5.709l5.712,27.699l-24.58-13.992l-3.129,28.11l-19.053-20.901L100.264,198.946z M88.88,171.417
		l11.383,25.148l11.383-25.148l18.596,20.401l3.053-27.438l23.992,13.657l-5.574-27.037l27.037,5.574l-13.656-23.991l27.436-3.054
		l-20.4-18.598l25.148-11.382L172.129,88.17l20.4-18.598l-27.436-3.054l13.656-23.991l-27.037,5.574l5.574-27.037l-23.992,13.657
		l-3.053-27.438l-18.596,20.401L100.264,2.537L88.88,27.686L70.284,7.284l-3.053,27.438L43.239,21.064l5.574,27.037l-27.037-5.574
		l13.656,23.991L7.997,69.572L28.398,88.17L3.249,99.551l25.149,11.382L7.997,129.53l27.436,3.054l-13.656,23.991l27.037-5.574
		l-5.574,27.037l23.992-13.657l3.053,27.438L88.88,171.417z"/>
</g>
<g>
	<path fill="#FFCEED" d="M52.537,65.238h3.469l-4.462,12.357h-3.407l-4.432-12.357h3.628l2.573,9.115L52.537,65.238z"/>
	<path fill="#FFCEED" d="M62.731,70.079c0.602-0.076,1.031-0.171,1.29-0.283c0.465-0.197,0.697-0.503,0.697-0.919
		c0-0.506-0.179-0.856-0.535-1.049c-0.355-0.193-0.879-0.289-1.568-0.289c-0.773,0-1.321,0.188-1.643,0.566
		c-0.23,0.28-0.384,0.658-0.46,1.135h-3.118c0.068-1.081,0.372-1.969,0.911-2.664c0.857-1.089,2.33-1.633,4.418-1.633
		c1.358,0,2.565,0.269,3.621,0.805c1.055,0.537,1.582,1.55,1.582,3.038v5.669c0,0.393,0.008,0.869,0.022,1.428
		c0.022,0.424,0.087,0.712,0.193,0.862c0.105,0.15,0.265,0.276,0.476,0.374v0.477h-3.515c-0.098-0.25-0.166-0.483-0.203-0.703
		c-0.038-0.22-0.068-0.469-0.092-0.748c-0.447,0.483-0.965,0.896-1.551,1.235c-0.699,0.4-1.489,0.601-2.371,0.601
		c-1.126,0-2.055-0.319-2.789-0.958c-0.733-0.639-1.1-1.543-1.1-2.715c0-1.519,0.59-2.619,1.77-3.299
		c0.647-0.371,1.6-0.635,2.855-0.794L62.731,70.079z M64.707,71.587c-0.207,0.129-0.416,0.231-0.627,0.312
		c-0.21,0.079-0.499,0.153-0.867,0.221l-0.735,0.137c-0.689,0.121-1.185,0.268-1.485,0.441c-0.509,0.295-0.764,0.753-0.764,1.372
		c0,0.552,0.155,0.95,0.467,1.196c0.311,0.245,0.688,0.368,1.134,0.368c0.706,0,1.356-0.204,1.951-0.612
		c0.595-0.407,0.903-1.152,0.927-2.232V71.587z"/>
	<path fill="#FFCEED" d="M74.049,77.596h-3.231V60.885h3.231V77.596z"/>
	<path fill="#FFCEED" d="M85.253,65.488c0.862,0.386,1.574,0.995,2.136,1.828c0.506,0.734,0.834,1.585,0.984,2.555
		c0.087,0.567,0.123,1.385,0.106,2.452h-9c0.05,1.239,0.48,2.109,1.292,2.608c0.494,0.31,1.088,0.465,1.781,0.465
		c0.736,0,1.334-0.189,1.795-0.567c0.251-0.203,0.472-0.487,0.665-0.85h3.299c-0.088,0.732-0.486,1.477-1.198,2.232
		c-1.107,1.202-2.656,1.803-4.649,1.803c-1.645,0-3.096-0.507-4.353-1.52c-1.257-1.015-1.886-2.664-1.886-4.948
		c0-2.141,0.567-3.782,1.702-4.925c1.135-1.142,2.608-1.713,4.419-1.713C83.423,64.909,84.391,65.102,85.253,65.488z M80.419,68.278
		c-0.456,0.472-0.743,1.108-0.86,1.913h5.566c-0.059-0.856-0.345-1.508-0.86-1.952s-1.153-0.666-1.916-0.666
		C81.519,67.573,80.876,67.809,80.419,68.278z"/>
	<path fill="#FFCEED" d="M100.078,65.946c0.81,0.669,1.214,1.778,1.214,3.328v8.321h-3.311v-7.517c0-0.649-0.086-1.149-0.259-1.496
		c-0.314-0.636-0.916-0.953-1.801-0.953c-1.088,0-1.834,0.465-2.239,1.395c-0.21,0.491-0.315,1.118-0.315,1.882v6.689h-3.23V65.261
		h3.129v1.803c0.413-0.635,0.805-1.093,1.174-1.372c0.662-0.499,1.502-0.748,2.518-0.748C98.229,64.943,99.27,65.277,100.078,65.946
		z"/>
	<path fill="#FFCEED" d="M103.026,67.652v-2.301h1.724v-3.447h3.197v3.447h2.006v2.301h-2.006v6.53c0,0.507,0.063,0.821,0.192,0.946
		s0.521,0.188,1.179,0.188c0.099,0,0.203-0.002,0.312-0.007c0.109-0.003,0.217-0.008,0.322-0.016v2.415l-1.53,0.057
		c-1.526,0.053-2.569-0.212-3.129-0.794c-0.362-0.37-0.544-0.94-0.544-1.712v-7.607H103.026z"/>
	<path fill="#FFCEED" d="M115.351,63.764h-3.276v-2.981h3.276V63.764z M112.074,65.238h3.276v12.357h-3.276V65.238z"/>
	<path fill="#FFCEED" d="M128.443,65.946c0.81,0.669,1.214,1.778,1.214,3.328v8.321h-3.311v-7.517c0-0.649-0.086-1.149-0.259-1.496
		c-0.314-0.636-0.915-0.953-1.8-0.953c-1.088,0-1.835,0.465-2.24,1.395c-0.21,0.491-0.315,1.118-0.315,1.882v6.689h-3.23V65.261
		h3.129v1.803c0.414-0.635,0.805-1.093,1.174-1.372c0.663-0.499,1.502-0.748,2.518-0.748
		C126.594,64.943,127.635,65.277,128.443,65.946z"/>
	<path fill="#FFCEED" d="M140.715,65.488c0.861,0.386,1.573,0.995,2.135,1.828c0.506,0.734,0.834,1.585,0.984,2.555
		c0.088,0.567,0.123,1.385,0.107,2.452h-9.001c0.051,1.239,0.481,2.109,1.292,2.608c0.494,0.31,1.088,0.465,1.782,0.465
		c0.736,0,1.334-0.189,1.794-0.567c0.251-0.203,0.473-0.487,0.665-0.85h3.299c-0.087,0.732-0.486,1.477-1.198,2.232
		c-1.106,1.202-2.656,1.803-4.648,1.803c-1.646,0-3.096-0.507-4.354-1.52c-1.257-1.015-1.886-2.664-1.886-4.948
		c0-2.141,0.567-3.782,1.703-4.925c1.134-1.142,2.607-1.713,4.419-1.713C138.884,64.909,139.853,65.102,140.715,65.488z
		 M135.881,68.278c-0.457,0.472-0.744,1.108-0.861,1.913h5.567c-0.06-0.856-0.346-1.508-0.861-1.952
		c-0.515-0.444-1.153-0.666-1.916-0.666C136.979,67.573,136.338,67.809,135.881,68.278z"/>
	<path fill="#FFCEED" d="M148.081,73.65c0.067,0.574,0.216,0.982,0.443,1.225c0.402,0.43,1.147,0.646,2.232,0.646
		c0.639,0,1.146-0.095,1.521-0.284c0.376-0.188,0.563-0.473,0.563-0.851c0-0.362-0.151-0.639-0.454-0.827
		c-0.303-0.189-1.43-0.514-3.38-0.976c-1.404-0.348-2.394-0.782-2.968-1.303c-0.574-0.515-0.862-1.256-0.862-2.223
		c0-1.142,0.449-2.122,1.347-2.943c0.897-0.819,2.16-1.229,3.789-1.229c1.545,0,2.805,0.308,3.777,0.923
		c0.974,0.616,1.532,1.681,1.676,3.192h-3.23c-0.046-0.416-0.163-0.745-0.353-0.986c-0.356-0.438-0.963-0.657-1.819-0.657
		c-0.704,0-1.207,0.109-1.506,0.328c-0.3,0.219-0.449,0.477-0.449,0.771c0,0.371,0.159,0.639,0.478,0.806
		c0.318,0.174,1.442,0.473,3.374,0.896c1.287,0.302,2.252,0.76,2.894,1.372c0.636,0.62,0.953,1.394,0.953,2.323
		c0,1.225-0.457,2.225-1.369,2.998c-0.913,0.775-2.323,1.163-4.231,1.163c-1.946,0-3.383-0.41-4.312-1.23
		c-0.928-0.82-1.391-1.864-1.391-3.134H148.081z"/>
	<path fill="#FFCEED" d="M78.572,93.299c0.582,0.329,1.055,0.783,1.417,1.365v-5.896h3.277v16.688h-3.141v-1.712
		c-0.461,0.733-0.987,1.266-1.576,1.599c-0.59,0.333-1.322,0.499-2.199,0.499c-1.444,0-2.659-0.583-3.646-1.751
		s-1.479-2.667-1.479-4.496c0-2.108,0.486-3.768,1.457-4.977c0.972-1.21,2.27-1.813,3.895-1.813
		C77.325,92.806,77.99,92.97,78.572,93.299z M79.366,102.102c0.477-0.681,0.714-1.562,0.714-2.643c0-1.511-0.382-2.592-1.145-3.242
		c-0.469-0.393-1.013-0.589-1.633-0.589c-0.945,0-1.638,0.357-2.08,1.071c-0.442,0.715-0.664,1.601-0.664,2.659
		c0,1.141,0.226,2.054,0.675,2.737c0.45,0.685,1.132,1.025,2.047,1.025C78.194,103.121,78.89,102.781,79.366,102.102z"/>
	<path fill="#FFCEED" d="M94.255,93.351c0.861,0.386,1.574,0.995,2.136,1.827c0.506,0.734,0.834,1.586,0.984,2.556
		c0.087,0.567,0.122,1.386,0.106,2.452h-9c0.05,1.239,0.48,2.108,1.292,2.607c0.494,0.31,1.087,0.465,1.781,0.465
		c0.736,0,1.334-0.188,1.795-0.567c0.25-0.204,0.472-0.487,0.664-0.851h3.299c-0.087,0.734-0.486,1.479-1.198,2.234
		c-1.106,1.201-2.656,1.803-4.648,1.803c-1.645,0-3.096-0.507-4.353-1.521c-1.257-1.013-1.886-2.661-1.886-4.946
		c0-2.141,0.567-3.783,1.702-4.924c1.135-1.143,2.608-1.714,4.419-1.714C92.424,92.771,93.393,92.964,94.255,93.351z M89.421,96.142
		c-0.456,0.471-0.743,1.108-0.86,1.912h5.566c-0.059-0.857-0.346-1.508-0.86-1.952c-0.516-0.444-1.154-0.666-1.917-0.666
		C90.521,95.436,89.878,95.67,89.421,96.142z"/>
	<path fill="#FFCEED" d="M104.01,97.94c0.602-0.075,1.031-0.17,1.291-0.283c0.464-0.196,0.696-0.502,0.696-0.919
		c0-0.506-0.178-0.854-0.534-1.047c-0.356-0.193-0.88-0.29-1.568-0.29c-0.774,0-1.322,0.188-1.644,0.566
		c-0.23,0.28-0.384,0.658-0.46,1.134h-3.117c0.067-1.081,0.371-1.969,0.91-2.664c0.857-1.088,2.33-1.632,4.418-1.632
		c1.358,0,2.565,0.267,3.621,0.804c1.055,0.537,1.582,1.55,1.582,3.039v5.669c0,0.393,0.008,0.868,0.023,1.428
		c0.022,0.424,0.087,0.71,0.192,0.861s0.265,0.276,0.476,0.375v0.476h-3.514c-0.099-0.249-0.167-0.483-0.204-0.702
		c-0.038-0.22-0.068-0.469-0.091-0.749c-0.448,0.483-0.966,0.896-1.551,1.235c-0.699,0.401-1.49,0.602-2.373,0.602
		c-1.124,0-2.054-0.319-2.787-0.958c-0.734-0.638-1.101-1.544-1.101-2.716c0-1.52,0.59-2.618,1.771-3.299
		c0.646-0.37,1.599-0.635,2.854-0.794L104.01,97.94z M105.985,99.448c-0.207,0.128-0.416,0.233-0.626,0.312
		c-0.211,0.079-0.5,0.152-0.868,0.221l-0.735,0.136c-0.689,0.121-1.185,0.269-1.485,0.442c-0.509,0.295-0.763,0.751-0.763,1.372
		c0,0.552,0.155,0.95,0.466,1.196s0.688,0.368,1.134,0.368c0.706,0,1.356-0.205,1.951-0.612c0.595-0.408,0.903-1.153,0.927-2.234
		V99.448z"/>
	<path fill="#FFCEED" d="M115.327,105.457h-3.23V88.746h3.23V105.457z"/>
	<path fill="#FFCEED" d="M120.984,101.512c0.068,0.574,0.217,0.982,0.444,1.224c0.403,0.432,1.146,0.646,2.232,0.646
		c0.639,0,1.146-0.094,1.521-0.283c0.376-0.188,0.563-0.472,0.563-0.85c0-0.363-0.151-0.639-0.454-0.828
		c-0.303-0.188-1.43-0.514-3.38-0.975c-1.404-0.348-2.394-0.782-2.968-1.305c-0.575-0.513-0.861-1.254-0.861-2.222
		c0-1.141,0.448-2.121,1.346-2.94c0.897-0.82,2.161-1.231,3.789-1.231c1.545,0,2.805,0.309,3.777,0.925
		c0.974,0.616,1.532,1.68,1.677,3.19h-3.231c-0.046-0.415-0.163-0.744-0.353-0.986c-0.356-0.438-0.963-0.657-1.819-0.657
		c-0.705,0-1.206,0.109-1.506,0.328c-0.3,0.22-0.449,0.477-0.449,0.771c0,0.37,0.159,0.639,0.478,0.805
		c0.318,0.174,1.442,0.473,3.373,0.896c1.288,0.303,2.253,0.761,2.896,1.372c0.635,0.62,0.951,1.395,0.951,2.324
		c0,1.225-0.456,2.225-1.368,3c-0.913,0.773-2.323,1.161-4.231,1.161c-1.946,0-3.384-0.41-4.312-1.229
		c-0.928-0.82-1.392-1.866-1.392-3.136H120.984z"/>
	<path fill="#FFCEED" d="M47.823,121.212c0.862,0.387,1.574,0.996,2.136,1.828c0.506,0.734,0.834,1.585,0.984,2.555
		c0.087,0.567,0.122,1.385,0.106,2.452h-9c0.05,1.24,0.48,2.109,1.292,2.608c0.494,0.31,1.087,0.465,1.781,0.465
		c0.736,0,1.335-0.189,1.795-0.567c0.251-0.203,0.473-0.486,0.665-0.85h3.299c-0.087,0.732-0.486,1.478-1.198,2.232
		c-1.107,1.202-2.656,1.803-4.648,1.803c-1.646,0-3.096-0.507-4.354-1.52c-1.257-1.014-1.886-2.663-1.886-4.947
		c0-2.141,0.567-3.782,1.703-4.925c1.135-1.143,2.607-1.714,4.419-1.714C45.993,120.633,46.962,120.826,47.823,121.212z
		 M42.99,124.003c-0.457,0.472-0.744,1.109-0.861,1.913h5.566c-0.059-0.857-0.345-1.508-0.86-1.953
		c-0.515-0.443-1.154-0.666-1.916-0.666C44.09,123.297,43.446,123.533,42.99,124.003z"/>
	<path fill="#FFCEED" d="M62.648,121.671c0.81,0.668,1.214,1.777,1.214,3.327v8.321h-3.311v-7.517c0-0.649-0.086-1.149-0.259-1.496
		c-0.315-0.635-0.915-0.953-1.801-0.953c-1.088,0-1.834,0.465-2.239,1.395c-0.21,0.491-0.315,1.119-0.315,1.882v6.689h-3.23v-12.335
		h3.129v1.803c0.414-0.635,0.805-1.093,1.174-1.371c0.662-0.5,1.502-0.749,2.518-0.749C60.799,120.667,61.84,121.002,62.648,121.671
		z"/>
	<path fill="#FFCEED" d="M73.42,121.16c0.582,0.328,1.055,0.784,1.417,1.366v-5.895h3.276v16.688h-3.141v-1.712
		c-0.461,0.733-0.986,1.267-1.575,1.599c-0.59,0.332-1.323,0.498-2.199,0.498c-1.444,0-2.659-0.584-3.646-1.751
		c-0.986-1.168-1.479-2.666-1.479-4.495c0-2.109,0.485-3.768,1.457-4.977c0.971-1.21,2.269-1.814,3.894-1.814
		C72.173,120.667,72.838,120.832,73.42,121.16z M74.213,129.964c0.477-0.681,0.715-1.562,0.715-2.642
		c0-1.512-0.382-2.593-1.146-3.242c-0.468-0.394-1.013-0.59-1.633-0.59c-0.944,0-1.638,0.356-2.08,1.071s-0.663,1.6-0.663,2.658
		c0,1.142,0.225,2.055,0.675,2.738c0.449,0.684,1.132,1.026,2.046,1.026C73.042,130.984,73.737,130.645,74.213,129.964z"/>
	<path fill="#FFCEED" d="M83.556,129.374c0.067,0.575,0.216,0.982,0.443,1.225c0.402,0.431,1.147,0.646,2.232,0.646
		c0.639,0,1.146-0.095,1.521-0.283c0.376-0.189,0.563-0.474,0.563-0.852c0-0.362-0.151-0.639-0.454-0.827
		c-0.303-0.189-1.43-0.514-3.38-0.975c-1.404-0.348-2.394-0.782-2.968-1.304c-0.574-0.515-0.862-1.255-0.862-2.223
		c0-1.142,0.449-2.121,1.347-2.941s2.16-1.23,3.789-1.23c1.545,0,2.805,0.309,3.777,0.924c0.974,0.616,1.532,1.68,1.676,3.191h-3.23
		c-0.046-0.416-0.163-0.744-0.353-0.986c-0.356-0.438-0.963-0.657-1.818-0.657c-0.705,0-1.207,0.109-1.507,0.329
		c-0.3,0.219-0.449,0.476-0.449,0.771c0,0.37,0.159,0.639,0.478,0.806c0.318,0.173,1.442,0.472,3.374,0.896
		c1.287,0.302,2.252,0.759,2.894,1.371c0.636,0.62,0.953,1.395,0.953,2.324c0,1.225-0.457,2.224-1.369,2.998
		c-0.913,0.775-2.323,1.162-4.231,1.162c-1.946,0-3.384-0.409-4.312-1.229s-1.392-1.864-1.392-3.135H83.556z"/>
	<path fill="#FFCEED" d="M105.526,116.455c0.166,0.012,0.393,0.028,0.681,0.052v2.63c-0.182-0.023-0.485-0.04-0.913-0.052
		c-0.427-0.011-0.722,0.083-0.884,0.283c-0.163,0.201-0.244,0.423-0.244,0.664c0,0.242,0,0.589,0,1.043h2.12v2.278h-2.12v9.966
		h-3.209v-9.966h-1.813v-2.278h1.769v-0.794c0-1.322,0.223-2.232,0.669-2.732c0.469-0.74,1.599-1.11,3.39-1.11
		C105.175,116.438,105.36,116.443,105.526,116.455z"/>
	<path fill="#FFCEED" d="M115.01,120.673c0.042,0.003,0.135,0.009,0.278,0.017V124c-0.204-0.022-0.386-0.037-0.545-0.045
		c-0.158-0.008-0.287-0.012-0.385-0.012c-1.3,0-2.173,0.424-2.619,1.271c-0.249,0.476-0.374,1.208-0.374,2.198v5.907h-3.254v-12.357
		h3.084v2.154c0.498-0.824,0.933-1.388,1.304-1.689c0.604-0.506,1.391-0.76,2.357-0.76
		C114.917,120.667,114.969,120.669,115.01,120.673z"/>
	<path fill="#FFCEED" d="M120.503,119.488h-3.276v-2.981h3.276V119.488z M117.227,120.962h3.276v12.357h-3.276V120.962z"/>
	<path fill="#FFCEED" d="M130.185,121.16c0.582,0.328,1.055,0.784,1.417,1.366v-5.895h3.276v16.688h-3.14v-1.712
		c-0.461,0.733-0.986,1.267-1.576,1.599c-0.589,0.332-1.323,0.498-2.199,0.498c-1.444,0-2.659-0.584-3.646-1.751
		c-0.986-1.168-1.479-2.666-1.479-4.495c0-2.109,0.485-3.768,1.456-4.977c0.972-1.21,2.27-1.814,3.895-1.814
		C128.938,120.667,129.603,120.832,130.185,121.16z M130.979,129.964c0.476-0.681,0.714-1.562,0.714-2.642
		c0-1.512-0.381-2.593-1.145-3.242c-0.469-0.394-1.014-0.59-1.633-0.59c-0.944,0-1.639,0.356-2.08,1.071
		c-0.442,0.715-0.664,1.6-0.664,2.658c0,1.142,0.226,2.055,0.675,2.738c0.45,0.684,1.132,1.026,2.047,1.026
		C129.807,130.984,130.502,130.645,130.979,129.964z"/>
	<path fill="#FFCEED" d="M142.709,125.803c0.602-0.076,1.031-0.17,1.291-0.283c0.464-0.196,0.696-0.503,0.696-0.918
		c0-0.507-0.179-0.856-0.534-1.05c-0.356-0.192-0.879-0.289-1.569-0.289c-0.773,0-1.321,0.189-1.643,0.567
		c-0.23,0.279-0.384,0.657-0.46,1.134h-3.118c0.069-1.081,0.372-1.969,0.911-2.664c0.858-1.089,2.33-1.633,4.418-1.633
		c1.359,0,2.565,0.269,3.621,0.805c1.055,0.537,1.582,1.55,1.582,3.038v5.669c0,0.394,0.008,0.869,0.023,1.429
		c0.022,0.423,0.086,0.711,0.192,0.861c0.105,0.151,0.265,0.276,0.477,0.374v0.477h-3.515c-0.099-0.249-0.167-0.483-0.204-0.703
		c-0.038-0.22-0.068-0.469-0.091-0.748c-0.448,0.484-0.966,0.896-1.551,1.235c-0.699,0.4-1.49,0.601-2.372,0.601
		c-1.125,0-2.055-0.318-2.788-0.957c-0.734-0.64-1.101-1.544-1.101-2.715c0-1.52,0.591-2.62,1.771-3.3
		c0.646-0.371,1.599-0.635,2.855-0.794L142.709,125.803z M144.685,127.311c-0.207,0.129-0.416,0.232-0.626,0.312
		c-0.211,0.079-0.5,0.152-0.868,0.221l-0.735,0.136c-0.689,0.121-1.185,0.268-1.485,0.442c-0.509,0.295-0.763,0.752-0.763,1.371
		c0,0.552,0.155,0.951,0.466,1.196s0.689,0.368,1.134,0.368c0.706,0,1.356-0.203,1.952-0.612c0.595-0.407,0.903-1.151,0.926-2.232
		V127.311z"/>
	<path fill="#FFCEED" d="M151.215,135.689l0.408,0.022c0.317,0.015,0.62,0.003,0.907-0.034c0.287-0.038,0.529-0.125,0.726-0.261
		c0.188-0.129,0.364-0.397,0.527-0.806c0.162-0.407,0.232-0.656,0.21-0.748l-4.541-12.901h3.594l2.698,9.115l2.551-9.115h3.436
		l-4.237,12.153c-0.818,2.343-1.466,3.796-1.942,4.359s-1.431,0.845-2.86,0.845c-0.287,0-0.518-0.003-0.692-0.006
		c-0.174-0.004-0.435-0.018-0.783-0.04V135.689z"/>
</g>
</svg>
