<?xml version="1.0" encoding="utf-8"?>
<!-- Generator: Adobe Illustrator 16.0.0, SVG Export Plug-In . SVG Version: 6.00 Build 0)  -->
<!DOCTYPE svg PUBLIC "-//W3C//DTD SVG 1.1//EN" "http://www.w3.org/Graphics/SVG/1.1/DTD/svg11.dtd">
<svg version="1.1" id="Layer_1" xmlns="http://www.w3.org/2000/svg" xmlns:xlink="http://www.w3.org/1999/xlink" x="0px" y="0px"
	 width="200px" height="200px" viewBox="0 0 200 200" enable-background="new 0 0 200 200" xml:space="preserve">
<polygon fill="#00B0F9" points="99.989,0.495 108.845,43.646 130.6,5.343 125.687,49.118 158.215,19.414 140.016,59.528 
	180.13,41.329 150.426,73.857 194.201,68.944 155.898,90.699 199.049,99.555 155.898,108.41 194.201,130.165 150.426,125.252 
	180.13,157.78 140.016,139.581 158.215,179.695 125.687,149.991 130.6,193.767 108.845,155.464 99.989,198.614 91.134,155.464 
	69.379,193.767 74.292,149.991 41.764,179.695 59.963,139.581 19.849,157.78 49.553,125.252 5.777,130.165 44.08,108.41 
	0.93,99.555 44.08,90.699 5.777,68.944 49.553,73.857 19.849,41.329 59.963,59.528 41.764,19.414 74.292,49.118 69.379,5.343 
	91.134,43.646 "/>
<g>
	<path fill="#FFCEED" d="M79.471,64.345c0.547,0.219,1.044,0.602,1.489,1.149c0.36,0.446,0.603,0.993,0.728,1.642
		c0.078,0.431,0.117,1.061,0.117,1.889l-0.023,8.058h-3.425v-8.14c0-0.484-0.078-0.884-0.235-1.196
		c-0.296-0.595-0.844-0.892-1.641-0.892c-0.923,0-1.561,0.384-1.912,1.149c-0.18,0.406-0.271,0.896-0.271,1.466v7.612h-3.365V69.47
		c0-0.759-0.078-1.31-0.234-1.653c-0.282-0.617-0.833-0.926-1.654-0.926c-0.954,0-1.595,0.309-1.923,0.926
		c-0.181,0.353-0.271,0.875-0.271,1.571v7.694h-3.39V64.321h3.249v1.864c0.415-0.664,0.806-1.137,1.173-1.418
		c0.649-0.501,1.49-0.752,2.521-0.752c0.978,0,1.768,0.216,2.37,0.646c0.484,0.398,0.852,0.91,1.102,1.536
		c0.438-0.751,0.981-1.303,1.63-1.654c0.688-0.352,1.455-0.528,2.3-0.528C78.368,64.016,78.924,64.126,79.471,64.345z"/>
	<path fill="#FFCEED" d="M88.209,64.298v7.705c0,0.728,0.085,1.275,0.256,1.643c0.304,0.648,0.898,0.973,1.786,0.973
		c1.135,0,1.913-0.461,2.334-1.384c0.218-0.5,0.326-1.161,0.326-1.981v-6.955h3.39v12.784h-3.249v-1.807
		c-0.03,0.039-0.108,0.156-0.233,0.352c-0.126,0.196-0.272,0.368-0.445,0.517c-0.522,0.469-1.026,0.789-1.514,0.961
		c-0.487,0.173-1.059,0.259-1.713,0.259c-1.888,0-3.158-0.681-3.813-2.04c-0.367-0.752-0.55-1.858-0.55-3.32v-7.705H88.209z"/>
	<path fill="#FFCEED" d="M102.142,73c0.07,0.595,0.224,1.017,0.459,1.268c0.417,0.445,1.187,0.668,2.31,0.668
		c0.66,0,1.185-0.098,1.574-0.293c0.389-0.196,0.583-0.489,0.583-0.88c0-0.375-0.157-0.661-0.47-0.856
		c-0.313-0.195-1.479-0.531-3.498-1.009c-1.451-0.359-2.476-0.809-3.068-1.348c-0.595-0.532-0.892-1.299-0.892-2.3
		c0-1.181,0.464-2.195,1.392-3.044c0.93-0.849,2.235-1.271,3.92-1.271c1.6,0,2.901,0.317,3.908,0.955
		c1.007,0.637,1.585,1.738,1.733,3.302h-3.343c-0.047-0.43-0.168-0.77-0.363-1.021c-0.369-0.453-0.996-0.68-1.883-0.68
		c-0.729,0-1.248,0.113-1.559,0.34c-0.31,0.227-0.464,0.493-0.464,0.797c0,0.384,0.165,0.661,0.494,0.833
		c0.328,0.181,1.492,0.489,3.49,0.927c1.331,0.312,2.329,0.785,2.994,1.419c0.657,0.642,0.985,1.443,0.985,2.405
		c0,1.267-0.473,2.3-1.416,3.101c-0.944,0.802-2.404,1.203-4.378,1.203c-2.014,0-3.499-0.425-4.46-1.272
		c-0.959-0.85-1.439-1.929-1.439-3.243H102.142z"/>
	<path fill="#FFCEED" d="M117.972,69.306c0.622-0.078,1.066-0.176,1.335-0.293c0.479-0.204,0.721-0.521,0.721-0.95
		c0-0.523-0.185-0.886-0.554-1.085c-0.368-0.2-0.91-0.299-1.622-0.299c-0.8,0-1.367,0.195-1.699,0.587
		c-0.238,0.289-0.397,0.68-0.477,1.173h-3.225c0.07-1.119,0.385-2.037,0.941-2.757c0.888-1.125,2.41-1.688,4.57-1.688
		c1.406,0,2.654,0.277,3.746,0.833c1.092,0.554,1.637,1.603,1.637,3.143v5.864c0,0.406,0.009,0.899,0.024,1.478
		c0.023,0.438,0.09,0.735,0.198,0.892c0.11,0.156,0.274,0.285,0.494,0.387v0.493h-3.637c-0.102-0.258-0.172-0.5-0.211-0.728
		s-0.07-0.484-0.094-0.774c-0.465,0.5-0.999,0.927-1.605,1.279c-0.723,0.414-1.541,0.621-2.453,0.621
		c-1.164,0-2.125-0.331-2.884-0.992c-0.76-0.66-1.139-1.596-1.139-2.808c0-1.572,0.61-2.71,1.832-3.413
		c0.669-0.384,1.653-0.656,2.953-0.821L117.972,69.306z M120.016,70.866c-0.214,0.132-0.431,0.239-0.648,0.321
		s-0.518,0.159-0.898,0.229l-0.76,0.141c-0.714,0.125-1.227,0.277-1.537,0.457c-0.525,0.306-0.789,0.778-0.789,1.42
		c0,0.57,0.16,0.982,0.482,1.236c0.321,0.255,0.713,0.381,1.173,0.381c0.73,0,1.403-0.211,2.019-0.632
		c0.615-0.423,0.935-1.193,0.959-2.312V70.866z"/>
	<path fill="#FFCEED" d="M131.33,69.306c0.622-0.078,1.067-0.176,1.335-0.293c0.479-0.204,0.721-0.521,0.721-0.95
		c0-0.523-0.185-0.886-0.553-1.085c-0.368-0.2-0.91-0.299-1.623-0.299c-0.8,0-1.367,0.195-1.699,0.587
		c-0.239,0.289-0.397,0.68-0.477,1.173h-3.225c0.071-1.119,0.385-2.037,0.942-2.757c0.887-1.125,2.41-1.688,4.57-1.688
		c1.405,0,2.654,0.277,3.745,0.833c1.092,0.554,1.638,1.603,1.638,3.143v5.864c0,0.406,0.008,0.899,0.022,1.478
		c0.024,0.438,0.091,0.735,0.2,0.892s0.273,0.285,0.492,0.387v0.493h-3.636c-0.102-0.258-0.172-0.5-0.211-0.728
		s-0.07-0.484-0.094-0.774c-0.464,0.5-0.999,0.927-1.604,1.279c-0.724,0.414-1.541,0.621-2.454,0.621
		c-1.164,0-2.124-0.331-2.884-0.992c-0.76-0.66-1.139-1.596-1.139-2.808c0-1.572,0.61-2.71,1.832-3.413
		c0.669-0.384,1.654-0.656,2.953-0.821L131.33,69.306z M133.373,70.866c-0.213,0.132-0.43,0.239-0.647,0.321
		s-0.518,0.159-0.897,0.229l-0.761,0.141c-0.713,0.125-1.226,0.277-1.536,0.457c-0.526,0.306-0.79,0.778-0.79,1.42
		c0,0.57,0.161,0.982,0.481,1.236c0.321,0.255,0.714,0.381,1.174,0.381c0.73,0,1.403-0.211,2.02-0.632
		c0.614-0.423,0.934-1.193,0.957-2.312V70.866z"/>
	<path fill="#FFCEED" d="M71.479,93.168c0.547,0.219,1.044,0.602,1.489,1.149c0.359,0.445,0.603,0.992,0.728,1.642
		c0.078,0.431,0.117,1.06,0.117,1.888l-0.024,8.058h-3.424v-8.139c0-0.485-0.078-0.884-0.235-1.197
		c-0.297-0.594-0.845-0.892-1.643-0.892c-0.922,0-1.559,0.384-1.911,1.15c-0.18,0.406-0.27,0.895-0.27,1.466v7.611h-3.366v-7.611
		c0-0.759-0.078-1.311-0.234-1.653c-0.281-0.618-0.832-0.927-1.654-0.927c-0.953,0-1.595,0.309-1.923,0.927
		c-0.18,0.352-0.27,0.875-0.27,1.571v7.693h-3.39v-12.76h3.248v1.864c0.415-0.664,0.806-1.138,1.173-1.419
		c0.649-0.5,1.489-0.751,2.522-0.751c0.978,0,1.767,0.215,2.369,0.646c0.484,0.399,0.852,0.911,1.102,1.536
		c0.438-0.75,0.981-1.301,1.631-1.653c0.688-0.353,1.455-0.528,2.299-0.528C70.375,92.839,70.931,92.948,71.479,93.168z"/>
	<path fill="#FFCEED" d="M80.215,93.12v7.706c0,0.727,0.087,1.274,0.258,1.642c0.303,0.649,0.898,0.974,1.784,0.974
		c1.137,0,1.915-0.461,2.334-1.384c0.219-0.5,0.327-1.161,0.327-1.982V93.12h3.39v12.784H85.06v-1.806
		c-0.031,0.039-0.11,0.155-0.234,0.352c-0.124,0.195-0.273,0.367-0.444,0.517c-0.522,0.468-1.027,0.789-1.516,0.962
		c-0.486,0.172-1.057,0.258-1.712,0.258c-1.888,0-3.159-0.681-3.812-2.041c-0.367-0.751-0.55-1.857-0.55-3.319V93.12H80.215z"/>
	<path fill="#FFCEED" d="M100.744,93.191c0.643,0.275,1.17,0.692,1.582,1.256c0.35,0.479,0.564,0.97,0.642,1.474
		c0.079,0.505,0.118,1.329,0.118,2.471v7.513h-3.413V98.12c0-0.688-0.116-1.244-0.349-1.667c-0.303-0.594-0.878-0.894-1.723-0.894
		c-0.878,0-1.544,0.297-1.998,0.888s-0.681,1.435-0.681,2.53v6.927H91.58V88.675h3.343v6.1c0.482-0.743,1.042-1.26,1.676-1.554
		c0.634-0.293,1.302-0.44,2.003-0.44C99.388,92.78,100.102,92.918,100.744,93.191z"/>
	<path fill="#FFCEED" d="M108.821,101.823c0.069,0.594,0.224,1.017,0.459,1.267c0.416,0.446,1.187,0.669,2.31,0.669
		c0.66,0,1.185-0.098,1.573-0.294c0.39-0.195,0.584-0.489,0.584-0.879c0-0.375-0.157-0.661-0.471-0.856
		c-0.312-0.196-1.479-0.532-3.496-1.009c-1.453-0.359-2.477-0.81-3.07-1.349c-0.595-0.531-0.892-1.298-0.892-2.299
		c0-1.181,0.464-2.194,1.393-3.043c0.928-0.849,2.235-1.273,3.92-1.273c1.598,0,2.9,0.319,3.908,0.957
		c1.006,0.637,1.585,1.737,1.733,3.301h-3.342c-0.048-0.43-0.17-0.771-0.366-1.021c-0.368-0.454-0.995-0.68-1.881-0.68
		c-0.729,0-1.248,0.112-1.558,0.34c-0.31,0.227-0.465,0.492-0.465,0.797c0,0.384,0.164,0.661,0.494,0.833
		c0.329,0.181,1.492,0.489,3.489,0.927c1.332,0.312,2.33,0.786,2.995,1.419c0.656,0.642,0.984,1.442,0.984,2.404
		c0,1.267-0.471,2.302-1.417,3.103c-0.942,0.802-2.402,1.201-4.377,1.201c-2.014,0-3.5-0.423-4.459-1.271
		c-0.961-0.85-1.439-1.931-1.439-3.244H108.821z"/>
	<path fill="#FFCEED" d="M127.917,93.381c0.893,0.398,1.629,1.028,2.21,1.89c0.523,0.761,0.863,1.642,1.018,2.643
		c0.091,0.589,0.128,1.434,0.111,2.537h-9.312c0.053,1.283,0.498,2.183,1.337,2.698c0.511,0.321,1.125,0.48,1.844,0.48
		c0.761,0,1.379-0.195,1.855-0.586c0.259-0.212,0.489-0.504,0.688-0.88h3.413c-0.09,0.759-0.503,1.529-1.239,2.311
		c-1.146,1.243-2.749,1.864-4.81,1.864c-1.701,0-3.202-0.523-4.503-1.572c-1.3-1.048-1.95-2.754-1.95-5.117
		c0-2.215,0.586-3.914,1.761-5.096c1.174-1.181,2.698-1.772,4.571-1.772C126.023,92.78,127.025,92.98,127.917,93.381z
		 M122.917,96.268c-0.472,0.487-0.77,1.146-0.89,1.979h5.758c-0.062-0.888-0.356-1.561-0.89-2.02
		c-0.533-0.46-1.194-0.689-1.982-0.689C124.055,95.537,123.39,95.781,122.917,96.268z"/>
	<path fill="#FFCEED" d="M143.254,93.854c0.838,0.691,1.256,1.839,1.256,3.441v8.608h-3.425v-7.775c0-0.672-0.089-1.188-0.268-1.548
		c-0.326-0.657-0.946-0.985-1.863-0.985c-1.124,0-1.897,0.48-2.316,1.442c-0.217,0.508-0.326,1.157-0.326,1.947v6.919h-3.342v-12.76
		h3.236v1.864c0.429-0.656,0.833-1.13,1.215-1.419c0.686-0.517,1.553-0.773,2.604-0.773
		C141.341,92.816,142.417,93.162,143.254,93.854z"/>
	<path fill="#FFCEED" d="M74.832,131.386c0.478-1.134,1.604-2.334,3.378-3.601c1.54-1.103,2.537-1.892,2.99-2.369
		c0.696-0.742,1.044-1.556,1.044-2.439c0-0.72-0.199-1.317-0.598-1.795c-0.398-0.477-0.971-0.715-1.713-0.715
		c-1.017,0-1.708,0.379-2.075,1.138c-0.212,0.438-0.337,1.133-0.376,2.088h-3.248c0.054-1.447,0.316-2.616,0.786-3.508
		c0.892-1.696,2.478-2.545,4.755-2.545c1.801,0,3.233,0.498,4.298,1.496c1.063,0.997,1.596,2.315,1.596,3.958
		c0,1.259-0.376,2.377-1.129,3.354c-0.493,0.649-1.304,1.373-2.431,2.17l-1.34,0.95c-0.838,0.595-1.412,1.024-1.721,1.291
		c-0.309,0.265-0.569,0.573-0.78,0.926h7.424v2.944H74.046C74.078,133.509,74.34,132.395,74.832,131.386z"/>
	<path fill="#FFCEED" d="M97.825,119.892c0.872,1.525,1.308,3.69,1.308,6.497c0,2.808-0.436,4.97-1.308,6.486
		c-0.872,1.518-2.391,2.275-4.556,2.275c-2.166,0-3.686-0.758-4.557-2.275c-0.872-1.517-1.308-3.679-1.308-6.486
		c0-2.807,0.436-4.972,1.308-6.497c0.871-1.524,2.391-2.286,4.557-2.286C95.435,117.605,96.953,118.367,97.825,119.892z
		 M91.298,130.875c0.321,1.036,0.978,1.554,1.972,1.554c0.992,0,1.644-0.518,1.952-1.554c0.309-1.035,0.463-2.531,0.463-4.486
		c0-2.048-0.154-3.564-0.463-4.55s-0.96-1.478-1.952-1.478c-0.994,0-1.65,0.492-1.972,1.478c-0.319,0.985-0.48,2.502-0.48,4.55
		C90.817,128.344,90.979,129.84,91.298,130.875z"/>
	<path fill="#FFCEED" d="M101.678,123v-2.275c1.054-0.047,1.791-0.117,2.212-0.211c0.67-0.148,1.216-0.446,1.638-0.892
		c0.288-0.305,0.507-0.711,0.654-1.22c0.086-0.305,0.129-0.532,0.129-0.681h2.792v17.007h-3.425V123H101.678z"/>
	<path fill="#FFCEED" d="M114.651,127.422c0.431-0.774,1.062-1.356,1.894-1.748c-0.824-0.547-1.36-1.14-1.606-1.776
		c-0.247-0.638-0.371-1.234-0.371-1.789c0-1.235,0.467-2.289,1.398-3.16c0.933-0.872,2.249-1.309,3.95-1.309
		c1.7,0,3.017,0.437,3.949,1.309c0.933,0.871,1.398,1.925,1.398,3.16c0,0.555-0.123,1.151-0.369,1.789
		c-0.246,0.637-0.78,1.19-1.601,1.659c0.84,0.47,1.473,1.091,1.896,1.865c0.424,0.773,0.636,1.638,0.636,2.592
		c0,1.431-0.529,2.647-1.59,3.653c-1.061,1.005-2.542,1.507-4.444,1.507c-1.901,0-3.341-0.502-4.319-1.507
		c-0.979-1.006-1.469-2.223-1.469-3.653C114.004,129.06,114.221,128.195,114.651,127.422z M118.127,131.737
		c0.435,0.461,1.034,0.691,1.801,0.691c0.766,0,1.365-0.23,1.801-0.691c0.434-0.461,0.649-1.109,0.649-1.947
		c0-0.867-0.221-1.525-0.662-1.976c-0.442-0.449-1.038-0.674-1.788-0.674c-0.751,0-1.347,0.225-1.789,0.674
		c-0.441,0.45-0.662,1.108-0.662,1.976C117.477,130.628,117.692,131.276,118.127,131.737z M118.34,123.996
		c0.38,0.392,0.907,0.587,1.581,0.587c0.684,0,1.21-0.195,1.582-0.587c0.372-0.39,0.559-0.895,0.559-1.512
		c0-0.673-0.187-1.199-0.559-1.577c-0.372-0.38-0.898-0.57-1.582-0.57c-0.674,0-1.201,0.19-1.581,0.57
		c-0.38,0.378-0.57,0.904-0.57,1.577C117.77,123.102,117.96,123.606,118.34,123.996z"/>
</g>
</svg>
